<?xml version="1.0" encoding="UTF-8" standalone="no"?><svg xmlns="http://www.w3.org/2000/svg" xmlns:xlink="http://www.w3.org/1999/xlink" contentScriptType="application/ecmascript" contentStyleType="text/css" height="922px" preserveAspectRatio="none" style="width:1740px;height:922px;" version="1.1" viewBox="0 0 1740 922" width="1740px" zoomAndPan="magnify"><defs><filter height="300%" id="f8sz4qnzfmk7h" width="300%" x="-1" y="-1"><feGaussianBlur result="blurOut" stdDeviation="2.0"/><feColorMatrix in="blurOut" result="blurOut2" type="matrix" values="0 0 0 0 0 0 0 0 0 0 0 0 0 0 0 0 0 0 .4 0"/><feOffset dx="4.0" dy="4.0" in="blurOut2" result="blurOut3"/><feBlend in="SourceGraphic" in2="blurOut3" mode="normal"/></filter></defs><g><!--cluster org.eclipse.keyple.calypso.commands--><polygon fill="#FFFFFF" filter="url(#f8sz4qnzfmk7h)" points="22,41,293,41,300,64.6094,1718,64.6094,1718,485,22,485,22,41" style="stroke: #000000; stroke-width: 1.5;"/><line style="stroke: #000000; stroke-width: 1.5;" x1="22" x2="300" y1="64.6094" y2="64.6094"/><text fill="#000000" font-family="sans-serif" font-size="14" font-weight="bold" lengthAdjust="spacingAndGlyphs" textLength="265" x="26" y="57.5332">org.eclipse.keyple.calypso.commands</text><!--cluster org.eclipse.keyple.calypso.commands.po--><polygon fill="#FFFFFF" filter="url(#f8sz4qnzfmk7h)" points="196,85,489,85,496,108.6094,918,108.6094,918,461,196,461,196,85" style="stroke: #000000; stroke-width: 1.5;"/><line style="stroke: #000000; stroke-width: 1.5;" x1="196" x2="496" y1="108.6094" y2="108.6094"/><text fill="#000000" font-family="sans-serif" font-size="14" font-weight="bold" lengthAdjust="spacingAndGlyphs" textLength="287" x="200" y="101.5332">org.eclipse.keyple.calypso.commands.po</text><!--cluster org.eclipse.keyple.calypso.commands.csm--><polygon fill="#FFFFFF" filter="url(#f8sz4qnzfmk7h)" points="942,92,1245,92,1252,115.6094,1694,115.6094,1694,447,942,447,942,92" style="stroke: #000000; stroke-width: 1.5;"/><line style="stroke: #000000; stroke-width: 1.5;" x1="942" x2="1252" y1="115.6094" y2="115.6094"/><text fill="#000000" font-family="sans-serif" font-size="14" font-weight="bold" lengthAdjust="spacingAndGlyphs" textLength="297" x="946" y="108.5332">org.eclipse.keyple.calypso.commands.csm</text><!--cluster org.eclipse.keyple.seproxy--><polygon fill="#FFFFFF" filter="url(#f8sz4qnzfmk7h)" points="787,768,982,768,989,791.6094,1408,791.6094,1408,910,787,910,787,768" style="stroke: #000000; stroke-width: 1.5;"/><line style="stroke: #000000; stroke-width: 1.5;" x1="787" x2="989" y1="791.6094" y2="791.6094"/><text fill="#000000" font-family="sans-serif" font-size="14" font-weight="bold" lengthAdjust="spacingAndGlyphs" textLength="189" x="791" y="784.5332">org.eclipse.keyple.seproxy</text><!--cluster org.eclipse.keyple.commands--><polygon fill="#FFFFFF" filter="url(#f8sz4qnzfmk7h)" points="288,535,502,535,509,558.6094,1686,558.6094,1686,718,288,718,288,535" style="stroke: #000000; stroke-width: 1.5;"/><line style="stroke: #000000; stroke-width: 1.5;" x1="288" x2="509" y1="558.6094" y2="558.6094"/><text fill="#000000" font-family="sans-serif" font-size="14" font-weight="bold" lengthAdjust="spacingAndGlyphs" textLength="208" x="292" y="551.5332">org.eclipse.keyple.commands</text><!--class SendableInSession--><rect fill="#FEFECE" filter="url(#f8sz4qnzfmk7h)" height="48" id="SendableInSession" style="stroke: #A80036; stroke-width: 1.5;" width="141" x="38.5" y="142"/><ellipse cx="53.5" cy="158" fill="#B4A7E5" rx="11" ry="11" style="stroke: #A80036; stroke-width: 1.0;"/><path d="M54.4531,154.6406 L54.4531,161.2969 L56.1719,161.2969 Q56.7813,161.2969 57.0469,161.5313 Q57.3125,161.7656 57.3125,162.1563 Q57.3125,162.5313 57.0469,162.7656 Q56.7813,163 56.1719,163 L51.0313,163 Q50.4219,163 50.1563,162.7656 Q49.8906,162.5313 49.8906,162.1406 Q49.8906,161.7656 50.1563,161.5313 Q50.4219,161.2969 51.0313,161.2969 L52.75,161.2969 L52.75,154.6406 L51.0313,154.6406 Q50.4219,154.6406 50.1563,154.4063 Q49.8906,154.1719 49.8906,153.7813 Q49.8906,153.4063 50.1563,153.1719 Q50.4219,152.9375 51.0313,152.9375 L56.1719,152.9375 Q56.7813,152.9375 57.0469,153.1719 Q57.3125,153.4063 57.3125,153.7813 Q57.3125,154.1719 57.0469,154.4063 Q56.7813,154.6406 56.1719,154.6406 L54.4531,154.6406 Z "/><text fill="#000000" font-family="sans-serif" font-size="12" font-style="italic" lengthAdjust="spacingAndGlyphs" textLength="109" x="67.5" y="162.9102">SendableInSession</text><line style="stroke: #A80036; stroke-width: 1.5;" x1="39.5" x2="178.5" y1="174" y2="174"/><line style="stroke: #A80036; stroke-width: 1.5;" x1="39.5" x2="178.5" y1="182" y2="182"/><!--class AbstractPoCommandBuilder--><rect fill="#FEFECE" filter="url(#f8sz4qnzfmk7h)" height="75.6719" id="AbstractPoCommandBuilder" style="stroke: #A80036; stroke-width: 1.5;" width="435" x="212.5" y="320.5"/><ellipse cx="346.75" cy="336.5" fill="#A9DCDF" rx="11" ry="11" style="stroke: #A80036; stroke-width: 1.0;"/><path d="M348.9375,338.2656 L344.7969,338.2656 L344.375,339.2969 L344.7969,339.2969 Q345.4063,339.2969 345.6719,339.5313 Q345.9375,339.7656 345.9375,340.1563 Q345.9375,340.5313 345.6719,340.7656 Q345.4063,341 344.7969,341 L342.5,341 Q341.8906,341 341.6328,340.7656 Q341.375,340.5313 341.375,340.1406 Q341.375,339.7656 341.6484,339.5234 Q341.9219,339.2813 342.5469,339.2969 L345.2188,332.6406 L344.1094,332.6406 Q343.5,332.6406 343.2344,332.4063 Q342.9688,332.1719 342.9688,331.7813 Q342.9688,331.4063 343.2344,331.1719 Q343.5,330.9375 344.1094,330.9375 L347.7813,330.9375 L351.1719,339.2969 Q351.7656,339.2969 351.9531,339.4375 Q352.3438,339.7031 352.3438,340.1563 Q352.3438,340.5313 352.0859,340.7656 Q351.8281,341 351.2188,341 L348.9219,341 Q348.3125,341 348.0469,340.7656 Q347.7813,340.5313 347.7813,340.1406 Q347.7813,339.7656 348.0469,339.5313 Q348.3125,339.2969 348.9219,339.2969 L349.3438,339.2969 L348.9375,338.2656 Z M348.2188,336.5625 L346.8594,333.1875 L345.4844,336.5625 L348.2188,336.5625 Z "/><text fill="#000000" font-family="sans-serif" font-size="12" font-style="italic" lengthAdjust="spacingAndGlyphs" textLength="158" x="367.25" y="341.4102">AbstractPoCommandBuilder</text><line style="stroke: #A80036; stroke-width: 1.5;" x1="213.5" x2="646.5" y1="352.5" y2="352.5"/><polygon fill="none" points="223.5,359.918,227.5,363.918,223.5,367.918,219.5,363.918" style="stroke: #B38D22; stroke-width: 1.0;"/><text fill="#000000" font-family="sans-serif" font-size="11" lengthAdjust="spacingAndGlyphs" textLength="246" x="232.5" y="367.9189">CsmRevision defaultRevision = PoRevision.REV3_1</text><line style="stroke: #A80036; stroke-width: 1.5;" x1="213.5" x2="646.5" y1="374.3359" y2="374.3359"/><ellipse cx="223.5" cy="386.7539" fill="#84BE84" rx="3" ry="3" style="stroke: #038048; stroke-width: 1.0;"/><text fill="#000000" font-family="sans-serif" font-size="11" lengthAdjust="spacingAndGlyphs" textLength="409" x="232.5" y="389.7549">AbstractPoCommandBuilder(CalypsoPoCommands reference, ApduRequest request)</text><!--class CalypsoPoCommands--><rect fill="#FEFECE" filter="url(#f8sz4qnzfmk7h)" height="172.5234" id="CalypsoPoCommands" style="stroke: #A80036; stroke-width: 1.5;" width="158" x="744" y="272"/><ellipse cx="759" cy="288" fill="#EB937F" rx="11" ry="11" style="stroke: #A80036; stroke-width: 1.0;"/><path d="M757.8594,288.7969 L757.8594,291.2969 L762.1875,291.2969 L762.1875,290.375 Q762.1875,289.7656 762.4297,289.5 Q762.6719,289.2344 763.0469,289.2344 Q763.4219,289.2344 763.6563,289.5 Q763.8906,289.7656 763.8906,290.375 L763.8906,293 L755.8906,293 Q755.2656,293 755.0078,292.7656 Q754.75,292.5313 754.75,292.1406 Q754.75,291.7656 755.0156,291.5313 Q755.2813,291.2969 755.8906,291.2969 L756.1563,291.2969 L756.1563,284.6406 L755.8906,284.6406 Q755.2656,284.6406 755.0078,284.4063 Q754.75,284.1719 754.75,283.7813 Q754.75,283.4063 755.0078,283.1719 Q755.2656,282.9375 755.8906,282.9375 L763.5156,282.9375 L763.5156,285.5313 Q763.5156,286.1406 763.2891,286.3984 Q763.0625,286.6563 762.6719,286.6563 Q762.2969,286.6563 762.0625,286.3984 Q761.8281,286.1406 761.8281,285.5313 L761.8281,284.6406 L757.8594,284.6406 L757.8594,287.0938 L759.3438,287.0938 Q759.3438,286.4375 759.4688,286.25 Q759.7344,285.8438 760.2031,285.8438 Q760.5781,285.8438 760.8125,286.1016 Q761.0469,286.3594 761.0469,286.9688 L761.0469,288.9375 Q761.0469,289.4844 760.9219,289.6719 Q760.6563,290.0625 760.2031,290.0625 Q759.7344,290.0625 759.4688,289.6563 Q759.3438,289.4688 759.3438,288.7969 L757.8594,288.7969 Z "/><text fill="#000000" font-family="sans-serif" font-size="12" lengthAdjust="spacingAndGlyphs" textLength="126" x="773" y="292.9102">CalypsoPoCommands</text><line style="stroke: #A80036; stroke-width: 1.5;" x1="745" x2="901" y1="304" y2="304"/><text fill="#000000" font-family="sans-serif" font-size="11" lengthAdjust="spacingAndGlyphs" textLength="96" x="750" y="319.4189">PO_GET_DATA_FCI</text><text fill="#000000" font-family="sans-serif" font-size="11" lengthAdjust="spacingAndGlyphs" textLength="115" x="750" y="333.2549">PO_OPEN_SESSION_24</text><text fill="#000000" font-family="sans-serif" font-size="11" lengthAdjust="spacingAndGlyphs" textLength="115" x="750" y="347.0908">PO_OPEN_SESSION_31</text><text fill="#000000" font-family="sans-serif" font-size="11" lengthAdjust="spacingAndGlyphs" textLength="115" x="750" y="360.9268">PO_OPEN_SESSION_32</text><text fill="#000000" font-family="sans-serif" font-size="11" lengthAdjust="spacingAndGlyphs" textLength="104" x="750" y="374.7627">PO_CLOSE_SESSION</text><text fill="#000000" font-family="sans-serif" font-size="11" lengthAdjust="spacingAndGlyphs" textLength="103" x="750" y="388.5986">PO_READ_RECORDS</text><text fill="#000000" font-family="sans-serif" font-size="11" lengthAdjust="spacingAndGlyphs" textLength="108" x="750" y="402.4346">PO_UPDATE_RECORD</text><text fill="#000000" font-family="sans-serif" font-size="11" lengthAdjust="spacingAndGlyphs" textLength="108" x="750" y="416.2705">PO_APPEND_RECORD</text><text fill="#000000" font-family="sans-serif" font-size="11" lengthAdjust="spacingAndGlyphs" textLength="107" x="750" y="430.1064">PO_GET_CHALLENGE</text><line style="stroke: #A80036; stroke-width: 1.5;" x1="745" x2="901" y1="436.5234" y2="436.5234"/><!--class PoRevision--><rect fill="#FEFECE" filter="url(#f8sz4qnzfmk7h)" height="89.5078" id="PoRevision" style="stroke: #A80036; stroke-width: 1.5;" width="95" x="256.5" y="121"/><ellipse cx="271.5" cy="137" fill="#EB937F" rx="11" ry="11" style="stroke: #A80036; stroke-width: 1.0;"/><path d="M270.3594,137.7969 L270.3594,140.2969 L274.6875,140.2969 L274.6875,139.375 Q274.6875,138.7656 274.9297,138.5 Q275.1719,138.2344 275.5469,138.2344 Q275.9219,138.2344 276.1563,138.5 Q276.3906,138.7656 276.3906,139.375 L276.3906,142 L268.3906,142 Q267.7656,142 267.5078,141.7656 Q267.25,141.5313 267.25,141.1406 Q267.25,140.7656 267.5156,140.5313 Q267.7813,140.2969 268.3906,140.2969 L268.6563,140.2969 L268.6563,133.6406 L268.3906,133.6406 Q267.7656,133.6406 267.5078,133.4063 Q267.25,133.1719 267.25,132.7813 Q267.25,132.4063 267.5078,132.1719 Q267.7656,131.9375 268.3906,131.9375 L276.0156,131.9375 L276.0156,134.5313 Q276.0156,135.1406 275.7891,135.3984 Q275.5625,135.6563 275.1719,135.6563 Q274.7969,135.6563 274.5625,135.3984 Q274.3281,135.1406 274.3281,134.5313 L274.3281,133.6406 L270.3594,133.6406 L270.3594,136.0938 L271.8438,136.0938 Q271.8438,135.4375 271.9688,135.25 Q272.2344,134.8438 272.7031,134.8438 Q273.0781,134.8438 273.3125,135.1016 Q273.5469,135.3594 273.5469,135.9688 L273.5469,137.9375 Q273.5469,138.4844 273.4219,138.6719 Q273.1563,139.0625 272.7031,139.0625 Q272.2344,139.0625 271.9688,138.6563 Q271.8438,138.4688 271.8438,137.7969 L270.3594,137.7969 Z "/><text fill="#000000" font-family="sans-serif" font-size="12" lengthAdjust="spacingAndGlyphs" textLength="63" x="285.5" y="141.9102">PoRevision</text><line style="stroke: #A80036; stroke-width: 1.5;" x1="257.5" x2="350.5" y1="153" y2="153"/><text fill="#000000" font-family="sans-serif" font-size="11" lengthAdjust="spacingAndGlyphs" textLength="39" x="262.5" y="168.4189">REV2_4</text><text fill="#000000" font-family="sans-serif" font-size="11" lengthAdjust="spacingAndGlyphs" textLength="39" x="262.5" y="182.2549">REV3_1</text><text fill="#000000" font-family="sans-serif" font-size="11" lengthAdjust="spacingAndGlyphs" textLength="39" x="262.5" y="196.0908">REV3_2</text><line style="stroke: #A80036; stroke-width: 1.5;" x1="257.5" x2="350.5" y1="202.5078" y2="202.5078"/><!--class AbstractCsmCommandBuilder--><rect fill="#FEFECE" filter="url(#f8sz4qnzfmk7h)" height="75.6719" id="AbstractCsmCommandBuilder" style="stroke: #A80036; stroke-width: 1.5;" width="447" x="958.5" y="320.5"/><ellipse cx="1093.25" cy="336.5" fill="#A9DCDF" rx="11" ry="11" style="stroke: #A80036; stroke-width: 1.0;"/><path d="M1095.4375,338.2656 L1091.2969,338.2656 L1090.875,339.2969 L1091.2969,339.2969 Q1091.9063,339.2969 1092.1719,339.5313 Q1092.4375,339.7656 1092.4375,340.1563 Q1092.4375,340.5313 1092.1719,340.7656 Q1091.9063,341 1091.2969,341 L1089,341 Q1088.3906,341 1088.1328,340.7656 Q1087.875,340.5313 1087.875,340.1406 Q1087.875,339.7656 1088.1484,339.5234 Q1088.4219,339.2813 1089.0469,339.2969 L1091.7188,332.6406 L1090.6094,332.6406 Q1090,332.6406 1089.7344,332.4063 Q1089.4688,332.1719 1089.4688,331.7813 Q1089.4688,331.4063 1089.7344,331.1719 Q1090,330.9375 1090.6094,330.9375 L1094.2813,330.9375 L1097.6719,339.2969 Q1098.2656,339.2969 1098.4531,339.4375 Q1098.8438,339.7031 1098.8438,340.1563 Q1098.8438,340.5313 1098.5859,340.7656 Q1098.3281,341 1097.7188,341 L1095.4219,341 Q1094.8125,341 1094.5469,340.7656 Q1094.2813,340.5313 1094.2813,340.1406 Q1094.2813,339.7656 1094.5469,339.5313 Q1094.8125,339.2969 1095.4219,339.2969 L1095.8438,339.2969 L1095.4375,338.2656 Z M1094.7188,336.5625 L1093.3594,333.1875 L1091.9844,336.5625 L1094.7188,336.5625 Z "/><text fill="#000000" font-family="sans-serif" font-size="12" font-style="italic" lengthAdjust="spacingAndGlyphs" textLength="169" x="1113.75" y="341.4102">AbstractCsmCommandBuilder</text><line style="stroke: #A80036; stroke-width: 1.5;" x1="959.5" x2="1404.5" y1="352.5" y2="352.5"/><polygon fill="none" points="969.5,359.918,973.5,363.918,969.5,367.918,965.5,363.918" style="stroke: #B38D22; stroke-width: 1.0;"/><text fill="#000000" font-family="sans-serif" font-size="11" lengthAdjust="spacingAndGlyphs" textLength="229" x="978.5" y="367.9189">CsmRevision defaultRevision = CsmRevision.C1</text><line style="stroke: #A80036; stroke-width: 1.5;" x1="959.5" x2="1404.5" y1="374.3359" y2="374.3359"/><ellipse cx="969.5" cy="386.7539" fill="#84BE84" rx="3" ry="3" style="stroke: #038048; stroke-width: 1.0;"/><text fill="#000000" font-family="sans-serif" font-size="11" lengthAdjust="spacingAndGlyphs" textLength="421" x="978.5" y="389.7549">AbstractCsmCommandBuilder(CalypsoSmCommands reference, ApduRequest request)</text><!--class CalypsoSmCommands--><rect fill="#FEFECE" filter="url(#f8sz4qnzfmk7h)" height="144.8516" id="CalypsoSmCommands" style="stroke: #A80036; stroke-width: 1.5;" width="175" x="1502.5" y="286"/><ellipse cx="1523.35" cy="302" fill="#EB937F" rx="11" ry="11" style="stroke: #A80036; stroke-width: 1.0;"/><path d="M1522.2094,302.7969 L1522.2094,305.2969 L1526.5375,305.2969 L1526.5375,304.375 Q1526.5375,303.7656 1526.7797,303.5 Q1527.0219,303.2344 1527.3969,303.2344 Q1527.7719,303.2344 1528.0063,303.5 Q1528.2406,303.7656 1528.2406,304.375 L1528.2406,307 L1520.2406,307 Q1519.6156,307 1519.3578,306.7656 Q1519.1,306.5313 1519.1,306.1406 Q1519.1,305.7656 1519.3656,305.5313 Q1519.6313,305.2969 1520.2406,305.2969 L1520.5063,305.2969 L1520.5063,298.6406 L1520.2406,298.6406 Q1519.6156,298.6406 1519.3578,298.4063 Q1519.1,298.1719 1519.1,297.7813 Q1519.1,297.4063 1519.3578,297.1719 Q1519.6156,296.9375 1520.2406,296.9375 L1527.8656,296.9375 L1527.8656,299.5313 Q1527.8656,300.1406 1527.6391,300.3984 Q1527.4125,300.6563 1527.0219,300.6563 Q1526.6469,300.6563 1526.4125,300.3984 Q1526.1781,300.1406 1526.1781,299.5313 L1526.1781,298.6406 L1522.2094,298.6406 L1522.2094,301.0938 L1523.6938,301.0938 Q1523.6938,300.4375 1523.8188,300.25 Q1524.0844,299.8438 1524.5531,299.8438 Q1524.9281,299.8438 1525.1625,300.1016 Q1525.3969,300.3594 1525.3969,300.9688 L1525.3969,302.9375 Q1525.3969,303.4844 1525.2719,303.6719 Q1525.0063,304.0625 1524.5531,304.0625 Q1524.0844,304.0625 1523.8188,303.6563 Q1523.6938,303.4688 1523.6938,302.7969 L1522.2094,302.7969 Z "/><text fill="#000000" font-family="sans-serif" font-size="12" lengthAdjust="spacingAndGlyphs" textLength="130" x="1538.65" y="306.9102">CalypsoSmCommands</text><line style="stroke: #A80036; stroke-width: 1.5;" x1="1503.5" x2="1676.5" y1="318" y2="318"/><text fill="#000000" font-family="sans-serif" font-size="11" lengthAdjust="spacingAndGlyphs" textLength="132" x="1508.5" y="333.4189">CSM_SELECT_DIVERSIFIER</text><text fill="#000000" font-family="sans-serif" font-size="11" lengthAdjust="spacingAndGlyphs" textLength="115" x="1508.5" y="347.2549">CSM_GET_CHALLENGE</text><text fill="#000000" font-family="sans-serif" font-size="11" lengthAdjust="spacingAndGlyphs" textLength="87" x="1508.5" y="361.0908">CSM_DIGEST_INIT</text><text fill="#000000" font-family="sans-serif" font-size="11" lengthAdjust="spacingAndGlyphs" textLength="110" x="1508.5" y="374.9268">CSM_DIGEST_UPDATE</text><text fill="#000000" font-family="sans-serif" font-size="11" lengthAdjust="spacingAndGlyphs" textLength="163" x="1508.5" y="388.7627">CSM_DIGEST_UPDATE_MULTIPLE</text><text fill="#000000" font-family="sans-serif" font-size="11" lengthAdjust="spacingAndGlyphs" textLength="104" x="1508.5" y="402.5986">CSM_DIGEST_CLOSE</text><text fill="#000000" font-family="sans-serif" font-size="11" lengthAdjust="spacingAndGlyphs" textLength="146" x="1508.5" y="416.4346">CSM_DIGEST_AUTHENTICATE</text><line style="stroke: #A80036; stroke-width: 1.5;" x1="1503.5" x2="1676.5" y1="422.8516" y2="422.8516"/><!--class CsmRevision--><rect fill="#FEFECE" filter="url(#f8sz4qnzfmk7h)" height="75.6719" id="CsmRevision" style="stroke: #A80036; stroke-width: 1.5;" width="107" x="1043.5" y="128"/><ellipse cx="1058.5" cy="144" fill="#EB937F" rx="11" ry="11" style="stroke: #A80036; stroke-width: 1.0;"/><path d="M1057.3594,144.7969 L1057.3594,147.2969 L1061.6875,147.2969 L1061.6875,146.375 Q1061.6875,145.7656 1061.9297,145.5 Q1062.1719,145.2344 1062.5469,145.2344 Q1062.9219,145.2344 1063.1563,145.5 Q1063.3906,145.7656 1063.3906,146.375 L1063.3906,149 L1055.3906,149 Q1054.7656,149 1054.5078,148.7656 Q1054.25,148.5313 1054.25,148.1406 Q1054.25,147.7656 1054.5156,147.5313 Q1054.7813,147.2969 1055.3906,147.2969 L1055.6563,147.2969 L1055.6563,140.6406 L1055.3906,140.6406 Q1054.7656,140.6406 1054.5078,140.4063 Q1054.25,140.1719 1054.25,139.7813 Q1054.25,139.4063 1054.5078,139.1719 Q1054.7656,138.9375 1055.3906,138.9375 L1063.0156,138.9375 L1063.0156,141.5313 Q1063.0156,142.1406 1062.7891,142.3984 Q1062.5625,142.6563 1062.1719,142.6563 Q1061.7969,142.6563 1061.5625,142.3984 Q1061.3281,142.1406 1061.3281,141.5313 L1061.3281,140.6406 L1057.3594,140.6406 L1057.3594,143.0938 L1058.8438,143.0938 Q1058.8438,142.4375 1058.9688,142.25 Q1059.2344,141.8438 1059.7031,141.8438 Q1060.0781,141.8438 1060.3125,142.1016 Q1060.5469,142.3594 1060.5469,142.9688 L1060.5469,144.9375 Q1060.5469,145.4844 1060.4219,145.6719 Q1060.1563,146.0625 1059.7031,146.0625 Q1059.2344,146.0625 1058.9688,145.6563 Q1058.8438,145.4688 1058.8438,144.7969 L1057.3594,144.7969 Z "/><text fill="#000000" font-family="sans-serif" font-size="12" lengthAdjust="spacingAndGlyphs" textLength="75" x="1072.5" y="148.9102">CsmRevision</text><line style="stroke: #A80036; stroke-width: 1.5;" x1="1044.5" x2="1149.5" y1="160" y2="160"/><text fill="#000000" font-family="sans-serif" font-size="11" lengthAdjust="spacingAndGlyphs" textLength="13" x="1049.5" y="175.4189">C1</text><text fill="#000000" font-family="sans-serif" font-size="11" lengthAdjust="spacingAndGlyphs" textLength="20" x="1049.5" y="189.2549">S1D</text><line style="stroke: #A80036; stroke-width: 1.5;" x1="1044.5" x2="1149.5" y1="195.6719" y2="195.6719"/><!--class ApduRequest--><rect fill="#FEFECE" filter="url(#f8sz4qnzfmk7h)" height="89.5078" id="ApduRequest" style="stroke: #A80036; stroke-width: 1.5;" width="260" x="803" y="804"/><ellipse cx="872.25" cy="820" fill="#ADD1B2" rx="11" ry="11" style="stroke: #A80036; stroke-width: 1.0;"/><path d="M875.0156,815.875 Q875.1719,815.6563 875.3594,815.5469 Q875.5469,815.4375 875.7656,815.4375 Q876.1406,815.4375 876.375,815.6953 Q876.6094,815.9531 876.6094,816.5625 L876.6094,818.0156 Q876.6094,818.625 876.375,818.8906 Q876.1406,819.1563 875.7656,819.1563 Q875.4219,819.1563 875.2188,818.9531 Q875.0156,818.7656 874.9063,818.25 Q874.8594,817.8906 874.6719,817.7031 Q874.3438,817.3281 873.7344,817.1094 Q873.125,816.8906 872.5,816.8906 Q871.7344,816.8906 871.1016,817.2188 Q870.4688,817.5469 869.9766,818.2969 Q869.4844,819.0469 869.4844,820.0781 L869.4844,821.1719 Q869.4844,822.4063 870.375,823.2266 Q871.2656,824.0469 872.8594,824.0469 Q873.7969,824.0469 874.4531,823.7969 Q874.8438,823.6406 875.2656,823.2031 Q875.5313,822.9375 875.6797,822.8594 Q875.8281,822.7813 876.0313,822.7813 Q876.3594,822.7813 876.6172,823.0391 Q876.875,823.2969 876.875,823.6406 Q876.875,823.9844 876.5313,824.3906 Q876.0313,824.9688 875.2344,825.2969 Q874.1563,825.75 872.8594,825.75 Q871.3438,825.75 870.1406,825.125 Q869.1563,824.625 868.4688,823.5547 Q867.7813,822.4844 867.7813,821.2031 L867.7813,820.0469 Q867.7813,818.7188 868.3984,817.5703 Q869.0156,816.4219 870.1094,815.8047 Q871.2031,815.1875 872.4375,815.1875 Q873.1719,815.1875 873.8203,815.3516 Q874.4688,815.5156 875.0156,815.875 Z "/><ellipse cx="897.75" cy="819.5" fill="#84BE84" rx="3" ry="3" style="stroke: #038048; stroke-width: 1.0;"/><text fill="#000000" font-family="sans-serif" font-size="12" font-weight="bold" lengthAdjust="spacingAndGlyphs" textLength="24" x="903.75" y="824.9102">final</text><text fill="#000000" font-family="sans-serif" font-size="12" lengthAdjust="spacingAndGlyphs" textLength="75" x="930.75" y="824.9102">ApduRequest</text><line style="stroke: #A80036; stroke-width: 1.5;" x1="804" x2="1062" y1="836" y2="836"/><rect fill="none" height="6" style="stroke: #C82930; stroke-width: 1.0;" width="6" x="811" y="845.418"/><text fill="#000000" font-family="sans-serif" font-size="11" lengthAdjust="spacingAndGlyphs" textLength="71" x="823" y="851.4189">boolean case4</text><line style="stroke: #A80036; stroke-width: 1.5;" x1="804" x2="1062" y1="857.8359" y2="857.8359"/><ellipse cx="814" cy="870.2539" fill="#84BE84" rx="3" ry="3" style="stroke: #038048; stroke-width: 1.0;"/><text fill="#000000" font-family="sans-serif" font-size="11" lengthAdjust="spacingAndGlyphs" textLength="234" x="823" y="873.2549">ApduRequest(ByteBuffer bytes, boolean case4)</text><ellipse cx="814" cy="884.0898" fill="#84BE84" rx="3" ry="3" style="stroke: #038048; stroke-width: 1.0;"/><text fill="#000000" font-family="sans-serif" font-size="11" lengthAdjust="spacingAndGlyphs" textLength="88" x="823" y="887.0908">boolean isCase4()</text><!--class ApduResponse--><rect fill="#FEFECE" filter="url(#f8sz4qnzfmk7h)" height="89.5078" id="ApduResponse" style="stroke: #A80036; stroke-width: 1.5;" width="293" x="1098.5" y="804"/><ellipse cx="1178.75" cy="820" fill="#ADD1B2" rx="11" ry="11" style="stroke: #A80036; stroke-width: 1.0;"/><path d="M1181.5156,815.875 Q1181.6719,815.6563 1181.8594,815.5469 Q1182.0469,815.4375 1182.2656,815.4375 Q1182.6406,815.4375 1182.875,815.6953 Q1183.1094,815.9531 1183.1094,816.5625 L1183.1094,818.0156 Q1183.1094,818.625 1182.875,818.8906 Q1182.6406,819.1563 1182.2656,819.1563 Q1181.9219,819.1563 1181.7188,818.9531 Q1181.5156,818.7656 1181.4063,818.25 Q1181.3594,817.8906 1181.1719,817.7031 Q1180.8438,817.3281 1180.2344,817.1094 Q1179.625,816.8906 1179,816.8906 Q1178.2344,816.8906 1177.6016,817.2188 Q1176.9688,817.5469 1176.4766,818.2969 Q1175.9844,819.0469 1175.9844,820.0781 L1175.9844,821.1719 Q1175.9844,822.4063 1176.875,823.2266 Q1177.7656,824.0469 1179.3594,824.0469 Q1180.2969,824.0469 1180.9531,823.7969 Q1181.3438,823.6406 1181.7656,823.2031 Q1182.0313,822.9375 1182.1797,822.8594 Q1182.3281,822.7813 1182.5313,822.7813 Q1182.8594,822.7813 1183.1172,823.0391 Q1183.375,823.2969 1183.375,823.6406 Q1183.375,823.9844 1183.0313,824.3906 Q1182.5313,824.9688 1181.7344,825.2969 Q1180.6563,825.75 1179.3594,825.75 Q1177.8438,825.75 1176.6406,825.125 Q1175.6563,824.625 1174.9688,823.5547 Q1174.2813,822.4844 1174.2813,821.2031 L1174.2813,820.0469 Q1174.2813,818.7188 1174.8984,817.5703 Q1175.5156,816.4219 1176.6094,815.8047 Q1177.7031,815.1875 1178.9375,815.1875 Q1179.6719,815.1875 1180.3203,815.3516 Q1180.9688,815.5156 1181.5156,815.875 Z "/><ellipse cx="1204.25" cy="819.5" fill="#84BE84" rx="3" ry="3" style="stroke: #038048; stroke-width: 1.0;"/><text fill="#000000" font-family="sans-serif" font-size="12" font-weight="bold" lengthAdjust="spacingAndGlyphs" textLength="24" x="1210.25" y="824.9102">final</text><text fill="#000000" font-family="sans-serif" font-size="12" lengthAdjust="spacingAndGlyphs" textLength="86" x="1237.25" y="824.9102">ApduResponse</text><line style="stroke: #A80036; stroke-width: 1.5;" x1="1099.5" x2="1390.5" y1="836" y2="836"/><rect fill="none" height="6" style="stroke: #C82930; stroke-width: 1.0;" width="6" x="1106.5" y="845.418"/><text fill="#000000" font-family="sans-serif" font-size="11" lengthAdjust="spacingAndGlyphs" textLength="95" x="1118.5" y="851.4189">boolean successful</text><line style="stroke: #A80036; stroke-width: 1.5;" x1="1099.5" x2="1390.5" y1="857.8359" y2="857.8359"/><ellipse cx="1109.5" cy="870.2539" fill="#84BE84" rx="3" ry="3" style="stroke: #038048; stroke-width: 1.0;"/><text fill="#000000" font-family="sans-serif" font-size="11" lengthAdjust="spacingAndGlyphs" textLength="267" x="1118.5" y="873.2549">ApduResponse(ByteBuffer bytes, boolean successful)</text><ellipse cx="1109.5" cy="884.0898" fill="#84BE84" rx="3" ry="3" style="stroke: #038048; stroke-width: 1.0;"/><text fill="#000000" font-family="sans-serif" font-size="11" lengthAdjust="spacingAndGlyphs" textLength="112" x="1118.5" y="887.0908">boolean isSuccessful()</text><!--class AbstractApduCommandBuilder--><rect fill="#FEFECE" filter="url(#f8sz4qnzfmk7h)" height="131.0156" id="AbstractApduCommandBuilder" style="stroke: #A80036; stroke-width: 1.5;" width="425" x="304.5" y="571"/><ellipse cx="426.75" cy="587" fill="#A9DCDF" rx="11" ry="11" style="stroke: #A80036; stroke-width: 1.0;"/><path d="M428.9375,588.7656 L424.7969,588.7656 L424.375,589.7969 L424.7969,589.7969 Q425.4063,589.7969 425.6719,590.0313 Q425.9375,590.2656 425.9375,590.6563 Q425.9375,591.0313 425.6719,591.2656 Q425.4063,591.5 424.7969,591.5 L422.5,591.5 Q421.8906,591.5 421.6328,591.2656 Q421.375,591.0313 421.375,590.6406 Q421.375,590.2656 421.6484,590.0234 Q421.9219,589.7813 422.5469,589.7969 L425.2188,583.1406 L424.1094,583.1406 Q423.5,583.1406 423.2344,582.9063 Q422.9688,582.6719 422.9688,582.2813 Q422.9688,581.9063 423.2344,581.6719 Q423.5,581.4375 424.1094,581.4375 L427.7813,581.4375 L431.1719,589.7969 Q431.7656,589.7969 431.9531,589.9375 Q432.3438,590.2031 432.3438,590.6563 Q432.3438,591.0313 432.0859,591.2656 Q431.8281,591.5 431.2188,591.5 L428.9219,591.5 Q428.3125,591.5 428.0469,591.2656 Q427.7813,591.0313 427.7813,590.6406 Q427.7813,590.2656 428.0469,590.0313 Q428.3125,589.7969 428.9219,589.7969 L429.3438,589.7969 L428.9375,588.7656 Z M428.2188,587.0625 L426.8594,583.6875 L425.4844,587.0625 L428.2188,587.0625 Z "/><text fill="#000000" font-family="sans-serif" font-size="12" font-style="italic" lengthAdjust="spacingAndGlyphs" textLength="172" x="447.25" y="591.9102">AbstractApduCommandBuilder</text><line style="stroke: #A80036; stroke-width: 1.5;" x1="305.5" x2="728.5" y1="603" y2="603"/><rect fill="none" height="6" style="stroke: #C82930; stroke-width: 1.0;" width="6" x="312.5" y="612.418"/><text fill="#000000" font-family="sans-serif" font-size="11" lengthAdjust="spacingAndGlyphs" textLength="179" x="324.5" y="618.4189">CommandsTable commandReference</text><rect fill="none" height="6" style="stroke: #C82930; stroke-width: 1.0;" width="6" x="312.5" y="626.2539"/><text fill="#000000" font-family="sans-serif" font-size="11" lengthAdjust="spacingAndGlyphs" textLength="133" x="324.5" y="632.2549">ApduRequest apduRequest</text><line style="stroke: #A80036; stroke-width: 1.5;" x1="305.5" x2="728.5" y1="638.6719" y2="638.6719"/><ellipse cx="315.5" cy="651.0898" fill="#84BE84" rx="3" ry="3" style="stroke: #038048; stroke-width: 1.0;"/><text fill="#000000" font-family="sans-serif" font-size="11" lengthAdjust="spacingAndGlyphs" textLength="398" x="324.5" y="654.0908">AbstractApduCommandBuilder(CommandsTable reference, ApduRequest request)</text><ellipse cx="315.5" cy="664.9258" fill="#84BE84" rx="3" ry="3" style="stroke: #038048; stroke-width: 1.0;"/><text fill="#000000" font-family="sans-serif" font-size="11" lengthAdjust="spacingAndGlyphs" textLength="81" x="324.5" y="667.9268">String getName()</text><ellipse cx="315.5" cy="678.7617" fill="#84BE84" rx="3" ry="3" style="stroke: #038048; stroke-width: 1.0;"/><text fill="#000000" font-family="sans-serif" font-size="11" lengthAdjust="spacingAndGlyphs" textLength="158" x="324.5" y="681.7627">ApduRequest getApduRequest()</text><ellipse cx="315.5" cy="692.5977" fill="#84BE84" rx="3" ry="3" style="stroke: #038048; stroke-width: 1.0;"/><text fill="#000000" font-family="sans-serif" font-size="11" lengthAdjust="spacingAndGlyphs" textLength="399" x="324.5" y="695.5986">Class&lt;? extends AbstractApduResponseParser&gt; getApduResponseParserClass()</text><!--class AbstractApduResponseParser--><rect fill="#FEFECE" filter="url(#f8sz4qnzfmk7h)" height="131.0156" id="AbstractApduResponseParser" style="stroke: #A80036; stroke-width: 1.5;" width="347" x="1322.5" y="571"/><ellipse cx="1408.75" cy="587" fill="#A9DCDF" rx="11" ry="11" style="stroke: #A80036; stroke-width: 1.0;"/><path d="M1410.9375,588.7656 L1406.7969,588.7656 L1406.375,589.7969 L1406.7969,589.7969 Q1407.4063,589.7969 1407.6719,590.0313 Q1407.9375,590.2656 1407.9375,590.6563 Q1407.9375,591.0313 1407.6719,591.2656 Q1407.4063,591.5 1406.7969,591.5 L1404.5,591.5 Q1403.8906,591.5 1403.6328,591.2656 Q1403.375,591.0313 1403.375,590.6406 Q1403.375,590.2656 1403.6484,590.0234 Q1403.9219,589.7813 1404.5469,589.7969 L1407.2188,583.1406 L1406.1094,583.1406 Q1405.5,583.1406 1405.2344,582.9063 Q1404.9688,582.6719 1404.9688,582.2813 Q1404.9688,581.9063 1405.2344,581.6719 Q1405.5,581.4375 1406.1094,581.4375 L1409.7813,581.4375 L1413.1719,589.7969 Q1413.7656,589.7969 1413.9531,589.9375 Q1414.3438,590.2031 1414.3438,590.6563 Q1414.3438,591.0313 1414.0859,591.2656 Q1413.8281,591.5 1413.2188,591.5 L1410.9219,591.5 Q1410.3125,591.5 1410.0469,591.2656 Q1409.7813,591.0313 1409.7813,590.6406 Q1409.7813,590.2656 1410.0469,590.0313 Q1410.3125,589.7969 1410.9219,589.7969 L1411.3438,589.7969 L1410.9375,588.7656 Z M1410.2188,587.0625 L1408.8594,583.6875 L1407.4844,587.0625 L1410.2188,587.0625 Z "/><text fill="#000000" font-family="sans-serif" font-size="12" font-style="italic" lengthAdjust="spacingAndGlyphs" textLength="166" x="1429.25" y="591.9102">AbstractApduResponseParser</text><line style="stroke: #A80036; stroke-width: 1.5;" x1="1323.5" x2="1668.5" y1="603" y2="603"/><rect fill="none" height="6" style="stroke: #C82930; stroke-width: 1.0;" width="6" x="1330.5" y="612.418"/><text fill="#000000" font-family="sans-serif" font-size="11" lengthAdjust="spacingAndGlyphs" textLength="151" x="1342.5" y="618.4189">ApduResponse apduResponse</text><line style="stroke: #A80036; stroke-width: 1.5;" x1="1323.5" x2="1668.5" y1="624.8359" y2="624.8359"/><ellipse cx="1333.5" cy="637.2539" fill="#84BE84" rx="3" ry="3" style="stroke: #038048; stroke-width: 1.0;"/><text fill="#000000" font-family="sans-serif" font-size="11" lengthAdjust="spacingAndGlyphs" textLength="321" x="1342.5" y="640.2549">AbstractApduResponseParser(ApduResponse responseToParse)</text><ellipse cx="1333.5" cy="651.0898" fill="#84BE84" rx="3" ry="3" style="stroke: #038048; stroke-width: 1.0;"/><text fill="#000000" font-family="sans-serif" font-size="11" lengthAdjust="spacingAndGlyphs" textLength="176" x="1342.5" y="654.0908">ApduResponse getApduResponse()</text><ellipse cx="1333.5" cy="664.9258" fill="#84BE84" rx="3" ry="3" style="stroke: #038048; stroke-width: 1.0;"/><text fill="#000000" font-family="sans-serif" font-size="11" lengthAdjust="spacingAndGlyphs" textLength="107" x="1342.5" y="667.9268">short getStatusCode()</text><ellipse cx="1333.5" cy="678.7617" fill="#84BE84" rx="3" ry="3" style="stroke: #038048; stroke-width: 1.0;"/><text fill="#000000" font-family="sans-serif" font-size="11" lengthAdjust="spacingAndGlyphs" textLength="112" x="1342.5" y="681.7627">boolean isSuccessful()</text><ellipse cx="1333.5" cy="692.5977" fill="#84BE84" rx="3" ry="3" style="stroke: #038048; stroke-width: 1.0;"/><text fill="#000000" font-family="sans-serif" font-size="11" lengthAdjust="spacingAndGlyphs" textLength="138" x="1342.5" y="695.5986">String getStatusInformation()</text><!--class CommandsTable--><rect fill="#FEFECE" filter="url(#f8sz4qnzfmk7h)" height="103.3438" id="CommandsTable" style="stroke: #A80036; stroke-width: 1.5;" width="399" x="826.5" y="585"/><ellipse cx="973.25" cy="601" fill="#B4A7E5" rx="11" ry="11" style="stroke: #A80036; stroke-width: 1.0;"/><path d="M974.2031,597.6406 L974.2031,604.2969 L975.9219,604.2969 Q976.5313,604.2969 976.7969,604.5313 Q977.0625,604.7656 977.0625,605.1563 Q977.0625,605.5313 976.7969,605.7656 Q976.5313,606 975.9219,606 L970.7813,606 Q970.1719,606 969.9063,605.7656 Q969.6406,605.5313 969.6406,605.1406 Q969.6406,604.7656 969.9063,604.5313 Q970.1719,604.2969 970.7813,604.2969 L972.5,604.2969 L972.5,597.6406 L970.7813,597.6406 Q970.1719,597.6406 969.9063,597.4063 Q969.6406,597.1719 969.6406,596.7813 Q969.6406,596.4063 969.9063,596.1719 Q970.1719,595.9375 970.7813,595.9375 L975.9219,595.9375 Q976.5313,595.9375 976.7969,596.1719 Q977.0625,596.4063 977.0625,596.7813 Q977.0625,597.1719 976.7969,597.4063 Q976.5313,597.6406 975.9219,597.6406 L974.2031,597.6406 Z "/><text fill="#000000" font-family="sans-serif" font-size="12" font-style="italic" lengthAdjust="spacingAndGlyphs" textLength="97" x="993.75" y="605.9102">CommandsTable</text><line style="stroke: #A80036; stroke-width: 1.5;" x1="827.5" x2="1224.5" y1="617" y2="617"/><line style="stroke: #A80036; stroke-width: 1.5;" x1="827.5" x2="1224.5" y1="625" y2="625"/><ellipse cx="837.5" cy="637.418" fill="#84BE84" rx="3" ry="3" style="stroke: #038048; stroke-width: 1.0;"/><text fill="#000000" font-family="sans-serif" font-size="11" lengthAdjust="spacingAndGlyphs" textLength="81" x="846.5" y="640.4189">String getName()</text><ellipse cx="837.5" cy="651.2539" fill="#84BE84" rx="3" ry="3" style="stroke: #038048; stroke-width: 1.0;"/><text fill="#000000" font-family="sans-serif" font-size="11" lengthAdjust="spacingAndGlyphs" textLength="119" x="846.5" y="654.2549">byte getInstructionByte()</text><ellipse cx="837.5" cy="665.0898" fill="#84BE84" rx="3" ry="3" style="stroke: #038048; stroke-width: 1.0;"/><text fill="#000000" font-family="sans-serif" font-size="11" lengthAdjust="spacingAndGlyphs" textLength="371" x="846.5" y="668.0908">Class&lt;? extends AbstractApduCommandBuilder&gt; getCommandBuilderClass()</text><ellipse cx="837.5" cy="678.9258" fill="#84BE84" rx="3" ry="3" style="stroke: #038048; stroke-width: 1.0;"/><text fill="#000000" font-family="sans-serif" font-size="11" lengthAdjust="spacingAndGlyphs" textLength="373" x="846.5" y="681.9268">Class&lt;? extends AbstractApduResponseParser&gt; getResponseParserClass()</text><!--link AbstractPoCommandBuilder to CalypsoPoCommands--><path d="M660.997,358.5 C685.567,358.5 709.394,358.5 730.876,358.5 " fill="none" id="AbstractPoCommandBuilder-CalypsoPoCommands" style="stroke: #A80036; stroke-width: 1.0;"/><polygon fill="#A80036" points="743.934,358.5,737.934,354.5,731.934,358.5,737.934,362.5,743.934,358.5" style="stroke: #A80036; stroke-width: 1.0;"/><polygon fill="#A80036" points="647.763,358.5,656.763,362.5,652.763,358.5,656.763,354.5,647.763,358.5" style="stroke: #A80036; stroke-width: 1.0;"/><line style="stroke: #A80036; stroke-width: 1.0;" x1="652.763" x2="660.763" y1="358.5" y2="358.5"/><text fill="#000000" font-family="sans-serif" font-size="13" lengthAdjust="spacingAndGlyphs" textLength="60" x="665.75" y="351.9951">references</text><text fill="#000000" font-family="sans-serif" font-size="13" lengthAdjust="spacingAndGlyphs" textLength="5" x="655.6787" y="355.7198">*</text><text fill="#000000" font-family="sans-serif" font-size="13" lengthAdjust="spacingAndGlyphs" textLength="7" x="729.0644" y="355.2721">1</text><!--link AbstractCsmCommandBuilder to CalypsoSmCommands--><path d="M1418.86,358.5 C1443.31,358.5 1467.11,358.5 1488.81,358.5 " fill="none" id="AbstractCsmCommandBuilder-CalypsoSmCommands" style="stroke: #A80036; stroke-width: 1.0;"/><polygon fill="#A80036" points="1502.04,358.5,1496.04,354.5,1490.04,358.5,1496.04,362.5,1502.04,358.5" style="stroke: #A80036; stroke-width: 1.0;"/><polygon fill="#A80036" points="1405.7,358.5,1414.7,362.5,1410.7,358.5,1414.7,354.5,1405.7,358.5" style="stroke: #A80036; stroke-width: 1.0;"/><line style="stroke: #A80036; stroke-width: 1.0;" x1="1410.7" x2="1418.7" y1="358.5" y2="358.5"/><text fill="#000000" font-family="sans-serif" font-size="13" lengthAdjust="spacingAndGlyphs" textLength="60" x="1424" y="351.9951">references</text><text fill="#000000" font-family="sans-serif" font-size="13" lengthAdjust="spacingAndGlyphs" textLength="5" x="1413.8291" y="355.7198">*</text><text fill="#000000" font-family="sans-serif" font-size="13" lengthAdjust="spacingAndGlyphs" textLength="7" x="1487.466" y="355.3533">1</text><!--link PoRevision to AbstractPoCommandBuilder--><path d="M333.224,211.183 C355.106,244.267 384.707,289.021 405.388,320.289 " fill="none" id="PoRevision-AbstractPoCommandBuilder" style="stroke: #A80036; stroke-width: 1.0;"/><text fill="#000000" font-family="sans-serif" font-size="13" lengthAdjust="spacingAndGlyphs" textLength="15" x="321.1432" y="231.8813">+1</text><text fill="#000000" font-family="sans-serif" font-size="13" lengthAdjust="spacingAndGlyphs" textLength="20" x="379.2227" y="309.6133">1..*</text><!--link CsmRevision to AbstractCsmCommandBuilder--><path d="M1113.59,204.183 C1128.57,237.749 1150.49,286.874 1165.45,320.411 " fill="none" id="CsmRevision-AbstractCsmCommandBuilder" style="stroke: #A80036; stroke-width: 1.0;"/><text fill="#000000" font-family="sans-serif" font-size="13" lengthAdjust="spacingAndGlyphs" textLength="15" x="1100.0387" y="225.0927">+1</text><text fill="#000000" font-family="sans-serif" font-size="13" lengthAdjust="spacingAndGlyphs" textLength="20" x="1140.7208" y="309.757">1..*</text><!--link SendableInSession to PoRevision--><!--link CsmRevision to SendableInSession--><!--link ApduRequest to ApduResponse--><!--link AbstractApduCommandBuilder to CommandsTable--><path d="M742.728,636.5 C766.103,636.5 789.806,636.5 813.034,636.5 " fill="none" id="AbstractApduCommandBuilder-CommandsTable" style="stroke: #A80036; stroke-width: 1.0;"/><polygon fill="#A80036" points="826.266,636.5,820.266,632.5,814.266,636.5,820.266,640.5,826.266,636.5" style="stroke: #A80036; stroke-width: 1.0;"/><polygon fill="#A80036" points="729.544,636.5,738.544,640.5,734.544,636.5,738.544,632.5,729.544,636.5" style="stroke: #A80036; stroke-width: 1.0;"/><line style="stroke: #A80036; stroke-width: 1.0;" x1="734.544" x2="742.544" y1="636.5" y2="636.5"/><text fill="#000000" font-family="sans-serif" font-size="13" lengthAdjust="spacingAndGlyphs" textLength="60" x="748" y="629.9951">references</text><text fill="#000000" font-family="sans-serif" font-size="13" lengthAdjust="spacingAndGlyphs" textLength="5" x="737.2721" y="633.7137">*</text><text fill="#000000" font-family="sans-serif" font-size="13" lengthAdjust="spacingAndGlyphs" textLength="7" x="811.3272" y="633.6828">1</text><!--link CommandsTable to AbstractApduResponseParser--><path d="M1238.88,636.5 C1262.32,636.5 1286.06,636.5 1309.14,636.5 " fill="none" id="CommandsTable-AbstractApduResponseParser" style="stroke: #A80036; stroke-width: 1.0;"/><polygon fill="#A80036" points="1322.27,636.5,1313.27,632.5,1317.27,636.5,1313.27,640.5,1322.27,636.5" style="stroke: #A80036; stroke-width: 1.0;"/><line style="stroke: #A80036; stroke-width: 1.0;" x1="1317.27" x2="1309.27" y1="636.5" y2="636.5"/><polygon fill="#A80036" points="1225.66,636.5,1231.66,640.5,1237.66,636.5,1231.66,632.5,1225.66,636.5" style="stroke: #A80036; stroke-width: 1.0;"/><text fill="#000000" font-family="sans-serif" font-size="13" lengthAdjust="spacingAndGlyphs" textLength="60" x="1244" y="629.9951">references</text><text fill="#000000" font-family="sans-serif" font-size="13" lengthAdjust="spacingAndGlyphs" textLength="7" x="1233.5959" y="633.6828">1</text><text fill="#000000" font-family="sans-serif" font-size="13" lengthAdjust="spacingAndGlyphs" textLength="5" x="1309.2846" y="633.6402">*</text><!--link AbstractApduCommandBuilder to ApduRequest--><path d="M656.614,708.146 C714.777,737.577 780.967,771.07 833.989,797.899 " fill="none" id="AbstractApduCommandBuilder-ApduRequest" style="stroke: #A80036; stroke-width: 1.0;"/><polygon fill="#A80036" points="845.784,803.868,839.5597,796.2353,841.3227,801.6104,835.9476,803.3734,845.784,803.868" style="stroke: #A80036; stroke-width: 1.0;"/><line style="stroke: #A80036; stroke-width: 1.0;" x1="841.3227" x2="834.1845" y1="801.6104" y2="797.998"/><polygon fill="#FFFFFF" points="644.641,702.087,648.1885,708.3651,655.3482,707.5052,651.8006,701.227,644.641,702.087" style="stroke: #A80036; stroke-width: 1.0;"/><text fill="#000000" font-family="sans-serif" font-size="13" lengthAdjust="spacingAndGlyphs" textLength="76" x="739" y="748.4951">apduRequest</text><text fill="#000000" font-family="sans-serif" font-size="13" lengthAdjust="spacingAndGlyphs" textLength="15" x="642.7814" y="723.6491">+1</text><text fill="#000000" font-family="sans-serif" font-size="13" lengthAdjust="spacingAndGlyphs" textLength="7" x="824.8931" y="793.2919">1</text><!--link AbstractApduResponseParser to ApduResponse--><path d="M1408.69,710.723 C1375.44,738.609 1338.23,769.811 1307.7,795.413 " fill="none" id="AbstractApduResponseParser-ApduResponse" style="stroke: #A80036; stroke-width: 1.0;"/><polygon fill="#A80036" points="1297.62,803.868,1307.0856,801.1473,1301.4503,800.6541,1301.9434,795.0188,1297.62,803.868" style="stroke: #A80036; stroke-width: 1.0;"/><line style="stroke: #A80036; stroke-width: 1.0;" x1="1301.4503" x2="1307.585" y1="800.6541" y2="795.514"/><polygon fill="#FFFFFF" points="1418.99,702.087,1411.8226,702.8794,1409.7973,709.8003,1416.9648,709.0079,1418.99,702.087" style="stroke: #A80036; stroke-width: 1.0;"/><text fill="#000000" font-family="sans-serif" font-size="13" lengthAdjust="spacingAndGlyphs" textLength="86" x="1379" y="748.4951">apduResponse</text><text fill="#000000" font-family="sans-serif" font-size="13" lengthAdjust="spacingAndGlyphs" textLength="15" x="1394.7467" y="723.6491">+1</text><text fill="#000000" font-family="sans-serif" font-size="13" lengthAdjust="spacingAndGlyphs" textLength="7" x="1298.1415" y="793.2919">1</text><!--link CalypsoPoCommands to CommandsTable--><path d="M838.113,445.146 C845.293,470.448 855.775,497.183 871,519 C884.992,539.049 903.52,557.099 922.884,572.67 " fill="none" id="CalypsoPoCommands-CommandsTable" style="stroke: #A80036; stroke-width: 1.0;"/><polygon fill="none" points="927.239,567.188,938.892,584.886,918.746,578.318,927.239,567.188" style="stroke: #A80036; stroke-width: 1.0;"/><text fill="#000000" font-family="sans-serif" font-size="13" lengthAdjust="spacingAndGlyphs" textLength="67" x="872" y="515.4951">implements</text><!--link CalypsoSmCommands to CommandsTable--><path d="M1513.35,431.224 C1486.37,453.52 1454.81,476.54 1423,493 C1374.53,518.08 1356.71,509.536 1305,527 C1259.97,542.208 1211.51,560.397 1167.81,577.496 " fill="none" id="CalypsoSmCommands-CommandsTable" style="stroke: #A80036; stroke-width: 1.0;"/><polygon fill="none" points="1170.25,584.059,1149.08,584.874,1165.12,571.032,1170.25,584.059" style="stroke: #A80036; stroke-width: 1.0;"/><text fill="#000000" font-family="sans-serif" font-size="13" lengthAdjust="spacingAndGlyphs" textLength="67" x="1405" y="515.4951">implements</text><!--link AbstractPoCommandBuilder to AbstractApduCommandBuilder--><path d="M441.733,396.723 C454.195,436.256 474.304,500.051 490.603,551.758 " fill="none" id="AbstractPoCommandBuilder-AbstractApduCommandBuilder" style="stroke: #A80036; stroke-width: 1.0;"/><polygon fill="none" points="497.303,549.728,496.639,570.907,483.95,553.937,497.303,549.728" style="stroke: #A80036; stroke-width: 1.0;"/><text fill="#000000" font-family="sans-serif" font-size="13" lengthAdjust="spacingAndGlyphs" textLength="46" x="480" y="515.4951">extends</text><!--link AbstractCsmCommandBuilder to AbstractApduCommandBuilder--><path d="M1141.42,396.758 C1096.78,435.185 1021.07,493.047 944,519 C887.037,538.181 867.816,514.619 809,527 C767.54,535.728 724.109,549.275 683.797,563.874 " fill="none" id="AbstractCsmCommandBuilder-AbstractApduCommandBuilder" style="stroke: #A80036; stroke-width: 1.0;"/><polygon fill="none" points="686.085,570.491,664.899,570.875,681.222,557.363,686.085,570.491" style="stroke: #A80036; stroke-width: 1.0;"/><text fill="#000000" font-family="sans-serif" font-size="13" lengthAdjust="spacingAndGlyphs" textLength="46" x="988" y="515.4951">extends</text><!--
@startuml
package org.eclipse.keyple.calypso.commands #FFFFFF {

package org.eclipse.keyple.calypso.commands.po #FFFFFF {

abstract AbstractPoCommandBuilder {
  #CsmRevision defaultRevision = PoRevision.REV3_1
  +AbstractPoCommandBuilder(CalypsoPoCommands reference, ApduRequest request)
}

enum CalypsoPoCommands {
  PO_GET_DATA_FCI
  PO_OPEN_SESSION_24
  PO_OPEN_SESSION_31
  PO_OPEN_SESSION_32
  PO_CLOSE_SESSION
  PO_READ_RECORDS
  PO_UPDATE_RECORD
  PO_APPEND_RECORD
  PO_GET_CHALLENGE
}

enum PoRevision {
  REV2_4
  REV3_1
  REV3_2
}
}
package org.eclipse.keyple.calypso.commands.csm #FFFFFF {

abstract AbstractCsmCommandBuilder {
  #CsmRevision defaultRevision = CsmRevision.C1
  +AbstractCsmCommandBuilder(CalypsoSmCommands reference, ApduRequest request)
}

enum CalypsoSmCommands {
  CSM_SELECT_DIVERSIFIER
  CSM_GET_CHALLENGE
  CSM_DIGEST_INIT
  CSM_DIGEST_UPDATE
  CSM_DIGEST_UPDATE_MULTIPLE
  CSM_DIGEST_CLOSE
  CSM_DIGEST_AUTHENTICATE
}

enum CsmRevision {
  C1
  S1D
}

CalypsoPoCommands "1" *-left-> "*" AbstractPoCommandBuilder : references
CalypsoSmCommands "1" *-left-> "*" AbstractCsmCommandBuilder : references

PoRevision "+1" - - "1..*" AbstractPoCommandBuilder

CsmRevision "+1" - - "1..*" AbstractCsmCommandBuilder

}

interface SendableInSession


PoRevision -left[hidden]- SendableInSession
CsmRevision -right[hidden]- SendableInSession
}
package org.eclipse.keyple.seproxy #FFFFFF {
+class "<b>final</b> ApduRequest" as ApduRequest {
  -boolean case4
  +ApduRequest(ByteBuffer bytes, boolean case4)
  +boolean isCase4()
}

+class "<b>final</b> ApduResponse" as ApduResponse {
  -boolean successful
  +ApduResponse(ByteBuffer bytes, boolean successful)
  +boolean isSuccessful()
}

ApduRequest -right[hidden]- ApduResponse
}
package org.eclipse.keyple.commands #FFFFFF {

abstract AbstractApduCommandBuilder {
  -CommandsTable commandReference
  -ApduRequest apduRequest
  +AbstractApduCommandBuilder(CommandsTable reference, ApduRequest request)
  +String getName()
  +ApduRequest getApduRequest()
  +Class<? extends AbstractApduResponseParser> getApduResponseParserClass()
}

abstract AbstractApduResponseParser {
  -ApduResponse apduResponse
  +AbstractApduResponseParser(ApduResponse responseToParse)
  +ApduResponse getApduResponse()
  +short getStatusCode()
  +boolean isSuccessful()
  +String getStatusInformation()
}

interface CommandsTable {
  +String getName()
  +byte getInstructionByte()
  +Class<? extends AbstractApduCommandBuilder> getCommandBuilderClass()
  +Class<? extends AbstractApduResponseParser> getResponseParserClass()
}

CommandsTable "1" *-left-> "*" AbstractApduCommandBuilder : references
CommandsTable "1" *-right-> "*" AbstractApduResponseParser : references
}

AbstractApduCommandBuilder "+1" o-down-> "1" ApduRequest : apduRequest
AbstractApduResponseParser "+1" o-down-> "1" ApduResponse : apduResponse

CalypsoPoCommands - -|> CommandsTable : implements
CalypsoSmCommands - -|> CommandsTable : implements

AbstractPoCommandBuilder -down-|> AbstractApduCommandBuilder : extends
AbstractCsmCommandBuilder -down-|> AbstractApduCommandBuilder : extends
@enduml

PlantUML version 1.2018.01(Sun Jan 28 19:08:22 CET 2018)
(APACHE source distribution)
Java Runtime: Java(TM) SE Runtime Environment
JVM: Java HotSpot(TM) 64-Bit Server VM
Java Version: 10.0.1+10
Operating System: Windows 10
OS Version: 10.0
Default Encoding: Cp1252
Language: fr
Country: FR
--></g></svg>