<?xml version="1.0" encoding="UTF-8" standalone="no"?><svg xmlns="http://www.w3.org/2000/svg" xmlns:xlink="http://www.w3.org/1999/xlink" contentScriptType="application/ecmascript" contentStyleType="text/css" height="1360px" preserveAspectRatio="none" style="width:1450px;height:1360px;" version="1.1" viewBox="0 0 1450 1360" width="1450px" zoomAndPan="magnify"><defs><filter height="300%" id="fezkzgxusbkwp" width="300%" x="-1" y="-1"><feGaussianBlur result="blurOut" stdDeviation="2.0"/><feColorMatrix in="blurOut" result="blurOut2" type="matrix" values="0 0 0 0 0 0 0 0 0 0 0 0 0 0 0 0 0 0 .4 0"/><feOffset dx="4.0" dy="4.0" in="blurOut2" result="blurOut3"/><feBlend in="SourceGraphic" in2="blurOut3" mode="normal"/></filter></defs><g><!--cluster org.eclipse.keyple.command--><polygon fill="#FFFFFF" filter="url(#fezkzgxusbkwp)" points="30,1145,236,1145,243,1168.6094,1428,1168.6094,1428,1348,30,1348,30,1145" style="stroke: #000000; stroke-width: 1.5;"/><line style="stroke: #000000; stroke-width: 1.5;" x1="30" x2="243" y1="1168.6094" y2="1168.6094"/><text fill="#000000" font-family="sans-serif" font-size="14" font-weight="bold" lengthAdjust="spacingAndGlyphs" textLength="200" x="34" y="1161.5332">org.eclipse.keyple.command</text><!--cluster org.eclipse.keyple.calypso.command.csm--><polygon fill="#FFFFFF" filter="url(#fezkzgxusbkwp)" points="22,172,317,172,324,195.6094,1293,195.6094,1293,1095,22,1095,22,172" style="stroke: #000000; stroke-width: 1.5;"/><line style="stroke: #000000; stroke-width: 1.5;" x1="22" x2="324" y1="195.6094" y2="195.6094"/><text fill="#000000" font-family="sans-serif" font-size="14" font-weight="bold" lengthAdjust="spacingAndGlyphs" textLength="289" x="26" y="188.5332">org.eclipse.keyple.calypso.command.csm</text><!--cluster org.eclipse.keyple.calypso.command.csm.builder--><polygon fill="#FFFFFF" filter="url(#fezkzgxusbkwp)" points="133,226.5,482,226.5,489,250.1094,492,250.1094,492,931,133,931,133,226.5" style="stroke: #000000; stroke-width: 1.5;"/><line style="stroke: #000000; stroke-width: 1.5;" x1="133" x2="489" y1="250.1094" y2="250.1094"/><text fill="#000000" font-family="sans-serif" font-size="14" font-weight="bold" lengthAdjust="spacingAndGlyphs" textLength="343" x="137" y="243.0332">org.eclipse.keyple.calypso.command.csm.builder</text><!--cluster org.eclipse.keyple.calypso.command.csm.parser--><polygon fill="#FFFFFF" filter="url(#fezkzgxusbkwp)" points="914,234.5,1259,234.5,1266,258.1094,1269,258.1094,1269,669,914,669,914,234.5" style="stroke: #000000; stroke-width: 1.5;"/><line style="stroke: #000000; stroke-width: 1.5;" x1="914" x2="1266" y1="258.1094" y2="258.1094"/><text fill="#000000" font-family="sans-serif" font-size="14" font-weight="bold" lengthAdjust="spacingAndGlyphs" textLength="339" x="918" y="251.0332">org.eclipse.keyple.calypso.command.csm.parser</text><!--class AbstractApduCommandBuilder--><rect fill="#FEFECE" filter="url(#fezkzgxusbkwp)" height="131.0156" id="AbstractApduCommandBuilder" style="stroke: #A80036; stroke-width: 1.5;" width="425" x="46.5" y="1201"/><ellipse cx="168.75" cy="1217" fill="#A9DCDF" rx="11" ry="11" style="stroke: #A80036; stroke-width: 1.0;"/><path d="M170.9375,1218.7656 L166.7969,1218.7656 L166.375,1219.7969 L166.7969,1219.7969 Q167.4063,1219.7969 167.6719,1220.0313 Q167.9375,1220.2656 167.9375,1220.6563 Q167.9375,1221.0313 167.6719,1221.2656 Q167.4063,1221.5 166.7969,1221.5 L164.5,1221.5 Q163.8906,1221.5 163.6328,1221.2656 Q163.375,1221.0313 163.375,1220.6406 Q163.375,1220.2656 163.6484,1220.0234 Q163.9219,1219.7813 164.5469,1219.7969 L167.2188,1213.1406 L166.1094,1213.1406 Q165.5,1213.1406 165.2344,1212.9063 Q164.9688,1212.6719 164.9688,1212.2813 Q164.9688,1211.9063 165.2344,1211.6719 Q165.5,1211.4375 166.1094,1211.4375 L169.7813,1211.4375 L173.1719,1219.7969 Q173.7656,1219.7969 173.9531,1219.9375 Q174.3438,1220.2031 174.3438,1220.6563 Q174.3438,1221.0313 174.0859,1221.2656 Q173.8281,1221.5 173.2188,1221.5 L170.9219,1221.5 Q170.3125,1221.5 170.0469,1221.2656 Q169.7813,1221.0313 169.7813,1220.6406 Q169.7813,1220.2656 170.0469,1220.0313 Q170.3125,1219.7969 170.9219,1219.7969 L171.3438,1219.7969 L170.9375,1218.7656 Z M170.2188,1217.0625 L168.8594,1213.6875 L167.4844,1217.0625 L170.2188,1217.0625 Z "/><text fill="#000000" font-family="sans-serif" font-size="12" font-style="italic" lengthAdjust="spacingAndGlyphs" textLength="172" x="189.25" y="1221.9102">AbstractApduCommandBuilder</text><line style="stroke: #A80036; stroke-width: 1.5;" x1="47.5" x2="470.5" y1="1233" y2="1233"/><rect fill="none" height="6" style="stroke: #C82930; stroke-width: 1.0;" width="6" x="54.5" y="1242.418"/><text fill="#000000" font-family="sans-serif" font-size="11" lengthAdjust="spacingAndGlyphs" textLength="179" x="66.5" y="1248.4189">CommandsTable commandReference</text><rect fill="none" height="6" style="stroke: #C82930; stroke-width: 1.0;" width="6" x="54.5" y="1256.2539"/><text fill="#000000" font-family="sans-serif" font-size="11" lengthAdjust="spacingAndGlyphs" textLength="133" x="66.5" y="1262.2549">ApduRequest apduRequest</text><line style="stroke: #A80036; stroke-width: 1.5;" x1="47.5" x2="470.5" y1="1268.6719" y2="1268.6719"/><ellipse cx="57.5" cy="1281.0898" fill="#84BE84" rx="3" ry="3" style="stroke: #038048; stroke-width: 1.0;"/><text fill="#000000" font-family="sans-serif" font-size="11" lengthAdjust="spacingAndGlyphs" textLength="398" x="66.5" y="1284.0908">AbstractApduCommandBuilder(CommandsTable reference, ApduRequest request)</text><ellipse cx="57.5" cy="1294.9258" fill="#84BE84" rx="3" ry="3" style="stroke: #038048; stroke-width: 1.0;"/><text fill="#000000" font-family="sans-serif" font-size="11" lengthAdjust="spacingAndGlyphs" textLength="81" x="66.5" y="1297.9268">String getName()</text><ellipse cx="57.5" cy="1308.7617" fill="#84BE84" rx="3" ry="3" style="stroke: #038048; stroke-width: 1.0;"/><text fill="#000000" font-family="sans-serif" font-size="11" lengthAdjust="spacingAndGlyphs" textLength="158" x="66.5" y="1311.7627">ApduRequest getApduRequest()</text><ellipse cx="57.5" cy="1322.5977" fill="#84BE84" rx="3" ry="3" style="stroke: #038048; stroke-width: 1.0;"/><text fill="#000000" font-family="sans-serif" font-size="11" lengthAdjust="spacingAndGlyphs" textLength="399" x="66.5" y="1325.5986">Class&lt;? extends AbstractApduResponseParser&gt; getApduResponseParserClass()</text><!--class AbstractApduResponseParser--><rect fill="#FEFECE" filter="url(#fezkzgxusbkwp)" height="131.0156" id="AbstractApduResponseParser" style="stroke: #A80036; stroke-width: 1.5;" width="347" x="1064.5" y="1201"/><ellipse cx="1150.75" cy="1217" fill="#A9DCDF" rx="11" ry="11" style="stroke: #A80036; stroke-width: 1.0;"/><path d="M1152.9375,1218.7656 L1148.7969,1218.7656 L1148.375,1219.7969 L1148.7969,1219.7969 Q1149.4063,1219.7969 1149.6719,1220.0313 Q1149.9375,1220.2656 1149.9375,1220.6563 Q1149.9375,1221.0313 1149.6719,1221.2656 Q1149.4063,1221.5 1148.7969,1221.5 L1146.5,1221.5 Q1145.8906,1221.5 1145.6328,1221.2656 Q1145.375,1221.0313 1145.375,1220.6406 Q1145.375,1220.2656 1145.6484,1220.0234 Q1145.9219,1219.7813 1146.5469,1219.7969 L1149.2188,1213.1406 L1148.1094,1213.1406 Q1147.5,1213.1406 1147.2344,1212.9063 Q1146.9688,1212.6719 1146.9688,1212.2813 Q1146.9688,1211.9063 1147.2344,1211.6719 Q1147.5,1211.4375 1148.1094,1211.4375 L1151.7813,1211.4375 L1155.1719,1219.7969 Q1155.7656,1219.7969 1155.9531,1219.9375 Q1156.3438,1220.2031 1156.3438,1220.6563 Q1156.3438,1221.0313 1156.0859,1221.2656 Q1155.8281,1221.5 1155.2188,1221.5 L1152.9219,1221.5 Q1152.3125,1221.5 1152.0469,1221.2656 Q1151.7813,1221.0313 1151.7813,1220.6406 Q1151.7813,1220.2656 1152.0469,1220.0313 Q1152.3125,1219.7969 1152.9219,1219.7969 L1153.3438,1219.7969 L1152.9375,1218.7656 Z M1152.2188,1217.0625 L1150.8594,1213.6875 L1149.4844,1217.0625 L1152.2188,1217.0625 Z "/><text fill="#000000" font-family="sans-serif" font-size="12" font-style="italic" lengthAdjust="spacingAndGlyphs" textLength="166" x="1171.25" y="1221.9102">AbstractApduResponseParser</text><line style="stroke: #A80036; stroke-width: 1.5;" x1="1065.5" x2="1410.5" y1="1233" y2="1233"/><rect fill="none" height="6" style="stroke: #C82930; stroke-width: 1.0;" width="6" x="1072.5" y="1242.418"/><text fill="#000000" font-family="sans-serif" font-size="11" lengthAdjust="spacingAndGlyphs" textLength="151" x="1084.5" y="1248.4189">ApduResponse apduResponse</text><line style="stroke: #A80036; stroke-width: 1.5;" x1="1065.5" x2="1410.5" y1="1254.8359" y2="1254.8359"/><ellipse cx="1075.5" cy="1267.2539" fill="#84BE84" rx="3" ry="3" style="stroke: #038048; stroke-width: 1.0;"/><text fill="#000000" font-family="sans-serif" font-size="11" lengthAdjust="spacingAndGlyphs" textLength="321" x="1084.5" y="1270.2549">AbstractApduResponseParser(ApduResponse responseToParse)</text><ellipse cx="1075.5" cy="1281.0898" fill="#84BE84" rx="3" ry="3" style="stroke: #038048; stroke-width: 1.0;"/><text fill="#000000" font-family="sans-serif" font-size="11" lengthAdjust="spacingAndGlyphs" textLength="176" x="1084.5" y="1284.0908">ApduResponse getApduResponse()</text><ellipse cx="1075.5" cy="1294.9258" fill="#84BE84" rx="3" ry="3" style="stroke: #038048; stroke-width: 1.0;"/><text fill="#000000" font-family="sans-serif" font-size="11" lengthAdjust="spacingAndGlyphs" textLength="107" x="1084.5" y="1297.9268">short getStatusCode()</text><ellipse cx="1075.5" cy="1308.7617" fill="#84BE84" rx="3" ry="3" style="stroke: #038048; stroke-width: 1.0;"/><text fill="#000000" font-family="sans-serif" font-size="11" lengthAdjust="spacingAndGlyphs" textLength="112" x="1084.5" y="1311.7627">boolean isSuccessful()</text><ellipse cx="1075.5" cy="1322.5977" fill="#84BE84" rx="3" ry="3" style="stroke: #038048; stroke-width: 1.0;"/><text fill="#000000" font-family="sans-serif" font-size="11" lengthAdjust="spacingAndGlyphs" textLength="138" x="1084.5" y="1325.5986">String getStatusInformation()</text><!--class CommandsTable--><rect fill="#FEFECE" filter="url(#fezkzgxusbkwp)" height="103.3438" id="CommandsTable" style="stroke: #A80036; stroke-width: 1.5;" width="399" x="568.5" y="1215"/><ellipse cx="715.25" cy="1231" fill="#B4A7E5" rx="11" ry="11" style="stroke: #A80036; stroke-width: 1.0;"/><path d="M716.2031,1227.6406 L716.2031,1234.2969 L717.9219,1234.2969 Q718.5313,1234.2969 718.7969,1234.5313 Q719.0625,1234.7656 719.0625,1235.1563 Q719.0625,1235.5313 718.7969,1235.7656 Q718.5313,1236 717.9219,1236 L712.7813,1236 Q712.1719,1236 711.9063,1235.7656 Q711.6406,1235.5313 711.6406,1235.1406 Q711.6406,1234.7656 711.9063,1234.5313 Q712.1719,1234.2969 712.7813,1234.2969 L714.5,1234.2969 L714.5,1227.6406 L712.7813,1227.6406 Q712.1719,1227.6406 711.9063,1227.4063 Q711.6406,1227.1719 711.6406,1226.7813 Q711.6406,1226.4063 711.9063,1226.1719 Q712.1719,1225.9375 712.7813,1225.9375 L717.9219,1225.9375 Q718.5313,1225.9375 718.7969,1226.1719 Q719.0625,1226.4063 719.0625,1226.7813 Q719.0625,1227.1719 718.7969,1227.4063 Q718.5313,1227.6406 717.9219,1227.6406 L716.2031,1227.6406 Z "/><text fill="#000000" font-family="sans-serif" font-size="12" font-style="italic" lengthAdjust="spacingAndGlyphs" textLength="97" x="735.75" y="1235.9102">CommandsTable</text><line style="stroke: #A80036; stroke-width: 1.5;" x1="569.5" x2="966.5" y1="1247" y2="1247"/><line style="stroke: #A80036; stroke-width: 1.5;" x1="569.5" x2="966.5" y1="1255" y2="1255"/><ellipse cx="579.5" cy="1267.418" fill="#84BE84" rx="3" ry="3" style="stroke: #038048; stroke-width: 1.0;"/><text fill="#000000" font-family="sans-serif" font-size="11" lengthAdjust="spacingAndGlyphs" textLength="81" x="588.5" y="1270.4189">String getName()</text><ellipse cx="579.5" cy="1281.2539" fill="#84BE84" rx="3" ry="3" style="stroke: #038048; stroke-width: 1.0;"/><text fill="#000000" font-family="sans-serif" font-size="11" lengthAdjust="spacingAndGlyphs" textLength="119" x="588.5" y="1284.2549">byte getInstructionByte()</text><ellipse cx="579.5" cy="1295.0898" fill="#84BE84" rx="3" ry="3" style="stroke: #038048; stroke-width: 1.0;"/><text fill="#000000" font-family="sans-serif" font-size="11" lengthAdjust="spacingAndGlyphs" textLength="371" x="588.5" y="1298.0908">Class&lt;? extends AbstractApduCommandBuilder&gt; getCommandBuilderClass()</text><ellipse cx="579.5" cy="1308.9258" fill="#84BE84" rx="3" ry="3" style="stroke: #038048; stroke-width: 1.0;"/><text fill="#000000" font-family="sans-serif" font-size="11" lengthAdjust="spacingAndGlyphs" textLength="373" x="588.5" y="1311.9268">Class&lt;? extends AbstractApduResponseParser&gt; getResponseParserClass()</text><!--class CsmSendableInSession--><rect fill="#FEFECE" filter="url(#fezkzgxusbkwp)" height="48" id="CsmSendableInSession" style="stroke: #A80036; stroke-width: 1.5;" width="167" x="516.5" y="290.5"/><ellipse cx="531.5" cy="306.5" fill="#B4A7E5" rx="11" ry="11" style="stroke: #A80036; stroke-width: 1.0;"/><path d="M532.4531,303.1406 L532.4531,309.7969 L534.1719,309.7969 Q534.7813,309.7969 535.0469,310.0313 Q535.3125,310.2656 535.3125,310.6563 Q535.3125,311.0313 535.0469,311.2656 Q534.7813,311.5 534.1719,311.5 L529.0313,311.5 Q528.4219,311.5 528.1563,311.2656 Q527.8906,311.0313 527.8906,310.6406 Q527.8906,310.2656 528.1563,310.0313 Q528.4219,309.7969 529.0313,309.7969 L530.75,309.7969 L530.75,303.1406 L529.0313,303.1406 Q528.4219,303.1406 528.1563,302.9063 Q527.8906,302.6719 527.8906,302.2813 Q527.8906,301.9063 528.1563,301.6719 Q528.4219,301.4375 529.0313,301.4375 L534.1719,301.4375 Q534.7813,301.4375 535.0469,301.6719 Q535.3125,301.9063 535.3125,302.2813 Q535.3125,302.6719 535.0469,302.9063 Q534.7813,303.1406 534.1719,303.1406 L532.4531,303.1406 Z "/><text fill="#000000" font-family="sans-serif" font-size="12" font-style="italic" lengthAdjust="spacingAndGlyphs" textLength="135" x="545.5" y="311.4102">CsmSendableInSession</text><line style="stroke: #A80036; stroke-width: 1.5;" x1="517.5" x2="682.5" y1="322.5" y2="322.5"/><line style="stroke: #A80036; stroke-width: 1.5;" x1="517.5" x2="682.5" y1="330.5" y2="330.5"/><!--class CalypsoSmCommands--><rect fill="#FEFECE" filter="url(#fezkzgxusbkwp)" height="172.5234" id="CalypsoSmCommands" style="stroke: #A80036; stroke-width: 1.5;" width="179" x="718.5" y="228"/><ellipse cx="741.15" cy="244" fill="#EB937F" rx="11" ry="11" style="stroke: #A80036; stroke-width: 1.0;"/><path d="M740.0094,244.7969 L740.0094,247.2969 L744.3375,247.2969 L744.3375,246.375 Q744.3375,245.7656 744.5797,245.5 Q744.8219,245.2344 745.1969,245.2344 Q745.5719,245.2344 745.8063,245.5 Q746.0406,245.7656 746.0406,246.375 L746.0406,249 L738.0406,249 Q737.4156,249 737.1578,248.7656 Q736.9,248.5313 736.9,248.1406 Q736.9,247.7656 737.1656,247.5313 Q737.4313,247.2969 738.0406,247.2969 L738.3063,247.2969 L738.3063,240.6406 L738.0406,240.6406 Q737.4156,240.6406 737.1578,240.4063 Q736.9,240.1719 736.9,239.7813 Q736.9,239.4063 737.1578,239.1719 Q737.4156,238.9375 738.0406,238.9375 L745.6656,238.9375 L745.6656,241.5313 Q745.6656,242.1406 745.4391,242.3984 Q745.2125,242.6563 744.8219,242.6563 Q744.4469,242.6563 744.2125,242.3984 Q743.9781,242.1406 743.9781,241.5313 L743.9781,240.6406 L740.0094,240.6406 L740.0094,243.0938 L741.4938,243.0938 Q741.4938,242.4375 741.6188,242.25 Q741.8844,241.8438 742.3531,241.8438 Q742.7281,241.8438 742.9625,242.1016 Q743.1969,242.3594 743.1969,242.9688 L743.1969,244.9375 Q743.1969,245.4844 743.0719,245.6719 Q742.8063,246.0625 742.3531,246.0625 Q741.8844,246.0625 741.6188,245.6563 Q741.4938,245.4688 741.4938,244.7969 L740.0094,244.7969 Z "/><text fill="#000000" font-family="sans-serif" font-size="12" lengthAdjust="spacingAndGlyphs" textLength="130" x="756.85" y="248.9102">CalypsoSmCommands</text><line style="stroke: #A80036; stroke-width: 1.5;" x1="719.5" x2="896.5" y1="260" y2="260"/><text fill="#000000" font-family="sans-serif" font-size="11" lengthAdjust="spacingAndGlyphs" textLength="167" x="724.5" y="275.4189">CSM_PSO_COMPUTE_SIGNATURE</text><text fill="#000000" font-family="sans-serif" font-size="11" lengthAdjust="spacingAndGlyphs" textLength="156" x="724.5" y="289.2549">CSM_PSO_VERIFY_SIGNATURE</text><text fill="#000000" font-family="sans-serif" font-size="11" lengthAdjust="spacingAndGlyphs" textLength="132" x="724.5" y="303.0908">CSM_SELECT_DIVERSIFIER</text><text fill="#000000" font-family="sans-serif" font-size="11" lengthAdjust="spacingAndGlyphs" textLength="115" x="724.5" y="316.9268">CSM_GET_CHALLENGE</text><text fill="#000000" font-family="sans-serif" font-size="11" lengthAdjust="spacingAndGlyphs" textLength="87" x="724.5" y="330.7627">CSM_DIGEST_INIT</text><text fill="#000000" font-family="sans-serif" font-size="11" lengthAdjust="spacingAndGlyphs" textLength="110" x="724.5" y="344.5986">CSM_DIGEST_UPDATE</text><text fill="#000000" font-family="sans-serif" font-size="11" lengthAdjust="spacingAndGlyphs" textLength="163" x="724.5" y="358.4346">CSM_DIGEST_UPDATE_MULTIPLE</text><text fill="#000000" font-family="sans-serif" font-size="11" lengthAdjust="spacingAndGlyphs" textLength="104" x="724.5" y="372.2705">CSM_DIGEST_CLOSE</text><text fill="#000000" font-family="sans-serif" font-size="11" lengthAdjust="spacingAndGlyphs" textLength="146" x="724.5" y="386.1064">CSM_DIGEST_AUTHENTICATE</text><line style="stroke: #A80036; stroke-width: 1.5;" x1="719.5" x2="896.5" y1="392.5234" y2="392.5234"/><!--class AbstractCsmCommandBuilder--><rect fill="#FEFECE" filter="url(#fezkzgxusbkwp)" height="75.6719" id="AbstractCsmCommandBuilder" style="stroke: #A80036; stroke-width: 1.5;" width="447" x="180.5" y="1003"/><ellipse cx="315.25" cy="1019" fill="#A9DCDF" rx="11" ry="11" style="stroke: #A80036; stroke-width: 1.0;"/><path d="M317.4375,1020.7656 L313.2969,1020.7656 L312.875,1021.7969 L313.2969,1021.7969 Q313.9063,1021.7969 314.1719,1022.0313 Q314.4375,1022.2656 314.4375,1022.6563 Q314.4375,1023.0313 314.1719,1023.2656 Q313.9063,1023.5 313.2969,1023.5 L311,1023.5 Q310.3906,1023.5 310.1328,1023.2656 Q309.875,1023.0313 309.875,1022.6406 Q309.875,1022.2656 310.1484,1022.0234 Q310.4219,1021.7813 311.0469,1021.7969 L313.7188,1015.1406 L312.6094,1015.1406 Q312,1015.1406 311.7344,1014.9063 Q311.4688,1014.6719 311.4688,1014.2813 Q311.4688,1013.9063 311.7344,1013.6719 Q312,1013.4375 312.6094,1013.4375 L316.2813,1013.4375 L319.6719,1021.7969 Q320.2656,1021.7969 320.4531,1021.9375 Q320.8438,1022.2031 320.8438,1022.6563 Q320.8438,1023.0313 320.5859,1023.2656 Q320.3281,1023.5 319.7188,1023.5 L317.4219,1023.5 Q316.8125,1023.5 316.5469,1023.2656 Q316.2813,1023.0313 316.2813,1022.6406 Q316.2813,1022.2656 316.5469,1022.0313 Q316.8125,1021.7969 317.4219,1021.7969 L317.8438,1021.7969 L317.4375,1020.7656 Z M316.7188,1019.0625 L315.3594,1015.6875 L313.9844,1019.0625 L316.7188,1019.0625 Z "/><text fill="#000000" font-family="sans-serif" font-size="12" font-style="italic" lengthAdjust="spacingAndGlyphs" textLength="169" x="335.75" y="1023.9102">AbstractCsmCommandBuilder</text><line style="stroke: #A80036; stroke-width: 1.5;" x1="181.5" x2="626.5" y1="1035" y2="1035"/><polygon fill="none" points="191.5,1042.418,195.5,1046.418,191.5,1050.418,187.5,1046.418" style="stroke: #B38D22; stroke-width: 1.0;"/><text fill="#000000" font-family="sans-serif" font-size="11" lengthAdjust="spacingAndGlyphs" textLength="229" x="200.5" y="1050.4189">CsmRevision defaultRevision = CsmRevision.C1</text><line style="stroke: #A80036; stroke-width: 1.5;" x1="181.5" x2="626.5" y1="1056.8359" y2="1056.8359"/><ellipse cx="191.5" cy="1069.2539" fill="#84BE84" rx="3" ry="3" style="stroke: #038048; stroke-width: 1.0;"/><text fill="#000000" font-family="sans-serif" font-size="11" lengthAdjust="spacingAndGlyphs" textLength="421" x="200.5" y="1072.2549">AbstractCsmCommandBuilder(CalypsoSmCommands reference, ApduRequest request)</text><!--class CsmRevision--><rect fill="#FEFECE" filter="url(#fezkzgxusbkwp)" height="75.6719" id="CsmRevision" style="stroke: #A80036; stroke-width: 1.5;" width="107" x="38.5" y="1003"/><ellipse cx="53.5" cy="1019" fill="#EB937F" rx="11" ry="11" style="stroke: #A80036; stroke-width: 1.0;"/><path d="M52.3594,1019.7969 L52.3594,1022.2969 L56.6875,1022.2969 L56.6875,1021.375 Q56.6875,1020.7656 56.9297,1020.5 Q57.1719,1020.2344 57.5469,1020.2344 Q57.9219,1020.2344 58.1563,1020.5 Q58.3906,1020.7656 58.3906,1021.375 L58.3906,1024 L50.3906,1024 Q49.7656,1024 49.5078,1023.7656 Q49.25,1023.5313 49.25,1023.1406 Q49.25,1022.7656 49.5156,1022.5313 Q49.7813,1022.2969 50.3906,1022.2969 L50.6563,1022.2969 L50.6563,1015.6406 L50.3906,1015.6406 Q49.7656,1015.6406 49.5078,1015.4063 Q49.25,1015.1719 49.25,1014.7813 Q49.25,1014.4063 49.5078,1014.1719 Q49.7656,1013.9375 50.3906,1013.9375 L58.0156,1013.9375 L58.0156,1016.5313 Q58.0156,1017.1406 57.7891,1017.3984 Q57.5625,1017.6563 57.1719,1017.6563 Q56.7969,1017.6563 56.5625,1017.3984 Q56.3281,1017.1406 56.3281,1016.5313 L56.3281,1015.6406 L52.3594,1015.6406 L52.3594,1018.0938 L53.8438,1018.0938 Q53.8438,1017.4375 53.9688,1017.25 Q54.2344,1016.8438 54.7031,1016.8438 Q55.0781,1016.8438 55.3125,1017.1016 Q55.5469,1017.3594 55.5469,1017.9688 L55.5469,1019.9375 Q55.5469,1020.4844 55.4219,1020.6719 Q55.1563,1021.0625 54.7031,1021.0625 Q54.2344,1021.0625 53.9688,1020.6563 Q53.8438,1020.4688 53.8438,1019.7969 L52.3594,1019.7969 Z "/><text fill="#000000" font-family="sans-serif" font-size="12" lengthAdjust="spacingAndGlyphs" textLength="75" x="67.5" y="1023.9102">CsmRevision</text><line style="stroke: #A80036; stroke-width: 1.5;" x1="39.5" x2="144.5" y1="1035" y2="1035"/><text fill="#000000" font-family="sans-serif" font-size="11" lengthAdjust="spacingAndGlyphs" textLength="13" x="44.5" y="1050.4189">C1</text><text fill="#000000" font-family="sans-serif" font-size="11" lengthAdjust="spacingAndGlyphs" textLength="20" x="44.5" y="1064.2549">S1D</text><line style="stroke: #A80036; stroke-width: 1.5;" x1="39.5" x2="144.5" y1="1070.6719" y2="1070.6719"/><!--class PsoComputeSignatureCmdBuild--><rect fill="#FEFECE" filter="url(#fezkzgxusbkwp)" height="48" id="PsoComputeSignatureCmdBuild" style="stroke: #A80036; stroke-width: 1.5;" width="213" x="199.5" y="290.5"/><ellipse cx="214.5" cy="306.5" fill="#ADD1B2" rx="11" ry="11" style="stroke: #A80036; stroke-width: 1.0;"/><path d="M217.2656,302.375 Q217.4219,302.1563 217.6094,302.0469 Q217.7969,301.9375 218.0156,301.9375 Q218.3906,301.9375 218.625,302.1953 Q218.8594,302.4531 218.8594,303.0625 L218.8594,304.5156 Q218.8594,305.125 218.625,305.3906 Q218.3906,305.6563 218.0156,305.6563 Q217.6719,305.6563 217.4688,305.4531 Q217.2656,305.2656 217.1563,304.75 Q217.1094,304.3906 216.9219,304.2031 Q216.5938,303.8281 215.9844,303.6094 Q215.375,303.3906 214.75,303.3906 Q213.9844,303.3906 213.3516,303.7188 Q212.7188,304.0469 212.2266,304.7969 Q211.7344,305.5469 211.7344,306.5781 L211.7344,307.6719 Q211.7344,308.9063 212.625,309.7266 Q213.5156,310.5469 215.1094,310.5469 Q216.0469,310.5469 216.7031,310.2969 Q217.0938,310.1406 217.5156,309.7031 Q217.7813,309.4375 217.9297,309.3594 Q218.0781,309.2813 218.2813,309.2813 Q218.6094,309.2813 218.8672,309.5391 Q219.125,309.7969 219.125,310.1406 Q219.125,310.4844 218.7813,310.8906 Q218.2813,311.4688 217.4844,311.7969 Q216.4063,312.25 215.1094,312.25 Q213.5938,312.25 212.3906,311.625 Q211.4063,311.125 210.7188,310.0547 Q210.0313,308.9844 210.0313,307.7031 L210.0313,306.5469 Q210.0313,305.2188 210.6484,304.0703 Q211.2656,302.9219 212.3594,302.3047 Q213.4531,301.6875 214.6875,301.6875 Q215.4219,301.6875 216.0703,301.8516 Q216.7188,302.0156 217.2656,302.375 Z "/><text fill="#000000" font-family="sans-serif" font-size="12" lengthAdjust="spacingAndGlyphs" textLength="181" x="228.5" y="311.4102">PsoComputeSignatureCmdBuild</text><line style="stroke: #A80036; stroke-width: 1.5;" x1="200.5" x2="411.5" y1="322.5" y2="322.5"/><line style="stroke: #A80036; stroke-width: 1.5;" x1="200.5" x2="411.5" y1="330.5" y2="330.5"/><!--class PsoVerifySignatureCmdBuild--><rect fill="#FEFECE" filter="url(#fezkzgxusbkwp)" height="48" id="PsoVerifySignatureCmdBuild" style="stroke: #A80036; stroke-width: 1.5;" width="191" x="276.5" y="479"/><ellipse cx="291.5" cy="495" fill="#ADD1B2" rx="11" ry="11" style="stroke: #A80036; stroke-width: 1.0;"/><path d="M294.2656,490.875 Q294.4219,490.6563 294.6094,490.5469 Q294.7969,490.4375 295.0156,490.4375 Q295.3906,490.4375 295.625,490.6953 Q295.8594,490.9531 295.8594,491.5625 L295.8594,493.0156 Q295.8594,493.625 295.625,493.8906 Q295.3906,494.1563 295.0156,494.1563 Q294.6719,494.1563 294.4688,493.9531 Q294.2656,493.7656 294.1563,493.25 Q294.1094,492.8906 293.9219,492.7031 Q293.5938,492.3281 292.9844,492.1094 Q292.375,491.8906 291.75,491.8906 Q290.9844,491.8906 290.3516,492.2188 Q289.7188,492.5469 289.2266,493.2969 Q288.7344,494.0469 288.7344,495.0781 L288.7344,496.1719 Q288.7344,497.4063 289.625,498.2266 Q290.5156,499.0469 292.1094,499.0469 Q293.0469,499.0469 293.7031,498.7969 Q294.0938,498.6406 294.5156,498.2031 Q294.7813,497.9375 294.9297,497.8594 Q295.0781,497.7813 295.2813,497.7813 Q295.6094,497.7813 295.8672,498.0391 Q296.125,498.2969 296.125,498.6406 Q296.125,498.9844 295.7813,499.3906 Q295.2813,499.9688 294.4844,500.2969 Q293.4063,500.75 292.1094,500.75 Q290.5938,500.75 289.3906,500.125 Q288.4063,499.625 287.7188,498.5547 Q287.0313,497.4844 287.0313,496.2031 L287.0313,495.0469 Q287.0313,493.7188 287.6484,492.5703 Q288.2656,491.4219 289.3594,490.8047 Q290.4531,490.1875 291.6875,490.1875 Q292.4219,490.1875 293.0703,490.3516 Q293.7188,490.5156 294.2656,490.875 Z "/><text fill="#000000" font-family="sans-serif" font-size="12" lengthAdjust="spacingAndGlyphs" textLength="159" x="305.5" y="499.9102">PsoVerifySignatureCmdBuild</text><line style="stroke: #A80036; stroke-width: 1.5;" x1="277.5" x2="466.5" y1="511" y2="511"/><line style="stroke: #A80036; stroke-width: 1.5;" x1="277.5" x2="466.5" y1="519" y2="519"/><!--class SelectDiversifierCmdBuild--><rect fill="#FEFECE" filter="url(#fezkzgxusbkwp)" height="48" id="SelectDiversifierCmdBuild" style="stroke: #A80036; stroke-width: 1.5;" width="176" x="288" y="605"/><ellipse cx="303" cy="621" fill="#ADD1B2" rx="11" ry="11" style="stroke: #A80036; stroke-width: 1.0;"/><path d="M305.7656,616.875 Q305.9219,616.6563 306.1094,616.5469 Q306.2969,616.4375 306.5156,616.4375 Q306.8906,616.4375 307.125,616.6953 Q307.3594,616.9531 307.3594,617.5625 L307.3594,619.0156 Q307.3594,619.625 307.125,619.8906 Q306.8906,620.1563 306.5156,620.1563 Q306.1719,620.1563 305.9688,619.9531 Q305.7656,619.7656 305.6563,619.25 Q305.6094,618.8906 305.4219,618.7031 Q305.0938,618.3281 304.4844,618.1094 Q303.875,617.8906 303.25,617.8906 Q302.4844,617.8906 301.8516,618.2188 Q301.2188,618.5469 300.7266,619.2969 Q300.2344,620.0469 300.2344,621.0781 L300.2344,622.1719 Q300.2344,623.4063 301.125,624.2266 Q302.0156,625.0469 303.6094,625.0469 Q304.5469,625.0469 305.2031,624.7969 Q305.5938,624.6406 306.0156,624.2031 Q306.2813,623.9375 306.4297,623.8594 Q306.5781,623.7813 306.7813,623.7813 Q307.1094,623.7813 307.3672,624.0391 Q307.625,624.2969 307.625,624.6406 Q307.625,624.9844 307.2813,625.3906 Q306.7813,625.9688 305.9844,626.2969 Q304.9063,626.75 303.6094,626.75 Q302.0938,626.75 300.8906,626.125 Q299.9063,625.625 299.2188,624.5547 Q298.5313,623.4844 298.5313,622.2031 L298.5313,621.0469 Q298.5313,619.7188 299.1484,618.5703 Q299.7656,617.4219 300.8594,616.8047 Q301.9531,616.1875 303.1875,616.1875 Q303.9219,616.1875 304.5703,616.3516 Q305.2188,616.5156 305.7656,616.875 Z "/><text fill="#000000" font-family="sans-serif" font-size="12" lengthAdjust="spacingAndGlyphs" textLength="144" x="317" y="625.9102">SelectDiversifierCmdBuild</text><line style="stroke: #A80036; stroke-width: 1.5;" x1="289" x2="463" y1="637" y2="637"/><line style="stroke: #A80036; stroke-width: 1.5;" x1="289" x2="463" y1="645" y2="645"/><!--class DigestInitCmdBuild--><rect fill="#FEFECE" filter="url(#fezkzgxusbkwp)" height="48" id="DigestInitCmdBuild" style="stroke: #A80036; stroke-width: 1.5;" width="139" x="314.5" y="733"/><ellipse cx="329.5" cy="749" fill="#ADD1B2" rx="11" ry="11" style="stroke: #A80036; stroke-width: 1.0;"/><path d="M332.2656,744.875 Q332.4219,744.6563 332.6094,744.5469 Q332.7969,744.4375 333.0156,744.4375 Q333.3906,744.4375 333.625,744.6953 Q333.8594,744.9531 333.8594,745.5625 L333.8594,747.0156 Q333.8594,747.625 333.625,747.8906 Q333.3906,748.1563 333.0156,748.1563 Q332.6719,748.1563 332.4688,747.9531 Q332.2656,747.7656 332.1563,747.25 Q332.1094,746.8906 331.9219,746.7031 Q331.5938,746.3281 330.9844,746.1094 Q330.375,745.8906 329.75,745.8906 Q328.9844,745.8906 328.3516,746.2188 Q327.7188,746.5469 327.2266,747.2969 Q326.7344,748.0469 326.7344,749.0781 L326.7344,750.1719 Q326.7344,751.4063 327.625,752.2266 Q328.5156,753.0469 330.1094,753.0469 Q331.0469,753.0469 331.7031,752.7969 Q332.0938,752.6406 332.5156,752.2031 Q332.7813,751.9375 332.9297,751.8594 Q333.0781,751.7813 333.2813,751.7813 Q333.6094,751.7813 333.8672,752.0391 Q334.125,752.2969 334.125,752.6406 Q334.125,752.9844 333.7813,753.3906 Q333.2813,753.9688 332.4844,754.2969 Q331.4063,754.75 330.1094,754.75 Q328.5938,754.75 327.3906,754.125 Q326.4063,753.625 325.7188,752.5547 Q325.0313,751.4844 325.0313,750.2031 L325.0313,749.0469 Q325.0313,747.7188 325.6484,746.5703 Q326.2656,745.4219 327.3594,744.8047 Q328.4531,744.1875 329.6875,744.1875 Q330.4219,744.1875 331.0703,744.3516 Q331.7188,744.5156 332.2656,744.875 Z "/><text fill="#000000" font-family="sans-serif" font-size="12" lengthAdjust="spacingAndGlyphs" textLength="107" x="343.5" y="753.9102">DigestInitCmdBuild</text><line style="stroke: #A80036; stroke-width: 1.5;" x1="315.5" x2="452.5" y1="765" y2="765"/><line style="stroke: #A80036; stroke-width: 1.5;" x1="315.5" x2="452.5" y1="773" y2="773"/><!--class DigestUpdateCmdBuild--><rect fill="#FEFECE" filter="url(#fezkzgxusbkwp)" height="48" id="DigestUpdateCmdBuild" style="stroke: #A80036; stroke-width: 1.5;" width="163" x="304.5" y="859"/><ellipse cx="319.5" cy="875" fill="#ADD1B2" rx="11" ry="11" style="stroke: #A80036; stroke-width: 1.0;"/><path d="M322.2656,870.875 Q322.4219,870.6563 322.6094,870.5469 Q322.7969,870.4375 323.0156,870.4375 Q323.3906,870.4375 323.625,870.6953 Q323.8594,870.9531 323.8594,871.5625 L323.8594,873.0156 Q323.8594,873.625 323.625,873.8906 Q323.3906,874.1563 323.0156,874.1563 Q322.6719,874.1563 322.4688,873.9531 Q322.2656,873.7656 322.1563,873.25 Q322.1094,872.8906 321.9219,872.7031 Q321.5938,872.3281 320.9844,872.1094 Q320.375,871.8906 319.75,871.8906 Q318.9844,871.8906 318.3516,872.2188 Q317.7188,872.5469 317.2266,873.2969 Q316.7344,874.0469 316.7344,875.0781 L316.7344,876.1719 Q316.7344,877.4063 317.625,878.2266 Q318.5156,879.0469 320.1094,879.0469 Q321.0469,879.0469 321.7031,878.7969 Q322.0938,878.6406 322.5156,878.2031 Q322.7813,877.9375 322.9297,877.8594 Q323.0781,877.7813 323.2813,877.7813 Q323.6094,877.7813 323.8672,878.0391 Q324.125,878.2969 324.125,878.6406 Q324.125,878.9844 323.7813,879.3906 Q323.2813,879.9688 322.4844,880.2969 Q321.4063,880.75 320.1094,880.75 Q318.5938,880.75 317.3906,880.125 Q316.4063,879.625 315.7188,878.5547 Q315.0313,877.4844 315.0313,876.2031 L315.0313,875.0469 Q315.0313,873.7188 315.6484,872.5703 Q316.2656,871.4219 317.3594,870.8047 Q318.4531,870.1875 319.6875,870.1875 Q320.4219,870.1875 321.0703,870.3516 Q321.7188,870.5156 322.2656,870.875 Z "/><text fill="#000000" font-family="sans-serif" font-size="12" lengthAdjust="spacingAndGlyphs" textLength="131" x="333.5" y="879.9102">DigestUpdateCmdBuild</text><line style="stroke: #A80036; stroke-width: 1.5;" x1="305.5" x2="466.5" y1="891" y2="891"/><line style="stroke: #A80036; stroke-width: 1.5;" x1="305.5" x2="466.5" y1="899" y2="899"/><!--class SelectDiversifierRespPars--><rect fill="#FEFECE" filter="url(#fezkzgxusbkwp)" height="48" id="SelectDiversifierRespPars" style="stroke: #A80036; stroke-width: 1.5;" width="177" x="994.5" y="290.5"/><ellipse cx="1009.5" cy="306.5" fill="#ADD1B2" rx="11" ry="11" style="stroke: #A80036; stroke-width: 1.0;"/><path d="M1012.2656,302.375 Q1012.4219,302.1563 1012.6094,302.0469 Q1012.7969,301.9375 1013.0156,301.9375 Q1013.3906,301.9375 1013.625,302.1953 Q1013.8594,302.4531 1013.8594,303.0625 L1013.8594,304.5156 Q1013.8594,305.125 1013.625,305.3906 Q1013.3906,305.6563 1013.0156,305.6563 Q1012.6719,305.6563 1012.4688,305.4531 Q1012.2656,305.2656 1012.1563,304.75 Q1012.1094,304.3906 1011.9219,304.2031 Q1011.5938,303.8281 1010.9844,303.6094 Q1010.375,303.3906 1009.75,303.3906 Q1008.9844,303.3906 1008.3516,303.7188 Q1007.7188,304.0469 1007.2266,304.7969 Q1006.7344,305.5469 1006.7344,306.5781 L1006.7344,307.6719 Q1006.7344,308.9063 1007.625,309.7266 Q1008.5156,310.5469 1010.1094,310.5469 Q1011.0469,310.5469 1011.7031,310.2969 Q1012.0938,310.1406 1012.5156,309.7031 Q1012.7813,309.4375 1012.9297,309.3594 Q1013.0781,309.2813 1013.2813,309.2813 Q1013.6094,309.2813 1013.8672,309.5391 Q1014.125,309.7969 1014.125,310.1406 Q1014.125,310.4844 1013.7813,310.8906 Q1013.2813,311.4688 1012.4844,311.7969 Q1011.4063,312.25 1010.1094,312.25 Q1008.5938,312.25 1007.3906,311.625 Q1006.4063,311.125 1005.7188,310.0547 Q1005.0313,308.9844 1005.0313,307.7031 L1005.0313,306.5469 Q1005.0313,305.2188 1005.6484,304.0703 Q1006.2656,302.9219 1007.3594,302.3047 Q1008.4531,301.6875 1009.6875,301.6875 Q1010.4219,301.6875 1011.0703,301.8516 Q1011.7188,302.0156 1012.2656,302.375 Z "/><text fill="#000000" font-family="sans-serif" font-size="12" lengthAdjust="spacingAndGlyphs" textLength="145" x="1023.5" y="311.4102">SelectDiversifierRespPars</text><line style="stroke: #A80036; stroke-width: 1.5;" x1="995.5" x2="1170.5" y1="322.5" y2="322.5"/><line style="stroke: #A80036; stroke-width: 1.5;" x1="995.5" x2="1170.5" y1="330.5" y2="330.5"/><!--class GetChallengeRespPars--><rect fill="#FEFECE" filter="url(#fezkzgxusbkwp)" height="48" id="GetChallengeRespPars" style="stroke: #A80036; stroke-width: 1.5;" width="164" x="996" y="479"/><ellipse cx="1011" cy="495" fill="#ADD1B2" rx="11" ry="11" style="stroke: #A80036; stroke-width: 1.0;"/><path d="M1013.7656,490.875 Q1013.9219,490.6563 1014.1094,490.5469 Q1014.2969,490.4375 1014.5156,490.4375 Q1014.8906,490.4375 1015.125,490.6953 Q1015.3594,490.9531 1015.3594,491.5625 L1015.3594,493.0156 Q1015.3594,493.625 1015.125,493.8906 Q1014.8906,494.1563 1014.5156,494.1563 Q1014.1719,494.1563 1013.9688,493.9531 Q1013.7656,493.7656 1013.6563,493.25 Q1013.6094,492.8906 1013.4219,492.7031 Q1013.0938,492.3281 1012.4844,492.1094 Q1011.875,491.8906 1011.25,491.8906 Q1010.4844,491.8906 1009.8516,492.2188 Q1009.2188,492.5469 1008.7266,493.2969 Q1008.2344,494.0469 1008.2344,495.0781 L1008.2344,496.1719 Q1008.2344,497.4063 1009.125,498.2266 Q1010.0156,499.0469 1011.6094,499.0469 Q1012.5469,499.0469 1013.2031,498.7969 Q1013.5938,498.6406 1014.0156,498.2031 Q1014.2813,497.9375 1014.4297,497.8594 Q1014.5781,497.7813 1014.7813,497.7813 Q1015.1094,497.7813 1015.3672,498.0391 Q1015.625,498.2969 1015.625,498.6406 Q1015.625,498.9844 1015.2813,499.3906 Q1014.7813,499.9688 1013.9844,500.2969 Q1012.9063,500.75 1011.6094,500.75 Q1010.0938,500.75 1008.8906,500.125 Q1007.9063,499.625 1007.2188,498.5547 Q1006.5313,497.4844 1006.5313,496.2031 L1006.5313,495.0469 Q1006.5313,493.7188 1007.1484,492.5703 Q1007.7656,491.4219 1008.8594,490.8047 Q1009.9531,490.1875 1011.1875,490.1875 Q1011.9219,490.1875 1012.5703,490.3516 Q1013.2188,490.5156 1013.7656,490.875 Z "/><text fill="#000000" font-family="sans-serif" font-size="12" lengthAdjust="spacingAndGlyphs" textLength="132" x="1025" y="499.9102">GetChallengeRespPars</text><line style="stroke: #A80036; stroke-width: 1.5;" x1="997" x2="1159" y1="511" y2="511"/><line style="stroke: #A80036; stroke-width: 1.5;" x1="997" x2="1159" y1="519" y2="519"/><!--class DigestUpdateRespPars--><rect fill="#FEFECE" filter="url(#fezkzgxusbkwp)" height="48" id="DigestUpdateRespPars" style="stroke: #A80036; stroke-width: 1.5;" width="164" x="994" y="605"/><ellipse cx="1009" cy="621" fill="#ADD1B2" rx="11" ry="11" style="stroke: #A80036; stroke-width: 1.0;"/><path d="M1011.7656,616.875 Q1011.9219,616.6563 1012.1094,616.5469 Q1012.2969,616.4375 1012.5156,616.4375 Q1012.8906,616.4375 1013.125,616.6953 Q1013.3594,616.9531 1013.3594,617.5625 L1013.3594,619.0156 Q1013.3594,619.625 1013.125,619.8906 Q1012.8906,620.1563 1012.5156,620.1563 Q1012.1719,620.1563 1011.9688,619.9531 Q1011.7656,619.7656 1011.6563,619.25 Q1011.6094,618.8906 1011.4219,618.7031 Q1011.0938,618.3281 1010.4844,618.1094 Q1009.875,617.8906 1009.25,617.8906 Q1008.4844,617.8906 1007.8516,618.2188 Q1007.2188,618.5469 1006.7266,619.2969 Q1006.2344,620.0469 1006.2344,621.0781 L1006.2344,622.1719 Q1006.2344,623.4063 1007.125,624.2266 Q1008.0156,625.0469 1009.6094,625.0469 Q1010.5469,625.0469 1011.2031,624.7969 Q1011.5938,624.6406 1012.0156,624.2031 Q1012.2813,623.9375 1012.4297,623.8594 Q1012.5781,623.7813 1012.7813,623.7813 Q1013.1094,623.7813 1013.3672,624.0391 Q1013.625,624.2969 1013.625,624.6406 Q1013.625,624.9844 1013.2813,625.3906 Q1012.7813,625.9688 1011.9844,626.2969 Q1010.9063,626.75 1009.6094,626.75 Q1008.0938,626.75 1006.8906,626.125 Q1005.9063,625.625 1005.2188,624.5547 Q1004.5313,623.4844 1004.5313,622.2031 L1004.5313,621.0469 Q1004.5313,619.7188 1005.1484,618.5703 Q1005.7656,617.4219 1006.8594,616.8047 Q1007.9531,616.1875 1009.1875,616.1875 Q1009.9219,616.1875 1010.5703,616.3516 Q1011.2188,616.5156 1011.7656,616.875 Z "/><text fill="#000000" font-family="sans-serif" font-size="12" lengthAdjust="spacingAndGlyphs" textLength="132" x="1023" y="625.9102">DigestUpdateRespPars</text><line style="stroke: #A80036; stroke-width: 1.5;" x1="995" x2="1157" y1="637" y2="637"/><line style="stroke: #A80036; stroke-width: 1.5;" x1="995" x2="1157" y1="645" y2="645"/><!--link AbstractApduCommandBuilder to CommandsTable--><path d="M484.728,1266.5 C508.103,1266.5 531.806,1266.5 555.034,1266.5 " fill="none" id="AbstractApduCommandBuilder-CommandsTable" style="stroke: #A80036; stroke-width: 1.0;"/><polygon fill="#A80036" points="568.266,1266.5,562.266,1262.5,556.266,1266.5,562.266,1270.5,568.266,1266.5" style="stroke: #A80036; stroke-width: 1.0;"/><polygon fill="#A80036" points="471.544,1266.5,480.544,1270.5,476.544,1266.5,480.544,1262.5,471.544,1266.5" style="stroke: #A80036; stroke-width: 1.0;"/><line style="stroke: #A80036; stroke-width: 1.0;" x1="476.544" x2="484.544" y1="1266.5" y2="1266.5"/><text fill="#000000" font-family="sans-serif" font-size="13" lengthAdjust="spacingAndGlyphs" textLength="60" x="490" y="1259.9951">references</text><text fill="#000000" font-family="sans-serif" font-size="13" lengthAdjust="spacingAndGlyphs" textLength="5" x="479.2721" y="1263.7137">*</text><text fill="#000000" font-family="sans-serif" font-size="13" lengthAdjust="spacingAndGlyphs" textLength="7" x="553.3272" y="1263.6828">1</text><!--link CommandsTable to AbstractApduResponseParser--><path d="M980.885,1266.5 C1004.323,1266.5 1028.06,1266.5 1051.14,1266.5 " fill="none" id="CommandsTable-AbstractApduResponseParser" style="stroke: #A80036; stroke-width: 1.0;"/><polygon fill="#A80036" points="1064.27,1266.5,1055.27,1262.5,1059.27,1266.5,1055.27,1270.5,1064.27,1266.5" style="stroke: #A80036; stroke-width: 1.0;"/><line style="stroke: #A80036; stroke-width: 1.0;" x1="1059.27" x2="1051.27" y1="1266.5" y2="1266.5"/><polygon fill="#A80036" points="967.663,1266.5,973.663,1270.5,979.663,1266.5,973.663,1262.5,967.663,1266.5" style="stroke: #A80036; stroke-width: 1.0;"/><text fill="#000000" font-family="sans-serif" font-size="13" lengthAdjust="spacingAndGlyphs" textLength="60" x="986" y="1259.9951">references</text><text fill="#000000" font-family="sans-serif" font-size="13" lengthAdjust="spacingAndGlyphs" textLength="7" x="975.5991" y="1263.6828">1</text><text fill="#000000" font-family="sans-serif" font-size="13" lengthAdjust="spacingAndGlyphs" textLength="5" x="1051.2846" y="1263.6402">*</text><!--link PsoComputeSignatureCmdBuild to PsoVerifySignatureCmdBuild--><!--link PsoVerifySignatureCmdBuild to SelectDiversifierCmdBuild--><!--link SelectDiversifierCmdBuild to DigestInitCmdBuild--><!--link DigestInitCmdBuild to DigestUpdateCmdBuild--><!--link CsmSendableInSession to PsoComputeSignatureCmdBuild--><path d="M496.142,314.5 C469.041,314.5 439.794,314.5 412.556,314.5 " fill="none" id="CsmSendableInSession-PsoComputeSignatureCmdBuild" style="stroke: #A80036; stroke-width: 1.0; stroke-dasharray: 7.0,7.0;"/><polygon fill="none" points="496.378,307.5,516.378,314.5,496.378,321.5,496.378,307.5" style="stroke: #A80036; stroke-width: 1.0;"/><text fill="#000000" font-family="sans-serif" font-size="13" lengthAdjust="spacingAndGlyphs" textLength="67" x="431" y="307.9951">implements</text><!--link CsmSendableInSession to PsoVerifySignatureCmdBuild--><path d="M557.831,351.58 C536.705,368.32 510.111,387.457 484,401 C446.571,420.413 423.495,400.87 394,431 C381.542,443.726 376.123,463.363 373.773,478.763 " fill="none" id="CsmSendableInSession-PsoVerifySignatureCmdBuild" style="stroke: #A80036; stroke-width: 1.0; stroke-dasharray: 7.0,7.0;"/><polygon fill="none" points="553.561,346.03,573.488,338.83,562.403,356.89,553.561,346.03" style="stroke: #A80036; stroke-width: 1.0;"/><text fill="#000000" font-family="sans-serif" font-size="13" lengthAdjust="spacingAndGlyphs" textLength="67" x="395" y="445.4951">implements</text><!--link SelectDiversifierRespPars to GetChallengeRespPars--><!--link GetChallengeRespPars to DigestUpdateRespPars--><!--link PsoComputeSignatureCmdBuild to CalypsoSmCommands--><path d="M322.631,278.76 C340.436,245.23 372.163,197.16 416,176 C473.034,148.46 644.152,148.08 701,176 C720.721,185.69 737.838,200.95 752.249,217.87 " fill="none" id="PsoComputeSignatureCmdBuild-CalypsoSmCommands" style="stroke: #A80036; stroke-width: 1.0;"/><polygon fill="#A80036" points="760.42,227.99,759.7674,220.8085,752.8874,218.6487,753.5399,225.8302,760.42,227.99" style="stroke: #A80036; stroke-width: 1.0;"/><polygon fill="#A80036" points="316.704,290.38,324.3599,284.1842,318.9782,285.9271,317.2353,280.5455,316.704,290.38" style="stroke: #A80036; stroke-width: 1.0;"/><line style="stroke: #A80036; stroke-width: 1.0;" x1="318.9782" x2="322.611" y1="285.9271" y2="278.8"/><text fill="#000000" font-family="sans-serif" font-size="13" lengthAdjust="spacingAndGlyphs" textLength="60" x="535" y="152.4951">references</text><text fill="#000000" font-family="sans-serif" font-size="13" lengthAdjust="spacingAndGlyphs" textLength="7" x="311.55" y="279.6894">1</text><text fill="#000000" font-family="sans-serif" font-size="13" lengthAdjust="spacingAndGlyphs" textLength="7" x="748.8707" y="217.1047">1</text><!--link CalypsoSmCommands to PsoVerifySignatureCmdBuild--><path d="M706.762,398.316 C704.848,399.252 702.926,400.148 701,401 C624.026,435.063 594.127,405.213 514,431 C482.032,441.288 448.329,457.866 421.783,472.416 " fill="none" id="CalypsoSmCommands-PsoVerifySignatureCmdBuild" style="stroke: #A80036; stroke-width: 1.0;"/><polygon fill="#A80036" points="410.121,478.928,419.929,478.0321,414.4864,476.4901,416.0284,471.0475,410.121,478.928" style="stroke: #A80036; stroke-width: 1.0;"/><line style="stroke: #A80036; stroke-width: 1.0;" x1="414.4864" x2="421.4715" y1="476.4901" y2="472.5895"/><polygon fill="#A80036" points="718.413,392.111,711.2369,391.4011,707.8216,397.7522,714.9977,398.462,718.413,392.111" style="stroke: #A80036; stroke-width: 1.0;"/><text fill="#000000" font-family="sans-serif" font-size="13" lengthAdjust="spacingAndGlyphs" textLength="60" x="515" y="445.4951">references</text><text fill="#000000" font-family="sans-serif" font-size="13" lengthAdjust="spacingAndGlyphs" textLength="7" x="703.4133" y="395.6239">1</text><text fill="#000000" font-family="sans-serif" font-size="13" lengthAdjust="spacingAndGlyphs" textLength="7" x="411.9926" y="468.2497">1</text><!--link CalypsoSmCommands to SelectDiversifierCmdBuild--><path d="M708.021,395.715 C705.664,397.501 703.321,399.265 701,401 C603.237,474.083 484.949,554.852 421.495,597.582 " fill="none" id="CalypsoSmCommands-SelectDiversifierCmdBuild" style="stroke: #A80036; stroke-width: 1.0;"/><polygon fill="#A80036" points="410.675,604.858,420.3756,603.1555,414.8242,602.068,415.9116,596.5167,410.675,604.858" style="stroke: #A80036; stroke-width: 1.0;"/><line style="stroke: #A80036; stroke-width: 1.0;" x1="414.8242" x2="421.463" y1="602.068" y2="597.604"/><polygon fill="#A80036" points="718.423,387.766,711.2269,388.2309,708.8883,395.0522,716.0844,394.5874,718.423,387.766" style="stroke: #A80036; stroke-width: 1.0;"/><text fill="#000000" font-family="sans-serif" font-size="13" lengthAdjust="spacingAndGlyphs" textLength="60" x="595" y="508.4951">references</text><text fill="#000000" font-family="sans-serif" font-size="13" lengthAdjust="spacingAndGlyphs" textLength="7" x="703.4242" y="408.2805">1</text><text fill="#000000" font-family="sans-serif" font-size="13" lengthAdjust="spacingAndGlyphs" textLength="7" x="411.6636" y="594.1618">1</text><!--link CalypsoSmCommands to DigestInitCmdBuild--><path d="M750.537,412.186 C726.083,449.818 695.862,492.173 664,527 C593.014,604.592 562.438,610.461 481,677 C461.829,692.664 440.499,710.041 422.733,724.501 " fill="none" id="CalypsoSmCommands-DigestInitCmdBuild" style="stroke: #A80036; stroke-width: 1.0;"/><polygon fill="#A80036" points="412.457,732.863,421.9623,730.2845,416.335,729.7069,416.9126,724.0796,412.457,732.863" style="stroke: #A80036; stroke-width: 1.0;"/><line style="stroke: #A80036; stroke-width: 1.0;" x1="416.335" x2="422.54" y1="729.7069" y2="724.658"/><polygon fill="#A80036" points="757.605,401.191,750.9956,404.0747,751.1154,411.2848,757.7248,408.4011,757.605,401.191" style="stroke: #A80036; stroke-width: 1.0;"/><text fill="#000000" font-family="sans-serif" font-size="13" lengthAdjust="spacingAndGlyphs" textLength="60" x="635" y="571.4951">references</text><text fill="#000000" font-family="sans-serif" font-size="13" lengthAdjust="spacingAndGlyphs" textLength="7" x="746.4787" y="421.9676">1</text><text fill="#000000" font-family="sans-serif" font-size="13" lengthAdjust="spacingAndGlyphs" textLength="7" x="411.8522" y="722.1681">1</text><!--link CalypsoSmCommands to DigestUpdateCmdBuild--><path d="M788.324,414.206 C784.163,442.441 781,473.333 781,502 C781,502 781,502 781,758 C781,820.634 597.925,855.458 481.048,871.308 " fill="none" id="CalypsoSmCommands-DigestUpdateCmdBuild" style="stroke: #A80036; stroke-width: 1.0;"/><polygon fill="#A80036" points="467.844,873.056,477.2913,875.8395,472.8007,872.3994,476.2408,867.9087,467.844,873.056" style="stroke: #A80036; stroke-width: 1.0;"/><line style="stroke: #A80036; stroke-width: 1.0;" x1="472.8007" x2="480.7315" y1="872.3994" y2="871.3495"/><polygon fill="#A80036" points="790.368,401.01,785.4972,406.3274,788.5322,412.8687,793.403,407.5513,790.368,401.01" style="stroke: #A80036; stroke-width: 1.0;"/><text fill="#000000" font-family="sans-serif" font-size="13" lengthAdjust="spacingAndGlyphs" textLength="60" x="782" y="634.4951">references</text><text fill="#000000" font-family="sans-serif" font-size="13" lengthAdjust="spacingAndGlyphs" textLength="7" x="781.684" y="422.0694">1</text><text fill="#000000" font-family="sans-serif" font-size="13" lengthAdjust="spacingAndGlyphs" textLength="7" x="475.445" y="868.9686">1</text><!--link CalypsoSmCommands to SelectDiversifierRespPars--><path d="M910.957,314.5 C933.895,314.5 958.205,314.5 981.1,314.5 " fill="none" id="CalypsoSmCommands-SelectDiversifierRespPars" style="stroke: #A80036; stroke-width: 1.0;"/><polygon fill="#A80036" points="994.396,314.5,985.396,310.5,989.396,314.5,985.396,318.5,994.396,314.5" style="stroke: #A80036; stroke-width: 1.0;"/><line style="stroke: #A80036; stroke-width: 1.0;" x1="989.396" x2="981.396" y1="314.5" y2="314.5"/><polygon fill="#A80036" points="897.665,314.5,903.665,318.5,909.665,314.5,903.665,310.5,897.665,314.5" style="stroke: #A80036; stroke-width: 1.0;"/><text fill="#000000" font-family="sans-serif" font-size="13" lengthAdjust="spacingAndGlyphs" textLength="60" x="916" y="307.9951">references</text><text fill="#000000" font-family="sans-serif" font-size="13" lengthAdjust="spacingAndGlyphs" textLength="7" x="905.3802" y="311.3669">1</text><text fill="#000000" font-family="sans-serif" font-size="13" lengthAdjust="spacingAndGlyphs" textLength="7" x="979.4808" y="311.3227">1</text><!--link CalypsoSmCommands to GetChallengeRespPars--><path d="M908.315,384.792 C951.491,414.615 999.743,447.945 1033.72,471.416 " fill="none" id="CalypsoSmCommands-GetChallengeRespPars" style="stroke: #A80036; stroke-width: 1.0;"/><polygon fill="#A80036" points="1044.67,478.978,1039.5365,470.5728,1040.5554,476.1372,1034.9911,477.1561,1044.67,478.978" style="stroke: #A80036; stroke-width: 1.0;"/><line style="stroke: #A80036; stroke-width: 1.0;" x1="1040.5554" x2="1033.975" y1="476.1372" y2="471.59"/><polygon fill="#A80036" points="897.531,377.343,900.1946,384.0441,907.4047,384.1628,904.7411,377.4617,897.531,377.343" style="stroke: #A80036; stroke-width: 1.0;"/><text fill="#000000" font-family="sans-serif" font-size="13" lengthAdjust="spacingAndGlyphs" textLength="60" x="1000" y="445.4951">references</text><text fill="#000000" font-family="sans-serif" font-size="13" lengthAdjust="spacingAndGlyphs" textLength="7" x="905.5259" y="379.5835">1</text><text fill="#000000" font-family="sans-serif" font-size="13" lengthAdjust="spacingAndGlyphs" textLength="7" x="1028.2323" y="468.3125">1</text><!--link CsmRevision to AbstractCsmCommandBuilder--><path d="M145.625,1041 C157.232,1041 168.838,1041 180.445,1041 " fill="none" id="CsmRevision-AbstractCsmCommandBuilder" style="stroke: #A80036; stroke-width: 1.0;"/><text fill="#000000" font-family="sans-serif" font-size="13" lengthAdjust="spacingAndGlyphs" textLength="15" x="153.4566" y="1037.5137">+1</text><text fill="#000000" font-family="sans-serif" font-size="13" lengthAdjust="spacingAndGlyphs" textLength="20" x="153.5556" y="1038.1572">1..*</text><!--link PsoComputeSignatureCmdBuild to AbstractCsmCommandBuilder--><path d="M284.818,338.67 C234.59,396.259 113.235,552.132 124,703 C131.798,812.277 109.056,849.492 159,947 C168.411,965.374 182.183,980.156 198.474,992.042 " fill="none" id="PsoComputeSignatureCmdBuild-AbstractCsmCommandBuilder" style="stroke: #A80036; stroke-width: 1.0;"/><polygon fill="none" points="202.484,986.298,215.537,1002.989,194.924,998.081,202.484,986.298" style="stroke: #A80036; stroke-width: 1.0;"/><text fill="#000000" font-family="sans-serif" font-size="13" lengthAdjust="spacingAndGlyphs" textLength="46" x="125" y="699.4951">extends</text><!--link PsoVerifySignatureCmdBuild to AbstractCsmCommandBuilder--><path d="M346.897,527.332 C325.754,547.338 295.039,577.243 270,605 C221.09,659.22 191.268,664.131 167,733 C159.91,753.121 165.157,759.746 167,781 C174.57,868.318 143.708,918.063 212,973 C221.543,980.677 232.026,987.503 243.018,993.569 " fill="none" id="PsoVerifySignatureCmdBuild-AbstractCsmCommandBuilder" style="stroke: #A80036; stroke-width: 1.0;"/><polygon fill="none" points="246.572,987.522,261.277,1002.779,240.268,1000.022,246.572,987.522" style="stroke: #A80036; stroke-width: 1.0;"/><text fill="#000000" font-family="sans-serif" font-size="13" lengthAdjust="spacingAndGlyphs" textLength="46" x="168" y="762.4951">extends</text><!--link SelectDiversifierCmdBuild to AbstractCsmCommandBuilder--><path d="M342.472,653.187 C301.479,683.812 234.202,742.008 207,811 C204.066,818.442 206.662,821.007 207,829 C209.767,894.408 185.392,934.035 238,973 C248.365,980.677 259.733,987.626 271.505,993.881 " fill="none" id="SelectDiversifierCmdBuild-AbstractCsmCommandBuilder" style="stroke: #A80036; stroke-width: 1.0;"/><polygon fill="none" points="274.79,987.696,289.605,1002.846,268.576,1000.242,274.79,987.696" style="stroke: #A80036; stroke-width: 1.0;"/><text fill="#000000" font-family="sans-serif" font-size="13" lengthAdjust="spacingAndGlyphs" textLength="46" x="208" y="825.4951">extends</text><!--link DigestInitCmdBuild to AbstractCsmCommandBuilder--><path d="M327.722,781.055 C295.421,797.567 257.672,823.239 239,859 C220.898,893.67 219.269,913.23 239,947 C249.56,965.073 265.07,979.909 282.416,991.999 " fill="none" id="DigestInitCmdBuild-AbstractCsmCommandBuilder" style="stroke: #A80036; stroke-width: 1.0;"/><polygon fill="none" points="286.316,986.182,299.507,1002.765,278.854,998.028,286.316,986.182" style="stroke: #A80036; stroke-width: 1.0;"/><text fill="#000000" font-family="sans-serif" font-size="13" lengthAdjust="spacingAndGlyphs" textLength="46" x="240" y="888.4951">extends</text><!--link DigestUpdateCmdBuild to AbstractCsmCommandBuilder--><path d="M388.656,907.018 C390.955,926.947 394.379,956.62 397.409,982.882 " fill="none" id="DigestUpdateCmdBuild-AbstractCsmCommandBuilder" style="stroke: #A80036; stroke-width: 1.0;"/><polygon fill="none" points="404.388,982.292,399.726,1002.962,390.48,983.896,404.388,982.292" style="stroke: #A80036; stroke-width: 1.0;"/><text fill="#000000" font-family="sans-serif" font-size="13" lengthAdjust="spacingAndGlyphs" textLength="46" x="398" y="969.4951">extends</text><!--link org.eclipse.keyple.calypso.command.csm.builder to AbstractCsmCommandBuilder--><!--link AbstractCsmCommandBuilder to AbstractApduCommandBuilder--><path d="M379.893,1079.157 C361.485,1107.532 335.415,1147.715 312.196,1183.506 " fill="none" id="AbstractCsmCommandBuilder-AbstractApduCommandBuilder" style="stroke: #A80036; stroke-width: 1.0;"/><polygon fill="none" points="317.829,1187.683,301.072,1200.652,306.084,1180.064,317.829,1187.683" style="stroke: #A80036; stroke-width: 1.0;"/><text fill="#000000" font-family="sans-serif" font-size="13" lengthAdjust="spacingAndGlyphs" textLength="46" x="359" y="1125.4951">extends</text><!--link SelectDiversifierRespPars to AbstractApduResponseParser--><path d="M1145.77,338.58 C1209.54,366.57 1299,420.376 1299,502 C1299,502 1299,502 1299,1042 C1299,1089.396 1286.08,1140.514 1272.12,1181.885 " fill="none" id="SelectDiversifierRespPars-AbstractApduResponseParser" style="stroke: #A80036; stroke-width: 1.0;"/><polygon fill="none" points="1278.72,1184.223,1265.47,1200.754,1265.52,1179.565,1278.72,1184.223" style="stroke: #A80036; stroke-width: 1.0;"/><text fill="#000000" font-family="sans-serif" font-size="13" lengthAdjust="spacingAndGlyphs" textLength="46" x="1300" y="762.4951">extends</text><!--link GetChallengeRespPars to AbstractApduResponseParser--><path d="M1129.8,527.058 C1167.15,547.596 1211,581.593 1211,628 C1211,628 1211,628 1211,1042 C1211,1088.079 1216.73,1139.118 1222.9,1180.775 " fill="none" id="GetChallengeRespPars-AbstractApduResponseParser" style="stroke: #A80036; stroke-width: 1.0;"/><polygon fill="none" points="1229.85,1179.876,1226,1200.713,1216.01,1182.024,1229.85,1179.876" style="stroke: #A80036; stroke-width: 1.0;"/><text fill="#000000" font-family="sans-serif" font-size="13" lengthAdjust="spacingAndGlyphs" textLength="46" x="1212" y="825.4951">extends</text><!--link DigestUpdateRespPars to AbstractApduResponseParser--><path d="M1081.01,653.097 C1086.02,678.271 1093,719.8 1093,756 C1093,756 1093,756 1093,1042 C1093,1095.168 1122.24,1145.652 1154.45,1185.143 " fill="none" id="DigestUpdateRespPars-AbstractApduResponseParser" style="stroke: #A80036; stroke-width: 1.0;"/><polygon fill="none" points="1159.94,1180.793,1167.62,1200.542,1149.3,1189.893,1159.94,1180.793" style="stroke: #A80036; stroke-width: 1.0;"/><text fill="#000000" font-family="sans-serif" font-size="13" lengthAdjust="spacingAndGlyphs" textLength="46" x="1094" y="888.4951">extends</text><!--
@startuml

package org.eclipse.keyple.command #FFFFFF {

abstract AbstractApduCommandBuilder {
  -CommandsTable commandReference
  -ApduRequest apduRequest
  +AbstractApduCommandBuilder(CommandsTable reference, ApduRequest request)
  +String getName()
  +ApduRequest getApduRequest()
  +Class<? extends AbstractApduResponseParser> getApduResponseParserClass()
}

abstract AbstractApduResponseParser {
  -ApduResponse apduResponse
  +AbstractApduResponseParser(ApduResponse responseToParse)
  +ApduResponse getApduResponse()
  +short getStatusCode()
  +boolean isSuccessful()
  +String getStatusInformation()
}

interface CommandsTable {
  +String getName()
  +byte getInstructionByte()
  +Class<? extends AbstractApduCommandBuilder> getCommandBuilderClass()
  +Class<? extends AbstractApduResponseParser> getResponseParserClass()
}

CommandsTable "1" *-left-> "*" AbstractApduCommandBuilder : references
CommandsTable "1" *-right-> "*" AbstractApduResponseParser : references
}
package org.eclipse.keyple.calypso.command.csm #FFFFFF {

interface CsmSendableInSession

package org.eclipse.keyple.calypso.command.csm.builder #FFFFFF {

class PsoComputeSignatureCmdBuild
class PsoVerifySignatureCmdBuild
class SelectDiversifierCmdBuild
class DigestInitCmdBuild
class DigestUpdateCmdBuild

PsoComputeSignatureCmdBuild -down[hidden]- PsoVerifySignatureCmdBuild
PsoVerifySignatureCmdBuild -down[hidden]- SelectDiversifierCmdBuild
SelectDiversifierCmdBuild -down[hidden]- DigestInitCmdBuild
DigestInitCmdBuild -down[hidden]- DigestUpdateCmdBuild

PsoComputeSignatureCmdBuild .left.|> CsmSendableInSession : implements
PsoVerifySignatureCmdBuild .left.|> CsmSendableInSession : implements
}

enum CalypsoSmCommands {
  CSM_PSO_COMPUTE_SIGNATURE
  CSM_PSO_VERIFY_SIGNATURE
  CSM_SELECT_DIVERSIFIER
  CSM_GET_CHALLENGE
  CSM_DIGEST_INIT
  CSM_DIGEST_UPDATE
  CSM_DIGEST_UPDATE_MULTIPLE
  CSM_DIGEST_CLOSE
  CSM_DIGEST_AUTHENTICATE
}

package org.eclipse.keyple.calypso.command.csm.parser #FFFFFF {
class SelectDiversifierRespPars
class GetChallengeRespPars
class DigestUpdateRespPars

SelectDiversifierRespPars -down[hidden]- GetChallengeRespPars
GetChallengeRespPars -down[hidden]- DigestUpdateRespPars
}

CalypsoSmCommands "1" *-left-> "1" PsoComputeSignatureCmdBuild : references
CalypsoSmCommands "1" *- -> "1" PsoVerifySignatureCmdBuild : references
CalypsoSmCommands "1" *- -> "1" SelectDiversifierCmdBuild : references
CalypsoSmCommands "1" *- -> "1" DigestInitCmdBuild : references
CalypsoSmCommands "1" *- -> "1" DigestUpdateCmdBuild : references

CalypsoSmCommands "1" *-right-> "1" SelectDiversifierRespPars : references
CalypsoSmCommands "1" *- -> "1" GetChallengeRespPars : references


abstract AbstractCsmCommandBuilder {
  #CsmRevision defaultRevision = CsmRevision.C1
  +AbstractCsmCommandBuilder(CalypsoSmCommands reference, ApduRequest request)
}

enum CsmRevision {
  C1
  S1D
}

CsmRevision "+1" -right- "1..*" AbstractCsmCommandBuilder

PsoComputeSignatureCmdBuild - -|> AbstractCsmCommandBuilder : extends
PsoVerifySignatureCmdBuild - -|> AbstractCsmCommandBuilder : extends
SelectDiversifierCmdBuild - -|> AbstractCsmCommandBuilder : extends
DigestInitCmdBuild - -|> AbstractCsmCommandBuilder : extends
DigestUpdateCmdBuild - -|> AbstractCsmCommandBuilder : extends

org.eclipse.keyple.calypso.command.csm.builder -down[hidden]- AbstractCsmCommandBuilder
}

AbstractCsmCommandBuilder -down-|> AbstractApduCommandBuilder : extends

SelectDiversifierRespPars- -|> AbstractApduResponseParser : extends
GetChallengeRespPars - -|> AbstractApduResponseParser : extends
DigestUpdateRespPars -down-|> AbstractApduResponseParser : extends
@enduml

PlantUML version 1.2018.01(Sun Jan 28 22:08:22 MUT 2018)
(APACHE source distribution)
Java Runtime: Java(TM) SE Runtime Environment
JVM: Java HotSpot(TM) 64-Bit Server VM
Java Version: 10.0.1+10
Operating System: Windows 10
OS Version: 10.0
Default Encoding: Cp1252
Language: fr
Country: FR
--></g></svg>