<?xml version="1.0" encoding="UTF-8" standalone="no"?><svg xmlns="http://www.w3.org/2000/svg" xmlns:xlink="http://www.w3.org/1999/xlink" contentScriptType="application/ecmascript" contentStyleType="text/css" height="431px" preserveAspectRatio="none" style="width:350px;height:431px;" version="1.1" viewBox="0 0 350 431" width="350px" zoomAndPan="magnify"><defs><filter height="300%" id="f1kg9gh2fsyyit" width="300%" x="-1" y="-1"><feGaussianBlur result="blurOut" stdDeviation="2.0"/><feColorMatrix in="blurOut" result="blurOut2" type="matrix" values="0 0 0 0 0 0 0 0 0 0 0 0 0 0 0 0 0 0 .4 0"/><feOffset dx="4.0" dy="4.0" in="blurOut2" result="blurOut3"/><feBlend in="SourceGraphic" in2="blurOut3" mode="normal"/></filter></defs><g><!--cluster SS--><rect fill="#FEFECE" filter="url(#f1kg9gh2fsyyit)" height="228" rx="12.5" ry="12.5" style="stroke: #A80036; stroke-width: 1.5;" width="200" x="30" y="192"/><rect fill="#FFFFFF" height="194.3906" rx="12.5" ry="12.5" style="stroke: #FFFFFF; stroke-width: 1.0;" width="194" x="33" y="222.6094"/><line style="stroke: #A80036; stroke-width: 1.5;" x1="30" x2="230" y1="219.6094" y2="219.6094"/><text fill="#000000" font-family="sans-serif" font-size="14" lengthAdjust="spacingAndGlyphs" textLength="18" x="121" y="210.5332">SS</text><rect fill="#FEFECE" filter="url(#f1kg9gh2fsyyit)" height="50" rx="12.5" ry="12.5" style="stroke: #A80036; stroke-width: 1.5;" width="77" x="128.5" y="236"/><line style="stroke: #A80036; stroke-width: 1.5;" x1="128.5" x2="205.5" y1="263.6094" y2="263.6094"/><text fill="#000000" font-family="sans-serif" font-size="14" lengthAdjust="spacingAndGlyphs" textLength="57" x="138.5" y="255.5332">Initialized</text><ellipse cx="83" cy="261" fill="#000000" filter="url(#f1kg9gh2fsyyit)" rx="10" ry="10" style="stroke: none; stroke-width: 1.0;"/><rect fill="#FEFECE" filter="url(#f1kg9gh2fsyyit)" height="50" rx="12.5" ry="12.5" style="stroke: #A80036; stroke-width: 1.5;" width="55" x="150.5" y="346"/><line style="stroke: #A80036; stroke-width: 1.5;" x1="150.5" x2="205.5" y1="373.6094" y2="373.6094"/><text fill="#000000" font-family="sans-serif" font-size="14" lengthAdjust="spacingAndGlyphs" textLength="35" x="160.5" y="365.5332">Open</text><rect fill="#FEFECE" filter="url(#f1kg9gh2fsyyit)" height="50" rx="12.5" ry="12.5" style="stroke: #A80036; stroke-width: 1.5;" width="118" x="220" y="8"/><line style="stroke: #A80036; stroke-width: 1.5;" x1="220" x2="338" y1="35.6094" y2="35.6094"/><text fill="#000000" font-family="sans-serif" font-size="14" lengthAdjust="spacingAndGlyphs" textLength="98" x="230" y="27.5332">No selected PO</text><ellipse cx="175" cy="33" fill="#000000" filter="url(#f1kg9gh2fsyyit)" rx="10" ry="10" style="stroke: none; stroke-width: 1.0;"/><rect fill="#FEFECE" filter="url(#f1kg9gh2fsyyit)" height="50" rx="12.5" ry="12.5" style="stroke: #A80036; stroke-width: 1.5;" width="97" x="179.5" y="118"/><line style="stroke: #A80036; stroke-width: 1.5;" x1="179.5" x2="276.5" y1="145.6094" y2="145.6094"/><text fill="#000000" font-family="sans-serif" font-size="14" lengthAdjust="spacingAndGlyphs" textLength="77" x="189.5" y="137.5332">PO selected</text><!--link *start to NS--><path d="M185.156,33 C195.041,33 204.927,33 214.812,33 " fill="none" id="*start-NS" style="stroke: #A80036; stroke-width: 1.0;"/><polygon fill="#A80036" points="219.981,33,210.981,29,214.981,33,210.981,37,219.981,33" style="stroke: #A80036; stroke-width: 1.0;"/><!--link NS to PS--><path d="M267.555,58.237 C259.877,74.495 249.728,95.988 241.632,113.132 " fill="none" id="NS-PS" style="stroke: #A80036; stroke-width: 1.0;"/><polygon fill="#A80036" points="239.407,117.844,246.8677,111.4146,241.5425,113.323,239.6341,107.9978,239.407,117.844" style="stroke: #A80036; stroke-width: 1.0;"/><!--link PS to SS--><path d="M179.142,147.238 C134.908,151.19 74.1303,159.5 57,176 C53.6617,179.2155 50.8534,182.884 48.4955,186.8486 C47.906,187.8398 47.3447,188.8495 46.8103,189.8752 C46.5431,190.3881 46.2826,190.9049 46.0287,191.4255 C45.9652,191.5557 45.9022,191.686 45.8395,191.8166 " fill="none" id="PS-SS" style="stroke: #A80036; stroke-width: 1.0;"/><polygon fill="#A80036" points="45.8395,191.8166,53.3388,185.4322,48.0022,187.3086,46.1258,181.9719,45.8395,191.8166" style="stroke: #A80036; stroke-width: 1.0;"/><!--link *start*SS to SI--><path d="M93.1719,261 C103.1589,261 113.146,261 123.133,261 " fill="none" id="*start*SS-SI" style="stroke: #A80036; stroke-width: 1.0;"/><polygon fill="#A80036" points="128.356,261,119.356,257,123.356,261,119.356,265,128.356,261" style="stroke: #A80036; stroke-width: 1.0;"/><!--link SI to SO--><path d="M169.469,286.237 C171.11,302.357 173.276,323.621 175.015,340.691 " fill="none" id="SI-SO" style="stroke: #A80036; stroke-width: 1.0;"/><polygon fill="#A80036" points="175.54,345.8436,178.6065,336.4843,175.0329,340.8694,170.6478,337.2957,175.54,345.8436" style="stroke: #A80036; stroke-width: 1.0;"/><!--link NS to SO--><path d="M286.942,63.233 C293.237,90.467 300.052,132.145 294,168 C284.76,222.746 281.145,238.143 253,286 C239.819,308.413 220.09,330.21 204.175,345.982 " fill="none" id="NS-SO" style="stroke: #A80036; stroke-width: 1.0;"/><polygon fill="#A80036" points="285.775,58.321,283.9637,68.0019,286.9308,63.1856,291.7471,66.1526,285.775,58.321" style="stroke: #A80036; stroke-width: 1.0;"/><!--link PS to SO--><path d="M230.787,173.347 C232.67,202.469 233.222,248.108 223,286 C217.183,307.564 204.987,329.744 194.757,345.8941 " fill="none" id="PS-SO" style="stroke: #A80036; stroke-width: 1.0;"/><polygon fill="#A80036" points="230.422,168.108,227.0566,177.364,230.7692,173.0959,235.0373,176.8085,230.422,168.108" style="stroke: #A80036; stroke-width: 1.0;"/><!--
@startuml

state "No selected PO" as NS
[*] -> NS
state "PO selected" as PS
NS - -> PS
state "PO Secure Session" as SS
PS -down-> SS

state SS {
state "Initialized" as SI
[*] -> SI
state "Open" as SO
SI - -> SO

SO -up-> NS
SO -up-> PS
}

@enduml

PlantUML version 1.2018.01(Sun Jan 28 22:08:22 MUT 2018)
(APACHE source distribution)
Java Runtime: Java(TM) SE Runtime Environment
JVM: Java HotSpot(TM) 64-Bit Server VM
Java Version: 10.0.1+10
Operating System: Windows 10
OS Version: 10.0
Default Encoding: Cp1252
Language: fr
Country: FR
--></g></svg>