<?xml version="1.0" encoding="UTF-8" standalone="no"?><svg xmlns="http://www.w3.org/2000/svg" xmlns:xlink="http://www.w3.org/1999/xlink" contentScriptType="application/ecmascript" contentStyleType="text/css" height="1026px" preserveAspectRatio="none" style="width:1204px;height:1026px;" version="1.1" viewBox="0 0 1204 1026" width="1204px" zoomAndPan="magnify"><defs><filter height="300%" id="f1jxmr0sectbdk" width="300%" x="-1" y="-1"><feGaussianBlur result="blurOut" stdDeviation="2.0"/><feColorMatrix in="blurOut" result="blurOut2" type="matrix" values="0 0 0 0 0 0 0 0 0 0 0 0 0 0 0 0 0 0 .4 0"/><feOffset dx="4.0" dy="4.0" in="blurOut2" result="blurOut3"/><feBlend in="SourceGraphic" in2="blurOut3" mode="normal"/></filter></defs><g><ellipse cx="500" cy="20" fill="#000000" filter="url(#f1jxmr0sectbdk)" rx="10" ry="10" style="stroke: none; stroke-width: 1.0;"/><path d="M419,50 L414,75.0938 L419,100.1875 M581,50 L586,75.0938 L581,100.1875 " fill="#FEFECE" filter="url(#f1jxmr0sectbdk)" style="stroke: #A80036; stroke-width: 1.5;"/><text fill="#000000" font-family="sans-serif" font-size="12" lengthAdjust="spacingAndGlyphs" textLength="127" x="424" y="72.457">PO status: not selected</text><text fill="#000000" font-family="sans-serif" font-size="12" lengthAdjust="spacingAndGlyphs" textLength="149" x="424" y="87.5508">Messages: PO [0] - CSM [0]</text><rect fill="#FEFECE" filter="url(#f1jxmr0sectbdk)" height="35.0938" rx="12.5" ry="12.5" style="stroke: #A80036; stroke-width: 1.5;" width="76" x="462" y="109.0508"/><text fill="#000000" font-family="sans-serif" font-size="12" font-weight="bold" lengthAdjust="spacingAndGlyphs" textLength="56" x="472" y="131.5078">Select PO</text><path d="M419,164.1445 L414,189.2383 L419,214.332 M581,164.1445 L586,189.2383 L581,214.332 " fill="#FEFECE" filter="url(#f1jxmr0sectbdk)" style="stroke: #A80036; stroke-width: 1.5;"/><text fill="#000000" font-family="sans-serif" font-size="12" lengthAdjust="spacingAndGlyphs" textLength="107" x="424" y="186.6016">PO status: selected</text><text fill="#000000" font-family="sans-serif" font-size="12" lengthAdjust="spacingAndGlyphs" textLength="149" x="424" y="201.6953">Messages: PO [1] - CSM [0]</text><rect fill="#FEFECE" filter="url(#f1jxmr0sectbdk)" height="50.1875" rx="12.5" ry="12.5" style="stroke: #A80036; stroke-width: 1.5;" width="144" x="428" y="223.1953"/><text fill="#000000" font-family="sans-serif" font-size="12" font-weight="bold" lengthAdjust="spacingAndGlyphs" textLength="124" x="438" y="245.6523">Process Identification</text><text fill="#000000" font-family="sans-serif" font-size="12" lengthAdjust="spacingAndGlyphs" textLength="42" x="438" y="260.7461">(step 1)</text><path d="M415.5,293.3828 L410.5,318.4766 L415.5,343.5703 M584.5,293.3828 L589.5,318.4766 L584.5,343.5703 " fill="#FEFECE" filter="url(#f1jxmr0sectbdk)" style="stroke: #A80036; stroke-width: 1.5;"/><text fill="#000000" font-family="sans-serif" font-size="12" lengthAdjust="spacingAndGlyphs" textLength="159" x="420.5" y="315.8398">PO status: session initialized</text><text fill="#000000" font-family="sans-serif" font-size="12" lengthAdjust="spacingAndGlyphs" textLength="149" x="420.5" y="330.9336">Messages: PO [1] - CSM [1]</text><polygon fill="#FEFECE" filter="url(#f1jxmr0sectbdk)" points="441.5,352.4336,558.5,352.4336,570.5,366.2695,558.5,380.1055,441.5,380.1055,429.5,366.2695,441.5,352.4336" style="stroke: #A80036; stroke-width: 1.5;"/><text fill="#000000" font-family="sans-serif" font-size="11" lengthAdjust="spacingAndGlyphs" textLength="117" x="441.5" y="363.8525">additional PO commands</text><text fill="#000000" font-family="sans-serif" font-size="11" lengthAdjust="spacingAndGlyphs" textLength="93" x="441.5" y="377.6885">inside the session?</text><text fill="#000000" font-family="sans-serif" font-size="11" lengthAdjust="spacingAndGlyphs" textLength="12" x="417.5" y="363.8525">no</text><text fill="#000000" font-family="sans-serif" font-size="11" lengthAdjust="spacingAndGlyphs" textLength="18" x="570.5" y="363.8525">yes</text><rect fill="#FEFECE" filter="url(#f1jxmr0sectbdk)" height="50.1875" rx="12.5" ry="12.5" style="stroke: #A80036; stroke-width: 1.5;" width="175" x="104.5" y="390.1055"/><text fill="#000000" font-family="sans-serif" font-size="12" font-weight="bold" lengthAdjust="spacingAndGlyphs" textLength="155" x="114.5" y="412.5625">Process Opening &amp; Closing</text><text fill="#000000" font-family="sans-serif" font-size="12" lengthAdjust="spacingAndGlyphs" textLength="42" x="114.5" y="427.6563">(step 2)</text><polygon fill="#FEFECE" filter="url(#f1jxmr0sectbdk)" points="127.5,460.293,256.5,460.293,268.5,472.293,256.5,484.293,127.5,484.293,115.5,472.293,127.5,460.293" style="stroke: #A80036; stroke-width: 1.5;"/><text fill="#000000" font-family="sans-serif" font-size="11" lengthAdjust="spacingAndGlyphs" textLength="129" x="127.5" y="476.7939">PO logical channel closed?</text><text fill="#000000" font-family="sans-serif" font-size="11" lengthAdjust="spacingAndGlyphs" textLength="12" x="103.5" y="469.876">no</text><text fill="#000000" font-family="sans-serif" font-size="11" lengthAdjust="spacingAndGlyphs" textLength="18" x="268.5" y="469.876">yes</text><path d="M15,494.293 L10,519.3867 L15,544.4805 M177,494.293 L182,519.3867 L177,544.4805 " fill="#FEFECE" filter="url(#f1jxmr0sectbdk)" style="stroke: #A80036; stroke-width: 1.5;"/><text fill="#000000" font-family="sans-serif" font-size="12" lengthAdjust="spacingAndGlyphs" textLength="107" x="20" y="516.75">PO status: selected</text><text fill="#000000" font-family="sans-serif" font-size="12" lengthAdjust="spacingAndGlyphs" textLength="149" x="20" y="531.8438">Messages: PO [3] - CSM [3]</text><path d="M207,494.293 L202,519.3867 L207,544.4805 M369,494.293 L374,519.3867 L369,544.4805 " fill="#FEFECE" filter="url(#f1jxmr0sectbdk)" style="stroke: #A80036; stroke-width: 1.5;"/><text fill="#000000" font-family="sans-serif" font-size="12" lengthAdjust="spacingAndGlyphs" textLength="127" x="212" y="516.75">PO status: not selected</text><text fill="#000000" font-family="sans-serif" font-size="12" lengthAdjust="spacingAndGlyphs" textLength="149" x="212" y="531.8438">Messages: PO [3] - CSM [3]</text><polygon fill="#FEFECE" filter="url(#f1jxmr0sectbdk)" points="192,550.4805,204,562.4805,192,574.4805,180,562.4805,192,550.4805" style="stroke: #A80036; stroke-width: 1.5;"/><rect fill="#FEFECE" filter="url(#f1jxmr0sectbdk)" height="50.1875" rx="12.5" ry="12.5" style="stroke: #A80036; stroke-width: 1.5;" width="118" x="749" y="390.1055"/><text fill="#000000" font-family="sans-serif" font-size="12" font-weight="bold" lengthAdjust="spacingAndGlyphs" textLength="98" x="759" y="412.5625">Process Opening</text><text fill="#000000" font-family="sans-serif" font-size="12" lengthAdjust="spacingAndGlyphs" textLength="42" x="759" y="427.6563">(step 2)</text><path d="M727,460.293 L722,485.3867 L727,510.4805 M889,460.293 L894,485.3867 L889,510.4805 " fill="#FEFECE" filter="url(#f1jxmr0sectbdk)" style="stroke: #A80036; stroke-width: 1.5;"/><text fill="#000000" font-family="sans-serif" font-size="12" lengthAdjust="spacingAndGlyphs" textLength="136" x="732" y="482.75">PO status: session open</text><text fill="#000000" font-family="sans-serif" font-size="12" lengthAdjust="spacingAndGlyphs" textLength="149" x="732" y="497.8438">Messages: PO [2] - CSM [2]</text><polygon fill="#FEFECE" filter="url(#f1jxmr0sectbdk)" points="738,545.4805,878,545.4805,890,559.3164,878,573.1523,738,573.1523,726,559.3164,738,545.4805" style="stroke: #A80036; stroke-width: 1.5;"/><text fill="#000000" font-family="sans-serif" font-size="11" lengthAdjust="spacingAndGlyphs" textLength="107" x="738" y="556.8994">anticipated responses</text><text fill="#000000" font-family="sans-serif" font-size="11" lengthAdjust="spacingAndGlyphs" textLength="140" x="738" y="570.7354">for additional PO commands?</text><text fill="#000000" font-family="sans-serif" font-size="11" lengthAdjust="spacingAndGlyphs" textLength="18" x="708" y="556.8994">yes</text><text fill="#000000" font-family="sans-serif" font-size="11" lengthAdjust="spacingAndGlyphs" textLength="12" x="890" y="556.8994">no</text><rect fill="#FEFECE" filter="url(#f1jxmr0sectbdk)" height="50.1875" rx="12.5" ry="12.5" style="stroke: #A80036; stroke-width: 1.5;" width="113" x="549.5" y="583.1523"/><text fill="#000000" font-family="sans-serif" font-size="12" font-weight="bold" lengthAdjust="spacingAndGlyphs" textLength="93" x="559.5" y="605.6094">Process Closing</text><text fill="#000000" font-family="sans-serif" font-size="12" lengthAdjust="spacingAndGlyphs" textLength="42" x="559.5" y="620.7031">(step 3)</text><polygon fill="#FEFECE" filter="url(#f1jxmr0sectbdk)" points="541.5,653.3398,670.5,653.3398,682.5,665.3398,670.5,677.3398,541.5,677.3398,529.5,665.3398,541.5,653.3398" style="stroke: #A80036; stroke-width: 1.5;"/><text fill="#000000" font-family="sans-serif" font-size="11" lengthAdjust="spacingAndGlyphs" textLength="129" x="541.5" y="669.8408">PO logical channel closed?</text><text fill="#000000" font-family="sans-serif" font-size="11" lengthAdjust="spacingAndGlyphs" textLength="12" x="517.5" y="662.9229">no</text><text fill="#000000" font-family="sans-serif" font-size="11" lengthAdjust="spacingAndGlyphs" textLength="18" x="682.5" y="662.9229">yes</text><path d="M429,687.3398 L424,712.4336 L429,737.5273 M591,687.3398 L596,712.4336 L591,737.5273 " fill="#FEFECE" filter="url(#f1jxmr0sectbdk)" style="stroke: #A80036; stroke-width: 1.5;"/><text fill="#000000" font-family="sans-serif" font-size="12" lengthAdjust="spacingAndGlyphs" textLength="107" x="434" y="709.7969">PO status: selected</text><text fill="#000000" font-family="sans-serif" font-size="12" lengthAdjust="spacingAndGlyphs" textLength="149" x="434" y="724.8906">Messages: PO [3] - CSM [4]</text><path d="M621,687.3398 L616,712.4336 L621,737.5273 M783,687.3398 L788,712.4336 L783,737.5273 " fill="#FEFECE" filter="url(#f1jxmr0sectbdk)" style="stroke: #A80036; stroke-width: 1.5;"/><text fill="#000000" font-family="sans-serif" font-size="12" lengthAdjust="spacingAndGlyphs" textLength="127" x="626" y="709.7969">PO status: not selected</text><text fill="#000000" font-family="sans-serif" font-size="12" lengthAdjust="spacingAndGlyphs" textLength="149" x="626" y="724.8906">Messages: PO [3] - CSM [4]</text><polygon fill="#FEFECE" filter="url(#f1jxmr0sectbdk)" points="606,743.5273,618,755.5273,606,767.5273,594,755.5273,606,743.5273" style="stroke: #A80036; stroke-width: 1.5;"/><rect fill="#FEFECE" filter="url(#f1jxmr0sectbdk)" height="50.1875" rx="12.5" ry="12.5" style="stroke: #A80036; stroke-width: 1.5;" width="119" x="950.5" y="583.1523"/><text fill="#000000" font-family="sans-serif" font-size="12" font-weight="bold" lengthAdjust="spacingAndGlyphs" textLength="99" x="960.5" y="605.6094">Process Proceed</text><text fill="#000000" font-family="sans-serif" font-size="12" lengthAdjust="spacingAndGlyphs" textLength="42" x="960.5" y="620.7031">(step 3)</text><path d="M929,653.3398 L924,678.4336 L929,703.5273 M1091,653.3398 L1096,678.4336 L1091,703.5273 " fill="#FEFECE" filter="url(#f1jxmr0sectbdk)" style="stroke: #A80036; stroke-width: 1.5;"/><text fill="#000000" font-family="sans-serif" font-size="12" lengthAdjust="spacingAndGlyphs" textLength="136" x="934" y="675.7969">PO status: session open</text><text fill="#000000" font-family="sans-serif" font-size="12" lengthAdjust="spacingAndGlyphs" textLength="149" x="934" y="690.8906">Messages: PO [3] - CSM [4]</text><rect fill="#FEFECE" filter="url(#f1jxmr0sectbdk)" height="50.1875" rx="12.5" ry="12.5" style="stroke: #A80036; stroke-width: 1.5;" width="113" x="953.5" y="738.5273"/><text fill="#000000" font-family="sans-serif" font-size="12" font-weight="bold" lengthAdjust="spacingAndGlyphs" textLength="93" x="963.5" y="760.9844">Process Closing</text><text fill="#000000" font-family="sans-serif" font-size="12" lengthAdjust="spacingAndGlyphs" textLength="42" x="963.5" y="776.0781">(step 4)</text><polygon fill="#FEFECE" filter="url(#f1jxmr0sectbdk)" points="945.5,808.7148,1074.5,808.7148,1086.5,820.7148,1074.5,832.7148,945.5,832.7148,933.5,820.7148,945.5,808.7148" style="stroke: #A80036; stroke-width: 1.5;"/><text fill="#000000" font-family="sans-serif" font-size="11" lengthAdjust="spacingAndGlyphs" textLength="129" x="945.5" y="825.2158">PO logical channel closed?</text><text fill="#000000" font-family="sans-serif" font-size="11" lengthAdjust="spacingAndGlyphs" textLength="12" x="921.5" y="818.2979">no</text><text fill="#000000" font-family="sans-serif" font-size="11" lengthAdjust="spacingAndGlyphs" textLength="18" x="1086.5" y="818.2979">yes</text><path d="M833,842.7148 L828,867.8086 L833,892.9023 M995,842.7148 L1000,867.8086 L995,892.9023 " fill="#FEFECE" filter="url(#f1jxmr0sectbdk)" style="stroke: #A80036; stroke-width: 1.5;"/><text fill="#000000" font-family="sans-serif" font-size="12" lengthAdjust="spacingAndGlyphs" textLength="107" x="838" y="865.1719">PO status: selected</text><text fill="#000000" font-family="sans-serif" font-size="12" lengthAdjust="spacingAndGlyphs" textLength="149" x="838" y="880.2656">Messages: PO [4] - CSM [5]</text><path d="M1025,842.7148 L1020,867.8086 L1025,892.9023 M1187,842.7148 L1192,867.8086 L1187,892.9023 " fill="#FEFECE" filter="url(#f1jxmr0sectbdk)" style="stroke: #A80036; stroke-width: 1.5;"/><text fill="#000000" font-family="sans-serif" font-size="12" lengthAdjust="spacingAndGlyphs" textLength="127" x="1030" y="865.1719">PO status: not selected</text><text fill="#000000" font-family="sans-serif" font-size="12" lengthAdjust="spacingAndGlyphs" textLength="149" x="1030" y="880.2656">Messages: PO [4] - CSM [5]</text><polygon fill="#FEFECE" filter="url(#f1jxmr0sectbdk)" points="1010,891.7656,1022,903.7656,1010,915.7656,998,903.7656,1010,891.7656" style="stroke: #A80036; stroke-width: 1.5;"/><polygon fill="#FEFECE" filter="url(#f1jxmr0sectbdk)" points="808,921.7656,820,933.7656,808,945.7656,796,933.7656,808,921.7656" style="stroke: #A80036; stroke-width: 1.5;"/><polygon fill="#FEFECE" filter="url(#f1jxmr0sectbdk)" points="500,951.7656,512,963.7656,500,975.7656,488,963.7656,500,951.7656" style="stroke: #A80036; stroke-width: 1.5;"/><ellipse cx="500" cy="1005.7656" fill="none" filter="url(#f1jxmr0sectbdk)" rx="10" ry="10" style="stroke: #000000; stroke-width: 1.0;"/><ellipse cx="500.5" cy="1006.2656" fill="#000000" filter="url(#f1jxmr0sectbdk)" rx="6" ry="6" style="stroke: none; stroke-width: 1.0;"/><line style="stroke: #A80036; stroke-width: 1.5;" x1="500" x2="500" y1="30" y2="50"/><polygon fill="#A80036" points="496,40,500,50,504,40,500,44" style="stroke: #A80036; stroke-width: 1.0;"/><line style="stroke: #A80036; stroke-width: 1.5;" x1="500" x2="500" y1="94.0508" y2="109.0508"/><polygon fill="#A80036" points="496,99.0508,500,109.0508,504,99.0508,500,103.0508" style="stroke: #A80036; stroke-width: 1.0;"/><line style="stroke: #A80036; stroke-width: 1.5;" x1="500" x2="500" y1="144.1445" y2="164.1445"/><polygon fill="#A80036" points="496,154.1445,500,164.1445,504,154.1445,500,158.1445" style="stroke: #A80036; stroke-width: 1.0;"/><line style="stroke: #A80036; stroke-width: 1.5;" x1="500" x2="500" y1="208.1953" y2="223.1953"/><polygon fill="#A80036" points="496,213.1953,500,223.1953,504,213.1953,500,217.1953" style="stroke: #A80036; stroke-width: 1.0;"/><line style="stroke: #A80036; stroke-width: 1.5;" x1="500" x2="500" y1="273.3828" y2="293.3828"/><polygon fill="#A80036" points="496,283.3828,500,293.3828,504,283.3828,500,287.3828" style="stroke: #A80036; stroke-width: 1.0;"/><line style="stroke: #A80036; stroke-width: 1.5;" x1="115.5" x2="96" y1="472.293" y2="472.293"/><line style="stroke: #A80036; stroke-width: 1.5;" x1="96" x2="96" y1="472.293" y2="494.293"/><polygon fill="#A80036" points="92,484.293,96,494.293,100,484.293,96,488.293" style="stroke: #A80036; stroke-width: 1.0;"/><line style="stroke: #A80036; stroke-width: 1.5;" x1="268.5" x2="288" y1="472.293" y2="472.293"/><line style="stroke: #A80036; stroke-width: 1.5;" x1="288" x2="288" y1="472.293" y2="494.293"/><polygon fill="#A80036" points="284,484.293,288,494.293,292,484.293,288,488.293" style="stroke: #A80036; stroke-width: 1.0;"/><line style="stroke: #A80036; stroke-width: 1.5;" x1="96" x2="96" y1="544.4805" y2="562.4805"/><line style="stroke: #A80036; stroke-width: 1.5;" x1="96" x2="180" y1="562.4805" y2="562.4805"/><polygon fill="#A80036" points="170,558.4805,180,562.4805,170,566.4805,174,562.4805" style="stroke: #A80036; stroke-width: 1.0;"/><line style="stroke: #A80036; stroke-width: 1.5;" x1="288" x2="288" y1="544.4805" y2="562.4805"/><line style="stroke: #A80036; stroke-width: 1.5;" x1="288" x2="204" y1="562.4805" y2="562.4805"/><polygon fill="#A80036" points="214,558.4805,204,562.4805,214,566.4805,210,562.4805" style="stroke: #A80036; stroke-width: 1.0;"/><line style="stroke: #A80036; stroke-width: 1.5;" x1="192" x2="192" y1="440.293" y2="460.293"/><polygon fill="#A80036" points="188,450.293,192,460.293,196,450.293,192,454.293" style="stroke: #A80036; stroke-width: 1.0;"/><line style="stroke: #A80036; stroke-width: 1.5;" x1="808" x2="808" y1="440.293" y2="460.293"/><polygon fill="#A80036" points="804,450.293,808,460.293,812,450.293,808,454.293" style="stroke: #A80036; stroke-width: 1.0;"/><line style="stroke: #A80036; stroke-width: 1.5;" x1="529.5" x2="510" y1="665.3398" y2="665.3398"/><line style="stroke: #A80036; stroke-width: 1.5;" x1="510" x2="510" y1="665.3398" y2="687.3398"/><polygon fill="#A80036" points="506,677.3398,510,687.3398,514,677.3398,510,681.3398" style="stroke: #A80036; stroke-width: 1.0;"/><line style="stroke: #A80036; stroke-width: 1.5;" x1="682.5" x2="702" y1="665.3398" y2="665.3398"/><line style="stroke: #A80036; stroke-width: 1.5;" x1="702" x2="702" y1="665.3398" y2="687.3398"/><polygon fill="#A80036" points="698,677.3398,702,687.3398,706,677.3398,702,681.3398" style="stroke: #A80036; stroke-width: 1.0;"/><line style="stroke: #A80036; stroke-width: 1.5;" x1="510" x2="510" y1="737.5273" y2="755.5273"/><line style="stroke: #A80036; stroke-width: 1.5;" x1="510" x2="594" y1="755.5273" y2="755.5273"/><polygon fill="#A80036" points="584,751.5273,594,755.5273,584,759.5273,588,755.5273" style="stroke: #A80036; stroke-width: 1.0;"/><line style="stroke: #A80036; stroke-width: 1.5;" x1="702" x2="702" y1="737.5273" y2="755.5273"/><line style="stroke: #A80036; stroke-width: 1.5;" x1="702" x2="618" y1="755.5273" y2="755.5273"/><polygon fill="#A80036" points="628,751.5273,618,755.5273,628,759.5273,624,755.5273" style="stroke: #A80036; stroke-width: 1.0;"/><line style="stroke: #A80036; stroke-width: 1.5;" x1="606" x2="606" y1="633.3398" y2="653.3398"/><polygon fill="#A80036" points="602,643.3398,606,653.3398,610,643.3398,606,647.3398" style="stroke: #A80036; stroke-width: 1.0;"/><line style="stroke: #A80036; stroke-width: 1.5;" x1="1010" x2="1010" y1="633.3398" y2="653.3398"/><polygon fill="#A80036" points="1006,643.3398,1010,653.3398,1014,643.3398,1010,647.3398" style="stroke: #A80036; stroke-width: 1.0;"/><line style="stroke: #A80036; stroke-width: 1.5;" x1="1010" x2="1010" y1="703.5273" y2="738.5273"/><polygon fill="#A80036" points="1006,728.5273,1010,738.5273,1014,728.5273,1010,732.5273" style="stroke: #A80036; stroke-width: 1.0;"/><line style="stroke: #A80036; stroke-width: 1.5;" x1="933.5" x2="914" y1="820.7148" y2="820.7148"/><line style="stroke: #A80036; stroke-width: 1.5;" x1="914" x2="914" y1="820.7148" y2="842.7148"/><polygon fill="#A80036" points="910,832.7148,914,842.7148,918,832.7148,914,836.7148" style="stroke: #A80036; stroke-width: 1.0;"/><line style="stroke: #A80036; stroke-width: 1.5;" x1="1086.5" x2="1106" y1="820.7148" y2="820.7148"/><line style="stroke: #A80036; stroke-width: 1.5;" x1="1106" x2="1106" y1="820.7148" y2="842.7148"/><polygon fill="#A80036" points="1102,832.7148,1106,842.7148,1110,832.7148,1106,836.7148" style="stroke: #A80036; stroke-width: 1.0;"/><line style="stroke: #A80036; stroke-width: 1.5;" x1="914" x2="914" y1="886.7656" y2="903.7656"/><line style="stroke: #A80036; stroke-width: 1.5;" x1="914" x2="998" y1="903.7656" y2="903.7656"/><polygon fill="#A80036" points="988,899.7656,998,903.7656,988,907.7656,992,903.7656" style="stroke: #A80036; stroke-width: 1.0;"/><line style="stroke: #A80036; stroke-width: 1.5;" x1="1106" x2="1106" y1="886.7656" y2="903.7656"/><line style="stroke: #A80036; stroke-width: 1.5;" x1="1106" x2="1022" y1="903.7656" y2="903.7656"/><polygon fill="#A80036" points="1032,899.7656,1022,903.7656,1032,907.7656,1028,903.7656" style="stroke: #A80036; stroke-width: 1.0;"/><line style="stroke: #A80036; stroke-width: 1.5;" x1="1010" x2="1010" y1="788.7148" y2="808.7148"/><polygon fill="#A80036" points="1006,798.7148,1010,808.7148,1014,798.7148,1010,802.7148" style="stroke: #A80036; stroke-width: 1.0;"/><line style="stroke: #A80036; stroke-width: 1.5;" x1="726" x2="606" y1="559.3164" y2="559.3164"/><line style="stroke: #A80036; stroke-width: 1.5;" x1="606" x2="606" y1="559.3164" y2="583.1523"/><polygon fill="#A80036" points="602,573.1523,606,583.1523,610,573.1523,606,577.1523" style="stroke: #A80036; stroke-width: 1.0;"/><line style="stroke: #A80036; stroke-width: 1.5;" x1="890" x2="1010" y1="559.3164" y2="559.3164"/><line style="stroke: #A80036; stroke-width: 1.5;" x1="1010" x2="1010" y1="559.3164" y2="583.1523"/><polygon fill="#A80036" points="1006,573.1523,1010,583.1523,1014,573.1523,1010,577.1523" style="stroke: #A80036; stroke-width: 1.0;"/><line style="stroke: #A80036; stroke-width: 1.5;" x1="606" x2="606" y1="767.5273" y2="933.7656"/><line style="stroke: #A80036; stroke-width: 1.5;" x1="606" x2="796" y1="933.7656" y2="933.7656"/><polygon fill="#A80036" points="786,929.7656,796,933.7656,786,937.7656,790,933.7656" style="stroke: #A80036; stroke-width: 1.0;"/><line style="stroke: #A80036; stroke-width: 1.5;" x1="1010" x2="1010" y1="915.7656" y2="933.7656"/><line style="stroke: #A80036; stroke-width: 1.5;" x1="1010" x2="820" y1="933.7656" y2="933.7656"/><polygon fill="#A80036" points="830,929.7656,820,933.7656,830,937.7656,826,933.7656" style="stroke: #A80036; stroke-width: 1.0;"/><line style="stroke: #A80036; stroke-width: 1.5;" x1="808" x2="808" y1="510.4805" y2="545.4805"/><polygon fill="#A80036" points="804,535.4805,808,545.4805,812,535.4805,808,539.4805" style="stroke: #A80036; stroke-width: 1.0;"/><line style="stroke: #A80036; stroke-width: 1.5;" x1="429.5" x2="192" y1="366.2695" y2="366.2695"/><line style="stroke: #A80036; stroke-width: 1.5;" x1="192" x2="192" y1="366.2695" y2="390.1055"/><polygon fill="#A80036" points="188,380.1055,192,390.1055,196,380.1055,192,384.1055" style="stroke: #A80036; stroke-width: 1.0;"/><line style="stroke: #A80036; stroke-width: 1.5;" x1="570.5" x2="808" y1="366.2695" y2="366.2695"/><line style="stroke: #A80036; stroke-width: 1.5;" x1="808" x2="808" y1="366.2695" y2="390.1055"/><polygon fill="#A80036" points="804,380.1055,808,390.1055,812,380.1055,808,384.1055" style="stroke: #A80036; stroke-width: 1.0;"/><line style="stroke: #A80036; stroke-width: 1.5;" x1="192" x2="192" y1="574.4805" y2="963.7656"/><line style="stroke: #A80036; stroke-width: 1.5;" x1="192" x2="488" y1="963.7656" y2="963.7656"/><polygon fill="#A80036" points="478,959.7656,488,963.7656,478,967.7656,482,963.7656" style="stroke: #A80036; stroke-width: 1.0;"/><line style="stroke: #A80036; stroke-width: 1.5;" x1="808" x2="808" y1="945.7656" y2="963.7656"/><line style="stroke: #A80036; stroke-width: 1.5;" x1="808" x2="512" y1="963.7656" y2="963.7656"/><polygon fill="#A80036" points="522,959.7656,512,963.7656,522,967.7656,518,963.7656" style="stroke: #A80036; stroke-width: 1.0;"/><line style="stroke: #A80036; stroke-width: 1.5;" x1="500" x2="500" y1="337.4336" y2="352.4336"/><polygon fill="#A80036" points="496,342.4336,500,352.4336,504,342.4336,500,346.4336" style="stroke: #A80036; stroke-width: 1.0;"/><line style="stroke: #A80036; stroke-width: 1.5;" x1="500" x2="500" y1="975.7656" y2="995.7656"/><polygon fill="#A80036" points="496,985.7656,500,995.7656,504,985.7656,500,989.7656" style="stroke: #A80036; stroke-width: 1.0;"/><!--
@startuml
start
:PO status: not selected\nMessages: PO [0] - CSM [0] }
:**Select PO**;
:PO status: selected\nMessages: PO [1] - CSM [0] }
:**Process Identification**
(step 1);
:PO status: session initialized\nMessages: PO [1] - CSM [1] }
if (additional PO commands\ninside the session?) then (no)
  :**Process Opening & Closing**
  (step 2);
  if (PO logical channel closed?) then (no)
    :PO status: selected\nMessages: PO [3] - CSM [3] }
  else (yes)
    :PO status: not selected\nMessages: PO [3] - CSM [3] }
  endif
else (yes)
  :**Process Opening**
  (step 2);
  :PO status: session open\nMessages: PO [2] - CSM [2] }
    if (anticipated responses\nfor additional PO commands?) then (yes)
      :**Process Closing**
	  (step 3);
	  if (PO logical channel closed?) then (no)
        :PO status: selected\nMessages: PO [3] - CSM [4] }
      else (yes)
        :PO status: not selected\nMessages: PO [3] - CSM [4] }
      endif
    else (no)
      :**Process Proceed**
	  (step 3);
      :PO status: session open\nMessages: PO [3] - CSM [4] }
	  :**Process Closing**
	  (step 4);

	  if (PO logical channel closed?) then (no)
        :PO status: selected\nMessages: PO [4] - CSM [5] }
      else (yes)
        :PO status: not selected\nMessages: PO [4] - CSM [5] }
      endif
	endif
endif
stop
@enduml

PlantUML version 1.2018.01(Sun Jan 28 22:08:22 MUT 2018)
(APACHE source distribution)
Java Runtime: Java(TM) SE Runtime Environment
JVM: Java HotSpot(TM) 64-Bit Server VM
Java Version: 10.0.1+10
Operating System: Windows 10
OS Version: 10.0
Default Encoding: Cp1252
Language: fr
Country: FR
--></g></svg>