<?xml version="1.0" encoding="UTF-8" standalone="no"?><svg xmlns="http://www.w3.org/2000/svg" xmlns:xlink="http://www.w3.org/1999/xlink" contentScriptType="application/ecmascript" contentStyleType="text/css" height="1246px" preserveAspectRatio="none" style="width:1442px;height:1246px;" version="1.1" viewBox="0 0 1442 1246" width="1442px" zoomAndPan="magnify"><defs><filter height="300%" id="f1dwngaeaahf5g" width="300%" x="-1" y="-1"><feGaussianBlur result="blurOut" stdDeviation="2.0"/><feColorMatrix in="blurOut" result="blurOut2" type="matrix" values="0 0 0 0 0 0 0 0 0 0 0 0 0 0 0 0 0 0 .4 0"/><feOffset dx="4.0" dy="4.0" in="blurOut2" result="blurOut3"/><feBlend in="SourceGraphic" in2="blurOut3" mode="normal"/></filter></defs><g><!--cluster org.eclipse.keyple.command--><polygon fill="#FFFFFF" filter="url(#f1dwngaeaahf5g)" points="22,1031,228,1031,235,1054.6094,1420,1054.6094,1420,1234,22,1234,22,1031" style="stroke: #000000; stroke-width: 1.5;"/><line style="stroke: #000000; stroke-width: 1.5;" x1="22" x2="235" y1="1054.6094" y2="1054.6094"/><text fill="#000000" font-family="sans-serif" font-size="14" font-weight="bold" lengthAdjust="spacingAndGlyphs" textLength="200" x="26" y="1047.5332">org.eclipse.keyple.command</text><!--cluster org.eclipse.keyple.calypso.command.po--><polygon fill="#FFFFFF" filter="url(#f1dwngaeaahf5g)" points="83,172,368,172,375,195.6094,1239,195.6094,1239,981,83,981,83,172" style="stroke: #000000; stroke-width: 1.5;"/><line style="stroke: #000000; stroke-width: 1.5;" x1="83" x2="375" y1="195.6094" y2="195.6094"/><text fill="#000000" font-family="sans-serif" font-size="14" font-weight="bold" lengthAdjust="spacingAndGlyphs" textLength="279" x="87" y="188.5332">org.eclipse.keyple.calypso.command.po</text><!--cluster org.eclipse.keyple.calypso.command.po.builder--><polygon fill="#FFFFFF" filter="url(#f1dwngaeaahf5g)" points="132,226.5,471,226.5,478,250.1094,481,250.1094,481,803,132,803,132,226.5" style="stroke: #000000; stroke-width: 1.5;"/><line style="stroke: #000000; stroke-width: 1.5;" x1="132" x2="478" y1="250.1094" y2="250.1094"/><text fill="#000000" font-family="sans-serif" font-size="14" font-weight="bold" lengthAdjust="spacingAndGlyphs" textLength="333" x="136" y="243.0332">org.eclipse.keyple.calypso.command.po.builder</text><!--cluster org.eclipse.keyple.calypso.command.po.parser--><polygon fill="#FFFFFF" filter="url(#f1dwngaeaahf5g)" points="870,234.5,1205,234.5,1212,258.1094,1215,258.1094,1215,795,870,795,870,234.5" style="stroke: #000000; stroke-width: 1.5;"/><line style="stroke: #000000; stroke-width: 1.5;" x1="870" x2="1212" y1="258.1094" y2="258.1094"/><text fill="#000000" font-family="sans-serif" font-size="14" font-weight="bold" lengthAdjust="spacingAndGlyphs" textLength="329" x="874" y="251.0332">org.eclipse.keyple.calypso.command.po.parser</text><!--class AbstractApduCommandBuilder--><rect fill="#FEFECE" filter="url(#f1dwngaeaahf5g)" height="131.0156" id="AbstractApduCommandBuilder" style="stroke: #A80036; stroke-width: 1.5;" width="425" x="38.5" y="1087"/><ellipse cx="160.75" cy="1103" fill="#A9DCDF" rx="11" ry="11" style="stroke: #A80036; stroke-width: 1.0;"/><path d="M162.9375,1104.7656 L158.7969,1104.7656 L158.375,1105.7969 L158.7969,1105.7969 Q159.4063,1105.7969 159.6719,1106.0313 Q159.9375,1106.2656 159.9375,1106.6563 Q159.9375,1107.0313 159.6719,1107.2656 Q159.4063,1107.5 158.7969,1107.5 L156.5,1107.5 Q155.8906,1107.5 155.6328,1107.2656 Q155.375,1107.0313 155.375,1106.6406 Q155.375,1106.2656 155.6484,1106.0234 Q155.9219,1105.7813 156.5469,1105.7969 L159.2188,1099.1406 L158.1094,1099.1406 Q157.5,1099.1406 157.2344,1098.9063 Q156.9688,1098.6719 156.9688,1098.2813 Q156.9688,1097.9063 157.2344,1097.6719 Q157.5,1097.4375 158.1094,1097.4375 L161.7813,1097.4375 L165.1719,1105.7969 Q165.7656,1105.7969 165.9531,1105.9375 Q166.3438,1106.2031 166.3438,1106.6563 Q166.3438,1107.0313 166.0859,1107.2656 Q165.8281,1107.5 165.2188,1107.5 L162.9219,1107.5 Q162.3125,1107.5 162.0469,1107.2656 Q161.7813,1107.0313 161.7813,1106.6406 Q161.7813,1106.2656 162.0469,1106.0313 Q162.3125,1105.7969 162.9219,1105.7969 L163.3438,1105.7969 L162.9375,1104.7656 Z M162.2188,1103.0625 L160.8594,1099.6875 L159.4844,1103.0625 L162.2188,1103.0625 Z "/><text fill="#000000" font-family="sans-serif" font-size="12" font-style="italic" lengthAdjust="spacingAndGlyphs" textLength="172" x="181.25" y="1107.9102">AbstractApduCommandBuilder</text><line style="stroke: #A80036; stroke-width: 1.5;" x1="39.5" x2="462.5" y1="1119" y2="1119"/><rect fill="none" height="6" style="stroke: #C82930; stroke-width: 1.0;" width="6" x="46.5" y="1128.418"/><text fill="#000000" font-family="sans-serif" font-size="11" lengthAdjust="spacingAndGlyphs" textLength="179" x="58.5" y="1134.4189">CommandsTable commandReference</text><rect fill="none" height="6" style="stroke: #C82930; stroke-width: 1.0;" width="6" x="46.5" y="1142.2539"/><text fill="#000000" font-family="sans-serif" font-size="11" lengthAdjust="spacingAndGlyphs" textLength="133" x="58.5" y="1148.2549">ApduRequest apduRequest</text><line style="stroke: #A80036; stroke-width: 1.5;" x1="39.5" x2="462.5" y1="1154.6719" y2="1154.6719"/><ellipse cx="49.5" cy="1167.0898" fill="#84BE84" rx="3" ry="3" style="stroke: #038048; stroke-width: 1.0;"/><text fill="#000000" font-family="sans-serif" font-size="11" lengthAdjust="spacingAndGlyphs" textLength="398" x="58.5" y="1170.0908">AbstractApduCommandBuilder(CommandsTable reference, ApduRequest request)</text><ellipse cx="49.5" cy="1180.9258" fill="#84BE84" rx="3" ry="3" style="stroke: #038048; stroke-width: 1.0;"/><text fill="#000000" font-family="sans-serif" font-size="11" lengthAdjust="spacingAndGlyphs" textLength="81" x="58.5" y="1183.9268">String getName()</text><ellipse cx="49.5" cy="1194.7617" fill="#84BE84" rx="3" ry="3" style="stroke: #038048; stroke-width: 1.0;"/><text fill="#000000" font-family="sans-serif" font-size="11" lengthAdjust="spacingAndGlyphs" textLength="158" x="58.5" y="1197.7627">ApduRequest getApduRequest()</text><ellipse cx="49.5" cy="1208.5977" fill="#84BE84" rx="3" ry="3" style="stroke: #038048; stroke-width: 1.0;"/><text fill="#000000" font-family="sans-serif" font-size="11" lengthAdjust="spacingAndGlyphs" textLength="399" x="58.5" y="1211.5986">Class&lt;? extends AbstractApduResponseParser&gt; getApduResponseParserClass()</text><!--class AbstractApduResponseParser--><rect fill="#FEFECE" filter="url(#f1dwngaeaahf5g)" height="131.0156" id="AbstractApduResponseParser" style="stroke: #A80036; stroke-width: 1.5;" width="347" x="1056.5" y="1087"/><ellipse cx="1142.75" cy="1103" fill="#A9DCDF" rx="11" ry="11" style="stroke: #A80036; stroke-width: 1.0;"/><path d="M1144.9375,1104.7656 L1140.7969,1104.7656 L1140.375,1105.7969 L1140.7969,1105.7969 Q1141.4063,1105.7969 1141.6719,1106.0313 Q1141.9375,1106.2656 1141.9375,1106.6563 Q1141.9375,1107.0313 1141.6719,1107.2656 Q1141.4063,1107.5 1140.7969,1107.5 L1138.5,1107.5 Q1137.8906,1107.5 1137.6328,1107.2656 Q1137.375,1107.0313 1137.375,1106.6406 Q1137.375,1106.2656 1137.6484,1106.0234 Q1137.9219,1105.7813 1138.5469,1105.7969 L1141.2188,1099.1406 L1140.1094,1099.1406 Q1139.5,1099.1406 1139.2344,1098.9063 Q1138.9688,1098.6719 1138.9688,1098.2813 Q1138.9688,1097.9063 1139.2344,1097.6719 Q1139.5,1097.4375 1140.1094,1097.4375 L1143.7813,1097.4375 L1147.1719,1105.7969 Q1147.7656,1105.7969 1147.9531,1105.9375 Q1148.3438,1106.2031 1148.3438,1106.6563 Q1148.3438,1107.0313 1148.0859,1107.2656 Q1147.8281,1107.5 1147.2188,1107.5 L1144.9219,1107.5 Q1144.3125,1107.5 1144.0469,1107.2656 Q1143.7813,1107.0313 1143.7813,1106.6406 Q1143.7813,1106.2656 1144.0469,1106.0313 Q1144.3125,1105.7969 1144.9219,1105.7969 L1145.3438,1105.7969 L1144.9375,1104.7656 Z M1144.2188,1103.0625 L1142.8594,1099.6875 L1141.4844,1103.0625 L1144.2188,1103.0625 Z "/><text fill="#000000" font-family="sans-serif" font-size="12" font-style="italic" lengthAdjust="spacingAndGlyphs" textLength="166" x="1163.25" y="1107.9102">AbstractApduResponseParser</text><line style="stroke: #A80036; stroke-width: 1.5;" x1="1057.5" x2="1402.5" y1="1119" y2="1119"/><rect fill="none" height="6" style="stroke: #C82930; stroke-width: 1.0;" width="6" x="1064.5" y="1128.418"/><text fill="#000000" font-family="sans-serif" font-size="11" lengthAdjust="spacingAndGlyphs" textLength="151" x="1076.5" y="1134.4189">ApduResponse apduResponse</text><line style="stroke: #A80036; stroke-width: 1.5;" x1="1057.5" x2="1402.5" y1="1140.8359" y2="1140.8359"/><ellipse cx="1067.5" cy="1153.2539" fill="#84BE84" rx="3" ry="3" style="stroke: #038048; stroke-width: 1.0;"/><text fill="#000000" font-family="sans-serif" font-size="11" lengthAdjust="spacingAndGlyphs" textLength="321" x="1076.5" y="1156.2549">AbstractApduResponseParser(ApduResponse responseToParse)</text><ellipse cx="1067.5" cy="1167.0898" fill="#84BE84" rx="3" ry="3" style="stroke: #038048; stroke-width: 1.0;"/><text fill="#000000" font-family="sans-serif" font-size="11" lengthAdjust="spacingAndGlyphs" textLength="176" x="1076.5" y="1170.0908">ApduResponse getApduResponse()</text><ellipse cx="1067.5" cy="1180.9258" fill="#84BE84" rx="3" ry="3" style="stroke: #038048; stroke-width: 1.0;"/><text fill="#000000" font-family="sans-serif" font-size="11" lengthAdjust="spacingAndGlyphs" textLength="107" x="1076.5" y="1183.9268">short getStatusCode()</text><ellipse cx="1067.5" cy="1194.7617" fill="#84BE84" rx="3" ry="3" style="stroke: #038048; stroke-width: 1.0;"/><text fill="#000000" font-family="sans-serif" font-size="11" lengthAdjust="spacingAndGlyphs" textLength="112" x="1076.5" y="1197.7627">boolean isSuccessful()</text><ellipse cx="1067.5" cy="1208.5977" fill="#84BE84" rx="3" ry="3" style="stroke: #038048; stroke-width: 1.0;"/><text fill="#000000" font-family="sans-serif" font-size="11" lengthAdjust="spacingAndGlyphs" textLength="138" x="1076.5" y="1211.5986">String getStatusInformation()</text><!--class CommandsTable--><rect fill="#FEFECE" filter="url(#f1dwngaeaahf5g)" height="103.3438" id="CommandsTable" style="stroke: #A80036; stroke-width: 1.5;" width="399" x="560.5" y="1101"/><ellipse cx="707.25" cy="1117" fill="#B4A7E5" rx="11" ry="11" style="stroke: #A80036; stroke-width: 1.0;"/><path d="M708.2031,1113.6406 L708.2031,1120.2969 L709.9219,1120.2969 Q710.5313,1120.2969 710.7969,1120.5313 Q711.0625,1120.7656 711.0625,1121.1563 Q711.0625,1121.5313 710.7969,1121.7656 Q710.5313,1122 709.9219,1122 L704.7813,1122 Q704.1719,1122 703.9063,1121.7656 Q703.6406,1121.5313 703.6406,1121.1406 Q703.6406,1120.7656 703.9063,1120.5313 Q704.1719,1120.2969 704.7813,1120.2969 L706.5,1120.2969 L706.5,1113.6406 L704.7813,1113.6406 Q704.1719,1113.6406 703.9063,1113.4063 Q703.6406,1113.1719 703.6406,1112.7813 Q703.6406,1112.4063 703.9063,1112.1719 Q704.1719,1111.9375 704.7813,1111.9375 L709.9219,1111.9375 Q710.5313,1111.9375 710.7969,1112.1719 Q711.0625,1112.4063 711.0625,1112.7813 Q711.0625,1113.1719 710.7969,1113.4063 Q710.5313,1113.6406 709.9219,1113.6406 L708.2031,1113.6406 Z "/><text fill="#000000" font-family="sans-serif" font-size="12" font-style="italic" lengthAdjust="spacingAndGlyphs" textLength="97" x="727.75" y="1121.9102">CommandsTable</text><line style="stroke: #A80036; stroke-width: 1.5;" x1="561.5" x2="958.5" y1="1133" y2="1133"/><line style="stroke: #A80036; stroke-width: 1.5;" x1="561.5" x2="958.5" y1="1141" y2="1141"/><ellipse cx="571.5" cy="1153.418" fill="#84BE84" rx="3" ry="3" style="stroke: #038048; stroke-width: 1.0;"/><text fill="#000000" font-family="sans-serif" font-size="11" lengthAdjust="spacingAndGlyphs" textLength="81" x="580.5" y="1156.4189">String getName()</text><ellipse cx="571.5" cy="1167.2539" fill="#84BE84" rx="3" ry="3" style="stroke: #038048; stroke-width: 1.0;"/><text fill="#000000" font-family="sans-serif" font-size="11" lengthAdjust="spacingAndGlyphs" textLength="119" x="580.5" y="1170.2549">byte getInstructionByte()</text><ellipse cx="571.5" cy="1181.0898" fill="#84BE84" rx="3" ry="3" style="stroke: #038048; stroke-width: 1.0;"/><text fill="#000000" font-family="sans-serif" font-size="11" lengthAdjust="spacingAndGlyphs" textLength="371" x="580.5" y="1184.0908">Class&lt;? extends AbstractApduCommandBuilder&gt; getCommandBuilderClass()</text><ellipse cx="571.5" cy="1194.9258" fill="#84BE84" rx="3" ry="3" style="stroke: #038048; stroke-width: 1.0;"/><text fill="#000000" font-family="sans-serif" font-size="11" lengthAdjust="spacingAndGlyphs" textLength="373" x="580.5" y="1197.9268">Class&lt;? extends AbstractApduResponseParser&gt; getResponseParserClass()</text><!--class PoSendableInSession--><rect fill="#FEFECE" filter="url(#f1dwngaeaahf5g)" height="48" id="PoSendableInSession" style="stroke: #A80036; stroke-width: 1.5;" width="156" x="505" y="290.5"/><ellipse cx="520" cy="306.5" fill="#B4A7E5" rx="11" ry="11" style="stroke: #A80036; stroke-width: 1.0;"/><path d="M520.9531,303.1406 L520.9531,309.7969 L522.6719,309.7969 Q523.2813,309.7969 523.5469,310.0313 Q523.8125,310.2656 523.8125,310.6563 Q523.8125,311.0313 523.5469,311.2656 Q523.2813,311.5 522.6719,311.5 L517.5313,311.5 Q516.9219,311.5 516.6563,311.2656 Q516.3906,311.0313 516.3906,310.6406 Q516.3906,310.2656 516.6563,310.0313 Q516.9219,309.7969 517.5313,309.7969 L519.25,309.7969 L519.25,303.1406 L517.5313,303.1406 Q516.9219,303.1406 516.6563,302.9063 Q516.3906,302.6719 516.3906,302.2813 Q516.3906,301.9063 516.6563,301.6719 Q516.9219,301.4375 517.5313,301.4375 L522.6719,301.4375 Q523.2813,301.4375 523.5469,301.6719 Q523.8125,301.9063 523.8125,302.2813 Q523.8125,302.6719 523.5469,302.9063 Q523.2813,303.1406 522.6719,303.1406 L520.9531,303.1406 Z "/><text fill="#000000" font-family="sans-serif" font-size="12" font-style="italic" lengthAdjust="spacingAndGlyphs" textLength="124" x="534" y="311.4102">PoSendableInSession</text><line style="stroke: #A80036; stroke-width: 1.5;" x1="506" x2="660" y1="322.5" y2="322.5"/><line style="stroke: #A80036; stroke-width: 1.5;" x1="506" x2="660" y1="330.5" y2="330.5"/><!--class CalypsoPoCommands--><rect fill="#FEFECE" filter="url(#f1dwngaeaahf5g)" height="172.5234" id="CalypsoPoCommands" style="stroke: #A80036; stroke-width: 1.5;" width="158" x="696" y="228"/><ellipse cx="711" cy="244" fill="#EB937F" rx="11" ry="11" style="stroke: #A80036; stroke-width: 1.0;"/><path d="M709.8594,244.7969 L709.8594,247.2969 L714.1875,247.2969 L714.1875,246.375 Q714.1875,245.7656 714.4297,245.5 Q714.6719,245.2344 715.0469,245.2344 Q715.4219,245.2344 715.6563,245.5 Q715.8906,245.7656 715.8906,246.375 L715.8906,249 L707.8906,249 Q707.2656,249 707.0078,248.7656 Q706.75,248.5313 706.75,248.1406 Q706.75,247.7656 707.0156,247.5313 Q707.2813,247.2969 707.8906,247.2969 L708.1563,247.2969 L708.1563,240.6406 L707.8906,240.6406 Q707.2656,240.6406 707.0078,240.4063 Q706.75,240.1719 706.75,239.7813 Q706.75,239.4063 707.0078,239.1719 Q707.2656,238.9375 707.8906,238.9375 L715.5156,238.9375 L715.5156,241.5313 Q715.5156,242.1406 715.2891,242.3984 Q715.0625,242.6563 714.6719,242.6563 Q714.2969,242.6563 714.0625,242.3984 Q713.8281,242.1406 713.8281,241.5313 L713.8281,240.6406 L709.8594,240.6406 L709.8594,243.0938 L711.3438,243.0938 Q711.3438,242.4375 711.4688,242.25 Q711.7344,241.8438 712.2031,241.8438 Q712.5781,241.8438 712.8125,242.1016 Q713.0469,242.3594 713.0469,242.9688 L713.0469,244.9375 Q713.0469,245.4844 712.9219,245.6719 Q712.6563,246.0625 712.2031,246.0625 Q711.7344,246.0625 711.4688,245.6563 Q711.3438,245.4688 711.3438,244.7969 L709.8594,244.7969 Z "/><text fill="#000000" font-family="sans-serif" font-size="12" lengthAdjust="spacingAndGlyphs" textLength="126" x="725" y="248.9102">CalypsoPoCommands</text><line style="stroke: #A80036; stroke-width: 1.5;" x1="697" x2="853" y1="260" y2="260"/><text fill="#000000" font-family="sans-serif" font-size="11" lengthAdjust="spacingAndGlyphs" textLength="96" x="702" y="275.4189">PO_GET_DATA_FCI</text><text fill="#000000" font-family="sans-serif" font-size="11" lengthAdjust="spacingAndGlyphs" textLength="115" x="702" y="289.2549">PO_OPEN_SESSION_24</text><text fill="#000000" font-family="sans-serif" font-size="11" lengthAdjust="spacingAndGlyphs" textLength="115" x="702" y="303.0908">PO_OPEN_SESSION_31</text><text fill="#000000" font-family="sans-serif" font-size="11" lengthAdjust="spacingAndGlyphs" textLength="115" x="702" y="316.9268">PO_OPEN_SESSION_32</text><text fill="#000000" font-family="sans-serif" font-size="11" lengthAdjust="spacingAndGlyphs" textLength="104" x="702" y="330.7627">PO_CLOSE_SESSION</text><text fill="#000000" font-family="sans-serif" font-size="11" lengthAdjust="spacingAndGlyphs" textLength="103" x="702" y="344.5986">PO_READ_RECORDS</text><text fill="#000000" font-family="sans-serif" font-size="11" lengthAdjust="spacingAndGlyphs" textLength="108" x="702" y="358.4346">PO_UPDATE_RECORD</text><text fill="#000000" font-family="sans-serif" font-size="11" lengthAdjust="spacingAndGlyphs" textLength="108" x="702" y="372.2705">PO_APPEND_RECORD</text><text fill="#000000" font-family="sans-serif" font-size="11" lengthAdjust="spacingAndGlyphs" textLength="107" x="702" y="386.1064">PO_GET_CHALLENGE</text><line style="stroke: #A80036; stroke-width: 1.5;" x1="697" x2="853" y1="392.5234" y2="392.5234"/><!--class AbstractPoCommandBuilder--><rect fill="#FEFECE" filter="url(#f1dwngaeaahf5g)" height="75.6719" id="AbstractPoCommandBuilder" style="stroke: #A80036; stroke-width: 1.5;" width="435" x="229.5" y="882"/><ellipse cx="363.75" cy="898" fill="#A9DCDF" rx="11" ry="11" style="stroke: #A80036; stroke-width: 1.0;"/><path d="M365.9375,899.7656 L361.7969,899.7656 L361.375,900.7969 L361.7969,900.7969 Q362.4063,900.7969 362.6719,901.0313 Q362.9375,901.2656 362.9375,901.6563 Q362.9375,902.0313 362.6719,902.2656 Q362.4063,902.5 361.7969,902.5 L359.5,902.5 Q358.8906,902.5 358.6328,902.2656 Q358.375,902.0313 358.375,901.6406 Q358.375,901.2656 358.6484,901.0234 Q358.9219,900.7813 359.5469,900.7969 L362.2188,894.1406 L361.1094,894.1406 Q360.5,894.1406 360.2344,893.9063 Q359.9688,893.6719 359.9688,893.2813 Q359.9688,892.9063 360.2344,892.6719 Q360.5,892.4375 361.1094,892.4375 L364.7813,892.4375 L368.1719,900.7969 Q368.7656,900.7969 368.9531,900.9375 Q369.3438,901.2031 369.3438,901.6563 Q369.3438,902.0313 369.0859,902.2656 Q368.8281,902.5 368.2188,902.5 L365.9219,902.5 Q365.3125,902.5 365.0469,902.2656 Q364.7813,902.0313 364.7813,901.6406 Q364.7813,901.2656 365.0469,901.0313 Q365.3125,900.7969 365.9219,900.7969 L366.3438,900.7969 L365.9375,899.7656 Z M365.2188,898.0625 L363.8594,894.6875 L362.4844,898.0625 L365.2188,898.0625 Z "/><text fill="#000000" font-family="sans-serif" font-size="12" font-style="italic" lengthAdjust="spacingAndGlyphs" textLength="158" x="384.25" y="902.9102">AbstractPoCommandBuilder</text><line style="stroke: #A80036; stroke-width: 1.5;" x1="230.5" x2="663.5" y1="914" y2="914"/><polygon fill="none" points="240.5,921.418,244.5,925.418,240.5,929.418,236.5,925.418" style="stroke: #B38D22; stroke-width: 1.0;"/><text fill="#000000" font-family="sans-serif" font-size="11" lengthAdjust="spacingAndGlyphs" textLength="246" x="249.5" y="929.4189">CsmRevision defaultRevision = PoRevision.REV3_1</text><line style="stroke: #A80036; stroke-width: 1.5;" x1="230.5" x2="663.5" y1="935.8359" y2="935.8359"/><ellipse cx="240.5" cy="948.2539" fill="#84BE84" rx="3" ry="3" style="stroke: #038048; stroke-width: 1.0;"/><text fill="#000000" font-family="sans-serif" font-size="11" lengthAdjust="spacingAndGlyphs" textLength="409" x="249.5" y="951.2549">AbstractPoCommandBuilder(CalypsoPoCommands reference, ApduRequest request)</text><!--class PoRevision--><rect fill="#FEFECE" filter="url(#f1dwngaeaahf5g)" height="89.5078" id="PoRevision" style="stroke: #A80036; stroke-width: 1.5;" width="95" x="99.5" y="875"/><ellipse cx="114.5" cy="891" fill="#EB937F" rx="11" ry="11" style="stroke: #A80036; stroke-width: 1.0;"/><path d="M113.3594,891.7969 L113.3594,894.2969 L117.6875,894.2969 L117.6875,893.375 Q117.6875,892.7656 117.9297,892.5 Q118.1719,892.2344 118.5469,892.2344 Q118.9219,892.2344 119.1563,892.5 Q119.3906,892.7656 119.3906,893.375 L119.3906,896 L111.3906,896 Q110.7656,896 110.5078,895.7656 Q110.25,895.5313 110.25,895.1406 Q110.25,894.7656 110.5156,894.5313 Q110.7813,894.2969 111.3906,894.2969 L111.6563,894.2969 L111.6563,887.6406 L111.3906,887.6406 Q110.7656,887.6406 110.5078,887.4063 Q110.25,887.1719 110.25,886.7813 Q110.25,886.4063 110.5078,886.1719 Q110.7656,885.9375 111.3906,885.9375 L119.0156,885.9375 L119.0156,888.5313 Q119.0156,889.1406 118.7891,889.3984 Q118.5625,889.6563 118.1719,889.6563 Q117.7969,889.6563 117.5625,889.3984 Q117.3281,889.1406 117.3281,888.5313 L117.3281,887.6406 L113.3594,887.6406 L113.3594,890.0938 L114.8438,890.0938 Q114.8438,889.4375 114.9688,889.25 Q115.2344,888.8438 115.7031,888.8438 Q116.0781,888.8438 116.3125,889.1016 Q116.5469,889.3594 116.5469,889.9688 L116.5469,891.9375 Q116.5469,892.4844 116.4219,892.6719 Q116.1563,893.0625 115.7031,893.0625 Q115.2344,893.0625 114.9688,892.6563 Q114.8438,892.4688 114.8438,891.7969 L113.3594,891.7969 Z "/><text fill="#000000" font-family="sans-serif" font-size="12" lengthAdjust="spacingAndGlyphs" textLength="63" x="128.5" y="895.9102">PoRevision</text><line style="stroke: #A80036; stroke-width: 1.5;" x1="100.5" x2="193.5" y1="907" y2="907"/><text fill="#000000" font-family="sans-serif" font-size="11" lengthAdjust="spacingAndGlyphs" textLength="39" x="105.5" y="922.4189">REV2_4</text><text fill="#000000" font-family="sans-serif" font-size="11" lengthAdjust="spacingAndGlyphs" textLength="39" x="105.5" y="936.2549">REV3_1</text><text fill="#000000" font-family="sans-serif" font-size="11" lengthAdjust="spacingAndGlyphs" textLength="39" x="105.5" y="950.0908">REV3_2</text><line style="stroke: #A80036; stroke-width: 1.5;" x1="100.5" x2="193.5" y1="956.5078" y2="956.5078"/><!--class ReadRecordsCmdBuild--><rect fill="#FEFECE" filter="url(#f1dwngaeaahf5g)" height="48" id="ReadRecordsCmdBuild" style="stroke: #A80036; stroke-width: 1.5;" width="164" x="237" y="290.5"/><ellipse cx="252" cy="306.5" fill="#ADD1B2" rx="11" ry="11" style="stroke: #A80036; stroke-width: 1.0;"/><path d="M254.7656,302.375 Q254.9219,302.1563 255.1094,302.0469 Q255.2969,301.9375 255.5156,301.9375 Q255.8906,301.9375 256.125,302.1953 Q256.3594,302.4531 256.3594,303.0625 L256.3594,304.5156 Q256.3594,305.125 256.125,305.3906 Q255.8906,305.6563 255.5156,305.6563 Q255.1719,305.6563 254.9688,305.4531 Q254.7656,305.2656 254.6563,304.75 Q254.6094,304.3906 254.4219,304.2031 Q254.0938,303.8281 253.4844,303.6094 Q252.875,303.3906 252.25,303.3906 Q251.4844,303.3906 250.8516,303.7188 Q250.2188,304.0469 249.7266,304.7969 Q249.2344,305.5469 249.2344,306.5781 L249.2344,307.6719 Q249.2344,308.9063 250.125,309.7266 Q251.0156,310.5469 252.6094,310.5469 Q253.5469,310.5469 254.2031,310.2969 Q254.5938,310.1406 255.0156,309.7031 Q255.2813,309.4375 255.4297,309.3594 Q255.5781,309.2813 255.7813,309.2813 Q256.1094,309.2813 256.3672,309.5391 Q256.625,309.7969 256.625,310.1406 Q256.625,310.4844 256.2813,310.8906 Q255.7813,311.4688 254.9844,311.7969 Q253.9063,312.25 252.6094,312.25 Q251.0938,312.25 249.8906,311.625 Q248.9063,311.125 248.2188,310.0547 Q247.5313,308.9844 247.5313,307.7031 L247.5313,306.5469 Q247.5313,305.2188 248.1484,304.0703 Q248.7656,302.9219 249.8594,302.3047 Q250.9531,301.6875 252.1875,301.6875 Q252.9219,301.6875 253.5703,301.8516 Q254.2188,302.0156 254.7656,302.375 Z "/><text fill="#000000" font-family="sans-serif" font-size="12" lengthAdjust="spacingAndGlyphs" textLength="132" x="266" y="311.4102">ReadRecordsCmdBuild</text><line style="stroke: #A80036; stroke-width: 1.5;" x1="238" x2="400" y1="322.5" y2="322.5"/><line style="stroke: #A80036; stroke-width: 1.5;" x1="238" x2="400" y1="330.5" y2="330.5"/><!--class UpdateRecordCmdBuild--><rect fill="#FEFECE" filter="url(#f1dwngaeaahf5g)" height="48" id="UpdateRecordCmdBuild" style="stroke: #A80036; stroke-width: 1.5;" width="167" x="289.5" y="479"/><ellipse cx="304.5" cy="495" fill="#ADD1B2" rx="11" ry="11" style="stroke: #A80036; stroke-width: 1.0;"/><path d="M307.2656,490.875 Q307.4219,490.6563 307.6094,490.5469 Q307.7969,490.4375 308.0156,490.4375 Q308.3906,490.4375 308.625,490.6953 Q308.8594,490.9531 308.8594,491.5625 L308.8594,493.0156 Q308.8594,493.625 308.625,493.8906 Q308.3906,494.1563 308.0156,494.1563 Q307.6719,494.1563 307.4688,493.9531 Q307.2656,493.7656 307.1563,493.25 Q307.1094,492.8906 306.9219,492.7031 Q306.5938,492.3281 305.9844,492.1094 Q305.375,491.8906 304.75,491.8906 Q303.9844,491.8906 303.3516,492.2188 Q302.7188,492.5469 302.2266,493.2969 Q301.7344,494.0469 301.7344,495.0781 L301.7344,496.1719 Q301.7344,497.4063 302.625,498.2266 Q303.5156,499.0469 305.1094,499.0469 Q306.0469,499.0469 306.7031,498.7969 Q307.0938,498.6406 307.5156,498.2031 Q307.7813,497.9375 307.9297,497.8594 Q308.0781,497.7813 308.2813,497.7813 Q308.6094,497.7813 308.8672,498.0391 Q309.125,498.2969 309.125,498.6406 Q309.125,498.9844 308.7813,499.3906 Q308.2813,499.9688 307.4844,500.2969 Q306.4063,500.75 305.1094,500.75 Q303.5938,500.75 302.3906,500.125 Q301.4063,499.625 300.7188,498.5547 Q300.0313,497.4844 300.0313,496.2031 L300.0313,495.0469 Q300.0313,493.7188 300.6484,492.5703 Q301.2656,491.4219 302.3594,490.8047 Q303.4531,490.1875 304.6875,490.1875 Q305.4219,490.1875 306.0703,490.3516 Q306.7188,490.5156 307.2656,490.875 Z "/><text fill="#000000" font-family="sans-serif" font-size="12" lengthAdjust="spacingAndGlyphs" textLength="135" x="318.5" y="499.9102">UpdateRecordCmdBuild</text><line style="stroke: #A80036; stroke-width: 1.5;" x1="290.5" x2="455.5" y1="511" y2="511"/><line style="stroke: #A80036; stroke-width: 1.5;" x1="290.5" x2="455.5" y1="519" y2="519"/><!--class OpenSessionCmdBuild--><rect fill="#FEFECE" filter="url(#f1dwngaeaahf5g)" height="48" id="OpenSessionCmdBuild" style="stroke: #A80036; stroke-width: 1.5;" width="163" x="292.5" y="605"/><ellipse cx="307.5" cy="621" fill="#ADD1B2" rx="11" ry="11" style="stroke: #A80036; stroke-width: 1.0;"/><path d="M310.2656,616.875 Q310.4219,616.6563 310.6094,616.5469 Q310.7969,616.4375 311.0156,616.4375 Q311.3906,616.4375 311.625,616.6953 Q311.8594,616.9531 311.8594,617.5625 L311.8594,619.0156 Q311.8594,619.625 311.625,619.8906 Q311.3906,620.1563 311.0156,620.1563 Q310.6719,620.1563 310.4688,619.9531 Q310.2656,619.7656 310.1563,619.25 Q310.1094,618.8906 309.9219,618.7031 Q309.5938,618.3281 308.9844,618.1094 Q308.375,617.8906 307.75,617.8906 Q306.9844,617.8906 306.3516,618.2188 Q305.7188,618.5469 305.2266,619.2969 Q304.7344,620.0469 304.7344,621.0781 L304.7344,622.1719 Q304.7344,623.4063 305.625,624.2266 Q306.5156,625.0469 308.1094,625.0469 Q309.0469,625.0469 309.7031,624.7969 Q310.0938,624.6406 310.5156,624.2031 Q310.7813,623.9375 310.9297,623.8594 Q311.0781,623.7813 311.2813,623.7813 Q311.6094,623.7813 311.8672,624.0391 Q312.125,624.2969 312.125,624.6406 Q312.125,624.9844 311.7813,625.3906 Q311.2813,625.9688 310.4844,626.2969 Q309.4063,626.75 308.1094,626.75 Q306.5938,626.75 305.3906,626.125 Q304.4063,625.625 303.7188,624.5547 Q303.0313,623.4844 303.0313,622.2031 L303.0313,621.0469 Q303.0313,619.7188 303.6484,618.5703 Q304.2656,617.4219 305.3594,616.8047 Q306.4531,616.1875 307.6875,616.1875 Q308.4219,616.1875 309.0703,616.3516 Q309.7188,616.5156 310.2656,616.875 Z "/><text fill="#000000" font-family="sans-serif" font-size="12" lengthAdjust="spacingAndGlyphs" textLength="131" x="321.5" y="625.9102">OpenSessionCmdBuild</text><line style="stroke: #A80036; stroke-width: 1.5;" x1="293.5" x2="454.5" y1="637" y2="637"/><line style="stroke: #A80036; stroke-width: 1.5;" x1="293.5" x2="454.5" y1="645" y2="645"/><!--class CloseSessionCmdBuild--><rect fill="#FEFECE" filter="url(#f1dwngaeaahf5g)" height="48" id="CloseSessionCmdBuild" style="stroke: #A80036; stroke-width: 1.5;" width="166" x="291" y="731"/><ellipse cx="306" cy="747" fill="#ADD1B2" rx="11" ry="11" style="stroke: #A80036; stroke-width: 1.0;"/><path d="M308.7656,742.875 Q308.9219,742.6563 309.1094,742.5469 Q309.2969,742.4375 309.5156,742.4375 Q309.8906,742.4375 310.125,742.6953 Q310.3594,742.9531 310.3594,743.5625 L310.3594,745.0156 Q310.3594,745.625 310.125,745.8906 Q309.8906,746.1563 309.5156,746.1563 Q309.1719,746.1563 308.9688,745.9531 Q308.7656,745.7656 308.6563,745.25 Q308.6094,744.8906 308.4219,744.7031 Q308.0938,744.3281 307.4844,744.1094 Q306.875,743.8906 306.25,743.8906 Q305.4844,743.8906 304.8516,744.2188 Q304.2188,744.5469 303.7266,745.2969 Q303.2344,746.0469 303.2344,747.0781 L303.2344,748.1719 Q303.2344,749.4063 304.125,750.2266 Q305.0156,751.0469 306.6094,751.0469 Q307.5469,751.0469 308.2031,750.7969 Q308.5938,750.6406 309.0156,750.2031 Q309.2813,749.9375 309.4297,749.8594 Q309.5781,749.7813 309.7813,749.7813 Q310.1094,749.7813 310.3672,750.0391 Q310.625,750.2969 310.625,750.6406 Q310.625,750.9844 310.2813,751.3906 Q309.7813,751.9688 308.9844,752.2969 Q307.9063,752.75 306.6094,752.75 Q305.0938,752.75 303.8906,752.125 Q302.9063,751.625 302.2188,750.5547 Q301.5313,749.4844 301.5313,748.2031 L301.5313,747.0469 Q301.5313,745.7188 302.1484,744.5703 Q302.7656,743.4219 303.8594,742.8047 Q304.9531,742.1875 306.1875,742.1875 Q306.9219,742.1875 307.5703,742.3516 Q308.2188,742.5156 308.7656,742.875 Z "/><text fill="#000000" font-family="sans-serif" font-size="12" lengthAdjust="spacingAndGlyphs" textLength="134" x="320" y="751.9102">CloseSessionCmdBuild</text><line style="stroke: #A80036; stroke-width: 1.5;" x1="292" x2="456" y1="763" y2="763"/><line style="stroke: #A80036; stroke-width: 1.5;" x1="292" x2="456" y1="771" y2="771"/><!--class PoFciRespPars--><rect fill="#FEFECE" filter="url(#f1dwngaeaahf5g)" height="48" id="PoFciRespPars" style="stroke: #A80036; stroke-width: 1.5;" width="119" x="950.5" y="290.5"/><ellipse cx="965.5" cy="306.5" fill="#ADD1B2" rx="11" ry="11" style="stroke: #A80036; stroke-width: 1.0;"/><path d="M968.2656,302.375 Q968.4219,302.1563 968.6094,302.0469 Q968.7969,301.9375 969.0156,301.9375 Q969.3906,301.9375 969.625,302.1953 Q969.8594,302.4531 969.8594,303.0625 L969.8594,304.5156 Q969.8594,305.125 969.625,305.3906 Q969.3906,305.6563 969.0156,305.6563 Q968.6719,305.6563 968.4688,305.4531 Q968.2656,305.2656 968.1563,304.75 Q968.1094,304.3906 967.9219,304.2031 Q967.5938,303.8281 966.9844,303.6094 Q966.375,303.3906 965.75,303.3906 Q964.9844,303.3906 964.3516,303.7188 Q963.7188,304.0469 963.2266,304.7969 Q962.7344,305.5469 962.7344,306.5781 L962.7344,307.6719 Q962.7344,308.9063 963.625,309.7266 Q964.5156,310.5469 966.1094,310.5469 Q967.0469,310.5469 967.7031,310.2969 Q968.0938,310.1406 968.5156,309.7031 Q968.7813,309.4375 968.9297,309.3594 Q969.0781,309.2813 969.2813,309.2813 Q969.6094,309.2813 969.8672,309.5391 Q970.125,309.7969 970.125,310.1406 Q970.125,310.4844 969.7813,310.8906 Q969.2813,311.4688 968.4844,311.7969 Q967.4063,312.25 966.1094,312.25 Q964.5938,312.25 963.3906,311.625 Q962.4063,311.125 961.7188,310.0547 Q961.0313,308.9844 961.0313,307.7031 L961.0313,306.5469 Q961.0313,305.2188 961.6484,304.0703 Q962.2656,302.9219 963.3594,302.3047 Q964.4531,301.6875 965.6875,301.6875 Q966.4219,301.6875 967.0703,301.8516 Q967.7188,302.0156 968.2656,302.375 Z "/><text fill="#000000" font-family="sans-serif" font-size="12" lengthAdjust="spacingAndGlyphs" textLength="87" x="979.5" y="311.4102">PoFciRespPars</text><line style="stroke: #A80036; stroke-width: 1.5;" x1="951.5" x2="1068.5" y1="322.5" y2="322.5"/><line style="stroke: #A80036; stroke-width: 1.5;" x1="951.5" x2="1068.5" y1="330.5" y2="330.5"/><!--class OpenSessionRespPars--><rect fill="#FEFECE" filter="url(#f1dwngaeaahf5g)" height="48" id="OpenSessionRespPars" style="stroke: #A80036; stroke-width: 1.5;" width="164" x="925" y="479"/><ellipse cx="940" cy="495" fill="#ADD1B2" rx="11" ry="11" style="stroke: #A80036; stroke-width: 1.0;"/><path d="M942.7656,490.875 Q942.9219,490.6563 943.1094,490.5469 Q943.2969,490.4375 943.5156,490.4375 Q943.8906,490.4375 944.125,490.6953 Q944.3594,490.9531 944.3594,491.5625 L944.3594,493.0156 Q944.3594,493.625 944.125,493.8906 Q943.8906,494.1563 943.5156,494.1563 Q943.1719,494.1563 942.9688,493.9531 Q942.7656,493.7656 942.6563,493.25 Q942.6094,492.8906 942.4219,492.7031 Q942.0938,492.3281 941.4844,492.1094 Q940.875,491.8906 940.25,491.8906 Q939.4844,491.8906 938.8516,492.2188 Q938.2188,492.5469 937.7266,493.2969 Q937.2344,494.0469 937.2344,495.0781 L937.2344,496.1719 Q937.2344,497.4063 938.125,498.2266 Q939.0156,499.0469 940.6094,499.0469 Q941.5469,499.0469 942.2031,498.7969 Q942.5938,498.6406 943.0156,498.2031 Q943.2813,497.9375 943.4297,497.8594 Q943.5781,497.7813 943.7813,497.7813 Q944.1094,497.7813 944.3672,498.0391 Q944.625,498.2969 944.625,498.6406 Q944.625,498.9844 944.2813,499.3906 Q943.7813,499.9688 942.9844,500.2969 Q941.9063,500.75 940.6094,500.75 Q939.0938,500.75 937.8906,500.125 Q936.9063,499.625 936.2188,498.5547 Q935.5313,497.4844 935.5313,496.2031 L935.5313,495.0469 Q935.5313,493.7188 936.1484,492.5703 Q936.7656,491.4219 937.8594,490.8047 Q938.9531,490.1875 940.1875,490.1875 Q940.9219,490.1875 941.5703,490.3516 Q942.2188,490.5156 942.7656,490.875 Z "/><text fill="#000000" font-family="sans-serif" font-size="12" lengthAdjust="spacingAndGlyphs" textLength="132" x="954" y="499.9102">OpenSessionRespPars</text><line style="stroke: #A80036; stroke-width: 1.5;" x1="926" x2="1088" y1="511" y2="511"/><line style="stroke: #A80036; stroke-width: 1.5;" x1="926" x2="1088" y1="519" y2="519"/><!--class ReadRecordsRespPars--><rect fill="#FEFECE" filter="url(#f1dwngaeaahf5g)" height="48" id="ReadRecordsRespPars" style="stroke: #A80036; stroke-width: 1.5;" width="165" x="923.5" y="605"/><ellipse cx="938.5" cy="621" fill="#ADD1B2" rx="11" ry="11" style="stroke: #A80036; stroke-width: 1.0;"/><path d="M941.2656,616.875 Q941.4219,616.6563 941.6094,616.5469 Q941.7969,616.4375 942.0156,616.4375 Q942.3906,616.4375 942.625,616.6953 Q942.8594,616.9531 942.8594,617.5625 L942.8594,619.0156 Q942.8594,619.625 942.625,619.8906 Q942.3906,620.1563 942.0156,620.1563 Q941.6719,620.1563 941.4688,619.9531 Q941.2656,619.7656 941.1563,619.25 Q941.1094,618.8906 940.9219,618.7031 Q940.5938,618.3281 939.9844,618.1094 Q939.375,617.8906 938.75,617.8906 Q937.9844,617.8906 937.3516,618.2188 Q936.7188,618.5469 936.2266,619.2969 Q935.7344,620.0469 935.7344,621.0781 L935.7344,622.1719 Q935.7344,623.4063 936.625,624.2266 Q937.5156,625.0469 939.1094,625.0469 Q940.0469,625.0469 940.7031,624.7969 Q941.0938,624.6406 941.5156,624.2031 Q941.7813,623.9375 941.9297,623.8594 Q942.0781,623.7813 942.2813,623.7813 Q942.6094,623.7813 942.8672,624.0391 Q943.125,624.2969 943.125,624.6406 Q943.125,624.9844 942.7813,625.3906 Q942.2813,625.9688 941.4844,626.2969 Q940.4063,626.75 939.1094,626.75 Q937.5938,626.75 936.3906,626.125 Q935.4063,625.625 934.7188,624.5547 Q934.0313,623.4844 934.0313,622.2031 L934.0313,621.0469 Q934.0313,619.7188 934.6484,618.5703 Q935.2656,617.4219 936.3594,616.8047 Q937.4531,616.1875 938.6875,616.1875 Q939.4219,616.1875 940.0703,616.3516 Q940.7188,616.5156 941.2656,616.875 Z "/><text fill="#000000" font-family="sans-serif" font-size="12" lengthAdjust="spacingAndGlyphs" textLength="133" x="952.5" y="625.9102">ReadRecordsRespPars</text><line style="stroke: #A80036; stroke-width: 1.5;" x1="924.5" x2="1087.5" y1="637" y2="637"/><line style="stroke: #A80036; stroke-width: 1.5;" x1="924.5" x2="1087.5" y1="645" y2="645"/><!--class CloseSessionRespPars--><rect fill="#FEFECE" filter="url(#f1dwngaeaahf5g)" height="48" id="CloseSessionRespPars" style="stroke: #A80036; stroke-width: 1.5;" width="167" x="921.5" y="731"/><ellipse cx="936.5" cy="747" fill="#ADD1B2" rx="11" ry="11" style="stroke: #A80036; stroke-width: 1.0;"/><path d="M939.2656,742.875 Q939.4219,742.6563 939.6094,742.5469 Q939.7969,742.4375 940.0156,742.4375 Q940.3906,742.4375 940.625,742.6953 Q940.8594,742.9531 940.8594,743.5625 L940.8594,745.0156 Q940.8594,745.625 940.625,745.8906 Q940.3906,746.1563 940.0156,746.1563 Q939.6719,746.1563 939.4688,745.9531 Q939.2656,745.7656 939.1563,745.25 Q939.1094,744.8906 938.9219,744.7031 Q938.5938,744.3281 937.9844,744.1094 Q937.375,743.8906 936.75,743.8906 Q935.9844,743.8906 935.3516,744.2188 Q934.7188,744.5469 934.2266,745.2969 Q933.7344,746.0469 933.7344,747.0781 L933.7344,748.1719 Q933.7344,749.4063 934.625,750.2266 Q935.5156,751.0469 937.1094,751.0469 Q938.0469,751.0469 938.7031,750.7969 Q939.0938,750.6406 939.5156,750.2031 Q939.7813,749.9375 939.9297,749.8594 Q940.0781,749.7813 940.2813,749.7813 Q940.6094,749.7813 940.8672,750.0391 Q941.125,750.2969 941.125,750.6406 Q941.125,750.9844 940.7813,751.3906 Q940.2813,751.9688 939.4844,752.2969 Q938.4063,752.75 937.1094,752.75 Q935.5938,752.75 934.3906,752.125 Q933.4063,751.625 932.7188,750.5547 Q932.0313,749.4844 932.0313,748.2031 L932.0313,747.0469 Q932.0313,745.7188 932.6484,744.5703 Q933.2656,743.4219 934.3594,742.8047 Q935.4531,742.1875 936.6875,742.1875 Q937.4219,742.1875 938.0703,742.3516 Q938.7188,742.5156 939.2656,742.875 Z "/><text fill="#000000" font-family="sans-serif" font-size="12" lengthAdjust="spacingAndGlyphs" textLength="135" x="950.5" y="751.9102">CloseSessionRespPars</text><line style="stroke: #A80036; stroke-width: 1.5;" x1="922.5" x2="1087.5" y1="763" y2="763"/><line style="stroke: #A80036; stroke-width: 1.5;" x1="922.5" x2="1087.5" y1="771" y2="771"/><!--link AbstractApduCommandBuilder to CommandsTable--><path d="M476.728,1152.5 C500.103,1152.5 523.806,1152.5 547.034,1152.5 " fill="none" id="AbstractApduCommandBuilder-CommandsTable" style="stroke: #A80036; stroke-width: 1.0;"/><polygon fill="#A80036" points="560.266,1152.5,554.266,1148.5,548.266,1152.5,554.266,1156.5,560.266,1152.5" style="stroke: #A80036; stroke-width: 1.0;"/><polygon fill="#A80036" points="463.544,1152.5,472.544,1156.5,468.544,1152.5,472.544,1148.5,463.544,1152.5" style="stroke: #A80036; stroke-width: 1.0;"/><line style="stroke: #A80036; stroke-width: 1.0;" x1="468.544" x2="476.544" y1="1152.5" y2="1152.5"/><text fill="#000000" font-family="sans-serif" font-size="13" lengthAdjust="spacingAndGlyphs" textLength="60" x="482" y="1145.9951">references</text><text fill="#000000" font-family="sans-serif" font-size="13" lengthAdjust="spacingAndGlyphs" textLength="5" x="471.2721" y="1149.7137">*</text><text fill="#000000" font-family="sans-serif" font-size="13" lengthAdjust="spacingAndGlyphs" textLength="7" x="545.3272" y="1149.6828">1</text><!--link CommandsTable to AbstractApduResponseParser--><path d="M972.885,1152.5 C996.323,1152.5 1020.06,1152.5 1043.14,1152.5 " fill="none" id="CommandsTable-AbstractApduResponseParser" style="stroke: #A80036; stroke-width: 1.0;"/><polygon fill="#A80036" points="1056.27,1152.5,1047.27,1148.5,1051.27,1152.5,1047.27,1156.5,1056.27,1152.5" style="stroke: #A80036; stroke-width: 1.0;"/><line style="stroke: #A80036; stroke-width: 1.0;" x1="1051.27" x2="1043.27" y1="1152.5" y2="1152.5"/><polygon fill="#A80036" points="959.663,1152.5,965.663,1156.5,971.663,1152.5,965.663,1148.5,959.663,1152.5" style="stroke: #A80036; stroke-width: 1.0;"/><text fill="#000000" font-family="sans-serif" font-size="13" lengthAdjust="spacingAndGlyphs" textLength="60" x="978" y="1145.9951">references</text><text fill="#000000" font-family="sans-serif" font-size="13" lengthAdjust="spacingAndGlyphs" textLength="7" x="967.5991" y="1149.6828">1</text><text fill="#000000" font-family="sans-serif" font-size="13" lengthAdjust="spacingAndGlyphs" textLength="5" x="1043.2846" y="1149.6402">*</text><!--link ReadRecordsCmdBuild to UpdateRecordCmdBuild--><!--link UpdateRecordCmdBuild to OpenSessionCmdBuild--><!--link OpenSessionCmdBuild to CloseSessionCmdBuild--><!--link PoSendableInSession to ReadRecordsCmdBuild--><path d="M484.537,314.5 C457.061,314.5 427.508,314.5 401.084,314.5 " fill="none" id="PoSendableInSession-ReadRecordsCmdBuild" style="stroke: #A80036; stroke-width: 1.0; stroke-dasharray: 7.0,7.0;"/><polygon fill="none" points="484.579,307.5,504.579,314.5,484.579,321.5,484.579,307.5" style="stroke: #A80036; stroke-width: 1.0;"/><text fill="#000000" font-family="sans-serif" font-size="13" lengthAdjust="spacingAndGlyphs" textLength="67" x="419.5" y="307.9951">implements</text><!--link PoSendableInSession to UpdateRecordCmdBuild--><path d="M543.598,352.003 C523.661,368.879 498.354,388.013 473,401 C430.943,422.543 399.309,393.165 371,431 C360.953,444.428 362.145,463.627 365.471,478.675 " fill="none" id="PoSendableInSession-UpdateRecordCmdBuild" style="stroke: #A80036; stroke-width: 1.0; stroke-dasharray: 7.0,7.0;"/><polygon fill="none" points="538.989,346.735,558.649,338.829,548.21,357.269,538.989,346.735" style="stroke: #A80036; stroke-width: 1.0;"/><text fill="#000000" font-family="sans-serif" font-size="13" lengthAdjust="spacingAndGlyphs" textLength="67" x="372" y="445.4951">implements</text><!--link PoFciRespPars to OpenSessionRespPars--><!--link OpenSessionRespPars to ReadRecordsRespPars--><!--link ReadRecordsRespPars to CloseSessionRespPars--><!--link OpenSessionCmdBuild to CalypsoPoCommands--><path d="M417.512,597.207 C477.29,554.521 587.683,474.325 678,401 C680.554,398.926 683.134,396.81 685.728,394.662 " fill="none" id="OpenSessionCmdBuild-CalypsoPoCommands" style="stroke: #A80036; stroke-width: 1.0;"/><polygon fill="#A80036" points="695.779,386.249,688.6106,387.033,686.5772,393.9514,693.7456,393.1675,695.779,386.249" style="stroke: #A80036; stroke-width: 1.0;"/><polygon fill="#A80036" points="406.603,604.981,416.2535,603.0142,410.6745,602.0788,411.6099,596.4998,406.603,604.981" style="stroke: #A80036; stroke-width: 1.0;"/><line style="stroke: #A80036; stroke-width: 1.0;" x1="410.6745" x2="417.19" y1="602.0788" y2="597.436"/><text fill="#000000" font-family="sans-serif" font-size="13" lengthAdjust="spacingAndGlyphs" textLength="60" x="579" y="508.4951">references</text><text fill="#000000" font-family="sans-serif" font-size="13" lengthAdjust="spacingAndGlyphs" textLength="7" x="407.0606" y="594.3163">1</text><text fill="#000000" font-family="sans-serif" font-size="13" lengthAdjust="spacingAndGlyphs" textLength="7" x="680.8947" y="389.8597">1</text><!--link CalypsoPoCommands to ReadRecordsCmdBuild--><path d="M725.331,217.28 C712.279,200.65 696.545,185.65 678,176 C624.187,147.99 458.019,146.51 405,176 C366.24,197.56 342.708,244.62 330.285,277.88 " fill="none" id="CalypsoPoCommands-ReadRecordsCmdBuild" style="stroke: #A80036; stroke-width: 1.0;"/><polygon fill="#A80036" points="325.915,290.306,332.6744,283.1429,327.5739,285.5892,325.1276,280.4887,325.915,290.306" style="stroke: #A80036; stroke-width: 1.0;"/><line style="stroke: #A80036; stroke-width: 1.0;" x1="327.5739" x2="330.228" y1="285.5892" y2="278.0425"/><polygon fill="#A80036" points="733.112,227.81,732.7622,220.6074,725.979,218.1601,726.3289,225.3627,733.112,227.81" style="stroke: #A80036; stroke-width: 1.0;"/><text fill="#000000" font-family="sans-serif" font-size="13" lengthAdjust="spacingAndGlyphs" textLength="60" x="518" y="152.4951">references</text><text fill="#000000" font-family="sans-serif" font-size="13" lengthAdjust="spacingAndGlyphs" textLength="7" x="722.2115" y="217.2033">1</text><text fill="#000000" font-family="sans-serif" font-size="13" lengthAdjust="spacingAndGlyphs" textLength="7" x="319.7901" y="279.5964">1</text><!--link CalypsoPoCommands to UpdateRecordCmdBuild--><path d="M684.538,397.74 C682.373,398.887 680.193,399.976 678,401 C597.75,438.466 563.688,399.276 481,431 C456.192,440.518 431.226,456.423 411.556,470.769 " fill="none" id="CalypsoPoCommands-UpdateRecordCmdBuild" style="stroke: #A80036; stroke-width: 1.0;"/><polygon fill="#A80036" points="400.919,478.751,410.5183,476.548,404.9181,475.7498,405.7164,470.1495,400.919,478.751" style="stroke: #A80036; stroke-width: 1.0;"/><line style="stroke: #A80036; stroke-width: 1.0;" x1="404.9181" x2="411.317" y1="475.7498" y2="470.948"/><polygon fill="#A80036" points="695.952,391.092,688.7541,390.6555,685.5828,397.1318,692.7807,397.5683,695.952,391.092" style="stroke: #A80036; stroke-width: 1.0;"/><text fill="#000000" font-family="sans-serif" font-size="13" lengthAdjust="spacingAndGlyphs" textLength="60" x="482" y="445.4951">references</text><text fill="#000000" font-family="sans-serif" font-size="13" lengthAdjust="spacingAndGlyphs" textLength="7" x="681.0841" y="412.6893">1</text><text fill="#000000" font-family="sans-serif" font-size="13" lengthAdjust="spacingAndGlyphs" textLength="7" x="400.1764" y="468.0274">1</text><!--link CalypsoPoCommands to CloseSessionCmdBuild--><path d="M740.908,413.718 C705.68,501.222 642.454,626.607 548,701 C525.513,718.711 497.136,730.525 469.858,738.397 " fill="none" id="CalypsoPoCommands-CloseSessionCmdBuild" style="stroke: #A80036; stroke-width: 1.0;"/><polygon fill="#A80036" points="457.009,741.848,466.7384,743.3772,461.8379,740.5513,464.6638,735.6509,457.009,741.848" style="stroke: #A80036; stroke-width: 1.0;"/><line style="stroke: #A80036; stroke-width: 1.0;" x1="461.8379" x2="469.564" y1="740.5513" y2="738.4755"/><polygon fill="#A80036" points="745.798,401.362,739.8711,405.4696,741.3832,412.5204,747.31,408.4128,745.798,401.362" style="stroke: #A80036; stroke-width: 1.0;"/><text fill="#000000" font-family="sans-serif" font-size="13" lengthAdjust="spacingAndGlyphs" textLength="60" x="670" y="571.4951">references</text><text fill="#000000" font-family="sans-serif" font-size="13" lengthAdjust="spacingAndGlyphs" textLength="7" x="736.2943" y="422.1517">1</text><text fill="#000000" font-family="sans-serif" font-size="13" lengthAdjust="spacingAndGlyphs" textLength="7" x="464.984" y="737.4094">1</text><!--link CalypsoPoCommands to PoFciRespPars--><path d="M867.334,314.5 C890.587,314.5 915.22,314.5 937.354,314.5 " fill="none" id="CalypsoPoCommands-PoFciRespPars" style="stroke: #A80036; stroke-width: 1.0;"/><polygon fill="#A80036" points="950.422,314.5,941.422,310.5,945.422,314.5,941.422,318.5,950.422,314.5" style="stroke: #A80036; stroke-width: 1.0;"/><line style="stroke: #A80036; stroke-width: 1.0;" x1="945.422" x2="937.422" y1="314.5" y2="314.5"/><polygon fill="#A80036" points="854.233,314.5,860.233,318.5,866.233,314.5,860.233,310.5,854.233,314.5" style="stroke: #A80036; stroke-width: 1.0;"/><text fill="#000000" font-family="sans-serif" font-size="13" lengthAdjust="spacingAndGlyphs" textLength="60" x="872.25" y="307.9951">references</text><text fill="#000000" font-family="sans-serif" font-size="13" lengthAdjust="spacingAndGlyphs" textLength="7" x="862.1185" y="311.2721">1</text><text fill="#000000" font-family="sans-serif" font-size="13" lengthAdjust="spacingAndGlyphs" textLength="7" x="935.3401" y="310.9926">1</text><!--link CalypsoPoCommands to OpenSessionRespPars--><path d="M864.646,390.481 C888.042,409.744 913.335,430.303 937,449 C946.027,456.132 955.815,463.664 965.131,470.742 " fill="none" id="CalypsoPoCommands-OpenSessionRespPars" style="stroke: #A80036; stroke-width: 1.0;"/><polygon fill="#A80036" points="975.776,478.791,971.0091,470.1726,971.7876,475.7756,966.1845,476.5541,975.776,478.791" style="stroke: #A80036; stroke-width: 1.0;"/><line style="stroke: #A80036; stroke-width: 1.0;" x1="971.7876" x2="965.406" y1="475.7756" y2="470.9505"/><polygon fill="#A80036" points="854.395,382.024,856.478,388.9277,863.6518,389.6602,861.5688,382.7565,854.395,382.024" style="stroke: #A80036; stroke-width: 1.0;"/><text fill="#000000" font-family="sans-serif" font-size="13" lengthAdjust="spacingAndGlyphs" textLength="60" x="938" y="445.4951">references</text><text fill="#000000" font-family="sans-serif" font-size="13" lengthAdjust="spacingAndGlyphs" textLength="7" x="862.0369" y="385.0447">1</text><text fill="#000000" font-family="sans-serif" font-size="13" lengthAdjust="spacingAndGlyphs" textLength="7" x="959.878" y="468.0776">1</text><!--link CalypsoPoCommands to ReadRecordsRespPars--><path d="M792.54,413.798 C802.999,452.034 819.428,494.393 845,527 C869.392,558.102 906.208,582.211 938.481,599.062 " fill="none" id="CalypsoPoCommands-ReadRecordsRespPars" style="stroke: #A80036; stroke-width: 1.0;"/><polygon fill="#A80036" points="950.134,604.942,943.9007,597.3166,945.67,602.6897,940.297,604.459,950.134,604.942" style="stroke: #A80036; stroke-width: 1.0;"/><line style="stroke: #A80036; stroke-width: 1.0;" x1="945.67" x2="938.5275" y1="602.6897" y2="599.086"/><polygon fill="#A80036" points="789.217,401.008,786.8549,407.8213,792.2356,412.6221,794.5977,405.8089,789.217,401.008" style="stroke: #A80036; stroke-width: 1.0;"/><text fill="#000000" font-family="sans-serif" font-size="13" lengthAdjust="spacingAndGlyphs" textLength="60" x="846" y="508.4951">references</text><text fill="#000000" font-family="sans-serif" font-size="13" lengthAdjust="spacingAndGlyphs" textLength="7" x="783.071" y="422.0672">1</text><text fill="#000000" font-family="sans-serif" font-size="13" lengthAdjust="spacingAndGlyphs" textLength="7" x="927.9215" y="594.2673">1</text><!--link CalypsoPoCommands to CloseSessionRespPars--><path d="M770.501,414.517 C772.133,465.096 780.404,526.108 806,575 C839.948,639.846 907.457,692.659 954.376,723.698 " fill="none" id="CalypsoPoCommands-CloseSessionRespPars" style="stroke: #A80036; stroke-width: 1.0;"/><polygon fill="#A80036" points="965.531,730.926,960.1535,722.6748,961.335,728.2069,955.8029,729.3884,965.531,730.926" style="stroke: #A80036; stroke-width: 1.0;"/><line style="stroke: #A80036; stroke-width: 1.0;" x1="961.335" x2="954.6215" y1="728.2069" y2="723.8565"/><polygon fill="#A80036" points="770.215,401.224,766.3452,407.3088,770.4735,413.2212,774.3433,407.1365,770.215,401.224" style="stroke: #A80036; stroke-width: 1.0;"/><text fill="#000000" font-family="sans-serif" font-size="13" lengthAdjust="spacingAndGlyphs" textLength="60" x="807" y="571.4951">references</text><text fill="#000000" font-family="sans-serif" font-size="13" lengthAdjust="spacingAndGlyphs" textLength="7" x="762.5807" y="422.0031">1</text><text fill="#000000" font-family="sans-serif" font-size="13" lengthAdjust="spacingAndGlyphs" textLength="7" x="947.5202" y="720.2472">1</text><!--link PoRevision to AbstractPoCommandBuilder--><path d="M194.754,920 C206.249,920 217.745,920 229.241,920 " fill="none" id="PoRevision-AbstractPoCommandBuilder" style="stroke: #A80036; stroke-width: 1.0;"/><text fill="#000000" font-family="sans-serif" font-size="13" lengthAdjust="spacingAndGlyphs" textLength="15" x="202.5241" y="916.4294">+1</text><text fill="#000000" font-family="sans-serif" font-size="13" lengthAdjust="spacingAndGlyphs" textLength="20" x="202.4761" y="917.1581">1..*</text><!--link OpenSessionCmdBuild to AbstractPoCommandBuilder--><path d="M315.457,653.043 C282.451,669.427 244.105,694.969 225,731 C206.678,765.554 203.77,786.152 225,819 C239.516,841.459 260.414,858.925 283.654,872.493 " fill="none" id="OpenSessionCmdBuild-AbstractPoCommandBuilder" style="stroke: #A80036; stroke-width: 1.0;"/><polygon fill="none" points="286.999,866.344,301.372,881.914,280.426,878.705,286.999,866.344" style="stroke: #A80036; stroke-width: 1.0;"/><text fill="#000000" font-family="sans-serif" font-size="13" lengthAdjust="spacingAndGlyphs" textLength="46" x="226" y="760.4951">extends</text><!--link ReadRecordsCmdBuild to AbstractPoCommandBuilder--><path d="M304.588,338.605 C261.342,410.995 139.484,639.274 203,819 C210.592,840.481 224.452,857.389 241.858,870.691 " fill="none" id="ReadRecordsCmdBuild-AbstractPoCommandBuilder" style="stroke: #A80036; stroke-width: 1.0;"/><polygon fill="none" points="245.976,865.023,258.761,881.921,238.229,876.684,245.976,865.023" style="stroke: #A80036; stroke-width: 1.0;"/><text fill="#000000" font-family="sans-serif" font-size="13" lengthAdjust="spacingAndGlyphs" textLength="46" x="197" y="634.4951">extends</text><!--link UpdateRecordCmdBuild to AbstractPoCommandBuilder--><path d="M406.824,527.001 C430.247,545.111 459.543,572.648 473,605 C508.164,689.539 486.229,797.767 466.83,862.564 " fill="none" id="UpdateRecordCmdBuild-AbstractPoCommandBuilder" style="stroke: #A80036; stroke-width: 1.0;"/><polygon fill="none" points="473.393,865.026,460.696,881.991,460.042,860.811,473.393,865.026" style="stroke: #A80036; stroke-width: 1.0;"/><text fill="#000000" font-family="sans-serif" font-size="13" lengthAdjust="spacingAndGlyphs" textLength="46" x="493" y="697.4951">extends</text><!--link CloseSessionCmdBuild to AbstractPoCommandBuilder--><path d="M384.304,779.008 C394.091,800.86 409.187,834.568 422.114,863.432 " fill="none" id="CloseSessionCmdBuild-AbstractPoCommandBuilder" style="stroke: #A80036; stroke-width: 1.0;"/><polygon fill="none" points="428.634,860.866,430.421,881.98,415.857,866.588,428.634,860.866" style="stroke: #A80036; stroke-width: 1.0;"/><text fill="#000000" font-family="sans-serif" font-size="13" lengthAdjust="spacingAndGlyphs" textLength="46" x="414" y="841.4951">extends</text><!--link org.eclipse.keyple.calypso.command.po.builder to AbstractPoCommandBuilder--><!--link AbstractPoCommandBuilder to AbstractApduCommandBuilder--><path d="M415.509,958.034 C389.582,988.524 351.896,1032.844 319.133,1071.374 " fill="none" id="AbstractPoCommandBuilder-AbstractApduCommandBuilder" style="stroke: #A80036; stroke-width: 1.0;"/><polygon fill="none" points="324.44,1075.939,306.151,1086.641,313.774,1066.87,324.44,1075.939" style="stroke: #A80036; stroke-width: 1.0;"/><text fill="#000000" font-family="sans-serif" font-size="13" lengthAdjust="spacingAndGlyphs" textLength="46" x="380" y="1011.4951">extends</text><!--link PoFciRespPars to AbstractApduResponseParser--><path d="M1069.63,322.94 C1162.46,338.226 1331,382.441 1331,502 C1331,502 1331,502 1331,921 C1331,973.183 1309.02,1026.847 1285.56,1069.251 " fill="none" id="PoFciRespPars-AbstractApduResponseParser" style="stroke: #A80036; stroke-width: 1.0;"/><polygon fill="none" points="1291.55,1072.884,1275.48,1086.698,1279.42,1065.879,1291.55,1072.884" style="stroke: #A80036; stroke-width: 1.0;"/><text fill="#000000" font-family="sans-serif" font-size="13" lengthAdjust="spacingAndGlyphs" textLength="46" x="1332" y="697.4951">extends</text><!--link OpenSessionRespPars to AbstractApduResponseParser--><path d="M1089.09,515.782 C1152.67,530.091 1230,561.221 1230,628 C1230,628 1230,628 1230,921 C1230,969.255 1230,1023.193 1230,1066.753 " fill="none" id="OpenSessionRespPars-AbstractApduResponseParser" style="stroke: #A80036; stroke-width: 1.0;"/><polygon fill="none" points="1237,1066.919,1230,1086.919,1223,1066.919,1237,1066.919" style="stroke: #A80036; stroke-width: 1.0;"/><text fill="#000000" font-family="sans-serif" font-size="13" lengthAdjust="spacingAndGlyphs" textLength="46" x="1231" y="760.4951">extends</text><!--link ReadRecordsRespPars to AbstractApduResponseParser--><path d="M1035.83,653.124 C1058.14,671.883 1087.8,700.195 1106,731 C1139.69,788.023 1184.88,961.851 1210.36,1067.318 " fill="none" id="ReadRecordsRespPars-AbstractApduResponseParser" style="stroke: #A80036; stroke-width: 1.0;"/><polygon fill="none" points="1217.18,1065.728,1215.04,1086.809,1203.57,1068.992,1217.18,1065.728" style="stroke: #A80036; stroke-width: 1.0;"/><text fill="#000000" font-family="sans-serif" font-size="13" lengthAdjust="spacingAndGlyphs" textLength="46" x="1150" y="841.4951">extends</text><!--link CloseSessionRespPars to AbstractApduResponseParser--><path d="M1007.26,779.004 C1012.36,822.605 1027.64,919.157 1068,989 C1085.58,1019.419 1110.27,1048.165 1135.09,1072.78 " fill="none" id="CloseSessionRespPars-AbstractApduResponseParser" style="stroke: #A80036; stroke-width: 1.0;"/><polygon fill="none" points="1140.09,1067.875,1149.66,1086.777,1130.39,1077.973,1140.09,1067.875" style="stroke: #A80036; stroke-width: 1.0;"/><text fill="#000000" font-family="sans-serif" font-size="13" lengthAdjust="spacingAndGlyphs" textLength="46" x="1069" y="925.4951">extends</text><!--
@startuml

package org.eclipse.keyple.command #FFFFFF {

abstract AbstractApduCommandBuilder {
  -CommandsTable commandReference
  -ApduRequest apduRequest
  +AbstractApduCommandBuilder(CommandsTable reference, ApduRequest request)
  +String getName()
  +ApduRequest getApduRequest()
  +Class<? extends AbstractApduResponseParser> getApduResponseParserClass()
}

abstract AbstractApduResponseParser {
  -ApduResponse apduResponse
  +AbstractApduResponseParser(ApduResponse responseToParse)
  +ApduResponse getApduResponse()
  +short getStatusCode()
  +boolean isSuccessful()
  +String getStatusInformation()
}

interface CommandsTable {
  +String getName()
  +byte getInstructionByte()
  +Class<? extends AbstractApduCommandBuilder> getCommandBuilderClass()
  +Class<? extends AbstractApduResponseParser> getResponseParserClass()
}

CommandsTable "1" *-left-> "*" AbstractApduCommandBuilder : references
CommandsTable "1" *-right-> "*" AbstractApduResponseParser : references
}
package org.eclipse.keyple.calypso.command.po #FFFFFF {

interface PoSendableInSession

package org.eclipse.keyple.calypso.command.po.builder #FFFFFF {

class ReadRecordsCmdBuild
class UpdateRecordCmdBuild
class OpenSessionCmdBuild
class CloseSessionCmdBuild

ReadRecordsCmdBuild -down[hidden]- UpdateRecordCmdBuild
UpdateRecordCmdBuild -down[hidden]- OpenSessionCmdBuild
OpenSessionCmdBuild -down[hidden]- CloseSessionCmdBuild

ReadRecordsCmdBuild .left.|> PoSendableInSession : implements
UpdateRecordCmdBuild .left.|> PoSendableInSession : implements
}

enum CalypsoPoCommands {
  PO_GET_DATA_FCI
  PO_OPEN_SESSION_24
  PO_OPEN_SESSION_31
  PO_OPEN_SESSION_32
  PO_CLOSE_SESSION
  PO_READ_RECORDS
  PO_UPDATE_RECORD
  PO_APPEND_RECORD
  PO_GET_CHALLENGE
}

package org.eclipse.keyple.calypso.command.po.parser #FFFFFF {
class PoFciRespPars
class OpenSessionRespPars
class ReadRecordsRespPars
class CloseSessionRespPars

PoFciRespPars -down[hidden]- OpenSessionRespPars
OpenSessionRespPars -down[hidden]- ReadRecordsRespPars
ReadRecordsRespPars -down[hidden]- CloseSessionRespPars
}

CalypsoPoCommands "1" *-left-> "1" OpenSessionCmdBuild : references
CalypsoPoCommands "1" *- -> "1" ReadRecordsCmdBuild : references
CalypsoPoCommands "1" *- -> "1" UpdateRecordCmdBuild : references
CalypsoPoCommands "1" *- -> "1" CloseSessionCmdBuild : references

CalypsoPoCommands "1" *-right-> "1" PoFciRespPars : references
CalypsoPoCommands "1" *- -> "1" OpenSessionRespPars : references
CalypsoPoCommands "1" *- -> "1" ReadRecordsRespPars : references
CalypsoPoCommands "1" *- -> "1" CloseSessionRespPars : references

abstract AbstractPoCommandBuilder {
  #CsmRevision defaultRevision = PoRevision.REV3_1
  +AbstractPoCommandBuilder(CalypsoPoCommands reference, ApduRequest request)
}

enum PoRevision {
  REV2_4
  REV3_1
  REV3_2
}

PoRevision "+1" -right- "1..*" AbstractPoCommandBuilder

OpenSessionCmdBuild - -|> AbstractPoCommandBuilder : extends
ReadRecordsCmdBuild - -|> AbstractPoCommandBuilder : extends
UpdateRecordCmdBuild - -|> AbstractPoCommandBuilder : extends
CloseSessionCmdBuild - -|> AbstractPoCommandBuilder : extends

org.eclipse.keyple.calypso.command.po.builder -down[hidden]- AbstractPoCommandBuilder
}

AbstractPoCommandBuilder -down-|> AbstractApduCommandBuilder : extends

PoFciRespPars- -|> AbstractApduResponseParser : extends
OpenSessionRespPars - -|> AbstractApduResponseParser : extends
ReadRecordsRespPars - -|> AbstractApduResponseParser : extends
CloseSessionRespPars - -|> AbstractApduResponseParser : extends
@enduml

PlantUML version 1.2018.01(Sun Jan 28 22:08:22 MUT 2018)
(APACHE source distribution)
Java Runtime: Java(TM) SE Runtime Environment
JVM: Java HotSpot(TM) 64-Bit Server VM
Java Version: 10.0.1+10
Operating System: Windows 10
OS Version: 10.0
Default Encoding: Cp1252
Language: fr
Country: FR
--></g></svg>