<?xml version="1.0" encoding="UTF-8" standalone="no"?><svg xmlns="http://www.w3.org/2000/svg" xmlns:xlink="http://www.w3.org/1999/xlink" contentScriptType="application/ecmascript" contentStyleType="text/css" height="940px" preserveAspectRatio="none" style="width:1850px;height:940px;" version="1.1" viewBox="0 0 1850 940" width="1850px" zoomAndPan="magnify"><defs><filter height="300%" id="fm7wx1zepkrfl" width="300%" x="-1" y="-1"><feGaussianBlur result="blurOut" stdDeviation="2.0"/><feColorMatrix in="blurOut" result="blurOut2" type="matrix" values="0 0 0 0 0 0 0 0 0 0 0 0 0 0 0 0 0 0 .4 0"/><feOffset dx="4.0" dy="4.0" in="blurOut2" result="blurOut3"/><feBlend in="SourceGraphic" in2="blurOut3" mode="normal"/></filter></defs><g><!--cluster org.eclipse.keyple.commands--><polygon fill="#FFFFFF" filter="url(#fm7wx1zepkrfl)" points="492,725,706,725,713,748.6094,1828,748.6094,1828,928,492,928,492,725" style="stroke: #000000; stroke-width: 1.5;"/><line style="stroke: #000000; stroke-width: 1.5;" x1="492" x2="713" y1="748.6094" y2="748.6094"/><text fill="#000000" font-family="sans-serif" font-size="14" font-weight="bold" lengthAdjust="spacingAndGlyphs" textLength="208" x="496" y="741.5332">org.eclipse.keyple.commands</text><!--cluster org.eclipse.keyple.calypso.commands--><polygon fill="#FFFFFF" filter="url(#fm7wx1zepkrfl)" points="22,24,293,24,300,47.6094,1628,47.6094,1628,675,22,675,22,24" style="stroke: #000000; stroke-width: 1.5;"/><line style="stroke: #000000; stroke-width: 1.5;" x1="22" x2="300" y1="47.6094" y2="47.6094"/><text fill="#000000" font-family="sans-serif" font-size="14" font-weight="bold" lengthAdjust="spacingAndGlyphs" textLength="265" x="26" y="40.5332">org.eclipse.keyple.calypso.commands</text><!--cluster org.eclipse.keyple.calypso.commands.po--><polygon fill="#FFFFFF" filter="url(#fm7wx1zepkrfl)" points="196,68,489,68,496,91.6094,1604,91.6094,1604,651,196,651,196,68" style="stroke: #000000; stroke-width: 1.5;"/><line style="stroke: #000000; stroke-width: 1.5;" x1="196" x2="496" y1="91.6094" y2="91.6094"/><text fill="#000000" font-family="sans-serif" font-size="14" font-weight="bold" lengthAdjust="spacingAndGlyphs" textLength="287" x="200" y="84.5332">org.eclipse.keyple.calypso.commands.po</text><!--cluster org.eclipse.keyple.calypso.commands.po.builder--><polygon fill="#FFFFFF" filter="url(#fm7wx1zepkrfl)" points="220,361,567,361,574,384.6094,810,384.6094,810,481,220,481,220,361" style="stroke: #000000; stroke-width: 1.5;"/><line style="stroke: #000000; stroke-width: 1.5;" x1="220" x2="574" y1="384.6094" y2="384.6094"/><text fill="#000000" font-family="sans-serif" font-size="14" font-weight="bold" lengthAdjust="spacingAndGlyphs" textLength="341" x="224" y="377.5332">org.eclipse.keyple.calypso.commands.po.builder</text><!--cluster org.eclipse.keyple.calypso.commands.po.parser--><polygon fill="#FFFFFF" filter="url(#fm7wx1zepkrfl)" points="834,361,1177,361,1184,384.6094,1580,384.6094,1580,481,834,481,834,361" style="stroke: #000000; stroke-width: 1.5;"/><line style="stroke: #000000; stroke-width: 1.5;" x1="834" x2="1184" y1="384.6094" y2="384.6094"/><text fill="#000000" font-family="sans-serif" font-size="14" font-weight="bold" lengthAdjust="spacingAndGlyphs" textLength="337" x="838" y="377.5332">org.eclipse.keyple.calypso.commands.po.parser</text><!--class AbstractApduCommandBuilder--><rect fill="#FEFECE" filter="url(#fm7wx1zepkrfl)" height="131.0156" id="AbstractApduCommandBuilder" style="stroke: #A80036; stroke-width: 1.5;" width="425" x="508.5" y="781"/><ellipse cx="630.75" cy="797" fill="#A9DCDF" rx="11" ry="11" style="stroke: #A80036; stroke-width: 1.0;"/><path d="M632.9375,798.7656 L628.7969,798.7656 L628.375,799.7969 L628.7969,799.7969 Q629.4063,799.7969 629.6719,800.0313 Q629.9375,800.2656 629.9375,800.6563 Q629.9375,801.0313 629.6719,801.2656 Q629.4063,801.5 628.7969,801.5 L626.5,801.5 Q625.8906,801.5 625.6328,801.2656 Q625.375,801.0313 625.375,800.6406 Q625.375,800.2656 625.6484,800.0234 Q625.9219,799.7813 626.5469,799.7969 L629.2188,793.1406 L628.1094,793.1406 Q627.5,793.1406 627.2344,792.9063 Q626.9688,792.6719 626.9688,792.2813 Q626.9688,791.9063 627.2344,791.6719 Q627.5,791.4375 628.1094,791.4375 L631.7813,791.4375 L635.1719,799.7969 Q635.7656,799.7969 635.9531,799.9375 Q636.3438,800.2031 636.3438,800.6563 Q636.3438,801.0313 636.0859,801.2656 Q635.8281,801.5 635.2188,801.5 L632.9219,801.5 Q632.3125,801.5 632.0469,801.2656 Q631.7813,801.0313 631.7813,800.6406 Q631.7813,800.2656 632.0469,800.0313 Q632.3125,799.7969 632.9219,799.7969 L633.3438,799.7969 L632.9375,798.7656 Z M632.2188,797.0625 L630.8594,793.6875 L629.4844,797.0625 L632.2188,797.0625 Z "/><text fill="#000000" font-family="sans-serif" font-size="12" font-style="italic" lengthAdjust="spacingAndGlyphs" textLength="172" x="651.25" y="801.9102">AbstractApduCommandBuilder</text><line style="stroke: #A80036; stroke-width: 1.5;" x1="509.5" x2="932.5" y1="813" y2="813"/><rect fill="none" height="6" style="stroke: #C82930; stroke-width: 1.0;" width="6" x="516.5" y="822.418"/><text fill="#000000" font-family="sans-serif" font-size="11" lengthAdjust="spacingAndGlyphs" textLength="179" x="528.5" y="828.4189">CommandsTable commandReference</text><rect fill="none" height="6" style="stroke: #C82930; stroke-width: 1.0;" width="6" x="516.5" y="836.2539"/><text fill="#000000" font-family="sans-serif" font-size="11" lengthAdjust="spacingAndGlyphs" textLength="133" x="528.5" y="842.2549">ApduRequest apduRequest</text><line style="stroke: #A80036; stroke-width: 1.5;" x1="509.5" x2="932.5" y1="848.6719" y2="848.6719"/><ellipse cx="519.5" cy="861.0898" fill="#84BE84" rx="3" ry="3" style="stroke: #038048; stroke-width: 1.0;"/><text fill="#000000" font-family="sans-serif" font-size="11" lengthAdjust="spacingAndGlyphs" textLength="398" x="528.5" y="864.0908">AbstractApduCommandBuilder(CommandsTable reference, ApduRequest request)</text><ellipse cx="519.5" cy="874.9258" fill="#84BE84" rx="3" ry="3" style="stroke: #038048; stroke-width: 1.0;"/><text fill="#000000" font-family="sans-serif" font-size="11" lengthAdjust="spacingAndGlyphs" textLength="81" x="528.5" y="877.9268">String getName()</text><ellipse cx="519.5" cy="888.7617" fill="#84BE84" rx="3" ry="3" style="stroke: #038048; stroke-width: 1.0;"/><text fill="#000000" font-family="sans-serif" font-size="11" lengthAdjust="spacingAndGlyphs" textLength="158" x="528.5" y="891.7627">ApduRequest getApduRequest()</text><ellipse cx="519.5" cy="902.5977" fill="#84BE84" rx="3" ry="3" style="stroke: #038048; stroke-width: 1.0;"/><text fill="#000000" font-family="sans-serif" font-size="11" lengthAdjust="spacingAndGlyphs" textLength="399" x="528.5" y="905.5986">Class&lt;? extends AbstractApduResponseParser&gt; getApduResponseParserClass()</text><!--class AbstractApduResponseParser--><rect fill="#FEFECE" filter="url(#fm7wx1zepkrfl)" height="131.0156" id="AbstractApduResponseParser" style="stroke: #A80036; stroke-width: 1.5;" width="347" x="968.5" y="781"/><ellipse cx="1054.75" cy="797" fill="#A9DCDF" rx="11" ry="11" style="stroke: #A80036; stroke-width: 1.0;"/><path d="M1056.9375,798.7656 L1052.7969,798.7656 L1052.375,799.7969 L1052.7969,799.7969 Q1053.4063,799.7969 1053.6719,800.0313 Q1053.9375,800.2656 1053.9375,800.6563 Q1053.9375,801.0313 1053.6719,801.2656 Q1053.4063,801.5 1052.7969,801.5 L1050.5,801.5 Q1049.8906,801.5 1049.6328,801.2656 Q1049.375,801.0313 1049.375,800.6406 Q1049.375,800.2656 1049.6484,800.0234 Q1049.9219,799.7813 1050.5469,799.7969 L1053.2188,793.1406 L1052.1094,793.1406 Q1051.5,793.1406 1051.2344,792.9063 Q1050.9688,792.6719 1050.9688,792.2813 Q1050.9688,791.9063 1051.2344,791.6719 Q1051.5,791.4375 1052.1094,791.4375 L1055.7813,791.4375 L1059.1719,799.7969 Q1059.7656,799.7969 1059.9531,799.9375 Q1060.3438,800.2031 1060.3438,800.6563 Q1060.3438,801.0313 1060.0859,801.2656 Q1059.8281,801.5 1059.2188,801.5 L1056.9219,801.5 Q1056.3125,801.5 1056.0469,801.2656 Q1055.7813,801.0313 1055.7813,800.6406 Q1055.7813,800.2656 1056.0469,800.0313 Q1056.3125,799.7969 1056.9219,799.7969 L1057.3438,799.7969 L1056.9375,798.7656 Z M1056.2188,797.0625 L1054.8594,793.6875 L1053.4844,797.0625 L1056.2188,797.0625 Z "/><text fill="#000000" font-family="sans-serif" font-size="12" font-style="italic" lengthAdjust="spacingAndGlyphs" textLength="166" x="1075.25" y="801.9102">AbstractApduResponseParser</text><line style="stroke: #A80036; stroke-width: 1.5;" x1="969.5" x2="1314.5" y1="813" y2="813"/><rect fill="none" height="6" style="stroke: #C82930; stroke-width: 1.0;" width="6" x="976.5" y="822.418"/><text fill="#000000" font-family="sans-serif" font-size="11" lengthAdjust="spacingAndGlyphs" textLength="151" x="988.5" y="828.4189">ApduResponse apduResponse</text><line style="stroke: #A80036; stroke-width: 1.5;" x1="969.5" x2="1314.5" y1="834.8359" y2="834.8359"/><ellipse cx="979.5" cy="847.2539" fill="#84BE84" rx="3" ry="3" style="stroke: #038048; stroke-width: 1.0;"/><text fill="#000000" font-family="sans-serif" font-size="11" lengthAdjust="spacingAndGlyphs" textLength="321" x="988.5" y="850.2549">AbstractApduResponseParser(ApduResponse responseToParse)</text><ellipse cx="979.5" cy="861.0898" fill="#84BE84" rx="3" ry="3" style="stroke: #038048; stroke-width: 1.0;"/><text fill="#000000" font-family="sans-serif" font-size="11" lengthAdjust="spacingAndGlyphs" textLength="176" x="988.5" y="864.0908">ApduResponse getApduResponse()</text><ellipse cx="979.5" cy="874.9258" fill="#84BE84" rx="3" ry="3" style="stroke: #038048; stroke-width: 1.0;"/><text fill="#000000" font-family="sans-serif" font-size="11" lengthAdjust="spacingAndGlyphs" textLength="107" x="988.5" y="877.9268">short getStatusCode()</text><ellipse cx="979.5" cy="888.7617" fill="#84BE84" rx="3" ry="3" style="stroke: #038048; stroke-width: 1.0;"/><text fill="#000000" font-family="sans-serif" font-size="11" lengthAdjust="spacingAndGlyphs" textLength="112" x="988.5" y="891.7627">boolean isSuccessful()</text><ellipse cx="979.5" cy="902.5977" fill="#84BE84" rx="3" ry="3" style="stroke: #038048; stroke-width: 1.0;"/><text fill="#000000" font-family="sans-serif" font-size="11" lengthAdjust="spacingAndGlyphs" textLength="138" x="988.5" y="905.5986">String getStatusInformation()</text><!--class CommandsTable--><rect fill="#FEFECE" filter="url(#fm7wx1zepkrfl)" height="103.3438" id="CommandsTable" style="stroke: #A80036; stroke-width: 1.5;" width="399" x="1412.5" y="795"/><ellipse cx="1559.25" cy="811" fill="#B4A7E5" rx="11" ry="11" style="stroke: #A80036; stroke-width: 1.0;"/><path d="M1560.2031,807.6406 L1560.2031,814.2969 L1561.9219,814.2969 Q1562.5313,814.2969 1562.7969,814.5313 Q1563.0625,814.7656 1563.0625,815.1563 Q1563.0625,815.5313 1562.7969,815.7656 Q1562.5313,816 1561.9219,816 L1556.7813,816 Q1556.1719,816 1555.9063,815.7656 Q1555.6406,815.5313 1555.6406,815.1406 Q1555.6406,814.7656 1555.9063,814.5313 Q1556.1719,814.2969 1556.7813,814.2969 L1558.5,814.2969 L1558.5,807.6406 L1556.7813,807.6406 Q1556.1719,807.6406 1555.9063,807.4063 Q1555.6406,807.1719 1555.6406,806.7813 Q1555.6406,806.4063 1555.9063,806.1719 Q1556.1719,805.9375 1556.7813,805.9375 L1561.9219,805.9375 Q1562.5313,805.9375 1562.7969,806.1719 Q1563.0625,806.4063 1563.0625,806.7813 Q1563.0625,807.1719 1562.7969,807.4063 Q1562.5313,807.6406 1561.9219,807.6406 L1560.2031,807.6406 Z "/><text fill="#000000" font-family="sans-serif" font-size="12" font-style="italic" lengthAdjust="spacingAndGlyphs" textLength="97" x="1579.75" y="815.9102">CommandsTable</text><line style="stroke: #A80036; stroke-width: 1.5;" x1="1413.5" x2="1810.5" y1="827" y2="827"/><line style="stroke: #A80036; stroke-width: 1.5;" x1="1413.5" x2="1810.5" y1="835" y2="835"/><ellipse cx="1423.5" cy="847.418" fill="#84BE84" rx="3" ry="3" style="stroke: #038048; stroke-width: 1.0;"/><text fill="#000000" font-family="sans-serif" font-size="11" lengthAdjust="spacingAndGlyphs" textLength="81" x="1432.5" y="850.4189">String getName()</text><ellipse cx="1423.5" cy="861.2539" fill="#84BE84" rx="3" ry="3" style="stroke: #038048; stroke-width: 1.0;"/><text fill="#000000" font-family="sans-serif" font-size="11" lengthAdjust="spacingAndGlyphs" textLength="119" x="1432.5" y="864.2549">byte getInstructionByte()</text><ellipse cx="1423.5" cy="875.0898" fill="#84BE84" rx="3" ry="3" style="stroke: #038048; stroke-width: 1.0;"/><text fill="#000000" font-family="sans-serif" font-size="11" lengthAdjust="spacingAndGlyphs" textLength="371" x="1432.5" y="878.0908">Class&lt;? extends AbstractApduCommandBuilder&gt; getCommandBuilderClass()</text><ellipse cx="1423.5" cy="888.9258" fill="#84BE84" rx="3" ry="3" style="stroke: #038048; stroke-width: 1.0;"/><text fill="#000000" font-family="sans-serif" font-size="11" lengthAdjust="spacingAndGlyphs" textLength="373" x="1432.5" y="891.9268">Class&lt;? extends AbstractApduResponseParser&gt; getResponseParserClass()</text><!--class SendableInSession--><rect fill="#FEFECE" filter="url(#fm7wx1zepkrfl)" height="48" id="SendableInSession" style="stroke: #A80036; stroke-width: 1.5;" width="141" x="38.5" y="186.5"/><ellipse cx="53.5" cy="202.5" fill="#B4A7E5" rx="11" ry="11" style="stroke: #A80036; stroke-width: 1.0;"/><path d="M54.4531,199.1406 L54.4531,205.7969 L56.1719,205.7969 Q56.7813,205.7969 57.0469,206.0313 Q57.3125,206.2656 57.3125,206.6563 Q57.3125,207.0313 57.0469,207.2656 Q56.7813,207.5 56.1719,207.5 L51.0313,207.5 Q50.4219,207.5 50.1563,207.2656 Q49.8906,207.0313 49.8906,206.6406 Q49.8906,206.2656 50.1563,206.0313 Q50.4219,205.7969 51.0313,205.7969 L52.75,205.7969 L52.75,199.1406 L51.0313,199.1406 Q50.4219,199.1406 50.1563,198.9063 Q49.8906,198.6719 49.8906,198.2813 Q49.8906,197.9063 50.1563,197.6719 Q50.4219,197.4375 51.0313,197.4375 L56.1719,197.4375 Q56.7813,197.4375 57.0469,197.6719 Q57.3125,197.9063 57.3125,198.2813 Q57.3125,198.6719 57.0469,198.9063 Q56.7813,199.1406 56.1719,199.1406 L54.4531,199.1406 Z "/><text fill="#000000" font-family="sans-serif" font-size="12" font-style="italic" lengthAdjust="spacingAndGlyphs" textLength="109" x="67.5" y="207.4102">SendableInSession</text><line style="stroke: #A80036; stroke-width: 1.5;" x1="39.5" x2="178.5" y1="218.5" y2="218.5"/><line style="stroke: #A80036; stroke-width: 1.5;" x1="39.5" x2="178.5" y1="226.5" y2="226.5"/><!--class AbstractPoCommandBuilder--><rect fill="#FEFECE" filter="url(#fm7wx1zepkrfl)" height="75.6719" id="AbstractPoCommandBuilder" style="stroke: #A80036; stroke-width: 1.5;" width="435" x="392.5" y="552"/><ellipse cx="526.75" cy="568" fill="#A9DCDF" rx="11" ry="11" style="stroke: #A80036; stroke-width: 1.0;"/><path d="M528.9375,569.7656 L524.7969,569.7656 L524.375,570.7969 L524.7969,570.7969 Q525.4063,570.7969 525.6719,571.0313 Q525.9375,571.2656 525.9375,571.6563 Q525.9375,572.0313 525.6719,572.2656 Q525.4063,572.5 524.7969,572.5 L522.5,572.5 Q521.8906,572.5 521.6328,572.2656 Q521.375,572.0313 521.375,571.6406 Q521.375,571.2656 521.6484,571.0234 Q521.9219,570.7813 522.5469,570.7969 L525.2188,564.1406 L524.1094,564.1406 Q523.5,564.1406 523.2344,563.9063 Q522.9688,563.6719 522.9688,563.2813 Q522.9688,562.9063 523.2344,562.6719 Q523.5,562.4375 524.1094,562.4375 L527.7813,562.4375 L531.1719,570.7969 Q531.7656,570.7969 531.9531,570.9375 Q532.3438,571.2031 532.3438,571.6563 Q532.3438,572.0313 532.0859,572.2656 Q531.8281,572.5 531.2188,572.5 L528.9219,572.5 Q528.3125,572.5 528.0469,572.2656 Q527.7813,572.0313 527.7813,571.6406 Q527.7813,571.2656 528.0469,571.0313 Q528.3125,570.7969 528.9219,570.7969 L529.3438,570.7969 L528.9375,569.7656 Z M528.2188,568.0625 L526.8594,564.6875 L525.4844,568.0625 L528.2188,568.0625 Z "/><text fill="#000000" font-family="sans-serif" font-size="12" font-style="italic" lengthAdjust="spacingAndGlyphs" textLength="158" x="547.25" y="572.9102">AbstractPoCommandBuilder</text><line style="stroke: #A80036; stroke-width: 1.5;" x1="393.5" x2="826.5" y1="584" y2="584"/><polygon fill="none" points="403.5,591.418,407.5,595.418,403.5,599.418,399.5,595.418" style="stroke: #B38D22; stroke-width: 1.0;"/><text fill="#000000" font-family="sans-serif" font-size="11" lengthAdjust="spacingAndGlyphs" textLength="246" x="412.5" y="599.4189">CsmRevision defaultRevision = PoRevision.REV3_1</text><line style="stroke: #A80036; stroke-width: 1.5;" x1="393.5" x2="826.5" y1="605.8359" y2="605.8359"/><ellipse cx="403.5" cy="618.2539" fill="#84BE84" rx="3" ry="3" style="stroke: #038048; stroke-width: 1.0;"/><text fill="#000000" font-family="sans-serif" font-size="11" lengthAdjust="spacingAndGlyphs" textLength="409" x="412.5" y="621.2549">AbstractPoCommandBuilder(CalypsoPoCommands reference, ApduRequest request)</text><!--class PoRevision--><rect fill="#FEFECE" filter="url(#fm7wx1zepkrfl)" height="89.5078" id="PoRevision" style="stroke: #A80036; stroke-width: 1.5;" width="95" x="262.5" y="545"/><ellipse cx="277.5" cy="561" fill="#EB937F" rx="11" ry="11" style="stroke: #A80036; stroke-width: 1.0;"/><path d="M276.3594,561.7969 L276.3594,564.2969 L280.6875,564.2969 L280.6875,563.375 Q280.6875,562.7656 280.9297,562.5 Q281.1719,562.2344 281.5469,562.2344 Q281.9219,562.2344 282.1563,562.5 Q282.3906,562.7656 282.3906,563.375 L282.3906,566 L274.3906,566 Q273.7656,566 273.5078,565.7656 Q273.25,565.5313 273.25,565.1406 Q273.25,564.7656 273.5156,564.5313 Q273.7813,564.2969 274.3906,564.2969 L274.6563,564.2969 L274.6563,557.6406 L274.3906,557.6406 Q273.7656,557.6406 273.5078,557.4063 Q273.25,557.1719 273.25,556.7813 Q273.25,556.4063 273.5078,556.1719 Q273.7656,555.9375 274.3906,555.9375 L282.0156,555.9375 L282.0156,558.5313 Q282.0156,559.1406 281.7891,559.3984 Q281.5625,559.6563 281.1719,559.6563 Q280.7969,559.6563 280.5625,559.3984 Q280.3281,559.1406 280.3281,558.5313 L280.3281,557.6406 L276.3594,557.6406 L276.3594,560.0938 L277.8438,560.0938 Q277.8438,559.4375 277.9688,559.25 Q278.2344,558.8438 278.7031,558.8438 Q279.0781,558.8438 279.3125,559.1016 Q279.5469,559.3594 279.5469,559.9688 L279.5469,561.9375 Q279.5469,562.4844 279.4219,562.6719 Q279.1563,563.0625 278.7031,563.0625 Q278.2344,563.0625 277.9688,562.6563 Q277.8438,562.4688 277.8438,561.7969 L276.3594,561.7969 Z "/><text fill="#000000" font-family="sans-serif" font-size="12" lengthAdjust="spacingAndGlyphs" textLength="63" x="291.5" y="565.9102">PoRevision</text><line style="stroke: #A80036; stroke-width: 1.5;" x1="263.5" x2="356.5" y1="577" y2="577"/><text fill="#000000" font-family="sans-serif" font-size="11" lengthAdjust="spacingAndGlyphs" textLength="39" x="268.5" y="592.4189">REV2_4</text><text fill="#000000" font-family="sans-serif" font-size="11" lengthAdjust="spacingAndGlyphs" textLength="39" x="268.5" y="606.2549">REV3_1</text><text fill="#000000" font-family="sans-serif" font-size="11" lengthAdjust="spacingAndGlyphs" textLength="39" x="268.5" y="620.0908">REV3_2</text><line style="stroke: #A80036; stroke-width: 1.5;" x1="263.5" x2="356.5" y1="626.5078" y2="626.5078"/><!--class CalypsoPoCommands--><rect fill="#FEFECE" filter="url(#fm7wx1zepkrfl)" height="172.5234" id="CalypsoPoCommands" style="stroke: #A80036; stroke-width: 1.5;" width="158" x="937" y="124"/><ellipse cx="952" cy="140" fill="#EB937F" rx="11" ry="11" style="stroke: #A80036; stroke-width: 1.0;"/><path d="M950.8594,140.7969 L950.8594,143.2969 L955.1875,143.2969 L955.1875,142.375 Q955.1875,141.7656 955.4297,141.5 Q955.6719,141.2344 956.0469,141.2344 Q956.4219,141.2344 956.6563,141.5 Q956.8906,141.7656 956.8906,142.375 L956.8906,145 L948.8906,145 Q948.2656,145 948.0078,144.7656 Q947.75,144.5313 947.75,144.1406 Q947.75,143.7656 948.0156,143.5313 Q948.2813,143.2969 948.8906,143.2969 L949.1563,143.2969 L949.1563,136.6406 L948.8906,136.6406 Q948.2656,136.6406 948.0078,136.4063 Q947.75,136.1719 947.75,135.7813 Q947.75,135.4063 948.0078,135.1719 Q948.2656,134.9375 948.8906,134.9375 L956.5156,134.9375 L956.5156,137.5313 Q956.5156,138.1406 956.2891,138.3984 Q956.0625,138.6563 955.6719,138.6563 Q955.2969,138.6563 955.0625,138.3984 Q954.8281,138.1406 954.8281,137.5313 L954.8281,136.6406 L950.8594,136.6406 L950.8594,139.0938 L952.3438,139.0938 Q952.3438,138.4375 952.4688,138.25 Q952.7344,137.8438 953.2031,137.8438 Q953.5781,137.8438 953.8125,138.1016 Q954.0469,138.3594 954.0469,138.9688 L954.0469,140.9375 Q954.0469,141.4844 953.9219,141.6719 Q953.6563,142.0625 953.2031,142.0625 Q952.7344,142.0625 952.4688,141.6563 Q952.3438,141.4688 952.3438,140.7969 L950.8594,140.7969 Z "/><text fill="#000000" font-family="sans-serif" font-size="12" lengthAdjust="spacingAndGlyphs" textLength="126" x="966" y="144.9102">CalypsoPoCommands</text><line style="stroke: #A80036; stroke-width: 1.5;" x1="938" x2="1094" y1="156" y2="156"/><text fill="#000000" font-family="sans-serif" font-size="11" lengthAdjust="spacingAndGlyphs" textLength="96" x="943" y="171.4189">PO_GET_DATA_FCI</text><text fill="#000000" font-family="sans-serif" font-size="11" lengthAdjust="spacingAndGlyphs" textLength="115" x="943" y="185.2549">PO_OPEN_SESSION_24</text><text fill="#000000" font-family="sans-serif" font-size="11" lengthAdjust="spacingAndGlyphs" textLength="115" x="943" y="199.0908">PO_OPEN_SESSION_31</text><text fill="#000000" font-family="sans-serif" font-size="11" lengthAdjust="spacingAndGlyphs" textLength="115" x="943" y="212.9268">PO_OPEN_SESSION_32</text><text fill="#000000" font-family="sans-serif" font-size="11" lengthAdjust="spacingAndGlyphs" textLength="104" x="943" y="226.7627">PO_CLOSE_SESSION</text><text fill="#000000" font-family="sans-serif" font-size="11" lengthAdjust="spacingAndGlyphs" textLength="103" x="943" y="240.5986">PO_READ_RECORDS</text><text fill="#000000" font-family="sans-serif" font-size="11" lengthAdjust="spacingAndGlyphs" textLength="108" x="943" y="254.4346">PO_UPDATE_RECORD</text><text fill="#000000" font-family="sans-serif" font-size="11" lengthAdjust="spacingAndGlyphs" textLength="108" x="943" y="268.2705">PO_APPEND_RECORD</text><text fill="#000000" font-family="sans-serif" font-size="11" lengthAdjust="spacingAndGlyphs" textLength="107" x="943" y="282.1064">PO_GET_CHALLENGE</text><line style="stroke: #A80036; stroke-width: 1.5;" x1="938" x2="1094" y1="288.5234" y2="288.5234"/><!--class OpenSessionCmdBuild--><rect fill="#FEFECE" filter="url(#fm7wx1zepkrfl)" height="48" id="OpenSessionCmdBuild" style="stroke: #A80036; stroke-width: 1.5;" width="163" x="630.5" y="417"/><ellipse cx="645.5" cy="433" fill="#ADD1B2" rx="11" ry="11" style="stroke: #A80036; stroke-width: 1.0;"/><path d="M648.2656,428.875 Q648.4219,428.6563 648.6094,428.5469 Q648.7969,428.4375 649.0156,428.4375 Q649.3906,428.4375 649.625,428.6953 Q649.8594,428.9531 649.8594,429.5625 L649.8594,431.0156 Q649.8594,431.625 649.625,431.8906 Q649.3906,432.1563 649.0156,432.1563 Q648.6719,432.1563 648.4688,431.9531 Q648.2656,431.7656 648.1563,431.25 Q648.1094,430.8906 647.9219,430.7031 Q647.5938,430.3281 646.9844,430.1094 Q646.375,429.8906 645.75,429.8906 Q644.9844,429.8906 644.3516,430.2188 Q643.7188,430.5469 643.2266,431.2969 Q642.7344,432.0469 642.7344,433.0781 L642.7344,434.1719 Q642.7344,435.4063 643.625,436.2266 Q644.5156,437.0469 646.1094,437.0469 Q647.0469,437.0469 647.7031,436.7969 Q648.0938,436.6406 648.5156,436.2031 Q648.7813,435.9375 648.9297,435.8594 Q649.0781,435.7813 649.2813,435.7813 Q649.6094,435.7813 649.8672,436.0391 Q650.125,436.2969 650.125,436.6406 Q650.125,436.9844 649.7813,437.3906 Q649.2813,437.9688 648.4844,438.2969 Q647.4063,438.75 646.1094,438.75 Q644.5938,438.75 643.3906,438.125 Q642.4063,437.625 641.7188,436.5547 Q641.0313,435.4844 641.0313,434.2031 L641.0313,433.0469 Q641.0313,431.7188 641.6484,430.5703 Q642.2656,429.4219 643.3594,428.8047 Q644.4531,428.1875 645.6875,428.1875 Q646.4219,428.1875 647.0703,428.3516 Q647.7188,428.5156 648.2656,428.875 Z "/><text fill="#000000" font-family="sans-serif" font-size="12" lengthAdjust="spacingAndGlyphs" textLength="131" x="659.5" y="437.9102">OpenSessionCmdBuild</text><line style="stroke: #A80036; stroke-width: 1.5;" x1="631.5" x2="792.5" y1="449" y2="449"/><line style="stroke: #A80036; stroke-width: 1.5;" x1="631.5" x2="792.5" y1="457" y2="457"/><!--class ReadRecordCmdBuild--><rect fill="#FEFECE" filter="url(#fm7wx1zepkrfl)" height="48" id="ReadRecordCmdBuild" style="stroke: #A80036; stroke-width: 1.5;" width="157" x="236.5" y="417"/><ellipse cx="251.5" cy="433" fill="#ADD1B2" rx="11" ry="11" style="stroke: #A80036; stroke-width: 1.0;"/><path d="M254.2656,428.875 Q254.4219,428.6563 254.6094,428.5469 Q254.7969,428.4375 255.0156,428.4375 Q255.3906,428.4375 255.625,428.6953 Q255.8594,428.9531 255.8594,429.5625 L255.8594,431.0156 Q255.8594,431.625 255.625,431.8906 Q255.3906,432.1563 255.0156,432.1563 Q254.6719,432.1563 254.4688,431.9531 Q254.2656,431.7656 254.1563,431.25 Q254.1094,430.8906 253.9219,430.7031 Q253.5938,430.3281 252.9844,430.1094 Q252.375,429.8906 251.75,429.8906 Q250.9844,429.8906 250.3516,430.2188 Q249.7188,430.5469 249.2266,431.2969 Q248.7344,432.0469 248.7344,433.0781 L248.7344,434.1719 Q248.7344,435.4063 249.625,436.2266 Q250.5156,437.0469 252.1094,437.0469 Q253.0469,437.0469 253.7031,436.7969 Q254.0938,436.6406 254.5156,436.2031 Q254.7813,435.9375 254.9297,435.8594 Q255.0781,435.7813 255.2813,435.7813 Q255.6094,435.7813 255.8672,436.0391 Q256.125,436.2969 256.125,436.6406 Q256.125,436.9844 255.7813,437.3906 Q255.2813,437.9688 254.4844,438.2969 Q253.4063,438.75 252.1094,438.75 Q250.5938,438.75 249.3906,438.125 Q248.4063,437.625 247.7188,436.5547 Q247.0313,435.4844 247.0313,434.2031 L247.0313,433.0469 Q247.0313,431.7188 247.6484,430.5703 Q248.2656,429.4219 249.3594,428.8047 Q250.4531,428.1875 251.6875,428.1875 Q252.4219,428.1875 253.0703,428.3516 Q253.7188,428.5156 254.2656,428.875 Z "/><text fill="#000000" font-family="sans-serif" font-size="12" lengthAdjust="spacingAndGlyphs" textLength="125" x="265.5" y="437.9102">ReadRecordCmdBuild</text><line style="stroke: #A80036; stroke-width: 1.5;" x1="237.5" x2="392.5" y1="449" y2="449"/><line style="stroke: #A80036; stroke-width: 1.5;" x1="237.5" x2="392.5" y1="457" y2="457"/><!--class CloseSessionCmdBuild--><rect fill="#FEFECE" filter="url(#fm7wx1zepkrfl)" height="48" id="CloseSessionCmdBuild" style="stroke: #A80036; stroke-width: 1.5;" width="166" x="429" y="417"/><ellipse cx="444" cy="433" fill="#ADD1B2" rx="11" ry="11" style="stroke: #A80036; stroke-width: 1.0;"/><path d="M446.7656,428.875 Q446.9219,428.6563 447.1094,428.5469 Q447.2969,428.4375 447.5156,428.4375 Q447.8906,428.4375 448.125,428.6953 Q448.3594,428.9531 448.3594,429.5625 L448.3594,431.0156 Q448.3594,431.625 448.125,431.8906 Q447.8906,432.1563 447.5156,432.1563 Q447.1719,432.1563 446.9688,431.9531 Q446.7656,431.7656 446.6563,431.25 Q446.6094,430.8906 446.4219,430.7031 Q446.0938,430.3281 445.4844,430.1094 Q444.875,429.8906 444.25,429.8906 Q443.4844,429.8906 442.8516,430.2188 Q442.2188,430.5469 441.7266,431.2969 Q441.2344,432.0469 441.2344,433.0781 L441.2344,434.1719 Q441.2344,435.4063 442.125,436.2266 Q443.0156,437.0469 444.6094,437.0469 Q445.5469,437.0469 446.2031,436.7969 Q446.5938,436.6406 447.0156,436.2031 Q447.2813,435.9375 447.4297,435.8594 Q447.5781,435.7813 447.7813,435.7813 Q448.1094,435.7813 448.3672,436.0391 Q448.625,436.2969 448.625,436.6406 Q448.625,436.9844 448.2813,437.3906 Q447.7813,437.9688 446.9844,438.2969 Q445.9063,438.75 444.6094,438.75 Q443.0938,438.75 441.8906,438.125 Q440.9063,437.625 440.2188,436.5547 Q439.5313,435.4844 439.5313,434.2031 L439.5313,433.0469 Q439.5313,431.7188 440.1484,430.5703 Q440.7656,429.4219 441.8594,428.8047 Q442.9531,428.1875 444.1875,428.1875 Q444.9219,428.1875 445.5703,428.3516 Q446.2188,428.5156 446.7656,428.875 Z "/><text fill="#000000" font-family="sans-serif" font-size="12" lengthAdjust="spacingAndGlyphs" textLength="134" x="458" y="437.9102">CloseSessionCmdBuild</text><line style="stroke: #A80036; stroke-width: 1.5;" x1="430" x2="594" y1="449" y2="449"/><line style="stroke: #A80036; stroke-width: 1.5;" x1="430" x2="594" y1="457" y2="457"/><!--class PoFciRespPars--><rect fill="#FEFECE" filter="url(#fm7wx1zepkrfl)" height="48" id="PoFciRespPars" style="stroke: #A80036; stroke-width: 1.5;" width="119" x="1245.5" y="417"/><ellipse cx="1260.5" cy="433" fill="#ADD1B2" rx="11" ry="11" style="stroke: #A80036; stroke-width: 1.0;"/><path d="M1263.2656,428.875 Q1263.4219,428.6563 1263.6094,428.5469 Q1263.7969,428.4375 1264.0156,428.4375 Q1264.3906,428.4375 1264.625,428.6953 Q1264.8594,428.9531 1264.8594,429.5625 L1264.8594,431.0156 Q1264.8594,431.625 1264.625,431.8906 Q1264.3906,432.1563 1264.0156,432.1563 Q1263.6719,432.1563 1263.4688,431.9531 Q1263.2656,431.7656 1263.1563,431.25 Q1263.1094,430.8906 1262.9219,430.7031 Q1262.5938,430.3281 1261.9844,430.1094 Q1261.375,429.8906 1260.75,429.8906 Q1259.9844,429.8906 1259.3516,430.2188 Q1258.7188,430.5469 1258.2266,431.2969 Q1257.7344,432.0469 1257.7344,433.0781 L1257.7344,434.1719 Q1257.7344,435.4063 1258.625,436.2266 Q1259.5156,437.0469 1261.1094,437.0469 Q1262.0469,437.0469 1262.7031,436.7969 Q1263.0938,436.6406 1263.5156,436.2031 Q1263.7813,435.9375 1263.9297,435.8594 Q1264.0781,435.7813 1264.2813,435.7813 Q1264.6094,435.7813 1264.8672,436.0391 Q1265.125,436.2969 1265.125,436.6406 Q1265.125,436.9844 1264.7813,437.3906 Q1264.2813,437.9688 1263.4844,438.2969 Q1262.4063,438.75 1261.1094,438.75 Q1259.5938,438.75 1258.3906,438.125 Q1257.4063,437.625 1256.7188,436.5547 Q1256.0313,435.4844 1256.0313,434.2031 L1256.0313,433.0469 Q1256.0313,431.7188 1256.6484,430.5703 Q1257.2656,429.4219 1258.3594,428.8047 Q1259.4531,428.1875 1260.6875,428.1875 Q1261.4219,428.1875 1262.0703,428.3516 Q1262.7188,428.5156 1263.2656,428.875 Z "/><text fill="#000000" font-family="sans-serif" font-size="12" lengthAdjust="spacingAndGlyphs" textLength="87" x="1274.5" y="437.9102">PoFciRespPars</text><line style="stroke: #A80036; stroke-width: 1.5;" x1="1246.5" x2="1363.5" y1="449" y2="449"/><line style="stroke: #A80036; stroke-width: 1.5;" x1="1246.5" x2="1363.5" y1="457" y2="457"/><!--class OpenSessionRespPars--><rect fill="#FEFECE" filter="url(#fm7wx1zepkrfl)" height="48" id="OpenSessionRespPars" style="stroke: #A80036; stroke-width: 1.5;" width="164" x="1400" y="417"/><ellipse cx="1415" cy="433" fill="#ADD1B2" rx="11" ry="11" style="stroke: #A80036; stroke-width: 1.0;"/><path d="M1417.7656,428.875 Q1417.9219,428.6563 1418.1094,428.5469 Q1418.2969,428.4375 1418.5156,428.4375 Q1418.8906,428.4375 1419.125,428.6953 Q1419.3594,428.9531 1419.3594,429.5625 L1419.3594,431.0156 Q1419.3594,431.625 1419.125,431.8906 Q1418.8906,432.1563 1418.5156,432.1563 Q1418.1719,432.1563 1417.9688,431.9531 Q1417.7656,431.7656 1417.6563,431.25 Q1417.6094,430.8906 1417.4219,430.7031 Q1417.0938,430.3281 1416.4844,430.1094 Q1415.875,429.8906 1415.25,429.8906 Q1414.4844,429.8906 1413.8516,430.2188 Q1413.2188,430.5469 1412.7266,431.2969 Q1412.2344,432.0469 1412.2344,433.0781 L1412.2344,434.1719 Q1412.2344,435.4063 1413.125,436.2266 Q1414.0156,437.0469 1415.6094,437.0469 Q1416.5469,437.0469 1417.2031,436.7969 Q1417.5938,436.6406 1418.0156,436.2031 Q1418.2813,435.9375 1418.4297,435.8594 Q1418.5781,435.7813 1418.7813,435.7813 Q1419.1094,435.7813 1419.3672,436.0391 Q1419.625,436.2969 1419.625,436.6406 Q1419.625,436.9844 1419.2813,437.3906 Q1418.7813,437.9688 1417.9844,438.2969 Q1416.9063,438.75 1415.6094,438.75 Q1414.0938,438.75 1412.8906,438.125 Q1411.9063,437.625 1411.2188,436.5547 Q1410.5313,435.4844 1410.5313,434.2031 L1410.5313,433.0469 Q1410.5313,431.7188 1411.1484,430.5703 Q1411.7656,429.4219 1412.8594,428.8047 Q1413.9531,428.1875 1415.1875,428.1875 Q1415.9219,428.1875 1416.5703,428.3516 Q1417.2188,428.5156 1417.7656,428.875 Z "/><text fill="#000000" font-family="sans-serif" font-size="12" lengthAdjust="spacingAndGlyphs" textLength="132" x="1429" y="437.9102">OpenSessionRespPars</text><line style="stroke: #A80036; stroke-width: 1.5;" x1="1401" x2="1563" y1="449" y2="449"/><line style="stroke: #A80036; stroke-width: 1.5;" x1="1401" x2="1563" y1="457" y2="457"/><!--class ReadRecordRespPars--><rect fill="#FEFECE" filter="url(#fm7wx1zepkrfl)" height="48" id="ReadRecordRespPars" style="stroke: #A80036; stroke-width: 1.5;" width="158" x="850" y="417"/><ellipse cx="865" cy="433" fill="#ADD1B2" rx="11" ry="11" style="stroke: #A80036; stroke-width: 1.0;"/><path d="M867.7656,428.875 Q867.9219,428.6563 868.1094,428.5469 Q868.2969,428.4375 868.5156,428.4375 Q868.8906,428.4375 869.125,428.6953 Q869.3594,428.9531 869.3594,429.5625 L869.3594,431.0156 Q869.3594,431.625 869.125,431.8906 Q868.8906,432.1563 868.5156,432.1563 Q868.1719,432.1563 867.9688,431.9531 Q867.7656,431.7656 867.6563,431.25 Q867.6094,430.8906 867.4219,430.7031 Q867.0938,430.3281 866.4844,430.1094 Q865.875,429.8906 865.25,429.8906 Q864.4844,429.8906 863.8516,430.2188 Q863.2188,430.5469 862.7266,431.2969 Q862.2344,432.0469 862.2344,433.0781 L862.2344,434.1719 Q862.2344,435.4063 863.125,436.2266 Q864.0156,437.0469 865.6094,437.0469 Q866.5469,437.0469 867.2031,436.7969 Q867.5938,436.6406 868.0156,436.2031 Q868.2813,435.9375 868.4297,435.8594 Q868.5781,435.7813 868.7813,435.7813 Q869.1094,435.7813 869.3672,436.0391 Q869.625,436.2969 869.625,436.6406 Q869.625,436.9844 869.2813,437.3906 Q868.7813,437.9688 867.9844,438.2969 Q866.9063,438.75 865.6094,438.75 Q864.0938,438.75 862.8906,438.125 Q861.9063,437.625 861.2188,436.5547 Q860.5313,435.4844 860.5313,434.2031 L860.5313,433.0469 Q860.5313,431.7188 861.1484,430.5703 Q861.7656,429.4219 862.8594,428.8047 Q863.9531,428.1875 865.1875,428.1875 Q865.9219,428.1875 866.5703,428.3516 Q867.2188,428.5156 867.7656,428.875 Z "/><text fill="#000000" font-family="sans-serif" font-size="12" lengthAdjust="spacingAndGlyphs" textLength="126" x="879" y="437.9102">ReadRecordRespPars</text><line style="stroke: #A80036; stroke-width: 1.5;" x1="851" x2="1007" y1="449" y2="449"/><line style="stroke: #A80036; stroke-width: 1.5;" x1="851" x2="1007" y1="457" y2="457"/><!--class CloseSessionRespPars--><rect fill="#FEFECE" filter="url(#fm7wx1zepkrfl)" height="48" id="CloseSessionRespPars" style="stroke: #A80036; stroke-width: 1.5;" width="167" x="1043.5" y="417"/><ellipse cx="1058.5" cy="433" fill="#ADD1B2" rx="11" ry="11" style="stroke: #A80036; stroke-width: 1.0;"/><path d="M1061.2656,428.875 Q1061.4219,428.6563 1061.6094,428.5469 Q1061.7969,428.4375 1062.0156,428.4375 Q1062.3906,428.4375 1062.625,428.6953 Q1062.8594,428.9531 1062.8594,429.5625 L1062.8594,431.0156 Q1062.8594,431.625 1062.625,431.8906 Q1062.3906,432.1563 1062.0156,432.1563 Q1061.6719,432.1563 1061.4688,431.9531 Q1061.2656,431.7656 1061.1563,431.25 Q1061.1094,430.8906 1060.9219,430.7031 Q1060.5938,430.3281 1059.9844,430.1094 Q1059.375,429.8906 1058.75,429.8906 Q1057.9844,429.8906 1057.3516,430.2188 Q1056.7188,430.5469 1056.2266,431.2969 Q1055.7344,432.0469 1055.7344,433.0781 L1055.7344,434.1719 Q1055.7344,435.4063 1056.625,436.2266 Q1057.5156,437.0469 1059.1094,437.0469 Q1060.0469,437.0469 1060.7031,436.7969 Q1061.0938,436.6406 1061.5156,436.2031 Q1061.7813,435.9375 1061.9297,435.8594 Q1062.0781,435.7813 1062.2813,435.7813 Q1062.6094,435.7813 1062.8672,436.0391 Q1063.125,436.2969 1063.125,436.6406 Q1063.125,436.9844 1062.7813,437.3906 Q1062.2813,437.9688 1061.4844,438.2969 Q1060.4063,438.75 1059.1094,438.75 Q1057.5938,438.75 1056.3906,438.125 Q1055.4063,437.625 1054.7188,436.5547 Q1054.0313,435.4844 1054.0313,434.2031 L1054.0313,433.0469 Q1054.0313,431.7188 1054.6484,430.5703 Q1055.2656,429.4219 1056.3594,428.8047 Q1057.4531,428.1875 1058.6875,428.1875 Q1059.4219,428.1875 1060.0703,428.3516 Q1060.7188,428.5156 1061.2656,428.875 Z "/><text fill="#000000" font-family="sans-serif" font-size="12" lengthAdjust="spacingAndGlyphs" textLength="135" x="1072.5" y="437.9102">CloseSessionRespPars</text><line style="stroke: #A80036; stroke-width: 1.5;" x1="1044.5" x2="1209.5" y1="449" y2="449"/><line style="stroke: #A80036; stroke-width: 1.5;" x1="1044.5" x2="1209.5" y1="457" y2="457"/><!--link AbstractApduCommandBuilder to CommandsTable--><path d="M828.112,774.274 C865.377,753.103 908.518,732.76 951,722 C1115.58,680.314 1166.95,686.631 1333,722 C1394.6,735.122 1459.09,762.859 1510.53,788.829 " fill="none" id="AbstractApduCommandBuilder-CommandsTable" style="stroke: #A80036; stroke-width: 1.0;"/><polygon fill="#A80036" points="1522.3,794.858,1518.7778,788.5656,1511.6148,789.3967,1515.1369,795.6891,1522.3,794.858" style="stroke: #A80036; stroke-width: 1.0;"/><polygon fill="#A80036" points="816.742,780.861,826.5346,779.8102,821.0683,778.3544,822.5241,772.8881,816.742,780.861" style="stroke: #A80036; stroke-width: 1.0;"/><line style="stroke: #A80036; stroke-width: 1.0;" x1="821.0683" x2="827.991" y1="778.3544" y2="774.344"/><text fill="#000000" font-family="sans-serif" font-size="13" lengthAdjust="spacingAndGlyphs" textLength="60" x="1178" y="705.4951">references</text><text fill="#000000" font-family="sans-serif" font-size="13" lengthAdjust="spacingAndGlyphs" textLength="5" x="821.9403" y="770.3202">*</text><text fill="#000000" font-family="sans-serif" font-size="13" lengthAdjust="spacingAndGlyphs" textLength="7" x="1502.1938" y="783.9665">1</text><!--link CommandsTable to AbstractApduResponseParser--><path d="M1399.39,846.5 C1375.81,846.5 1351.91,846.5 1328.68,846.5 " fill="none" id="CommandsTable-AbstractApduResponseParser" style="stroke: #A80036; stroke-width: 1.0;"/><polygon fill="#A80036" points="1315.68,846.5,1324.68,850.5,1320.68,846.5,1324.68,842.5,1315.68,846.5" style="stroke: #A80036; stroke-width: 1.0;"/><line style="stroke: #A80036; stroke-width: 1.0;" x1="1320.68" x2="1328.68" y1="846.5" y2="846.5"/><polygon fill="#A80036" points="1412.46,846.5,1406.46,842.5,1400.46,846.5,1406.46,850.5,1412.46,846.5" style="stroke: #A80036; stroke-width: 1.0;"/><text fill="#000000" font-family="sans-serif" font-size="13" lengthAdjust="spacingAndGlyphs" textLength="60" x="1334" y="839.9951">references</text><text fill="#000000" font-family="sans-serif" font-size="13" lengthAdjust="spacingAndGlyphs" textLength="7" x="1397.5288" y="843.6828">1</text><text fill="#000000" font-family="sans-serif" font-size="13" lengthAdjust="spacingAndGlyphs" textLength="5" x="1323.6632" y="843.6402">*</text><!--link PoRevision to AbstractPoCommandBuilder--><path d="M357.754,590 C369.249,590 380.745,590 392.241,590 " fill="none" id="PoRevision-AbstractPoCommandBuilder" style="stroke: #A80036; stroke-width: 1.0;"/><text fill="#000000" font-family="sans-serif" font-size="13" lengthAdjust="spacingAndGlyphs" textLength="15" x="365.5241" y="586.4294">+1</text><text fill="#000000" font-family="sans-serif" font-size="13" lengthAdjust="spacingAndGlyphs" textLength="20" x="365.4761" y="587.1581">1..*</text><!--link OpenSessionCmdBuild to AbstractPoCommandBuilder--><path d="M695.838,465.293 C682.802,484.08 663.948,511.251 647.229,535.346 " fill="none" id="OpenSessionCmdBuild-AbstractPoCommandBuilder" style="stroke: #A80036; stroke-width: 1.0;"/><polygon fill="none" points="652.974,539.347,635.821,551.788,641.471,531.365,652.974,539.347" style="stroke: #A80036; stroke-width: 1.0;"/><text fill="#000000" font-family="sans-serif" font-size="13" lengthAdjust="spacingAndGlyphs" textLength="46" x="675" y="511.4951">extends</text><!--link ReadRecordCmdBuild to AbstractPoCommandBuilder--><path d="M361.418,465.13 C403.129,485.915 465.618,517.054 517.507,542.91 " fill="none" id="ReadRecordCmdBuild-AbstractPoCommandBuilder" style="stroke: #A80036; stroke-width: 1.0;"/><polygon fill="none" points="520.947,536.803,535.726,551.989,514.703,549.334,520.947,536.803" style="stroke: #A80036; stroke-width: 1.0;"/><text fill="#000000" font-family="sans-serif" font-size="13" lengthAdjust="spacingAndGlyphs" textLength="46" x="455" y="511.4951">extends</text><!--link CloseSessionCmdBuild to AbstractPoCommandBuilder--><path d="M527.528,465.293 C539.993,483.989 557.992,510.989 573.998,534.996 " fill="none" id="CloseSessionCmdBuild-AbstractPoCommandBuilder" style="stroke: #A80036; stroke-width: 1.0;"/><polygon fill="none" points="579.922,531.264,585.192,551.788,568.273,539.03,579.922,531.264" style="stroke: #A80036; stroke-width: 1.0;"/><text fill="#000000" font-family="sans-serif" font-size="13" lengthAdjust="spacingAndGlyphs" textLength="46" x="560" y="511.4951">extends</text><!--link CalypsoPoCommands to OpenSessionCmdBuild--><path d="M926.175,301.912 C889.983,327.758 872.973,328.177 834,353 C806.345,370.614 776.348,391.973 753.02,409.119 " fill="none" id="CalypsoPoCommands-OpenSessionCmdBuild" style="stroke: #A80036; stroke-width: 1.0;"/><polygon fill="#A80036" points="742.474,416.917,752.0888,414.7824,746.4943,413.9443,747.3325,408.3499,742.474,416.917" style="stroke: #A80036; stroke-width: 1.0;"/><line style="stroke: #A80036; stroke-width: 1.0;" x1="746.4943" x2="752.9265" y1="413.9443" y2="409.188"/><polygon fill="#A80036" points="936.926,293.907,929.7247,294.2822,927.3012,301.0738,934.5026,300.6987,936.926,293.907" style="stroke: #A80036; stroke-width: 1.0;"/><text fill="#000000" font-family="sans-serif" font-size="13" lengthAdjust="spacingAndGlyphs" textLength="60" x="884" y="341.4951">references</text><text fill="#000000" font-family="sans-serif" font-size="13" lengthAdjust="spacingAndGlyphs" textLength="7" x="922.0557" y="298.6288">1</text><text fill="#000000" font-family="sans-serif" font-size="13" lengthAdjust="spacingAndGlyphs" textLength="7" x="742.3861" y="406.2359">1</text><!--link CalypsoPoCommands to ReadRecordCmdBuild--><path d="M924.857,299.99 C839.286,330.466 644.11,317.431 567,327 C497.245,335.656 474.271,322.382 411,353 C384.57,365.79 360.133,388.158 342.528,407.01 " fill="none" id="CalypsoPoCommands-ReadRecordCmdBuild" style="stroke: #A80036; stroke-width: 1.0;"/><polygon fill="#A80036" points="333.727,416.758,342.7272,412.7585,337.0777,413.0468,336.7893,407.3973,333.727,416.758" style="stroke: #A80036; stroke-width: 1.0;"/><line style="stroke: #A80036; stroke-width: 1.0;" x1="337.0777" x2="342.439" y1="413.0468" y2="407.109"/><polygon fill="#A80036" points="936.9,295.057,929.8315,293.6302,925.7958,299.6063,932.8643,301.0331,936.9,295.057" style="stroke: #A80036; stroke-width: 1.0;"/><text fill="#000000" font-family="sans-serif" font-size="13" lengthAdjust="spacingAndGlyphs" textLength="60" x="568" y="341.4951">references</text><text fill="#000000" font-family="sans-serif" font-size="13" lengthAdjust="spacingAndGlyphs" textLength="7" x="922.0272" y="317.4134">1</text><text fill="#000000" font-family="sans-serif" font-size="13" lengthAdjust="spacingAndGlyphs" textLength="7" x="330.6289" y="406.0361">1</text><!--link CalypsoPoCommands to CloseSessionCmdBuild--><path d="M924.655,300.39 C848.684,329.939 674.681,323.799 613,353 C585.569,365.986 559.738,388.498 541.066,407.368 " fill="none" id="CalypsoPoCommands-CloseSessionCmdBuild" style="stroke: #A80036; stroke-width: 1.0;"/><polygon fill="#A80036" points="531.983,416.835,541.1001,413.1095,535.4444,413.2269,535.3271,407.5712,531.983,416.835" style="stroke: #A80036; stroke-width: 1.0;"/><line style="stroke: #A80036; stroke-width: 1.0;" x1="535.4444" x2="540.9835" y1="413.2269" y2="407.454"/><polygon fill="#A80036" points="936.816,294.889,929.7008,293.7168,925.8821,299.8338,932.9973,301.006,936.816,294.889" style="stroke: #A80036; stroke-width: 1.0;"/><text fill="#000000" font-family="sans-serif" font-size="13" lengthAdjust="spacingAndGlyphs" textLength="60" x="760" y="341.4951">references</text><text fill="#000000" font-family="sans-serif" font-size="13" lengthAdjust="spacingAndGlyphs" textLength="7" x="929.0111" y="317.9544">1</text><text fill="#000000" font-family="sans-serif" font-size="13" lengthAdjust="spacingAndGlyphs" textLength="7" x="529.2068" y="406.1329">1</text><!--link CalypsoPoCommands to PoFciRespPars--><path d="M1106.36,264.543 C1145.44,289.281 1190.67,320.428 1228,353 C1246.5,369.143 1264.82,389.606 1278.94,406.63 " fill="none" id="CalypsoPoCommands-PoFciRespPars" style="stroke: #A80036; stroke-width: 1.0;"/><polygon fill="#A80036" points="1287.16,416.716,1284.5804,407.211,1284.0035,412.8383,1278.3761,412.2614,1287.16,416.716" style="stroke: #A80036; stroke-width: 1.0;"/><line style="stroke: #A80036; stroke-width: 1.0;" x1="1284.0035" x2="1278.95" y1="412.8383" y2="406.6375"/><polygon fill="#A80036" points="1095.25,257.575,1098.2107,264.1503,1105.4189,263.9462,1102.4582,257.371,1095.25,257.575" style="stroke: #A80036; stroke-width: 1.0;"/><text fill="#000000" font-family="sans-serif" font-size="13" lengthAdjust="spacingAndGlyphs" textLength="60" x="1218" y="341.4951">references</text><text fill="#000000" font-family="sans-serif" font-size="13" lengthAdjust="spacingAndGlyphs" textLength="7" x="1102.8785" y="258.7105">1</text><text fill="#000000" font-family="sans-serif" font-size="13" lengthAdjust="spacingAndGlyphs" textLength="7" x="1274.6916" y="405.9834">1</text><!--link CalypsoPoCommands to OpenSessionRespPars--><path d="M1107.78,237.214 C1184.36,260.909 1294.68,300.364 1382,353 C1407.06,368.105 1431.89,389.667 1450.55,407.546 " fill="none" id="CalypsoPoCommands-OpenSessionRespPars" style="stroke: #A80036; stroke-width: 1.0;"/><polygon fill="#A80036" points="1459.97,416.77,1456.3325,407.6175,1456.3954,413.274,1450.7389,413.3369,1459.97,416.77" style="stroke: #A80036; stroke-width: 1.0;"/><line style="stroke: #A80036; stroke-width: 1.0;" x1="1456.3954" x2="1450.68" y1="413.274" y2="407.6755"/><polygon fill="#A80036" points="1095.31,233.403,1099.8788,238.9821,1106.7859,236.9105,1102.2171,231.3314,1095.31,233.403" style="stroke: #A80036; stroke-width: 1.0;"/><text fill="#000000" font-family="sans-serif" font-size="13" lengthAdjust="spacingAndGlyphs" textLength="60" x="1364" y="341.4951">references</text><text fill="#000000" font-family="sans-serif" font-size="13" lengthAdjust="spacingAndGlyphs" textLength="7" x="1102.944" y="232.3102">1</text><text fill="#000000" font-family="sans-serif" font-size="13" lengthAdjust="spacingAndGlyphs" textLength="7" x="1446.4279" y="406.0512">1</text><!--link CalypsoPoCommands to ReadRecordRespPars--><path d="M978.724,309.402 C965.901,343.082 952.34,378.698 942.626,404.213 " fill="none" id="CalypsoPoCommands-ReadRecordRespPars" style="stroke: #A80036; stroke-width: 1.0;"/><polygon fill="#A80036" points="937.92,416.572,944.8607,409.5844,939.6992,411.8993,937.3844,406.7377,937.92,416.572" style="stroke: #A80036; stroke-width: 1.0;"/><line style="stroke: #A80036; stroke-width: 1.0;" x1="939.6992" x2="942.546" y1="411.8993" y2="404.423"/><polygon fill="#A80036" points="983.357,297.235,977.4838,301.4189,979.0869,308.4496,984.9601,304.2656,983.357,297.235" style="stroke: #A80036; stroke-width: 1.0;"/><text fill="#000000" font-family="sans-serif" font-size="13" lengthAdjust="spacingAndGlyphs" textLength="60" x="971" y="341.4951">references</text><text fill="#000000" font-family="sans-serif" font-size="13" lengthAdjust="spacingAndGlyphs" textLength="7" x="973.5898" y="318.015">1</text><text fill="#000000" font-family="sans-serif" font-size="13" lengthAdjust="spacingAndGlyphs" textLength="7" x="932.2411" y="406.2056">1</text><!--link CalypsoPoCommands to CloseSessionRespPars--><path d="M1063.43,309.147 C1079.9,343.044 1097.34,378.934 1109.77,404.536 " fill="none" id="CalypsoPoCommands-CloseSessionRespPars" style="stroke: #A80036; stroke-width: 1.0;"/><polygon fill="#A80036" points="1115.62,416.572,1115.2831,406.7289,1113.4342,412.0751,1108.088,410.2262,1115.62,416.572" style="stroke: #A80036; stroke-width: 1.0;"/><line style="stroke: #A80036; stroke-width: 1.0;" x1="1113.4342" x2="1109.94" y1="412.0751" y2="404.879"/><polygon fill="#A80036" points="1057.65,297.235,1056.6761,304.38,1062.897,308.0271,1063.8708,300.8821,1057.65,297.235" style="stroke: #A80036; stroke-width: 1.0;"/><text fill="#000000" font-family="sans-serif" font-size="13" lengthAdjust="spacingAndGlyphs" textLength="60" x="1080" y="341.4951">references</text><text fill="#000000" font-family="sans-serif" font-size="13" lengthAdjust="spacingAndGlyphs" textLength="7" x="1053.5709" y="318.015">1</text><text fill="#000000" font-family="sans-serif" font-size="13" lengthAdjust="spacingAndGlyphs" textLength="7" x="1104.993" y="406.2056">1</text><!--link SendableInSession to ReadRecordCmdBuild--><path d="M110.492,254.789 C113.458,282.982 121.246,319.184 141,345 C166.726,378.62 207.899,401.864 243.736,416.942 " fill="none" id="SendableInSession-ReadRecordCmdBuild" style="stroke: #A80036; stroke-width: 1.0; stroke-dasharray: 7.0,7.0;"/><polygon fill="none" points="103.4983,255.127,109.029,234.672,117.461,254.111,103.4983,255.127" style="stroke: #A80036; stroke-width: 1.0;"/><text fill="#000000" font-family="sans-serif" font-size="13" lengthAdjust="spacingAndGlyphs" textLength="67" x="142" y="341.4951">implements</text><!--link CalypsoPoCommands to CommandsTable--><path d="M1095.23,219.978 C1235.44,236.74 1518.35,279.046 1580,353 C1679.66,472.544 1654.01,670.39 1630.69,775.24 " fill="none" id="CalypsoPoCommands-CommandsTable" style="stroke: #A80036; stroke-width: 1.0;"/><polygon fill="none" points="1637.46,777.033,1626.1,794.919,1623.83,773.851,1637.46,777.033" style="stroke: #A80036; stroke-width: 1.0;"/><text fill="#000000" font-family="sans-serif" font-size="13" lengthAdjust="spacingAndGlyphs" textLength="67" x="1647" y="511.4951">implements</text><!--link AbstractPoCommandBuilder to AbstractApduCommandBuilder--><path d="M626.14,628.006 C641.432,663.067 664.936,716.958 684.722,762.323 " fill="none" id="AbstractPoCommandBuilder-AbstractApduCommandBuilder" style="stroke: #A80036; stroke-width: 1.0;"/><polygon fill="none" points="691.219,759.709,692.798,780.839,678.386,765.306,691.219,759.709" style="stroke: #A80036; stroke-width: 1.0;"/><text fill="#000000" font-family="sans-serif" font-size="13" lengthAdjust="spacingAndGlyphs" textLength="46" x="660" y="705.4951">extends</text><!--link PoFciRespPars to AbstractApduResponseParser--><path d="M1303.39,465.229 C1299.36,512.963 1286.16,624.678 1247,709 C1238.03,728.312 1225.92,747.444 1213.12,765.001 " fill="none" id="PoFciRespPars-AbstractApduResponseParser" style="stroke: #A80036; stroke-width: 1.0;"/><polygon fill="none" points="1218.66,769.289,1200.98,780.972,1207.51,760.815,1218.66,769.289" style="stroke: #A80036; stroke-width: 1.0;"/><text fill="#000000" font-family="sans-serif" font-size="13" lengthAdjust="spacingAndGlyphs" textLength="46" x="1293" y="595.4951">extends</text><!--link OpenSessionRespPars to AbstractApduResponseParser--><path d="M1472.82,465.116 C1454.11,510.342 1408.2,612.277 1348,683 C1321.35,714.306 1287.89,743.736 1255.73,768.72 " fill="none" id="OpenSessionRespPars-AbstractApduResponseParser" style="stroke: #A80036; stroke-width: 1.0;"/><polygon fill="none" points="1259.74,774.465,1239.58,780.991,1251.27,763.318,1259.74,774.465" style="stroke: #A80036; stroke-width: 1.0;"/><text fill="#000000" font-family="sans-serif" font-size="13" lengthAdjust="spacingAndGlyphs" textLength="46" x="1435" y="595.4951">extends</text><!--link ReadRecordRespPars to AbstractApduResponseParser--><path d="M941.217,465.143 C971.082,521.719 1048.96,669.246 1098.48,763.059 " fill="none" id="ReadRecordRespPars-AbstractApduResponseParser" style="stroke: #A80036; stroke-width: 1.0;"/><polygon fill="none" points="1104.69,759.821,1107.83,780.776,1092.31,766.357,1104.69,759.821" style="stroke: #A80036; stroke-width: 1.0;"/><text fill="#000000" font-family="sans-serif" font-size="13" lengthAdjust="spacingAndGlyphs" textLength="46" x="1055" y="595.4951">extends</text><!--link CloseSessionRespPars to AbstractApduResponseParser--><path d="M1127.86,465.143 C1129.95,521.248 1135.36,666.796 1138.85,760.705 " fill="none" id="CloseSessionRespPars-AbstractApduResponseParser" style="stroke: #A80036; stroke-width: 1.0;"/><polygon fill="none" points="1145.85,760.529,1139.59,780.776,1131.86,761.05,1145.85,760.529" style="stroke: #A80036; stroke-width: 1.0;"/><text fill="#000000" font-family="sans-serif" font-size="13" lengthAdjust="spacingAndGlyphs" textLength="46" x="1137" y="595.4951">extends</text><!--
@startuml
package org.eclipse.keyple.commands #FFFFFF {

abstract AbstractApduCommandBuilder {
  -CommandsTable commandReference
  -ApduRequest apduRequest
  +AbstractApduCommandBuilder(CommandsTable reference, ApduRequest request)
  +String getName()
  +ApduRequest getApduRequest()
  +Class<? extends AbstractApduResponseParser> getApduResponseParserClass()
}

abstract AbstractApduResponseParser {
  -ApduResponse apduResponse
  +AbstractApduResponseParser(ApduResponse responseToParse)
  +ApduResponse getApduResponse()
  +short getStatusCode()
  +boolean isSuccessful()
  +String getStatusInformation()
}

interface CommandsTable {
  +String getName()
  +byte getInstructionByte()
  +Class<? extends AbstractApduCommandBuilder> getCommandBuilderClass()
  +Class<? extends AbstractApduResponseParser> getResponseParserClass()
}

CommandsTable "1" *-left-> "*" AbstractApduCommandBuilder : references
CommandsTable "1" *-right-> "*" AbstractApduResponseParser : references
}
package org.eclipse.keyple.calypso.commands #FFFFFF {

package org.eclipse.keyple.calypso.commands.po #FFFFFF {

abstract AbstractPoCommandBuilder {
  #CsmRevision defaultRevision = PoRevision.REV3_1
  +AbstractPoCommandBuilder(CalypsoPoCommands reference, ApduRequest request)
}

enum PoRevision {
  REV2_4
  REV3_1
  REV3_2
}

PoRevision "+1" -right- "1..*" AbstractPoCommandBuilder

enum CalypsoPoCommands {
  PO_GET_DATA_FCI
  PO_OPEN_SESSION_24
  PO_OPEN_SESSION_31
  PO_OPEN_SESSION_32
  PO_CLOSE_SESSION
  PO_READ_RECORDS
  PO_UPDATE_RECORD
  PO_APPEND_RECORD
  PO_GET_CHALLENGE
}


package org.eclipse.keyple.calypso.commands.po.builder #FFFFFF {
class OpenSessionCmdBuild
class ReadRecordCmdBuild
class CloseSessionCmdBuild
}

package org.eclipse.keyple.calypso.commands.po.parser #FFFFFF {
class PoFciRespPars
class OpenSessionRespPars
class ReadRecordRespPars
class CloseSessionRespPars
}

OpenSessionCmdBuild - -|> AbstractPoCommandBuilder : extends
ReadRecordCmdBuild - -|> AbstractPoCommandBuilder : extends
CloseSessionCmdBuild - -|> AbstractPoCommandBuilder : extends

CalypsoPoCommands "1" *- -> "1" OpenSessionCmdBuild : references
CalypsoPoCommands "1" *- -> "1" ReadRecordCmdBuild : references
CalypsoPoCommands "1" *- -> "1" CloseSessionCmdBuild : references

CalypsoPoCommands "1" *- -> "1" PoFciRespPars : references
CalypsoPoCommands "1" *- -> "1" OpenSessionRespPars : references
CalypsoPoCommands "1" *- -> "1" ReadRecordRespPars : references
CalypsoPoCommands "1" *- -> "1" CloseSessionRespPars : references
}

interface SendableInSession
ReadRecordCmdBuild .up.|> SendableInSession : implements
}

CalypsoPoCommands - -|> CommandsTable : implements
AbstractPoCommandBuilder -down-|> AbstractApduCommandBuilder : extends

PoFciRespPars- -|> AbstractApduResponseParser : extends
OpenSessionRespPars - -|> AbstractApduResponseParser : extends
ReadRecordRespPars - -|> AbstractApduResponseParser : extends
CloseSessionRespPars - -|> AbstractApduResponseParser : extends
@enduml

PlantUML version 1.2018.01(Sun Jan 28 19:08:22 CET 2018)
(APACHE source distribution)
Java Runtime: Java(TM) SE Runtime Environment
JVM: Java HotSpot(TM) 64-Bit Server VM
Java Version: 10.0.1+10
Operating System: Windows 10
OS Version: 10.0
Default Encoding: Cp1252
Language: fr
Country: FR
--></g></svg>