<?xml version="1.0" encoding="UTF-8" standalone="no"?><svg xmlns="http://www.w3.org/2000/svg" xmlns:xlink="http://www.w3.org/1999/xlink" contentScriptType="application/ecmascript" contentStyleType="text/css" height="954px" preserveAspectRatio="none" style="width:1997px;height:954px;" version="1.1" viewBox="0 0 1997 954" width="1997px" zoomAndPan="magnify"><defs><filter height="300%" id="f1jxgc4hnzrucx" width="300%" x="-1" y="-1"><feGaussianBlur result="blurOut" stdDeviation="2.0"/><feColorMatrix in="blurOut" result="blurOut2" type="matrix" values="0 0 0 0 0 0 0 0 0 0 0 0 0 0 0 0 0 0 .4 0"/><feOffset dx="4.0" dy="4.0" in="blurOut2" result="blurOut3"/><feBlend in="SourceGraphic" in2="blurOut3" mode="normal"/></filter></defs><g><!--cluster org.eclipse.keyple.command--><polygon fill="#FFFFFF" filter="url(#f1jxgc4hnzrucx)" points="604,723,810,723,817,746.6094,1975,746.6094,1975,942,604,942,604,723" style="stroke: #000000; stroke-width: 1.5;"/><line style="stroke: #000000; stroke-width: 1.5;" x1="604" x2="817" y1="746.6094" y2="746.6094"/><text fill="#000000" font-family="sans-serif" font-size="14" font-weight="bold" lengthAdjust="spacingAndGlyphs" textLength="200" x="608" y="739.5332">org.eclipse.keyple.command</text><!--cluster org.eclipse.keyple.calypso.command--><polygon fill="#FFFFFF" filter="url(#f1jxgc4hnzrucx)" points="30,32,293,32,300,55.6094,1778,55.6094,1778,657,30,657,30,32" style="stroke: #000000; stroke-width: 1.5;"/><line style="stroke: #000000; stroke-width: 1.5;" x1="30" x2="300" y1="55.6094" y2="55.6094"/><text fill="#000000" font-family="sans-serif" font-size="14" font-weight="bold" lengthAdjust="spacingAndGlyphs" textLength="257" x="34" y="48.5332">org.eclipse.keyple.calypso.command</text><!--cluster org.eclipse.keyple.calypso.command.csm--><polygon fill="#FFFFFF" filter="url(#f1jxgc4hnzrucx)" points="212,84,507,84,514,107.6094,1738,107.6094,1738,625,212,625,212,84" style="stroke: #000000; stroke-width: 1.5;"/><line style="stroke: #000000; stroke-width: 1.5;" x1="212" x2="514" y1="107.6094" y2="107.6094"/><text fill="#000000" font-family="sans-serif" font-size="14" font-weight="bold" lengthAdjust="spacingAndGlyphs" textLength="289" x="216" y="100.5332">org.eclipse.keyple.calypso.command.csm</text><!--cluster org.eclipse.keyple.calypso.command.csm.builder--><polygon fill="#FFFFFF" filter="url(#f1jxgc4hnzrucx)" points="236,349,585,349,592,372.6094,1082,372.6094,1082,469,236,469,236,349" style="stroke: #000000; stroke-width: 1.5;"/><line style="stroke: #000000; stroke-width: 1.5;" x1="236" x2="592" y1="372.6094" y2="372.6094"/><text fill="#000000" font-family="sans-serif" font-size="14" font-weight="bold" lengthAdjust="spacingAndGlyphs" textLength="343" x="240" y="365.5332">org.eclipse.keyple.calypso.command.csm.builder</text><!--cluster org.eclipse.keyple.calypso.command.csm.parser--><polygon fill="#FFFFFF" filter="url(#f1jxgc4hnzrucx)" points="1106,349,1451,349,1458,372.6094,1714,372.6094,1714,469,1106,469,1106,349" style="stroke: #000000; stroke-width: 1.5;"/><line style="stroke: #000000; stroke-width: 1.5;" x1="1106" x2="1458" y1="372.6094" y2="372.6094"/><text fill="#000000" font-family="sans-serif" font-size="14" font-weight="bold" lengthAdjust="spacingAndGlyphs" textLength="339" x="1110" y="365.5332">org.eclipse.keyple.calypso.command.csm.parser</text><!--class AbstractApduCommandBuilder--><rect fill="#FEFECE" filter="url(#f1jxgc4hnzrucx)" height="131.0156" id="AbstractApduCommandBuilder" style="stroke: #A80036; stroke-width: 1.5;" width="425" x="628.5" y="787"/><ellipse cx="750.75" cy="803" fill="#A9DCDF" rx="11" ry="11" style="stroke: #A80036; stroke-width: 1.0;"/><path d="M752.9375,804.7656 L748.7969,804.7656 L748.375,805.7969 L748.7969,805.7969 Q749.4063,805.7969 749.6719,806.0313 Q749.9375,806.2656 749.9375,806.6563 Q749.9375,807.0313 749.6719,807.2656 Q749.4063,807.5 748.7969,807.5 L746.5,807.5 Q745.8906,807.5 745.6328,807.2656 Q745.375,807.0313 745.375,806.6406 Q745.375,806.2656 745.6484,806.0234 Q745.9219,805.7813 746.5469,805.7969 L749.2188,799.1406 L748.1094,799.1406 Q747.5,799.1406 747.2344,798.9063 Q746.9688,798.6719 746.9688,798.2813 Q746.9688,797.9063 747.2344,797.6719 Q747.5,797.4375 748.1094,797.4375 L751.7813,797.4375 L755.1719,805.7969 Q755.7656,805.7969 755.9531,805.9375 Q756.3438,806.2031 756.3438,806.6563 Q756.3438,807.0313 756.0859,807.2656 Q755.8281,807.5 755.2188,807.5 L752.9219,807.5 Q752.3125,807.5 752.0469,807.2656 Q751.7813,807.0313 751.7813,806.6406 Q751.7813,806.2656 752.0469,806.0313 Q752.3125,805.7969 752.9219,805.7969 L753.3438,805.7969 L752.9375,804.7656 Z M752.2188,803.0625 L750.8594,799.6875 L749.4844,803.0625 L752.2188,803.0625 Z "/><text fill="#000000" font-family="sans-serif" font-size="12" font-style="italic" lengthAdjust="spacingAndGlyphs" textLength="172" x="771.25" y="807.9102">AbstractApduCommandBuilder</text><line style="stroke: #A80036; stroke-width: 1.5;" x1="629.5" x2="1052.5" y1="819" y2="819"/><rect fill="none" height="6" style="stroke: #C82930; stroke-width: 1.0;" width="6" x="636.5" y="828.418"/><text fill="#000000" font-family="sans-serif" font-size="11" lengthAdjust="spacingAndGlyphs" textLength="179" x="648.5" y="834.4189">CommandsTable commandReference</text><rect fill="none" height="6" style="stroke: #C82930; stroke-width: 1.0;" width="6" x="636.5" y="842.2539"/><text fill="#000000" font-family="sans-serif" font-size="11" lengthAdjust="spacingAndGlyphs" textLength="133" x="648.5" y="848.2549">ApduRequest apduRequest</text><line style="stroke: #A80036; stroke-width: 1.5;" x1="629.5" x2="1052.5" y1="854.6719" y2="854.6719"/><ellipse cx="639.5" cy="867.0898" fill="#84BE84" rx="3" ry="3" style="stroke: #038048; stroke-width: 1.0;"/><text fill="#000000" font-family="sans-serif" font-size="11" lengthAdjust="spacingAndGlyphs" textLength="398" x="648.5" y="870.0908">AbstractApduCommandBuilder(CommandsTable reference, ApduRequest request)</text><ellipse cx="639.5" cy="880.9258" fill="#84BE84" rx="3" ry="3" style="stroke: #038048; stroke-width: 1.0;"/><text fill="#000000" font-family="sans-serif" font-size="11" lengthAdjust="spacingAndGlyphs" textLength="81" x="648.5" y="883.9268">String getName()</text><ellipse cx="639.5" cy="894.7617" fill="#84BE84" rx="3" ry="3" style="stroke: #038048; stroke-width: 1.0;"/><text fill="#000000" font-family="sans-serif" font-size="11" lengthAdjust="spacingAndGlyphs" textLength="158" x="648.5" y="897.7627">ApduRequest getApduRequest()</text><ellipse cx="639.5" cy="908.5977" fill="#84BE84" rx="3" ry="3" style="stroke: #038048; stroke-width: 1.0;"/><text fill="#000000" font-family="sans-serif" font-size="11" lengthAdjust="spacingAndGlyphs" textLength="399" x="648.5" y="911.5986">Class&lt;? extends AbstractApduResponseParser&gt; getApduResponseParserClass()</text><!--class AbstractApduResponseParser--><rect fill="#FEFECE" filter="url(#f1jxgc4hnzrucx)" height="131.0156" id="AbstractApduResponseParser" style="stroke: #A80036; stroke-width: 1.5;" width="347" x="1088.5" y="787"/><ellipse cx="1174.75" cy="803" fill="#A9DCDF" rx="11" ry="11" style="stroke: #A80036; stroke-width: 1.0;"/><path d="M1176.9375,804.7656 L1172.7969,804.7656 L1172.375,805.7969 L1172.7969,805.7969 Q1173.4063,805.7969 1173.6719,806.0313 Q1173.9375,806.2656 1173.9375,806.6563 Q1173.9375,807.0313 1173.6719,807.2656 Q1173.4063,807.5 1172.7969,807.5 L1170.5,807.5 Q1169.8906,807.5 1169.6328,807.2656 Q1169.375,807.0313 1169.375,806.6406 Q1169.375,806.2656 1169.6484,806.0234 Q1169.9219,805.7813 1170.5469,805.7969 L1173.2188,799.1406 L1172.1094,799.1406 Q1171.5,799.1406 1171.2344,798.9063 Q1170.9688,798.6719 1170.9688,798.2813 Q1170.9688,797.9063 1171.2344,797.6719 Q1171.5,797.4375 1172.1094,797.4375 L1175.7813,797.4375 L1179.1719,805.7969 Q1179.7656,805.7969 1179.9531,805.9375 Q1180.3438,806.2031 1180.3438,806.6563 Q1180.3438,807.0313 1180.0859,807.2656 Q1179.8281,807.5 1179.2188,807.5 L1176.9219,807.5 Q1176.3125,807.5 1176.0469,807.2656 Q1175.7813,807.0313 1175.7813,806.6406 Q1175.7813,806.2656 1176.0469,806.0313 Q1176.3125,805.7969 1176.9219,805.7969 L1177.3438,805.7969 L1176.9375,804.7656 Z M1176.2188,803.0625 L1174.8594,799.6875 L1173.4844,803.0625 L1176.2188,803.0625 Z "/><text fill="#000000" font-family="sans-serif" font-size="12" font-style="italic" lengthAdjust="spacingAndGlyphs" textLength="166" x="1195.25" y="807.9102">AbstractApduResponseParser</text><line style="stroke: #A80036; stroke-width: 1.5;" x1="1089.5" x2="1434.5" y1="819" y2="819"/><rect fill="none" height="6" style="stroke: #C82930; stroke-width: 1.0;" width="6" x="1096.5" y="828.418"/><text fill="#000000" font-family="sans-serif" font-size="11" lengthAdjust="spacingAndGlyphs" textLength="151" x="1108.5" y="834.4189">ApduResponse apduResponse</text><line style="stroke: #A80036; stroke-width: 1.5;" x1="1089.5" x2="1434.5" y1="840.8359" y2="840.8359"/><ellipse cx="1099.5" cy="853.2539" fill="#84BE84" rx="3" ry="3" style="stroke: #038048; stroke-width: 1.0;"/><text fill="#000000" font-family="sans-serif" font-size="11" lengthAdjust="spacingAndGlyphs" textLength="321" x="1108.5" y="856.2549">AbstractApduResponseParser(ApduResponse responseToParse)</text><ellipse cx="1099.5" cy="867.0898" fill="#84BE84" rx="3" ry="3" style="stroke: #038048; stroke-width: 1.0;"/><text fill="#000000" font-family="sans-serif" font-size="11" lengthAdjust="spacingAndGlyphs" textLength="176" x="1108.5" y="870.0908">ApduResponse getApduResponse()</text><ellipse cx="1099.5" cy="880.9258" fill="#84BE84" rx="3" ry="3" style="stroke: #038048; stroke-width: 1.0;"/><text fill="#000000" font-family="sans-serif" font-size="11" lengthAdjust="spacingAndGlyphs" textLength="107" x="1108.5" y="883.9268">short getStatusCode()</text><ellipse cx="1099.5" cy="894.7617" fill="#84BE84" rx="3" ry="3" style="stroke: #038048; stroke-width: 1.0;"/><text fill="#000000" font-family="sans-serif" font-size="11" lengthAdjust="spacingAndGlyphs" textLength="112" x="1108.5" y="897.7627">boolean isSuccessful()</text><ellipse cx="1099.5" cy="908.5977" fill="#84BE84" rx="3" ry="3" style="stroke: #038048; stroke-width: 1.0;"/><text fill="#000000" font-family="sans-serif" font-size="11" lengthAdjust="spacingAndGlyphs" textLength="138" x="1108.5" y="911.5986">String getStatusInformation()</text><!--class CommandsTable--><rect fill="#FEFECE" filter="url(#f1jxgc4hnzrucx)" height="103.3438" id="CommandsTable" style="stroke: #A80036; stroke-width: 1.5;" width="399" x="1532.5" y="801"/><ellipse cx="1679.25" cy="817" fill="#B4A7E5" rx="11" ry="11" style="stroke: #A80036; stroke-width: 1.0;"/><path d="M1680.2031,813.6406 L1680.2031,820.2969 L1681.9219,820.2969 Q1682.5313,820.2969 1682.7969,820.5313 Q1683.0625,820.7656 1683.0625,821.1563 Q1683.0625,821.5313 1682.7969,821.7656 Q1682.5313,822 1681.9219,822 L1676.7813,822 Q1676.1719,822 1675.9063,821.7656 Q1675.6406,821.5313 1675.6406,821.1406 Q1675.6406,820.7656 1675.9063,820.5313 Q1676.1719,820.2969 1676.7813,820.2969 L1678.5,820.2969 L1678.5,813.6406 L1676.7813,813.6406 Q1676.1719,813.6406 1675.9063,813.4063 Q1675.6406,813.1719 1675.6406,812.7813 Q1675.6406,812.4063 1675.9063,812.1719 Q1676.1719,811.9375 1676.7813,811.9375 L1681.9219,811.9375 Q1682.5313,811.9375 1682.7969,812.1719 Q1683.0625,812.4063 1683.0625,812.7813 Q1683.0625,813.1719 1682.7969,813.4063 Q1682.5313,813.6406 1681.9219,813.6406 L1680.2031,813.6406 Z "/><text fill="#000000" font-family="sans-serif" font-size="12" font-style="italic" lengthAdjust="spacingAndGlyphs" textLength="97" x="1699.75" y="821.9102">CommandsTable</text><line style="stroke: #A80036; stroke-width: 1.5;" x1="1533.5" x2="1930.5" y1="833" y2="833"/><line style="stroke: #A80036; stroke-width: 1.5;" x1="1533.5" x2="1930.5" y1="841" y2="841"/><ellipse cx="1543.5" cy="853.418" fill="#84BE84" rx="3" ry="3" style="stroke: #038048; stroke-width: 1.0;"/><text fill="#000000" font-family="sans-serif" font-size="11" lengthAdjust="spacingAndGlyphs" textLength="81" x="1552.5" y="856.4189">String getName()</text><ellipse cx="1543.5" cy="867.2539" fill="#84BE84" rx="3" ry="3" style="stroke: #038048; stroke-width: 1.0;"/><text fill="#000000" font-family="sans-serif" font-size="11" lengthAdjust="spacingAndGlyphs" textLength="119" x="1552.5" y="870.2549">byte getInstructionByte()</text><ellipse cx="1543.5" cy="881.0898" fill="#84BE84" rx="3" ry="3" style="stroke: #038048; stroke-width: 1.0;"/><text fill="#000000" font-family="sans-serif" font-size="11" lengthAdjust="spacingAndGlyphs" textLength="371" x="1552.5" y="884.0908">Class&lt;? extends AbstractApduCommandBuilder&gt; getCommandBuilderClass()</text><ellipse cx="1543.5" cy="894.9258" fill="#84BE84" rx="3" ry="3" style="stroke: #038048; stroke-width: 1.0;"/><text fill="#000000" font-family="sans-serif" font-size="11" lengthAdjust="spacingAndGlyphs" textLength="373" x="1552.5" y="897.9268">Class&lt;? extends AbstractApduResponseParser&gt; getResponseParserClass()</text><!--class SendableInSession--><rect fill="#FEFECE" filter="url(#f1jxgc4hnzrucx)" height="48" id="SendableInSession" style="stroke: #A80036; stroke-width: 1.5;" width="141" x="54.5" y="188.5"/><ellipse cx="69.5" cy="204.5" fill="#B4A7E5" rx="11" ry="11" style="stroke: #A80036; stroke-width: 1.0;"/><path d="M70.4531,201.1406 L70.4531,207.7969 L72.1719,207.7969 Q72.7813,207.7969 73.0469,208.0313 Q73.3125,208.2656 73.3125,208.6563 Q73.3125,209.0313 73.0469,209.2656 Q72.7813,209.5 72.1719,209.5 L67.0313,209.5 Q66.4219,209.5 66.1563,209.2656 Q65.8906,209.0313 65.8906,208.6406 Q65.8906,208.2656 66.1563,208.0313 Q66.4219,207.7969 67.0313,207.7969 L68.75,207.7969 L68.75,201.1406 L67.0313,201.1406 Q66.4219,201.1406 66.1563,200.9063 Q65.8906,200.6719 65.8906,200.2813 Q65.8906,199.9063 66.1563,199.6719 Q66.4219,199.4375 67.0313,199.4375 L72.1719,199.4375 Q72.7813,199.4375 73.0469,199.6719 Q73.3125,199.9063 73.3125,200.2813 Q73.3125,200.6719 73.0469,200.9063 Q72.7813,201.1406 72.1719,201.1406 L70.4531,201.1406 Z "/><text fill="#000000" font-family="sans-serif" font-size="12" font-style="italic" lengthAdjust="spacingAndGlyphs" textLength="109" x="83.5" y="209.4102">SendableInSession</text><line style="stroke: #A80036; stroke-width: 1.5;" x1="55.5" x2="194.5" y1="220.5" y2="220.5"/><line style="stroke: #A80036; stroke-width: 1.5;" x1="55.5" x2="194.5" y1="228.5" y2="228.5"/><!--class AbstractCsmCommandBuilder--><rect fill="#FEFECE" filter="url(#f1jxgc4hnzrucx)" height="75.6719" id="AbstractCsmCommandBuilder" style="stroke: #A80036; stroke-width: 1.5;" width="447" x="555.5" y="533"/><ellipse cx="690.25" cy="549" fill="#A9DCDF" rx="11" ry="11" style="stroke: #A80036; stroke-width: 1.0;"/><path d="M692.4375,550.7656 L688.2969,550.7656 L687.875,551.7969 L688.2969,551.7969 Q688.9063,551.7969 689.1719,552.0313 Q689.4375,552.2656 689.4375,552.6563 Q689.4375,553.0313 689.1719,553.2656 Q688.9063,553.5 688.2969,553.5 L686,553.5 Q685.3906,553.5 685.1328,553.2656 Q684.875,553.0313 684.875,552.6406 Q684.875,552.2656 685.1484,552.0234 Q685.4219,551.7813 686.0469,551.7969 L688.7188,545.1406 L687.6094,545.1406 Q687,545.1406 686.7344,544.9063 Q686.4688,544.6719 686.4688,544.2813 Q686.4688,543.9063 686.7344,543.6719 Q687,543.4375 687.6094,543.4375 L691.2813,543.4375 L694.6719,551.7969 Q695.2656,551.7969 695.4531,551.9375 Q695.8438,552.2031 695.8438,552.6563 Q695.8438,553.0313 695.5859,553.2656 Q695.3281,553.5 694.7188,553.5 L692.4219,553.5 Q691.8125,553.5 691.5469,553.2656 Q691.2813,553.0313 691.2813,552.6406 Q691.2813,552.2656 691.5469,552.0313 Q691.8125,551.7969 692.4219,551.7969 L692.8438,551.7969 L692.4375,550.7656 Z M691.7188,549.0625 L690.3594,545.6875 L688.9844,549.0625 L691.7188,549.0625 Z "/><text fill="#000000" font-family="sans-serif" font-size="12" font-style="italic" lengthAdjust="spacingAndGlyphs" textLength="169" x="710.75" y="553.9102">AbstractCsmCommandBuilder</text><line style="stroke: #A80036; stroke-width: 1.5;" x1="556.5" x2="1001.5" y1="565" y2="565"/><polygon fill="none" points="566.5,572.418,570.5,576.418,566.5,580.418,562.5,576.418" style="stroke: #B38D22; stroke-width: 1.0;"/><text fill="#000000" font-family="sans-serif" font-size="11" lengthAdjust="spacingAndGlyphs" textLength="229" x="575.5" y="580.4189">CsmRevision defaultRevision = CsmRevision.C1</text><line style="stroke: #A80036; stroke-width: 1.5;" x1="556.5" x2="1001.5" y1="586.8359" y2="586.8359"/><ellipse cx="566.5" cy="599.2539" fill="#84BE84" rx="3" ry="3" style="stroke: #038048; stroke-width: 1.0;"/><text fill="#000000" font-family="sans-serif" font-size="11" lengthAdjust="spacingAndGlyphs" textLength="421" x="575.5" y="602.2549">AbstractCsmCommandBuilder(CalypsoSmCommands reference, ApduRequest request)</text><!--class CsmRevision--><rect fill="#FEFECE" filter="url(#f1jxgc4hnzrucx)" height="75.6719" id="CsmRevision" style="stroke: #A80036; stroke-width: 1.5;" width="107" x="413.5" y="533"/><ellipse cx="428.5" cy="549" fill="#EB937F" rx="11" ry="11" style="stroke: #A80036; stroke-width: 1.0;"/><path d="M427.3594,549.7969 L427.3594,552.2969 L431.6875,552.2969 L431.6875,551.375 Q431.6875,550.7656 431.9297,550.5 Q432.1719,550.2344 432.5469,550.2344 Q432.9219,550.2344 433.1563,550.5 Q433.3906,550.7656 433.3906,551.375 L433.3906,554 L425.3906,554 Q424.7656,554 424.5078,553.7656 Q424.25,553.5313 424.25,553.1406 Q424.25,552.7656 424.5156,552.5313 Q424.7813,552.2969 425.3906,552.2969 L425.6563,552.2969 L425.6563,545.6406 L425.3906,545.6406 Q424.7656,545.6406 424.5078,545.4063 Q424.25,545.1719 424.25,544.7813 Q424.25,544.4063 424.5078,544.1719 Q424.7656,543.9375 425.3906,543.9375 L433.0156,543.9375 L433.0156,546.5313 Q433.0156,547.1406 432.7891,547.3984 Q432.5625,547.6563 432.1719,547.6563 Q431.7969,547.6563 431.5625,547.3984 Q431.3281,547.1406 431.3281,546.5313 L431.3281,545.6406 L427.3594,545.6406 L427.3594,548.0938 L428.8438,548.0938 Q428.8438,547.4375 428.9688,547.25 Q429.2344,546.8438 429.7031,546.8438 Q430.0781,546.8438 430.3125,547.1016 Q430.5469,547.3594 430.5469,547.9688 L430.5469,549.9375 Q430.5469,550.4844 430.4219,550.6719 Q430.1563,551.0625 429.7031,551.0625 Q429.2344,551.0625 428.9688,550.6563 Q428.8438,550.4688 428.8438,549.7969 L427.3594,549.7969 Z "/><text fill="#000000" font-family="sans-serif" font-size="12" lengthAdjust="spacingAndGlyphs" textLength="75" x="442.5" y="553.9102">CsmRevision</text><line style="stroke: #A80036; stroke-width: 1.5;" x1="414.5" x2="519.5" y1="565" y2="565"/><text fill="#000000" font-family="sans-serif" font-size="11" lengthAdjust="spacingAndGlyphs" textLength="13" x="419.5" y="580.4189">C1</text><text fill="#000000" font-family="sans-serif" font-size="11" lengthAdjust="spacingAndGlyphs" textLength="20" x="419.5" y="594.2549">S1D</text><line style="stroke: #A80036; stroke-width: 1.5;" x1="414.5" x2="519.5" y1="600.6719" y2="600.6719"/><!--class CalypsoSmCommands--><rect fill="#FEFECE" filter="url(#f1jxgc4hnzrucx)" height="144.8516" id="CalypsoSmCommands" style="stroke: #A80036; stroke-width: 1.5;" width="175" x="1033.5" y="140"/><ellipse cx="1054.35" cy="156" fill="#EB937F" rx="11" ry="11" style="stroke: #A80036; stroke-width: 1.0;"/><path d="M1053.2094,156.7969 L1053.2094,159.2969 L1057.5375,159.2969 L1057.5375,158.375 Q1057.5375,157.7656 1057.7797,157.5 Q1058.0219,157.2344 1058.3969,157.2344 Q1058.7719,157.2344 1059.0063,157.5 Q1059.2406,157.7656 1059.2406,158.375 L1059.2406,161 L1051.2406,161 Q1050.6156,161 1050.3578,160.7656 Q1050.1,160.5313 1050.1,160.1406 Q1050.1,159.7656 1050.3656,159.5313 Q1050.6313,159.2969 1051.2406,159.2969 L1051.5063,159.2969 L1051.5063,152.6406 L1051.2406,152.6406 Q1050.6156,152.6406 1050.3578,152.4063 Q1050.1,152.1719 1050.1,151.7813 Q1050.1,151.4063 1050.3578,151.1719 Q1050.6156,150.9375 1051.2406,150.9375 L1058.8656,150.9375 L1058.8656,153.5313 Q1058.8656,154.1406 1058.6391,154.3984 Q1058.4125,154.6563 1058.0219,154.6563 Q1057.6469,154.6563 1057.4125,154.3984 Q1057.1781,154.1406 1057.1781,153.5313 L1057.1781,152.6406 L1053.2094,152.6406 L1053.2094,155.0938 L1054.6938,155.0938 Q1054.6938,154.4375 1054.8188,154.25 Q1055.0844,153.8438 1055.5531,153.8438 Q1055.9281,153.8438 1056.1625,154.1016 Q1056.3969,154.3594 1056.3969,154.9688 L1056.3969,156.9375 Q1056.3969,157.4844 1056.2719,157.6719 Q1056.0063,158.0625 1055.5531,158.0625 Q1055.0844,158.0625 1054.8188,157.6563 Q1054.6938,157.4688 1054.6938,156.7969 L1053.2094,156.7969 Z "/><text fill="#000000" font-family="sans-serif" font-size="12" lengthAdjust="spacingAndGlyphs" textLength="130" x="1069.65" y="160.9102">CalypsoSmCommands</text><line style="stroke: #A80036; stroke-width: 1.5;" x1="1034.5" x2="1207.5" y1="172" y2="172"/><text fill="#000000" font-family="sans-serif" font-size="11" lengthAdjust="spacingAndGlyphs" textLength="132" x="1039.5" y="187.4189">CSM_SELECT_DIVERSIFIER</text><text fill="#000000" font-family="sans-serif" font-size="11" lengthAdjust="spacingAndGlyphs" textLength="115" x="1039.5" y="201.2549">CSM_GET_CHALLENGE</text><text fill="#000000" font-family="sans-serif" font-size="11" lengthAdjust="spacingAndGlyphs" textLength="87" x="1039.5" y="215.0908">CSM_DIGEST_INIT</text><text fill="#000000" font-family="sans-serif" font-size="11" lengthAdjust="spacingAndGlyphs" textLength="110" x="1039.5" y="228.9268">CSM_DIGEST_UPDATE</text><text fill="#000000" font-family="sans-serif" font-size="11" lengthAdjust="spacingAndGlyphs" textLength="163" x="1039.5" y="242.7627">CSM_DIGEST_UPDATE_MULTIPLE</text><text fill="#000000" font-family="sans-serif" font-size="11" lengthAdjust="spacingAndGlyphs" textLength="104" x="1039.5" y="256.5986">CSM_DIGEST_CLOSE</text><text fill="#000000" font-family="sans-serif" font-size="11" lengthAdjust="spacingAndGlyphs" textLength="146" x="1039.5" y="270.4346">CSM_DIGEST_AUTHENTICATE</text><line style="stroke: #A80036; stroke-width: 1.5;" x1="1034.5" x2="1207.5" y1="276.8516" y2="276.8516"/><!--class SelectDiversifierCmdBuild--><rect fill="#FEFECE" filter="url(#f1jxgc4hnzrucx)" height="48" id="SelectDiversifierCmdBuild" style="stroke: #A80036; stroke-width: 1.5;" width="176" x="691" y="405"/><ellipse cx="706" cy="421" fill="#ADD1B2" rx="11" ry="11" style="stroke: #A80036; stroke-width: 1.0;"/><path d="M708.7656,416.875 Q708.9219,416.6563 709.1094,416.5469 Q709.2969,416.4375 709.5156,416.4375 Q709.8906,416.4375 710.125,416.6953 Q710.3594,416.9531 710.3594,417.5625 L710.3594,419.0156 Q710.3594,419.625 710.125,419.8906 Q709.8906,420.1563 709.5156,420.1563 Q709.1719,420.1563 708.9688,419.9531 Q708.7656,419.7656 708.6563,419.25 Q708.6094,418.8906 708.4219,418.7031 Q708.0938,418.3281 707.4844,418.1094 Q706.875,417.8906 706.25,417.8906 Q705.4844,417.8906 704.8516,418.2188 Q704.2188,418.5469 703.7266,419.2969 Q703.2344,420.0469 703.2344,421.0781 L703.2344,422.1719 Q703.2344,423.4063 704.125,424.2266 Q705.0156,425.0469 706.6094,425.0469 Q707.5469,425.0469 708.2031,424.7969 Q708.5938,424.6406 709.0156,424.2031 Q709.2813,423.9375 709.4297,423.8594 Q709.5781,423.7813 709.7813,423.7813 Q710.1094,423.7813 710.3672,424.0391 Q710.625,424.2969 710.625,424.6406 Q710.625,424.9844 710.2813,425.3906 Q709.7813,425.9688 708.9844,426.2969 Q707.9063,426.75 706.6094,426.75 Q705.0938,426.75 703.8906,426.125 Q702.9063,425.625 702.2188,424.5547 Q701.5313,423.4844 701.5313,422.2031 L701.5313,421.0469 Q701.5313,419.7188 702.1484,418.5703 Q702.7656,417.4219 703.8594,416.8047 Q704.9531,416.1875 706.1875,416.1875 Q706.9219,416.1875 707.5703,416.3516 Q708.2188,416.5156 708.7656,416.875 Z "/><text fill="#000000" font-family="sans-serif" font-size="12" lengthAdjust="spacingAndGlyphs" textLength="144" x="720" y="425.9102">SelectDiversifierCmdBuild</text><line style="stroke: #A80036; stroke-width: 1.5;" x1="692" x2="866" y1="437" y2="437"/><line style="stroke: #A80036; stroke-width: 1.5;" x1="692" x2="866" y1="445" y2="445"/><!--class GetChallengeCmdBuild--><rect fill="#FEFECE" filter="url(#f1jxgc4hnzrucx)" height="48" id="GetChallengeCmdBuild" style="stroke: #A80036; stroke-width: 1.5;" width="163" x="902.5" y="405"/><ellipse cx="917.5" cy="421" fill="#ADD1B2" rx="11" ry="11" style="stroke: #A80036; stroke-width: 1.0;"/><path d="M920.2656,416.875 Q920.4219,416.6563 920.6094,416.5469 Q920.7969,416.4375 921.0156,416.4375 Q921.3906,416.4375 921.625,416.6953 Q921.8594,416.9531 921.8594,417.5625 L921.8594,419.0156 Q921.8594,419.625 921.625,419.8906 Q921.3906,420.1563 921.0156,420.1563 Q920.6719,420.1563 920.4688,419.9531 Q920.2656,419.7656 920.1563,419.25 Q920.1094,418.8906 919.9219,418.7031 Q919.5938,418.3281 918.9844,418.1094 Q918.375,417.8906 917.75,417.8906 Q916.9844,417.8906 916.3516,418.2188 Q915.7188,418.5469 915.2266,419.2969 Q914.7344,420.0469 914.7344,421.0781 L914.7344,422.1719 Q914.7344,423.4063 915.625,424.2266 Q916.5156,425.0469 918.1094,425.0469 Q919.0469,425.0469 919.7031,424.7969 Q920.0938,424.6406 920.5156,424.2031 Q920.7813,423.9375 920.9297,423.8594 Q921.0781,423.7813 921.2813,423.7813 Q921.6094,423.7813 921.8672,424.0391 Q922.125,424.2969 922.125,424.6406 Q922.125,424.9844 921.7813,425.3906 Q921.2813,425.9688 920.4844,426.2969 Q919.4063,426.75 918.1094,426.75 Q916.5938,426.75 915.3906,426.125 Q914.4063,425.625 913.7188,424.5547 Q913.0313,423.4844 913.0313,422.2031 L913.0313,421.0469 Q913.0313,419.7188 913.6484,418.5703 Q914.2656,417.4219 915.3594,416.8047 Q916.4531,416.1875 917.6875,416.1875 Q918.4219,416.1875 919.0703,416.3516 Q919.7188,416.5156 920.2656,416.875 Z "/><text fill="#000000" font-family="sans-serif" font-size="12" lengthAdjust="spacingAndGlyphs" textLength="131" x="931.5" y="425.9102">GetChallengeCmdBuild</text><line style="stroke: #A80036; stroke-width: 1.5;" x1="903.5" x2="1064.5" y1="437" y2="437"/><line style="stroke: #A80036; stroke-width: 1.5;" x1="903.5" x2="1064.5" y1="445" y2="445"/><!--class DigestUpdateCmdBuild--><rect fill="#FEFECE" filter="url(#f1jxgc4hnzrucx)" height="48" id="DigestUpdateCmdBuild" style="stroke: #A80036; stroke-width: 1.5;" width="163" x="492.5" y="405"/><ellipse cx="507.5" cy="421" fill="#ADD1B2" rx="11" ry="11" style="stroke: #A80036; stroke-width: 1.0;"/><path d="M510.2656,416.875 Q510.4219,416.6563 510.6094,416.5469 Q510.7969,416.4375 511.0156,416.4375 Q511.3906,416.4375 511.625,416.6953 Q511.8594,416.9531 511.8594,417.5625 L511.8594,419.0156 Q511.8594,419.625 511.625,419.8906 Q511.3906,420.1563 511.0156,420.1563 Q510.6719,420.1563 510.4688,419.9531 Q510.2656,419.7656 510.1563,419.25 Q510.1094,418.8906 509.9219,418.7031 Q509.5938,418.3281 508.9844,418.1094 Q508.375,417.8906 507.75,417.8906 Q506.9844,417.8906 506.3516,418.2188 Q505.7188,418.5469 505.2266,419.2969 Q504.7344,420.0469 504.7344,421.0781 L504.7344,422.1719 Q504.7344,423.4063 505.625,424.2266 Q506.5156,425.0469 508.1094,425.0469 Q509.0469,425.0469 509.7031,424.7969 Q510.0938,424.6406 510.5156,424.2031 Q510.7813,423.9375 510.9297,423.8594 Q511.0781,423.7813 511.2813,423.7813 Q511.6094,423.7813 511.8672,424.0391 Q512.125,424.2969 512.125,424.6406 Q512.125,424.9844 511.7813,425.3906 Q511.2813,425.9688 510.4844,426.2969 Q509.4063,426.75 508.1094,426.75 Q506.5938,426.75 505.3906,426.125 Q504.4063,425.625 503.7188,424.5547 Q503.0313,423.4844 503.0313,422.2031 L503.0313,421.0469 Q503.0313,419.7188 503.6484,418.5703 Q504.2656,417.4219 505.3594,416.8047 Q506.4531,416.1875 507.6875,416.1875 Q508.4219,416.1875 509.0703,416.3516 Q509.7188,416.5156 510.2656,416.875 Z "/><text fill="#000000" font-family="sans-serif" font-size="12" lengthAdjust="spacingAndGlyphs" textLength="131" x="521.5" y="425.9102">DigestUpdateCmdBuild</text><line style="stroke: #A80036; stroke-width: 1.5;" x1="493.5" x2="654.5" y1="437" y2="437"/><line style="stroke: #A80036; stroke-width: 1.5;" x1="493.5" x2="654.5" y1="445" y2="445"/><!--class DigestUpdateMultipleCmdBuild--><rect fill="#FEFECE" filter="url(#f1jxgc4hnzrucx)" height="48" id="DigestUpdateMultipleCmdBuild" style="stroke: #A80036; stroke-width: 1.5;" width="205" x="252.5" y="405"/><ellipse cx="267.5" cy="421" fill="#ADD1B2" rx="11" ry="11" style="stroke: #A80036; stroke-width: 1.0;"/><path d="M270.2656,416.875 Q270.4219,416.6563 270.6094,416.5469 Q270.7969,416.4375 271.0156,416.4375 Q271.3906,416.4375 271.625,416.6953 Q271.8594,416.9531 271.8594,417.5625 L271.8594,419.0156 Q271.8594,419.625 271.625,419.8906 Q271.3906,420.1563 271.0156,420.1563 Q270.6719,420.1563 270.4688,419.9531 Q270.2656,419.7656 270.1563,419.25 Q270.1094,418.8906 269.9219,418.7031 Q269.5938,418.3281 268.9844,418.1094 Q268.375,417.8906 267.75,417.8906 Q266.9844,417.8906 266.3516,418.2188 Q265.7188,418.5469 265.2266,419.2969 Q264.7344,420.0469 264.7344,421.0781 L264.7344,422.1719 Q264.7344,423.4063 265.625,424.2266 Q266.5156,425.0469 268.1094,425.0469 Q269.0469,425.0469 269.7031,424.7969 Q270.0938,424.6406 270.5156,424.2031 Q270.7813,423.9375 270.9297,423.8594 Q271.0781,423.7813 271.2813,423.7813 Q271.6094,423.7813 271.8672,424.0391 Q272.125,424.2969 272.125,424.6406 Q272.125,424.9844 271.7813,425.3906 Q271.2813,425.9688 270.4844,426.2969 Q269.4063,426.75 268.1094,426.75 Q266.5938,426.75 265.3906,426.125 Q264.4063,425.625 263.7188,424.5547 Q263.0313,423.4844 263.0313,422.2031 L263.0313,421.0469 Q263.0313,419.7188 263.6484,418.5703 Q264.2656,417.4219 265.3594,416.8047 Q266.4531,416.1875 267.6875,416.1875 Q268.4219,416.1875 269.0703,416.3516 Q269.7188,416.5156 270.2656,416.875 Z "/><text fill="#000000" font-family="sans-serif" font-size="12" lengthAdjust="spacingAndGlyphs" textLength="173" x="281.5" y="425.9102">DigestUpdateMultipleCmdBuild</text><line style="stroke: #A80036; stroke-width: 1.5;" x1="253.5" x2="456.5" y1="437" y2="437"/><line style="stroke: #A80036; stroke-width: 1.5;" x1="253.5" x2="456.5" y1="445" y2="445"/><!--class SelectDiversifierRespPars--><rect fill="#FEFECE" filter="url(#f1jxgc4hnzrucx)" height="48" id="SelectDiversifierRespPars" style="stroke: #A80036; stroke-width: 1.5;" width="177" x="1321.5" y="405"/><ellipse cx="1336.5" cy="421" fill="#ADD1B2" rx="11" ry="11" style="stroke: #A80036; stroke-width: 1.0;"/><path d="M1339.2656,416.875 Q1339.4219,416.6563 1339.6094,416.5469 Q1339.7969,416.4375 1340.0156,416.4375 Q1340.3906,416.4375 1340.625,416.6953 Q1340.8594,416.9531 1340.8594,417.5625 L1340.8594,419.0156 Q1340.8594,419.625 1340.625,419.8906 Q1340.3906,420.1563 1340.0156,420.1563 Q1339.6719,420.1563 1339.4688,419.9531 Q1339.2656,419.7656 1339.1563,419.25 Q1339.1094,418.8906 1338.9219,418.7031 Q1338.5938,418.3281 1337.9844,418.1094 Q1337.375,417.8906 1336.75,417.8906 Q1335.9844,417.8906 1335.3516,418.2188 Q1334.7188,418.5469 1334.2266,419.2969 Q1333.7344,420.0469 1333.7344,421.0781 L1333.7344,422.1719 Q1333.7344,423.4063 1334.625,424.2266 Q1335.5156,425.0469 1337.1094,425.0469 Q1338.0469,425.0469 1338.7031,424.7969 Q1339.0938,424.6406 1339.5156,424.2031 Q1339.7813,423.9375 1339.9297,423.8594 Q1340.0781,423.7813 1340.2813,423.7813 Q1340.6094,423.7813 1340.8672,424.0391 Q1341.125,424.2969 1341.125,424.6406 Q1341.125,424.9844 1340.7813,425.3906 Q1340.2813,425.9688 1339.4844,426.2969 Q1338.4063,426.75 1337.1094,426.75 Q1335.5938,426.75 1334.3906,426.125 Q1333.4063,425.625 1332.7188,424.5547 Q1332.0313,423.4844 1332.0313,422.2031 L1332.0313,421.0469 Q1332.0313,419.7188 1332.6484,418.5703 Q1333.2656,417.4219 1334.3594,416.8047 Q1335.4531,416.1875 1336.6875,416.1875 Q1337.4219,416.1875 1338.0703,416.3516 Q1338.7188,416.5156 1339.2656,416.875 Z "/><text fill="#000000" font-family="sans-serif" font-size="12" lengthAdjust="spacingAndGlyphs" textLength="145" x="1350.5" y="425.9102">SelectDiversifierRespPars</text><line style="stroke: #A80036; stroke-width: 1.5;" x1="1322.5" x2="1497.5" y1="437" y2="437"/><line style="stroke: #A80036; stroke-width: 1.5;" x1="1322.5" x2="1497.5" y1="445" y2="445"/><!--class GetChallengeRespPars--><rect fill="#FEFECE" filter="url(#f1jxgc4hnzrucx)" height="48" id="GetChallengeRespPars" style="stroke: #A80036; stroke-width: 1.5;" width="164" x="1534" y="405"/><ellipse cx="1549" cy="421" fill="#ADD1B2" rx="11" ry="11" style="stroke: #A80036; stroke-width: 1.0;"/><path d="M1551.7656,416.875 Q1551.9219,416.6563 1552.1094,416.5469 Q1552.2969,416.4375 1552.5156,416.4375 Q1552.8906,416.4375 1553.125,416.6953 Q1553.3594,416.9531 1553.3594,417.5625 L1553.3594,419.0156 Q1553.3594,419.625 1553.125,419.8906 Q1552.8906,420.1563 1552.5156,420.1563 Q1552.1719,420.1563 1551.9688,419.9531 Q1551.7656,419.7656 1551.6563,419.25 Q1551.6094,418.8906 1551.4219,418.7031 Q1551.0938,418.3281 1550.4844,418.1094 Q1549.875,417.8906 1549.25,417.8906 Q1548.4844,417.8906 1547.8516,418.2188 Q1547.2188,418.5469 1546.7266,419.2969 Q1546.2344,420.0469 1546.2344,421.0781 L1546.2344,422.1719 Q1546.2344,423.4063 1547.125,424.2266 Q1548.0156,425.0469 1549.6094,425.0469 Q1550.5469,425.0469 1551.2031,424.7969 Q1551.5938,424.6406 1552.0156,424.2031 Q1552.2813,423.9375 1552.4297,423.8594 Q1552.5781,423.7813 1552.7813,423.7813 Q1553.1094,423.7813 1553.3672,424.0391 Q1553.625,424.2969 1553.625,424.6406 Q1553.625,424.9844 1553.2813,425.3906 Q1552.7813,425.9688 1551.9844,426.2969 Q1550.9063,426.75 1549.6094,426.75 Q1548.0938,426.75 1546.8906,426.125 Q1545.9063,425.625 1545.2188,424.5547 Q1544.5313,423.4844 1544.5313,422.2031 L1544.5313,421.0469 Q1544.5313,419.7188 1545.1484,418.5703 Q1545.7656,417.4219 1546.8594,416.8047 Q1547.9531,416.1875 1549.1875,416.1875 Q1549.9219,416.1875 1550.5703,416.3516 Q1551.2188,416.5156 1551.7656,416.875 Z "/><text fill="#000000" font-family="sans-serif" font-size="12" lengthAdjust="spacingAndGlyphs" textLength="132" x="1563" y="425.9102">GetChallengeRespPars</text><line style="stroke: #A80036; stroke-width: 1.5;" x1="1535" x2="1697" y1="437" y2="437"/><line style="stroke: #A80036; stroke-width: 1.5;" x1="1535" x2="1697" y1="445" y2="445"/><!--class DigestUpdateRespPars--><rect fill="#FEFECE" filter="url(#f1jxgc4hnzrucx)" height="48" id="DigestUpdateRespPars" style="stroke: #A80036; stroke-width: 1.5;" width="164" x="1122" y="405"/><ellipse cx="1137" cy="421" fill="#ADD1B2" rx="11" ry="11" style="stroke: #A80036; stroke-width: 1.0;"/><path d="M1139.7656,416.875 Q1139.9219,416.6563 1140.1094,416.5469 Q1140.2969,416.4375 1140.5156,416.4375 Q1140.8906,416.4375 1141.125,416.6953 Q1141.3594,416.9531 1141.3594,417.5625 L1141.3594,419.0156 Q1141.3594,419.625 1141.125,419.8906 Q1140.8906,420.1563 1140.5156,420.1563 Q1140.1719,420.1563 1139.9688,419.9531 Q1139.7656,419.7656 1139.6563,419.25 Q1139.6094,418.8906 1139.4219,418.7031 Q1139.0938,418.3281 1138.4844,418.1094 Q1137.875,417.8906 1137.25,417.8906 Q1136.4844,417.8906 1135.8516,418.2188 Q1135.2188,418.5469 1134.7266,419.2969 Q1134.2344,420.0469 1134.2344,421.0781 L1134.2344,422.1719 Q1134.2344,423.4063 1135.125,424.2266 Q1136.0156,425.0469 1137.6094,425.0469 Q1138.5469,425.0469 1139.2031,424.7969 Q1139.5938,424.6406 1140.0156,424.2031 Q1140.2813,423.9375 1140.4297,423.8594 Q1140.5781,423.7813 1140.7813,423.7813 Q1141.1094,423.7813 1141.3672,424.0391 Q1141.625,424.2969 1141.625,424.6406 Q1141.625,424.9844 1141.2813,425.3906 Q1140.7813,425.9688 1139.9844,426.2969 Q1138.9063,426.75 1137.6094,426.75 Q1136.0938,426.75 1134.8906,426.125 Q1133.9063,425.625 1133.2188,424.5547 Q1132.5313,423.4844 1132.5313,422.2031 L1132.5313,421.0469 Q1132.5313,419.7188 1133.1484,418.5703 Q1133.7656,417.4219 1134.8594,416.8047 Q1135.9531,416.1875 1137.1875,416.1875 Q1137.9219,416.1875 1138.5703,416.3516 Q1139.2188,416.5156 1139.7656,416.875 Z "/><text fill="#000000" font-family="sans-serif" font-size="12" lengthAdjust="spacingAndGlyphs" textLength="132" x="1151" y="425.9102">DigestUpdateRespPars</text><line style="stroke: #A80036; stroke-width: 1.5;" x1="1123" x2="1285" y1="437" y2="437"/><line style="stroke: #A80036; stroke-width: 1.5;" x1="1123" x2="1285" y1="445" y2="445"/><!--link AbstractApduCommandBuilder to CommandsTable--><path d="M935.78,779.554 C975.342,753.486 1023.18,727.288 1071,714 C1234.58,668.55 1287.71,675.23 1453,714 C1519.83,729.675 1588.98,763.857 1641.72,794.339 " fill="none" id="AbstractApduCommandBuilder-CommandsTable" style="stroke: #A80036; stroke-width: 1.0;"/><polygon fill="#A80036" points="1653.06,800.981,1649.9049,794.4968,1642.706,794.9152,1645.861,801.3995,1653.06,800.981" style="stroke: #A80036; stroke-width: 1.0;"/><polygon fill="#A80036" points="924.848,786.892,934.5499,785.1971,928.9994,784.1053,930.0913,778.5548,924.848,786.892" style="stroke: #A80036; stroke-width: 1.0;"/><line style="stroke: #A80036; stroke-width: 1.0;" x1="928.9994" x2="935.642" y1="784.1053" y2="779.647"/><text fill="#000000" font-family="sans-serif" font-size="13" lengthAdjust="spacingAndGlyphs" textLength="60" x="1271" y="695.4951">references</text><text fill="#000000" font-family="sans-serif" font-size="13" lengthAdjust="spacingAndGlyphs" textLength="5" x="928.7454" y="776.3546">*</text><text fill="#000000" font-family="sans-serif" font-size="13" lengthAdjust="spacingAndGlyphs" textLength="7" x="1634.4669" y="790.1068">1</text><!--link CommandsTable to AbstractApduResponseParser--><path d="M1519.39,852.5 C1495.81,852.5 1471.91,852.5 1448.68,852.5 " fill="none" id="CommandsTable-AbstractApduResponseParser" style="stroke: #A80036; stroke-width: 1.0;"/><polygon fill="#A80036" points="1435.68,852.5,1444.68,856.5,1440.68,852.5,1444.68,848.5,1435.68,852.5" style="stroke: #A80036; stroke-width: 1.0;"/><line style="stroke: #A80036; stroke-width: 1.0;" x1="1440.68" x2="1448.68" y1="852.5" y2="852.5"/><polygon fill="#A80036" points="1532.46,852.5,1526.46,848.5,1520.46,852.5,1526.46,856.5,1532.46,852.5" style="stroke: #A80036; stroke-width: 1.0;"/><text fill="#000000" font-family="sans-serif" font-size="13" lengthAdjust="spacingAndGlyphs" textLength="60" x="1454" y="845.9951">references</text><text fill="#000000" font-family="sans-serif" font-size="13" lengthAdjust="spacingAndGlyphs" textLength="7" x="1517.5288" y="849.6828">1</text><text fill="#000000" font-family="sans-serif" font-size="13" lengthAdjust="spacingAndGlyphs" textLength="5" x="1443.6632" y="849.6402">*</text><!--link CsmRevision to AbstractCsmCommandBuilder--><path d="M520.625,571 C532.232,571 543.838,571 555.445,571 " fill="none" id="CsmRevision-AbstractCsmCommandBuilder" style="stroke: #A80036; stroke-width: 1.0;"/><text fill="#000000" font-family="sans-serif" font-size="13" lengthAdjust="spacingAndGlyphs" textLength="15" x="528.4566" y="567.5137">+1</text><text fill="#000000" font-family="sans-serif" font-size="13" lengthAdjust="spacingAndGlyphs" textLength="20" x="528.5556" y="568.1572">1..*</text><!--link SelectDiversifierCmdBuild to AbstractCsmCommandBuilder--><path d="M779,453.118 C779,469.369 779,491.86 779,512.775 " fill="none" id="SelectDiversifierCmdBuild-AbstractCsmCommandBuilder" style="stroke: #A80036; stroke-width: 1.0;"/><polygon fill="none" points="786,512.876,779,532.876,772,512.876,786,512.876" style="stroke: #A80036; stroke-width: 1.0;"/><text fill="#000000" font-family="sans-serif" font-size="13" lengthAdjust="spacingAndGlyphs" textLength="46" x="780" y="499.4951">extends</text><!--link GetChallengeCmdBuild to AbstractCsmCommandBuilder--><path d="M950.148,453.118 C923.006,471.655 883.977,498.308 850.042,521.484 " fill="none" id="GetChallengeCmdBuild-AbstractCsmCommandBuilder" style="stroke: #A80036; stroke-width: 1.0;"/><polygon fill="none" points="853.824,527.377,833.36,532.876,845.929,515.816,853.824,527.377" style="stroke: #A80036; stroke-width: 1.0;"/><text fill="#000000" font-family="sans-serif" font-size="13" lengthAdjust="spacingAndGlyphs" textLength="46" x="901" y="499.4951">extends</text><!--link DigestUpdateCmdBuild to AbstractCsmCommandBuilder--><path d="M607.852,453.118 C634.994,471.655 674.023,498.308 707.958,521.484 " fill="none" id="DigestUpdateCmdBuild-AbstractCsmCommandBuilder" style="stroke: #A80036; stroke-width: 1.0;"/><polygon fill="none" points="712.071,515.816,724.64,532.876,704.176,527.377,712.071,515.816" style="stroke: #A80036; stroke-width: 1.0;"/><text fill="#000000" font-family="sans-serif" font-size="13" lengthAdjust="spacingAndGlyphs" textLength="46" x="678" y="499.4951">extends</text><!--link DigestUpdateMultipleCmdBuild to AbstractCsmCommandBuilder--><path d="M411.136,453.011 C431.167,460.949 453.976,469.679 475,477 C525.271,494.505 580.812,512.021 630.517,527.054 " fill="none" id="DigestUpdateMultipleCmdBuild-AbstractCsmCommandBuilder" style="stroke: #A80036; stroke-width: 1.0;"/><polygon fill="none" points="632.839,520.442,649.977,532.904,628.808,533.85,632.839,520.442" style="stroke: #A80036; stroke-width: 1.0;"/><text fill="#000000" font-family="sans-serif" font-size="13" lengthAdjust="spacingAndGlyphs" textLength="46" x="551" y="499.4951">extends</text><!--link CalypsoSmCommands to SelectDiversifierCmdBuild--><path d="M1021.89,288.68 C966.007,317.487 940.575,308.506 885,341 C858.748,356.349 832.303,378.041 812.394,395.924 " fill="none" id="CalypsoSmCommands-SelectDiversifierCmdBuild" style="stroke: #A80036; stroke-width: 1.0;"/><polygon fill="#A80036" points="802.614,404.875,811.9537,401.7493,806.3024,401.4992,806.5525,395.8479,802.614,404.875" style="stroke: #A80036; stroke-width: 1.0;"/><line style="stroke: #A80036; stroke-width: 1.0;" x1="806.3024" x2="812.204" y1="401.4992" y2="396.0985"/><polygon fill="#A80036" points="1033.49,282.391,1026.3087,281.7362,1022.9422,288.1132,1030.1235,288.768,1033.49,282.391" style="stroke: #A80036; stroke-width: 1.0;"/><text fill="#000000" font-family="sans-serif" font-size="13" lengthAdjust="spacingAndGlyphs" textLength="60" x="948" y="329.4951">references</text><text fill="#000000" font-family="sans-serif" font-size="13" lengthAdjust="spacingAndGlyphs" textLength="7" x="1018.3844" y="285.4205">1</text><text fill="#000000" font-family="sans-serif" font-size="13" lengthAdjust="spacingAndGlyphs" textLength="7" x="800.7682" y="394.1831">1</text><!--link CalypsoSmCommands to GetChallengeCmdBuild--><path d="M1068.09,296.34 C1046.51,330.126 1022.75,367.324 1006.01,393.538 " fill="none" id="CalypsoSmCommands-GetChallengeCmdBuild" style="stroke: #A80036; stroke-width: 1.0;"/><polygon fill="#A80036" points="998.845,404.758,1007.06,399.3253,1001.5359,400.5439,1000.3174,395.0198,998.845,404.758" style="stroke: #A80036; stroke-width: 1.0;"/><line style="stroke: #A80036; stroke-width: 1.0;" x1="1001.5359" x2="1005.844" y1="400.5439" y2="393.8015"/><polygon fill="#A80036" points="1075.19,285.224,1068.5892,288.1274,1068.7305,295.3371,1075.3313,292.4337,1075.19,285.224" style="stroke: #A80036; stroke-width: 1.0;"/><text fill="#000000" font-family="sans-serif" font-size="13" lengthAdjust="spacingAndGlyphs" textLength="60" x="1054" y="329.4951">references</text><text fill="#000000" font-family="sans-serif" font-size="13" lengthAdjust="spacingAndGlyphs" textLength="7" x="1063.4901" y="306.437">1</text><text fill="#000000" font-family="sans-serif" font-size="13" lengthAdjust="spacingAndGlyphs" textLength="7" x="994.7522" y="394.0361">1</text><!--link CalypsoSmCommands to DigestUpdateCmdBuild--><path d="M1021.21,288.038 C878.283,344.21 813.848,274.428 673,341 C645.996,353.764 620.79,376.132 602.57,394.991 " fill="none" id="CalypsoSmCommands-DigestUpdateCmdBuild" style="stroke: #A80036; stroke-width: 1.0;"/><polygon fill="#A80036" points="593.453,404.743,602.5212,400.9002,596.8676,401.0905,596.6773,395.4369,593.453,404.743" style="stroke: #A80036; stroke-width: 1.0;"/><line style="stroke: #A80036; stroke-width: 1.0;" x1="596.8676" x2="602.331" y1="401.0905" y2="395.2465"/><polygon fill="#A80036" points="1033.45,282.996,1026.3796,281.5785,1022.3517,287.5598,1029.4221,288.9773,1033.45,282.996" style="stroke: #A80036; stroke-width: 1.0;"/><text fill="#000000" font-family="sans-serif" font-size="13" lengthAdjust="spacingAndGlyphs" textLength="60" x="746" y="329.4951">references</text><text fill="#000000" font-family="sans-serif" font-size="13" lengthAdjust="spacingAndGlyphs" textLength="7" x="1018.6254" y="303.2584">1</text><text fill="#000000" font-family="sans-serif" font-size="13" lengthAdjust="spacingAndGlyphs" textLength="7" x="590.541" y="394.0173">1</text><!--link CalypsoSmCommands to DigestUpdateMultipleCmdBuild--><path d="M1020.92,287.466 C926.023,315.967 713.598,304.709 629,315 C624.693,315.524 479,339.321 475,341 C443.454,354.236 412.31,377.188 389.658,396.195 " fill="none" id="CalypsoSmCommands-DigestUpdateMultipleCmdBuild" style="stroke: #A80036; stroke-width: 1.0;"/><polygon fill="#A80036" points="379.567,404.874,388.9988,402.0384,383.3579,401.6138,383.7825,395.9729,379.567,404.874" style="stroke: #A80036; stroke-width: 1.0;"/><line style="stroke: #A80036; stroke-width: 1.0;" x1="383.3579" x2="389.423" y1="401.6138" y2="396.397"/><polygon fill="#A80036" points="1033.23,283.278,1026.2616,281.4227,1021.869,287.1415,1028.8373,288.9968,1033.23,283.278" style="stroke: #A80036; stroke-width: 1.0;"/><text fill="#000000" font-family="sans-serif" font-size="13" lengthAdjust="spacingAndGlyphs" textLength="60" x="630" y="329.4951">references</text><text fill="#000000" font-family="sans-serif" font-size="13" lengthAdjust="spacingAndGlyphs" textLength="7" x="1022.9596" y="306.4047">1</text><text fill="#000000" font-family="sans-serif" font-size="13" lengthAdjust="spacingAndGlyphs" textLength="7" x="377.9654" y="394.1819">1</text><!--link CalypsoSmCommands to SelectDiversifierRespPars--><path d="M1219.3,289.893 C1253.55,312.614 1267.75,315.986 1303,341 C1327.28,358.227 1353.21,379.241 1373.46,396.301 " fill="none" id="CalypsoSmCommands-SelectDiversifierRespPars" style="stroke: #A80036; stroke-width: 1.0;"/><polygon fill="#A80036" points="1383.5,404.82,1379.2203,395.9496,1379.6856,401.5873,1374.0479,402.0526,1383.5,404.82" style="stroke: #A80036; stroke-width: 1.0;"/><line style="stroke: #A80036; stroke-width: 1.0;" x1="1379.6856" x2="1373.59" y1="401.5873" y2="396.407"/><polygon fill="#A80036" points="1208.53,282.56,1211.2393,289.2428,1218.45,289.3123,1215.7408,282.6295,1208.53,282.56" style="stroke: #A80036; stroke-width: 1.0;"/><text fill="#000000" font-family="sans-serif" font-size="13" lengthAdjust="spacingAndGlyphs" textLength="60" x="1292" y="329.4951">references</text><text fill="#000000" font-family="sans-serif" font-size="13" lengthAdjust="spacingAndGlyphs" textLength="7" x="1216.6374" y="285.6046">1</text><text fill="#000000" font-family="sans-serif" font-size="13" lengthAdjust="spacingAndGlyphs" textLength="7" x="1368.8125" y="394.114">1</text><!--link CalypsoSmCommands to GetChallengeRespPars--><path d="M1220.91,288.718 C1340.83,337.776 1396.23,283.279 1516,341 C1543.19,354.101 1568.76,376.61 1587.24,395.45 " fill="none" id="CalypsoSmCommands-GetChallengeRespPars" style="stroke: #A80036; stroke-width: 1.0;"/><polygon fill="#A80036" points="1596.23,404.899,1592.9298,395.6195,1592.7857,401.2746,1587.1307,401.1305,1596.23,404.899" style="stroke: #A80036; stroke-width: 1.0;"/><line style="stroke: #A80036; stroke-width: 1.0;" x1="1592.7857" x2="1587.27" y1="401.2746" y2="395.48"/><polygon fill="#A80036" points="1208.71,283.465,1212.6382,289.5122,1219.7311,288.2121,1215.8029,282.1648,1208.71,283.465" style="stroke: #A80036; stroke-width: 1.0;"/><text fill="#000000" font-family="sans-serif" font-size="13" lengthAdjust="spacingAndGlyphs" textLength="60" x="1496" y="329.4951">references</text><text fill="#000000" font-family="sans-serif" font-size="13" lengthAdjust="spacingAndGlyphs" textLength="7" x="1216.5484" y="303.7677">1</text><text fill="#000000" font-family="sans-serif" font-size="13" lengthAdjust="spacingAndGlyphs" textLength="7" x="1583.2671" y="394.2133">1</text><!--link CalypsoSmCommands to DigestUpdateRespPars--><path d="M1153.54,297.593 C1166.33,330.645 1180.31,366.779 1190.31,392.611 " fill="none" id="CalypsoSmCommands-DigestUpdateRespPars" style="stroke: #A80036; stroke-width: 1.0;"/><polygon fill="#A80036" points="1195.01,404.758,1195.4938,394.921,1193.2062,400.0947,1188.0325,397.8071,1195.01,404.758" style="stroke: #A80036; stroke-width: 1.0;"/><line style="stroke: #A80036; stroke-width: 1.0;" x1="1193.2062" x2="1190.315" y1="400.0947" y2="392.634"/><polygon fill="#A80036" points="1148.75,285.224,1147.1839,292.263,1153.0791,296.4159,1154.6452,289.3769,1148.75,285.224" style="stroke: #A80036; stroke-width: 1.0;"/><text fill="#000000" font-family="sans-serif" font-size="13" lengthAdjust="spacingAndGlyphs" textLength="60" x="1166" y="329.4951">references</text><text fill="#000000" font-family="sans-serif" font-size="13" lengthAdjust="spacingAndGlyphs" textLength="7" x="1144.0613" y="306.437">1</text><text fill="#000000" font-family="sans-serif" font-size="13" lengthAdjust="spacingAndGlyphs" textLength="7" x="1184.8094" y="394.0361">1</text><!--link SendableInSession to DigestUpdateCmdBuild--><path d="M166.038,249.659 C203.412,281.645 256.533,324.525 282,333 C322.73,346.554 435.156,325.03 475,341 C508.132,354.28 537.647,383.681 555.65,404.625 " fill="none" id="SendableInSession-DigestUpdateCmdBuild" style="stroke: #A80036; stroke-width: 1.0; stroke-dasharray: 7.0,7.0;"/><polygon fill="none" points="161.413,254.914,150.866,236.535,170.572,244.325,161.413,254.914" style="stroke: #A80036; stroke-width: 1.0;"/><text fill="#000000" font-family="sans-serif" font-size="13" lengthAdjust="spacingAndGlyphs" textLength="67" x="283" y="329.4951">implements</text><!--link SendableInSession to DigestUpdateMultipleCmdBuild--><path d="M133.06,256.323 C139.546,281.098 150.845,311.522 170,333 C199.798,366.413 244.134,389.746 281.933,404.925 " fill="none" id="SendableInSession-DigestUpdateMultipleCmdBuild" style="stroke: #A80036; stroke-width: 1.0; stroke-dasharray: 7.0,7.0;"/><polygon fill="none" points="126.223,257.825,128.6,236.769,139.872,254.712,126.223,257.825" style="stroke: #A80036; stroke-width: 1.0;"/><text fill="#000000" font-family="sans-serif" font-size="13" lengthAdjust="spacingAndGlyphs" textLength="67" x="171" y="329.4951">implements</text><!--link CalypsoSmCommands to CommandsTable--><path d="M1208.64,283.62 C1209.76,284.098 1210.88,284.558 1212,285 C1316.43,326.152 1640.27,256.364 1714,341 C1820.96,463.784 1783.75,673.065 1754.15,781.594 " fill="none" id="CalypsoSmCommands-CommandsTable" style="stroke: #A80036; stroke-width: 1.0;"/><polygon fill="none" points="1760.85,783.627,1748.66,800.957,1747.38,779.806,1760.85,783.627" style="stroke: #A80036; stroke-width: 1.0;"/><text fill="#000000" font-family="sans-serif" font-size="13" lengthAdjust="spacingAndGlyphs" textLength="67" x="1782" y="499.4951">implements</text><!--link AbstractCsmCommandBuilder to AbstractApduCommandBuilder--><path d="M787.233,609.115 C796.122,649.187 810.577,714.351 822.261,767.025 " fill="none" id="AbstractCsmCommandBuilder-AbstractApduCommandBuilder" style="stroke: #A80036; stroke-width: 1.0;"/><polygon fill="none" points="829.17,765.846,826.667,786.887,815.502,768.878,829.17,765.846" style="stroke: #A80036; stroke-width: 1.0;"/><text fill="#000000" font-family="sans-serif" font-size="13" lengthAdjust="spacingAndGlyphs" textLength="46" x="808" y="695.4951">extends</text><!--link SelectDiversifierRespPars to AbstractApduResponseParser--><path d="M1405.74,453.197 C1396.69,500.446 1373.56,610.829 1340,699 C1331.11,722.349 1319.66,746.797 1308.28,769.108 " fill="none" id="SelectDiversifierRespPars-AbstractApduResponseParser" style="stroke: #A80036; stroke-width: 1.0;"/><polygon fill="none" points="1314.47,772.382,1299.01,786.876,1302.05,765.906,1314.47,772.382" style="stroke: #A80036; stroke-width: 1.0;"/><text fill="#000000" font-family="sans-serif" font-size="13" lengthAdjust="spacingAndGlyphs" textLength="46" x="1390" y="576.4951">extends</text><!--link GetChallengeRespPars to AbstractApduResponseParser--><path d="M1601.76,453.136 C1573.97,497.581 1509.56,597.207 1445,673 C1415.56,707.563 1380.43,743.007 1348.85,773.108 " fill="none" id="GetChallengeRespPars-AbstractApduResponseParser" style="stroke: #A80036; stroke-width: 1.0;"/><polygon fill="none" points="1353.5,778.344,1334.15,786.983,1343.89,768.163,1353.5,778.344" style="stroke: #A80036; stroke-width: 1.0;"/><text fill="#000000" font-family="sans-serif" font-size="13" lengthAdjust="spacingAndGlyphs" textLength="46" x="1551" y="576.4951">extends</text><!--link DigestUpdateRespPars to AbstractApduResponseParser--><path d="M1211.65,453.067 C1214.64,462.825 1217.86,474.374 1220,485 C1239.23,580.555 1250.44,692.027 1256.37,766.718 " fill="none" id="DigestUpdateRespPars-AbstractApduResponseParser" style="stroke: #A80036; stroke-width: 1.0;"/><polygon fill="none" points="1263.36,766.29,1257.9,786.766,1249.4,767.359,1263.36,766.29" style="stroke: #A80036; stroke-width: 1.0;"/><text fill="#000000" font-family="sans-serif" font-size="13" lengthAdjust="spacingAndGlyphs" textLength="46" x="1249" y="576.4951">extends</text><!--link org.eclipse.keyple.calypso.command to org.eclipse.keyple.command--><!--
@startuml

package org.eclipse.keyple.command #FFFFFF {

abstract AbstractApduCommandBuilder {
  -CommandsTable commandReference
  -ApduRequest apduRequest
  +AbstractApduCommandBuilder(CommandsTable reference, ApduRequest request)
  +String getName()
  +ApduRequest getApduRequest()
  +Class<? extends AbstractApduResponseParser> getApduResponseParserClass()
}

abstract AbstractApduResponseParser {
  -ApduResponse apduResponse
  +AbstractApduResponseParser(ApduResponse responseToParse)
  +ApduResponse getApduResponse()
  +short getStatusCode()
  +boolean isSuccessful()
  +String getStatusInformation()
}

interface CommandsTable {
  +String getName()
  +byte getInstructionByte()
  +Class<? extends AbstractApduCommandBuilder> getCommandBuilderClass()
  +Class<? extends AbstractApduResponseParser> getResponseParserClass()
}

CommandsTable "1" *-left-> "*" AbstractApduCommandBuilder : references
CommandsTable "1" *-right-> "*" AbstractApduResponseParser : references
}
package org.eclipse.keyple.calypso.command #FFFFFF {

package org.eclipse.keyple.calypso.command.csm #FFFFFF {

abstract AbstractCsmCommandBuilder {
  #CsmRevision defaultRevision = CsmRevision.C1
  +AbstractCsmCommandBuilder(CalypsoSmCommands reference, ApduRequest request)
}

enum CsmRevision {
  C1
  S1D
}

CsmRevision "+1" -right- "1..*" AbstractCsmCommandBuilder

enum CalypsoSmCommands {
  CSM_SELECT_DIVERSIFIER
  CSM_GET_CHALLENGE
  CSM_DIGEST_INIT
  CSM_DIGEST_UPDATE
  CSM_DIGEST_UPDATE_MULTIPLE
  CSM_DIGEST_CLOSE
  CSM_DIGEST_AUTHENTICATE
}

package org.eclipse.keyple.calypso.command.csm.builder #FFFFFF {
class SelectDiversifierCmdBuild
class GetChallengeCmdBuild
class DigestUpdateCmdBuild
class DigestUpdateMultipleCmdBuild
}

package org.eclipse.keyple.calypso.command.csm.parser #FFFFFF {
class SelectDiversifierRespPars
class GetChallengeRespPars
class DigestUpdateRespPars
}

SelectDiversifierCmdBuild - -|> AbstractCsmCommandBuilder : extends
GetChallengeCmdBuild - -|> AbstractCsmCommandBuilder : extends
DigestUpdateCmdBuild - -|> AbstractCsmCommandBuilder : extends
DigestUpdateMultipleCmdBuild - -|> AbstractCsmCommandBuilder : extends

CalypsoSmCommands "1" *- -> "1" SelectDiversifierCmdBuild : references
CalypsoSmCommands "1" *- -> "1" GetChallengeCmdBuild : references
CalypsoSmCommands "1" *- -> "1" DigestUpdateCmdBuild : references
CalypsoSmCommands "1" *- -> "1" DigestUpdateMultipleCmdBuild : references

CalypsoSmCommands "1" *- -> "1" SelectDiversifierRespPars : references
CalypsoSmCommands "1" *- -> "1" GetChallengeRespPars : references
CalypsoSmCommands "1" *- -> "1" DigestUpdateRespPars : references
}

interface SendableInSession

DigestUpdateCmdBuild .up.|> SendableInSession : implements
DigestUpdateMultipleCmdBuild .up.|> SendableInSession : implements
}

CalypsoSmCommands - -|> CommandsTable : implements
AbstractCsmCommandBuilder -down-|> AbstractApduCommandBuilder : extends

SelectDiversifierRespPars- -|> AbstractApduResponseParser : extends
GetChallengeRespPars - -|> AbstractApduResponseParser : extends
DigestUpdateRespPars - -|> AbstractApduResponseParser : extends

org.eclipse.keyple.calypso.command -down[hidden]- org.eclipse.keyple.command
@enduml

PlantUML version 1.2018.01(Sun Jan 28 22:08:22 MUT 2018)
(APACHE source distribution)
Java Runtime: Java(TM) SE Runtime Environment
JVM: Java HotSpot(TM) 64-Bit Server VM
Java Version: 10.0.1+10
Operating System: Windows 10
OS Version: 10.0
Default Encoding: Cp1252
Language: fr
Country: FR
--></g></svg>