<?xml version="1.0" encoding="UTF-8" standalone="no"?><svg xmlns="http://www.w3.org/2000/svg" xmlns:xlink="http://www.w3.org/1999/xlink" contentScriptType="application/ecmascript" contentStyleType="text/css" height="411px" preserveAspectRatio="none" style="width:1442px;height:411px;" version="1.1" viewBox="0 0 1442 411" width="1442px" zoomAndPan="magnify"><defs><filter height="300%" id="fro0ruydvr6tu" width="300%" x="-1" y="-1"><feGaussianBlur result="blurOut" stdDeviation="2.0"/><feColorMatrix in="blurOut" result="blurOut2" type="matrix" values="0 0 0 0 0 0 0 0 0 0 0 0 0 0 0 0 0 0 .4 0"/><feOffset dx="4.0" dy="4.0" in="blurOut2" result="blurOut3"/><feBlend in="SourceGraphic" in2="blurOut3" mode="normal"/></filter></defs><g><!--cluster org.eclipse.keyple.seproxy--><polygon fill="#FFFFFF" filter="url(#fro0ruydvr6tu)" points="521,257,716,257,723,280.6094,1142,280.6094,1142,399,521,399,521,257" style="stroke: #000000; stroke-width: 1.5;"/><line style="stroke: #000000; stroke-width: 1.5;" x1="521" x2="723" y1="280.6094" y2="280.6094"/><text fill="#000000" font-family="sans-serif" font-size="14" font-weight="bold" lengthAdjust="spacingAndGlyphs" textLength="189" x="525" y="273.5332">org.eclipse.keyple.seproxy</text><!--cluster org.eclipse.keyple.command--><polygon fill="#FFFFFF" filter="url(#fro0ruydvr6tu)" points="22,24,228,24,235,47.6094,1420,47.6094,1420,207,22,207,22,24" style="stroke: #000000; stroke-width: 1.5;"/><line style="stroke: #000000; stroke-width: 1.5;" x1="22" x2="235" y1="47.6094" y2="47.6094"/><text fill="#000000" font-family="sans-serif" font-size="14" font-weight="bold" lengthAdjust="spacingAndGlyphs" textLength="200" x="26" y="40.5332">org.eclipse.keyple.command</text><!--class ApduRequest--><rect fill="#FEFECE" filter="url(#fro0ruydvr6tu)" height="89.5078" id="ApduRequest" style="stroke: #A80036; stroke-width: 1.5;" width="260" x="537" y="293"/><ellipse cx="606.25" cy="309" fill="#ADD1B2" rx="11" ry="11" style="stroke: #A80036; stroke-width: 1.0;"/><path d="M609.0156,304.875 Q609.1719,304.6563 609.3594,304.5469 Q609.5469,304.4375 609.7656,304.4375 Q610.1406,304.4375 610.375,304.6953 Q610.6094,304.9531 610.6094,305.5625 L610.6094,307.0156 Q610.6094,307.625 610.375,307.8906 Q610.1406,308.1563 609.7656,308.1563 Q609.4219,308.1563 609.2188,307.9531 Q609.0156,307.7656 608.9063,307.25 Q608.8594,306.8906 608.6719,306.7031 Q608.3438,306.3281 607.7344,306.1094 Q607.125,305.8906 606.5,305.8906 Q605.7344,305.8906 605.1016,306.2188 Q604.4688,306.5469 603.9766,307.2969 Q603.4844,308.0469 603.4844,309.0781 L603.4844,310.1719 Q603.4844,311.4063 604.375,312.2266 Q605.2656,313.0469 606.8594,313.0469 Q607.7969,313.0469 608.4531,312.7969 Q608.8438,312.6406 609.2656,312.2031 Q609.5313,311.9375 609.6797,311.8594 Q609.8281,311.7813 610.0313,311.7813 Q610.3594,311.7813 610.6172,312.0391 Q610.875,312.2969 610.875,312.6406 Q610.875,312.9844 610.5313,313.3906 Q610.0313,313.9688 609.2344,314.2969 Q608.1563,314.75 606.8594,314.75 Q605.3438,314.75 604.1406,314.125 Q603.1563,313.625 602.4688,312.5547 Q601.7813,311.4844 601.7813,310.2031 L601.7813,309.0469 Q601.7813,307.7188 602.3984,306.5703 Q603.0156,305.4219 604.1094,304.8047 Q605.2031,304.1875 606.4375,304.1875 Q607.1719,304.1875 607.8203,304.3516 Q608.4688,304.5156 609.0156,304.875 Z "/><ellipse cx="631.75" cy="308.5" fill="#84BE84" rx="3" ry="3" style="stroke: #038048; stroke-width: 1.0;"/><text fill="#000000" font-family="sans-serif" font-size="12" font-weight="bold" lengthAdjust="spacingAndGlyphs" textLength="24" x="637.75" y="313.9102">final</text><text fill="#000000" font-family="sans-serif" font-size="12" lengthAdjust="spacingAndGlyphs" textLength="75" x="664.75" y="313.9102">ApduRequest</text><line style="stroke: #A80036; stroke-width: 1.5;" x1="538" x2="796" y1="325" y2="325"/><rect fill="none" height="6" style="stroke: #C82930; stroke-width: 1.0;" width="6" x="545" y="334.418"/><text fill="#000000" font-family="sans-serif" font-size="11" lengthAdjust="spacingAndGlyphs" textLength="71" x="557" y="340.4189">boolean case4</text><line style="stroke: #A80036; stroke-width: 1.5;" x1="538" x2="796" y1="346.8359" y2="346.8359"/><ellipse cx="548" cy="359.2539" fill="#84BE84" rx="3" ry="3" style="stroke: #038048; stroke-width: 1.0;"/><text fill="#000000" font-family="sans-serif" font-size="11" lengthAdjust="spacingAndGlyphs" textLength="234" x="557" y="362.2549">ApduRequest(ByteBuffer bytes, boolean case4)</text><ellipse cx="548" cy="373.0898" fill="#84BE84" rx="3" ry="3" style="stroke: #038048; stroke-width: 1.0;"/><text fill="#000000" font-family="sans-serif" font-size="11" lengthAdjust="spacingAndGlyphs" textLength="88" x="557" y="376.0908">boolean isCase4()</text><!--class ApduResponse--><rect fill="#FEFECE" filter="url(#fro0ruydvr6tu)" height="89.5078" id="ApduResponse" style="stroke: #A80036; stroke-width: 1.5;" width="293" x="832.5" y="293"/><ellipse cx="912.75" cy="309" fill="#ADD1B2" rx="11" ry="11" style="stroke: #A80036; stroke-width: 1.0;"/><path d="M915.5156,304.875 Q915.6719,304.6563 915.8594,304.5469 Q916.0469,304.4375 916.2656,304.4375 Q916.6406,304.4375 916.875,304.6953 Q917.1094,304.9531 917.1094,305.5625 L917.1094,307.0156 Q917.1094,307.625 916.875,307.8906 Q916.6406,308.1563 916.2656,308.1563 Q915.9219,308.1563 915.7188,307.9531 Q915.5156,307.7656 915.4063,307.25 Q915.3594,306.8906 915.1719,306.7031 Q914.8438,306.3281 914.2344,306.1094 Q913.625,305.8906 913,305.8906 Q912.2344,305.8906 911.6016,306.2188 Q910.9688,306.5469 910.4766,307.2969 Q909.9844,308.0469 909.9844,309.0781 L909.9844,310.1719 Q909.9844,311.4063 910.875,312.2266 Q911.7656,313.0469 913.3594,313.0469 Q914.2969,313.0469 914.9531,312.7969 Q915.3438,312.6406 915.7656,312.2031 Q916.0313,311.9375 916.1797,311.8594 Q916.3281,311.7813 916.5313,311.7813 Q916.8594,311.7813 917.1172,312.0391 Q917.375,312.2969 917.375,312.6406 Q917.375,312.9844 917.0313,313.3906 Q916.5313,313.9688 915.7344,314.2969 Q914.6563,314.75 913.3594,314.75 Q911.8438,314.75 910.6406,314.125 Q909.6563,313.625 908.9688,312.5547 Q908.2813,311.4844 908.2813,310.2031 L908.2813,309.0469 Q908.2813,307.7188 908.8984,306.5703 Q909.5156,305.4219 910.6094,304.8047 Q911.7031,304.1875 912.9375,304.1875 Q913.6719,304.1875 914.3203,304.3516 Q914.9688,304.5156 915.5156,304.875 Z "/><ellipse cx="938.25" cy="308.5" fill="#84BE84" rx="3" ry="3" style="stroke: #038048; stroke-width: 1.0;"/><text fill="#000000" font-family="sans-serif" font-size="12" font-weight="bold" lengthAdjust="spacingAndGlyphs" textLength="24" x="944.25" y="313.9102">final</text><text fill="#000000" font-family="sans-serif" font-size="12" lengthAdjust="spacingAndGlyphs" textLength="86" x="971.25" y="313.9102">ApduResponse</text><line style="stroke: #A80036; stroke-width: 1.5;" x1="833.5" x2="1124.5" y1="325" y2="325"/><rect fill="none" height="6" style="stroke: #C82930; stroke-width: 1.0;" width="6" x="840.5" y="334.418"/><text fill="#000000" font-family="sans-serif" font-size="11" lengthAdjust="spacingAndGlyphs" textLength="95" x="852.5" y="340.4189">boolean successful</text><line style="stroke: #A80036; stroke-width: 1.5;" x1="833.5" x2="1124.5" y1="346.8359" y2="346.8359"/><ellipse cx="843.5" cy="359.2539" fill="#84BE84" rx="3" ry="3" style="stroke: #038048; stroke-width: 1.0;"/><text fill="#000000" font-family="sans-serif" font-size="11" lengthAdjust="spacingAndGlyphs" textLength="267" x="852.5" y="362.2549">ApduResponse(ByteBuffer bytes, boolean successful)</text><ellipse cx="843.5" cy="373.0898" fill="#84BE84" rx="3" ry="3" style="stroke: #038048; stroke-width: 1.0;"/><text fill="#000000" font-family="sans-serif" font-size="11" lengthAdjust="spacingAndGlyphs" textLength="112" x="852.5" y="376.0908">boolean isSuccessful()</text><!--class AbstractApduCommandBuilder--><rect fill="#FEFECE" filter="url(#fro0ruydvr6tu)" height="131.0156" id="AbstractApduCommandBuilder" style="stroke: #A80036; stroke-width: 1.5;" width="425" x="38.5" y="60"/><ellipse cx="160.75" cy="76" fill="#A9DCDF" rx="11" ry="11" style="stroke: #A80036; stroke-width: 1.0;"/><path d="M162.9375,77.7656 L158.7969,77.7656 L158.375,78.7969 L158.7969,78.7969 Q159.4063,78.7969 159.6719,79.0313 Q159.9375,79.2656 159.9375,79.6563 Q159.9375,80.0313 159.6719,80.2656 Q159.4063,80.5 158.7969,80.5 L156.5,80.5 Q155.8906,80.5 155.6328,80.2656 Q155.375,80.0313 155.375,79.6406 Q155.375,79.2656 155.6484,79.0234 Q155.9219,78.7813 156.5469,78.7969 L159.2188,72.1406 L158.1094,72.1406 Q157.5,72.1406 157.2344,71.9063 Q156.9688,71.6719 156.9688,71.2813 Q156.9688,70.9063 157.2344,70.6719 Q157.5,70.4375 158.1094,70.4375 L161.7813,70.4375 L165.1719,78.7969 Q165.7656,78.7969 165.9531,78.9375 Q166.3438,79.2031 166.3438,79.6563 Q166.3438,80.0313 166.0859,80.2656 Q165.8281,80.5 165.2188,80.5 L162.9219,80.5 Q162.3125,80.5 162.0469,80.2656 Q161.7813,80.0313 161.7813,79.6406 Q161.7813,79.2656 162.0469,79.0313 Q162.3125,78.7969 162.9219,78.7969 L163.3438,78.7969 L162.9375,77.7656 Z M162.2188,76.0625 L160.8594,72.6875 L159.4844,76.0625 L162.2188,76.0625 Z "/><text fill="#000000" font-family="sans-serif" font-size="12" font-style="italic" lengthAdjust="spacingAndGlyphs" textLength="172" x="181.25" y="80.9102">AbstractApduCommandBuilder</text><line style="stroke: #A80036; stroke-width: 1.5;" x1="39.5" x2="462.5" y1="92" y2="92"/><rect fill="none" height="6" style="stroke: #C82930; stroke-width: 1.0;" width="6" x="46.5" y="101.418"/><text fill="#000000" font-family="sans-serif" font-size="11" lengthAdjust="spacingAndGlyphs" textLength="179" x="58.5" y="107.4189">CommandsTable commandReference</text><rect fill="none" height="6" style="stroke: #C82930; stroke-width: 1.0;" width="6" x="46.5" y="115.2539"/><text fill="#000000" font-family="sans-serif" font-size="11" lengthAdjust="spacingAndGlyphs" textLength="133" x="58.5" y="121.2549">ApduRequest apduRequest</text><line style="stroke: #A80036; stroke-width: 1.5;" x1="39.5" x2="462.5" y1="127.6719" y2="127.6719"/><ellipse cx="49.5" cy="140.0898" fill="#84BE84" rx="3" ry="3" style="stroke: #038048; stroke-width: 1.0;"/><text fill="#000000" font-family="sans-serif" font-size="11" lengthAdjust="spacingAndGlyphs" textLength="398" x="58.5" y="143.0908">AbstractApduCommandBuilder(CommandsTable reference, ApduRequest request)</text><ellipse cx="49.5" cy="153.9258" fill="#84BE84" rx="3" ry="3" style="stroke: #038048; stroke-width: 1.0;"/><text fill="#000000" font-family="sans-serif" font-size="11" lengthAdjust="spacingAndGlyphs" textLength="81" x="58.5" y="156.9268">String getName()</text><ellipse cx="49.5" cy="167.7617" fill="#84BE84" rx="3" ry="3" style="stroke: #038048; stroke-width: 1.0;"/><text fill="#000000" font-family="sans-serif" font-size="11" lengthAdjust="spacingAndGlyphs" textLength="158" x="58.5" y="170.7627">ApduRequest getApduRequest()</text><ellipse cx="49.5" cy="181.5977" fill="#84BE84" rx="3" ry="3" style="stroke: #038048; stroke-width: 1.0;"/><text fill="#000000" font-family="sans-serif" font-size="11" lengthAdjust="spacingAndGlyphs" textLength="399" x="58.5" y="184.5986">Class&lt;? extends AbstractApduResponseParser&gt; getApduResponseParserClass()</text><!--class AbstractApduResponseParser--><rect fill="#FEFECE" filter="url(#fro0ruydvr6tu)" height="131.0156" id="AbstractApduResponseParser" style="stroke: #A80036; stroke-width: 1.5;" width="347" x="1056.5" y="60"/><ellipse cx="1142.75" cy="76" fill="#A9DCDF" rx="11" ry="11" style="stroke: #A80036; stroke-width: 1.0;"/><path d="M1144.9375,77.7656 L1140.7969,77.7656 L1140.375,78.7969 L1140.7969,78.7969 Q1141.4063,78.7969 1141.6719,79.0313 Q1141.9375,79.2656 1141.9375,79.6563 Q1141.9375,80.0313 1141.6719,80.2656 Q1141.4063,80.5 1140.7969,80.5 L1138.5,80.5 Q1137.8906,80.5 1137.6328,80.2656 Q1137.375,80.0313 1137.375,79.6406 Q1137.375,79.2656 1137.6484,79.0234 Q1137.9219,78.7813 1138.5469,78.7969 L1141.2188,72.1406 L1140.1094,72.1406 Q1139.5,72.1406 1139.2344,71.9063 Q1138.9688,71.6719 1138.9688,71.2813 Q1138.9688,70.9063 1139.2344,70.6719 Q1139.5,70.4375 1140.1094,70.4375 L1143.7813,70.4375 L1147.1719,78.7969 Q1147.7656,78.7969 1147.9531,78.9375 Q1148.3438,79.2031 1148.3438,79.6563 Q1148.3438,80.0313 1148.0859,80.2656 Q1147.8281,80.5 1147.2188,80.5 L1144.9219,80.5 Q1144.3125,80.5 1144.0469,80.2656 Q1143.7813,80.0313 1143.7813,79.6406 Q1143.7813,79.2656 1144.0469,79.0313 Q1144.3125,78.7969 1144.9219,78.7969 L1145.3438,78.7969 L1144.9375,77.7656 Z M1144.2188,76.0625 L1142.8594,72.6875 L1141.4844,76.0625 L1144.2188,76.0625 Z "/><text fill="#000000" font-family="sans-serif" font-size="12" font-style="italic" lengthAdjust="spacingAndGlyphs" textLength="166" x="1163.25" y="80.9102">AbstractApduResponseParser</text><line style="stroke: #A80036; stroke-width: 1.5;" x1="1057.5" x2="1402.5" y1="92" y2="92"/><rect fill="none" height="6" style="stroke: #C82930; stroke-width: 1.0;" width="6" x="1064.5" y="101.418"/><text fill="#000000" font-family="sans-serif" font-size="11" lengthAdjust="spacingAndGlyphs" textLength="151" x="1076.5" y="107.4189">ApduResponse apduResponse</text><line style="stroke: #A80036; stroke-width: 1.5;" x1="1057.5" x2="1402.5" y1="113.8359" y2="113.8359"/><ellipse cx="1067.5" cy="126.2539" fill="#84BE84" rx="3" ry="3" style="stroke: #038048; stroke-width: 1.0;"/><text fill="#000000" font-family="sans-serif" font-size="11" lengthAdjust="spacingAndGlyphs" textLength="321" x="1076.5" y="129.2549">AbstractApduResponseParser(ApduResponse responseToParse)</text><ellipse cx="1067.5" cy="140.0898" fill="#84BE84" rx="3" ry="3" style="stroke: #038048; stroke-width: 1.0;"/><text fill="#000000" font-family="sans-serif" font-size="11" lengthAdjust="spacingAndGlyphs" textLength="176" x="1076.5" y="143.0908">ApduResponse getApduResponse()</text><ellipse cx="1067.5" cy="153.9258" fill="#84BE84" rx="3" ry="3" style="stroke: #038048; stroke-width: 1.0;"/><text fill="#000000" font-family="sans-serif" font-size="11" lengthAdjust="spacingAndGlyphs" textLength="107" x="1076.5" y="156.9268">short getStatusCode()</text><ellipse cx="1067.5" cy="167.7617" fill="#84BE84" rx="3" ry="3" style="stroke: #038048; stroke-width: 1.0;"/><text fill="#000000" font-family="sans-serif" font-size="11" lengthAdjust="spacingAndGlyphs" textLength="112" x="1076.5" y="170.7627">boolean isSuccessful()</text><ellipse cx="1067.5" cy="181.5977" fill="#84BE84" rx="3" ry="3" style="stroke: #038048; stroke-width: 1.0;"/><text fill="#000000" font-family="sans-serif" font-size="11" lengthAdjust="spacingAndGlyphs" textLength="138" x="1076.5" y="184.5986">String getStatusInformation()</text><!--class CommandsTable--><rect fill="#FEFECE" filter="url(#fro0ruydvr6tu)" height="103.3438" id="CommandsTable" style="stroke: #A80036; stroke-width: 1.5;" width="399" x="560.5" y="74"/><ellipse cx="707.25" cy="90" fill="#B4A7E5" rx="11" ry="11" style="stroke: #A80036; stroke-width: 1.0;"/><path d="M708.2031,86.6406 L708.2031,93.2969 L709.9219,93.2969 Q710.5313,93.2969 710.7969,93.5313 Q711.0625,93.7656 711.0625,94.1563 Q711.0625,94.5313 710.7969,94.7656 Q710.5313,95 709.9219,95 L704.7813,95 Q704.1719,95 703.9063,94.7656 Q703.6406,94.5313 703.6406,94.1406 Q703.6406,93.7656 703.9063,93.5313 Q704.1719,93.2969 704.7813,93.2969 L706.5,93.2969 L706.5,86.6406 L704.7813,86.6406 Q704.1719,86.6406 703.9063,86.4063 Q703.6406,86.1719 703.6406,85.7813 Q703.6406,85.4063 703.9063,85.1719 Q704.1719,84.9375 704.7813,84.9375 L709.9219,84.9375 Q710.5313,84.9375 710.7969,85.1719 Q711.0625,85.4063 711.0625,85.7813 Q711.0625,86.1719 710.7969,86.4063 Q710.5313,86.6406 709.9219,86.6406 L708.2031,86.6406 Z "/><text fill="#000000" font-family="sans-serif" font-size="12" font-style="italic" lengthAdjust="spacingAndGlyphs" textLength="97" x="727.75" y="94.9102">CommandsTable</text><line style="stroke: #A80036; stroke-width: 1.5;" x1="561.5" x2="958.5" y1="106" y2="106"/><line style="stroke: #A80036; stroke-width: 1.5;" x1="561.5" x2="958.5" y1="114" y2="114"/><ellipse cx="571.5" cy="126.418" fill="#84BE84" rx="3" ry="3" style="stroke: #038048; stroke-width: 1.0;"/><text fill="#000000" font-family="sans-serif" font-size="11" lengthAdjust="spacingAndGlyphs" textLength="81" x="580.5" y="129.4189">String getName()</text><ellipse cx="571.5" cy="140.2539" fill="#84BE84" rx="3" ry="3" style="stroke: #038048; stroke-width: 1.0;"/><text fill="#000000" font-family="sans-serif" font-size="11" lengthAdjust="spacingAndGlyphs" textLength="119" x="580.5" y="143.2549">byte getInstructionByte()</text><ellipse cx="571.5" cy="154.0898" fill="#84BE84" rx="3" ry="3" style="stroke: #038048; stroke-width: 1.0;"/><text fill="#000000" font-family="sans-serif" font-size="11" lengthAdjust="spacingAndGlyphs" textLength="371" x="580.5" y="157.0908">Class&lt;? extends AbstractApduCommandBuilder&gt; getCommandBuilderClass()</text><ellipse cx="571.5" cy="167.9258" fill="#84BE84" rx="3" ry="3" style="stroke: #038048; stroke-width: 1.0;"/><text fill="#000000" font-family="sans-serif" font-size="11" lengthAdjust="spacingAndGlyphs" textLength="373" x="580.5" y="170.9268">Class&lt;? extends AbstractApduResponseParser&gt; getResponseParserClass()</text><!--link ApduRequest to ApduResponse--><!--link AbstractApduCommandBuilder to CommandsTable--><path d="M476.728,125.5 C500.103,125.5 523.806,125.5 547.034,125.5 " fill="none" id="AbstractApduCommandBuilder-CommandsTable" style="stroke: #A80036; stroke-width: 1.0;"/><polygon fill="#A80036" points="560.266,125.5,554.266,121.5,548.266,125.5,554.266,129.5,560.266,125.5" style="stroke: #A80036; stroke-width: 1.0;"/><polygon fill="#A80036" points="463.544,125.5,472.544,129.5,468.544,125.5,472.544,121.5,463.544,125.5" style="stroke: #A80036; stroke-width: 1.0;"/><line style="stroke: #A80036; stroke-width: 1.0;" x1="468.544" x2="476.544" y1="125.5" y2="125.5"/><text fill="#000000" font-family="sans-serif" font-size="13" lengthAdjust="spacingAndGlyphs" textLength="60" x="482" y="118.9951">references</text><text fill="#000000" font-family="sans-serif" font-size="13" lengthAdjust="spacingAndGlyphs" textLength="5" x="471.2721" y="122.7137">*</text><text fill="#000000" font-family="sans-serif" font-size="13" lengthAdjust="spacingAndGlyphs" textLength="7" x="545.3272" y="122.6828">1</text><!--link CommandsTable to AbstractApduResponseParser--><path d="M972.885,125.5 C996.323,125.5 1020.06,125.5 1043.14,125.5 " fill="none" id="CommandsTable-AbstractApduResponseParser" style="stroke: #A80036; stroke-width: 1.0;"/><polygon fill="#A80036" points="1056.27,125.5,1047.27,121.5,1051.27,125.5,1047.27,129.5,1056.27,125.5" style="stroke: #A80036; stroke-width: 1.0;"/><line style="stroke: #A80036; stroke-width: 1.0;" x1="1051.27" x2="1043.27" y1="125.5" y2="125.5"/><polygon fill="#A80036" points="959.663,125.5,965.663,129.5,971.663,125.5,965.663,121.5,959.663,125.5" style="stroke: #A80036; stroke-width: 1.0;"/><text fill="#000000" font-family="sans-serif" font-size="13" lengthAdjust="spacingAndGlyphs" textLength="60" x="978" y="118.9951">references</text><text fill="#000000" font-family="sans-serif" font-size="13" lengthAdjust="spacingAndGlyphs" textLength="7" x="967.5991" y="122.6828">1</text><text fill="#000000" font-family="sans-serif" font-size="13" lengthAdjust="spacingAndGlyphs" textLength="5" x="1043.2846" y="122.6402">*</text><!--link AbstractApduCommandBuilder to ApduRequest--><path d="M390.614,197.146 C448.777,226.577 514.967,260.07 567.989,286.899 " fill="none" id="AbstractApduCommandBuilder-ApduRequest" style="stroke: #A80036; stroke-width: 1.0;"/><polygon fill="#A80036" points="579.784,292.868,573.5597,285.2353,575.3227,290.6104,569.9476,292.3734,579.784,292.868" style="stroke: #A80036; stroke-width: 1.0;"/><line style="stroke: #A80036; stroke-width: 1.0;" x1="575.3227" x2="568.1845" y1="290.6104" y2="286.998"/><polygon fill="#FFFFFF" points="378.641,191.087,382.1885,197.3651,389.3482,196.5052,385.8006,190.227,378.641,191.087" style="stroke: #A80036; stroke-width: 1.0;"/><text fill="#000000" font-family="sans-serif" font-size="13" lengthAdjust="spacingAndGlyphs" textLength="76" x="472" y="237.4951">apduRequest</text><text fill="#000000" font-family="sans-serif" font-size="13" lengthAdjust="spacingAndGlyphs" textLength="15" x="376.7814" y="212.6491">+1</text><text fill="#000000" font-family="sans-serif" font-size="13" lengthAdjust="spacingAndGlyphs" textLength="7" x="558.8931" y="282.2919">1</text><!--link AbstractApduResponseParser to ApduResponse--><path d="M1142.69,199.723 C1109.44,227.609 1072.23,258.811 1041.7,284.413 " fill="none" id="AbstractApduResponseParser-ApduResponse" style="stroke: #A80036; stroke-width: 1.0;"/><polygon fill="#A80036" points="1031.62,292.868,1041.0856,290.1473,1035.4503,289.6541,1035.9434,284.0188,1031.62,292.868" style="stroke: #A80036; stroke-width: 1.0;"/><line style="stroke: #A80036; stroke-width: 1.0;" x1="1035.4503" x2="1041.585" y1="289.6541" y2="284.514"/><polygon fill="#FFFFFF" points="1152.99,191.087,1145.8226,191.8794,1143.7973,198.8003,1150.9648,198.0079,1152.99,191.087" style="stroke: #A80036; stroke-width: 1.0;"/><text fill="#000000" font-family="sans-serif" font-size="13" lengthAdjust="spacingAndGlyphs" textLength="86" x="1113" y="237.4951">apduResponse</text><text fill="#000000" font-family="sans-serif" font-size="13" lengthAdjust="spacingAndGlyphs" textLength="15" x="1128.7467" y="212.6491">+1</text><text fill="#000000" font-family="sans-serif" font-size="13" lengthAdjust="spacingAndGlyphs" textLength="7" x="1032.1415" y="282.2919">1</text><!--
@startuml

package org.eclipse.keyple.seproxy #FFFFFF {
+class "<b>final</b> ApduRequest" as ApduRequest {
  -boolean case4
  +ApduRequest(ByteBuffer bytes, boolean case4)
  +boolean isCase4()
}

+class "<b>final</b> ApduResponse" as ApduResponse {
  -boolean successful
  +ApduResponse(ByteBuffer bytes, boolean successful)
  +boolean isSuccessful()
}

ApduRequest -right[hidden]- ApduResponse
}
package org.eclipse.keyple.command #FFFFFF {

abstract AbstractApduCommandBuilder {
  -CommandsTable commandReference
  -ApduRequest apduRequest
  +AbstractApduCommandBuilder(CommandsTable reference, ApduRequest request)
  +String getName()
  +ApduRequest getApduRequest()
  +Class<? extends AbstractApduResponseParser> getApduResponseParserClass()
}

abstract AbstractApduResponseParser {
  -ApduResponse apduResponse
  +AbstractApduResponseParser(ApduResponse responseToParse)
  +ApduResponse getApduResponse()
  +short getStatusCode()
  +boolean isSuccessful()
  +String getStatusInformation()
}

interface CommandsTable {
  +String getName()
  +byte getInstructionByte()
  +Class<? extends AbstractApduCommandBuilder> getCommandBuilderClass()
  +Class<? extends AbstractApduResponseParser> getResponseParserClass()
}

CommandsTable "1" *-left-> "*" AbstractApduCommandBuilder : references
CommandsTable "1" *-right-> "*" AbstractApduResponseParser : references
}

AbstractApduCommandBuilder "+1" o-down-> "1" ApduRequest : apduRequest
AbstractApduResponseParser "+1" o-down-> "1" ApduResponse : apduResponse
@enduml

PlantUML version 1.2018.01(Sun Jan 28 22:08:22 MUT 2018)
(APACHE source distribution)
Java Runtime: Java(TM) SE Runtime Environment
JVM: Java HotSpot(TM) 64-Bit Server VM
Java Version: 10.0.1+10
Operating System: Windows 10
OS Version: 10.0
Default Encoding: Cp1252
Language: fr
Country: FR
--></g></svg>