<?xml version="1.0" encoding="UTF-8" standalone="no"?><svg xmlns="http://www.w3.org/2000/svg" xmlns:xlink="http://www.w3.org/1999/xlink" contentScriptType="application/ecmascript" contentStyleType="text/css" height="786px" preserveAspectRatio="none" style="width:953px;height:786px;" version="1.1" viewBox="0 0 953 786" width="953px" zoomAndPan="magnify"><defs><filter height="300%" id="fgesvuqml28tr" width="300%" x="-1" y="-1"><feGaussianBlur result="blurOut" stdDeviation="2.0"/><feColorMatrix in="blurOut" result="blurOut2" type="matrix" values="0 0 0 0 0 0 0 0 0 0 0 0 0 0 0 0 0 0 .4 0"/><feOffset dx="4.0" dy="4.0" in="blurOut2" result="blurOut3"/><feBlend in="SourceGraphic" in2="blurOut3" mode="normal"/></filter></defs><g><!--cluster external.terminalapplication--><polygon fill="#3399FF" filter="url(#fgesvuqml28tr)" points="66,24,268,24,275,47.6094,278,47.6094,278,124,66,124,66,24" style="stroke: #000000; stroke-width: 1.5;"/><line style="stroke: #000000; stroke-width: 1.5;" x1="66" x2="275" y1="47.6094" y2="47.6094"/><text fill="#000000" font-family="sans-serif" font-size="14" font-weight="bold" lengthAdjust="spacingAndGlyphs" textLength="196" x="70" y="40.5332">external.terminalapplication</text><!--cluster org.eclipse.keyple.seproxy--><polygon fill="#FFFFFF" filter="url(#fgesvuqml28tr)" points="22,174,217,174,224,197.6094,757,197.6094,757,774,22,774,22,174" style="stroke: #000000; stroke-width: 1.5;"/><line style="stroke: #000000; stroke-width: 1.5;" x1="22" x2="224" y1="197.6094" y2="197.6094"/><text fill="#000000" font-family="sans-serif" font-size="14" font-weight="bold" lengthAdjust="spacingAndGlyphs" textLength="189" x="26" y="190.5332">org.eclipse.keyple.seproxy</text><!--cluster util--><polygon fill="#FFFFFF" filter="url(#fgesvuqml28tr)" points="299,595,327,595,334,618.6094,611,618.6094,611,750,299,750,299,595" style="stroke: #000000; stroke-width: 1.5;"/><line style="stroke: #000000; stroke-width: 1.5;" x1="299" x2="334" y1="618.6094" y2="618.6094"/><text fill="#000000" font-family="sans-serif" font-size="14" font-weight="bold" lengthAdjust="spacingAndGlyphs" textLength="22" x="303" y="611.5332">util</text><!--cluster java.util--><polygon fill="#FFFFFF" filter="url(#fgesvuqml28tr)" points="781,615.5,842,615.5,849,639.1094,931,639.1094,931,729.5,781,729.5,781,615.5" style="stroke: #000000; stroke-width: 1.5;"/><line style="stroke: #000000; stroke-width: 1.5;" x1="781" x2="849" y1="639.1094" y2="639.1094"/><text fill="#000000" font-family="sans-serif" font-size="14" font-weight="bold" lengthAdjust="spacingAndGlyphs" textLength="55" x="785" y="632.0332">java.util</text><!--class SpecificTerminal--><rect fill="#FEFECE" filter="url(#fgesvuqml28tr)" height="48" id="SpecificTerminal" style="stroke: #A80036; stroke-width: 1.5;" width="124" x="110" y="60"/><ellipse cx="125" cy="76" fill="#ADD1B2" rx="11" ry="11" style="stroke: #A80036; stroke-width: 1.0;"/><path d="M127.7656,71.875 Q127.9219,71.6563 128.1094,71.5469 Q128.2969,71.4375 128.5156,71.4375 Q128.8906,71.4375 129.125,71.6953 Q129.3594,71.9531 129.3594,72.5625 L129.3594,74.0156 Q129.3594,74.625 129.125,74.8906 Q128.8906,75.1563 128.5156,75.1563 Q128.1719,75.1563 127.9688,74.9531 Q127.7656,74.7656 127.6563,74.25 Q127.6094,73.8906 127.4219,73.7031 Q127.0938,73.3281 126.4844,73.1094 Q125.875,72.8906 125.25,72.8906 Q124.4844,72.8906 123.8516,73.2188 Q123.2188,73.5469 122.7266,74.2969 Q122.2344,75.0469 122.2344,76.0781 L122.2344,77.1719 Q122.2344,78.4063 123.125,79.2266 Q124.0156,80.0469 125.6094,80.0469 Q126.5469,80.0469 127.2031,79.7969 Q127.5938,79.6406 128.0156,79.2031 Q128.2813,78.9375 128.4297,78.8594 Q128.5781,78.7813 128.7813,78.7813 Q129.1094,78.7813 129.3672,79.0391 Q129.625,79.2969 129.625,79.6406 Q129.625,79.9844 129.2813,80.3906 Q128.7813,80.9688 127.9844,81.2969 Q126.9063,81.75 125.6094,81.75 Q124.0938,81.75 122.8906,81.125 Q121.9063,80.625 121.2188,79.5547 Q120.5313,78.4844 120.5313,77.2031 L120.5313,76.0469 Q120.5313,74.7188 121.1484,73.5703 Q121.7656,72.4219 122.8594,71.8047 Q123.9531,71.1875 125.1875,71.1875 Q125.9219,71.1875 126.5703,71.3516 Q127.2188,71.5156 127.7656,71.875 Z "/><text fill="#000000" font-family="sans-serif" font-size="12" lengthAdjust="spacingAndGlyphs" textLength="92" x="139" y="80.9102">SpecificTerminal</text><line style="stroke: #A80036; stroke-width: 1.5;" x1="111" x2="233" y1="92" y2="92"/><line style="stroke: #A80036; stroke-width: 1.5;" x1="111" x2="233" y1="100" y2="100"/><!--class SeProxyService--><rect fill="#FEFECE" filter="url(#fgesvuqml28tr)" height="153.0391" id="SeProxyService" style="stroke: #A80036; stroke-width: 1.5;" width="226" x="59" y="210"/><ellipse cx="106.75" cy="230.0938" fill="#ADD1B2" rx="11" ry="11" style="stroke: #A80036; stroke-width: 1.0;"/><path d="M109.5156,225.9688 Q109.6719,225.75 109.8594,225.6406 Q110.0469,225.5313 110.2656,225.5313 Q110.6406,225.5313 110.875,225.7891 Q111.1094,226.0469 111.1094,226.6563 L111.1094,228.1094 Q111.1094,228.7188 110.875,228.9844 Q110.6406,229.25 110.2656,229.25 Q109.9219,229.25 109.7188,229.0469 Q109.5156,228.8594 109.4063,228.3438 Q109.3594,227.9844 109.1719,227.7969 Q108.8438,227.4219 108.2344,227.2031 Q107.625,226.9844 107,226.9844 Q106.2344,226.9844 105.6016,227.3125 Q104.9688,227.6406 104.4766,228.3906 Q103.9844,229.1406 103.9844,230.1719 L103.9844,231.2656 Q103.9844,232.5 104.875,233.3203 Q105.7656,234.1406 107.3594,234.1406 Q108.2969,234.1406 108.9531,233.8906 Q109.3438,233.7344 109.7656,233.2969 Q110.0313,233.0313 110.1797,232.9531 Q110.3281,232.875 110.5313,232.875 Q110.8594,232.875 111.1172,233.1328 Q111.375,233.3906 111.375,233.7344 Q111.375,234.0781 111.0313,234.4844 Q110.5313,235.0625 109.7344,235.3906 Q108.6563,235.8438 107.3594,235.8438 Q105.8438,235.8438 104.6406,235.2188 Q103.6563,234.7188 102.9688,233.6484 Q102.2813,232.5781 102.2813,231.2969 L102.2813,230.1406 Q102.2813,228.8125 102.8984,227.6641 Q103.5156,226.5156 104.6094,225.8984 Q105.7031,225.2813 106.9375,225.2813 Q107.6719,225.2813 108.3203,225.4453 Q108.9688,225.6094 109.5156,225.9688 Z "/><text fill="#000000" font-family="sans-serif" font-size="12" font-style="italic" lengthAdjust="spacingAndGlyphs" textLength="66" x="155.25" y="227.457">«Singleton»</text><ellipse cx="132.25" cy="237.1406" fill="#84BE84" rx="3" ry="3" style="stroke: #038048; stroke-width: 1.0;"/><text fill="#000000" font-family="sans-serif" font-size="12" font-weight="bold" lengthAdjust="spacingAndGlyphs" textLength="24" x="138.25" y="242.5508">final</text><text fill="#000000" font-family="sans-serif" font-size="12" lengthAdjust="spacingAndGlyphs" textLength="84" x="165.25" y="242.5508">SeProxyService</text><line style="stroke: #A80036; stroke-width: 1.5;" x1="60" x2="284" y1="250.1875" y2="250.1875"/><rect fill="none" height="6" style="stroke: #C82930; stroke-width: 1.0;" width="6" x="67" y="259.6055"/><text fill="#000000" font-family="sans-serif" font-size="11" lengthAdjust="spacingAndGlyphs" textLength="50" x="79" y="265.6064">int version</text><line style="stroke: #A80036; stroke-width: 1.5;" x1="60" x2="284" y1="272.0234" y2="272.0234"/><text fill="#000000" font-family="sans-serif" font-size="11" lengthAdjust="spacingAndGlyphs" textLength="143" x="79" y="287.4424">List&lt;ReadersPlugin&gt; plugins()</text><rect fill="#F24D5C" height="6" style="stroke: #C82930; stroke-width: 1.0;" width="6" x="67" y="295.2773"/><text fill="#000000" font-family="sans-serif" font-size="11" lengthAdjust="spacingAndGlyphs" textLength="86" x="79" y="301.2783">SeProxyService()</text><ellipse cx="70" cy="312.1133" fill="#84BE84" rx="3" ry="3" style="stroke: #038048; stroke-width: 1.0;"/><text fill="#000000" font-family="sans-serif" font-size="11" lengthAdjust="spacingAndGlyphs" text-decoration="underline" textLength="145" x="79" y="315.1143">SeProxyService getInstance()</text><line style="stroke: #000000; stroke-width: 1.0;" x1="79" x2="224" y1="317.1143" y2="317.1143"/><ellipse cx="70" cy="325.9492" fill="#84BE84" rx="3" ry="3" style="stroke: #038048; stroke-width: 1.0;"/><text fill="#000000" font-family="sans-serif" font-size="11" lengthAdjust="spacingAndGlyphs" textLength="200" x="79" y="328.9502">setPlugins(List&lt;ReadersPlugin&gt; plugins())</text><ellipse cx="70" cy="339.7852" fill="#84BE84" rx="3" ry="3" style="stroke: #038048; stroke-width: 1.0;"/><text fill="#000000" font-family="sans-serif" font-size="11" lengthAdjust="spacingAndGlyphs" textLength="189" x="79" y="342.7861">SortedSet&lt;ReadersPlugin&gt; getPlugins()</text><ellipse cx="70" cy="353.6211" fill="#84BE84" rx="3" ry="3" style="stroke: #038048; stroke-width: 1.0;"/><text fill="#000000" font-family="sans-serif" font-size="11" lengthAdjust="spacingAndGlyphs" textLength="75" x="79" y="356.6221">int getVersion()</text><!--class ReadersPlugin--><rect fill="#FEFECE" filter="url(#fgesvuqml28tr)" height="61.8359" id="ReadersPlugin" style="stroke: #A80036; stroke-width: 1.5;" width="267" x="38.5" y="455"/><ellipse cx="121.25" cy="471" fill="#B4A7E5" rx="11" ry="11" style="stroke: #A80036; stroke-width: 1.0;"/><path d="M122.2031,467.6406 L122.2031,474.2969 L123.9219,474.2969 Q124.5313,474.2969 124.7969,474.5313 Q125.0625,474.7656 125.0625,475.1563 Q125.0625,475.5313 124.7969,475.7656 Q124.5313,476 123.9219,476 L118.7813,476 Q118.1719,476 117.9063,475.7656 Q117.6406,475.5313 117.6406,475.1406 Q117.6406,474.7656 117.9063,474.5313 Q118.1719,474.2969 118.7813,474.2969 L120.5,474.2969 L120.5,467.6406 L118.7813,467.6406 Q118.1719,467.6406 117.9063,467.4063 Q117.6406,467.1719 117.6406,466.7813 Q117.6406,466.4063 117.9063,466.1719 Q118.1719,465.9375 118.7813,465.9375 L123.9219,465.9375 Q124.5313,465.9375 124.7969,466.1719 Q125.0625,466.4063 125.0625,466.7813 Q125.0625,467.1719 124.7969,467.4063 Q124.5313,467.6406 123.9219,467.6406 L122.2031,467.6406 Z "/><ellipse cx="146.75" cy="470.5" fill="#84BE84" rx="3" ry="3" style="stroke: #038048; stroke-width: 1.0;"/><text fill="#000000" font-family="sans-serif" font-size="12" font-style="italic" lengthAdjust="spacingAndGlyphs" textLength="82" x="152.75" y="475.9102">ReadersPlugin</text><line style="stroke: #A80036; stroke-width: 1.5;" x1="39.5" x2="304.5" y1="487" y2="487"/><line style="stroke: #A80036; stroke-width: 1.5;" x1="39.5" x2="304.5" y1="495" y2="495"/><ellipse cx="49.5" cy="507.418" fill="#84BE84" rx="3" ry="3" style="stroke: #038048; stroke-width: 1.0;"/><text fill="#000000" font-family="sans-serif" font-size="11" lengthAdjust="spacingAndGlyphs" textLength="241" x="58.5" y="510.4189">SortedSet&lt;? extends ProxyReader&gt; getReaders()</text><!--class ProxyReader--><rect fill="#FEFECE" filter="url(#fgesvuqml28tr)" height="89.5078" id="ProxyReader" style="stroke: #A80036; stroke-width: 1.5;" width="356" x="385" y="441"/><ellipse cx="517.25" cy="457" fill="#B4A7E5" rx="11" ry="11" style="stroke: #A80036; stroke-width: 1.0;"/><path d="M518.2031,453.6406 L518.2031,460.2969 L519.9219,460.2969 Q520.5313,460.2969 520.7969,460.5313 Q521.0625,460.7656 521.0625,461.1563 Q521.0625,461.5313 520.7969,461.7656 Q520.5313,462 519.9219,462 L514.7813,462 Q514.1719,462 513.9063,461.7656 Q513.6406,461.5313 513.6406,461.1406 Q513.6406,460.7656 513.9063,460.5313 Q514.1719,460.2969 514.7813,460.2969 L516.5,460.2969 L516.5,453.6406 L514.7813,453.6406 Q514.1719,453.6406 513.9063,453.4063 Q513.6406,453.1719 513.6406,452.7813 Q513.6406,452.4063 513.9063,452.1719 Q514.1719,451.9375 514.7813,451.9375 L519.9219,451.9375 Q520.5313,451.9375 520.7969,452.1719 Q521.0625,452.4063 521.0625,452.7813 Q521.0625,453.1719 520.7969,453.4063 Q520.5313,453.6406 519.9219,453.6406 L518.2031,453.6406 Z "/><ellipse cx="542.75" cy="456.5" fill="#84BE84" rx="3" ry="3" style="stroke: #038048; stroke-width: 1.0;"/><text fill="#000000" font-family="sans-serif" font-size="12" font-style="italic" lengthAdjust="spacingAndGlyphs" textLength="72" x="548.75" y="461.9102">ProxyReader</text><line style="stroke: #A80036; stroke-width: 1.5;" x1="386" x2="740" y1="473" y2="473"/><line style="stroke: #A80036; stroke-width: 1.5;" x1="386" x2="740" y1="481" y2="481"/><ellipse cx="396" cy="493.418" fill="#84BE84" rx="3" ry="3" style="stroke: #038048; stroke-width: 1.0;"/><text fill="#000000" font-family="sans-serif" font-size="11" lengthAdjust="spacingAndGlyphs" textLength="107" x="405" y="496.4189">boolean isSePresent()</text><ellipse cx="396" cy="507.2539" fill="#84BE84" rx="3" ry="3" style="stroke: #038048; stroke-width: 1.0;"/><text fill="#000000" font-family="sans-serif" font-size="11" lengthAdjust="spacingAndGlyphs" textLength="309" x="405" y="510.2549">void addSeProtocolSetting(SeProtocolSetting seProtocolSetting);</text><ellipse cx="396" cy="521.0898" fill="#84BE84" rx="3" ry="3" style="stroke: #038048; stroke-width: 1.0;"/><text fill="#000000" font-family="sans-serif" font-size="11" lengthAdjust="spacingAndGlyphs" textLength="123" x="405" y="524.0908">SeResponseSet transmit(</text><text fill="#000000" font-family="sans-serif" font-size="11" font-weight="bold" lengthAdjust="spacingAndGlyphs" textLength="23" x="528" y="524.0908">final</text><text fill="#000000" font-family="sans-serif" font-size="11" lengthAdjust="spacingAndGlyphs" textLength="181" x="554" y="524.0908">SeRequestSet seApplicationRequest)</text><path d="M78.5,645 L78.5,720.4063 A0,0 0 0 0 78.5,720.4063 L265.5,720.4063 A0,0 0 0 0 265.5,720.4063 L265.5,655 L255.5,645 L176,645 L172,517.391 L168,645 L78.5,645 A0,0 0 0 0 78.5,645 " fill="#FBFB77" filter="url(#fgesvuqml28tr)" style="stroke: #A80036; stroke-width: 1.0;"/><path d="M255.5,645 L255.5,655 L265.5,655 L255.5,645 " fill="#FBFB77" style="stroke: #A80036; stroke-width: 1.0;"/><text fill="#000000" font-family="sans-serif" font-size="13" lengthAdjust="spacingAndGlyphs" textLength="158" x="88.5" y="663.4951">- Must be extended only by</text><text fill="#000000" font-family="sans-serif" font-size="13" font-weight="bold" lengthAdjust="spacingAndGlyphs" textLength="58" x="84.5" y="679.8467">singleton</text><text fill="#000000" font-family="sans-serif" font-size="13" lengthAdjust="spacingAndGlyphs" textLength="45" x="146.5" y="679.8467">classes</text><text fill="#000000" font-family="sans-serif" font-size="13" lengthAdjust="spacingAndGlyphs" textLength="162" x="88.5" y="696.1982">- ProxyReader elements are</text><text fill="#000000" font-family="sans-serif" font-size="13" lengthAdjust="spacingAndGlyphs" textLength="42" x="84.5" y="712.5498">unique.</text><path d="M435,249 L435,324.4063 A0,0 0 0 0 435,324.4063 L559,324.4063 L563,440.915 L567,324.4063 L691,324.4063 A0,0 0 0 0 691,324.4063 L691,259 L681,249 L435,249 A0,0 0 0 0 435,249 " fill="#FBFB77" filter="url(#fgesvuqml28tr)" style="stroke: #A80036; stroke-width: 1.0;"/><path d="M681,249 L681,259 L691,259 L681,249 " fill="#FBFB77" style="stroke: #A80036; stroke-width: 1.0;"/><text fill="#000000" font-family="sans-serif" font-size="13" lengthAdjust="spacingAndGlyphs" textLength="235" x="441" y="267.4951">For implementation classes, the visibility</text><text fill="#000000" font-family="sans-serif" font-size="13" lengthAdjust="spacingAndGlyphs" textLength="224" x="441" y="283.8467">of the constructor should be defined as</text><text fill="#000000" font-family="sans-serif" font-size="13" font-weight="bold" lengthAdjust="spacingAndGlyphs" textLength="67" x="441" y="300.1982">proctected</text><text fill="#000000" font-family="sans-serif" font-size="13" lengthAdjust="spacingAndGlyphs" textLength="126" x="512" y="300.1982">to restrict calls by the</text><text fill="#000000" font-family="sans-serif" font-size="13" lengthAdjust="spacingAndGlyphs" textLength="173" x="441" y="316.5498">corresponding ReadersPlugin.</text><!--class NameableConfigurable--><rect fill="#FEFECE" filter="url(#fgesvuqml28tr)" height="103.3438" id="NameableConfigurable" style="stroke: #A80036; stroke-width: 1.5;" width="279" x="315.5" y="631"/><ellipse cx="385.25" cy="647" fill="#B4A7E5" rx="11" ry="11" style="stroke: #A80036; stroke-width: 1.0;"/><path d="M386.2031,643.6406 L386.2031,650.2969 L387.9219,650.2969 Q388.5313,650.2969 388.7969,650.5313 Q389.0625,650.7656 389.0625,651.1563 Q389.0625,651.5313 388.7969,651.7656 Q388.5313,652 387.9219,652 L382.7813,652 Q382.1719,652 381.9063,651.7656 Q381.6406,651.5313 381.6406,651.1406 Q381.6406,650.7656 381.9063,650.5313 Q382.1719,650.2969 382.7813,650.2969 L384.5,650.2969 L384.5,643.6406 L382.7813,643.6406 Q382.1719,643.6406 381.9063,643.4063 Q381.6406,643.1719 381.6406,642.7813 Q381.6406,642.4063 381.9063,642.1719 Q382.1719,641.9375 382.7813,641.9375 L387.9219,641.9375 Q388.5313,641.9375 388.7969,642.1719 Q389.0625,642.4063 389.0625,642.7813 Q389.0625,643.1719 388.7969,643.4063 Q388.5313,643.6406 387.9219,643.6406 L386.2031,643.6406 Z "/><text fill="#000000" font-family="sans-serif" font-size="12" font-style="italic" lengthAdjust="spacingAndGlyphs" textLength="131" x="405.75" y="651.9102">NameableConfigurable</text><line style="stroke: #A80036; stroke-width: 1.5;" x1="316.5" x2="593.5" y1="663" y2="663"/><line style="stroke: #A80036; stroke-width: 1.5;" x1="316.5" x2="593.5" y1="671" y2="671"/><ellipse cx="326.5" cy="683.418" fill="#84BE84" rx="3" ry="3" style="stroke: #038048; stroke-width: 1.0;"/><text fill="#000000" font-family="sans-serif" font-size="11" lengthAdjust="spacingAndGlyphs" textLength="81" x="335.5" y="686.4189">String getName()</text><ellipse cx="326.5" cy="697.2539" fill="#84BE84" rx="3" ry="3" style="stroke: #038048; stroke-width: 1.0;"/><text fill="#000000" font-family="sans-serif" font-size="11" lengthAdjust="spacingAndGlyphs" textLength="175" x="335.5" y="700.2549">Map&lt;String, String&gt; getParameters()</text><ellipse cx="326.5" cy="711.0898" fill="#84BE84" rx="3" ry="3" style="stroke: #038048; stroke-width: 1.0;"/><text fill="#000000" font-family="sans-serif" font-size="11" lengthAdjust="spacingAndGlyphs" textLength="206" x="335.5" y="714.0908">void setParameter(String key, String value)</text><ellipse cx="326.5" cy="724.9258" fill="#84BE84" rx="3" ry="3" style="stroke: #038048; stroke-width: 1.0;"/><text fill="#000000" font-family="sans-serif" font-size="11" lengthAdjust="spacingAndGlyphs" textLength="253" x="335.5" y="727.9268">void setParameters(Map&lt;String, String&gt; parameters)</text><!--class Comparable--><rect fill="#FEFECE" filter="url(#fgesvuqml28tr)" height="61.8359" id="Comparable" style="stroke: #A80036; stroke-width: 1.5;" width="117" x="797.5" y="651.5"/><ellipse cx="814.3" cy="667.5" fill="#B4A7E5" rx="11" ry="11" style="stroke: #A80036; stroke-width: 1.0;"/><path d="M815.2531,664.1406 L815.2531,670.7969 L816.9719,670.7969 Q817.5813,670.7969 817.8469,671.0313 Q818.1125,671.2656 818.1125,671.6563 Q818.1125,672.0313 817.8469,672.2656 Q817.5813,672.5 816.9719,672.5 L811.8313,672.5 Q811.2219,672.5 810.9563,672.2656 Q810.6906,672.0313 810.6906,671.6406 Q810.6906,671.2656 810.9563,671.0313 Q811.2219,670.7969 811.8313,670.7969 L813.55,670.7969 L813.55,664.1406 L811.8313,664.1406 Q811.2219,664.1406 810.9563,663.9063 Q810.6906,663.6719 810.6906,663.2813 Q810.6906,662.9063 810.9563,662.6719 Q811.2219,662.4375 811.8313,662.4375 L816.9719,662.4375 Q817.5813,662.4375 817.8469,662.6719 Q818.1125,662.9063 818.1125,663.2813 Q818.1125,663.6719 817.8469,663.9063 Q817.5813,664.1406 816.9719,664.1406 L815.2531,664.1406 Z "/><text fill="#000000" font-family="sans-serif" font-size="12" font-style="italic" lengthAdjust="spacingAndGlyphs" textLength="70" x="828.7" y="672.4102">Comparable</text><rect fill="#FFFFFF" height="17.0938" style="stroke: #000000; stroke-width: 1.0; stroke-dasharray: 2.0,2.0;" width="9" x="908.5" y="648.5"/><text fill="#000000" font-family="sans-serif" font-size="12" font-style="italic" lengthAdjust="spacingAndGlyphs" textLength="7" x="909.5" y="661.957">T</text><line style="stroke: #A80036; stroke-width: 1.5;" x1="798.5" x2="913.5" y1="683.5" y2="683.5"/><line style="stroke: #A80036; stroke-width: 1.5;" x1="798.5" x2="913.5" y1="691.5" y2="691.5"/><ellipse cx="808.5" cy="703.918" fill="#84BE84" rx="3" ry="3" style="stroke: #038048; stroke-width: 1.0;"/><text fill="#000000" font-family="sans-serif" font-size="11" lengthAdjust="spacingAndGlyphs" textLength="91" x="817.5" y="706.9189">int compareTo(T o)</text><!--link SpecificTerminal to SeProxyService--><path d="M172,108.392 C172,132.022 172,169.89 172,204.557 " fill="none" id="SpecificTerminal-SeProxyService" style="stroke: #A80036; stroke-width: 1.0;"/><polygon fill="#A80036" points="172,209.646,176,200.646,172,204.646,168,200.646,172,209.646" style="stroke: #A80036; stroke-width: 1.0;"/><text fill="#000000" font-family="sans-serif" font-size="13" lengthAdjust="spacingAndGlyphs" textLength="28" x="173" y="154.4951">uses</text><polygon fill="#000000" points="182.5,163.3516,185.5,169.3516,188.5,163.3516,182.5,163.3516" style="stroke: #000000; stroke-width: 1.0;"/><!--link SeProxyService to ReadersPlugin--><path d="M172,376.3 C172,399.008 172,422.425 172,441.682 " fill="none" id="SeProxyService-ReadersPlugin" style="stroke: #A80036; stroke-width: 1.0;"/><polygon fill="#A80036" points="172,454.899,176,445.899,172,449.899,168,445.899,172,454.899" style="stroke: #A80036; stroke-width: 1.0;"/><line style="stroke: #A80036; stroke-width: 1.0;" x1="172" x2="172" y1="449.899" y2="441.899"/><polygon fill="#A80036" points="172,363.012,168,369.012,172,375.012,176,369.012,172,363.012" style="stroke: #A80036; stroke-width: 1.0;"/><text fill="#000000" font-family="sans-serif" font-size="13" lengthAdjust="spacingAndGlyphs" textLength="41" x="173" y="407.4951">plugins</text><text fill="#000000" font-family="sans-serif" font-size="13" lengthAdjust="spacingAndGlyphs" textLength="7" x="164.6664" y="384.5771">1</text><text fill="#000000" font-family="sans-serif" font-size="13" lengthAdjust="spacingAndGlyphs" textLength="5" x="166.4844" y="444.3827">*</text><!--link ReadersPlugin to ProxyReader--><path d="M318.981,486 C336.161,486 353.876,486 371.546,486 " fill="none" id="ReadersPlugin-ProxyReader" style="stroke: #A80036; stroke-width: 1.0;"/><polygon fill="#A80036" points="384.717,486,375.717,482,379.717,486,375.717,490,384.717,486" style="stroke: #A80036; stroke-width: 1.0;"/><line style="stroke: #A80036; stroke-width: 1.0;" x1="379.717" x2="371.717" y1="486" y2="486"/><polygon fill="#A80036" points="305.74,486,311.74,490,317.74,486,311.74,482,305.74,486" style="stroke: #A80036; stroke-width: 1.0;"/><text fill="#000000" font-family="sans-serif" font-size="13" lengthAdjust="spacingAndGlyphs" textLength="43" x="323.75" y="479.4951">readers</text><text fill="#000000" font-family="sans-serif" font-size="13" lengthAdjust="spacingAndGlyphs" textLength="7" x="313.6742" y="483.0475">1</text><text fill="#000000" font-family="sans-serif" font-size="13" lengthAdjust="spacingAndGlyphs" textLength="5" x="372.0902" y="483.1754">*</text><!--link NameableConfigurable to ReadersPlugin--><path d="M364.707,619.444 C314.982,585.269 255.505,544.392 215.908,517.177 " fill="none" id="NameableConfigurable-ReadersPlugin" style="stroke: #A80036; stroke-width: 1.0;"/><polygon fill="none" points="368.979,613.886,381.497,630.983,361.049,625.423,368.979,613.886" style="stroke: #A80036; stroke-width: 1.0;"/><text fill="#000000" font-family="sans-serif" font-size="13" lengthAdjust="spacingAndGlyphs" textLength="46" x="307" y="575.4951">extends</text><!--link ProxyReader to NameableConfigurable--><path d="M538.493,531.135 C525.079,555.292 508.163,585.757 493.071,612.937 " fill="none" id="ProxyReader-NameableConfigurable" style="stroke: #A80036; stroke-width: 1.0;"/><polygon fill="none" points="499.055,616.58,483.226,630.667,486.815,609.784,499.055,616.58" style="stroke: #A80036; stroke-width: 1.0;"/><text fill="#000000" font-family="sans-serif" font-size="13" lengthAdjust="spacingAndGlyphs" textLength="46" x="522" y="575.4951">extends</text><!--link ReadersPlugin to Comparable--><path d="M299.013,517.033 C321.914,522.014 345.619,526.888 368,531 C460.296,547.957 486.689,535.506 577,561 C648.469,581.175 725.686,615.59 780.728,642.488 " fill="none" id="ReadersPlugin-Comparable" style="stroke: #A80036; stroke-width: 1.0;"/><polygon fill="none" points="784.049,636.322,798.864,651.472,777.835,648.867,784.049,636.322" style="stroke: #A80036; stroke-width: 1.0;"/><text fill="#000000" font-family="sans-serif" font-size="13" lengthAdjust="spacingAndGlyphs" textLength="46" x="633" y="575.4951">extends</text><!--link Comparable to ProxyReader--><path d="M823.357,635.222 C804.036,610.53 777.753,581.167 749,561 C732.782,549.625 714.565,539.647 696.043,531.007 " fill="none" id="Comparable-ProxyReader" style="stroke: #A80036; stroke-width: 1.0;"/><polygon fill="none" points="829.105,631.218,835.566,651.399,817.931,639.652,829.105,631.218" style="stroke: #A80036; stroke-width: 1.0;"/><text fill="#000000" font-family="sans-serif" font-size="13" lengthAdjust="spacingAndGlyphs" textLength="46" x="770" y="575.4951">extends</text><!--
@startuml

package external.terminalapplication #3399FF {
  class SpecificTerminal
}

package org.eclipse.keyple.seproxy #FFFFFF {
+class "<b>final</b> SeProxyService" as SeProxyService << Singleton >> {
  -int version
  List<ReadersPlugin> plugins()
  -SeProxyService()
  +{static}SeProxyService getInstance()
  +setPlugins(List<ReadersPlugin> plugins())
  +SortedSet<ReadersPlugin> getPlugins()
  +int getVersion()
}
+interface ReadersPlugin {
  +SortedSet<? extends ProxyReader> getReaders()
}

+interface ProxyReader {
  +boolean isSePresent()
  +void addSeProtocolSetting(SeProtocolSetting seProtocolSetting);
  +SeResponseSet transmit(<b>final</b> SeRequestSet seApplicationRequest)
}

package util #FFFFFF {

interface NameableConfigurable {
  +String getName()
  +Map<String, String> getParameters()
  +void setParameter(String key, String value)
  +void setParameters(Map<String, String> parameters)
}
}

note " - Must be extended only by\n<b>singleton</b> classes\n - ProxyReader elements are\nunique." as N1


note "For implementation classes, the visibility\nof the constructor should be defined as\n<b>proctected</b> to restrict calls by the\ncorresponding ReadersPlugin." as N2
}


package java.util #FFFFFF {
interface Comparable<T> {
  +int compareTo(T o)
}
}


SpecificTerminal -down-> SeProxyService : uses >

SeProxyService "1" *-down-> "*" ReadersPlugin : plugins
ReadersPlugin "1" *-right-> "*" ProxyReader : readers

NameableConfigurable <|- - ReadersPlugin : extends
NameableConfigurable <|-up- ProxyReader : extends
Comparable <|-up- ReadersPlugin : extends
Comparable <|- - ProxyReader : extends

ReadersPlugin .. N1
ProxyReader .up. N2





@enduml

PlantUML version 1.2018.01(Sun Jan 28 22:08:22 MUT 2018)
(APACHE source distribution)
Java Runtime: Java(TM) SE Runtime Environment
JVM: Java HotSpot(TM) 64-Bit Server VM
Java Version: 10.0.1+10
Operating System: Windows 10
OS Version: 10.0
Default Encoding: Cp1252
Language: fr
Country: FR
--></g></svg>