<?xml version="1.0" encoding="UTF-8" standalone="no"?><svg xmlns="http://www.w3.org/2000/svg" xmlns:xlink="http://www.w3.org/1999/xlink" contentScriptType="application/ecmascript" contentStyleType="text/css" height="776px" preserveAspectRatio="none" style="width:1092px;height:776px;" version="1.1" viewBox="0 0 1092 776" width="1092px" zoomAndPan="magnify"><defs><filter height="300%" id="f1p82dy77btk4w" width="300%" x="-1" y="-1"><feGaussianBlur result="blurOut" stdDeviation="2.0"/><feColorMatrix in="blurOut" result="blurOut2" type="matrix" values="0 0 0 0 0 0 0 0 0 0 0 0 0 0 0 0 0 0 .4 0"/><feOffset dx="4.0" dy="4.0" in="blurOut2" result="blurOut3"/><feBlend in="SourceGraphic" in2="blurOut3" mode="normal"/></filter></defs><g><!--cluster org.eclipse.keyple.seproxy.plugin--><polygon fill="#FFFFFF" filter="url(#f1p82dy77btk4w)" points="95,271,338,271,345,294.6094,813,294.6094,813,517,95,517,95,271" style="stroke: #000000; stroke-width: 1.5;"/><line style="stroke: #000000; stroke-width: 1.5;" x1="95" x2="345" y1="294.6094" y2="294.6094"/><text fill="#000000" font-family="sans-serif" font-size="14" font-weight="bold" lengthAdjust="spacingAndGlyphs" textLength="237" x="99" y="287.5332">org.eclipse.keyple.seproxy.plugin</text><!--cluster plugin.remotese--><polygon fill="#FFCCFF" filter="url(#f1p82dy77btk4w)" points="22,24,143,24,150,47.6094,536,47.6094,536,221,22,221,22,24" style="stroke: #000000; stroke-width: 1.5;"/><line style="stroke: #000000; stroke-width: 1.5;" x1="22" x2="150" y1="47.6094" y2="47.6094"/><text fill="#000000" font-family="sans-serif" font-size="14" font-weight="bold" lengthAdjust="spacingAndGlyphs" textLength="115" x="26" y="40.5332">plugin.remotese</text><!--cluster plugin.androidnfc--><polygon fill="#FFCCFF" filter="url(#f1p82dy77btk4w)" points="549,567,679,567,686,590.6094,1070,590.6094,1070,764,549,764,549,567" style="stroke: #000000; stroke-width: 1.5;"/><line style="stroke: #000000; stroke-width: 1.5;" x1="549" x2="686" y1="590.6094" y2="590.6094"/><text fill="#000000" font-family="sans-serif" font-size="14" font-weight="bold" lengthAdjust="spacingAndGlyphs" textLength="124" x="553" y="583.5332">plugin.androidnfc</text><!--cluster org.eclipse.keyple.plugin.android.omapi--><polygon fill="#FFCCFF" filter="url(#f1p82dy77btk4w)" points="34,587.5,321,587.5,328,611.1094,525,611.1094,525,743.5,34,743.5,34,587.5" style="stroke: #000000; stroke-width: 1.5;"/><line style="stroke: #000000; stroke-width: 1.5;" x1="34" x2="328" y1="611.1094" y2="611.1094"/><text fill="#000000" font-family="sans-serif" font-size="14" font-weight="bold" lengthAdjust="spacingAndGlyphs" textLength="281" x="38" y="604.0332">org.eclipse.keyple.plugin.android.omapi</text><!--cluster plugin.pcsc--><polygon fill="#FFCCFF" filter="url(#f1p82dy77btk4w)" points="560,24,647,24,654,47.6094,1017,47.6094,1017,221,560,221,560,24" style="stroke: #000000; stroke-width: 1.5;"/><line style="stroke: #000000; stroke-width: 1.5;" x1="560" x2="654" y1="47.6094" y2="47.6094"/><text fill="#000000" font-family="sans-serif" font-size="14" font-weight="bold" lengthAdjust="spacingAndGlyphs" textLength="81" x="564" y="40.5332">plugin.pcsc</text><!--class AbstractStaticPlugin--><rect fill="#FEFECE" filter="url(#f1p82dy77btk4w)" height="48" id="AbstractStaticPlugin" style="stroke: #A80036; stroke-width: 1.5;" width="142" x="359" y="453"/><ellipse cx="374" cy="469" fill="#A9DCDF" rx="11" ry="11" style="stroke: #A80036; stroke-width: 1.0;"/><path d="M376.1875,470.7656 L372.0469,470.7656 L371.625,471.7969 L372.0469,471.7969 Q372.6563,471.7969 372.9219,472.0313 Q373.1875,472.2656 373.1875,472.6563 Q373.1875,473.0313 372.9219,473.2656 Q372.6563,473.5 372.0469,473.5 L369.75,473.5 Q369.1406,473.5 368.8828,473.2656 Q368.625,473.0313 368.625,472.6406 Q368.625,472.2656 368.8984,472.0234 Q369.1719,471.7813 369.7969,471.7969 L372.4688,465.1406 L371.3594,465.1406 Q370.75,465.1406 370.4844,464.9063 Q370.2188,464.6719 370.2188,464.2813 Q370.2188,463.9063 370.4844,463.6719 Q370.75,463.4375 371.3594,463.4375 L375.0313,463.4375 L378.4219,471.7969 Q379.0156,471.7969 379.2031,471.9375 Q379.5938,472.2031 379.5938,472.6563 Q379.5938,473.0313 379.3359,473.2656 Q379.0781,473.5 378.4688,473.5 L376.1719,473.5 Q375.5625,473.5 375.2969,473.2656 Q375.0313,473.0313 375.0313,472.6406 Q375.0313,472.2656 375.2969,472.0313 Q375.5625,471.7969 376.1719,471.7969 L376.5938,471.7969 L376.1875,470.7656 Z M375.4688,469.0625 L374.1094,465.6875 L372.7344,469.0625 L375.4688,469.0625 Z "/><text fill="#000000" font-family="sans-serif" font-size="12" font-style="italic" lengthAdjust="spacingAndGlyphs" textLength="110" x="388" y="473.9102">AbstractStaticPlugin</text><line style="stroke: #A80036; stroke-width: 1.5;" x1="360" x2="500" y1="485" y2="485"/><line style="stroke: #A80036; stroke-width: 1.5;" x1="360" x2="500" y1="493" y2="493"/><!--class AbstractThreadedObservablePlugin--><rect fill="#FEFECE" filter="url(#f1p82dy77btk4w)" height="48" id="AbstractThreadedObservablePlugin" style="stroke: #A80036; stroke-width: 1.5;" width="230" x="330" y="327"/><ellipse cx="345" cy="343" fill="#A9DCDF" rx="11" ry="11" style="stroke: #A80036; stroke-width: 1.0;"/><path d="M347.1875,344.7656 L343.0469,344.7656 L342.625,345.7969 L343.0469,345.7969 Q343.6563,345.7969 343.9219,346.0313 Q344.1875,346.2656 344.1875,346.6563 Q344.1875,347.0313 343.9219,347.2656 Q343.6563,347.5 343.0469,347.5 L340.75,347.5 Q340.1406,347.5 339.8828,347.2656 Q339.625,347.0313 339.625,346.6406 Q339.625,346.2656 339.8984,346.0234 Q340.1719,345.7813 340.7969,345.7969 L343.4688,339.1406 L342.3594,339.1406 Q341.75,339.1406 341.4844,338.9063 Q341.2188,338.6719 341.2188,338.2813 Q341.2188,337.9063 341.4844,337.6719 Q341.75,337.4375 342.3594,337.4375 L346.0313,337.4375 L349.4219,345.7969 Q350.0156,345.7969 350.2031,345.9375 Q350.5938,346.2031 350.5938,346.6563 Q350.5938,347.0313 350.3359,347.2656 Q350.0781,347.5 349.4688,347.5 L347.1719,347.5 Q346.5625,347.5 346.2969,347.2656 Q346.0313,347.0313 346.0313,346.6406 Q346.0313,346.2656 346.2969,346.0313 Q346.5625,345.7969 347.1719,345.7969 L347.5938,345.7969 L347.1875,344.7656 Z M346.4688,343.0625 L345.1094,339.6875 L343.7344,343.0625 L346.4688,343.0625 Z "/><text fill="#000000" font-family="sans-serif" font-size="12" font-style="italic" lengthAdjust="spacingAndGlyphs" textLength="198" x="359" y="347.9102">AbstractThreadedObservablePlugin</text><line style="stroke: #A80036; stroke-width: 1.5;" x1="331" x2="559" y1="359" y2="359"/><line style="stroke: #A80036; stroke-width: 1.5;" x1="331" x2="559" y1="367" y2="367"/><!--class AbstractObservableReader--><rect fill="#FEFECE" filter="url(#f1p82dy77btk4w)" height="48" id="AbstractObservableReader" style="stroke: #A80036; stroke-width: 1.5;" width="183" x="111.5" y="327"/><ellipse cx="126.5" cy="343" fill="#A9DCDF" rx="11" ry="11" style="stroke: #A80036; stroke-width: 1.0;"/><path d="M128.6875,344.7656 L124.5469,344.7656 L124.125,345.7969 L124.5469,345.7969 Q125.1563,345.7969 125.4219,346.0313 Q125.6875,346.2656 125.6875,346.6563 Q125.6875,347.0313 125.4219,347.2656 Q125.1563,347.5 124.5469,347.5 L122.25,347.5 Q121.6406,347.5 121.3828,347.2656 Q121.125,347.0313 121.125,346.6406 Q121.125,346.2656 121.3984,346.0234 Q121.6719,345.7813 122.2969,345.7969 L124.9688,339.1406 L123.8594,339.1406 Q123.25,339.1406 122.9844,338.9063 Q122.7188,338.6719 122.7188,338.2813 Q122.7188,337.9063 122.9844,337.6719 Q123.25,337.4375 123.8594,337.4375 L127.5313,337.4375 L130.9219,345.7969 Q131.5156,345.7969 131.7031,345.9375 Q132.0938,346.2031 132.0938,346.6563 Q132.0938,347.0313 131.8359,347.2656 Q131.5781,347.5 130.9688,347.5 L128.6719,347.5 Q128.0625,347.5 127.7969,347.2656 Q127.5313,347.0313 127.5313,346.6406 Q127.5313,346.2656 127.7969,346.0313 Q128.0625,345.7969 128.6719,345.7969 L129.0938,345.7969 L128.6875,344.7656 Z M127.9688,343.0625 L126.6094,339.6875 L125.2344,343.0625 L127.9688,343.0625 Z "/><text fill="#000000" font-family="sans-serif" font-size="12" font-style="italic" lengthAdjust="spacingAndGlyphs" textLength="151" x="140.5" y="347.9102">AbstractObservableReader</text><line style="stroke: #A80036; stroke-width: 1.5;" x1="112.5" x2="293.5" y1="359" y2="359"/><line style="stroke: #A80036; stroke-width: 1.5;" x1="112.5" x2="293.5" y1="367" y2="367"/><!--class AbstractLocalReader--><rect fill="#FEFECE" filter="url(#f1p82dy77btk4w)" height="48" id="AbstractLocalReader" style="stroke: #A80036; stroke-width: 1.5;" width="148" x="176" y="453"/><ellipse cx="191" cy="469" fill="#A9DCDF" rx="11" ry="11" style="stroke: #A80036; stroke-width: 1.0;"/><path d="M193.1875,470.7656 L189.0469,470.7656 L188.625,471.7969 L189.0469,471.7969 Q189.6563,471.7969 189.9219,472.0313 Q190.1875,472.2656 190.1875,472.6563 Q190.1875,473.0313 189.9219,473.2656 Q189.6563,473.5 189.0469,473.5 L186.75,473.5 Q186.1406,473.5 185.8828,473.2656 Q185.625,473.0313 185.625,472.6406 Q185.625,472.2656 185.8984,472.0234 Q186.1719,471.7813 186.7969,471.7969 L189.4688,465.1406 L188.3594,465.1406 Q187.75,465.1406 187.4844,464.9063 Q187.2188,464.6719 187.2188,464.2813 Q187.2188,463.9063 187.4844,463.6719 Q187.75,463.4375 188.3594,463.4375 L192.0313,463.4375 L195.4219,471.7969 Q196.0156,471.7969 196.2031,471.9375 Q196.5938,472.2031 196.5938,472.6563 Q196.5938,473.0313 196.3359,473.2656 Q196.0781,473.5 195.4688,473.5 L193.1719,473.5 Q192.5625,473.5 192.2969,473.2656 Q192.0313,473.0313 192.0313,472.6406 Q192.0313,472.2656 192.2969,472.0313 Q192.5625,471.7969 193.1719,471.7969 L193.5938,471.7969 L193.1875,470.7656 Z M192.4688,469.0625 L191.1094,465.6875 L189.7344,469.0625 L192.4688,469.0625 Z "/><text fill="#000000" font-family="sans-serif" font-size="12" font-style="italic" lengthAdjust="spacingAndGlyphs" textLength="116" x="205" y="473.9102">AbstractLocalReader</text><line style="stroke: #A80036; stroke-width: 1.5;" x1="177" x2="323" y1="485" y2="485"/><line style="stroke: #A80036; stroke-width: 1.5;" x1="177" x2="323" y1="493" y2="493"/><!--class AbstractSelectionLocalReader--><rect fill="#FEFECE" filter="url(#f1p82dy77btk4w)" height="48" id="AbstractSelectionLocalReader" style="stroke: #A80036; stroke-width: 1.5;" width="199" x="550.5" y="453"/><ellipse cx="565.5" cy="469" fill="#A9DCDF" rx="11" ry="11" style="stroke: #A80036; stroke-width: 1.0;"/><path d="M567.6875,470.7656 L563.5469,470.7656 L563.125,471.7969 L563.5469,471.7969 Q564.1563,471.7969 564.4219,472.0313 Q564.6875,472.2656 564.6875,472.6563 Q564.6875,473.0313 564.4219,473.2656 Q564.1563,473.5 563.5469,473.5 L561.25,473.5 Q560.6406,473.5 560.3828,473.2656 Q560.125,473.0313 560.125,472.6406 Q560.125,472.2656 560.3984,472.0234 Q560.6719,471.7813 561.2969,471.7969 L563.9688,465.1406 L562.8594,465.1406 Q562.25,465.1406 561.9844,464.9063 Q561.7188,464.6719 561.7188,464.2813 Q561.7188,463.9063 561.9844,463.6719 Q562.25,463.4375 562.8594,463.4375 L566.5313,463.4375 L569.9219,471.7969 Q570.5156,471.7969 570.7031,471.9375 Q571.0938,472.2031 571.0938,472.6563 Q571.0938,473.0313 570.8359,473.2656 Q570.5781,473.5 569.9688,473.5 L567.6719,473.5 Q567.0625,473.5 566.7969,473.2656 Q566.5313,473.0313 566.5313,472.6406 Q566.5313,472.2656 566.7969,472.0313 Q567.0625,471.7969 567.6719,471.7969 L568.0938,471.7969 L567.6875,470.7656 Z M566.9688,469.0625 L565.6094,465.6875 L564.2344,469.0625 L566.9688,469.0625 Z "/><text fill="#000000" font-family="sans-serif" font-size="12" font-style="italic" lengthAdjust="spacingAndGlyphs" textLength="167" x="579.5" y="473.9102">AbstractSelectionLocalReader</text><line style="stroke: #A80036; stroke-width: 1.5;" x1="551.5" x2="748.5" y1="485" y2="485"/><line style="stroke: #A80036; stroke-width: 1.5;" x1="551.5" x2="748.5" y1="493" y2="493"/><!--class AbstractThreadedLocalReader--><rect fill="#FEFECE" filter="url(#f1p82dy77btk4w)" height="48" id="AbstractThreadedLocalReader" style="stroke: #A80036; stroke-width: 1.5;" width="201" x="595.5" y="327"/><ellipse cx="610.5" cy="343" fill="#A9DCDF" rx="11" ry="11" style="stroke: #A80036; stroke-width: 1.0;"/><path d="M612.6875,344.7656 L608.5469,344.7656 L608.125,345.7969 L608.5469,345.7969 Q609.1563,345.7969 609.4219,346.0313 Q609.6875,346.2656 609.6875,346.6563 Q609.6875,347.0313 609.4219,347.2656 Q609.1563,347.5 608.5469,347.5 L606.25,347.5 Q605.6406,347.5 605.3828,347.2656 Q605.125,347.0313 605.125,346.6406 Q605.125,346.2656 605.3984,346.0234 Q605.6719,345.7813 606.2969,345.7969 L608.9688,339.1406 L607.8594,339.1406 Q607.25,339.1406 606.9844,338.9063 Q606.7188,338.6719 606.7188,338.2813 Q606.7188,337.9063 606.9844,337.6719 Q607.25,337.4375 607.8594,337.4375 L611.5313,337.4375 L614.9219,345.7969 Q615.5156,345.7969 615.7031,345.9375 Q616.0938,346.2031 616.0938,346.6563 Q616.0938,347.0313 615.8359,347.2656 Q615.5781,347.5 614.9688,347.5 L612.6719,347.5 Q612.0625,347.5 611.7969,347.2656 Q611.5313,347.0313 611.5313,346.6406 Q611.5313,346.2656 611.7969,346.0313 Q612.0625,345.7969 612.6719,345.7969 L613.0938,345.7969 L612.6875,344.7656 Z M611.9688,343.0625 L610.6094,339.6875 L609.2344,343.0625 L611.9688,343.0625 Z "/><text fill="#000000" font-family="sans-serif" font-size="12" font-style="italic" lengthAdjust="spacingAndGlyphs" textLength="169" x="624.5" y="347.9102">AbstractThreadedLocalReader</text><line style="stroke: #A80036; stroke-width: 1.5;" x1="596.5" x2="795.5" y1="359" y2="359"/><line style="stroke: #A80036; stroke-width: 1.5;" x1="596.5" x2="795.5" y1="367" y2="367"/><!--class RemoteSePlugin--><rect fill="#FEFECE" filter="url(#f1p82dy77btk4w)" height="125.3672" id="RemoteSePlugin" style="stroke: #A80036; stroke-width: 1.5;" width="232" x="288" y="80"/><ellipse cx="333.75" cy="100.0938" fill="#ADD1B2" rx="11" ry="11" style="stroke: #A80036; stroke-width: 1.0;"/><path d="M336.5156,95.9688 Q336.6719,95.75 336.8594,95.6406 Q337.0469,95.5313 337.2656,95.5313 Q337.6406,95.5313 337.875,95.7891 Q338.1094,96.0469 338.1094,96.6563 L338.1094,98.1094 Q338.1094,98.7188 337.875,98.9844 Q337.6406,99.25 337.2656,99.25 Q336.9219,99.25 336.7188,99.0469 Q336.5156,98.8594 336.4063,98.3438 Q336.3594,97.9844 336.1719,97.7969 Q335.8438,97.4219 335.2344,97.2031 Q334.625,96.9844 334,96.9844 Q333.2344,96.9844 332.6016,97.3125 Q331.9688,97.6406 331.4766,98.3906 Q330.9844,99.1406 330.9844,100.1719 L330.9844,101.2656 Q330.9844,102.5 331.875,103.3203 Q332.7656,104.1406 334.3594,104.1406 Q335.2969,104.1406 335.9531,103.8906 Q336.3438,103.7344 336.7656,103.2969 Q337.0313,103.0313 337.1797,102.9531 Q337.3281,102.875 337.5313,102.875 Q337.8594,102.875 338.1172,103.1328 Q338.375,103.3906 338.375,103.7344 Q338.375,104.0781 338.0313,104.4844 Q337.5313,105.0625 336.7344,105.3906 Q335.6563,105.8438 334.3594,105.8438 Q332.8438,105.8438 331.6406,105.2188 Q330.6563,104.7188 329.9688,103.6484 Q329.2813,102.5781 329.2813,101.2969 L329.2813,100.1406 Q329.2813,98.8125 329.8984,97.6641 Q330.5156,96.5156 331.6094,95.8984 Q332.7031,95.2813 333.9375,95.2813 Q334.6719,95.2813 335.3203,95.4453 Q335.9688,95.6094 336.5156,95.9688 Z "/><text fill="#000000" font-family="sans-serif" font-size="12" font-style="italic" lengthAdjust="spacingAndGlyphs" textLength="66" x="387.25" y="97.457">«Singleton»</text><ellipse cx="359.25" cy="107.1406" fill="#84BE84" rx="3" ry="3" style="stroke: #038048; stroke-width: 1.0;"/><text fill="#000000" font-family="sans-serif" font-size="12" font-weight="bold" lengthAdjust="spacingAndGlyphs" textLength="24" x="365.25" y="112.5508">final</text><text fill="#000000" font-family="sans-serif" font-size="12" lengthAdjust="spacingAndGlyphs" textLength="94" x="392.25" y="112.5508">RemoteSePlugin</text><line style="stroke: #A80036; stroke-width: 1.5;" x1="289" x2="519" y1="120.1875" y2="120.1875"/><rect fill="none" height="6" style="stroke: #C82930; stroke-width: 1.0;" width="6" x="296" y="129.6055"/><text fill="#000000" font-family="sans-serif" font-size="11" lengthAdjust="spacingAndGlyphs" textLength="57" x="308" y="135.6064">String name</text><line style="stroke: #A80036; stroke-width: 1.5;" x1="289" x2="519" y1="142.0234" y2="142.0234"/><rect fill="#F24D5C" height="6" style="stroke: #C82930; stroke-width: 1.0;" width="6" x="296" y="151.4414"/><text fill="#000000" font-family="sans-serif" font-size="11" lengthAdjust="spacingAndGlyphs" textLength="85" x="308" y="157.4424">RemoteSePlugin()</text><ellipse cx="299" cy="168.2773" fill="#84BE84" rx="3" ry="3" style="stroke: #038048; stroke-width: 1.0;"/><text fill="#000000" font-family="sans-serif" font-size="11" lengthAdjust="spacingAndGlyphs" text-decoration="underline" textLength="144" x="308" y="171.2783">RemoteSePlugin getInstance()</text><line style="stroke: #000000; stroke-width: 1.0;" x1="308" x2="452" y1="173.2783" y2="173.2783"/><ellipse cx="299" cy="182.1133" fill="#84BE84" rx="3" ry="3" style="stroke: #038048; stroke-width: 1.0;"/><text fill="#000000" font-family="sans-serif" font-size="11" font-weight="bold" lengthAdjust="spacingAndGlyphs" textLength="23" x="308" y="185.1143">final</text><text fill="#000000" font-family="sans-serif" font-size="11" lengthAdjust="spacingAndGlyphs" textLength="81" x="334" y="185.1143">String getName()</text><ellipse cx="299" cy="195.9492" fill="#84BE84" rx="3" ry="3" style="stroke: #038048; stroke-width: 1.0;"/><text fill="#000000" font-family="sans-serif" font-size="11" font-weight="bold" lengthAdjust="spacingAndGlyphs" textLength="23" x="308" y="198.9502">final</text><text fill="#000000" font-family="sans-serif" font-size="11" lengthAdjust="spacingAndGlyphs" textLength="180" x="334" y="198.9502">List&lt;RemoteSeReader&gt; getReaders()</text><!--class RemoteSeReader--><rect fill="#FEFECE" filter="url(#f1p82dy77btk4w)" height="97.6953" id="RemoteSeReader" style="stroke: #A80036; stroke-width: 1.5;" width="170" x="38" y="93.5"/><ellipse cx="53" cy="113.5938" fill="#ADD1B2" rx="11" ry="11" style="stroke: #A80036; stroke-width: 1.0;"/><path d="M55.7656,109.4688 Q55.9219,109.25 56.1094,109.1406 Q56.2969,109.0313 56.5156,109.0313 Q56.8906,109.0313 57.125,109.2891 Q57.3594,109.5469 57.3594,110.1563 L57.3594,111.6094 Q57.3594,112.2188 57.125,112.4844 Q56.8906,112.75 56.5156,112.75 Q56.1719,112.75 55.9688,112.5469 Q55.7656,112.3594 55.6563,111.8438 Q55.6094,111.4844 55.4219,111.2969 Q55.0938,110.9219 54.4844,110.7031 Q53.875,110.4844 53.25,110.4844 Q52.4844,110.4844 51.8516,110.8125 Q51.2188,111.1406 50.7266,111.8906 Q50.2344,112.6406 50.2344,113.6719 L50.2344,114.7656 Q50.2344,116 51.125,116.8203 Q52.0156,117.6406 53.6094,117.6406 Q54.5469,117.6406 55.2031,117.3906 Q55.5938,117.2344 56.0156,116.7969 Q56.2813,116.5313 56.4297,116.4531 Q56.5781,116.375 56.7813,116.375 Q57.1094,116.375 57.3672,116.6328 Q57.625,116.8906 57.625,117.2344 Q57.625,117.5781 57.2813,117.9844 Q56.7813,118.5625 55.9844,118.8906 Q54.9063,119.3438 53.6094,119.3438 Q52.0938,119.3438 50.8906,118.7188 Q49.9063,118.2188 49.2188,117.1484 Q48.5313,116.0781 48.5313,114.7969 L48.5313,113.6406 Q48.5313,112.3125 49.1484,111.1641 Q49.7656,110.0156 50.8594,109.3984 Q51.9531,108.7813 53.1875,108.7813 Q53.9219,108.7813 54.5703,108.9453 Q55.2188,109.1094 55.7656,109.4688 Z "/><text fill="#000000" font-family="sans-serif" font-size="12" font-style="italic" lengthAdjust="spacingAndGlyphs" textLength="66" x="103" y="110.957">«Singleton»</text><ellipse cx="72" cy="120.6406" fill="#84BE84" rx="3" ry="3" style="stroke: #038048; stroke-width: 1.0;"/><text fill="#000000" font-family="sans-serif" font-size="12" font-weight="bold" lengthAdjust="spacingAndGlyphs" textLength="24" x="78" y="126.0508">final</text><text fill="#000000" font-family="sans-serif" font-size="12" lengthAdjust="spacingAndGlyphs" textLength="100" x="105" y="126.0508">RemoteSeReader</text><line style="stroke: #A80036; stroke-width: 1.5;" x1="39" x2="207" y1="133.6875" y2="133.6875"/><rect fill="none" height="6" style="stroke: #C82930; stroke-width: 1.0;" width="6" x="46" y="143.1055"/><text fill="#000000" font-family="sans-serif" font-size="11" lengthAdjust="spacingAndGlyphs" textLength="57" x="58" y="149.1064">String name</text><line style="stroke: #A80036; stroke-width: 1.5;" x1="39" x2="207" y1="155.5234" y2="155.5234"/><polygon fill="#FFFF44" points="49,162.9414,53,166.9414,49,170.9414,45,166.9414" style="stroke: #B38D22; stroke-width: 1.0;"/><text fill="#000000" font-family="sans-serif" font-size="11" lengthAdjust="spacingAndGlyphs" textLength="92" x="58" y="170.9424">RemoteSeReader()</text><ellipse cx="49" cy="181.7773" fill="#84BE84" rx="3" ry="3" style="stroke: #038048; stroke-width: 1.0;"/><text fill="#000000" font-family="sans-serif" font-size="11" font-weight="bold" lengthAdjust="spacingAndGlyphs" textLength="23" x="58" y="184.7783">final</text><text fill="#000000" font-family="sans-serif" font-size="11" lengthAdjust="spacingAndGlyphs" textLength="81" x="84" y="184.7783">String getName()</text><!--class AndroidNfcPlugin--><rect fill="#FEFECE" filter="url(#f1p82dy77btk4w)" height="125.3672" id="AndroidNfcPlugin" style="stroke: #A80036; stroke-width: 1.5;" width="238" x="565" y="623"/><ellipse cx="613.25" cy="643.0938" fill="#ADD1B2" rx="11" ry="11" style="stroke: #A80036; stroke-width: 1.0;"/><path d="M616.0156,638.9688 Q616.1719,638.75 616.3594,638.6406 Q616.5469,638.5313 616.7656,638.5313 Q617.1406,638.5313 617.375,638.7891 Q617.6094,639.0469 617.6094,639.6563 L617.6094,641.1094 Q617.6094,641.7188 617.375,641.9844 Q617.1406,642.25 616.7656,642.25 Q616.4219,642.25 616.2188,642.0469 Q616.0156,641.8594 615.9063,641.3438 Q615.8594,640.9844 615.6719,640.7969 Q615.3438,640.4219 614.7344,640.2031 Q614.125,639.9844 613.5,639.9844 Q612.7344,639.9844 612.1016,640.3125 Q611.4688,640.6406 610.9766,641.3906 Q610.4844,642.1406 610.4844,643.1719 L610.4844,644.2656 Q610.4844,645.5 611.375,646.3203 Q612.2656,647.1406 613.8594,647.1406 Q614.7969,647.1406 615.4531,646.8906 Q615.8438,646.7344 616.2656,646.2969 Q616.5313,646.0313 616.6797,645.9531 Q616.8281,645.875 617.0313,645.875 Q617.3594,645.875 617.6172,646.1328 Q617.875,646.3906 617.875,646.7344 Q617.875,647.0781 617.5313,647.4844 Q617.0313,648.0625 616.2344,648.3906 Q615.1563,648.8438 613.8594,648.8438 Q612.3438,648.8438 611.1406,648.2188 Q610.1563,647.7188 609.4688,646.6484 Q608.7813,645.5781 608.7813,644.2969 L608.7813,643.1406 Q608.7813,641.8125 609.3984,640.6641 Q610.0156,639.5156 611.1094,638.8984 Q612.2031,638.2813 613.4375,638.2813 Q614.1719,638.2813 614.8203,638.4453 Q615.4688,638.6094 616.0156,638.9688 Z "/><text fill="#000000" font-family="sans-serif" font-size="12" font-style="italic" lengthAdjust="spacingAndGlyphs" textLength="66" x="667.25" y="640.457">«Singleton»</text><ellipse cx="638.75" cy="650.1406" fill="#84BE84" rx="3" ry="3" style="stroke: #038048; stroke-width: 1.0;"/><text fill="#000000" font-family="sans-serif" font-size="12" font-weight="bold" lengthAdjust="spacingAndGlyphs" textLength="24" x="644.75" y="655.5508">final</text><text fill="#000000" font-family="sans-serif" font-size="12" lengthAdjust="spacingAndGlyphs" textLength="95" x="671.75" y="655.5508">AndroidNfcPlugin</text><line style="stroke: #A80036; stroke-width: 1.5;" x1="566" x2="802" y1="663.1875" y2="663.1875"/><rect fill="none" height="6" style="stroke: #C82930; stroke-width: 1.0;" width="6" x="573" y="672.6055"/><text fill="#000000" font-family="sans-serif" font-size="11" lengthAdjust="spacingAndGlyphs" textLength="57" x="585" y="678.6064">String name</text><line style="stroke: #A80036; stroke-width: 1.5;" x1="566" x2="802" y1="685.0234" y2="685.0234"/><rect fill="#F24D5C" height="6" style="stroke: #C82930; stroke-width: 1.0;" width="6" x="573" y="694.4414"/><text fill="#000000" font-family="sans-serif" font-size="11" lengthAdjust="spacingAndGlyphs" textLength="91" x="585" y="700.4424">AndroidNfcPlugin()</text><ellipse cx="576" cy="711.2773" fill="#84BE84" rx="3" ry="3" style="stroke: #038048; stroke-width: 1.0;"/><text fill="#000000" font-family="sans-serif" font-size="11" lengthAdjust="spacingAndGlyphs" text-decoration="underline" textLength="150" x="585" y="714.2783">AndroidNfcPlugin getInstance()</text><line style="stroke: #000000; stroke-width: 1.0;" x1="585" x2="735" y1="716.2783" y2="716.2783"/><ellipse cx="576" cy="725.1133" fill="#84BE84" rx="3" ry="3" style="stroke: #038048; stroke-width: 1.0;"/><text fill="#000000" font-family="sans-serif" font-size="11" font-weight="bold" lengthAdjust="spacingAndGlyphs" textLength="23" x="585" y="728.1143">final</text><text fill="#000000" font-family="sans-serif" font-size="11" lengthAdjust="spacingAndGlyphs" textLength="81" x="611" y="728.1143">String getName()</text><ellipse cx="576" cy="738.9492" fill="#84BE84" rx="3" ry="3" style="stroke: #038048; stroke-width: 1.0;"/><text fill="#000000" font-family="sans-serif" font-size="11" font-weight="bold" lengthAdjust="spacingAndGlyphs" textLength="23" x="585" y="741.9502">final</text><text fill="#000000" font-family="sans-serif" font-size="11" lengthAdjust="spacingAndGlyphs" textLength="186" x="611" y="741.9502">List&lt;AndroidNfcReader&gt; getReaders()</text><!--class AndroidNfcReader--><rect fill="#FEFECE" filter="url(#f1p82dy77btk4w)" height="70.0234" id="AndroidNfcReader" style="stroke: #A80036; stroke-width: 1.5;" width="171" x="882.5" y="650.5"/><ellipse cx="897.5" cy="670.5938" fill="#ADD1B2" rx="11" ry="11" style="stroke: #A80036; stroke-width: 1.0;"/><path d="M900.2656,666.4688 Q900.4219,666.25 900.6094,666.1406 Q900.7969,666.0313 901.0156,666.0313 Q901.3906,666.0313 901.625,666.2891 Q901.8594,666.5469 901.8594,667.1563 L901.8594,668.6094 Q901.8594,669.2188 901.625,669.4844 Q901.3906,669.75 901.0156,669.75 Q900.6719,669.75 900.4688,669.5469 Q900.2656,669.3594 900.1563,668.8438 Q900.1094,668.4844 899.9219,668.2969 Q899.5938,667.9219 898.9844,667.7031 Q898.375,667.4844 897.75,667.4844 Q896.9844,667.4844 896.3516,667.8125 Q895.7188,668.1406 895.2266,668.8906 Q894.7344,669.6406 894.7344,670.6719 L894.7344,671.7656 Q894.7344,673 895.625,673.8203 Q896.5156,674.6406 898.1094,674.6406 Q899.0469,674.6406 899.7031,674.3906 Q900.0938,674.2344 900.5156,673.7969 Q900.7813,673.5313 900.9297,673.4531 Q901.0781,673.375 901.2813,673.375 Q901.6094,673.375 901.8672,673.6328 Q902.125,673.8906 902.125,674.2344 Q902.125,674.5781 901.7813,674.9844 Q901.2813,675.5625 900.4844,675.8906 Q899.4063,676.3438 898.1094,676.3438 Q896.5938,676.3438 895.3906,675.7188 Q894.4063,675.2188 893.7188,674.1484 Q893.0313,673.0781 893.0313,671.7969 L893.0313,670.6406 Q893.0313,669.3125 893.6484,668.1641 Q894.2656,667.0156 895.3594,666.3984 Q896.4531,665.7813 897.6875,665.7813 Q898.4219,665.7813 899.0703,665.9453 Q899.7188,666.1094 900.2656,666.4688 Z "/><text fill="#000000" font-family="sans-serif" font-size="12" font-style="italic" lengthAdjust="spacingAndGlyphs" textLength="66" x="948" y="667.957">«Singleton»</text><ellipse cx="916.5" cy="677.6406" fill="#84BE84" rx="3" ry="3" style="stroke: #038048; stroke-width: 1.0;"/><text fill="#000000" font-family="sans-serif" font-size="12" font-weight="bold" lengthAdjust="spacingAndGlyphs" textLength="24" x="922.5" y="683.0508">final</text><text fill="#000000" font-family="sans-serif" font-size="12" lengthAdjust="spacingAndGlyphs" textLength="101" x="949.5" y="683.0508">AndroidNfcReader</text><line style="stroke: #A80036; stroke-width: 1.5;" x1="883.5" x2="1052.5" y1="690.6875" y2="690.6875"/><line style="stroke: #A80036; stroke-width: 1.5;" x1="883.5" x2="1052.5" y1="698.6875" y2="698.6875"/><polygon fill="#FFFF44" points="893.5,706.1055,897.5,710.1055,893.5,714.1055,889.5,710.1055" style="stroke: #B38D22; stroke-width: 1.0;"/><text fill="#000000" font-family="sans-serif" font-size="11" lengthAdjust="spacingAndGlyphs" textLength="98" x="902.5" y="714.1064">AndroidNfcReader()</text><!--class AndroidOmapiPlugin--><rect fill="#FEFECE" filter="url(#f1p82dy77btk4w)" height="83.8594" id="AndroidOmapiPlugin" style="stroke: #A80036; stroke-width: 1.5;" width="189" x="319.5" y="643.5"/><ellipse cx="335.4" cy="663.5938" fill="#ADD1B2" rx="11" ry="11" style="stroke: #A80036; stroke-width: 1.0;"/><path d="M338.1656,659.4688 Q338.3219,659.25 338.5094,659.1406 Q338.6969,659.0313 338.9156,659.0313 Q339.2906,659.0313 339.525,659.2891 Q339.7594,659.5469 339.7594,660.1563 L339.7594,661.6094 Q339.7594,662.2188 339.525,662.4844 Q339.2906,662.75 338.9156,662.75 Q338.5719,662.75 338.3688,662.5469 Q338.1656,662.3594 338.0563,661.8438 Q338.0094,661.4844 337.8219,661.2969 Q337.4938,660.9219 336.8844,660.7031 Q336.275,660.4844 335.65,660.4844 Q334.8844,660.4844 334.2516,660.8125 Q333.6188,661.1406 333.1266,661.8906 Q332.6344,662.6406 332.6344,663.6719 L332.6344,664.7656 Q332.6344,666 333.525,666.8203 Q334.4156,667.6406 336.0094,667.6406 Q336.9469,667.6406 337.6031,667.3906 Q337.9938,667.2344 338.4156,666.7969 Q338.6813,666.5313 338.8297,666.4531 Q338.9781,666.375 339.1813,666.375 Q339.5094,666.375 339.7672,666.6328 Q340.025,666.8906 340.025,667.2344 Q340.025,667.5781 339.6813,667.9844 Q339.1813,668.5625 338.3844,668.8906 Q337.3063,669.3438 336.0094,669.3438 Q334.4938,669.3438 333.2906,668.7188 Q332.3063,668.2188 331.6188,667.1484 Q330.9313,666.0781 330.9313,664.7969 L330.9313,663.6406 Q330.9313,662.3125 331.5484,661.1641 Q332.1656,660.0156 333.2594,659.3984 Q334.3531,658.7813 335.5875,658.7813 Q336.3219,658.7813 336.9703,658.9453 Q337.6188,659.1094 338.1656,659.4688 Z "/><text fill="#000000" font-family="sans-serif" font-size="12" font-style="italic" lengthAdjust="spacingAndGlyphs" textLength="66" x="394.1" y="660.957">«Singleton»</text><ellipse cx="354.6" cy="670.6406" fill="#84BE84" rx="3" ry="3" style="stroke: #038048; stroke-width: 1.0;"/><text fill="#000000" font-family="sans-serif" font-size="12" font-weight="bold" lengthAdjust="spacingAndGlyphs" textLength="24" x="360.6" y="676.0508">final</text><text fill="#000000" font-family="sans-serif" font-size="12" lengthAdjust="spacingAndGlyphs" textLength="114" x="387.6" y="676.0508">AndroidOmapiPlugin</text><line style="stroke: #A80036; stroke-width: 1.5;" x1="320.5" x2="507.5" y1="683.6875" y2="683.6875"/><line style="stroke: #A80036; stroke-width: 1.5;" x1="320.5" x2="507.5" y1="691.6875" y2="691.6875"/><rect fill="#F24D5C" height="6" style="stroke: #C82930; stroke-width: 1.0;" width="6" x="327.5" y="701.1055"/><text fill="#000000" font-family="sans-serif" font-size="11" lengthAdjust="spacingAndGlyphs" textLength="107" x="339.5" y="707.1064">AndroidOmapiPlugin ()</text><ellipse cx="330.5" cy="717.9414" fill="#84BE84" rx="3" ry="3" style="stroke: #038048; stroke-width: 1.0;"/><text fill="#000000" font-family="sans-serif" font-size="11" lengthAdjust="spacingAndGlyphs" text-decoration="underline" textLength="163" x="339.5" y="720.9424">AndroidOmapiPlugin getInstance()</text><line style="stroke: #000000; stroke-width: 1.0;" x1="339.5" x2="502.5" y1="722.9424" y2="722.9424"/><!--class AndroidOmapiReader--><rect fill="#FEFECE" filter="url(#f1p82dy77btk4w)" height="70.0234" id="AndroidOmapiReader" style="stroke: #A80036; stroke-width: 1.5;" width="190" x="50" y="650.5"/><ellipse cx="65" cy="670.5938" fill="#ADD1B2" rx="11" ry="11" style="stroke: #A80036; stroke-width: 1.0;"/><path d="M67.7656,666.4688 Q67.9219,666.25 68.1094,666.1406 Q68.2969,666.0313 68.5156,666.0313 Q68.8906,666.0313 69.125,666.2891 Q69.3594,666.5469 69.3594,667.1563 L69.3594,668.6094 Q69.3594,669.2188 69.125,669.4844 Q68.8906,669.75 68.5156,669.75 Q68.1719,669.75 67.9688,669.5469 Q67.7656,669.3594 67.6563,668.8438 Q67.6094,668.4844 67.4219,668.2969 Q67.0938,667.9219 66.4844,667.7031 Q65.875,667.4844 65.25,667.4844 Q64.4844,667.4844 63.8516,667.8125 Q63.2188,668.1406 62.7266,668.8906 Q62.2344,669.6406 62.2344,670.6719 L62.2344,671.7656 Q62.2344,673 63.125,673.8203 Q64.0156,674.6406 65.6094,674.6406 Q66.5469,674.6406 67.2031,674.3906 Q67.5938,674.2344 68.0156,673.7969 Q68.2813,673.5313 68.4297,673.4531 Q68.5781,673.375 68.7813,673.375 Q69.1094,673.375 69.3672,673.6328 Q69.625,673.8906 69.625,674.2344 Q69.625,674.5781 69.2813,674.9844 Q68.7813,675.5625 67.9844,675.8906 Q66.9063,676.3438 65.6094,676.3438 Q64.0938,676.3438 62.8906,675.7188 Q61.9063,675.2188 61.2188,674.1484 Q60.5313,673.0781 60.5313,671.7969 L60.5313,670.6406 Q60.5313,669.3125 61.1484,668.1641 Q61.7656,667.0156 62.8594,666.3984 Q63.9531,665.7813 65.1875,665.7813 Q65.9219,665.7813 66.5703,665.9453 Q67.2188,666.1094 67.7656,666.4688 Z "/><text fill="#000000" font-family="sans-serif" font-size="12" font-style="italic" lengthAdjust="spacingAndGlyphs" textLength="66" x="125" y="667.957">«Singleton»</text><ellipse cx="84" cy="677.6406" fill="#84BE84" rx="3" ry="3" style="stroke: #038048; stroke-width: 1.0;"/><text fill="#000000" font-family="sans-serif" font-size="12" font-weight="bold" lengthAdjust="spacingAndGlyphs" textLength="24" x="90" y="683.0508">final</text><text fill="#000000" font-family="sans-serif" font-size="12" lengthAdjust="spacingAndGlyphs" textLength="120" x="117" y="683.0508">AndroidOmapiReader</text><line style="stroke: #A80036; stroke-width: 1.5;" x1="51" x2="239" y1="690.6875" y2="690.6875"/><line style="stroke: #A80036; stroke-width: 1.5;" x1="51" x2="239" y1="698.6875" y2="698.6875"/><polygon fill="#FFFF44" points="61,706.1055,65,710.1055,61,714.1055,57,710.1055" style="stroke: #B38D22; stroke-width: 1.0;"/><text fill="#000000" font-family="sans-serif" font-size="11" lengthAdjust="spacingAndGlyphs" textLength="98" x="70" y="714.1064">AndroidNfcReader()</text><!--class PcscPlugin--><rect fill="#FEFECE" filter="url(#f1p82dy77btk4w)" height="125.3672" id="PcscPlugin" style="stroke: #A80036; stroke-width: 1.5;" width="207" x="576.5" y="80"/><ellipse cx="625.75" cy="100.0938" fill="#ADD1B2" rx="11" ry="11" style="stroke: #A80036; stroke-width: 1.0;"/><path d="M628.5156,95.9688 Q628.6719,95.75 628.8594,95.6406 Q629.0469,95.5313 629.2656,95.5313 Q629.6406,95.5313 629.875,95.7891 Q630.1094,96.0469 630.1094,96.6563 L630.1094,98.1094 Q630.1094,98.7188 629.875,98.9844 Q629.6406,99.25 629.2656,99.25 Q628.9219,99.25 628.7188,99.0469 Q628.5156,98.8594 628.4063,98.3438 Q628.3594,97.9844 628.1719,97.7969 Q627.8438,97.4219 627.2344,97.2031 Q626.625,96.9844 626,96.9844 Q625.2344,96.9844 624.6016,97.3125 Q623.9688,97.6406 623.4766,98.3906 Q622.9844,99.1406 622.9844,100.1719 L622.9844,101.2656 Q622.9844,102.5 623.875,103.3203 Q624.7656,104.1406 626.3594,104.1406 Q627.2969,104.1406 627.9531,103.8906 Q628.3438,103.7344 628.7656,103.2969 Q629.0313,103.0313 629.1797,102.9531 Q629.3281,102.875 629.5313,102.875 Q629.8594,102.875 630.1172,103.1328 Q630.375,103.3906 630.375,103.7344 Q630.375,104.0781 630.0313,104.4844 Q629.5313,105.0625 628.7344,105.3906 Q627.6563,105.8438 626.3594,105.8438 Q624.8438,105.8438 623.6406,105.2188 Q622.6563,104.7188 621.9688,103.6484 Q621.2813,102.5781 621.2813,101.2969 L621.2813,100.1406 Q621.2813,98.8125 621.8984,97.6641 Q622.5156,96.5156 623.6094,95.8984 Q624.7031,95.2813 625.9375,95.2813 Q626.6719,95.2813 627.3203,95.4453 Q627.9688,95.6094 628.5156,95.9688 Z "/><text fill="#000000" font-family="sans-serif" font-size="12" font-style="italic" lengthAdjust="spacingAndGlyphs" textLength="66" x="663.25" y="97.457">«Singleton»</text><ellipse cx="651.25" cy="107.1406" fill="#84BE84" rx="3" ry="3" style="stroke: #038048; stroke-width: 1.0;"/><text fill="#000000" font-family="sans-serif" font-size="12" font-weight="bold" lengthAdjust="spacingAndGlyphs" textLength="24" x="657.25" y="112.5508">final</text><text fill="#000000" font-family="sans-serif" font-size="12" lengthAdjust="spacingAndGlyphs" textLength="62" x="684.25" y="112.5508">PcscPlugin</text><line style="stroke: #A80036; stroke-width: 1.5;" x1="577.5" x2="782.5" y1="120.1875" y2="120.1875"/><rect fill="none" height="6" style="stroke: #C82930; stroke-width: 1.0;" width="6" x="584.5" y="129.6055"/><text fill="#000000" font-family="sans-serif" font-size="11" lengthAdjust="spacingAndGlyphs" textLength="57" x="596.5" y="135.6064">String name</text><line style="stroke: #A80036; stroke-width: 1.5;" x1="577.5" x2="782.5" y1="142.0234" y2="142.0234"/><rect fill="#F24D5C" height="6" style="stroke: #C82930; stroke-width: 1.0;" width="6" x="584.5" y="151.4414"/><text fill="#000000" font-family="sans-serif" font-size="11" lengthAdjust="spacingAndGlyphs" textLength="60" x="596.5" y="157.4424">PcscPlugin()</text><ellipse cx="587.5" cy="168.2773" fill="#84BE84" rx="3" ry="3" style="stroke: #038048; stroke-width: 1.0;"/><text fill="#000000" font-family="sans-serif" font-size="11" lengthAdjust="spacingAndGlyphs" text-decoration="underline" textLength="119" x="596.5" y="171.2783">PcscPlugin getInstance()</text><line style="stroke: #000000; stroke-width: 1.0;" x1="596.5" x2="715.5" y1="173.2783" y2="173.2783"/><ellipse cx="587.5" cy="182.1133" fill="#84BE84" rx="3" ry="3" style="stroke: #038048; stroke-width: 1.0;"/><text fill="#000000" font-family="sans-serif" font-size="11" font-weight="bold" lengthAdjust="spacingAndGlyphs" textLength="23" x="596.5" y="185.1143">final</text><text fill="#000000" font-family="sans-serif" font-size="11" lengthAdjust="spacingAndGlyphs" textLength="81" x="622.5" y="185.1143">String getName()</text><ellipse cx="587.5" cy="195.9492" fill="#84BE84" rx="3" ry="3" style="stroke: #038048; stroke-width: 1.0;"/><text fill="#000000" font-family="sans-serif" font-size="11" font-weight="bold" lengthAdjust="spacingAndGlyphs" textLength="23" x="596.5" y="198.9502">final</text><text fill="#000000" font-family="sans-serif" font-size="11" lengthAdjust="spacingAndGlyphs" textLength="155" x="622.5" y="198.9502">List&lt;PcscReader&gt; getReaders()</text><!--class PcscReader--><rect fill="#FEFECE" filter="url(#f1p82dy77btk4w)" height="97.6953" id="PcscReader" style="stroke: #A80036; stroke-width: 1.5;" width="138" x="863" y="93.5"/><ellipse cx="878" cy="113.5938" fill="#ADD1B2" rx="11" ry="11" style="stroke: #A80036; stroke-width: 1.0;"/><path d="M880.7656,109.4688 Q880.9219,109.25 881.1094,109.1406 Q881.2969,109.0313 881.5156,109.0313 Q881.8906,109.0313 882.125,109.2891 Q882.3594,109.5469 882.3594,110.1563 L882.3594,111.6094 Q882.3594,112.2188 882.125,112.4844 Q881.8906,112.75 881.5156,112.75 Q881.1719,112.75 880.9688,112.5469 Q880.7656,112.3594 880.6563,111.8438 Q880.6094,111.4844 880.4219,111.2969 Q880.0938,110.9219 879.4844,110.7031 Q878.875,110.4844 878.25,110.4844 Q877.4844,110.4844 876.8516,110.8125 Q876.2188,111.1406 875.7266,111.8906 Q875.2344,112.6406 875.2344,113.6719 L875.2344,114.7656 Q875.2344,116 876.125,116.8203 Q877.0156,117.6406 878.6094,117.6406 Q879.5469,117.6406 880.2031,117.3906 Q880.5938,117.2344 881.0156,116.7969 Q881.2813,116.5313 881.4297,116.4531 Q881.5781,116.375 881.7813,116.375 Q882.1094,116.375 882.3672,116.6328 Q882.625,116.8906 882.625,117.2344 Q882.625,117.5781 882.2813,117.9844 Q881.7813,118.5625 880.9844,118.8906 Q879.9063,119.3438 878.6094,119.3438 Q877.0938,119.3438 875.8906,118.7188 Q874.9063,118.2188 874.2188,117.1484 Q873.5313,116.0781 873.5313,114.7969 L873.5313,113.6406 Q873.5313,112.3125 874.1484,111.1641 Q874.7656,110.0156 875.8594,109.3984 Q876.9531,108.7813 878.1875,108.7813 Q878.9219,108.7813 879.5703,108.9453 Q880.2188,109.1094 880.7656,109.4688 Z "/><text fill="#000000" font-family="sans-serif" font-size="12" font-style="italic" lengthAdjust="spacingAndGlyphs" textLength="66" x="912" y="110.957">«Singleton»</text><ellipse cx="897" cy="120.6406" fill="#84BE84" rx="3" ry="3" style="stroke: #038048; stroke-width: 1.0;"/><text fill="#000000" font-family="sans-serif" font-size="12" font-weight="bold" lengthAdjust="spacingAndGlyphs" textLength="24" x="903" y="126.0508">final</text><text fill="#000000" font-family="sans-serif" font-size="12" lengthAdjust="spacingAndGlyphs" textLength="68" x="930" y="126.0508">PcscReader</text><line style="stroke: #A80036; stroke-width: 1.5;" x1="864" x2="1000" y1="133.6875" y2="133.6875"/><rect fill="none" height="6" style="stroke: #C82930; stroke-width: 1.0;" width="6" x="871" y="143.1055"/><text fill="#000000" font-family="sans-serif" font-size="11" lengthAdjust="spacingAndGlyphs" textLength="57" x="883" y="149.1064">String name</text><line style="stroke: #A80036; stroke-width: 1.5;" x1="864" x2="1000" y1="155.5234" y2="155.5234"/><polygon fill="#FFFF44" points="874,162.9414,878,166.9414,874,170.9414,870,166.9414" style="stroke: #B38D22; stroke-width: 1.0;"/><text fill="#000000" font-family="sans-serif" font-size="11" lengthAdjust="spacingAndGlyphs" textLength="67" x="883" y="170.9424">PcscReader()</text><ellipse cx="874" cy="181.7773" fill="#84BE84" rx="3" ry="3" style="stroke: #038048; stroke-width: 1.0;"/><text fill="#000000" font-family="sans-serif" font-size="11" font-weight="bold" lengthAdjust="spacingAndGlyphs" textLength="23" x="883" y="184.7783">final</text><text fill="#000000" font-family="sans-serif" font-size="11" lengthAdjust="spacingAndGlyphs" textLength="81" x="909" y="184.7783">String getName()</text><!--link AbstractThreadedObservablePlugin to AbstractObservableReader--><!--link AbstractObservableReader to AbstractStaticPlugin--><!--link AbstractThreadedLocalReader to AbstractLocalReader--><!--link AbstractThreadedLocalReader to AbstractSelectionLocalReader--><path d="M687.456,375.033 C681.362,391.459 672.992,414.022 665.709,433.653 " fill="none" id="AbstractThreadedLocalReader-AbstractSelectionLocalReader" style="stroke: #A80036; stroke-width: 1.0;"/><polygon fill="none" points="672.174,436.353,658.655,452.67,659.048,431.484,672.174,436.353" style="stroke: #A80036; stroke-width: 1.0;"/><!--link AbstractLocalReader to AbstractSelectionLocalReader--><path d="M288.187,439.544 C302.352,428.09 319.306,416.952 337,411 C380.754,396.282 499.684,428.515 577.695,452.925 " fill="none" id="AbstractLocalReader-AbstractSelectionLocalReader" style="stroke: #A80036; stroke-width: 1.0;"/><polygon fill="none" points="292.629,444.958,272.961,452.843,283.419,434.414,292.629,444.958" style="stroke: #A80036; stroke-width: 1.0;"/><text fill="#000000" font-family="sans-serif" font-size="13" lengthAdjust="spacingAndGlyphs" textLength="46" x="338" y="419.4951">extends</text><!--link AbstractObservableReader to AbstractLocalReader--><path d="M216.616,394.192 C219.87,403.721 223.437,413.751 227,423 C230.822,432.922 235.422,443.714 239.501,452.954 " fill="none" id="AbstractObservableReader-AbstractLocalReader" style="stroke: #A80036; stroke-width: 1.0;"/><polygon fill="none" points="209.968,396.384,210.3,375.197,223.253,391.966,209.968,396.384" style="stroke: #A80036; stroke-width: 1.0;"/><text fill="#000000" font-family="sans-serif" font-size="13" lengthAdjust="spacingAndGlyphs" textLength="46" x="228" y="419.4951">extends</text><!--link AbstractObservableReader to AbstractThreadedLocalReader--><!--link RemoteSePlugin to RemoteSeReader--><path d="M274.801,142.5 C256.803,142.5 238.557,142.5 221.253,142.5 " fill="none" id="RemoteSePlugin-RemoteSeReader" style="stroke: #A80036; stroke-width: 1.0;"/><polygon fill="#A80036" points="208.072,142.5,217.072,146.5,213.072,142.5,217.072,138.5,208.072,142.5" style="stroke: #A80036; stroke-width: 1.0;"/><line style="stroke: #A80036; stroke-width: 1.0;" x1="213.072" x2="221.072" y1="142.5" y2="142.5"/><polygon fill="#A80036" points="287.846,142.5,281.846,138.5,275.846,142.5,281.846,146.5,287.846,142.5" style="stroke: #A80036; stroke-width: 1.0;"/><text fill="#000000" font-family="sans-serif" font-size="13" lengthAdjust="spacingAndGlyphs" textLength="43" x="226.5" y="135.9951">readers</text><text fill="#000000" font-family="sans-serif" font-size="13" lengthAdjust="spacingAndGlyphs" textLength="7" x="273.1807" y="139.4821">1</text><text fill="#000000" font-family="sans-serif" font-size="13" lengthAdjust="spacingAndGlyphs" textLength="5" x="215.8714" y="139.3118">*</text><!--link AndroidNfcPlugin to AndroidNfcReader--><path d="M816.353,685.5 C834.131,685.5 852.111,685.5 869.172,685.5 " fill="none" id="AndroidNfcPlugin-AndroidNfcReader" style="stroke: #A80036; stroke-width: 1.0;"/><polygon fill="#A80036" points="882.328,685.5,873.328,681.5,877.328,685.5,873.328,689.5,882.328,685.5" style="stroke: #A80036; stroke-width: 1.0;"/><line style="stroke: #A80036; stroke-width: 1.0;" x1="877.328" x2="869.328" y1="685.5" y2="685.4999"/><polygon fill="#A80036" points="803.207,685.5,809.207,689.5,815.207,685.5,809.207,681.5,803.207,685.5" style="stroke: #A80036; stroke-width: 1.0;"/><text fill="#000000" font-family="sans-serif" font-size="13" lengthAdjust="spacingAndGlyphs" textLength="43" x="821.25" y="678.9951">readers</text><text fill="#000000" font-family="sans-serif" font-size="13" lengthAdjust="spacingAndGlyphs" textLength="7" x="811.0679" y="682.4821">1</text><text fill="#000000" font-family="sans-serif" font-size="13" lengthAdjust="spacingAndGlyphs" textLength="5" x="869.4752" y="682.2972">*</text><!--link AndroidOmapiPlugin to AndroidOmapiReader--><path d="M306.19,685.5 C288.779,685.5 270.746,685.5 253.322,685.5 " fill="none" id="AndroidOmapiPlugin-AndroidOmapiReader" style="stroke: #A80036; stroke-width: 1.0;"/><polygon fill="#A80036" points="240.218,685.5,249.218,689.5,245.218,685.5,249.218,681.5,240.218,685.5" style="stroke: #A80036; stroke-width: 1.0;"/><line style="stroke: #A80036; stroke-width: 1.0;" x1="245.218" x2="253.218" y1="685.5" y2="685.4999"/><polygon fill="#A80036" points="319.363,685.5,313.363,681.5,307.363,685.5,313.363,689.5,319.363,685.5" style="stroke: #A80036; stroke-width: 1.0;"/><text fill="#000000" font-family="sans-serif" font-size="13" lengthAdjust="spacingAndGlyphs" textLength="43" x="258.25" y="678.9951">readers</text><text fill="#000000" font-family="sans-serif" font-size="13" lengthAdjust="spacingAndGlyphs" textLength="7" x="304.5427" y="682.3772">1</text><text fill="#000000" font-family="sans-serif" font-size="13" lengthAdjust="spacingAndGlyphs" textLength="5" x="248.0049" y="682.3707">*</text><!--link PcscPlugin to PcscReader--><path d="M796.842,142.5 C814.782,142.5 832.971,142.5 849.944,142.5 " fill="none" id="PcscPlugin-PcscReader" style="stroke: #A80036; stroke-width: 1.0;"/><polygon fill="#A80036" points="862.964,142.5,853.964,138.5,857.964,142.5,853.964,146.5,862.964,142.5" style="stroke: #A80036; stroke-width: 1.0;"/><line style="stroke: #A80036; stroke-width: 1.0;" x1="857.964" x2="849.9635" y1="142.5" y2="142.5"/><polygon fill="#A80036" points="783.589,142.5,789.589,146.5,795.589,142.5,789.589,138.5,783.589,142.5" style="stroke: #A80036; stroke-width: 1.0;"/><text fill="#000000" font-family="sans-serif" font-size="13" lengthAdjust="spacingAndGlyphs" textLength="43" x="801.75" y="135.9951">readers</text><text fill="#000000" font-family="sans-serif" font-size="13" lengthAdjust="spacingAndGlyphs" textLength="7" x="791.4533" y="139.407">1</text><text fill="#000000" font-family="sans-serif" font-size="13" lengthAdjust="spacingAndGlyphs" textLength="5" x="850.1398" y="139.156">*</text><!--link RemoteSePlugin to AbstractThreadedObservablePlugin--><path d="M416.246,205.177 C422.765,238.01 430.621,277.577 436.472,307.05 " fill="none" id="RemoteSePlugin-AbstractThreadedObservablePlugin" style="stroke: #A80036; stroke-width: 1.0;"/><polygon fill="none" points="443.387,305.935,440.417,326.915,429.656,308.661,443.387,305.935" style="stroke: #A80036; stroke-width: 1.0;"/><text fill="#000000" font-family="sans-serif" font-size="13" lengthAdjust="spacingAndGlyphs" textLength="46" x="426" y="251.4951">extends</text><!--link RemoteSeReader to AbstractObservableReader--><path d="M141.655,191.654 C155.305,226.888 173.645,274.228 186.707,307.945 " fill="none" id="RemoteSeReader-AbstractObservableReader" style="stroke: #A80036; stroke-width: 1.0;"/><polygon fill="none" points="193.372,305.77,194.07,326.948,180.317,310.828,193.372,305.77" style="stroke: #A80036; stroke-width: 1.0;"/><text fill="#000000" font-family="sans-serif" font-size="13" lengthAdjust="spacingAndGlyphs" textLength="46" x="167" y="251.4951">extends</text><!--link PcscPlugin to AbstractThreadedObservablePlugin--><path d="M609.811,205.177 C569.712,240.413 520.788,283.403 486.706,313.352 " fill="none" id="PcscPlugin-AbstractThreadedObservablePlugin" style="stroke: #A80036; stroke-width: 1.0;"/><polygon fill="none" points="490.916,318.971,471.271,326.915,481.674,308.455,490.916,318.971" style="stroke: #A80036; stroke-width: 1.0;"/><text fill="#000000" font-family="sans-serif" font-size="13" lengthAdjust="spacingAndGlyphs" textLength="46" x="570" y="251.4951">extends</text><!--link PcscReader to AbstractThreadedLocalReader--><path d="M876.966,191.654 C834.325,228.966 776.169,279.852 737.415,313.762 " fill="none" id="PcscReader-AbstractThreadedLocalReader" style="stroke: #A80036; stroke-width: 1.0;"/><polygon fill="none" points="742.006,319.046,722.345,326.948,732.787,308.51,742.006,319.046" style="stroke: #A80036; stroke-width: 1.0;"/><text fill="#000000" font-family="sans-serif" font-size="13" lengthAdjust="spacingAndGlyphs" textLength="46" x="822" y="251.4951">extends</text><!--link AbstractStaticPlugin to AndroidOmapiPlugin--><path d="M426.633,521.451 C423.855,557.315 419.938,607.868 417.204,643.144 " fill="none" id="AbstractStaticPlugin-AndroidOmapiPlugin" style="stroke: #A80036; stroke-width: 1.0;"/><polygon fill="none" points="419.672,520.686,428.196,501.287,433.63,521.768,419.672,520.686" style="stroke: #A80036; stroke-width: 1.0;"/><text fill="#000000" font-family="sans-serif" font-size="13" lengthAdjust="spacingAndGlyphs" textLength="46" x="426" y="547.4951">extends</text><!--link AbstractLocalReader to AndroidOmapiReader--><path d="M229.01,519.28 C209.458,557.732 180.651,614.386 162.362,650.355 " fill="none" id="AbstractLocalReader-AndroidOmapiReader" style="stroke: #A80036; stroke-width: 1.0;"/><polygon fill="none" points="222.855,515.942,238.159,501.287,235.334,522.287,222.855,515.942" style="stroke: #A80036; stroke-width: 1.0;"/><text fill="#000000" font-family="sans-serif" font-size="13" lengthAdjust="spacingAndGlyphs" textLength="46" x="223" y="547.4951">extends</text><!--link AbstractStaticPlugin to AndroidNfcPlugin--><path d="M474.332,514.042 C511.201,544.016 564.505,587.352 608.14,622.827 " fill="none" id="AbstractStaticPlugin-AndroidNfcPlugin" style="stroke: #A80036; stroke-width: 1.0;"/><polygon fill="none" points="469.746,519.335,458.643,501.287,478.578,508.472,469.746,519.335" style="stroke: #A80036; stroke-width: 1.0;"/><text fill="#000000" font-family="sans-serif" font-size="13" lengthAdjust="spacingAndGlyphs" textLength="46" x="520" y="547.4951">extends</text><!--link AbstractSelectionLocalReader to AndroidNfcReader--><path d="M726.942,509.224 C757.218,522.833 791.68,540.02 821,559 C862.549,585.898 905.02,623.463 933.557,650.473 " fill="none" id="AbstractSelectionLocalReader-AndroidNfcReader" style="stroke: #A80036; stroke-width: 1.0;"/><polygon fill="none" points="723.741,515.464,708.234,501.023,729.361,502.642,723.741,515.464" style="stroke: #A80036; stroke-width: 1.0;"/><text fill="#000000" font-family="sans-serif" font-size="13" lengthAdjust="spacingAndGlyphs" textLength="46" x="808" y="547.4951">extends</text><!--
@startuml

package org.eclipse.keyple.seproxy.plugin #FFFFFF {

abstract AbstractStaticPlugin
abstract AbstractThreadedObservablePlugin
abstract AbstractObservableReader
abstract AbstractLocalReader
abstract AbstractSelectionLocalReader
abstract AbstractThreadedLocalReader


AbstractThreadedObservablePlugin -right[hidden]-> AbstractObservableReader
AbstractObservableReader -down[hidden]->AbstractStaticPlugin


AbstractThreadedLocalReader -down[hidden]-> AbstractLocalReader
AbstractThreadedLocalReader - -|> AbstractSelectionLocalReader
AbstractLocalReader <|-right- AbstractSelectionLocalReader : extends
}


AbstractObservableReader <|- - AbstractLocalReader : extends
AbstractObservableReader -right[hidden]-> AbstractThreadedLocalReader


package plugin.remotese #FFCCFF {
+class "<b>final</b> RemoteSePlugin" as RemoteSePlugin << Singleton >> {
  -String name
  -RemoteSePlugin()
  +{static} RemoteSePlugin getInstance()
  +<b>final</b> String getName()
  +<b>final</b> List<RemoteSeReader> getReaders()
}
+class "<b>final</b> RemoteSeReader" as RemoteSeReader << Singleton >> {
  -String name
  #RemoteSeReader()
  +<b>final</b> String getName()
}
RemoteSePlugin "1" *-right-> "*" RemoteSeReader : readers
}

package plugin.androidnfc #FFCCFF {
+class "<b>final</b> AndroidNfcPlugin" as AndroidNfcPlugin << Singleton >> {
  -String name
  -AndroidNfcPlugin()
  +{static} AndroidNfcPlugin getInstance()
  +<b>final</b> String getName()
  +<b>final</b> List<AndroidNfcReader> getReaders()
}
+class "<b>final</b> AndroidNfcReader" as AndroidNfcReader << Singleton >> {
  #AndroidNfcReader()
}
AndroidNfcPlugin "1" *-right-> "*" AndroidNfcReader : readers
}

package org.eclipse.keyple.plugin.android.omapi #FFCCFF {
+class "<b>final</b> AndroidOmapiPlugin " as AndroidOmapiPlugin  << Singleton >> {
  -AndroidOmapiPlugin ()
  +{static} AndroidOmapiPlugin getInstance()
}
+class "<b>final</b> AndroidOmapiReader" as AndroidOmapiReader << Singleton >> {
  #AndroidNfcReader()
}
AndroidOmapiPlugin "1" *-right-> "*" AndroidOmapiReader : readers
}

package plugin.pcsc #FFCCFF {

+class "<b>final</b> PcscPlugin" as PcscPlugin << Singleton >> {
  -String name
  -PcscPlugin()
  +{static} PcscPlugin getInstance()
  +<b>final</b> String getName()
  +<b>final</b> List<PcscReader> getReaders()
}
+class "<b>final</b> PcscReader" as PcscReader << Singleton >> {
  -String name
  #PcscReader()
  +<b>final</b> String getName()
}
PcscPlugin "1" *-right-> "*" PcscReader : readers
}




RemoteSePlugin -down-|> AbstractThreadedObservablePlugin : extends
RemoteSeReader -down-|> AbstractObservableReader : extends

PcscPlugin -down-|> AbstractThreadedObservablePlugin : extends
PcscReader -down-|> AbstractThreadedLocalReader : extends

AndroidOmapiPlugin -up-|> AbstractStaticPlugin : extends
AndroidOmapiReader -up-|> AbstractLocalReader : extends

AndroidNfcPlugin -up-|> AbstractStaticPlugin : extends
AndroidNfcReader -up-|> AbstractSelectionLocalReader : extends






@enduml

PlantUML version 1.2018.01(Sun Jan 28 19:08:22 CET 2018)
(APACHE source distribution)
Java Runtime: Java(TM) SE Runtime Environment
JVM: Java HotSpot(TM) 64-Bit Server VM
Java Version: 10.0.1+10
Operating System: Windows 10
OS Version: 10.0
Default Encoding: Cp1252
Language: fr
Country: FR
--></g></svg>