<?xml version="1.0" encoding="UTF-8" standalone="no"?><svg xmlns="http://www.w3.org/2000/svg" xmlns:xlink="http://www.w3.org/1999/xlink" contentScriptType="application/ecmascript" contentStyleType="text/css" height="2433.3333px" preserveAspectRatio="none" style="width:2810px;height:2433px;" version="1.1" viewBox="0 0 2810 2433" width="2810.4167px" zoomAndPan="magnify"><defs><filter height="300%" id="f0chtd5" width="300%" x="-1" y="-1"><feGaussianBlur result="blurOut" stdDeviation="4.166666666666667"/><feColorMatrix in="blurOut" result="blurOut2" type="matrix" values="0 0 0 0 0 0 0 0 0 0 0 0 0 0 0 0 0 0 .4 0"/><feOffset dx="8.333333333333334" dy="8.333333333333334" in="blurOut2" result="blurOut3"/><feBlend in="SourceGraphic" in2="blurOut3" mode="normal"/></filter></defs><g><!--cluster org.eclipse.keyple.seproxy--><polygon fill="#FFFFFF" filter="url(#f0chtd5)" points="45.8333,391.6667,452.0833,391.6667,466.6667,440.8529,2795.8333,440.8529,2795.8333,2418.75,45.8333,2418.75,45.8333,391.6667" style="stroke: #000000; stroke-width: 4.166666666666667;"/><line style="stroke: #000000; stroke-width: 4.166666666666667;" x1="45.8333" x2="466.6667" y1="440.8529" y2="440.8529"/><text fill="#000000" font-family="sans-serif" font-size="29.1667" font-weight="bold" lengthAdjust="spacingAndGlyphs" textLength="393.75" x="54.1667" y="426.1108">org.eclipse.keyple.seproxy</text><!--cluster event--><polygon fill="#FFFFFF" filter="url(#f0chtd5)" points="275,883.3333,372.9167,883.3333,387.5,932.5195,2745.8333,932.5195,2745.8333,2064.5833,275,2064.5833,275,883.3333" style="stroke: #000000; stroke-width: 4.166666666666667;"/><line style="stroke: #000000; stroke-width: 4.166666666666667;" x1="275" x2="387.5" y1="932.5195" y2="932.5195"/><text fill="#000000" font-family="sans-serif" font-size="29.1667" font-weight="bold" lengthAdjust="spacingAndGlyphs" textLength="85.4167" x="283.3333" y="917.7775">event</text><!--cluster ##80--><!--cluster external.terminalapplication--><polygon fill="#3399FF" filter="url(#f0chtd5)" points="714.5833,50,1135.4167,50,1150,99.1862,2625,99.1862,2625,287.5,714.5833,287.5,714.5833,50" style="stroke: #000000; stroke-width: 4.166666666666667;"/><line style="stroke: #000000; stroke-width: 4.166666666666667;" x1="714.5833" x2="1150" y1="99.1862" y2="99.1862"/><text fill="#000000" font-family="sans-serif" font-size="29.1667" font-weight="bold" lengthAdjust="spacingAndGlyphs" textLength="408.3333" x="722.9167" y="84.4442">external.terminalapplication</text><!--class SeProxyService--><rect fill="#FEFECE" filter="url(#f0chtd5)" height="318.8314" style="stroke: #A80036; stroke-width: 3.125;" width="470.8333" x="641.6667" y="466.6667"/><ellipse cx="741.1458" cy="508.5286" fill="#ADD1B2" rx="22.9167" ry="22.9167" style="stroke: #A80036; stroke-width: 2.0833333333333335;"/><path d="M746.9076,499.9349 Q747.2331,499.4792 747.6237,499.2513 Q748.0143,499.0234 748.4701,499.0234 Q749.2513,499.0234 749.7396,499.5605 Q750.2279,500.0977 750.2279,501.3672 L750.2279,504.3945 Q750.2279,505.6641 749.7396,506.2174 Q749.2513,506.7708 748.4701,506.7708 Q747.7539,506.7708 747.3307,506.3477 Q746.9076,505.957 746.6797,504.8828 Q746.582,504.1341 746.1914,503.7435 Q745.5078,502.9622 744.2383,502.5065 Q742.9688,502.0508 741.6667,502.0508 Q740.0716,502.0508 738.7533,502.7344 Q737.4349,503.418 736.4095,504.9805 Q735.3841,506.543 735.3841,508.6914 L735.3841,510.9701 Q735.3841,513.5417 737.2396,515.2507 Q739.0951,516.9596 742.4154,516.9596 Q744.3685,516.9596 745.7357,516.4388 Q746.5495,516.1133 747.4284,515.2018 Q747.9818,514.6484 748.291,514.4857 Q748.6003,514.3229 749.0234,514.3229 Q749.707,514.3229 750.2441,514.86 Q750.7813,515.3971 750.7813,516.1133 Q750.7813,516.8294 750.0651,517.6758 Q749.0234,518.8802 747.3633,519.5638 Q745.1172,520.5078 742.4154,520.5078 Q739.2578,520.5078 736.7513,519.2057 Q734.7005,518.1641 733.2682,515.9342 Q731.8359,513.7044 731.8359,511.0352 L731.8359,508.6263 Q731.8359,505.8594 733.1217,503.4668 Q734.4076,501.0742 736.6862,499.7884 Q738.9648,498.5026 741.5365,498.5026 Q743.0664,498.5026 744.4173,498.8444 Q745.7682,499.1862 746.9076,499.9349 Z "/><text fill="#000000" font-family="sans-serif" font-size="25" font-style="italic" lengthAdjust="spacingAndGlyphs" textLength="137.5" x="842.1875" y="503.0355">«Singleton»</text><ellipse cx="794.2708" cy="523.2096" fill="#84BE84" rx="6.25" ry="6.25" style="stroke: #038048; stroke-width: 2.0833333333333335;"/><text fill="#000000" font-family="sans-serif" font-size="25" font-weight="bold" lengthAdjust="spacingAndGlyphs" textLength="50" x="806.7708" y="534.4808">final</text><text fill="#000000" font-family="sans-serif" font-size="25" lengthAdjust="spacingAndGlyphs" textLength="175" x="863.0208" y="534.4808">SeProxyService</text><line style="stroke: #A80036; stroke-width: 3.125;" x1="643.75" x2="1110.4167" y1="550.3906" y2="550.3906"/><rect fill="none" height="12.5" style="stroke: #C82930; stroke-width: 2.0833333333333335;" width="12.5" x="658.3333" y="570.0114"/><text fill="#000000" font-family="sans-serif" font-size="22.9167" lengthAdjust="spacingAndGlyphs" textLength="104.1667" x="683.3333" y="582.5134">int version</text><line style="stroke: #A80036; stroke-width: 3.125;" x1="643.75" x2="1110.4167" y1="595.8822" y2="595.8822"/><text fill="#000000" font-family="sans-serif" font-size="22.9167" lengthAdjust="spacingAndGlyphs" textLength="297.9167" x="683.3333" y="628.005">List&lt;ReadersPlugin&gt; plugins()</text><rect fill="#F24D5C" height="12.5" style="stroke: #C82930; stroke-width: 2.0833333333333335;" width="12.5" x="658.3333" y="644.3278"/><text fill="#000000" font-family="sans-serif" font-size="22.9167" lengthAdjust="spacingAndGlyphs" textLength="179.1667" x="683.3333" y="656.8298">SeProxyService()</text><ellipse cx="664.5833" cy="679.4027" fill="#84BE84" rx="6.25" ry="6.25" style="stroke: #038048; stroke-width: 2.0833333333333335;"/><text fill="#000000" font-family="sans-serif" font-size="22.9167" lengthAdjust="spacingAndGlyphs" text-decoration="underline" textLength="302.0833" x="683.3333" y="685.6547">SeProxyService getInstance()</text><line style="stroke: #000000; stroke-width: 1.0;" x1="683.3333" x2="985.4167" y1="689.8214" y2="689.8214"/><ellipse cx="664.5833" cy="708.2275" fill="#84BE84" rx="6.25" ry="6.25" style="stroke: #038048; stroke-width: 2.0833333333333335;"/><text fill="#000000" font-family="sans-serif" font-size="22.9167" lengthAdjust="spacingAndGlyphs" textLength="416.6667" x="683.3333" y="714.4796">setPlugins(List&lt;ReadersPlugin&gt; plugins())</text><ellipse cx="664.5833" cy="737.0524" fill="#84BE84" rx="6.25" ry="6.25" style="stroke: #038048; stroke-width: 2.0833333333333335;"/><text fill="#000000" font-family="sans-serif" font-size="22.9167" lengthAdjust="spacingAndGlyphs" textLength="393.75" x="683.3333" y="743.3044">SortedSet&lt;ReadersPlugin&gt; getPlugins()</text><ellipse cx="664.5833" cy="765.8773" fill="#84BE84" rx="6.25" ry="6.25" style="stroke: #038048; stroke-width: 2.0833333333333335;"/><text fill="#000000" font-family="sans-serif" font-size="22.9167" lengthAdjust="spacingAndGlyphs" textLength="156.25" x="683.3333" y="772.1293">int getVersion()</text><!--class ReadersPlugin--><rect fill="#FEFECE" filter="url(#f0chtd5)" height="128.8249" style="stroke: #A80036; stroke-width: 3.125;" width="556.25" x="1186.4583" y="2227.0833"/><ellipse cx="1358.8542" cy="2260.4167" fill="#B4A7E5" rx="22.9167" ry="22.9167" style="stroke: #A80036; stroke-width: 2.0833333333333335;"/><path d="M1360.8398,2253.418 L1360.8398,2267.2852 L1364.4206,2267.2852 Q1365.6901,2267.2852 1366.2435,2267.7734 Q1366.7969,2268.2617 1366.7969,2269.0755 Q1366.7969,2269.8568 1366.2435,2270.3451 Q1365.6901,2270.8333 1364.4206,2270.8333 L1353.7109,2270.8333 Q1352.4414,2270.8333 1351.888,2270.3451 Q1351.3346,2269.8568 1351.3346,2269.043 Q1351.3346,2268.2617 1351.888,2267.7734 Q1352.4414,2267.2852 1353.7109,2267.2852 L1357.2917,2267.2852 L1357.2917,2253.418 L1353.7109,2253.418 Q1352.4414,2253.418 1351.888,2252.9297 Q1351.3346,2252.4414 1351.3346,2251.6276 Q1351.3346,2250.8464 1351.888,2250.3581 Q1352.4414,2249.8698 1353.7109,2249.8698 L1364.4206,2249.8698 Q1365.6901,2249.8698 1366.2435,2250.3581 Q1366.7969,2250.8464 1366.7969,2251.6276 Q1366.7969,2252.4414 1366.2435,2252.9297 Q1365.6901,2253.418 1364.4206,2253.418 L1360.8398,2253.418 Z "/><ellipse cx="1411.9792" cy="2259.375" fill="#84BE84" rx="6.25" ry="6.25" style="stroke: #038048; stroke-width: 2.0833333333333335;"/><text fill="#000000" font-family="sans-serif" font-size="25" font-style="italic" lengthAdjust="spacingAndGlyphs" textLength="170.8333" x="1424.4792" y="2270.6462">ReadersPlugin</text><line style="stroke: #A80036; stroke-width: 3.125;" x1="1188.5417" x2="1740.625" y1="2293.75" y2="2293.75"/><line style="stroke: #A80036; stroke-width: 3.125;" x1="1188.5417" x2="1740.625" y1="2310.4167" y2="2310.4167"/><ellipse cx="1209.375" cy="2336.2874" fill="#84BE84" rx="6.25" ry="6.25" style="stroke: #038048; stroke-width: 2.0833333333333335;"/><text fill="#000000" font-family="sans-serif" font-size="22.9167" lengthAdjust="spacingAndGlyphs" textLength="502.0833" x="1228.125" y="2342.5395">SortedSet&lt;? extends ProxyReader&gt; getReaders()</text><!--class ProxyReader--><rect fill="#FEFECE" filter="url(#f0chtd5)" height="186.4746" style="stroke: #A80036; stroke-width: 3.125;" width="741.6667" x="1908.3333" y="2197.9167"/><ellipse cx="2183.8542" cy="2231.25" fill="#B4A7E5" rx="22.9167" ry="22.9167" style="stroke: #A80036; stroke-width: 2.0833333333333335;"/><path d="M2185.8398,2224.2513 L2185.8398,2238.1185 L2189.4206,2238.1185 Q2190.6901,2238.1185 2191.2435,2238.6068 Q2191.7969,2239.0951 2191.7969,2239.9089 Q2191.7969,2240.6901 2191.2435,2241.1784 Q2190.6901,2241.6667 2189.4206,2241.6667 L2178.7109,2241.6667 Q2177.4414,2241.6667 2176.888,2241.1784 Q2176.3346,2240.6901 2176.3346,2239.8763 Q2176.3346,2239.0951 2176.888,2238.6068 Q2177.4414,2238.1185 2178.7109,2238.1185 L2182.2917,2238.1185 L2182.2917,2224.2513 L2178.7109,2224.2513 Q2177.4414,2224.2513 2176.888,2223.763 Q2176.3346,2223.2747 2176.3346,2222.4609 Q2176.3346,2221.6797 2176.888,2221.1914 Q2177.4414,2220.7031 2178.7109,2220.7031 L2189.4206,2220.7031 Q2190.6901,2220.7031 2191.2435,2221.1914 Q2191.7969,2221.6797 2191.7969,2222.4609 Q2191.7969,2223.2747 2191.2435,2223.763 Q2190.6901,2224.2513 2189.4206,2224.2513 L2185.8398,2224.2513 Z "/><ellipse cx="2236.9792" cy="2230.2083" fill="#84BE84" rx="6.25" ry="6.25" style="stroke: #038048; stroke-width: 2.0833333333333335;"/><text fill="#000000" font-family="sans-serif" font-size="25" font-style="italic" lengthAdjust="spacingAndGlyphs" textLength="150" x="2249.4792" y="2241.4795">ProxyReader</text><line style="stroke: #A80036; stroke-width: 3.125;" x1="1910.4167" x2="2647.9167" y1="2264.5833" y2="2264.5833"/><line style="stroke: #A80036; stroke-width: 3.125;" x1="1910.4167" x2="2647.9167" y1="2281.25" y2="2281.25"/><ellipse cx="1931.25" cy="2307.1208" fill="#84BE84" rx="6.25" ry="6.25" style="stroke: #038048; stroke-width: 2.0833333333333335;"/><text fill="#000000" font-family="sans-serif" font-size="22.9167" lengthAdjust="spacingAndGlyphs" textLength="222.9167" x="1950" y="2313.3728">boolean isSePresent()</text><ellipse cx="1931.25" cy="2335.9456" fill="#84BE84" rx="6.25" ry="6.25" style="stroke: #038048; stroke-width: 2.0833333333333335;"/><text fill="#000000" font-family="sans-serif" font-size="22.9167" lengthAdjust="spacingAndGlyphs" textLength="608.3333" x="1950" y="2342.1977">setSeProtocols(Map&lt;SeProtocol, String&gt; seProtocolSettings)</text><ellipse cx="1931.25" cy="2364.7705" fill="#84BE84" rx="6.25" ry="6.25" style="stroke: #038048; stroke-width: 2.0833333333333335;"/><text fill="#000000" font-family="sans-serif" font-size="22.9167" lengthAdjust="spacingAndGlyphs" textLength="256.25" x="1950" y="2371.0225">SeResponseSet transmit(</text><text fill="#000000" font-family="sans-serif" font-size="22.9167" font-weight="bold" lengthAdjust="spacingAndGlyphs" textLength="47.9167" x="2206.25" y="2371.0225">final</text><text fill="#000000" font-family="sans-serif" font-size="22.9167" lengthAdjust="spacingAndGlyphs" textLength="377.0833" x="2260.4167" y="2371.0225">SeRequestSet seApplicationRequest)</text><polygon fill="#FBFB77" filter="url(#f0chtd5)" points="441.6667,2246.875,441.6667,2335.8398,1041.6667,2335.8398,1041.6667,2267.7083,1020.8333,2246.875,441.6667,2246.875" style="stroke: #A80036; stroke-width: 2.0833333333333335;"/><line style="stroke: #A80036; stroke-width: 2.0833333333333335;" x1="1020.8333" x2="1020.8333" y1="2246.875" y2="2267.7083"/><line style="stroke: #A80036; stroke-width: 2.0833333333333335;" x1="1041.6667" x2="1020.8333" y1="2267.7083" y2="2267.7083"/><text fill="#000000" font-family="sans-serif" font-size="27.0833" lengthAdjust="spacingAndGlyphs" textLength="556.25" x="454.1667" y="2285.4065">ReadersPlugin &amp; ProxyReader interfaces shall</text><text fill="#000000" font-family="sans-serif" font-size="27.0833" lengthAdjust="spacingAndGlyphs" textLength="504.1667" x="454.1667" y="2319.4722">be implemented by every readers' plugins.</text><!--class ReaderEvent--><rect fill="#FEFECE" filter="url(#f0chtd5)" height="186.4746" style="stroke: #A80036; stroke-width: 3.125;" width="237.5" x="2425" y="1358.3333"/><ellipse cx="2456.25" cy="1391.6667" fill="#EB937F" rx="22.9167" ry="22.9167" style="stroke: #A80036; stroke-width: 2.0833333333333335;"/><path d="M2453.8737,1393.3268 L2453.8737,1398.5352 L2462.8906,1398.5352 L2462.8906,1396.6146 Q2462.8906,1395.3451 2463.3952,1394.7917 Q2463.8997,1394.2383 2464.681,1394.2383 Q2465.4622,1394.2383 2465.9505,1394.7917 Q2466.4388,1395.3451 2466.4388,1396.6146 L2466.4388,1402.0833 L2449.7721,1402.0833 Q2448.4701,1402.0833 2447.9329,1401.5951 Q2447.3958,1401.1068 2447.3958,1400.293 Q2447.3958,1399.5117 2447.9492,1399.0234 Q2448.5026,1398.5352 2449.7721,1398.5352 L2450.3255,1398.5352 L2450.3255,1384.668 L2449.7721,1384.668 Q2448.4701,1384.668 2447.9329,1384.1797 Q2447.3958,1383.6914 2447.3958,1382.8776 Q2447.3958,1382.0964 2447.9329,1381.6081 Q2448.4701,1381.1198 2449.7721,1381.1198 L2465.6576,1381.1198 L2465.6576,1386.5234 Q2465.6576,1387.793 2465.1855,1388.3301 Q2464.7135,1388.8672 2463.8997,1388.8672 Q2463.1185,1388.8672 2462.6302,1388.3301 Q2462.1419,1387.793 2462.1419,1386.5234 L2462.1419,1384.668 L2453.8737,1384.668 L2453.8737,1389.7786 L2456.9661,1389.7786 Q2456.9661,1388.4115 2457.2266,1388.0208 Q2457.7799,1387.1745 2458.7565,1387.1745 Q2459.5378,1387.1745 2460.026,1387.7116 Q2460.5143,1388.2487 2460.5143,1389.5182 L2460.5143,1393.6198 Q2460.5143,1394.7591 2460.2539,1395.1497 Q2459.7005,1395.9635 2458.7565,1395.9635 Q2457.7799,1395.9635 2457.2266,1395.1172 Q2456.9661,1394.7266 2456.9661,1393.3268 L2453.8737,1393.3268 Z "/><ellipse cx="2495.8333" cy="1390.625" fill="#84BE84" rx="6.25" ry="6.25" style="stroke: #038048; stroke-width: 2.0833333333333335;"/><text fill="#000000" font-family="sans-serif" font-size="25" lengthAdjust="spacingAndGlyphs" textLength="147.9167" x="2508.3333" y="1401.8962">ReaderEvent</text><line style="stroke: #A80036; stroke-width: 3.125;" x1="2427.0833" x2="2660.4167" y1="1425" y2="1425"/><text fill="#000000" font-family="sans-serif" font-size="22.9167" lengthAdjust="spacingAndGlyphs" textLength="106.25" x="2437.5" y="1457.1228">IO_ERROR</text><text fill="#000000" font-family="sans-serif" font-size="22.9167" lengthAdjust="spacingAndGlyphs" textLength="147.9167" x="2437.5" y="1485.9477">SE_INSERTION</text><text fill="#000000" font-family="sans-serif" font-size="22.9167" lengthAdjust="spacingAndGlyphs" textLength="145.8333" x="2437.5" y="1514.7725">SE_REMOVAL</text><line style="stroke: #A80036; stroke-width: 3.125;" x1="2427.0833" x2="2660.4167" y1="1528.1413" y2="1528.1413"/><!--class AbstractObservableReader--><rect fill="#FEFECE" filter="url(#f0chtd5)" height="215.2995" style="stroke: #A80036; stroke-width: 3.125;" width="764.5833" x="1896.875" y="1737.5"/><ellipse cx="2101.5625" cy="1770.8333" fill="#A9DCDF" rx="22.9167" ry="22.9167" style="stroke: #A80036; stroke-width: 2.0833333333333335;"/><path d="M2106.1198,1774.5117 L2097.4935,1774.5117 L2096.6146,1776.6602 L2097.4935,1776.6602 Q2098.763,1776.6602 2099.3164,1777.1484 Q2099.8698,1777.6367 2099.8698,1778.4505 Q2099.8698,1779.2318 2099.3164,1779.7201 Q2098.763,1780.2083 2097.4935,1780.2083 L2092.7083,1780.2083 Q2091.4388,1780.2083 2090.9017,1779.7201 Q2090.3646,1779.2318 2090.3646,1778.418 Q2090.3646,1777.6367 2090.9342,1777.1322 Q2091.5039,1776.6276 2092.806,1776.6602 L2098.3724,1762.793 L2096.0612,1762.793 Q2094.7917,1762.793 2094.2383,1762.3047 Q2093.6849,1761.8164 2093.6849,1761.0026 Q2093.6849,1760.2214 2094.2383,1759.7331 Q2094.7917,1759.2448 2096.0612,1759.2448 L2103.7109,1759.2448 L2110.7747,1776.6602 Q2112.0117,1776.6602 2112.4023,1776.9531 Q2113.2161,1777.5065 2113.2161,1778.4505 Q2113.2161,1779.2318 2112.679,1779.7201 Q2112.1419,1780.2083 2110.8724,1780.2083 L2106.0872,1780.2083 Q2104.8177,1780.2083 2104.2643,1779.7201 Q2103.7109,1779.2318 2103.7109,1778.418 Q2103.7109,1777.6367 2104.2643,1777.1484 Q2104.8177,1776.6602 2106.0872,1776.6602 L2106.9661,1776.6602 L2106.1198,1774.5117 Z M2104.6224,1770.9635 L2101.7904,1763.9323 L2098.9258,1770.9635 L2104.6224,1770.9635 Z "/><ellipse cx="2154.6875" cy="1769.7917" fill="#84BE84" rx="6.25" ry="6.25" style="stroke: #038048; stroke-width: 2.0833333333333335;"/><text fill="#000000" font-family="sans-serif" font-size="25" font-style="italic" lengthAdjust="spacingAndGlyphs" textLength="314.5833" x="2167.1875" y="1781.0628">AbstractObservableReader</text><line style="stroke: #A80036; stroke-width: 3.125;" x1="1898.9583" x2="2659.375" y1="1804.1667" y2="1804.1667"/><line style="stroke: #A80036; stroke-width: 3.125;" x1="1898.9583" x2="2659.375" y1="1820.8333" y2="1820.8333"/><ellipse cx="1919.7917" cy="1846.7041" fill="#84BE84" rx="6.25" ry="6.25" style="stroke: #038048; stroke-width: 2.0833333333333335;"/><text fill="#000000" font-family="sans-serif" font-size="22.9167" font-weight="bold" lengthAdjust="spacingAndGlyphs" textLength="47.9167" x="1938.5417" y="1852.9561">final</text><text fill="#000000" font-family="sans-serif" font-size="22.9167" lengthAdjust="spacingAndGlyphs" textLength="656.25" x="1992.7083" y="1852.9561">void setSeProtocols(Map&lt;SeProtocol, String&gt; seProtocolSettings)</text><ellipse cx="1919.7917" cy="1875.529" fill="#84BE84" rx="6.25" ry="6.25" style="stroke: #038048; stroke-width: 2.0833333333333335;"/><text fill="#000000" font-family="sans-serif" font-size="22.9167" lengthAdjust="spacingAndGlyphs" textLength="256.25" x="1938.5417" y="1881.781">SeResponseSet transmit(</text><text fill="#000000" font-family="sans-serif" font-size="22.9167" font-weight="bold" lengthAdjust="spacingAndGlyphs" textLength="47.9167" x="2194.7917" y="1881.781">final</text><text fill="#000000" font-family="sans-serif" font-size="22.9167" lengthAdjust="spacingAndGlyphs" textLength="389.5833" x="2248.9583" y="1881.781">SeRequestSet seApplicationRequests)</text><polygon fill="#FFFF44" points="1919.7917,1893.9372,1928.125,1902.2705,1919.7917,1910.6038,1911.4583,1902.2705" style="stroke: #B38D22; stroke-width: 2.0833333333333335;"/><text fill="#000000" font-family="sans-serif" font-size="22.9167" font-style="italic" lengthAdjust="spacingAndGlyphs" textLength="679.1667" x="1938.5417" y="1910.6059">SeResponseSet processSeRequestSet(SeRequestSet requestSet)</text><ellipse cx="1919.7917" cy="1933.1787" fill="#84BE84" rx="6.25" ry="6.25" style="stroke: #038048; stroke-width: 2.0833333333333335;"/><text fill="#000000" font-family="sans-serif" font-size="22.9167" font-weight="bold" lengthAdjust="spacingAndGlyphs" textLength="47.9167" x="1938.5417" y="1939.4307">final</text><text fill="#000000" font-family="sans-serif" font-size="22.9167" lengthAdjust="spacingAndGlyphs" textLength="308.3333" x="1992.7083" y="1939.4307">int compareTo(ProxyReader o)</text><!--class ReaderObserver--><rect fill="#FEFECE" filter="url(#f0chtd5)" height="128.8249" style="stroke: #A80036; stroke-width: 3.125;" width="739.5833" x="1905.2083" y="1037.5"/><ellipse cx="2158.8542" cy="1070.8333" fill="#B4A7E5" rx="22.9167" ry="22.9167" style="stroke: #A80036; stroke-width: 2.0833333333333335;"/><path d="M2160.8398,1063.8346 L2160.8398,1077.7018 L2164.4206,1077.7018 Q2165.6901,1077.7018 2166.2435,1078.1901 Q2166.7969,1078.6784 2166.7969,1079.4922 Q2166.7969,1080.2734 2166.2435,1080.7617 Q2165.6901,1081.25 2164.4206,1081.25 L2153.7109,1081.25 Q2152.4414,1081.25 2151.888,1080.7617 Q2151.3346,1080.2734 2151.3346,1079.4596 Q2151.3346,1078.6784 2151.888,1078.1901 Q2152.4414,1077.7018 2153.7109,1077.7018 L2157.2917,1077.7018 L2157.2917,1063.8346 L2153.7109,1063.8346 Q2152.4414,1063.8346 2151.888,1063.3464 Q2151.3346,1062.8581 2151.3346,1062.0443 Q2151.3346,1061.263 2151.888,1060.7747 Q2152.4414,1060.2865 2153.7109,1060.2865 L2164.4206,1060.2865 Q2165.6901,1060.2865 2166.2435,1060.7747 Q2166.7969,1061.263 2166.7969,1062.0443 Q2166.7969,1062.8581 2166.2435,1063.3464 Q2165.6901,1063.8346 2164.4206,1063.8346 L2160.8398,1063.8346 Z "/><ellipse cx="2211.9792" cy="1069.7917" fill="#84BE84" rx="6.25" ry="6.25" style="stroke: #038048; stroke-width: 2.0833333333333335;"/><text fill="#000000" font-family="sans-serif" font-size="25" font-style="italic" lengthAdjust="spacingAndGlyphs" textLength="191.6667" x="2224.4792" y="1081.0628">ReaderObserver</text><line style="stroke: #A80036; stroke-width: 3.125;" x1="1907.2917" x2="2642.7083" y1="1104.1667" y2="1104.1667"/><line style="stroke: #A80036; stroke-width: 3.125;" x1="1907.2917" x2="2642.7083" y1="1120.8333" y2="1120.8333"/><ellipse cx="1928.125" cy="1146.7041" fill="#84BE84" rx="6.25" ry="6.25" style="stroke: #038048; stroke-width: 2.0833333333333335;"/><text fill="#000000" font-family="sans-serif" font-size="22.9167" lengthAdjust="spacingAndGlyphs" textLength="685.4167" x="1946.875" y="1152.9561">update(AbstractObservableReader observable, ReaderEvent event)</text><ellipse cx="2275" cy="1452.0833" fill="#000000" rx="4.1667" ry="4.1667" style="stroke: none; stroke-width: 2.0833333333333335;"/><!--class AbstractPluginEvent--><rect fill="#FEFECE" filter="url(#f0chtd5)" height="100" style="stroke: #A80036; stroke-width: 3.125;" width="320.8333" x="558.3333" y="1402.0833"/><ellipse cx="589.5833" cy="1435.4167" fill="#A9DCDF" rx="22.9167" ry="22.9167" style="stroke: #A80036; stroke-width: 2.0833333333333335;"/><path d="M594.1406,1439.0951 L585.5143,1439.0951 L584.6354,1441.2435 L585.5143,1441.2435 Q586.7839,1441.2435 587.3372,1441.7318 Q587.8906,1442.2201 587.8906,1443.0339 Q587.8906,1443.8151 587.3372,1444.3034 Q586.7839,1444.7917 585.5143,1444.7917 L580.7292,1444.7917 Q579.4596,1444.7917 578.9225,1444.3034 Q578.3854,1443.8151 578.3854,1443.0013 Q578.3854,1442.2201 578.9551,1441.7155 Q579.5247,1441.2109 580.8268,1441.2435 L586.3932,1427.3763 L584.082,1427.3763 Q582.8125,1427.3763 582.2591,1426.888 Q581.7057,1426.3997 581.7057,1425.5859 Q581.7057,1424.8047 582.2591,1424.3164 Q582.8125,1423.8281 584.082,1423.8281 L591.7318,1423.8281 L598.7956,1441.2435 Q600.0326,1441.2435 600.4232,1441.5365 Q601.237,1442.0898 601.237,1443.0339 Q601.237,1443.8151 600.6999,1444.3034 Q600.1628,1444.7917 598.8932,1444.7917 L594.1081,1444.7917 Q592.8385,1444.7917 592.2852,1444.3034 Q591.7318,1443.8151 591.7318,1443.0013 Q591.7318,1442.2201 592.2852,1441.7318 Q592.8385,1441.2435 594.1081,1441.2435 L594.987,1441.2435 L594.1406,1439.0951 Z M592.6432,1435.5469 L589.8112,1428.5156 L586.9466,1435.5469 L592.6432,1435.5469 Z "/><ellipse cx="629.1667" cy="1434.375" fill="#84BE84" rx="6.25" ry="6.25" style="stroke: #038048; stroke-width: 2.0833333333333335;"/><text fill="#000000" font-family="sans-serif" font-size="25" font-style="italic" lengthAdjust="spacingAndGlyphs" textLength="231.25" x="641.6667" y="1445.6462">AbstractPluginEvent</text><line style="stroke: #A80036; stroke-width: 3.125;" x1="560.4167" x2="877.0833" y1="1468.75" y2="1468.75"/><line style="stroke: #A80036; stroke-width: 3.125;" x1="560.4167" x2="877.0833" y1="1485.4167" y2="1485.4167"/><!--class ErrorPluginEvent--><rect fill="#FEFECE" filter="url(#f0chtd5)" height="186.4746" style="stroke: #A80036; stroke-width: 3.125;" width="437.5" x="450" y="1008.3333"/><ellipse cx="552.6042" cy="1041.6667" fill="#ADD1B2" rx="22.9167" ry="22.9167" style="stroke: #A80036; stroke-width: 2.0833333333333335;"/><path d="M558.3659,1033.0729 Q558.6914,1032.6172 559.082,1032.3893 Q559.4727,1032.1615 559.9284,1032.1615 Q560.7096,1032.1615 561.1979,1032.6986 Q561.6862,1033.2357 561.6862,1034.5052 L561.6862,1037.5326 Q561.6862,1038.8021 561.1979,1039.3555 Q560.7096,1039.9089 559.9284,1039.9089 Q559.2122,1039.9089 558.7891,1039.4857 Q558.3659,1039.0951 558.138,1038.0208 Q558.0404,1037.2721 557.6497,1036.8815 Q556.9661,1036.1003 555.6966,1035.6445 Q554.4271,1035.1888 553.125,1035.1888 Q551.5299,1035.1888 550.2116,1035.8724 Q548.8932,1036.556 547.8678,1038.1185 Q546.8424,1039.681 546.8424,1041.8294 L546.8424,1044.1081 Q546.8424,1046.6797 548.6979,1048.3887 Q550.5534,1050.0977 553.8737,1050.0977 Q555.8268,1050.0977 557.194,1049.5768 Q558.0078,1049.2513 558.8867,1048.3398 Q559.4401,1047.7865 559.7493,1047.6237 Q560.0586,1047.4609 560.4818,1047.4609 Q561.1654,1047.4609 561.7025,1047.998 Q562.2396,1048.5352 562.2396,1049.2513 Q562.2396,1049.9674 561.5234,1050.8138 Q560.4818,1052.0182 558.8216,1052.7018 Q556.5755,1053.6458 553.8737,1053.6458 Q550.7161,1053.6458 548.2096,1052.3438 Q546.1589,1051.3021 544.7266,1049.0723 Q543.2943,1046.8424 543.2943,1044.1732 L543.2943,1041.7643 Q543.2943,1038.9974 544.5801,1036.6048 Q545.8659,1034.2122 548.1445,1032.9264 Q550.4232,1031.6406 552.9948,1031.6406 Q554.5247,1031.6406 555.8757,1031.9824 Q557.2266,1032.3242 558.3659,1033.0729 Z "/><ellipse cx="605.7292" cy="1040.625" fill="#84BE84" rx="6.25" ry="6.25" style="stroke: #038048; stroke-width: 2.0833333333333335;"/><text fill="#000000" font-family="sans-serif" font-size="25" lengthAdjust="spacingAndGlyphs" textLength="191.6667" x="618.2292" y="1051.8962">ErrorPluginEvent</text><line style="stroke: #A80036; stroke-width: 3.125;" x1="452.0833" x2="885.4167" y1="1075" y2="1075"/><rect fill="none" height="12.5" style="stroke: #C82930; stroke-width: 2.0833333333333335;" width="12.5" x="466.6667" y="1094.6208"/><text fill="#000000" font-family="sans-serif" font-size="22.9167" font-weight="bold" lengthAdjust="spacingAndGlyphs" textLength="47.9167" x="491.6667" y="1107.1228">final</text><text fill="#000000" font-family="sans-serif" font-size="22.9167" lengthAdjust="spacingAndGlyphs" textLength="202.0833" x="545.8333" y="1107.1228">Exception exception</text><line style="stroke: #A80036; stroke-width: 3.125;" x1="452.0833" x2="885.4167" y1="1120.4915" y2="1120.4915"/><ellipse cx="472.9167" cy="1146.3623" fill="#84BE84" rx="6.25" ry="6.25" style="stroke: #038048; stroke-width: 2.0833333333333335;"/><text fill="#000000" font-family="sans-serif" font-size="22.9167" lengthAdjust="spacingAndGlyphs" textLength="383.3333" x="491.6667" y="1152.6143">ErrorPluginEvent(Exception exception)</text><ellipse cx="472.9167" cy="1175.1872" fill="#84BE84" rx="6.25" ry="6.25" style="stroke: #038048; stroke-width: 2.0833333333333335;"/><text fill="#000000" font-family="sans-serif" font-size="22.9167" lengthAdjust="spacingAndGlyphs" textLength="250" x="491.6667" y="1181.4392">Exception getException()</text><!--class ReaderPresencePluginEvent--><rect fill="#FEFECE" filter="url(#f0chtd5)" height="244.1243" style="stroke: #A80036; stroke-width: 3.125;" width="718.75" x="359.375" y="1722.9167"/><ellipse cx="532.8125" cy="1756.25" fill="#ADD1B2" rx="22.9167" ry="22.9167" style="stroke: #A80036; stroke-width: 2.0833333333333335;"/><path d="M538.5742,1747.6563 Q538.8997,1747.2005 539.2904,1746.9727 Q539.681,1746.7448 540.1367,1746.7448 Q540.918,1746.7448 541.4063,1747.2819 Q541.8945,1747.819 541.8945,1749.0885 L541.8945,1752.1159 Q541.8945,1753.3854 541.4063,1753.9388 Q540.918,1754.4922 540.1367,1754.4922 Q539.4206,1754.4922 538.9974,1754.069 Q538.5742,1753.6784 538.3464,1752.6042 Q538.2487,1751.8555 537.8581,1751.4648 Q537.1745,1750.6836 535.9049,1750.2279 Q534.6354,1749.7721 533.3333,1749.7721 Q531.7383,1749.7721 530.4199,1750.4557 Q529.1016,1751.1393 528.0762,1752.7018 Q527.0508,1754.2643 527.0508,1756.4128 L527.0508,1758.6914 Q527.0508,1761.263 528.9063,1762.972 Q530.7617,1764.681 534.082,1764.681 Q536.0352,1764.681 537.4023,1764.1602 Q538.2161,1763.8346 539.0951,1762.9232 Q539.6484,1762.3698 539.9577,1762.207 Q540.2669,1762.0443 540.6901,1762.0443 Q541.3737,1762.0443 541.9108,1762.5814 Q542.4479,1763.1185 542.4479,1763.8346 Q542.4479,1764.5508 541.7318,1765.3971 Q540.6901,1766.6016 539.0299,1767.2852 Q536.7839,1768.2292 534.082,1768.2292 Q530.9245,1768.2292 528.418,1766.9271 Q526.3672,1765.8854 524.9349,1763.6556 Q523.5026,1761.4258 523.5026,1758.7565 L523.5026,1756.3477 Q523.5026,1753.5807 524.7884,1751.1882 Q526.0742,1748.7956 528.3529,1747.5098 Q530.6315,1746.224 533.2031,1746.224 Q534.7331,1746.224 536.084,1746.5658 Q537.4349,1746.9076 538.5742,1747.6563 Z "/><ellipse cx="585.9375" cy="1755.2083" fill="#84BE84" rx="6.25" ry="6.25" style="stroke: #038048; stroke-width: 2.0833333333333335;"/><text fill="#000000" font-family="sans-serif" font-size="25" lengthAdjust="spacingAndGlyphs" textLength="331.25" x="598.4375" y="1766.4795">ReaderPresencePluginEvent</text><line style="stroke: #A80036; stroke-width: 3.125;" x1="361.4583" x2="1076.0417" y1="1789.5833" y2="1789.5833"/><rect fill="none" height="12.5" style="stroke: #C82930; stroke-width: 2.0833333333333335;" width="12.5" x="376.0417" y="1809.2041"/><text fill="#000000" font-family="sans-serif" font-size="22.9167" font-weight="bold" lengthAdjust="spacingAndGlyphs" textLength="47.9167" x="401.0417" y="1821.7061">final</text><text fill="#000000" font-family="sans-serif" font-size="22.9167" lengthAdjust="spacingAndGlyphs" textLength="147.9167" x="455.2083" y="1821.7061">boolean added</text><rect fill="none" height="12.5" style="stroke: #C82930; stroke-width: 2.0833333333333335;" width="12.5" x="376.0417" y="1838.029"/><text fill="#000000" font-family="sans-serif" font-size="22.9167" font-weight="bold" lengthAdjust="spacingAndGlyphs" textLength="47.9167" x="401.0417" y="1850.531">final</text><text fill="#000000" font-family="sans-serif" font-size="22.9167" lengthAdjust="spacingAndGlyphs" textLength="204.1667" x="455.2083" y="1850.531">ProxyReader reader</text><line style="stroke: #A80036; stroke-width: 3.125;" x1="361.4583" x2="1076.0417" y1="1863.8997" y2="1863.8997"/><ellipse cx="382.2917" cy="1889.7705" fill="#84BE84" rx="6.25" ry="6.25" style="stroke: #038048; stroke-width: 2.0833333333333335;"/><text fill="#000000" font-family="sans-serif" font-size="22.9167" lengthAdjust="spacingAndGlyphs" textLength="664.5833" x="401.0417" y="1896.0225">ReaderPresencePluginEvent(boolean added, ProxyReader reader)</text><ellipse cx="382.2917" cy="1918.5954" fill="#84BE84" rx="6.25" ry="6.25" style="stroke: #038048; stroke-width: 2.0833333333333335;"/><text fill="#000000" font-family="sans-serif" font-size="22.9167" lengthAdjust="spacingAndGlyphs" textLength="185.4167" x="401.0417" y="1924.8474">boolean isAdded()</text><ellipse cx="382.2917" cy="1947.4202" fill="#84BE84" rx="6.25" ry="6.25" style="stroke: #038048; stroke-width: 2.0833333333333335;"/><text fill="#000000" font-family="sans-serif" font-size="22.9167" lengthAdjust="spacingAndGlyphs" textLength="258.3333" x="401.0417" y="1953.6723">ProxyReader getReader()</text><!--class AbstractObservablePlugin--><rect fill="#FEFECE" filter="url(#f0chtd5)" height="272.9492" style="stroke: #A80036; stroke-width: 3.125;" width="670.8333" x="1152.0833" y="1708.3333"/><ellipse cx="1327.6042" cy="1741.6667" fill="#A9DCDF" rx="22.9167" ry="22.9167" style="stroke: #A80036; stroke-width: 2.0833333333333335;"/><path d="M1332.1615,1745.3451 L1323.5352,1745.3451 L1322.6563,1747.4935 L1323.5352,1747.4935 Q1324.8047,1747.4935 1325.3581,1747.9818 Q1325.9115,1748.4701 1325.9115,1749.2839 Q1325.9115,1750.0651 1325.3581,1750.5534 Q1324.8047,1751.0417 1323.5352,1751.0417 L1318.75,1751.0417 Q1317.4805,1751.0417 1316.9434,1750.5534 Q1316.4063,1750.0651 1316.4063,1749.2513 Q1316.4063,1748.4701 1316.9759,1747.9655 Q1317.5456,1747.4609 1318.8477,1747.4935 L1324.4141,1733.6263 L1322.1029,1733.6263 Q1320.8333,1733.6263 1320.2799,1733.138 Q1319.7266,1732.6497 1319.7266,1731.8359 Q1319.7266,1731.0547 1320.2799,1730.5664 Q1320.8333,1730.0781 1322.1029,1730.0781 L1329.7526,1730.0781 L1336.8164,1747.4935 Q1338.0534,1747.4935 1338.444,1747.7865 Q1339.2578,1748.3398 1339.2578,1749.2839 Q1339.2578,1750.0651 1338.7207,1750.5534 Q1338.1836,1751.0417 1336.9141,1751.0417 L1332.1289,1751.0417 Q1330.8594,1751.0417 1330.306,1750.5534 Q1329.7526,1750.0651 1329.7526,1749.2513 Q1329.7526,1748.4701 1330.306,1747.9818 Q1330.8594,1747.4935 1332.1289,1747.4935 L1333.0078,1747.4935 L1332.1615,1745.3451 Z M1330.6641,1741.7969 L1327.832,1734.7656 L1324.9674,1741.7969 L1330.6641,1741.7969 Z "/><text fill="#000000" font-family="sans-serif" font-size="25" font-style="italic" lengthAdjust="spacingAndGlyphs" textLength="302.0833" x="1370.3125" y="1751.8962">AbstractObservablePlugin</text><line style="stroke: #A80036; stroke-width: 3.125;" x1="1154.1667" x2="1820.8333" y1="1775" y2="1775"/><polygon fill="none" points="1175,1790.4541,1183.3333,1798.7874,1175,1807.1208,1166.6667,1798.7874" style="stroke: #B38D22; stroke-width: 2.0833333333333335;"/><text fill="#000000" font-family="sans-serif" font-size="22.9167" lengthAdjust="spacingAndGlyphs" textLength="487.5" x="1193.75" y="1807.1228">SortedSet&lt;AbstractObservableReader&gt; readers</text><line style="stroke: #A80036; stroke-width: 3.125;" x1="1154.1667" x2="1820.8333" y1="1820.4915" y2="1820.4915"/><polygon fill="#FFFF44" points="1175,1835.9456,1183.3333,1844.279,1175,1852.6123,1166.6667,1844.279" style="stroke: #B38D22; stroke-width: 2.0833333333333335;"/><text fill="#000000" font-family="sans-serif" font-size="22.9167" lengthAdjust="spacingAndGlyphs" textLength="333.3333" x="1193.75" y="1852.6143">AbstractObservablePlugin(name)</text><ellipse cx="1175" cy="1875.1872" fill="#84BE84" rx="6.25" ry="6.25" style="stroke: #038048; stroke-width: 2.0833333333333335;"/><text fill="#000000" font-family="sans-serif" font-size="22.9167" font-weight="bold" lengthAdjust="spacingAndGlyphs" textLength="47.9167" x="1193.75" y="1881.4392">final</text><text fill="#000000" font-family="sans-serif" font-size="22.9167" lengthAdjust="spacingAndGlyphs" textLength="541.6667" x="1247.9167" y="1881.4392">SortedSet&lt;AbstractObservableReader&gt; getReaders()</text><polygon fill="#FFFF44" points="1175,1893.5954,1183.3333,1901.9287,1175,1910.262,1166.6667,1901.9287" style="stroke: #B38D22; stroke-width: 2.0833333333333335;"/><text fill="#000000" font-family="sans-serif" font-size="22.9167" font-style="italic" lengthAdjust="spacingAndGlyphs" textLength="616.6667" x="1193.75" y="1910.2641">SortedSet&lt;AbstractObservableReader&gt; getNativeReaders()</text><polygon fill="#FFFF44" points="1175,1922.4202,1183.3333,1930.7536,1175,1939.0869,1166.6667,1930.7536" style="stroke: #B38D22; stroke-width: 2.0833333333333335;"/><text fill="#000000" font-family="sans-serif" font-size="22.9167" font-style="italic" lengthAdjust="spacingAndGlyphs" textLength="602.0833" x="1193.75" y="1939.0889">AbstractObservableReader getNativeReader(String name)</text><ellipse cx="1175" cy="1961.6618" fill="#84BE84" rx="6.25" ry="6.25" style="stroke: #038048; stroke-width: 2.0833333333333335;"/><text fill="#000000" font-family="sans-serif" font-size="22.9167" font-weight="bold" lengthAdjust="spacingAndGlyphs" textLength="47.9167" x="1193.75" y="1967.9138">final</text><text fill="#000000" font-family="sans-serif" font-size="22.9167" lengthAdjust="spacingAndGlyphs" textLength="320.8333" x="1247.9167" y="1967.9138">int compareTo(ReadersPlugin o)</text><!--class PluginObserver--><rect fill="#FEFECE" filter="url(#f0chtd5)" height="128.8249" style="stroke: #A80036; stroke-width: 3.125;" width="797.9167" x="961.4583" y="1037.5"/><ellipse cx="1250.5208" cy="1070.8333" fill="#B4A7E5" rx="22.9167" ry="22.9167" style="stroke: #A80036; stroke-width: 2.0833333333333335;"/><path d="M1252.5065,1063.8346 L1252.5065,1077.7018 L1256.0872,1077.7018 Q1257.3568,1077.7018 1257.9102,1078.1901 Q1258.4635,1078.6784 1258.4635,1079.4922 Q1258.4635,1080.2734 1257.9102,1080.7617 Q1257.3568,1081.25 1256.0872,1081.25 L1245.3776,1081.25 Q1244.1081,1081.25 1243.5547,1080.7617 Q1243.0013,1080.2734 1243.0013,1079.4596 Q1243.0013,1078.6784 1243.5547,1078.1901 Q1244.1081,1077.7018 1245.3776,1077.7018 L1248.9583,1077.7018 L1248.9583,1063.8346 L1245.3776,1063.8346 Q1244.1081,1063.8346 1243.5547,1063.3464 Q1243.0013,1062.8581 1243.0013,1062.0443 Q1243.0013,1061.263 1243.5547,1060.7747 Q1244.1081,1060.2865 1245.3776,1060.2865 L1256.0872,1060.2865 Q1257.3568,1060.2865 1257.9102,1060.7747 Q1258.4635,1061.263 1258.4635,1062.0443 Q1258.4635,1062.8581 1257.9102,1063.3464 Q1257.3568,1063.8346 1256.0872,1063.8346 L1252.5065,1063.8346 Z "/><ellipse cx="1303.6458" cy="1069.7917" fill="#84BE84" rx="6.25" ry="6.25" style="stroke: #038048; stroke-width: 2.0833333333333335;"/><text fill="#000000" font-family="sans-serif" font-size="25" font-style="italic" lengthAdjust="spacingAndGlyphs" textLength="179.1667" x="1316.1458" y="1081.0628">PluginObserver</text><line style="stroke: #A80036; stroke-width: 3.125;" x1="963.5417" x2="1757.2917" y1="1104.1667" y2="1104.1667"/><line style="stroke: #A80036; stroke-width: 3.125;" x1="963.5417" x2="1757.2917" y1="1120.8333" y2="1120.8333"/><ellipse cx="984.375" cy="1146.7041" fill="#84BE84" rx="6.25" ry="6.25" style="stroke: #038048; stroke-width: 2.0833333333333335;"/><text fill="#000000" font-family="sans-serif" font-size="22.9167" lengthAdjust="spacingAndGlyphs" textLength="743.75" x="1003.125" y="1152.9561">update(AbstractObservablePlugin observable, AbstractPluginEvent event)</text><ellipse cx="1360.4167" cy="1452.0833" fill="#000000" rx="4.1667" ry="4.1667" style="stroke: none; stroke-width: 2.0833333333333335;"/><polygon fill="#FBFB77" filter="url(#f0chtd5)" points="1490.625,1373.9583,1490.625,1531.0547,2146.875,1531.0547,2146.875,1394.7917,2126.0417,1373.9583,1490.625,1373.9583" style="stroke: #A80036; stroke-width: 2.0833333333333335;"/><line style="stroke: #A80036; stroke-width: 2.0833333333333335;" x1="2126.0417" x2="2126.0417" y1="1373.9583" y2="1394.7917"/><line style="stroke: #A80036; stroke-width: 2.0833333333333335;" x1="2146.875" x2="2126.0417" y1="1394.7917" y2="1394.7917"/><text fill="#000000" font-family="sans-serif" font-size="27.0833" lengthAdjust="spacingAndGlyphs" textLength="593.75" x="1503.125" y="1412.4898">- AbstractObservablePlugin could be extended by</text><text fill="#000000" font-family="sans-serif" font-size="27.0833" lengthAdjust="spacingAndGlyphs" textLength="495.8333" x="1503.125" y="1446.5556">plugins managing hot-plug of SE readers.</text><text fill="#000000" font-family="sans-serif" font-size="27.0833" lengthAdjust="spacingAndGlyphs" textLength="612.5" x="1503.125" y="1480.6213">- AbstractObservableReader could  be extended by</text><text fill="#000000" font-family="sans-serif" font-size="27.0833" lengthAdjust="spacingAndGlyphs" textLength="502.0833" x="1503.125" y="1514.6871">plugins supporting SE insertion detection.</text><!--class SpecificTerminal--><rect fill="#FEFECE" filter="url(#f0chtd5)" height="100" style="stroke: #A80036; stroke-width: 3.125;" width="258.3333" x="747.9167" y="139.5833"/><ellipse cx="779.1667" cy="172.9167" fill="#ADD1B2" rx="22.9167" ry="22.9167" style="stroke: #A80036; stroke-width: 2.0833333333333335;"/><path d="M784.9284,164.3229 Q785.2539,163.8672 785.6445,163.6393 Q786.0352,163.4115 786.4909,163.4115 Q787.2721,163.4115 787.7604,163.9486 Q788.2487,164.4857 788.2487,165.7552 L788.2487,168.7826 Q788.2487,170.0521 787.7604,170.6055 Q787.2721,171.1589 786.4909,171.1589 Q785.7747,171.1589 785.3516,170.7357 Q784.9284,170.3451 784.7005,169.2708 Q784.6029,168.5221 784.2122,168.1315 Q783.5286,167.3503 782.2591,166.8945 Q780.9896,166.4388 779.6875,166.4388 Q778.0924,166.4388 776.7741,167.1224 Q775.4557,167.806 774.4303,169.3685 Q773.4049,170.931 773.4049,173.0794 L773.4049,175.3581 Q773.4049,177.9297 775.2604,179.6387 Q777.1159,181.3477 780.4362,181.3477 Q782.3893,181.3477 783.7565,180.8268 Q784.5703,180.5013 785.4492,179.5898 Q786.0026,179.0365 786.3118,178.8737 Q786.6211,178.7109 787.0443,178.7109 Q787.7279,178.7109 788.265,179.248 Q788.8021,179.7852 788.8021,180.5013 Q788.8021,181.2174 788.0859,182.0638 Q787.0443,183.2682 785.3841,183.9518 Q783.138,184.8958 780.4362,184.8958 Q777.2786,184.8958 774.7721,183.5938 Q772.7214,182.5521 771.2891,180.3223 Q769.8568,178.0924 769.8568,175.4232 L769.8568,173.0143 Q769.8568,170.2474 771.1426,167.8548 Q772.4284,165.4622 774.707,164.1764 Q776.9857,162.8906 779.5573,162.8906 Q781.0872,162.8906 782.4382,163.2324 Q783.7891,163.5742 784.9284,164.3229 Z "/><text fill="#000000" font-family="sans-serif" font-size="25" lengthAdjust="spacingAndGlyphs" textLength="191.6667" x="808.3333" y="183.1462">SpecificTerminal</text><line style="stroke: #A80036; stroke-width: 3.125;" x1="750" x2="1004.1667" y1="206.25" y2="206.25"/><line style="stroke: #A80036; stroke-width: 3.125;" x1="750" x2="1004.1667" y1="222.9167" y2="222.9167"/><!--class SpecificPluginObserver--><rect fill="#FEFECE" filter="url(#f0chtd5)" height="128.8249" style="stroke: #A80036; stroke-width: 3.125;" width="743.75" x="1080.2083" y="125"/><ellipse cx="1309.8958" cy="158.3333" fill="#ADD1B2" rx="22.9167" ry="22.9167" style="stroke: #A80036; stroke-width: 2.0833333333333335;"/><path d="M1315.6576,149.7396 Q1315.9831,149.2839 1316.3737,149.056 Q1316.7643,148.8281 1317.2201,148.8281 Q1318.0013,148.8281 1318.4896,149.3652 Q1318.9779,149.9023 1318.9779,151.1719 L1318.9779,154.1992 Q1318.9779,155.4688 1318.4896,156.0221 Q1318.0013,156.5755 1317.2201,156.5755 Q1316.5039,156.5755 1316.0807,156.1523 Q1315.6576,155.7617 1315.4297,154.6875 Q1315.332,153.9388 1314.9414,153.5482 Q1314.2578,152.7669 1312.9883,152.3112 Q1311.7188,151.8555 1310.4167,151.8555 Q1308.8216,151.8555 1307.5033,152.5391 Q1306.1849,153.2227 1305.1595,154.7852 Q1304.1341,156.3477 1304.1341,158.4961 L1304.1341,160.7747 Q1304.1341,163.3464 1305.9896,165.0553 Q1307.8451,166.7643 1311.1654,166.7643 Q1313.1185,166.7643 1314.4857,166.2435 Q1315.2995,165.918 1316.1784,165.0065 Q1316.7318,164.4531 1317.041,164.2904 Q1317.3503,164.1276 1317.7734,164.1276 Q1318.457,164.1276 1318.9941,164.6647 Q1319.5313,165.2018 1319.5313,165.918 Q1319.5313,166.6341 1318.8151,167.4805 Q1317.7734,168.6849 1316.1133,169.3685 Q1313.8672,170.3125 1311.1654,170.3125 Q1308.0078,170.3125 1305.5013,169.0104 Q1303.4505,167.9688 1302.0182,165.7389 Q1300.5859,163.5091 1300.5859,160.8398 L1300.5859,158.431 Q1300.5859,155.6641 1301.8717,153.2715 Q1303.1576,150.8789 1305.4362,149.5931 Q1307.7148,148.3073 1310.2865,148.3073 Q1311.8164,148.3073 1313.1673,148.6491 Q1314.5182,148.9909 1315.6576,149.7396 Z "/><text fill="#000000" font-family="sans-serif" font-size="25" lengthAdjust="spacingAndGlyphs" textLength="266.6667" x="1352.6042" y="168.5628">SpecificPluginObserver</text><line style="stroke: #A80036; stroke-width: 3.125;" x1="1082.2917" x2="1821.875" y1="191.6667" y2="191.6667"/><line style="stroke: #A80036; stroke-width: 3.125;" x1="1082.2917" x2="1821.875" y1="208.3333" y2="208.3333"/><ellipse cx="1103.125" cy="234.2041" fill="#84BE84" rx="6.25" ry="6.25" style="stroke: #038048; stroke-width: 2.0833333333333335;"/><text fill="#000000" font-family="sans-serif" font-size="22.9167" lengthAdjust="spacingAndGlyphs" textLength="689.5833" x="1121.875" y="240.4561">update(AbstractObservablePlugin plugin, AbstractPluginEvent event)</text><!--class SpecificReaderObserver--><rect fill="#FEFECE" filter="url(#f0chtd5)" height="128.8249" style="stroke: #A80036; stroke-width: 3.125;" width="693.75" x="1896.875" y="125"/><ellipse cx="2095.3125" cy="158.3333" fill="#ADD1B2" rx="22.9167" ry="22.9167" style="stroke: #A80036; stroke-width: 2.0833333333333335;"/><path d="M2101.0742,149.7396 Q2101.3997,149.2839 2101.7904,149.056 Q2102.181,148.8281 2102.6367,148.8281 Q2103.418,148.8281 2103.9063,149.3652 Q2104.3945,149.9023 2104.3945,151.1719 L2104.3945,154.1992 Q2104.3945,155.4688 2103.9063,156.0221 Q2103.418,156.5755 2102.6367,156.5755 Q2101.9206,156.5755 2101.4974,156.1523 Q2101.0742,155.7617 2100.8464,154.6875 Q2100.7487,153.9388 2100.3581,153.5482 Q2099.6745,152.7669 2098.4049,152.3112 Q2097.1354,151.8555 2095.8333,151.8555 Q2094.2383,151.8555 2092.9199,152.5391 Q2091.6016,153.2227 2090.5762,154.7852 Q2089.5508,156.3477 2089.5508,158.4961 L2089.5508,160.7747 Q2089.5508,163.3464 2091.4063,165.0553 Q2093.2617,166.7643 2096.582,166.7643 Q2098.5352,166.7643 2099.9023,166.2435 Q2100.7161,165.918 2101.5951,165.0065 Q2102.1484,164.4531 2102.4577,164.2904 Q2102.7669,164.1276 2103.1901,164.1276 Q2103.8737,164.1276 2104.4108,164.6647 Q2104.9479,165.2018 2104.9479,165.918 Q2104.9479,166.6341 2104.2318,167.4805 Q2103.1901,168.6849 2101.5299,169.3685 Q2099.2839,170.3125 2096.582,170.3125 Q2093.4245,170.3125 2090.918,169.0104 Q2088.8672,167.9688 2087.4349,165.7389 Q2086.0026,163.5091 2086.0026,160.8398 L2086.0026,158.431 Q2086.0026,155.6641 2087.2884,153.2715 Q2088.5742,150.8789 2090.8529,149.5931 Q2093.1315,148.3073 2095.7031,148.3073 Q2097.2331,148.3073 2098.584,148.6491 Q2099.9349,148.9909 2101.0742,149.7396 Z "/><text fill="#000000" font-family="sans-serif" font-size="25" lengthAdjust="spacingAndGlyphs" textLength="279.1667" x="2138.0208" y="168.5628">SpecificReaderObserver</text><line style="stroke: #A80036; stroke-width: 3.125;" x1="1898.9583" x2="2588.5417" y1="191.6667" y2="191.6667"/><line style="stroke: #A80036; stroke-width: 3.125;" x1="1898.9583" x2="2588.5417" y1="208.3333" y2="208.3333"/><ellipse cx="1919.7917" cy="234.2041" fill="#84BE84" rx="6.25" ry="6.25" style="stroke: #038048; stroke-width: 2.0833333333333335;"/><text fill="#000000" font-family="sans-serif" font-size="22.9167" lengthAdjust="spacingAndGlyphs" textLength="639.5833" x="1938.5417" y="240.4561">update(AbstractObservableReader reader, ReaderEvent event)</text><path d="M2275,1194.2188 C2275,1289.6792 2275,1429.2688 2275,1447.9146 " fill="none" style="stroke: #A80036; stroke-width: 2.0833333333333335;"/><polygon fill="#FFFFFF" points="2275,1166.7938,2266.6667,1179.2938,2275,1191.7938,2283.3333,1179.2938,2275,1166.7938" style="stroke: #A80036; stroke-width: 2.0833333333333335;"/><polygon fill="#000000" points="2320.8333,1281.25,2327.0833,1268.75,2333.3333,1281.25,2320.8333,1281.25" style="stroke: #000000; stroke-width: 2.0833333333333335;"/><text fill="#000000" font-family="sans-serif" font-size="27.0833" lengthAdjust="spacingAndGlyphs" textLength="106.25" x="2277.0833" y="1315.6148">observes</text><text fill="#000000" font-family="sans-serif" font-size="27.0833" lengthAdjust="spacingAndGlyphs" textLength="14.5833" x="2258.9811" y="1211.0354">1</text><path d="M2275.0208,1456.6479 C2275.25,1477.8458 2276.8958,1630.3229 2278.0417,1737.1792 " fill="none" style="stroke: #A80036; stroke-width: 2.0833333333333335;"/><text fill="#000000" font-family="sans-serif" font-size="27.0833" lengthAdjust="spacingAndGlyphs" textLength="10.4167" x="2266.774" y="1715.2617">*</text><path d="M2279.2083,1452.0833 C2327.7708,1452.0833 2376.3333,1452.0833 2424.9167,1452.0833 " fill="none" style="stroke: #A80036; stroke-width: 2.0833333333333335; stroke-dasharray: 7.0,7.0;"/><path d="M682.0188,1195.9354 C689.3646,1246.7521 698.4604,1309.6604 705.7625,1360.1646 " fill="none" style="stroke: #A80036; stroke-width: 2.0833333333333335;"/><polygon fill="none" points="720.2167,1358.2208,711.7438,1401.5458,691.35,1362.3958,720.2167,1358.2208" style="stroke: #A80036; stroke-width: 2.0833333333333335;"/><text fill="#000000" font-family="sans-serif" font-size="27.0833" lengthAdjust="spacingAndGlyphs" textLength="95.8333" x="697.9167" y="1288.5315">extends</text><path d="M718.75,1544.7667 C718.75,1597.725 718.75,1665.2188 718.75,1722.5708 " fill="none" style="stroke: #A80036; stroke-width: 2.0833333333333335;"/><polygon fill="none" points="704.1667,1544.2563,718.75,1502.5896,733.3333,1544.2563,704.1667,1544.2563" style="stroke: #A80036; stroke-width: 2.0833333333333335;"/><text fill="#000000" font-family="sans-serif" font-size="27.0833" lengthAdjust="spacingAndGlyphs" textLength="95.8333" x="720.8333" y="1638.5315">extends</text><path d="M1360.4167,1194.2188 C1360.4167,1289.6792 1360.4167,1429.2688 1360.4167,1447.9146 " fill="none" style="stroke: #A80036; stroke-width: 2.0833333333333335;"/><polygon fill="#FFFFFF" points="1360.4167,1166.7938,1352.0833,1179.2938,1360.4167,1191.7938,1368.75,1179.2938,1360.4167,1166.7938" style="stroke: #A80036; stroke-width: 2.0833333333333335;"/><polygon fill="#000000" points="1406.25,1281.25,1412.5,1268.75,1418.75,1281.25,1406.25,1281.25" style="stroke: #000000; stroke-width: 2.0833333333333335;"/><text fill="#000000" font-family="sans-serif" font-size="27.0833" lengthAdjust="spacingAndGlyphs" textLength="106.25" x="1362.5" y="1315.6148">observes</text><text fill="#000000" font-family="sans-serif" font-size="27.0833" lengthAdjust="spacingAndGlyphs" textLength="14.5833" x="1344.3978" y="1211.0354">1</text><path d="M1361.2292,1456.6479 C1367.5479,1475.9729 1409.55,1604.3875 1443.4042,1707.8896 " fill="none" style="stroke: #A80036; stroke-width: 2.0833333333333335;"/><text fill="#000000" font-family="sans-serif" font-size="27.0833" lengthAdjust="spacingAndGlyphs" textLength="10.4167" x="1427.5949" y="1685.9128">*</text><path d="M879.7938,1452.0833 C1038.4375,1452.0833 1197.0792,1452.0833 1355.7229,1452.0833 " fill="none" style="stroke: #A80036; stroke-width: 2.0833333333333335; stroke-dasharray: 7.0,7.0;"/><path d="M1753.3063,1530.9292 C1710.3167,1581.3542 1652.9042,1648.6958 1602.4396,1707.8896 " fill="none" style="stroke: #A80036; stroke-width: 2.0833333333333335; stroke-dasharray: 7.0,7.0;"/><path d="M1909.1646,1530.4667 C1979.0875,1589.475 2076.7042,1671.8521 2154.125,1737.1771 " fill="none" style="stroke: #A80036; stroke-width: 2.0833333333333335; stroke-dasharray: 7.0,7.0;"/><path d="M614.3542,685.7583 C406.8646,748.5646 152.0833,872.0875 152.0833,1100 C152.0833,1100 152.0833,1100 152.0833,1846.875 C152.0833,2287.4613 646.8021,2113.1979 1079.1667,2197.9167 C1114.4708,2204.8333 1151.4375,2212.7521 1187.9125,2220.9708 " fill="none" style="stroke: #A80036; stroke-width: 2.0833333333333335;"/><polygon fill="#A80036" points="1214.3563,2227,1197.9281,2214.7068,1204.2003,2224.6842,1194.2228,2230.9564,1214.3563,2227" style="stroke: #A80036; stroke-width: 2.0833333333333335;"/><line style="stroke: #A80036; stroke-width: 2.0833333333333335;" x1="1204.2003" x2="1187.949" y1="2224.6842" y2="2220.9792"/><polygon fill="#A80036" points="640.6938,678.0292,626.3532,673.5521,616.705,685.0676,631.0455,689.5446,640.6938,678.0292" style="stroke: #A80036; stroke-width: 2.0833333333333335;"/><text fill="#000000" font-family="sans-serif" font-size="27.0833" lengthAdjust="spacingAndGlyphs" textLength="85.4167" x="154.1667" y="1463.5315">plugins</text><text fill="#000000" font-family="sans-serif" font-size="27.0833" lengthAdjust="spacingAndGlyphs" textLength="14.5833" x="610.4996" y="675.0943">1</text><text fill="#000000" font-family="sans-serif" font-size="27.0833" lengthAdjust="spacingAndGlyphs" textLength="10.4167" x="1160.0366" y="2207.8946">*</text><path d="M1770.7938,2291.6667 C1806.5854,2291.6667 1843.4917,2291.6667 1880.3042,2291.6667 " fill="none" style="stroke: #A80036; stroke-width: 2.0833333333333335;"/><polygon fill="#A80036" points="1907.7438,2291.6667,1888.9938,2283.3333,1897.3271,2291.6667,1888.9938,2300,1907.7438,2291.6667" style="stroke: #A80036; stroke-width: 2.0833333333333335;"/><line style="stroke: #A80036; stroke-width: 2.0833333333333335;" x1="1897.3271" x2="1880.6604" y1="2291.6667" y2="2291.6665"/><polygon fill="#A80036" points="1743.2083,2291.6667,1755.7083,2300,1768.2083,2291.6667,1755.7083,2283.3333,1743.2083,2291.6667" style="stroke: #A80036; stroke-width: 2.0833333333333335;"/><text fill="#000000" font-family="sans-serif" font-size="27.0833" lengthAdjust="spacingAndGlyphs" textLength="89.5833" x="1780.7292" y="2278.1148">readers</text><text fill="#000000" font-family="sans-serif" font-size="27.0833" lengthAdjust="spacingAndGlyphs" textLength="14.5833" x="1759.7379" y="2285.5157">1</text><text fill="#000000" font-family="sans-serif" font-size="27.0833" lengthAdjust="spacingAndGlyphs" textLength="10.4167" x="1881.438" y="2285.7821">*</text><path d="M1480.5313,1981.5063 C1477.1458,2046.8958 1473.1396,2124.2813 1469.9896,2185.1333 " fill="none" style="stroke: #A80036; stroke-width: 2.0833333333333335; stroke-dasharray: 7.0,7.0;"/><polygon fill="none" points="1484.5396,2186.1854,1467.8208,2227.0417,1455.4104,2184.6771,1484.5396,2186.1854" style="stroke: #A80036; stroke-width: 2.0833333333333335;"/><text fill="#000000" font-family="sans-serif" font-size="27.0833" lengthAdjust="spacingAndGlyphs" textLength="139.5833" x="1475" y="2128.1148">implements</text><path d="M2279.1667,1952.3521 C2279.1667,2013.3208 2279.1667,2090.6229 2279.1667,2155.8313 " fill="none" style="stroke: #A80036; stroke-width: 2.0833333333333335; stroke-dasharray: 7.0,7.0;"/><polygon fill="none" points="2293.75,2155.9979,2279.1667,2197.6646,2264.5833,2155.9979,2293.75,2155.9979" style="stroke: #A80036; stroke-width: 2.0833333333333335;"/><text fill="#000000" font-family="sans-serif" font-size="27.0833" lengthAdjust="spacingAndGlyphs" textLength="139.5833" x="2281.25" y="2128.1148">implements</text><path d="M1041.7063,2291.6667 C1089.8854,2291.6667 1138.0646,2291.6667 1186.2438,2291.6667 " fill="none" style="stroke: #A80036; stroke-width: 2.0833333333333335; stroke-dasharray: 7.0,7.0;"/><path d="M855.1938,2246.6829 C941.2271,2215.1125 1063.2021,2175.6771 1174.3063,2159.0271 C1429.4813,2120.7896 1498.8146,2127.1417 1754.8604,2159.0271 C1822.4125,2167.4396 1893.7521,2181.725 1961.3188,2197.8833 " fill="none" style="stroke: #A80036; stroke-width: 2.0833333333333335; stroke-dasharray: 7.0,7.0;"/><path d="M1445.7104,254.8125 C1430.1646,408.8542 1390.1729,805.1354 1370.9896,995.2292 " fill="none" style="stroke: #A80036; stroke-width: 2.0833333333333335; stroke-dasharray: 7.0,7.0;"/><polygon fill="none" points="1385.4417,997.275,1366.7479,1037.2667,1356.4208,994.3458,1385.4417,997.275" style="stroke: #A80036; stroke-width: 2.0833333333333335;"/><text fill="#000000" font-family="sans-serif" font-size="27.0833" lengthAdjust="spacingAndGlyphs" textLength="139.5833" x="1435.4167" y="637.4898">implements</text><path d="M2245.9167,254.8125 C2251.2292,408.8542 2264.8542,805.1354 2271.3958,995.2292 " fill="none" style="stroke: #A80036; stroke-width: 2.0833333333333335; stroke-dasharray: 7.0,7.0;"/><polygon fill="none" points="2285.9792,995.1229,2272.8333,1037.2667,2256.8333,996.1271,2285.9792,995.1229" style="stroke: #A80036; stroke-width: 2.0833333333333335;"/><text fill="#000000" font-family="sans-serif" font-size="27.0833" lengthAdjust="spacingAndGlyphs" textLength="139.5833" x="2264.5833" y="637.4898">implements</text><path d="M877.0833,240.4167 C877.0833,294.9583 877.0833,386.1354 877.0833,465.9104 " fill="none" style="stroke: #A80036; stroke-width: 2.0833333333333335;"/><text fill="#000000" font-family="sans-serif" font-size="27.0833" lengthAdjust="spacingAndGlyphs" textLength="58.3333" x="879.1667" y="351.0315">uses</text><polygon fill="#000000" points="898.9583,369.4824,905.2083,381.9824,911.4583,369.4824,898.9583,369.4824" style="stroke: #000000; stroke-width: 2.0833333333333335;"/></g></svg>