<?xml version="1.0" encoding="UTF-8" standalone="no"?><svg xmlns="http://www.w3.org/2000/svg" xmlns:xlink="http://www.w3.org/1999/xlink" contentScriptType="application/ecmascript" contentStyleType="text/css" height="3522.9167px" preserveAspectRatio="none" style="width:3420px;height:3522px;" version="1.1" viewBox="0 0 3420 3522" width="3420.8333px" zoomAndPan="magnify"><defs><filter height="300%" id="f04n5mw" width="300%" x="-1" y="-1"><feGaussianBlur result="blurOut" stdDeviation="4.166666666666667"/><feColorMatrix in="blurOut" result="blurOut2" type="matrix" values="0 0 0 0 0 0 0 0 0 0 0 0 0 0 0 0 0 0 .4 0"/><feOffset dx="8.333333333333334" dy="8.333333333333334" in="blurOut2" result="blurOut3"/><feBlend in="SourceGraphic" in2="blurOut3" mode="normal"/></filter></defs><g><!--cluster external.terminalapplication--><polygon fill="#3399FF" filter="url(#f04n5mw)" points="62.5,196.875,483.3333,196.875,497.9167,246.0612,504.1667,246.0612,504.1667,438.5417,62.5,438.5417,62.5,196.875" style="stroke: #000000; stroke-width: 4.166666666666667;"/><line style="stroke: #000000; stroke-width: 4.166666666666667;" x1="62.5" x2="497.9167" y1="246.0612" y2="246.0612"/><text fill="#000000" font-family="sans-serif" font-size="29.1667" font-weight="bold" lengthAdjust="spacingAndGlyphs" textLength="408.3333" x="70.8333" y="231.3192">external.terminalapplication</text><!--cluster org.eclipse.keyple.seproxy--><polygon fill="#FFFFFF" filter="url(#f04n5mw)" points="452.0833,706.25,858.3333,706.25,872.9167,755.4362,3406.25,755.4362,3406.25,3508.3333,452.0833,3508.3333,452.0833,706.25" style="stroke: #000000; stroke-width: 4.166666666666667;"/><line style="stroke: #000000; stroke-width: 4.166666666666667;" x1="452.0833" x2="872.9167" y1="755.4362" y2="755.4362"/><text fill="#000000" font-family="sans-serif" font-size="29.1667" font-weight="bold" lengthAdjust="spacingAndGlyphs" textLength="393.75" x="460.4167" y="740.6942">org.eclipse.keyple.seproxy</text><!--cluster org.eclipse.keyple.util--><polygon fill="#FFFFFF" filter="url(#f04n5mw)" points="593.75,66.6667,929.1667,66.6667,943.75,115.8529,1350,115.8529,1350,568.75,593.75,568.75,593.75,66.6667" style="stroke: #000000; stroke-width: 4.166666666666667;"/><line style="stroke: #000000; stroke-width: 4.166666666666667;" x1="593.75" x2="943.75" y1="115.8529" y2="115.8529"/><text fill="#000000" font-family="sans-serif" font-size="29.1667" font-weight="bold" lengthAdjust="spacingAndGlyphs" textLength="322.9167" x="602.0833" y="101.1108">org.eclipse.keyple.util</text><!--class SpecificTerminal--><rect fill="#FEFECE" filter="url(#f04n5mw)" height="100" style="stroke: #A80036; stroke-width: 3.125;" width="258.3333" x="150" y="288.5417"/><ellipse cx="181.25" cy="321.875" fill="#ADD1B2" rx="22.9167" ry="22.9167" style="stroke: #A80036; stroke-width: 2.0833333333333335;"/><path d="M187.0117,313.2813 Q187.3372,312.8255 187.7279,312.5977 Q188.1185,312.3698 188.5742,312.3698 Q189.3555,312.3698 189.8438,312.9069 Q190.332,313.444 190.332,314.7135 L190.332,317.7409 Q190.332,319.0104 189.8438,319.5638 Q189.3555,320.1172 188.5742,320.1172 Q187.8581,320.1172 187.4349,319.694 Q187.0117,319.3034 186.7839,318.2292 Q186.6862,317.4805 186.2956,317.0898 Q185.612,316.3086 184.3424,315.8529 Q183.0729,315.3971 181.7708,315.3971 Q180.1758,315.3971 178.8574,316.0807 Q177.5391,316.7643 176.5137,318.3268 Q175.4883,319.8893 175.4883,322.0378 L175.4883,324.3164 Q175.4883,326.888 177.3438,328.597 Q179.1992,330.306 182.5195,330.306 Q184.4727,330.306 185.8398,329.7852 Q186.6536,329.4596 187.5326,328.5482 Q188.0859,327.9948 188.3952,327.832 Q188.7044,327.6693 189.1276,327.6693 Q189.8112,327.6693 190.3483,328.2064 Q190.8854,328.7435 190.8854,329.4596 Q190.8854,330.1758 190.1693,331.0221 Q189.1276,332.2266 187.4674,332.9102 Q185.2214,333.8542 182.5195,333.8542 Q179.362,333.8542 176.8555,332.5521 Q174.8047,331.5104 173.3724,329.2806 Q171.9401,327.0508 171.9401,324.3815 L171.9401,321.9727 Q171.9401,319.2057 173.2259,316.8132 Q174.5117,314.4206 176.7904,313.1348 Q179.069,311.849 181.6406,311.849 Q183.1706,311.849 184.5215,312.1908 Q185.8724,312.5326 187.0117,313.2813 Z "/><text fill="#000000" font-family="sans-serif" font-size="25" lengthAdjust="spacingAndGlyphs" textLength="191.6667" x="210.4167" y="332.1045">SpecificTerminal</text><line style="stroke: #A80036; stroke-width: 3.125;" x1="152.0833" x2="406.25" y1="355.2083" y2="355.2083"/><line style="stroke: #A80036; stroke-width: 3.125;" x1="152.0833" x2="406.25" y1="371.875" y2="371.875"/><!--class SeProxyService--><rect fill="#FEFECE" filter="url(#f04n5mw)" height="318.8314" style="stroke: #A80036; stroke-width: 3.125;" width="470.8333" x="518.75" y="1115.625"/><ellipse cx="657.8125" cy="1157.487" fill="#ADD1B2" rx="22.9167" ry="22.9167" style="stroke: #A80036; stroke-width: 2.0833333333333335;"/><path d="M663.5742,1148.8932 Q663.8997,1148.4375 664.2904,1148.2096 Q664.681,1147.9818 665.1367,1147.9818 Q665.918,1147.9818 666.4063,1148.5189 Q666.8945,1149.056 666.8945,1150.3255 L666.8945,1153.3529 Q666.8945,1154.6224 666.4063,1155.1758 Q665.918,1155.7292 665.1367,1155.7292 Q664.4206,1155.7292 663.9974,1155.306 Q663.5742,1154.9154 663.3464,1153.8411 Q663.2487,1153.0924 662.8581,1152.7018 Q662.1745,1151.9206 660.9049,1151.4648 Q659.6354,1151.0091 658.3333,1151.0091 Q656.7383,1151.0091 655.4199,1151.6927 Q654.1016,1152.3763 653.0762,1153.9388 Q652.0508,1155.5013 652.0508,1157.6497 L652.0508,1159.9284 Q652.0508,1162.5 653.9063,1164.209 Q655.7617,1165.918 659.082,1165.918 Q661.0352,1165.918 662.4023,1165.3971 Q663.2161,1165.0716 664.0951,1164.1602 Q664.6484,1163.6068 664.9577,1163.444 Q665.2669,1163.2813 665.6901,1163.2813 Q666.3737,1163.2813 666.9108,1163.8184 Q667.4479,1164.3555 667.4479,1165.0716 Q667.4479,1165.7878 666.7318,1166.6341 Q665.6901,1167.8385 664.0299,1168.5221 Q661.7839,1169.4661 659.082,1169.4661 Q655.9245,1169.4661 653.418,1168.1641 Q651.3672,1167.1224 649.9349,1164.8926 Q648.5026,1162.6628 648.5026,1159.9935 L648.5026,1157.5846 Q648.5026,1154.8177 649.7884,1152.4251 Q651.0742,1150.0326 653.3529,1148.7467 Q655.6315,1147.4609 658.2031,1147.4609 Q659.7331,1147.4609 661.084,1147.8027 Q662.4349,1148.1445 663.5742,1148.8932 Z "/><text fill="#000000" font-family="sans-serif" font-size="25" font-style="italic" lengthAdjust="spacingAndGlyphs" textLength="137.5" x="719.2708" y="1151.9938">«Singleton»</text><text fill="#000000" font-family="sans-serif" font-size="25" lengthAdjust="spacingAndGlyphs" textLength="175" x="700.5208" y="1183.4391">SeProxyService</text><line style="stroke: #A80036; stroke-width: 3.125;" x1="520.8333" x2="987.5" y1="1199.349" y2="1199.349"/><rect fill="none" height="12.5" style="stroke: #C82930; stroke-width: 2.0833333333333335;" width="12.5" x="535.4167" y="1218.9697"/><text fill="#000000" font-family="sans-serif" font-size="22.9167" lengthAdjust="spacingAndGlyphs" textLength="104.1667" x="560.4167" y="1231.4718">int version</text><line style="stroke: #A80036; stroke-width: 3.125;" x1="520.8333" x2="987.5" y1="1244.8405" y2="1244.8405"/><text fill="#000000" font-family="sans-serif" font-size="22.9167" lengthAdjust="spacingAndGlyphs" textLength="297.9167" x="560.4167" y="1276.9633">List&lt;ReadersPlugin&gt; plugins()</text><rect fill="#F24D5C" height="12.5" style="stroke: #C82930; stroke-width: 2.0833333333333335;" width="12.5" x="535.4167" y="1293.2861"/><text fill="#000000" font-family="sans-serif" font-size="22.9167" lengthAdjust="spacingAndGlyphs" textLength="179.1667" x="560.4167" y="1305.7882">SeProxyService()</text><ellipse cx="541.6667" cy="1328.361" fill="#84BE84" rx="6.25" ry="6.25" style="stroke: #038048; stroke-width: 2.0833333333333335;"/><text fill="#000000" font-family="sans-serif" font-size="22.9167" lengthAdjust="spacingAndGlyphs" text-decoration="underline" textLength="302.0833" x="560.4167" y="1334.613">SeProxyService getInstance()</text><line style="stroke: #000000; stroke-width: 1.0;" x1="560.4167" x2="862.5" y1="1338.7797" y2="1338.7797"/><ellipse cx="541.6667" cy="1357.1859" fill="#84BE84" rx="6.25" ry="6.25" style="stroke: #038048; stroke-width: 2.0833333333333335;"/><text fill="#000000" font-family="sans-serif" font-size="22.9167" lengthAdjust="spacingAndGlyphs" textLength="416.6667" x="560.4167" y="1363.4379">setPlugins(List&lt;ReadersPlugin&gt; plugins())</text><ellipse cx="541.6667" cy="1386.0107" fill="#84BE84" rx="6.25" ry="6.25" style="stroke: #038048; stroke-width: 2.0833333333333335;"/><text fill="#000000" font-family="sans-serif" font-size="22.9167" lengthAdjust="spacingAndGlyphs" textLength="329.1667" x="560.4167" y="1392.2628">List&lt;ReadersPlugin&gt; getPlugins()</text><ellipse cx="541.6667" cy="1414.8356" fill="#84BE84" rx="6.25" ry="6.25" style="stroke: #038048; stroke-width: 2.0833333333333335;"/><text fill="#000000" font-family="sans-serif" font-size="22.9167" lengthAdjust="spacingAndGlyphs" textLength="156.25" x="560.4167" y="1421.0876">int getVersion()</text><!--class ReadersPlugin--><rect fill="#FEFECE" filter="url(#f04n5mw)" height="128.8249" style="stroke: #A80036; stroke-width: 3.125;" width="491.6667" x="518.75" y="1660.4167"/><ellipse cx="670.3125" cy="1693.75" fill="#B4A7E5" rx="22.9167" ry="22.9167" style="stroke: #A80036; stroke-width: 2.0833333333333335;"/><path d="M672.2982,1686.7513 L672.2982,1700.6185 L675.8789,1700.6185 Q677.1484,1700.6185 677.7018,1701.1068 Q678.2552,1701.5951 678.2552,1702.4089 Q678.2552,1703.1901 677.7018,1703.6784 Q677.1484,1704.1667 675.8789,1704.1667 L665.1693,1704.1667 Q663.8997,1704.1667 663.3464,1703.6784 Q662.793,1703.1901 662.793,1702.3763 Q662.793,1701.5951 663.3464,1701.1068 Q663.8997,1700.6185 665.1693,1700.6185 L668.75,1700.6185 L668.75,1686.7513 L665.1693,1686.7513 Q663.8997,1686.7513 663.3464,1686.263 Q662.793,1685.7747 662.793,1684.9609 Q662.793,1684.1797 663.3464,1683.6914 Q663.8997,1683.2031 665.1693,1683.2031 L675.8789,1683.2031 Q677.1484,1683.2031 677.7018,1683.6914 Q678.2552,1684.1797 678.2552,1684.9609 Q678.2552,1685.7747 677.7018,1686.263 Q677.1484,1686.7513 675.8789,1686.7513 L672.2982,1686.7513 Z "/><text fill="#000000" font-family="sans-serif" font-size="25" font-style="italic" lengthAdjust="spacingAndGlyphs" textLength="170.8333" x="713.0208" y="1703.9795">ReadersPlugin</text><line style="stroke: #A80036; stroke-width: 3.125;" x1="520.8333" x2="1008.3333" y1="1727.0833" y2="1727.0833"/><line style="stroke: #A80036; stroke-width: 3.125;" x1="520.8333" x2="1008.3333" y1="1743.75" y2="1743.75"/><ellipse cx="541.6667" cy="1769.6208" fill="#84BE84" rx="6.25" ry="6.25" style="stroke: #038048; stroke-width: 2.0833333333333335;"/><text fill="#000000" font-family="sans-serif" font-size="22.9167" lengthAdjust="spacingAndGlyphs" textLength="437.5" x="560.4167" y="1775.8728">List&lt;? extends ProxyReader&gt; getReaders()</text><!--class ProxyReader--><rect fill="#FEFECE" filter="url(#f04n5mw)" height="186.4746" style="stroke: #A80036; stroke-width: 3.125;" width="687.5" x="1177.0833" y="1631.25"/><ellipse cx="1436.9792" cy="1664.5833" fill="#B4A7E5" rx="22.9167" ry="22.9167" style="stroke: #A80036; stroke-width: 2.0833333333333335;"/><path d="M1438.9648,1657.5846 L1438.9648,1671.4518 L1442.5456,1671.4518 Q1443.8151,1671.4518 1444.3685,1671.9401 Q1444.9219,1672.4284 1444.9219,1673.2422 Q1444.9219,1674.0234 1444.3685,1674.5117 Q1443.8151,1675 1442.5456,1675 L1431.8359,1675 Q1430.5664,1675 1430.013,1674.5117 Q1429.4596,1674.0234 1429.4596,1673.2096 Q1429.4596,1672.4284 1430.013,1671.9401 Q1430.5664,1671.4518 1431.8359,1671.4518 L1435.4167,1671.4518 L1435.4167,1657.5846 L1431.8359,1657.5846 Q1430.5664,1657.5846 1430.013,1657.0964 Q1429.4596,1656.6081 1429.4596,1655.7943 Q1429.4596,1655.013 1430.013,1654.5247 Q1430.5664,1654.0365 1431.8359,1654.0365 L1442.5456,1654.0365 Q1443.8151,1654.0365 1444.3685,1654.5247 Q1444.9219,1655.013 1444.9219,1655.7943 Q1444.9219,1656.6081 1444.3685,1657.0964 Q1443.8151,1657.5846 1442.5456,1657.5846 L1438.9648,1657.5846 Z "/><text fill="#000000" font-family="sans-serif" font-size="25" font-style="italic" lengthAdjust="spacingAndGlyphs" textLength="150" x="1479.6875" y="1674.8128">ProxyReader</text><line style="stroke: #A80036; stroke-width: 3.125;" x1="1179.1667" x2="1862.5" y1="1697.9167" y2="1697.9167"/><line style="stroke: #A80036; stroke-width: 3.125;" x1="1179.1667" x2="1862.5" y1="1714.5833" y2="1714.5833"/><ellipse cx="1200" cy="1740.4541" fill="#84BE84" rx="6.25" ry="6.25" style="stroke: #038048; stroke-width: 2.0833333333333335;"/><text fill="#000000" font-family="sans-serif" font-size="22.9167" lengthAdjust="spacingAndGlyphs" textLength="222.9167" x="1218.75" y="1746.7061">boolean isSePresent()</text><ellipse cx="1200" cy="1769.279" fill="#84BE84" rx="6.25" ry="6.25" style="stroke: #038048; stroke-width: 2.0833333333333335;"/><text fill="#000000" font-family="sans-serif" font-size="22.9167" lengthAdjust="spacingAndGlyphs" textLength="633.3333" x="1218.75" y="1775.531">SeResponseSet transmit(SeRequestSet seApplicationRequest)</text><ellipse cx="1200" cy="1798.1038" fill="#84BE84" rx="6.25" ry="6.25" style="stroke: #038048; stroke-width: 2.0833333333333335;"/><text fill="#000000" font-family="sans-serif" font-size="22.9167" lengthAdjust="spacingAndGlyphs" textLength="608.3333" x="1218.75" y="1804.3559">setSeProtocols(Map&lt;SeProtocol, String&gt; seProtocolSettings)</text><!--class SeRequestSet--><rect fill="#FEFECE" filter="url(#f04n5mw)" height="244.1243" style="stroke: #A80036; stroke-width: 3.125;" width="512.5" x="1135.4167" y="1153.125"/><ellipse cx="1299.4792" cy="1186.4583" fill="#ADD1B2" rx="22.9167" ry="22.9167" style="stroke: #A80036; stroke-width: 2.0833333333333335;"/><path d="M1305.2409,1177.8646 Q1305.5664,1177.4089 1305.957,1177.181 Q1306.3477,1176.9531 1306.8034,1176.9531 Q1307.5846,1176.9531 1308.0729,1177.4902 Q1308.5612,1178.0273 1308.5612,1179.2969 L1308.5612,1182.3242 Q1308.5612,1183.5938 1308.0729,1184.1471 Q1307.5846,1184.7005 1306.8034,1184.7005 Q1306.0872,1184.7005 1305.6641,1184.2773 Q1305.2409,1183.8867 1305.013,1182.8125 Q1304.9154,1182.0638 1304.5247,1181.6732 Q1303.8411,1180.8919 1302.5716,1180.4362 Q1301.3021,1179.9805 1300,1179.9805 Q1298.4049,1179.9805 1297.0866,1180.6641 Q1295.7682,1181.3477 1294.7428,1182.9102 Q1293.7174,1184.4727 1293.7174,1186.6211 L1293.7174,1188.8997 Q1293.7174,1191.4714 1295.5729,1193.1803 Q1297.4284,1194.8893 1300.7487,1194.8893 Q1302.7018,1194.8893 1304.069,1194.3685 Q1304.8828,1194.043 1305.7617,1193.1315 Q1306.3151,1192.5781 1306.6243,1192.4154 Q1306.9336,1192.2526 1307.3568,1192.2526 Q1308.0404,1192.2526 1308.5775,1192.7897 Q1309.1146,1193.3268 1309.1146,1194.043 Q1309.1146,1194.7591 1308.3984,1195.6055 Q1307.3568,1196.8099 1305.6966,1197.4935 Q1303.4505,1198.4375 1300.7487,1198.4375 Q1297.5911,1198.4375 1295.0846,1197.1354 Q1293.0339,1196.0938 1291.6016,1193.8639 Q1290.1693,1191.6341 1290.1693,1188.9648 L1290.1693,1186.556 Q1290.1693,1183.7891 1291.4551,1181.3965 Q1292.7409,1179.0039 1295.0195,1177.7181 Q1297.2982,1176.4323 1299.8698,1176.4323 Q1301.3997,1176.4323 1302.7507,1176.7741 Q1304.1016,1177.1159 1305.2409,1177.8646 Z "/><text fill="#000000" font-family="sans-serif" font-size="25" lengthAdjust="spacingAndGlyphs" textLength="166.6667" x="1342.1875" y="1196.6878">SeRequestSet</text><line style="stroke: #A80036; stroke-width: 3.125;" x1="1137.5" x2="1645.8333" y1="1219.7917" y2="1219.7917"/><rect fill="none" height="12.5" style="stroke: #C82930; stroke-width: 2.0833333333333335;" width="12.5" x="1152.0833" y="1239.4124"/><text fill="#000000" font-family="sans-serif" font-size="22.9167" lengthAdjust="spacingAndGlyphs" textLength="385.4167" x="1177.0833" y="1251.9145">final List&lt;SeRequest&gt; sortedRequests</text><line style="stroke: #A80036; stroke-width: 3.125;" x1="1137.5" x2="1645.8333" y1="1265.2832" y2="1265.2832"/><ellipse cx="1158.3333" cy="1291.154" fill="#84BE84" rx="6.25" ry="6.25" style="stroke: #038048; stroke-width: 2.0833333333333335;"/><text fill="#000000" font-family="sans-serif" font-size="22.9167" lengthAdjust="spacingAndGlyphs" textLength="458.3333" x="1177.0833" y="1297.406">SeRequestSet(List&lt;SeRequest&gt; seRequests)</text><ellipse cx="1158.3333" cy="1319.9788" fill="#84BE84" rx="6.25" ry="6.25" style="stroke: #038048; stroke-width: 2.0833333333333335;"/><text fill="#000000" font-family="sans-serif" font-size="22.9167" lengthAdjust="spacingAndGlyphs" textLength="385.4167" x="1177.0833" y="1326.2309">SeRequestSet(SeRequest seRequest)</text><ellipse cx="1158.3333" cy="1348.8037" fill="#84BE84" rx="6.25" ry="6.25" style="stroke: #038048; stroke-width: 2.0833333333333335;"/><text fill="#000000" font-family="sans-serif" font-size="22.9167" lengthAdjust="spacingAndGlyphs" textLength="320.8333" x="1177.0833" y="1355.0557">List&lt;SeRequest&gt; getRequests()</text><ellipse cx="1158.3333" cy="1377.6286" fill="#84BE84" rx="6.25" ry="6.25" style="stroke: #038048; stroke-width: 2.0833333333333335;"/><text fill="#000000" font-family="sans-serif" font-size="22.9167" lengthAdjust="spacingAndGlyphs" textLength="308.3333" x="1177.0833" y="1383.8806">SeRequest getSingleRequest()</text><!--class SeResponseSet--><rect fill="#FEFECE" filter="url(#f04n5mw)" height="244.1243" style="stroke: #A80036; stroke-width: 3.125;" width="568.75" x="1413.5417" y="3170.8333"/><ellipse cx="1594.2708" cy="3204.1667" fill="#ADD1B2" rx="22.9167" ry="22.9167" style="stroke: #A80036; stroke-width: 2.0833333333333335;"/><path d="M1600.0326,3195.5729 Q1600.3581,3195.1172 1600.7487,3194.8893 Q1601.1393,3194.6615 1601.5951,3194.6615 Q1602.3763,3194.6615 1602.8646,3195.1986 Q1603.3529,3195.7357 1603.3529,3197.0052 L1603.3529,3200.0326 Q1603.3529,3201.3021 1602.8646,3201.8555 Q1602.3763,3202.4089 1601.5951,3202.4089 Q1600.8789,3202.4089 1600.4557,3201.9857 Q1600.0326,3201.5951 1599.8047,3200.5208 Q1599.707,3199.7721 1599.3164,3199.3815 Q1598.6328,3198.6003 1597.3633,3198.1445 Q1596.0938,3197.6888 1594.7917,3197.6888 Q1593.1966,3197.6888 1591.8783,3198.3724 Q1590.5599,3199.056 1589.5345,3200.6185 Q1588.5091,3202.181 1588.5091,3204.3294 L1588.5091,3206.6081 Q1588.5091,3209.1797 1590.3646,3210.8887 Q1592.2201,3212.5977 1595.5404,3212.5977 Q1597.4935,3212.5977 1598.8607,3212.0768 Q1599.6745,3211.7513 1600.5534,3210.8398 Q1601.1068,3210.2865 1601.416,3210.1237 Q1601.7253,3209.9609 1602.1484,3209.9609 Q1602.832,3209.9609 1603.3691,3210.498 Q1603.9063,3211.0352 1603.9063,3211.7513 Q1603.9063,3212.4674 1603.1901,3213.3138 Q1602.1484,3214.5182 1600.4883,3215.2018 Q1598.2422,3216.1458 1595.5404,3216.1458 Q1592.3828,3216.1458 1589.8763,3214.8438 Q1587.8255,3213.8021 1586.3932,3211.5723 Q1584.9609,3209.3424 1584.9609,3206.6732 L1584.9609,3204.2643 Q1584.9609,3201.4974 1586.2467,3199.1048 Q1587.5326,3196.7122 1589.8112,3195.4264 Q1592.0898,3194.1406 1594.6615,3194.1406 Q1596.1914,3194.1406 1597.5423,3194.4824 Q1598.8932,3194.8242 1600.0326,3195.5729 Z "/><text fill="#000000" font-family="sans-serif" font-size="25" lengthAdjust="spacingAndGlyphs" textLength="189.5833" x="1636.9792" y="3214.3962">SeResponseSet</text><line style="stroke: #A80036; stroke-width: 3.125;" x1="1415.625" x2="1980.2083" y1="3237.5" y2="3237.5"/><rect fill="none" height="12.5" style="stroke: #C82930; stroke-width: 2.0833333333333335;" width="12.5" x="1430.2083" y="3257.1208"/><text fill="#000000" font-family="sans-serif" font-size="22.9167" lengthAdjust="spacingAndGlyphs" textLength="383.3333" x="1455.2083" y="3269.6228">final List&lt;SeResponse&gt; seResponses</text><line style="stroke: #A80036; stroke-width: 3.125;" x1="1415.625" x2="1980.2083" y1="3282.9915" y2="3282.9915"/><ellipse cx="1436.4583" cy="3308.8623" fill="#84BE84" rx="6.25" ry="6.25" style="stroke: #038048; stroke-width: 2.0833333333333335;"/><text fill="#000000" font-family="sans-serif" font-size="22.9167" lengthAdjust="spacingAndGlyphs" textLength="514.5833" x="1455.2083" y="3315.1143">SeResponseSet(List&lt;SeResponse&gt; seResponses)</text><ellipse cx="1436.4583" cy="3337.6872" fill="#84BE84" rx="6.25" ry="6.25" style="stroke: #038048; stroke-width: 2.0833333333333335;"/><text fill="#000000" font-family="sans-serif" font-size="22.9167" lengthAdjust="spacingAndGlyphs" textLength="441.6667" x="1455.2083" y="3343.9392">SeResponseSet(SeResponse seResponse)</text><ellipse cx="1436.4583" cy="3366.512" fill="#84BE84" rx="6.25" ry="6.25" style="stroke: #038048; stroke-width: 2.0833333333333335;"/><text fill="#000000" font-family="sans-serif" font-size="22.9167" lengthAdjust="spacingAndGlyphs" textLength="358.3333" x="1455.2083" y="3372.7641">List&lt;SeResponse&gt; getResponses()</text><ellipse cx="1436.4583" cy="3395.3369" fill="#84BE84" rx="6.25" ry="6.25" style="stroke: #038048; stroke-width: 2.0833333333333335;"/><text fill="#000000" font-family="sans-serif" font-size="22.9167" lengthAdjust="spacingAndGlyphs" textLength="345.8333" x="1455.2083" y="3401.5889">SeResponse getSingleResponse()</text><!--class ApduRequest--><rect fill="#FEFECE" filter="url(#f04n5mw)" height="186.4746" style="stroke: #A80036; stroke-width: 3.125;" width="541.6667" x="2529.1667" y="1631.25"/><ellipse cx="2713.0208" cy="1664.5833" fill="#ADD1B2" rx="22.9167" ry="22.9167" style="stroke: #A80036; stroke-width: 2.0833333333333335;"/><path d="M2718.7826,1655.9896 Q2719.1081,1655.5339 2719.4987,1655.306 Q2719.8893,1655.0781 2720.3451,1655.0781 Q2721.1263,1655.0781 2721.6146,1655.6152 Q2722.1029,1656.1523 2722.1029,1657.4219 L2722.1029,1660.4492 Q2722.1029,1661.7188 2721.6146,1662.2721 Q2721.1263,1662.8255 2720.3451,1662.8255 Q2719.6289,1662.8255 2719.2057,1662.4023 Q2718.7826,1662.0117 2718.5547,1660.9375 Q2718.457,1660.1888 2718.0664,1659.7982 Q2717.3828,1659.0169 2716.1133,1658.5612 Q2714.8438,1658.1055 2713.5417,1658.1055 Q2711.9466,1658.1055 2710.6283,1658.7891 Q2709.3099,1659.4727 2708.2845,1661.0352 Q2707.2591,1662.5977 2707.2591,1664.7461 L2707.2591,1667.0247 Q2707.2591,1669.5964 2709.1146,1671.3053 Q2710.9701,1673.0143 2714.2904,1673.0143 Q2716.2435,1673.0143 2717.6107,1672.4935 Q2718.4245,1672.168 2719.3034,1671.2565 Q2719.8568,1670.7031 2720.166,1670.5404 Q2720.4753,1670.3776 2720.8984,1670.3776 Q2721.582,1670.3776 2722.1191,1670.9147 Q2722.6563,1671.4518 2722.6563,1672.168 Q2722.6563,1672.8841 2721.9401,1673.7305 Q2720.8984,1674.9349 2719.2383,1675.6185 Q2716.9922,1676.5625 2714.2904,1676.5625 Q2711.1328,1676.5625 2708.6263,1675.2604 Q2706.5755,1674.2188 2705.1432,1671.9889 Q2703.7109,1669.7591 2703.7109,1667.0898 L2703.7109,1664.681 Q2703.7109,1661.9141 2704.9967,1659.5215 Q2706.2826,1657.1289 2708.5612,1655.8431 Q2710.8398,1654.5573 2713.4115,1654.5573 Q2714.9414,1654.5573 2716.2923,1654.8991 Q2717.6432,1655.2409 2718.7826,1655.9896 Z "/><text fill="#000000" font-family="sans-serif" font-size="25" lengthAdjust="spacingAndGlyphs" textLength="156.25" x="2755.7292" y="1674.8128">ApduRequest</text><line style="stroke: #A80036; stroke-width: 3.125;" x1="2531.25" x2="3068.75" y1="1697.9167" y2="1697.9167"/><rect fill="none" height="12.5" style="stroke: #C82930; stroke-width: 2.0833333333333335;" width="12.5" x="2545.8333" y="1717.5374"/><text fill="#000000" font-family="sans-serif" font-size="22.9167" lengthAdjust="spacingAndGlyphs" textLength="147.9167" x="2570.8333" y="1730.0395">boolean case4</text><line style="stroke: #A80036; stroke-width: 3.125;" x1="2531.25" x2="3068.75" y1="1743.4082" y2="1743.4082"/><ellipse cx="2552.0833" cy="1769.279" fill="#84BE84" rx="6.25" ry="6.25" style="stroke: #038048; stroke-width: 2.0833333333333335;"/><text fill="#000000" font-family="sans-serif" font-size="22.9167" lengthAdjust="spacingAndGlyphs" textLength="487.5" x="2570.8333" y="1775.531">ApduRequest(ByteBuffer bytes, boolean case4)</text><ellipse cx="2552.0833" cy="1798.1038" fill="#84BE84" rx="6.25" ry="6.25" style="stroke: #038048; stroke-width: 2.0833333333333335;"/><text fill="#000000" font-family="sans-serif" font-size="22.9167" lengthAdjust="spacingAndGlyphs" textLength="183.3333" x="2570.8333" y="1804.3559">boolean isCase4()</text><!--class ApduResponse--><rect fill="#FEFECE" filter="url(#f04n5mw)" height="186.4746" style="stroke: #A80036; stroke-width: 3.125;" width="610.4167" x="2496.875" y="2777.0833"/><ellipse cx="2703.6458" cy="2810.4167" fill="#ADD1B2" rx="22.9167" ry="22.9167" style="stroke: #A80036; stroke-width: 2.0833333333333335;"/><path d="M2709.4076,2801.8229 Q2709.7331,2801.3672 2710.1237,2801.1393 Q2710.5143,2800.9115 2710.9701,2800.9115 Q2711.7513,2800.9115 2712.2396,2801.4486 Q2712.7279,2801.9857 2712.7279,2803.2552 L2712.7279,2806.2826 Q2712.7279,2807.5521 2712.2396,2808.1055 Q2711.7513,2808.6589 2710.9701,2808.6589 Q2710.2539,2808.6589 2709.8307,2808.2357 Q2709.4076,2807.8451 2709.1797,2806.7708 Q2709.082,2806.0221 2708.6914,2805.6315 Q2708.0078,2804.8503 2706.7383,2804.3945 Q2705.4688,2803.9388 2704.1667,2803.9388 Q2702.5716,2803.9388 2701.2533,2804.6224 Q2699.9349,2805.306 2698.9095,2806.8685 Q2697.8841,2808.431 2697.8841,2810.5794 L2697.8841,2812.8581 Q2697.8841,2815.4297 2699.7396,2817.1387 Q2701.5951,2818.8477 2704.9154,2818.8477 Q2706.8685,2818.8477 2708.2357,2818.3268 Q2709.0495,2818.0013 2709.9284,2817.0898 Q2710.4818,2816.5365 2710.791,2816.3737 Q2711.1003,2816.2109 2711.5234,2816.2109 Q2712.207,2816.2109 2712.7441,2816.748 Q2713.2813,2817.2852 2713.2813,2818.0013 Q2713.2813,2818.7174 2712.5651,2819.5638 Q2711.5234,2820.7682 2709.8633,2821.4518 Q2707.6172,2822.3958 2704.9154,2822.3958 Q2701.7578,2822.3958 2699.2513,2821.0938 Q2697.2005,2820.0521 2695.7682,2817.8223 Q2694.3359,2815.5924 2694.3359,2812.9232 L2694.3359,2810.5143 Q2694.3359,2807.7474 2695.6217,2805.3548 Q2696.9076,2802.9622 2699.1862,2801.6764 Q2701.4648,2800.3906 2704.0365,2800.3906 Q2705.5664,2800.3906 2706.9173,2800.7324 Q2708.2682,2801.0742 2709.4076,2801.8229 Z "/><text fill="#000000" font-family="sans-serif" font-size="25" lengthAdjust="spacingAndGlyphs" textLength="179.1667" x="2746.3542" y="2820.6462">ApduResponse</text><line style="stroke: #A80036; stroke-width: 3.125;" x1="2498.9583" x2="3105.2083" y1="2843.75" y2="2843.75"/><rect fill="none" height="12.5" style="stroke: #C82930; stroke-width: 2.0833333333333335;" width="12.5" x="2513.5417" y="2863.3708"/><text fill="#000000" font-family="sans-serif" font-size="22.9167" lengthAdjust="spacingAndGlyphs" textLength="197.9167" x="2538.5417" y="2875.8728">boolean successful</text><line style="stroke: #A80036; stroke-width: 3.125;" x1="2498.9583" x2="3105.2083" y1="2889.2415" y2="2889.2415"/><ellipse cx="2519.7917" cy="2915.1123" fill="#84BE84" rx="6.25" ry="6.25" style="stroke: #038048; stroke-width: 2.0833333333333335;"/><text fill="#000000" font-family="sans-serif" font-size="22.9167" lengthAdjust="spacingAndGlyphs" textLength="556.25" x="2538.5417" y="2921.3643">ApduResponse(ByteBuffer bytes, boolean successful)</text><ellipse cx="2519.7917" cy="2943.9372" fill="#84BE84" rx="6.25" ry="6.25" style="stroke: #038048; stroke-width: 2.0833333333333335;"/><text fill="#000000" font-family="sans-serif" font-size="22.9167" lengthAdjust="spacingAndGlyphs" textLength="233.3333" x="2538.5417" y="2950.1892">boolean isSuccessful()</text><!--class SeRequest--><rect fill="#FEFECE" filter="url(#f04n5mw)" height="388.2487" style="stroke: #A80036; stroke-width: 3.125;" width="1408.3333" x="1947.9167" y="1081.25"/><ellipse cx="2578.6458" cy="1114.5833" fill="#ADD1B2" rx="22.9167" ry="22.9167" style="stroke: #A80036; stroke-width: 2.0833333333333335;"/><path d="M2584.4076,1105.9896 Q2584.7331,1105.5339 2585.1237,1105.306 Q2585.5143,1105.0781 2585.9701,1105.0781 Q2586.7513,1105.0781 2587.2396,1105.6152 Q2587.7279,1106.1523 2587.7279,1107.4219 L2587.7279,1110.4492 Q2587.7279,1111.7188 2587.2396,1112.2721 Q2586.7513,1112.8255 2585.9701,1112.8255 Q2585.2539,1112.8255 2584.8307,1112.4023 Q2584.4076,1112.0117 2584.1797,1110.9375 Q2584.082,1110.1888 2583.6914,1109.7982 Q2583.0078,1109.0169 2581.7383,1108.5612 Q2580.4688,1108.1055 2579.1667,1108.1055 Q2577.5716,1108.1055 2576.2533,1108.7891 Q2574.9349,1109.4727 2573.9095,1111.0352 Q2572.8841,1112.5977 2572.8841,1114.7461 L2572.8841,1117.0247 Q2572.8841,1119.5964 2574.7396,1121.3053 Q2576.5951,1123.0143 2579.9154,1123.0143 Q2581.8685,1123.0143 2583.2357,1122.4935 Q2584.0495,1122.168 2584.9284,1121.2565 Q2585.4818,1120.7031 2585.791,1120.5404 Q2586.1003,1120.3776 2586.5234,1120.3776 Q2587.207,1120.3776 2587.7441,1120.9147 Q2588.2813,1121.4518 2588.2813,1122.168 Q2588.2813,1122.8841 2587.5651,1123.7305 Q2586.5234,1124.9349 2584.8633,1125.6185 Q2582.6172,1126.5625 2579.9154,1126.5625 Q2576.7578,1126.5625 2574.2513,1125.2604 Q2572.2005,1124.2188 2570.7682,1121.9889 Q2569.3359,1119.7591 2569.3359,1117.0898 L2569.3359,1114.681 Q2569.3359,1111.9141 2570.6217,1109.5215 Q2571.9076,1107.1289 2574.1862,1105.8431 Q2576.4648,1104.5573 2579.0365,1104.5573 Q2580.5664,1104.5573 2581.9173,1104.8991 Q2583.2682,1105.2409 2584.4076,1105.9896 Z "/><text fill="#000000" font-family="sans-serif" font-size="25" lengthAdjust="spacingAndGlyphs" textLength="129.1667" x="2621.3542" y="1124.8128">SeRequest</text><line style="stroke: #A80036; stroke-width: 3.125;" x1="1950" x2="3354.1667" y1="1147.9167" y2="1147.9167"/><rect fill="none" height="12.5" style="stroke: #C82930; stroke-width: 2.0833333333333335;" width="12.5" x="1964.5833" y="1167.5374"/><text fill="#000000" font-family="sans-serif" font-size="22.9167" lengthAdjust="spacingAndGlyphs" textLength="283.3333" x="1989.5833" y="1180.0395">ByteBuffer[0..1] aidToSelect</text><rect fill="none" height="12.5" style="stroke: #C82930; stroke-width: 2.0833333333333335;" width="12.5" x="1964.5833" y="1196.3623"/><text fill="#000000" font-family="sans-serif" font-size="22.9167" lengthAdjust="spacingAndGlyphs" textLength="350" x="1989.5833" y="1208.8643">List&lt;ApduRequest&gt; apduRequests</text><rect fill="none" height="12.5" style="stroke: #C82930; stroke-width: 2.0833333333333335;" width="12.5" x="1964.5833" y="1225.1872"/><text fill="#000000" font-family="sans-serif" font-size="22.9167" lengthAdjust="spacingAndGlyphs" textLength="287.5" x="1989.5833" y="1237.6892">SeProtocol[0..1] protocolFlag</text><rect fill="none" height="12.5" style="stroke: #C82930; stroke-width: 2.0833333333333335;" width="12.5" x="1964.5833" y="1254.012"/><text fill="#000000" font-family="sans-serif" font-size="22.9167" lengthAdjust="spacingAndGlyphs" textLength="268.75" x="1989.5833" y="1266.5141">boolean keepChannelOpen</text><line style="stroke: #A80036; stroke-width: 3.125;" x1="1950" x2="3354.1667" y1="1279.8828" y2="1279.8828"/><ellipse cx="1970.8333" cy="1305.7536" fill="#84BE84" rx="6.25" ry="6.25" style="stroke: #038048; stroke-width: 2.0833333333333335;"/><text fill="#000000" font-family="sans-serif" font-size="22.9167" lengthAdjust="spacingAndGlyphs" textLength="1354.1667" x="1989.5833" y="1312.0056">SeRequest(ByteBuffer[0..1] aidToSelect, List&lt;ApduRequest&gt; apduRequests, boolean keepChannelOpen, SeProtocol[0..1] protocolFlag)</text><ellipse cx="1970.8333" cy="1334.5785" fill="#84BE84" rx="6.25" ry="6.25" style="stroke: #038048; stroke-width: 2.0833333333333335;"/><text fill="#000000" font-family="sans-serif" font-size="22.9167" lengthAdjust="spacingAndGlyphs" textLength="285.4167" x="1989.5833" y="1340.8305">ByteBuffer getAidToSelect()</text><ellipse cx="1970.8333" cy="1363.4033" fill="#84BE84" rx="6.25" ry="6.25" style="stroke: #038048; stroke-width: 2.0833333333333335;"/><text fill="#000000" font-family="sans-serif" font-size="22.9167" lengthAdjust="spacingAndGlyphs" textLength="402.0833" x="1989.5833" y="1369.6554">List&lt;ApduRequest&gt; getApduRequests()</text><ellipse cx="1970.8333" cy="1392.2282" fill="#84BE84" rx="6.25" ry="6.25" style="stroke: #038048; stroke-width: 2.0833333333333335;"/><text fill="#000000" font-family="sans-serif" font-size="22.9167" lengthAdjust="spacingAndGlyphs" textLength="306.25" x="1989.5833" y="1398.4802">boolean isKeepChannelOpen()</text><ellipse cx="1970.8333" cy="1421.0531" fill="#84BE84" rx="6.25" ry="6.25" style="stroke: #038048; stroke-width: 2.0833333333333335;"/><text fill="#000000" font-family="sans-serif" font-size="22.9167" lengthAdjust="spacingAndGlyphs" textLength="285.4167" x="1989.5833" y="1427.3051">SeProtocol getProtocolFlag()</text><ellipse cx="1970.8333" cy="1449.8779" fill="#84BE84" rx="6.25" ry="6.25" style="stroke: #038048; stroke-width: 2.0833333333333335;"/><text fill="#000000" font-family="sans-serif" font-size="22.9167" lengthAdjust="spacingAndGlyphs" textLength="158.3333" x="1989.5833" y="1456.13">String toString()</text><!--class SeResponse--><rect fill="#FEFECE" filter="url(#f04n5mw)" height="330.599" style="stroke: #A80036; stroke-width: 3.125;" width="1122.9167" x="2226.0417" y="3127.0833"/><ellipse cx="2702.6042" cy="3160.4167" fill="#ADD1B2" rx="22.9167" ry="22.9167" style="stroke: #A80036; stroke-width: 2.0833333333333335;"/><path d="M2708.3659,3151.8229 Q2708.6914,3151.3672 2709.082,3151.1393 Q2709.4727,3150.9115 2709.9284,3150.9115 Q2710.7096,3150.9115 2711.1979,3151.4486 Q2711.6862,3151.9857 2711.6862,3153.2552 L2711.6862,3156.2826 Q2711.6862,3157.5521 2711.1979,3158.1055 Q2710.7096,3158.6589 2709.9284,3158.6589 Q2709.2122,3158.6589 2708.7891,3158.2357 Q2708.3659,3157.8451 2708.138,3156.7708 Q2708.0404,3156.0221 2707.6497,3155.6315 Q2706.9661,3154.8503 2705.6966,3154.3945 Q2704.4271,3153.9388 2703.125,3153.9388 Q2701.5299,3153.9388 2700.2116,3154.6224 Q2698.8932,3155.306 2697.8678,3156.8685 Q2696.8424,3158.431 2696.8424,3160.5794 L2696.8424,3162.8581 Q2696.8424,3165.4297 2698.6979,3167.1387 Q2700.5534,3168.8477 2703.8737,3168.8477 Q2705.8268,3168.8477 2707.194,3168.3268 Q2708.0078,3168.0013 2708.8867,3167.0898 Q2709.4401,3166.5365 2709.7493,3166.3737 Q2710.0586,3166.2109 2710.4818,3166.2109 Q2711.1654,3166.2109 2711.7025,3166.748 Q2712.2396,3167.2852 2712.2396,3168.0013 Q2712.2396,3168.7174 2711.5234,3169.5638 Q2710.4818,3170.7682 2708.8216,3171.4518 Q2706.5755,3172.3958 2703.8737,3172.3958 Q2700.7161,3172.3958 2698.2096,3171.0938 Q2696.1589,3170.0521 2694.7266,3167.8223 Q2693.2943,3165.5924 2693.2943,3162.9232 L2693.2943,3160.5143 Q2693.2943,3157.7474 2694.5801,3155.3548 Q2695.8659,3152.9622 2698.1445,3151.6764 Q2700.4232,3150.3906 2702.9948,3150.3906 Q2704.5247,3150.3906 2705.8757,3150.7324 Q2707.2266,3151.0742 2708.3659,3151.8229 Z "/><text fill="#000000" font-family="sans-serif" font-size="25" lengthAdjust="spacingAndGlyphs" textLength="152.0833" x="2745.3125" y="3170.6462">SeResponse</text><line style="stroke: #A80036; stroke-width: 3.125;" x1="2228.125" x2="3346.875" y1="3193.75" y2="3193.75"/><rect fill="none" height="12.5" style="stroke: #C82930; stroke-width: 2.0833333333333335;" width="12.5" x="2242.7083" y="3213.3708"/><text fill="#000000" font-family="sans-serif" font-size="22.9167" lengthAdjust="spacingAndGlyphs" textLength="322.9167" x="2267.7083" y="3225.8728">boolean channelPreviouslyOpen</text><rect fill="none" height="12.5" style="stroke: #C82930; stroke-width: 2.0833333333333335;" width="12.5" x="2242.7083" y="3242.1956"/><text fill="#000000" font-family="sans-serif" font-size="22.9167" lengthAdjust="spacingAndGlyphs" textLength="237.5" x="2267.7083" y="3254.6977">ApduResponse[0..1] fci</text><rect fill="none" height="12.5" style="stroke: #C82930; stroke-width: 2.0833333333333335;" width="12.5" x="2242.7083" y="3271.0205"/><text fill="#000000" font-family="sans-serif" font-size="22.9167" lengthAdjust="spacingAndGlyphs" textLength="387.5" x="2267.7083" y="3283.5225">List&lt;ApduResponse&gt; apduResponses</text><line style="stroke: #A80036; stroke-width: 3.125;" x1="2228.125" x2="3346.875" y1="3296.8913" y2="3296.8913"/><ellipse cx="2248.9583" cy="3322.762" fill="#84BE84" rx="6.25" ry="6.25" style="stroke: #038048; stroke-width: 2.0833333333333335;"/><text fill="#000000" font-family="sans-serif" font-size="22.9167" lengthAdjust="spacingAndGlyphs" textLength="1068.75" x="2267.7083" y="3329.0141">SeResponse(boolean channelPreviouslyOpen, ApduResponse fci, List&lt;ApduResponse&gt; apduResponses)</text><ellipse cx="2248.9583" cy="3351.5869" fill="#84BE84" rx="6.25" ry="6.25" style="stroke: #038048; stroke-width: 2.0833333333333335;"/><text fill="#000000" font-family="sans-serif" font-size="22.9167" lengthAdjust="spacingAndGlyphs" textLength="387.5" x="2267.7083" y="3357.8389">boolean wasChannelPreviouslyOpen()</text><ellipse cx="2248.9583" cy="3380.4118" fill="#84BE84" rx="6.25" ry="6.25" style="stroke: #038048; stroke-width: 2.0833333333333335;"/><text fill="#000000" font-family="sans-serif" font-size="22.9167" lengthAdjust="spacingAndGlyphs" textLength="193.75" x="2267.7083" y="3386.6638">ByteBuffer getFci()</text><ellipse cx="2248.9583" cy="3409.2367" fill="#84BE84" rx="6.25" ry="6.25" style="stroke: #038048; stroke-width: 2.0833333333333335;"/><text fill="#000000" font-family="sans-serif" font-size="22.9167" lengthAdjust="spacingAndGlyphs" textLength="439.5833" x="2267.7083" y="3415.4887">List&lt;ApduResponse&gt; getApduResponses()</text><ellipse cx="2248.9583" cy="3438.0615" fill="#84BE84" rx="6.25" ry="6.25" style="stroke: #038048; stroke-width: 2.0833333333333335;"/><text fill="#000000" font-family="sans-serif" font-size="22.9167" lengthAdjust="spacingAndGlyphs" textLength="158.3333" x="2267.7083" y="3444.3136">String toString()</text><!--class SeProtocol--><rect fill="#FEFECE" filter="url(#f04n5mw)" height="128.8249" style="stroke: #A80036; stroke-width: 3.125;" width="222.9167" x="2219.7917" y="1660.4167"/><ellipse cx="2265.1042" cy="1693.75" fill="#B4A7E5" rx="22.9167" ry="22.9167" style="stroke: #A80036; stroke-width: 2.0833333333333335;"/><path d="M2267.0898,1686.7513 L2267.0898,1700.6185 L2270.6706,1700.6185 Q2271.9401,1700.6185 2272.4935,1701.1068 Q2273.0469,1701.5951 2273.0469,1702.4089 Q2273.0469,1703.1901 2272.4935,1703.6784 Q2271.9401,1704.1667 2270.6706,1704.1667 L2259.9609,1704.1667 Q2258.6914,1704.1667 2258.138,1703.6784 Q2257.5846,1703.1901 2257.5846,1702.3763 Q2257.5846,1701.5951 2258.138,1701.1068 Q2258.6914,1700.6185 2259.9609,1700.6185 L2263.5417,1700.6185 L2263.5417,1686.7513 L2259.9609,1686.7513 Q2258.6914,1686.7513 2258.138,1686.263 Q2257.5846,1685.7747 2257.5846,1684.9609 Q2257.5846,1684.1797 2258.138,1683.6914 Q2258.6914,1683.2031 2259.9609,1683.2031 L2270.6706,1683.2031 Q2271.9401,1683.2031 2272.4935,1683.6914 Q2273.0469,1684.1797 2273.0469,1684.9609 Q2273.0469,1685.7747 2272.4935,1686.263 Q2271.9401,1686.7513 2270.6706,1686.7513 L2267.0898,1686.7513 Z "/><text fill="#000000" font-family="sans-serif" font-size="25" font-style="italic" lengthAdjust="spacingAndGlyphs" textLength="125" x="2297.3958" y="1703.9795">SeProtocol</text><line style="stroke: #A80036; stroke-width: 3.125;" x1="2221.875" x2="2440.625" y1="1727.0833" y2="1727.0833"/><line style="stroke: #A80036; stroke-width: 3.125;" x1="2221.875" x2="2440.625" y1="1743.75" y2="1743.75"/><ellipse cx="2242.7083" cy="1769.6208" fill="#84BE84" rx="6.25" ry="6.25" style="stroke: #038048; stroke-width: 2.0833333333333335;"/><text fill="#000000" font-family="sans-serif" font-size="22.9167" lengthAdjust="spacingAndGlyphs" textLength="168.75" x="2261.4583" y="1775.8728">String getName()</text><!--class ContactlessProtocols--><rect fill="#FEFECE" filter="url(#f04n5mw)" height="388.2487" style="stroke: #A80036; stroke-width: 3.125;" width="335.4167" x="1767.7083" y="2104.1667"/><ellipse cx="1809.2708" cy="2137.5" fill="#EB937F" rx="22.9167" ry="22.9167" style="stroke: #A80036; stroke-width: 2.0833333333333335;"/><path d="M1806.8945,2139.1602 L1806.8945,2144.3685 L1815.9115,2144.3685 L1815.9115,2142.4479 Q1815.9115,2141.1784 1816.416,2140.625 Q1816.9206,2140.0716 1817.7018,2140.0716 Q1818.4831,2140.0716 1818.9714,2140.625 Q1819.4596,2141.1784 1819.4596,2142.4479 L1819.4596,2147.9167 L1802.793,2147.9167 Q1801.4909,2147.9167 1800.9538,2147.4284 Q1800.4167,2146.9401 1800.4167,2146.1263 Q1800.4167,2145.3451 1800.9701,2144.8568 Q1801.5234,2144.3685 1802.793,2144.3685 L1803.3464,2144.3685 L1803.3464,2130.5013 L1802.793,2130.5013 Q1801.4909,2130.5013 1800.9538,2130.013 Q1800.4167,2129.5247 1800.4167,2128.7109 Q1800.4167,2127.9297 1800.9538,2127.4414 Q1801.4909,2126.9531 1802.793,2126.9531 L1818.6784,2126.9531 L1818.6784,2132.3568 Q1818.6784,2133.6263 1818.2064,2134.1634 Q1817.7344,2134.7005 1816.9206,2134.7005 Q1816.1393,2134.7005 1815.651,2134.1634 Q1815.1628,2133.6263 1815.1628,2132.3568 L1815.1628,2130.5013 L1806.8945,2130.5013 L1806.8945,2135.612 L1809.987,2135.612 Q1809.987,2134.2448 1810.2474,2133.8542 Q1810.8008,2133.0078 1811.7773,2133.0078 Q1812.5586,2133.0078 1813.0469,2133.5449 Q1813.5352,2134.082 1813.5352,2135.3516 L1813.5352,2139.4531 Q1813.5352,2140.5924 1813.2747,2140.9831 Q1812.7214,2141.7969 1811.7773,2141.7969 Q1810.8008,2141.7969 1810.2474,2140.9505 Q1809.987,2140.5599 1809.987,2139.1602 L1806.8945,2139.1602 Z "/><text fill="#000000" font-family="sans-serif" font-size="25" lengthAdjust="spacingAndGlyphs" textLength="245.8333" x="1840.7292" y="2147.7295">ContactlessProtocols</text><line style="stroke: #A80036; stroke-width: 3.125;" x1="1769.7917" x2="2101.0417" y1="2170.8333" y2="2170.8333"/><text fill="#000000" font-family="sans-serif" font-size="22.9167" lengthAdjust="spacingAndGlyphs" textLength="252.0833" x="1780.2083" y="2240.1143">PROTOCOL_ISO14443_4</text><line style="stroke: #A80036; stroke-width: 2.0833333333333335; stroke-dasharray: 1.0,2.0;" x1="1769.7917" x2="1890.625" y1="2201.9124" y2="2201.9124"/><text fill="#000000" font-family="sans-serif" font-size="22.9167" lengthAdjust="spacingAndGlyphs" textLength="89.5833" x="1890.625" y="2210.2478">standard</text><line style="stroke: #A80036; stroke-width: 2.0833333333333335; stroke-dasharray: 1.0,2.0;" x1="1980.2083" x2="2101.0417" y1="2201.9124" y2="2201.9124"/><text fill="#000000" font-family="sans-serif" font-size="22.9167" lengthAdjust="spacingAndGlyphs" textLength="268.75" x="1780.2083" y="2306.0974">PROTOCOL_ISO14443_3A</text><text fill="#000000" font-family="sans-serif" font-size="22.9167" lengthAdjust="spacingAndGlyphs" textLength="266.6667" x="1780.2083" y="2334.9223">PROTOCOL_ISO14443_3B</text><text fill="#000000" font-family="sans-serif" font-size="22.9167" lengthAdjust="spacingAndGlyphs" textLength="216.6667" x="1780.2083" y="2363.7472">PROTOCOL_B_PRIME</text><text fill="#000000" font-family="sans-serif" font-size="22.9167" lengthAdjust="spacingAndGlyphs" textLength="245.8333" x="1780.2083" y="2392.572">PROTOCOL_MIFARE_UL</text><text fill="#000000" font-family="sans-serif" font-size="22.9167" lengthAdjust="spacingAndGlyphs" textLength="310.4167" x="1780.2083" y="2421.3969">PROTOCOL_MIFARE_CLASSIC</text><text fill="#000000" font-family="sans-serif" font-size="22.9167" lengthAdjust="spacingAndGlyphs" textLength="304.1667" x="1780.2083" y="2450.2218">PROTOCOL_MIFARE_DESFIRE</text><text fill="#000000" font-family="sans-serif" font-size="22.9167" lengthAdjust="spacingAndGlyphs" textLength="287.5" x="1780.2083" y="2479.0466">PROTOCOL_MEMORY_ST25</text><line style="stroke: #A80036; stroke-width: 2.0833333333333335; stroke-dasharray: 1.0,2.0;" x1="1769.7917" x2="1880.2083" y1="2267.8955" y2="2267.8955"/><text fill="#000000" font-family="sans-serif" font-size="22.9167" lengthAdjust="spacingAndGlyphs" textLength="110.4167" x="1880.2083" y="2276.2309">proprietary</text><line style="stroke: #A80036; stroke-width: 2.0833333333333335; stroke-dasharray: 1.0,2.0;" x1="1990.625" x2="2101.0417" y1="2267.8955" y2="2267.8955"/><!--class ContactsProtocols--><rect fill="#FEFECE" filter="url(#f04n5mw)" height="149.3164" style="stroke: #A80036; stroke-width: 3.125;" width="277.0833" x="2248.9583" y="2222.9167"/><ellipse cx="2280.2083" cy="2256.25" fill="#EB937F" rx="22.9167" ry="22.9167" style="stroke: #A80036; stroke-width: 2.0833333333333335;"/><path d="M2277.832,2257.9102 L2277.832,2263.1185 L2286.849,2263.1185 L2286.849,2261.1979 Q2286.849,2259.9284 2287.3535,2259.375 Q2287.8581,2258.8216 2288.6393,2258.8216 Q2289.4206,2258.8216 2289.9089,2259.375 Q2290.3971,2259.9284 2290.3971,2261.1979 L2290.3971,2266.6667 L2273.7305,2266.6667 Q2272.4284,2266.6667 2271.8913,2266.1784 Q2271.3542,2265.6901 2271.3542,2264.8763 Q2271.3542,2264.0951 2271.9076,2263.6068 Q2272.4609,2263.1185 2273.7305,2263.1185 L2274.2839,2263.1185 L2274.2839,2249.2513 L2273.7305,2249.2513 Q2272.4284,2249.2513 2271.8913,2248.763 Q2271.3542,2248.2747 2271.3542,2247.4609 Q2271.3542,2246.6797 2271.8913,2246.1914 Q2272.4284,2245.7031 2273.7305,2245.7031 L2289.6159,2245.7031 L2289.6159,2251.1068 Q2289.6159,2252.3763 2289.1439,2252.9134 Q2288.6719,2253.4505 2287.8581,2253.4505 Q2287.0768,2253.4505 2286.5885,2252.9134 Q2286.1003,2252.3763 2286.1003,2251.1068 L2286.1003,2249.2513 L2277.832,2249.2513 L2277.832,2254.362 L2280.9245,2254.362 Q2280.9245,2252.9948 2281.1849,2252.6042 Q2281.7383,2251.7578 2282.7148,2251.7578 Q2283.4961,2251.7578 2283.9844,2252.2949 Q2284.4727,2252.832 2284.4727,2254.1016 L2284.4727,2258.2031 Q2284.4727,2259.3424 2284.2122,2259.7331 Q2283.6589,2260.5469 2282.7148,2260.5469 Q2281.7383,2260.5469 2281.1849,2259.7005 Q2280.9245,2259.3099 2280.9245,2257.9102 L2277.832,2257.9102 Z "/><text fill="#000000" font-family="sans-serif" font-size="25" lengthAdjust="spacingAndGlyphs" textLength="210.4167" x="2309.375" y="2266.4795">ContactsProtocols</text><line style="stroke: #A80036; stroke-width: 3.125;" x1="2251.0417" x2="2523.9583" y1="2289.5833" y2="2289.5833"/><text fill="#000000" font-family="sans-serif" font-size="22.9167" lengthAdjust="spacingAndGlyphs" textLength="239.5833" x="2261.4583" y="2358.8643">PROTOCOL_ISO7816_3</text><line style="stroke: #A80036; stroke-width: 2.0833333333333335; stroke-dasharray: 1.0,2.0;" x1="2251.0417" x2="2342.7083" y1="2320.6624" y2="2320.6624"/><text fill="#000000" font-family="sans-serif" font-size="22.9167" lengthAdjust="spacingAndGlyphs" textLength="89.5833" x="2342.7083" y="2328.9978">standard</text><line style="stroke: #A80036; stroke-width: 2.0833333333333335; stroke-dasharray: 1.0,2.0;" x1="2432.2917" x2="2523.9583" y1="2320.6624" y2="2320.6624"/><!--class AbstractApduBuffer--><rect fill="#FEFECE" filter="url(#f04n5mw)" height="186.4746" style="stroke: #A80036; stroke-width: 3.125;" width="450" x="2600" y="2204.1667"/><ellipse cx="2705.7292" cy="2237.5" fill="#A9DCDF" rx="22.9167" ry="22.9167" style="stroke: #A80036; stroke-width: 2.0833333333333335;"/><path d="M2710.2865,2241.1784 L2701.6602,2241.1784 L2700.7813,2243.3268 L2701.6602,2243.3268 Q2702.9297,2243.3268 2703.4831,2243.8151 Q2704.0365,2244.3034 2704.0365,2245.1172 Q2704.0365,2245.8984 2703.4831,2246.3867 Q2702.9297,2246.875 2701.6602,2246.875 L2696.875,2246.875 Q2695.6055,2246.875 2695.0684,2246.3867 Q2694.5313,2245.8984 2694.5313,2245.0846 Q2694.5313,2244.3034 2695.1009,2243.7988 Q2695.6706,2243.2943 2696.9727,2243.3268 L2702.5391,2229.4596 L2700.2279,2229.4596 Q2698.9583,2229.4596 2698.4049,2228.9714 Q2697.8516,2228.4831 2697.8516,2227.6693 Q2697.8516,2226.888 2698.4049,2226.3997 Q2698.9583,2225.9115 2700.2279,2225.9115 L2707.8776,2225.9115 L2714.9414,2243.3268 Q2716.1784,2243.3268 2716.569,2243.6198 Q2717.3828,2244.1732 2717.3828,2245.1172 Q2717.3828,2245.8984 2716.8457,2246.3867 Q2716.3086,2246.875 2715.0391,2246.875 L2710.2539,2246.875 Q2708.9844,2246.875 2708.431,2246.3867 Q2707.8776,2245.8984 2707.8776,2245.0846 Q2707.8776,2244.3034 2708.431,2243.8151 Q2708.9844,2243.3268 2710.2539,2243.3268 L2711.1328,2243.3268 L2710.2865,2241.1784 Z M2708.7891,2237.6302 L2705.957,2230.599 L2703.0924,2237.6302 L2708.7891,2237.6302 Z "/><text fill="#000000" font-family="sans-serif" font-size="25" font-style="italic" lengthAdjust="spacingAndGlyphs" textLength="220.8333" x="2748.4375" y="2247.7295">AbstractApduBuffer</text><line style="stroke: #A80036; stroke-width: 3.125;" x1="2602.0833" x2="3047.9167" y1="2270.8333" y2="2270.8333"/><rect fill="none" height="12.5" style="stroke: #C82930; stroke-width: 2.0833333333333335;" width="12.5" x="2616.6667" y="2290.4541"/><text fill="#000000" font-family="sans-serif" font-size="22.9167" lengthAdjust="spacingAndGlyphs" textLength="220.8333" x="2641.6667" y="2302.9561">final ByteBuffer bytes</text><line style="stroke: #A80036; stroke-width: 3.125;" x1="2602.0833" x2="3047.9167" y1="2316.3249" y2="2316.3249"/><ellipse cx="2622.9167" cy="2342.1956" fill="#84BE84" rx="6.25" ry="6.25" style="stroke: #038048; stroke-width: 2.0833333333333335;"/><text fill="#000000" font-family="sans-serif" font-size="22.9167" lengthAdjust="spacingAndGlyphs" textLength="222.9167" x="2641.6667" y="2348.4477">AbstractApduBuffer()</text><ellipse cx="2622.9167" cy="2371.0205" fill="#84BE84" rx="6.25" ry="6.25" style="stroke: #038048; stroke-width: 2.0833333333333335;"/><text fill="#000000" font-family="sans-serif" font-size="22.9167" lengthAdjust="spacingAndGlyphs" textLength="395.8333" x="2641.6667" y="2377.2725">ByteBuffer getBytes(ByteBuffer bytes)</text><polygon fill="#FBFB77" filter="url(#f04n5mw)" points="532.2917,2219.7917,532.2917,2376.888,913.5417,2376.888,913.5417,2240.625,892.7083,2219.7917,532.2917,2219.7917" style="stroke: #A80036; stroke-width: 2.0833333333333335;"/><polygon fill="#FBFB77" points="532.2917,2219.7917,532.2917,2376.888,913.5417,2376.888,913.5417,2240.625,892.7083,2219.7917,736.8833,2219.7917,759.9646,1790.1229,720.2167,2219.7917,532.2917,2219.7917" style="stroke: #A80036; stroke-width: 2.0833333333333335;"/><line style="stroke: #A80036; stroke-width: 2.0833333333333335;" x1="892.7083" x2="892.7083" y1="2219.7917" y2="2240.625"/><line style="stroke: #A80036; stroke-width: 2.0833333333333335;" x1="913.5417" x2="892.7083" y1="2240.625" y2="2240.625"/><text fill="#000000" font-family="sans-serif" font-size="27.0833" lengthAdjust="spacingAndGlyphs" textLength="329.1667" x="544.7917" y="2258.3232">- Must be extended only by</text><text fill="#000000" font-family="sans-serif" font-size="27.0833" lengthAdjust="spacingAndGlyphs" textLength="0" x="553.125" y="2292.3889"/><text fill="#000000" font-family="sans-serif" font-size="27.0833" font-weight="bold" lengthAdjust="spacingAndGlyphs" textLength="120.8333" x="553.125" y="2292.3889">singleton</text><text fill="#000000" font-family="sans-serif" font-size="27.0833" lengthAdjust="spacingAndGlyphs" textLength="93.75" x="682.2917" y="2292.3889">classes</text><text fill="#000000" font-family="sans-serif" font-size="27.0833" lengthAdjust="spacingAndGlyphs" textLength="337.5" x="544.7917" y="2326.4547">- ProxyReader elements are</text><text fill="#000000" font-family="sans-serif" font-size="27.0833" lengthAdjust="spacingAndGlyphs" textLength="87.5" x="544.7917" y="2360.5204">unique.</text><polygon fill="#FBFB77" filter="url(#f04n5mw)" points="987.5,1981.25,987.5,2615.2669,1616.6667,2615.2669,1616.6667,2002.0833,1595.8333,1981.25,987.5,1981.25" style="stroke: #A80036; stroke-width: 2.0833333333333335;"/><polygon fill="#FBFB77" points="987.5,1981.25,987.5,2615.2669,1616.6667,2615.2669,1616.6667,2002.0833,1595.8333,1981.25,1431.4375,1981.25,1485.4438,1819.0958,1414.7708,1981.25,987.5,1981.25" style="stroke: #A80036; stroke-width: 2.0833333333333335;"/><line style="stroke: #A80036; stroke-width: 2.0833333333333335;" x1="1595.8333" x2="1595.8333" y1="1981.25" y2="2002.0833"/><line style="stroke: #A80036; stroke-width: 2.0833333333333335;" x1="1616.6667" x2="1595.8333" y1="2002.0833" y2="2002.0833"/><text fill="#000000" font-family="sans-serif" font-size="27.0833" lengthAdjust="spacingAndGlyphs" textLength="518.75" x="1000" y="2019.7815">For implementation classes, the visibility of</text><text fill="#000000" font-family="sans-serif" font-size="27.0833" lengthAdjust="spacingAndGlyphs" textLength="437.5" x="1000" y="2053.8472">the constructor should be defined as</text><text fill="#000000" font-family="sans-serif" font-size="27.0833" font-weight="bold" lengthAdjust="spacingAndGlyphs" textLength="139.5833" x="1445.8333" y="2053.8472">proctected</text><text fill="#000000" font-family="sans-serif" font-size="27.0833" lengthAdjust="spacingAndGlyphs" textLength="439.5833" x="1000" y="2087.913">to restrict calls by the corresponding</text><text fill="#000000" font-family="sans-serif" font-size="27.0833" lengthAdjust="spacingAndGlyphs" textLength="183.3333" x="1000" y="2121.9788">ReadersPlugin.</text><text fill="#000000" font-family="sans-serif" font-size="27.0833" lengthAdjust="spacingAndGlyphs" textLength="0" x="1008.3333" y="2156.0445"/><text fill="#000000" font-family="sans-serif" font-size="27.0833" lengthAdjust="spacingAndGlyphs" textLength="572.9167" x="1000" y="2190.1103">- To operate the transmission of SeRequestSet,</text><text fill="#000000" font-family="sans-serif" font-size="27.0833" lengthAdjust="spacingAndGlyphs" textLength="114.5833" x="1000" y="2224.176">a specific</text><text fill="#000000" font-family="sans-serif" font-size="27.0833" font-weight="bold" lengthAdjust="spacingAndGlyphs" textLength="64.5833" x="1122.9167" y="2224.176">local</text><text fill="#000000" font-family="sans-serif" font-size="27.0833" lengthAdjust="spacingAndGlyphs" textLength="208.3333" x="1195.8333" y="2224.176">reader processes</text><text fill="#000000" font-family="sans-serif" font-size="27.0833" lengthAdjust="spacingAndGlyphs" textLength="343.75" x="1000" y="2258.2418">the sorted list of SeRequest.</text><text fill="#000000" font-family="sans-serif" font-size="27.0833" lengthAdjust="spacingAndGlyphs" textLength="518.75" x="1000" y="2292.3075">- According to SeRequest protocolFlag and</text><text fill="#000000" font-family="sans-serif" font-size="27.0833" lengthAdjust="spacingAndGlyphs" textLength="454.1667" x="1000" y="2326.3733">to the current status of the reader (RF</text><text fill="#000000" font-family="sans-serif" font-size="27.0833" lengthAdjust="spacingAndGlyphs" textLength="418.75" x="1000" y="2360.439">protocol involved / current ATR) the</text><text fill="#000000" font-family="sans-serif" font-size="27.0833" lengthAdjust="spacingAndGlyphs" textLength="535.4167" x="1000" y="2394.5048">processing of a specific SeRequest could be</text><text fill="#000000" font-family="sans-serif" font-size="27.0833" lengthAdjust="spacingAndGlyphs" textLength="102.0833" x="1000" y="2428.5706">skipped.</text><text fill="#000000" font-family="sans-serif" font-size="27.0833" lengthAdjust="spacingAndGlyphs" textLength="391.6667" x="1000" y="2462.6363">- When processing a SeRequest</text><text fill="#000000" font-family="sans-serif" font-size="27.0833" lengthAdjust="spacingAndGlyphs" textLength="464.5833" x="1016.6667" y="2496.7021">o if necessary a new logical channel is</text><text fill="#000000" font-family="sans-serif" font-size="27.0833" lengthAdjust="spacingAndGlyphs" textLength="402.0833" x="1016.6667" y="2530.7678">open (for a specific AID if defined)</text><text fill="#000000" font-family="sans-serif" font-size="27.0833" lengthAdjust="spacingAndGlyphs" textLength="508.3333" x="1016.6667" y="2564.8336">o and ApduRequest are transmited one by</text><text fill="#000000" font-family="sans-serif" font-size="27.0833" lengthAdjust="spacingAndGlyphs" textLength="43.75" x="1016.6667" y="2598.8993">one</text><polygon fill="#FBFB77" filter="url(#f04n5mw)" points="910.4167,797.9167,910.4167,955.013,1872.9167,955.013,1872.9167,818.75,1852.0833,797.9167,910.4167,797.9167" style="stroke: #A80036; stroke-width: 2.0833333333333335;"/><polygon fill="#FBFB77" points="910.4167,797.9167,910.4167,955.013,1383.3333,955.013,1391.6667,1152.75,1400,955.013,1872.9167,955.013,1872.9167,818.75,1852.0833,797.9167,910.4167,797.9167" style="stroke: #A80036; stroke-width: 2.0833333333333335;"/><line style="stroke: #A80036; stroke-width: 2.0833333333333335;" x1="1852.0833" x2="1852.0833" y1="797.9167" y2="818.75"/><line style="stroke: #A80036; stroke-width: 2.0833333333333335;" x1="1872.9167" x2="1852.0833" y1="818.75" y2="818.75"/><text fill="#000000" font-family="sans-serif" font-size="27.0833" lengthAdjust="spacingAndGlyphs" textLength="918.75" x="922.9167" y="836.4482">- A SeRequestSet could contain several SeRequest to manage the selection</text><text fill="#000000" font-family="sans-serif" font-size="27.0833" lengthAdjust="spacingAndGlyphs" textLength="420.8333" x="922.9167" y="870.5139">of different types of PO application.</text><text fill="#000000" font-family="sans-serif" font-size="27.0833" lengthAdjust="spacingAndGlyphs" textLength="870.8333" x="922.9167" y="904.5797">- To exchange APDU commands with a soecific selected PO application</text><text fill="#000000" font-family="sans-serif" font-size="27.0833" lengthAdjust="spacingAndGlyphs" textLength="406.25" x="922.9167" y="938.6454">a single SeRequest is necessary.</text><polygon fill="#FBFB77" filter="url(#f04n5mw)" points="2192.7083,797.9167,2192.7083,955.013,3111.4583,955.013,3111.4583,818.75,3090.625,797.9167,2192.7083,797.9167" style="stroke: #A80036; stroke-width: 2.0833333333333335;"/><polygon fill="#FBFB77" points="2192.7083,797.9167,2192.7083,955.013,2643.75,955.013,2652.0833,1080.6458,2660.4167,955.013,3111.4583,955.013,3111.4583,818.75,3090.625,797.9167,2192.7083,797.9167" style="stroke: #A80036; stroke-width: 2.0833333333333335;"/><line style="stroke: #A80036; stroke-width: 2.0833333333333335;" x1="3090.625" x2="3090.625" y1="797.9167" y2="818.75"/><line style="stroke: #A80036; stroke-width: 2.0833333333333335;" x1="3111.4583" x2="3090.625" y1="818.75" y2="818.75"/><text fill="#000000" font-family="sans-serif" font-size="27.0833" lengthAdjust="spacingAndGlyphs" textLength="843.75" x="2205.2083" y="836.4482">- For PO requiring an AID selection, the aidToSelect should be defined</text><text fill="#000000" font-family="sans-serif" font-size="27.0833" lengthAdjust="spacingAndGlyphs" textLength="875" x="2205.2083" y="870.5139">with non null value. For PO not supporting AID selection, the aidToSelect</text><text fill="#000000" font-family="sans-serif" font-size="27.0833" lengthAdjust="spacingAndGlyphs" textLength="306.25" x="2205.2083" y="904.5797">should be defined as null.</text><text fill="#000000" font-family="sans-serif" font-size="27.0833" lengthAdjust="spacingAndGlyphs" textLength="485.4167" x="2205.2083" y="938.6454">- The protocolFlag parameter is optional.</text><!--entity ##1415--><!--class ByteBufferUtils--><rect fill="#FEFECE" filter="url(#f04n5mw)" height="359.4238" style="stroke: #A80036; stroke-width: 3.125;" width="616.6667" x="683.3333" y="158.3333"/><ellipse cx="899.4792" cy="191.6667" fill="#ADD1B2" rx="22.9167" ry="22.9167" style="stroke: #A80036; stroke-width: 2.0833333333333335;"/><path d="M905.2409,183.0729 Q905.5664,182.6172 905.957,182.3893 Q906.3477,182.1615 906.8034,182.1615 Q907.5846,182.1615 908.0729,182.6986 Q908.5612,183.2357 908.5612,184.5052 L908.5612,187.5326 Q908.5612,188.8021 908.0729,189.3555 Q907.5846,189.9089 906.8034,189.9089 Q906.0872,189.9089 905.6641,189.4857 Q905.2409,189.0951 905.013,188.0208 Q904.9154,187.2721 904.5247,186.8815 Q903.8411,186.1003 902.5716,185.6445 Q901.3021,185.1888 900,185.1888 Q898.4049,185.1888 897.0866,185.8724 Q895.7682,186.556 894.7428,188.1185 Q893.7174,189.681 893.7174,191.8294 L893.7174,194.1081 Q893.7174,196.6797 895.5729,198.3887 Q897.4284,200.0977 900.7487,200.0977 Q902.7018,200.0977 904.069,199.5768 Q904.8828,199.2513 905.7617,198.3398 Q906.3151,197.7865 906.6243,197.6237 Q906.9336,197.4609 907.3568,197.4609 Q908.0404,197.4609 908.5775,197.998 Q909.1146,198.5352 909.1146,199.2513 Q909.1146,199.9674 908.3984,200.8138 Q907.3568,202.0182 905.6966,202.7018 Q903.4505,203.6458 900.7487,203.6458 Q897.5911,203.6458 895.0846,202.3438 Q893.0339,201.3021 891.6016,199.0723 Q890.1693,196.8424 890.1693,194.1732 L890.1693,191.7643 Q890.1693,188.9974 891.4551,186.6048 Q892.7409,184.2122 895.0195,182.9264 Q897.2982,181.6406 899.8698,181.6406 Q901.3997,181.6406 902.7507,181.9824 Q904.1016,182.3242 905.2409,183.0729 Z "/><text fill="#000000" font-family="sans-serif" font-size="25" lengthAdjust="spacingAndGlyphs" textLength="166.6667" x="942.1875" y="201.8962">ByteBufferUtils</text><line style="stroke: #A80036; stroke-width: 3.125;" x1="685.4167" x2="1297.9167" y1="225" y2="225"/><line style="stroke: #A80036; stroke-width: 3.125;" x1="685.4167" x2="1297.9167" y1="241.6667" y2="241.6667"/><ellipse cx="706.25" cy="267.5374" fill="#84BE84" rx="6.25" ry="6.25" style="stroke: #038048; stroke-width: 2.0833333333333335;"/><text fill="#000000" font-family="sans-serif" font-size="22.9167" lengthAdjust="spacingAndGlyphs" text-decoration="underline" textLength="320.8333" x="725" y="273.7895">ByteBuffer fromHex(String hex)</text><line style="stroke: #000000; stroke-width: 1.0;" x1="725" x2="1045.8333" y1="277.9561" y2="277.9561"/><ellipse cx="706.25" cy="296.3623" fill="#84BE84" rx="6.25" ry="6.25" style="stroke: #038048; stroke-width: 2.0833333333333335;"/><text fill="#000000" font-family="sans-serif" font-size="22.9167" lengthAdjust="spacingAndGlyphs" text-decoration="underline" textLength="318.75" x="725" y="302.6143">String toHex(ByteBuffer buffer)</text><line style="stroke: #000000; stroke-width: 1.0;" x1="725" x2="1043.75" y1="306.781" y2="306.781"/><ellipse cx="706.25" cy="325.1872" fill="#84BE84" rx="6.25" ry="6.25" style="stroke: #038048; stroke-width: 2.0833333333333335;"/><text fill="#000000" font-family="sans-serif" font-size="22.9167" lengthAdjust="spacingAndGlyphs" text-decoration="underline" textLength="391.6667" x="725" y="331.4392">String toHex(List&lt;ByteBuffer&gt; buffers)</text><line style="stroke: #000000; stroke-width: 1.0;" x1="725" x2="1116.6667" y1="335.6059" y2="335.6059"/><ellipse cx="706.25" cy="354.012" fill="#84BE84" rx="6.25" ry="6.25" style="stroke: #038048; stroke-width: 2.0833333333333335;"/><text fill="#000000" font-family="sans-serif" font-size="22.9167" lengthAdjust="spacingAndGlyphs" text-decoration="underline" textLength="350" x="725" y="360.2641">String toHex(ByteBuffer... buffers)</text><line style="stroke: #000000; stroke-width: 1.0;" x1="725" x2="1075" y1="364.4307" y2="364.4307"/><ellipse cx="706.25" cy="382.8369" fill="#84BE84" rx="6.25" ry="6.25" style="stroke: #038048; stroke-width: 2.0833333333333335;"/><text fill="#000000" font-family="sans-serif" font-size="22.9167" lengthAdjust="spacingAndGlyphs" text-decoration="underline" textLength="550" x="725" y="389.0889">String toHexCutLen(ByteBuffer buffer, int... cutLength)</text><line style="stroke: #000000; stroke-width: 1.0;" x1="725" x2="1275" y1="393.2556" y2="393.2556"/><ellipse cx="706.25" cy="411.6618" fill="#84BE84" rx="6.25" ry="6.25" style="stroke: #038048; stroke-width: 2.0833333333333335;"/><text fill="#000000" font-family="sans-serif" font-size="22.9167" lengthAdjust="spacingAndGlyphs" text-decoration="underline" textLength="335.4167" x="725" y="417.9138">byte[] toBytes(ByteBuffer buffer)</text><line style="stroke: #000000; stroke-width: 1.0;" x1="725" x2="1060.4167" y1="422.0805" y2="422.0805"/><ellipse cx="706.25" cy="440.4867" fill="#84BE84" rx="6.25" ry="6.25" style="stroke: #038048; stroke-width: 2.0833333333333335;"/><text fill="#000000" font-family="sans-serif" font-size="22.9167" lengthAdjust="spacingAndGlyphs" text-decoration="underline" textLength="541.6667" x="725" y="446.7387">ByteBuffer subIndex(ByteBuffer buf, int start, int end)</text><line style="stroke: #000000; stroke-width: 1.0;" x1="725" x2="1266.6667" y1="450.9054" y2="450.9054"/><ellipse cx="706.25" cy="469.3115" fill="#84BE84" rx="6.25" ry="6.25" style="stroke: #038048; stroke-width: 2.0833333333333335;"/><text fill="#000000" font-family="sans-serif" font-size="22.9167" lengthAdjust="spacingAndGlyphs" text-decoration="underline" textLength="562.5" x="725" y="475.5636">ByteBuffer subLen(ByteBuffer buf, int offset, int length)</text><line style="stroke: #000000; stroke-width: 1.0;" x1="725" x2="1287.5" y1="479.7302" y2="479.7302"/><ellipse cx="706.25" cy="498.1364" fill="#84BE84" rx="6.25" ry="6.25" style="stroke: #038048; stroke-width: 2.0833333333333335;"/><text fill="#000000" font-family="sans-serif" font-size="22.9167" lengthAdjust="spacingAndGlyphs" text-decoration="underline" textLength="539.5833" x="725" y="504.3884">ByteBuffer concat(ByteBuffer buf1, ByteBuffer buf2)</text><line style="stroke: #000000; stroke-width: 1.0;" x1="725" x2="1264.5833" y1="508.5551" y2="508.5551"/><path d="M471.6856,438.7915 C471.6475,439.2526 471.6094,439.7149 471.5714,440.1782 C471.4952,441.1048 471.4191,442.0358 471.343,442.9711 C471.1909,444.8416 471.0389,446.7291 470.8872,448.6328 C466.0339,509.5521 461.5073,587.0937 462.5,656.25 C462.6682,667.9714 462.8874,680.0462 463.1426,692.2171 C463.2064,695.2598 463.2725,698.3086 463.3406,701.3593 C463.3747,702.8846 463.4092,704.4105 463.4442,705.9363 " fill="none" style="stroke: #A80036; stroke-width: 2.0833333333333335; stroke-dasharray: 7.0,7.0;"/><polygon fill="#A80036" points="463.4442,705.9363,471.345,687,463.2051,695.5224,454.6827,687.3825,463.4442,705.9363" style="stroke: #A80036; stroke-width: 2.0833333333333335;"/><text fill="#000000" font-family="sans-serif" font-size="27.0833" lengthAdjust="spacingAndGlyphs" textLength="89.5833" x="464.5833" y="648.9482">imports</text><path d="M272.375,388.9792 C259.5313,497.7917 241.575,766.9583 345.8333,954.1667 C384.8813,1024.2917 446.3271,1084.25 509.8104,1132.625 " fill="none" style="stroke: #A80036; stroke-width: 2.0833333333333335;"/><polygon fill="#A80036" points="518.3729,1139.0625,508.3934,1121.1344,510.0467,1132.803,498.3782,1134.4563,518.3729,1139.0625" style="stroke: #A80036; stroke-width: 2.0833333333333335;"/><text fill="#000000" font-family="sans-serif" font-size="27.0833" lengthAdjust="spacingAndGlyphs" textLength="58.3333" x="347.9167" y="887.4898">uses</text><polygon fill="#000000" points="367.7083,905.9408,373.9583,918.4408,380.2083,905.9408,367.7083,905.9408" style="stroke: #000000; stroke-width: 2.0833333333333335;"/><path d="M758.5021,1462.6042 C759.8771,1521.4771 761.3354,1583.9333 762.4813,1632.9083 " fill="none" style="stroke: #A80036; stroke-width: 2.0833333333333335;"/><polygon fill="#A80036" points="763.1146,1660.0563,771.0088,1641.1172,762.8719,1649.6424,754.3467,1641.5055,763.1146,1660.0563" style="stroke: #A80036; stroke-width: 2.0833333333333335;"/><line style="stroke: #A80036; stroke-width: 2.0833333333333335;" x1="762.8719" x2="762.4823" y1="1649.6424" y2="1632.9813"/><polygon fill="#A80036" points="757.8542,1434.8958,749.8115,1447.5848,758.4311,1459.8892,766.4738,1447.2002,757.8542,1434.8958" style="stroke: #A80036; stroke-width: 2.0833333333333335;"/><text fill="#000000" font-family="sans-serif" font-size="27.0833" lengthAdjust="spacingAndGlyphs" textLength="85.4167" x="764.5833" y="1561.4482">plugins</text><text fill="#000000" font-family="sans-serif" font-size="27.0833" lengthAdjust="spacingAndGlyphs" textLength="14.5833" x="742.9386" y="1479.3175">1</text><text fill="#000000" font-family="sans-serif" font-size="27.0833" lengthAdjust="spacingAndGlyphs" textLength="10.4167" x="751.3208" y="1638.1164">*</text><path d="M1038.3104,1725 C1074.4604,1725 1111.9917,1725 1149.4354,1725 " fill="none" style="stroke: #A80036; stroke-width: 2.0833333333333335;"/><polygon fill="#A80036" points="1176.6646,1725,1157.9146,1716.6667,1166.2479,1725,1157.9146,1733.3333,1176.6646,1725" style="stroke: #A80036; stroke-width: 2.0833333333333335;"/><line style="stroke: #A80036; stroke-width: 2.0833333333333335;" x1="1166.2479" x2="1149.5813" y1="1725" y2="1725"/><polygon fill="#A80036" points="1010.6396,1725,1023.1396,1733.3333,1035.6396,1725,1023.1396,1716.6667,1010.6396,1725" style="stroke: #A80036; stroke-width: 2.0833333333333335;"/><text fill="#000000" font-family="sans-serif" font-size="27.0833" lengthAdjust="spacingAndGlyphs" textLength="89.5833" x="1048.9583" y="1711.4482">readers</text><text fill="#000000" font-family="sans-serif" font-size="27.0833" lengthAdjust="spacingAndGlyphs" textLength="14.5833" x="1026.8697" y="1718.7482">1</text><text fill="#000000" font-family="sans-serif" font-size="27.0833" lengthAdjust="spacingAndGlyphs" textLength="10.4167" x="1150.4168" y="1719.0661">*</text><path d="M1426.45,1397.1458 C1447.7458,1470.6458 1474.5792,1563.2625 1494.1854,1630.9354 " fill="none" style="stroke: #A80036; stroke-width: 2.0833333333333335;"/><polygon fill="#000000" points="1504.1667,1554.1667,1510.4167,1541.6667,1516.6667,1554.1667,1504.1667,1554.1667" style="stroke: #000000; stroke-width: 2.0833333333333335;"/><text fill="#000000" font-family="sans-serif" font-size="27.0833" lengthAdjust="spacingAndGlyphs" textLength="72.9167" x="1477.0833" y="1588.5315">sends</text><path d="M1581.8563,1818.8792 C1609.3979,1865.4646 1639.0854,1924.1604 1654.1667,1981.25 C1712.8375,2203.3542 1706.1583,2890.1938 1700.7292,3170.0708 " fill="none" style="stroke: #A80036; stroke-width: 2.0833333333333335;"/><text fill="#000000" font-family="sans-serif" font-size="27.0833" lengthAdjust="spacingAndGlyphs" textLength="97.9167" x="1704.1667" y="2707.2815">receives</text><polygon fill="#000000" points="1743.75,2725.7324,1750,2738.2324,1756.25,2725.7324,1743.75,2725.7324" style="stroke: #000000; stroke-width: 2.0833333333333335;"/><path d="M1675.6875,1275 C1750.0542,1275 1833.7417,1275 1920.05,1275 " fill="none" style="stroke: #A80036; stroke-width: 2.0833333333333335;"/><polygon fill="#A80036" points="1947.5313,1275,1928.7813,1266.6667,1937.1146,1275,1928.7813,1283.3333,1947.5313,1275" style="stroke: #A80036; stroke-width: 2.0833333333333335;"/><line style="stroke: #A80036; stroke-width: 2.0833333333333335;" x1="1937.1146" x2="1920.4479" y1="1275" y2="1275"/><polygon fill="#FFFFFF" points="1648.25,1275,1660.75,1283.3333,1673.25,1275,1660.75,1266.6667,1648.25,1275" style="stroke: #A80036; stroke-width: 2.0833333333333335;"/><text fill="#000000" font-family="sans-serif" font-size="27.0833" lengthAdjust="spacingAndGlyphs" textLength="222.9167" x="1686.4583" y="1261.4482">sortedSeRequests</text><text fill="#000000" font-family="sans-serif" font-size="27.0833" lengthAdjust="spacingAndGlyphs" textLength="45.8333" x="1664.4086" y="1304.0887">0..1</text><text fill="#000000" font-family="sans-serif" font-size="27.0833" lengthAdjust="spacingAndGlyphs" textLength="16.6667" x="1914.1563" y="1269.3907">+</text><path d="M2724.4375,1495.1583 C2736.9792,1532.9854 2749.6042,1570.9979 2760.8333,1604.8375 " fill="none" style="stroke: #A80036; stroke-width: 2.0833333333333335;"/><polygon fill="#A80036" points="2769.5,1630.9979,2771.5083,1610.578,2766.2214,1621.1107,2755.6887,1615.8237,2769.5,1630.9979" style="stroke: #A80036; stroke-width: 2.0833333333333335;"/><line style="stroke: #A80036; stroke-width: 2.0833333333333335;" x1="2766.2214" x2="2760.9792" y1="1621.1107" y2="1605.2927"/><polygon fill="#FFFFFF" points="2715.8958,1469.3958,2711.9203,1483.8834,2723.7644,1493.1252,2727.7399,1478.6377,2715.8958,1469.3958" style="stroke: #A80036; stroke-width: 2.0833333333333335;"/><text fill="#000000" font-family="sans-serif" font-size="27.0833" lengthAdjust="spacingAndGlyphs" textLength="172.9167" x="2750" y="1561.4482">apduRequests</text><text fill="#000000" font-family="sans-serif" font-size="27.0833" lengthAdjust="spacingAndGlyphs" textLength="45.8333" x="2673.3214" y="1514.3291">0..1</text><text fill="#000000" font-family="sans-serif" font-size="27.0833" lengthAdjust="spacingAndGlyphs" textLength="10.4167" x="2753.6155" y="1608.9678">*</text><path d="M2804.0417,1819.0958 C2808.125,1912.0083 2814.4792,2056.4979 2819.125,2162.0646 " fill="none" style="stroke: #A80036; stroke-width: 2.0833333333333335;"/><polygon fill="none" points="2833.7083,2161.6875,2820.9583,2203.9542,2804.5625,2162.9688,2833.7083,2161.6875" style="stroke: #A80036; stroke-width: 2.0833333333333335;"/><text fill="#000000" font-family="sans-serif" font-size="27.0833" lengthAdjust="spacingAndGlyphs" textLength="95.8333" x="2808.3333" y="1911.4482">extends</text><path d="M2819.6042,2433.9188 C2815.3542,2539.5229 2809.5208,2684.0063 2805.7917,2776.8708 " fill="none" style="stroke: #A80036; stroke-width: 2.0833333333333335;"/><polygon fill="none" points="2805.0417,2433.0583,2821.2917,2392.0125,2834.1875,2434.2313,2805.0417,2433.0583" style="stroke: #A80036; stroke-width: 2.0833333333333335;"/><text fill="#000000" font-family="sans-serif" font-size="27.0833" lengthAdjust="spacingAndGlyphs" textLength="95.8333" x="2810.4167" y="2707.2815">extends</text><path d="M2797.9375,2991.8854 C2796.75,3025.4875 2795.4583,3062.925 2794.1667,3099.6229 " fill="none" style="stroke: #A80036; stroke-width: 2.0833333333333335;"/><polygon fill="#FFFFFF" points="2793.2292,3126.8042,2801.994,3114.6028,2794.1023,3101.8194,2785.3375,3114.0208,2793.2292,3126.8042" style="stroke: #A80036; stroke-width: 2.0833333333333335;"/><polygon fill="#A80036" points="2798.875,2964.5854,2789.894,2983.0339,2798.5124,2974.9958,2806.5505,2983.6142,2798.875,2964.5854" style="stroke: #A80036; stroke-width: 2.0833333333333335;"/><line style="stroke: #A80036; stroke-width: 2.0833333333333335;" x1="2798.5124" x2="2797.9375" y1="2974.9958" y2="2991.651"/><text fill="#000000" font-family="sans-serif" font-size="27.0833" lengthAdjust="spacingAndGlyphs" textLength="193.75" x="2797.9167" y="3057.2815">apduResponses</text><text fill="#000000" font-family="sans-serif" font-size="27.0833" lengthAdjust="spacingAndGlyphs" textLength="10.4167" x="2787.2747" y="3008.3515">*</text><text fill="#000000" font-family="sans-serif" font-size="27.0833" lengthAdjust="spacingAndGlyphs" textLength="45.8333" x="2745.7576" y="3104.2503">0..1</text><path d="M2010.3917,3292.7083 C2069.6042,3292.7083 2133.3333,3292.7083 2197.8958,3292.7083 " fill="none" style="stroke: #A80036; stroke-width: 2.0833333333333335;"/><polygon fill="#A80036" points="2225.6042,3292.7083,2206.8542,3284.375,2215.1875,3292.7083,2206.8542,3301.0417,2225.6042,3292.7083" style="stroke: #A80036; stroke-width: 2.0833333333333335;"/><line style="stroke: #A80036; stroke-width: 2.0833333333333335;" x1="2215.1875" x2="2198.5208" y1="3292.7083" y2="3292.7083"/><polygon fill="#FFFFFF" points="1982.7688,3292.7083,1995.2688,3301.0417,2007.7688,3292.7083,1995.2688,3284.375,1982.7688,3292.7083" style="stroke: #A80036; stroke-width: 2.0833333333333335;"/><text fill="#000000" font-family="sans-serif" font-size="27.0833" lengthAdjust="spacingAndGlyphs" textLength="164.5833" x="2021.875" y="3279.1565">seResponses</text><text fill="#000000" font-family="sans-serif" font-size="27.0833" lengthAdjust="spacingAndGlyphs" textLength="45.8333" x="1998.6381" y="3321.6918">0..1</text><text fill="#000000" font-family="sans-serif" font-size="27.0833" lengthAdjust="spacingAndGlyphs" textLength="16.6667" x="2192.0088" y="3287.0156">+</text><path d="M2263.2083,1824.8458 C2210.0208,1901.2667 2134.4375,2009.8833 2069.2375,2103.5542 " fill="none" style="stroke: #A80036; stroke-width: 2.0833333333333335;"/><polygon fill="none" points="2251.6042,1815.9917,2287.375,1790.1229,2275.5417,1832.6521,2251.6042,1815.9917" style="stroke: #A80036; stroke-width: 2.0833333333333335;"/><text fill="#000000" font-family="sans-serif" font-size="27.0833" lengthAdjust="spacingAndGlyphs" textLength="95.8333" x="2214.5833" y="1911.4482">extends</text><path d="M2341.6458,1832.2917 C2352.875,1945.7771 2370.4583,2123.4896 2380.2708,2222.6667 " fill="none" style="stroke: #A80036; stroke-width: 2.0833333333333335;"/><polygon fill="none" points="2327.0833,1833.0229,2337.4792,1790.1229,2356.1042,1830.1521,2327.0833,1833.0229" style="stroke: #A80036; stroke-width: 2.0833333333333335;"/><text fill="#000000" font-family="sans-serif" font-size="27.0833" lengthAdjust="spacingAndGlyphs" textLength="95.8333" x="2350" y="1911.4482">extends</text><path d="M2513.6875,1469.3958 C2464.5,1537.7375 2412.5208,1609.9938 2376.6667,1659.8063 " fill="none" style="stroke: #A80036; stroke-width: 2.0833333333333335;"/><text fill="#000000" font-family="sans-serif" font-size="27.0833" lengthAdjust="spacingAndGlyphs" textLength="206.25" x="2464.5833" y="1561.4482">SE Protocol Flag</text><path d="M1865.1104,1725 C1992.2875,1725 2127.6667,1725 2219.5625,1725 " fill="none" style="stroke: #A80036; stroke-width: 2.0833333333333335;"/><text fill="#000000" font-family="sans-serif" font-size="27.0833" lengthAdjust="spacingAndGlyphs" textLength="254.1667" x="1915.1042" y="1711.4482">SE Protocol Settings</text></g></svg>