<?xml version="1.0" encoding="UTF-8" standalone="no"?><svg xmlns="http://www.w3.org/2000/svg" xmlns:xlink="http://www.w3.org/1999/xlink" contentScriptType="application/ecmascript" contentStyleType="text/css" height="1616.6667px" preserveAspectRatio="none" style="width:2275px;height:1616px;" version="1.1" viewBox="0 0 2275 1616" width="2275px" zoomAndPan="magnify"><defs><filter height="300%" id="f1oqk86q2caeid" width="300%" x="-1" y="-1"><feGaussianBlur result="blurOut" stdDeviation="4.166666666666667"/><feColorMatrix in="blurOut" result="blurOut2" type="matrix" values="0 0 0 0 0 0 0 0 0 0 0 0 0 0 0 0 0 0 .4 0"/><feOffset dx="8.333333333333334" dy="8.333333333333334" in="blurOut2" result="blurOut3"/><feBlend in="SourceGraphic" in2="blurOut3" mode="normal"/></filter></defs><g><!--cluster org.eclipse.keyple.seproxy.plugin--><polygon fill="#FFFFFF" filter="url(#f1oqk86q2caeid)" points="197.9167,564.5833,704.1667,564.5833,718.75,613.7695,1693.75,613.7695,1693.75,1077.0833,197.9167,1077.0833,197.9167,564.5833" style="stroke: #000000; stroke-width: 3.125;"/><line style="stroke: #000000; stroke-width: 3.125;" x1="197.9167" x2="718.75" y1="613.7695" y2="613.7695"/><text fill="#000000" font-family="sans-serif" font-size="29.1667" font-weight="bold" lengthAdjust="spacingAndGlyphs" textLength="493.75" x="206.25" y="599.0275">org.eclipse.keyple.seproxy.plugin</text><!--cluster plugin.remotese--><polygon fill="#FFCCFF" filter="url(#f1oqk86q2caeid)" points="45.8333,50,297.9167,50,312.5,99.1862,1116.6667,99.1862,1116.6667,460.4167,45.8333,460.4167,45.8333,50" style="stroke: #000000; stroke-width: 3.125;"/><line style="stroke: #000000; stroke-width: 3.125;" x1="45.8333" x2="312.5" y1="99.1862" y2="99.1862"/><text fill="#000000" font-family="sans-serif" font-size="29.1667" font-weight="bold" lengthAdjust="spacingAndGlyphs" textLength="239.5833" x="54.1667" y="84.4442">plugin.remotese</text><!--cluster plugin.androidnfc--><polygon fill="#FFCCFF" filter="url(#f1oqk86q2caeid)" points="1143.75,1181.25,1414.5833,1181.25,1429.1667,1230.4362,2229.1667,1230.4362,2229.1667,1591.6667,1143.75,1591.6667,1143.75,1181.25" style="stroke: #000000; stroke-width: 3.125;"/><line style="stroke: #000000; stroke-width: 3.125;" x1="1143.75" x2="1429.1667" y1="1230.4362" y2="1230.4362"/><text fill="#000000" font-family="sans-serif" font-size="29.1667" font-weight="bold" lengthAdjust="spacingAndGlyphs" textLength="258.3333" x="1152.0833" y="1215.6942">plugin.androidnfc</text><!--cluster org.eclipse.keyple.plugin.android.omapi--><polygon fill="#FFCCFF" filter="url(#f1oqk86q2caeid)" points="70.8333,1223.9583,668.75,1223.9583,683.3333,1273.1445,1093.75,1273.1445,1093.75,1548.9583,70.8333,1548.9583,70.8333,1223.9583" style="stroke: #000000; stroke-width: 3.125;"/><line style="stroke: #000000; stroke-width: 3.125;" x1="70.8333" x2="683.3333" y1="1273.1445" y2="1273.1445"/><text fill="#000000" font-family="sans-serif" font-size="29.1667" font-weight="bold" lengthAdjust="spacingAndGlyphs" textLength="585.4167" x="79.1667" y="1258.4025">org.eclipse.keyple.plugin.android.omapi</text><!--cluster plugin.pcsc--><polygon fill="#FFCCFF" filter="url(#f1oqk86q2caeid)" points="1166.6667,50,1347.9167,50,1362.5,99.1862,2118.75,99.1862,2118.75,460.4167,1166.6667,460.4167,1166.6667,50" style="stroke: #000000; stroke-width: 3.125;"/><line style="stroke: #000000; stroke-width: 3.125;" x1="1166.6667" x2="1362.5" y1="99.1862" y2="99.1862"/><text fill="#000000" font-family="sans-serif" font-size="29.1667" font-weight="bold" lengthAdjust="spacingAndGlyphs" textLength="168.75" x="1175" y="84.4442">plugin.pcsc</text><!--class AbstractStaticPlugin--><rect fill="#FEFECE" filter="url(#f1oqk86q2caeid)" height="100" id="AbstractStaticPlugin" style="stroke: #A80036; stroke-width: 3.125;" width="295.8333" x="747.9167" y="943.75"/><ellipse cx="779.1667" cy="977.0833" fill="#A9DCDF" rx="22.9167" ry="22.9167" style="stroke: #A80036; stroke-width: 2.0833333333333335;"/><path d="M783.724,980.7617 L775.0977,980.7617 L774.2188,982.9102 L775.0977,982.9102 Q776.3672,982.9102 776.9206,983.3984 Q777.474,983.8867 777.474,984.7005 Q777.474,985.4818 776.9206,985.9701 Q776.3672,986.4583 775.0977,986.4583 L770.3125,986.4583 Q769.043,986.4583 768.5059,985.9701 Q767.9688,985.4818 767.9688,984.668 Q767.9688,983.8867 768.5384,983.3822 Q769.1081,982.8776 770.4102,982.9102 L775.9766,969.043 L773.6654,969.043 Q772.3958,969.043 771.8424,968.5547 Q771.2891,968.0664 771.2891,967.2526 Q771.2891,966.4714 771.8424,965.9831 Q772.3958,965.4948 773.6654,965.4948 L781.3151,965.4948 L788.3789,982.9102 Q789.6159,982.9102 790.0065,983.2031 Q790.8203,983.7565 790.8203,984.7005 Q790.8203,985.4818 790.2832,985.9701 Q789.7461,986.4583 788.4766,986.4583 L783.6914,986.4583 Q782.4219,986.4583 781.8685,985.9701 Q781.3151,985.4818 781.3151,984.668 Q781.3151,983.8867 781.8685,983.3984 Q782.4219,982.9102 783.6914,982.9102 L784.5703,982.9102 L783.724,980.7617 Z M782.2266,977.2135 L779.3945,970.1823 L776.5299,977.2135 L782.2266,977.2135 Z "/><text fill="#000000" font-family="sans-serif" font-size="25" font-style="italic" lengthAdjust="spacingAndGlyphs" textLength="229.1667" x="808.3333" y="987.3128">AbstractStaticPlugin</text><line style="stroke: #A80036; stroke-width: 3.125;" x1="750" x2="1041.6667" y1="1010.4167" y2="1010.4167"/><line style="stroke: #A80036; stroke-width: 3.125;" x1="750" x2="1041.6667" y1="1027.0833" y2="1027.0833"/><!--class AbstractThreadedObservablePlugin--><rect fill="#FEFECE" filter="url(#f1oqk86q2caeid)" height="100" id="AbstractThreadedObservablePlugin" style="stroke: #A80036; stroke-width: 3.125;" width="479.1667" x="687.5" y="681.25"/><ellipse cx="718.75" cy="714.5833" fill="#A9DCDF" rx="22.9167" ry="22.9167" style="stroke: #A80036; stroke-width: 2.0833333333333335;"/><path d="M723.3073,718.2617 L714.681,718.2617 L713.8021,720.4102 L714.681,720.4102 Q715.9505,720.4102 716.5039,720.8984 Q717.0573,721.3867 717.0573,722.2005 Q717.0573,722.9818 716.5039,723.4701 Q715.9505,723.9583 714.681,723.9583 L709.8958,723.9583 Q708.6263,723.9583 708.0892,723.4701 Q707.5521,722.9818 707.5521,722.168 Q707.5521,721.3867 708.1217,720.8822 Q708.6914,720.3776 709.9935,720.4102 L715.5599,706.543 L713.2487,706.543 Q711.9792,706.543 711.4258,706.0547 Q710.8724,705.5664 710.8724,704.7526 Q710.8724,703.9714 711.4258,703.4831 Q711.9792,702.9948 713.2487,702.9948 L720.8984,702.9948 L727.9622,720.4102 Q729.1992,720.4102 729.5898,720.7031 Q730.4036,721.2565 730.4036,722.2005 Q730.4036,722.9818 729.8665,723.4701 Q729.3294,723.9583 728.0599,723.9583 L723.2747,723.9583 Q722.0052,723.9583 721.4518,723.4701 Q720.8984,722.9818 720.8984,722.168 Q720.8984,721.3867 721.4518,720.8984 Q722.0052,720.4102 723.2747,720.4102 L724.1536,720.4102 L723.3073,718.2617 Z M721.8099,714.7135 L718.9779,707.6823 L716.1133,714.7135 L721.8099,714.7135 Z "/><text fill="#000000" font-family="sans-serif" font-size="25" font-style="italic" lengthAdjust="spacingAndGlyphs" textLength="412.5" x="747.9167" y="724.8128">AbstractThreadedObservablePlugin</text><line style="stroke: #A80036; stroke-width: 3.125;" x1="689.5833" x2="1164.5833" y1="747.9167" y2="747.9167"/><line style="stroke: #A80036; stroke-width: 3.125;" x1="689.5833" x2="1164.5833" y1="764.5833" y2="764.5833"/><!--class AbstractObservableReader--><rect fill="#FEFECE" filter="url(#f1oqk86q2caeid)" height="100" id="AbstractObservableReader" style="stroke: #A80036; stroke-width: 3.125;" width="381.25" x="232.2917" y="681.25"/><ellipse cx="263.5417" cy="714.5833" fill="#A9DCDF" rx="22.9167" ry="22.9167" style="stroke: #A80036; stroke-width: 2.0833333333333335;"/><path d="M268.099,718.2617 L259.4727,718.2617 L258.5938,720.4102 L259.4727,720.4102 Q260.7422,720.4102 261.2956,720.8984 Q261.849,721.3867 261.849,722.2005 Q261.849,722.9818 261.2956,723.4701 Q260.7422,723.9583 259.4727,723.9583 L254.6875,723.9583 Q253.418,723.9583 252.8809,723.4701 Q252.3438,722.9818 252.3438,722.168 Q252.3438,721.3867 252.9134,720.8822 Q253.4831,720.3776 254.7852,720.4102 L260.3516,706.543 L258.0404,706.543 Q256.7708,706.543 256.2174,706.0547 Q255.6641,705.5664 255.6641,704.7526 Q255.6641,703.9714 256.2174,703.4831 Q256.7708,702.9948 258.0404,702.9948 L265.6901,702.9948 L272.7539,720.4102 Q273.9909,720.4102 274.3815,720.7031 Q275.1953,721.2565 275.1953,722.2005 Q275.1953,722.9818 274.6582,723.4701 Q274.1211,723.9583 272.8516,723.9583 L268.0664,723.9583 Q266.7969,723.9583 266.2435,723.4701 Q265.6901,722.9818 265.6901,722.168 Q265.6901,721.3867 266.2435,720.8984 Q266.7969,720.4102 268.0664,720.4102 L268.9453,720.4102 L268.099,718.2617 Z M266.6016,714.7135 L263.7695,707.6823 L260.9049,714.7135 L266.6016,714.7135 Z "/><text fill="#000000" font-family="sans-serif" font-size="25" font-style="italic" lengthAdjust="spacingAndGlyphs" textLength="314.5833" x="292.7083" y="724.8128">AbstractObservableReader</text><line style="stroke: #A80036; stroke-width: 3.125;" x1="234.375" x2="611.4583" y1="747.9167" y2="747.9167"/><line style="stroke: #A80036; stroke-width: 3.125;" x1="234.375" x2="611.4583" y1="764.5833" y2="764.5833"/><!--class AbstractLocalReader--><rect fill="#FEFECE" filter="url(#f1oqk86q2caeid)" height="100" id="AbstractLocalReader" style="stroke: #A80036; stroke-width: 3.125;" width="308.3333" x="366.6667" y="943.75"/><ellipse cx="397.9167" cy="977.0833" fill="#A9DCDF" rx="22.9167" ry="22.9167" style="stroke: #A80036; stroke-width: 2.0833333333333335;"/><path d="M402.474,980.7617 L393.8477,980.7617 L392.9688,982.9102 L393.8477,982.9102 Q395.1172,982.9102 395.6706,983.3984 Q396.224,983.8867 396.224,984.7005 Q396.224,985.4818 395.6706,985.9701 Q395.1172,986.4583 393.8477,986.4583 L389.0625,986.4583 Q387.793,986.4583 387.2559,985.9701 Q386.7188,985.4818 386.7188,984.668 Q386.7188,983.8867 387.2884,983.3822 Q387.8581,982.8776 389.1602,982.9102 L394.7266,969.043 L392.4154,969.043 Q391.1458,969.043 390.5924,968.5547 Q390.0391,968.0664 390.0391,967.2526 Q390.0391,966.4714 390.5924,965.9831 Q391.1458,965.4948 392.4154,965.4948 L400.0651,965.4948 L407.1289,982.9102 Q408.3659,982.9102 408.7565,983.2031 Q409.5703,983.7565 409.5703,984.7005 Q409.5703,985.4818 409.0332,985.9701 Q408.4961,986.4583 407.2266,986.4583 L402.4414,986.4583 Q401.1719,986.4583 400.6185,985.9701 Q400.0651,985.4818 400.0651,984.668 Q400.0651,983.8867 400.6185,983.3984 Q401.1719,982.9102 402.4414,982.9102 L403.3203,982.9102 L402.474,980.7617 Z M400.9766,977.2135 L398.1445,970.1823 L395.2799,977.2135 L400.9766,977.2135 Z "/><text fill="#000000" font-family="sans-serif" font-size="25" font-style="italic" lengthAdjust="spacingAndGlyphs" textLength="241.6667" x="427.0833" y="987.3128">AbstractLocalReader</text><line style="stroke: #A80036; stroke-width: 3.125;" x1="368.75" x2="672.9167" y1="1010.4167" y2="1010.4167"/><line style="stroke: #A80036; stroke-width: 3.125;" x1="368.75" x2="672.9167" y1="1027.0833" y2="1027.0833"/><!--class AbstractSelectionLocalReader--><rect fill="#FEFECE" filter="url(#f1oqk86q2caeid)" height="100" id="AbstractSelectionLocalReader" style="stroke: #A80036; stroke-width: 3.125;" width="414.5833" x="1146.875" y="943.75"/><ellipse cx="1178.125" cy="977.0833" fill="#A9DCDF" rx="22.9167" ry="22.9167" style="stroke: #A80036; stroke-width: 2.0833333333333335;"/><path d="M1182.6823,980.7617 L1174.056,980.7617 L1173.1771,982.9102 L1174.056,982.9102 Q1175.3255,982.9102 1175.8789,983.3984 Q1176.4323,983.8867 1176.4323,984.7005 Q1176.4323,985.4818 1175.8789,985.9701 Q1175.3255,986.4583 1174.056,986.4583 L1169.2708,986.4583 Q1168.0013,986.4583 1167.4642,985.9701 Q1166.9271,985.4818 1166.9271,984.668 Q1166.9271,983.8867 1167.4967,983.3822 Q1168.0664,982.8776 1169.3685,982.9102 L1174.9349,969.043 L1172.6237,969.043 Q1171.3542,969.043 1170.8008,968.5547 Q1170.2474,968.0664 1170.2474,967.2526 Q1170.2474,966.4714 1170.8008,965.9831 Q1171.3542,965.4948 1172.6237,965.4948 L1180.2734,965.4948 L1187.3372,982.9102 Q1188.5742,982.9102 1188.9648,983.2031 Q1189.7786,983.7565 1189.7786,984.7005 Q1189.7786,985.4818 1189.2415,985.9701 Q1188.7044,986.4583 1187.4349,986.4583 L1182.6497,986.4583 Q1181.3802,986.4583 1180.8268,985.9701 Q1180.2734,985.4818 1180.2734,984.668 Q1180.2734,983.8867 1180.8268,983.3984 Q1181.3802,982.9102 1182.6497,982.9102 L1183.5286,982.9102 L1182.6823,980.7617 Z M1181.1849,977.2135 L1178.3529,970.1823 L1175.4883,977.2135 L1181.1849,977.2135 Z "/><text fill="#000000" font-family="sans-serif" font-size="25" font-style="italic" lengthAdjust="spacingAndGlyphs" textLength="347.9167" x="1207.2917" y="987.3128">AbstractSelectionLocalReader</text><line style="stroke: #A80036; stroke-width: 3.125;" x1="1148.9583" x2="1559.375" y1="1010.4167" y2="1010.4167"/><line style="stroke: #A80036; stroke-width: 3.125;" x1="1148.9583" x2="1559.375" y1="1027.0833" y2="1027.0833"/><!--class AbstractThreadedLocalReader--><rect fill="#FEFECE" filter="url(#f1oqk86q2caeid)" height="100" id="AbstractThreadedLocalReader" style="stroke: #A80036; stroke-width: 3.125;" width="418.75" x="1240.625" y="681.25"/><ellipse cx="1271.875" cy="714.5833" fill="#A9DCDF" rx="22.9167" ry="22.9167" style="stroke: #A80036; stroke-width: 2.0833333333333335;"/><path d="M1276.4323,718.2617 L1267.806,718.2617 L1266.9271,720.4102 L1267.806,720.4102 Q1269.0755,720.4102 1269.6289,720.8984 Q1270.1823,721.3867 1270.1823,722.2005 Q1270.1823,722.9818 1269.6289,723.4701 Q1269.0755,723.9583 1267.806,723.9583 L1263.0208,723.9583 Q1261.7513,723.9583 1261.2142,723.4701 Q1260.6771,722.9818 1260.6771,722.168 Q1260.6771,721.3867 1261.2467,720.8822 Q1261.8164,720.3776 1263.1185,720.4102 L1268.6849,706.543 L1266.3737,706.543 Q1265.1042,706.543 1264.5508,706.0547 Q1263.9974,705.5664 1263.9974,704.7526 Q1263.9974,703.9714 1264.5508,703.4831 Q1265.1042,702.9948 1266.3737,702.9948 L1274.0234,702.9948 L1281.0872,720.4102 Q1282.3242,720.4102 1282.7148,720.7031 Q1283.5286,721.2565 1283.5286,722.2005 Q1283.5286,722.9818 1282.9915,723.4701 Q1282.4544,723.9583 1281.1849,723.9583 L1276.3997,723.9583 Q1275.1302,723.9583 1274.5768,723.4701 Q1274.0234,722.9818 1274.0234,722.168 Q1274.0234,721.3867 1274.5768,720.8984 Q1275.1302,720.4102 1276.3997,720.4102 L1277.2786,720.4102 L1276.4323,718.2617 Z M1274.9349,714.7135 L1272.1029,707.6823 L1269.2383,714.7135 L1274.9349,714.7135 Z "/><text fill="#000000" font-family="sans-serif" font-size="25" font-style="italic" lengthAdjust="spacingAndGlyphs" textLength="352.0833" x="1301.0417" y="724.8128">AbstractThreadedLocalReader</text><line style="stroke: #A80036; stroke-width: 3.125;" x1="1242.7083" x2="1657.2917" y1="747.9167" y2="747.9167"/><line style="stroke: #A80036; stroke-width: 3.125;" x1="1242.7083" x2="1657.2917" y1="764.5833" y2="764.5833"/><!--class RemoteSePlugin--><rect fill="#FEFECE" filter="url(#f1oqk86q2caeid)" height="261.1816" id="RemoteSePlugin" style="stroke: #A80036; stroke-width: 3.125;" width="483.3333" x="600" y="166.6667"/><ellipse cx="695.3125" cy="208.5286" fill="#ADD1B2" rx="22.9167" ry="22.9167" style="stroke: #A80036; stroke-width: 2.0833333333333335;"/><path d="M701.0742,199.9349 Q701.3997,199.4792 701.7904,199.2513 Q702.181,199.0234 702.6367,199.0234 Q703.418,199.0234 703.9063,199.5605 Q704.3945,200.0977 704.3945,201.3672 L704.3945,204.3945 Q704.3945,205.6641 703.9063,206.2174 Q703.418,206.7708 702.6367,206.7708 Q701.9206,206.7708 701.4974,206.3477 Q701.0742,205.957 700.8464,204.8828 Q700.7487,204.1341 700.3581,203.7435 Q699.6745,202.9622 698.4049,202.5065 Q697.1354,202.0508 695.8333,202.0508 Q694.2383,202.0508 692.9199,202.7344 Q691.6016,203.418 690.5762,204.9805 Q689.5508,206.543 689.5508,208.6914 L689.5508,210.9701 Q689.5508,213.5417 691.4063,215.2507 Q693.2617,216.9596 696.582,216.9596 Q698.5352,216.9596 699.9023,216.4388 Q700.7161,216.1133 701.5951,215.2018 Q702.1484,214.6484 702.4577,214.4857 Q702.7669,214.3229 703.1901,214.3229 Q703.8737,214.3229 704.4108,214.86 Q704.9479,215.3971 704.9479,216.1133 Q704.9479,216.8294 704.2318,217.6758 Q703.1901,218.8802 701.5299,219.5638 Q699.2839,220.5078 696.582,220.5078 Q693.4245,220.5078 690.918,219.2057 Q688.8672,218.1641 687.4349,215.9342 Q686.0026,213.7044 686.0026,211.0352 L686.0026,208.6263 Q686.0026,205.8594 687.2884,203.4668 Q688.5742,201.0742 690.8529,199.7884 Q693.1315,198.5026 695.7031,198.5026 Q697.2331,198.5026 698.584,198.8444 Q699.9349,199.1862 701.0742,199.9349 Z "/><text fill="#000000" font-family="sans-serif" font-size="25" font-style="italic" lengthAdjust="spacingAndGlyphs" textLength="137.5" x="806.7708" y="203.0355">«Singleton»</text><ellipse cx="748.4375" cy="223.2096" fill="#84BE84" rx="6.25" ry="6.25" style="stroke: #038048; stroke-width: 2.0833333333333335;"/><text fill="#000000" font-family="sans-serif" font-size="25" font-weight="bold" lengthAdjust="spacingAndGlyphs" textLength="50" x="760.9375" y="234.4808">final</text><text fill="#000000" font-family="sans-serif" font-size="25" lengthAdjust="spacingAndGlyphs" textLength="195.8333" x="817.1875" y="234.4808">RemoteSePlugin</text><line style="stroke: #A80036; stroke-width: 3.125;" x1="602.0833" x2="1081.25" y1="250.3906" y2="250.3906"/><rect fill="none" height="12.5" style="stroke: #C82930; stroke-width: 2.0833333333333335;" width="12.5" x="616.6667" y="270.0114"/><text fill="#000000" font-family="sans-serif" font-size="22.9167" lengthAdjust="spacingAndGlyphs" textLength="118.75" x="641.6667" y="282.5134">String name</text><line style="stroke: #A80036; stroke-width: 3.125;" x1="602.0833" x2="1081.25" y1="295.8822" y2="295.8822"/><rect fill="#F24D5C" height="12.5" style="stroke: #C82930; stroke-width: 2.0833333333333335;" width="12.5" x="616.6667" y="315.5029"/><text fill="#000000" font-family="sans-serif" font-size="22.9167" lengthAdjust="spacingAndGlyphs" textLength="177.0833" x="641.6667" y="328.005">RemoteSePlugin()</text><ellipse cx="622.9167" cy="350.5778" fill="#84BE84" rx="6.25" ry="6.25" style="stroke: #038048; stroke-width: 2.0833333333333335;"/><text fill="#000000" font-family="sans-serif" font-size="22.9167" lengthAdjust="spacingAndGlyphs" text-decoration="underline" textLength="300" x="641.6667" y="356.8298">RemoteSePlugin getInstance()</text><line style="stroke: #000000; stroke-width: 1.0;" x1="641.6667" x2="941.6667" y1="360.9965" y2="360.9965"/><ellipse cx="622.9167" cy="379.4027" fill="#84BE84" rx="6.25" ry="6.25" style="stroke: #038048; stroke-width: 2.0833333333333335;"/><text fill="#000000" font-family="sans-serif" font-size="22.9167" font-weight="bold" lengthAdjust="spacingAndGlyphs" textLength="47.9167" x="641.6667" y="385.6547">final</text><text fill="#000000" font-family="sans-serif" font-size="22.9167" lengthAdjust="spacingAndGlyphs" textLength="168.75" x="695.8333" y="385.6547">String getName()</text><ellipse cx="622.9167" cy="408.2275" fill="#84BE84" rx="6.25" ry="6.25" style="stroke: #038048; stroke-width: 2.0833333333333335;"/><text fill="#000000" font-family="sans-serif" font-size="22.9167" font-weight="bold" lengthAdjust="spacingAndGlyphs" textLength="47.9167" x="641.6667" y="414.4796">final</text><text fill="#000000" font-family="sans-serif" font-size="22.9167" lengthAdjust="spacingAndGlyphs" textLength="375" x="695.8333" y="414.4796">List&lt;RemoteSeReader&gt; getReaders()</text><!--class RemoteSeReader--><rect fill="#FEFECE" filter="url(#f1oqk86q2caeid)" height="203.5319" id="RemoteSeReader" style="stroke: #A80036; stroke-width: 3.125;" width="354.1667" x="79.1667" y="194.7917"/><ellipse cx="110.4167" cy="236.6536" fill="#ADD1B2" rx="22.9167" ry="22.9167" style="stroke: #A80036; stroke-width: 2.0833333333333335;"/><path d="M116.1784,228.0599 Q116.5039,227.6042 116.8945,227.3763 Q117.2852,227.1484 117.7409,227.1484 Q118.5221,227.1484 119.0104,227.6855 Q119.4987,228.2227 119.4987,229.4922 L119.4987,232.5195 Q119.4987,233.7891 119.0104,234.3424 Q118.5221,234.8958 117.7409,234.8958 Q117.0247,234.8958 116.6016,234.4727 Q116.1784,234.082 115.9505,233.0078 Q115.8529,232.2591 115.4622,231.8685 Q114.7786,231.0872 113.5091,230.6315 Q112.2396,230.1758 110.9375,230.1758 Q109.3424,230.1758 108.0241,230.8594 Q106.7057,231.543 105.6803,233.1055 Q104.6549,234.668 104.6549,236.8164 L104.6549,239.0951 Q104.6549,241.6667 106.5104,243.3757 Q108.3659,245.0846 111.6862,245.0846 Q113.6393,245.0846 115.0065,244.5638 Q115.8203,244.2383 116.6992,243.3268 Q117.2526,242.7734 117.5618,242.6107 Q117.8711,242.4479 118.2943,242.4479 Q118.9779,242.4479 119.515,242.985 Q120.0521,243.5221 120.0521,244.2383 Q120.0521,244.9544 119.3359,245.8008 Q118.2943,247.0052 116.6341,247.6888 Q114.388,248.6328 111.6862,248.6328 Q108.5286,248.6328 106.0221,247.3307 Q103.9714,246.2891 102.5391,244.0592 Q101.1068,241.8294 101.1068,239.1602 L101.1068,236.7513 Q101.1068,233.9844 102.3926,231.5918 Q103.6784,229.1992 105.957,227.9134 Q108.2357,226.6276 110.8073,226.6276 Q112.3372,226.6276 113.6882,226.9694 Q115.0391,227.3112 116.1784,228.0599 Z "/><text fill="#000000" font-family="sans-serif" font-size="25" font-style="italic" lengthAdjust="spacingAndGlyphs" textLength="137.5" x="214.5833" y="231.1605">«Singleton»</text><ellipse cx="150" cy="251.3346" fill="#84BE84" rx="6.25" ry="6.25" style="stroke: #038048; stroke-width: 2.0833333333333335;"/><text fill="#000000" font-family="sans-serif" font-size="25" font-weight="bold" lengthAdjust="spacingAndGlyphs" textLength="50" x="162.5" y="262.6058">final</text><text fill="#000000" font-family="sans-serif" font-size="25" lengthAdjust="spacingAndGlyphs" textLength="208.3333" x="218.75" y="262.6058">RemoteSeReader</text><line style="stroke: #A80036; stroke-width: 3.125;" x1="81.25" x2="431.25" y1="278.5156" y2="278.5156"/><rect fill="none" height="12.5" style="stroke: #C82930; stroke-width: 2.0833333333333335;" width="12.5" x="95.8333" y="298.1364"/><text fill="#000000" font-family="sans-serif" font-size="22.9167" lengthAdjust="spacingAndGlyphs" textLength="118.75" x="120.8333" y="310.6384">String name</text><line style="stroke: #A80036; stroke-width: 3.125;" x1="81.25" x2="431.25" y1="324.0072" y2="324.0072"/><polygon fill="#FFFF44" points="102.0833,339.4613,110.4167,347.7946,102.0833,356.1279,93.75,347.7946" style="stroke: #B38D22; stroke-width: 2.0833333333333335;"/><text fill="#000000" font-family="sans-serif" font-size="22.9167" lengthAdjust="spacingAndGlyphs" textLength="191.6667" x="120.8333" y="356.13">RemoteSeReader()</text><ellipse cx="102.0833" cy="378.7028" fill="#84BE84" rx="6.25" ry="6.25" style="stroke: #038048; stroke-width: 2.0833333333333335;"/><text fill="#000000" font-family="sans-serif" font-size="22.9167" font-weight="bold" lengthAdjust="spacingAndGlyphs" textLength="47.9167" x="120.8333" y="384.9548">final</text><text fill="#000000" font-family="sans-serif" font-size="22.9167" lengthAdjust="spacingAndGlyphs" textLength="168.75" x="175" y="384.9548">String getName()</text><!--class AndroidNfcPlugin--><rect fill="#FEFECE" filter="url(#f1oqk86q2caeid)" height="261.1816" id="AndroidNfcPlugin" style="stroke: #A80036; stroke-width: 3.125;" width="495.8333" x="1177.0833" y="1297.9167"/><ellipse cx="1277.6042" cy="1339.7786" fill="#ADD1B2" rx="22.9167" ry="22.9167" style="stroke: #A80036; stroke-width: 2.0833333333333335;"/><path d="M1283.3659,1331.1849 Q1283.6914,1330.7292 1284.082,1330.5013 Q1284.4727,1330.2734 1284.9284,1330.2734 Q1285.7096,1330.2734 1286.1979,1330.8105 Q1286.6862,1331.3477 1286.6862,1332.6172 L1286.6862,1335.6445 Q1286.6862,1336.9141 1286.1979,1337.4674 Q1285.7096,1338.0208 1284.9284,1338.0208 Q1284.2122,1338.0208 1283.7891,1337.5977 Q1283.3659,1337.207 1283.138,1336.1328 Q1283.0404,1335.3841 1282.6497,1334.9935 Q1281.9661,1334.2122 1280.6966,1333.7565 Q1279.4271,1333.3008 1278.125,1333.3008 Q1276.5299,1333.3008 1275.2116,1333.9844 Q1273.8932,1334.668 1272.8678,1336.2305 Q1271.8424,1337.793 1271.8424,1339.9414 L1271.8424,1342.2201 Q1271.8424,1344.7917 1273.6979,1346.5007 Q1275.5534,1348.2096 1278.8737,1348.2096 Q1280.8268,1348.2096 1282.194,1347.6888 Q1283.0078,1347.3633 1283.8867,1346.4518 Q1284.4401,1345.8984 1284.7493,1345.7357 Q1285.0586,1345.5729 1285.4818,1345.5729 Q1286.1654,1345.5729 1286.7025,1346.11 Q1287.2396,1346.6471 1287.2396,1347.3633 Q1287.2396,1348.0794 1286.5234,1348.9258 Q1285.4818,1350.1302 1283.8216,1350.8138 Q1281.5755,1351.7578 1278.8737,1351.7578 Q1275.7161,1351.7578 1273.2096,1350.4557 Q1271.1589,1349.4141 1269.7266,1347.1842 Q1268.2943,1344.9544 1268.2943,1342.2852 L1268.2943,1339.8763 Q1268.2943,1337.1094 1269.5801,1334.7168 Q1270.8659,1332.3242 1273.1445,1331.0384 Q1275.4232,1329.7526 1277.9948,1329.7526 Q1279.5247,1329.7526 1280.8757,1330.0944 Q1282.2266,1330.4362 1283.3659,1331.1849 Z "/><text fill="#000000" font-family="sans-serif" font-size="25" font-style="italic" lengthAdjust="spacingAndGlyphs" textLength="137.5" x="1390.1042" y="1334.2855">«Singleton»</text><ellipse cx="1330.7292" cy="1354.4596" fill="#84BE84" rx="6.25" ry="6.25" style="stroke: #038048; stroke-width: 2.0833333333333335;"/><text fill="#000000" font-family="sans-serif" font-size="25" font-weight="bold" lengthAdjust="spacingAndGlyphs" textLength="50" x="1343.2292" y="1365.7308">final</text><text fill="#000000" font-family="sans-serif" font-size="25" lengthAdjust="spacingAndGlyphs" textLength="197.9167" x="1399.4792" y="1365.7308">AndroidNfcPlugin</text><line style="stroke: #A80036; stroke-width: 3.125;" x1="1179.1667" x2="1670.8333" y1="1381.6406" y2="1381.6406"/><rect fill="none" height="12.5" style="stroke: #C82930; stroke-width: 2.0833333333333335;" width="12.5" x="1193.75" y="1401.2614"/><text fill="#000000" font-family="sans-serif" font-size="22.9167" lengthAdjust="spacingAndGlyphs" textLength="118.75" x="1218.75" y="1413.7634">String name</text><line style="stroke: #A80036; stroke-width: 3.125;" x1="1179.1667" x2="1670.8333" y1="1427.1322" y2="1427.1322"/><rect fill="#F24D5C" height="12.5" style="stroke: #C82930; stroke-width: 2.0833333333333335;" width="12.5" x="1193.75" y="1446.7529"/><text fill="#000000" font-family="sans-serif" font-size="22.9167" lengthAdjust="spacingAndGlyphs" textLength="189.5833" x="1218.75" y="1459.255">AndroidNfcPlugin()</text><ellipse cx="1200" cy="1481.8278" fill="#84BE84" rx="6.25" ry="6.25" style="stroke: #038048; stroke-width: 2.0833333333333335;"/><text fill="#000000" font-family="sans-serif" font-size="22.9167" lengthAdjust="spacingAndGlyphs" text-decoration="underline" textLength="312.5" x="1218.75" y="1488.0798">AndroidNfcPlugin getInstance()</text><line style="stroke: #000000; stroke-width: 1.0;" x1="1218.75" x2="1531.25" y1="1492.2465" y2="1492.2465"/><ellipse cx="1200" cy="1510.6527" fill="#84BE84" rx="6.25" ry="6.25" style="stroke: #038048; stroke-width: 2.0833333333333335;"/><text fill="#000000" font-family="sans-serif" font-size="22.9167" font-weight="bold" lengthAdjust="spacingAndGlyphs" textLength="47.9167" x="1218.75" y="1516.9047">final</text><text fill="#000000" font-family="sans-serif" font-size="22.9167" lengthAdjust="spacingAndGlyphs" textLength="168.75" x="1272.9167" y="1516.9047">String getName()</text><ellipse cx="1200" cy="1539.4775" fill="#84BE84" rx="6.25" ry="6.25" style="stroke: #038048; stroke-width: 2.0833333333333335;"/><text fill="#000000" font-family="sans-serif" font-size="22.9167" font-weight="bold" lengthAdjust="spacingAndGlyphs" textLength="47.9167" x="1218.75" y="1545.7296">final</text><text fill="#000000" font-family="sans-serif" font-size="22.9167" lengthAdjust="spacingAndGlyphs" textLength="387.5" x="1272.9167" y="1545.7296">List&lt;AndroidNfcReader&gt; getReaders()</text><!--class AndroidNfcReader--><rect fill="#FEFECE" filter="url(#f1oqk86q2caeid)" height="145.8822" id="AndroidNfcReader" style="stroke: #A80036; stroke-width: 3.125;" width="356.25" x="1838.5417" y="1355.2083"/><ellipse cx="1869.7917" cy="1397.0703" fill="#ADD1B2" rx="22.9167" ry="22.9167" style="stroke: #A80036; stroke-width: 2.0833333333333335;"/><path d="M1875.5534,1388.4766 Q1875.8789,1388.0208 1876.2695,1387.793 Q1876.6602,1387.5651 1877.1159,1387.5651 Q1877.8971,1387.5651 1878.3854,1388.1022 Q1878.8737,1388.6393 1878.8737,1389.9089 L1878.8737,1392.9362 Q1878.8737,1394.2057 1878.3854,1394.7591 Q1877.8971,1395.3125 1877.1159,1395.3125 Q1876.3997,1395.3125 1875.9766,1394.8893 Q1875.5534,1394.4987 1875.3255,1393.4245 Q1875.2279,1392.6758 1874.8372,1392.2852 Q1874.1536,1391.5039 1872.8841,1391.0482 Q1871.6146,1390.5924 1870.3125,1390.5924 Q1868.7174,1390.5924 1867.3991,1391.276 Q1866.0807,1391.9596 1865.0553,1393.5221 Q1864.0299,1395.0846 1864.0299,1397.2331 L1864.0299,1399.5117 Q1864.0299,1402.0833 1865.8854,1403.7923 Q1867.7409,1405.5013 1871.0612,1405.5013 Q1873.0143,1405.5013 1874.3815,1404.9805 Q1875.1953,1404.6549 1876.0742,1403.7435 Q1876.6276,1403.1901 1876.9368,1403.0273 Q1877.2461,1402.8646 1877.6693,1402.8646 Q1878.3529,1402.8646 1878.89,1403.4017 Q1879.4271,1403.9388 1879.4271,1404.6549 Q1879.4271,1405.3711 1878.7109,1406.2174 Q1877.6693,1407.4219 1876.0091,1408.1055 Q1873.763,1409.0495 1871.0612,1409.0495 Q1867.9036,1409.0495 1865.3971,1407.7474 Q1863.3464,1406.7057 1861.9141,1404.4759 Q1860.4818,1402.2461 1860.4818,1399.5768 L1860.4818,1397.168 Q1860.4818,1394.401 1861.7676,1392.0085 Q1863.0534,1389.6159 1865.332,1388.3301 Q1867.6107,1387.0443 1870.1823,1387.0443 Q1871.7122,1387.0443 1873.0632,1387.3861 Q1874.4141,1387.7279 1875.5534,1388.4766 Z "/><text fill="#000000" font-family="sans-serif" font-size="25" font-style="italic" lengthAdjust="spacingAndGlyphs" textLength="137.5" x="1975" y="1391.5771">«Singleton»</text><ellipse cx="1909.375" cy="1411.7513" fill="#84BE84" rx="6.25" ry="6.25" style="stroke: #038048; stroke-width: 2.0833333333333335;"/><text fill="#000000" font-family="sans-serif" font-size="25" font-weight="bold" lengthAdjust="spacingAndGlyphs" textLength="50" x="1921.875" y="1423.0225">final</text><text fill="#000000" font-family="sans-serif" font-size="25" lengthAdjust="spacingAndGlyphs" textLength="210.4167" x="1978.125" y="1423.0225">AndroidNfcReader</text><line style="stroke: #A80036; stroke-width: 3.125;" x1="1840.625" x2="2192.7083" y1="1438.9323" y2="1438.9323"/><line style="stroke: #A80036; stroke-width: 3.125;" x1="1840.625" x2="2192.7083" y1="1455.599" y2="1455.599"/><polygon fill="#FFFF44" points="1861.4583,1471.0531,1869.7917,1479.3864,1861.4583,1487.7197,1853.125,1479.3864" style="stroke: #B38D22; stroke-width: 2.0833333333333335;"/><text fill="#000000" font-family="sans-serif" font-size="22.9167" lengthAdjust="spacingAndGlyphs" textLength="204.1667" x="1880.2083" y="1487.7218">AndroidNfcReader()</text><!--class AndroidOmapiPlugin--><rect fill="#FEFECE" filter="url(#f1oqk86q2caeid)" height="174.707" id="AndroidOmapiPlugin" style="stroke: #A80036; stroke-width: 3.125;" width="393.75" x="665.625" y="1340.625"/><ellipse cx="698.75" cy="1382.487" fill="#ADD1B2" rx="22.9167" ry="22.9167" style="stroke: #A80036; stroke-width: 2.0833333333333335;"/><path d="M704.5117,1373.8932 Q704.8372,1373.4375 705.2279,1373.2096 Q705.6185,1372.9818 706.0742,1372.9818 Q706.8555,1372.9818 707.3438,1373.5189 Q707.832,1374.056 707.832,1375.3255 L707.832,1378.3529 Q707.832,1379.6224 707.3438,1380.1758 Q706.8555,1380.7292 706.0742,1380.7292 Q705.3581,1380.7292 704.9349,1380.306 Q704.5117,1379.9154 704.2839,1378.8411 Q704.1862,1378.0924 703.7956,1377.7018 Q703.112,1376.9206 701.8424,1376.4648 Q700.5729,1376.0091 699.2708,1376.0091 Q697.6758,1376.0091 696.3574,1376.6927 Q695.0391,1377.3763 694.0137,1378.9388 Q692.9883,1380.5013 692.9883,1382.6497 L692.9883,1384.9284 Q692.9883,1387.5 694.8438,1389.209 Q696.6992,1390.918 700.0195,1390.918 Q701.9727,1390.918 703.3398,1390.3971 Q704.1536,1390.0716 705.0326,1389.1602 Q705.5859,1388.6068 705.8952,1388.444 Q706.2044,1388.2813 706.6276,1388.2813 Q707.3112,1388.2813 707.8483,1388.8184 Q708.3854,1389.3555 708.3854,1390.0716 Q708.3854,1390.7878 707.6693,1391.6341 Q706.6276,1392.8385 704.9674,1393.5221 Q702.7214,1394.4661 700.0195,1394.4661 Q696.862,1394.4661 694.3555,1393.1641 Q692.3047,1392.1224 690.8724,1389.8926 Q689.4401,1387.6628 689.4401,1384.9935 L689.4401,1382.5846 Q689.4401,1379.8177 690.7259,1377.4251 Q692.0117,1375.0326 694.2904,1373.7467 Q696.569,1372.4609 699.1406,1372.4609 Q700.6706,1372.4609 702.0215,1372.8027 Q703.3724,1373.1445 704.5117,1373.8932 Z "/><text fill="#000000" font-family="sans-serif" font-size="25" font-style="italic" lengthAdjust="spacingAndGlyphs" textLength="137.5" x="821.0417" y="1376.9938">«Singleton»</text><ellipse cx="738.75" cy="1397.168" fill="#84BE84" rx="6.25" ry="6.25" style="stroke: #038048; stroke-width: 2.0833333333333335;"/><text fill="#000000" font-family="sans-serif" font-size="25" font-weight="bold" lengthAdjust="spacingAndGlyphs" textLength="50" x="751.25" y="1408.4391">final</text><text fill="#000000" font-family="sans-serif" font-size="25" lengthAdjust="spacingAndGlyphs" textLength="237.5" x="807.5" y="1408.4391">AndroidOmapiPlugin</text><line style="stroke: #A80036; stroke-width: 3.125;" x1="667.7083" x2="1057.2917" y1="1424.349" y2="1424.349"/><line style="stroke: #A80036; stroke-width: 3.125;" x1="667.7083" x2="1057.2917" y1="1441.0156" y2="1441.0156"/><rect fill="#F24D5C" height="12.5" style="stroke: #C82930; stroke-width: 2.0833333333333335;" width="12.5" x="682.2917" y="1460.6364"/><text fill="#000000" font-family="sans-serif" font-size="22.9167" lengthAdjust="spacingAndGlyphs" textLength="222.9167" x="707.2917" y="1473.1384">AndroidOmapiPlugin ()</text><ellipse cx="688.5417" cy="1495.7113" fill="#84BE84" rx="6.25" ry="6.25" style="stroke: #038048; stroke-width: 2.0833333333333335;"/><text fill="#000000" font-family="sans-serif" font-size="22.9167" lengthAdjust="spacingAndGlyphs" text-decoration="underline" textLength="339.5833" x="707.2917" y="1501.9633">AndroidOmapiPlugin getInstance()</text><line style="stroke: #000000; stroke-width: 1.0;" x1="707.2917" x2="1046.875" y1="1506.13" y2="1506.13"/><!--class AndroidOmapiReader--><rect fill="#FEFECE" filter="url(#f1oqk86q2caeid)" height="145.8822" id="AndroidOmapiReader" style="stroke: #A80036; stroke-width: 3.125;" width="395.8333" x="104.1667" y="1355.2083"/><ellipse cx="135.4167" cy="1397.0703" fill="#ADD1B2" rx="22.9167" ry="22.9167" style="stroke: #A80036; stroke-width: 2.0833333333333335;"/><path d="M141.1784,1388.4766 Q141.5039,1388.0208 141.8945,1387.793 Q142.2852,1387.5651 142.7409,1387.5651 Q143.5221,1387.5651 144.0104,1388.1022 Q144.4987,1388.6393 144.4987,1389.9089 L144.4987,1392.9362 Q144.4987,1394.2057 144.0104,1394.7591 Q143.5221,1395.3125 142.7409,1395.3125 Q142.0247,1395.3125 141.6016,1394.8893 Q141.1784,1394.4987 140.9505,1393.4245 Q140.8529,1392.6758 140.4622,1392.2852 Q139.7786,1391.5039 138.5091,1391.0482 Q137.2396,1390.5924 135.9375,1390.5924 Q134.3424,1390.5924 133.0241,1391.276 Q131.7057,1391.9596 130.6803,1393.5221 Q129.6549,1395.0846 129.6549,1397.2331 L129.6549,1399.5117 Q129.6549,1402.0833 131.5104,1403.7923 Q133.3659,1405.5013 136.6862,1405.5013 Q138.6393,1405.5013 140.0065,1404.9805 Q140.8203,1404.6549 141.6992,1403.7435 Q142.2526,1403.1901 142.5618,1403.0273 Q142.8711,1402.8646 143.2943,1402.8646 Q143.9779,1402.8646 144.515,1403.4017 Q145.0521,1403.9388 145.0521,1404.6549 Q145.0521,1405.3711 144.3359,1406.2174 Q143.2943,1407.4219 141.6341,1408.1055 Q139.388,1409.0495 136.6862,1409.0495 Q133.5286,1409.0495 131.0221,1407.7474 Q128.9714,1406.7057 127.5391,1404.4759 Q126.1068,1402.2461 126.1068,1399.5768 L126.1068,1397.168 Q126.1068,1394.401 127.3926,1392.0085 Q128.6784,1389.6159 130.957,1388.3301 Q133.2357,1387.0443 135.8073,1387.0443 Q137.3372,1387.0443 138.6882,1387.3861 Q140.0391,1387.7279 141.1784,1388.4766 Z "/><text fill="#000000" font-family="sans-serif" font-size="25" font-style="italic" lengthAdjust="spacingAndGlyphs" textLength="137.5" x="260.4167" y="1391.5771">«Singleton»</text><ellipse cx="175" cy="1411.7513" fill="#84BE84" rx="6.25" ry="6.25" style="stroke: #038048; stroke-width: 2.0833333333333335;"/><text fill="#000000" font-family="sans-serif" font-size="25" font-weight="bold" lengthAdjust="spacingAndGlyphs" textLength="50" x="187.5" y="1423.0225">final</text><text fill="#000000" font-family="sans-serif" font-size="25" lengthAdjust="spacingAndGlyphs" textLength="250" x="243.75" y="1423.0225">AndroidOmapiReader</text><line style="stroke: #A80036; stroke-width: 3.125;" x1="106.25" x2="497.9167" y1="1438.9323" y2="1438.9323"/><line style="stroke: #A80036; stroke-width: 3.125;" x1="106.25" x2="497.9167" y1="1455.599" y2="1455.599"/><polygon fill="#FFFF44" points="127.0833,1471.0531,135.4167,1479.3864,127.0833,1487.7197,118.75,1479.3864" style="stroke: #B38D22; stroke-width: 2.0833333333333335;"/><text fill="#000000" font-family="sans-serif" font-size="22.9167" lengthAdjust="spacingAndGlyphs" textLength="204.1667" x="145.8333" y="1487.7218">AndroidNfcReader()</text><!--class PcscPlugin--><rect fill="#FEFECE" filter="url(#f1oqk86q2caeid)" height="261.1816" id="PcscPlugin" style="stroke: #A80036; stroke-width: 3.125;" width="431.25" x="1201.0417" y="166.6667"/><ellipse cx="1303.6458" cy="208.5286" fill="#ADD1B2" rx="22.9167" ry="22.9167" style="stroke: #A80036; stroke-width: 2.0833333333333335;"/><path d="M1309.4076,199.9349 Q1309.7331,199.4792 1310.1237,199.2513 Q1310.5143,199.0234 1310.9701,199.0234 Q1311.7513,199.0234 1312.2396,199.5605 Q1312.7279,200.0977 1312.7279,201.3672 L1312.7279,204.3945 Q1312.7279,205.6641 1312.2396,206.2174 Q1311.7513,206.7708 1310.9701,206.7708 Q1310.2539,206.7708 1309.8307,206.3477 Q1309.4076,205.957 1309.1797,204.8828 Q1309.082,204.1341 1308.6914,203.7435 Q1308.0078,202.9622 1306.7383,202.5065 Q1305.4688,202.0508 1304.1667,202.0508 Q1302.5716,202.0508 1301.2533,202.7344 Q1299.9349,203.418 1298.9095,204.9805 Q1297.8841,206.543 1297.8841,208.6914 L1297.8841,210.9701 Q1297.8841,213.5417 1299.7396,215.2507 Q1301.5951,216.9596 1304.9154,216.9596 Q1306.8685,216.9596 1308.2357,216.4388 Q1309.0495,216.1133 1309.9284,215.2018 Q1310.4818,214.6484 1310.791,214.4857 Q1311.1003,214.3229 1311.5234,214.3229 Q1312.207,214.3229 1312.7441,214.86 Q1313.2813,215.3971 1313.2813,216.1133 Q1313.2813,216.8294 1312.5651,217.6758 Q1311.5234,218.8802 1309.8633,219.5638 Q1307.6172,220.5078 1304.9154,220.5078 Q1301.7578,220.5078 1299.2513,219.2057 Q1297.2005,218.1641 1295.7682,215.9342 Q1294.3359,213.7044 1294.3359,211.0352 L1294.3359,208.6263 Q1294.3359,205.8594 1295.6217,203.4668 Q1296.9076,201.0742 1299.1862,199.7884 Q1301.4648,198.5026 1304.0365,198.5026 Q1305.5664,198.5026 1306.9173,198.8444 Q1308.2682,199.1862 1309.4076,199.9349 Z "/><text fill="#000000" font-family="sans-serif" font-size="25" font-style="italic" lengthAdjust="spacingAndGlyphs" textLength="137.5" x="1381.7708" y="203.0355">«Singleton»</text><ellipse cx="1356.7708" cy="223.2096" fill="#84BE84" rx="6.25" ry="6.25" style="stroke: #038048; stroke-width: 2.0833333333333335;"/><text fill="#000000" font-family="sans-serif" font-size="25" font-weight="bold" lengthAdjust="spacingAndGlyphs" textLength="50" x="1369.2708" y="234.4808">final</text><text fill="#000000" font-family="sans-serif" font-size="25" lengthAdjust="spacingAndGlyphs" textLength="129.1667" x="1425.5208" y="234.4808">PcscPlugin</text><line style="stroke: #A80036; stroke-width: 3.125;" x1="1203.125" x2="1630.2083" y1="250.3906" y2="250.3906"/><rect fill="none" height="12.5" style="stroke: #C82930; stroke-width: 2.0833333333333335;" width="12.5" x="1217.7083" y="270.0114"/><text fill="#000000" font-family="sans-serif" font-size="22.9167" lengthAdjust="spacingAndGlyphs" textLength="118.75" x="1242.7083" y="282.5134">String name</text><line style="stroke: #A80036; stroke-width: 3.125;" x1="1203.125" x2="1630.2083" y1="295.8822" y2="295.8822"/><rect fill="#F24D5C" height="12.5" style="stroke: #C82930; stroke-width: 2.0833333333333335;" width="12.5" x="1217.7083" y="315.5029"/><text fill="#000000" font-family="sans-serif" font-size="22.9167" lengthAdjust="spacingAndGlyphs" textLength="125" x="1242.7083" y="328.005">PcscPlugin()</text><ellipse cx="1223.9583" cy="350.5778" fill="#84BE84" rx="6.25" ry="6.25" style="stroke: #038048; stroke-width: 2.0833333333333335;"/><text fill="#000000" font-family="sans-serif" font-size="22.9167" lengthAdjust="spacingAndGlyphs" text-decoration="underline" textLength="247.9167" x="1242.7083" y="356.8298">PcscPlugin getInstance()</text><line style="stroke: #000000; stroke-width: 1.0;" x1="1242.7083" x2="1490.625" y1="360.9965" y2="360.9965"/><ellipse cx="1223.9583" cy="379.4027" fill="#84BE84" rx="6.25" ry="6.25" style="stroke: #038048; stroke-width: 2.0833333333333335;"/><text fill="#000000" font-family="sans-serif" font-size="22.9167" font-weight="bold" lengthAdjust="spacingAndGlyphs" textLength="47.9167" x="1242.7083" y="385.6547">final</text><text fill="#000000" font-family="sans-serif" font-size="22.9167" lengthAdjust="spacingAndGlyphs" textLength="168.75" x="1296.875" y="385.6547">String getName()</text><ellipse cx="1223.9583" cy="408.2275" fill="#84BE84" rx="6.25" ry="6.25" style="stroke: #038048; stroke-width: 2.0833333333333335;"/><text fill="#000000" font-family="sans-serif" font-size="22.9167" font-weight="bold" lengthAdjust="spacingAndGlyphs" textLength="47.9167" x="1242.7083" y="414.4796">final</text><text fill="#000000" font-family="sans-serif" font-size="22.9167" lengthAdjust="spacingAndGlyphs" textLength="322.9167" x="1296.875" y="414.4796">List&lt;PcscReader&gt; getReaders()</text><!--class PcscReader--><rect fill="#FEFECE" filter="url(#f1oqk86q2caeid)" height="203.5319" id="PcscReader" style="stroke: #A80036; stroke-width: 3.125;" width="287.5" x="1797.9167" y="194.7917"/><ellipse cx="1829.1667" cy="236.6536" fill="#ADD1B2" rx="22.9167" ry="22.9167" style="stroke: #A80036; stroke-width: 2.0833333333333335;"/><path d="M1834.9284,228.0599 Q1835.2539,227.6042 1835.6445,227.3763 Q1836.0352,227.1484 1836.4909,227.1484 Q1837.2721,227.1484 1837.7604,227.6855 Q1838.2487,228.2227 1838.2487,229.4922 L1838.2487,232.5195 Q1838.2487,233.7891 1837.7604,234.3424 Q1837.2721,234.8958 1836.4909,234.8958 Q1835.7747,234.8958 1835.3516,234.4727 Q1834.9284,234.082 1834.7005,233.0078 Q1834.6029,232.2591 1834.2122,231.8685 Q1833.5286,231.0872 1832.2591,230.6315 Q1830.9896,230.1758 1829.6875,230.1758 Q1828.0924,230.1758 1826.7741,230.8594 Q1825.4557,231.543 1824.4303,233.1055 Q1823.4049,234.668 1823.4049,236.8164 L1823.4049,239.0951 Q1823.4049,241.6667 1825.2604,243.3757 Q1827.1159,245.0846 1830.4362,245.0846 Q1832.3893,245.0846 1833.7565,244.5638 Q1834.5703,244.2383 1835.4492,243.3268 Q1836.0026,242.7734 1836.3118,242.6107 Q1836.6211,242.4479 1837.0443,242.4479 Q1837.7279,242.4479 1838.265,242.985 Q1838.8021,243.5221 1838.8021,244.2383 Q1838.8021,244.9544 1838.0859,245.8008 Q1837.0443,247.0052 1835.3841,247.6888 Q1833.138,248.6328 1830.4362,248.6328 Q1827.2786,248.6328 1824.7721,247.3307 Q1822.7214,246.2891 1821.2891,244.0592 Q1819.8568,241.8294 1819.8568,239.1602 L1819.8568,236.7513 Q1819.8568,233.9844 1821.1426,231.5918 Q1822.4284,229.1992 1824.707,227.9134 Q1826.9857,226.6276 1829.5573,226.6276 Q1831.0872,226.6276 1832.4382,226.9694 Q1833.7891,227.3112 1834.9284,228.0599 Z "/><text fill="#000000" font-family="sans-serif" font-size="25" font-style="italic" lengthAdjust="spacingAndGlyphs" textLength="137.5" x="1900" y="231.1605">«Singleton»</text><ellipse cx="1868.75" cy="251.3346" fill="#84BE84" rx="6.25" ry="6.25" style="stroke: #038048; stroke-width: 2.0833333333333335;"/><text fill="#000000" font-family="sans-serif" font-size="25" font-weight="bold" lengthAdjust="spacingAndGlyphs" textLength="50" x="1881.25" y="262.6058">final</text><text fill="#000000" font-family="sans-serif" font-size="25" lengthAdjust="spacingAndGlyphs" textLength="141.6667" x="1937.5" y="262.6058">PcscReader</text><line style="stroke: #A80036; stroke-width: 3.125;" x1="1800" x2="2083.3333" y1="278.5156" y2="278.5156"/><rect fill="none" height="12.5" style="stroke: #C82930; stroke-width: 2.0833333333333335;" width="12.5" x="1814.5833" y="298.1364"/><text fill="#000000" font-family="sans-serif" font-size="22.9167" lengthAdjust="spacingAndGlyphs" textLength="118.75" x="1839.5833" y="310.6384">String name</text><line style="stroke: #A80036; stroke-width: 3.125;" x1="1800" x2="2083.3333" y1="324.0072" y2="324.0072"/><polygon fill="#FFFF44" points="1820.8333,339.4613,1829.1667,347.7946,1820.8333,356.1279,1812.5,347.7946" style="stroke: #B38D22; stroke-width: 2.0833333333333335;"/><text fill="#000000" font-family="sans-serif" font-size="22.9167" lengthAdjust="spacingAndGlyphs" textLength="139.5833" x="1839.5833" y="356.13">PcscReader()</text><ellipse cx="1820.8333" cy="378.7028" fill="#84BE84" rx="6.25" ry="6.25" style="stroke: #038048; stroke-width: 2.0833333333333335;"/><text fill="#000000" font-family="sans-serif" font-size="22.9167" font-weight="bold" lengthAdjust="spacingAndGlyphs" textLength="47.9167" x="1839.5833" y="384.9548">final</text><text fill="#000000" font-family="sans-serif" font-size="22.9167" lengthAdjust="spacingAndGlyphs" textLength="168.75" x="1893.75" y="384.9548">String getName()</text><!--link AbstractThreadedObservablePlugin to AbstractObservableReader--><!--link AbstractObservableReader to AbstractStaticPlugin--><!--link AbstractThreadedLocalReader to AbstractLocalReader--><!--link AbstractThreadedLocalReader to AbstractSelectionLocalReader--><path d="M1432.2,781.3188 C1419.5042,815.5396 1402.0667,862.5458 1386.8938,903.4438 " fill="none" id="AbstractThreadedLocalReader-AbstractSelectionLocalReader" style="stroke: #A80036; stroke-width: 2.0833333333333335;"/><polygon fill="none" points="1400.3625,909.0688,1372.1979,943.0625,1373.0167,898.925,1400.3625,909.0688" style="stroke: #A80036; stroke-width: 2.0833333333333335;"/><!--link AbstractLocalReader to AbstractSelectionLocalReader--><path d="M600.3896,915.7167 C629.9,891.8542 665.2208,868.65 702.0833,856.25 C793.2375,825.5875 1041.0083,892.7396 1203.5313,943.5938 " fill="none" id="AbstractLocalReader-AbstractSelectionLocalReader" style="stroke: #A80036; stroke-width: 2.0833333333333335;"/><polygon fill="none" points="609.6438,926.9958,568.6688,943.4229,590.4563,905.0292,609.6438,926.9958" style="stroke: #A80036; stroke-width: 2.0833333333333335;"/><text fill="#000000" font-family="sans-serif" font-size="27.0833" lengthAdjust="spacingAndGlyphs" textLength="95.8333" x="704.1667" y="873.9482">extends</text><!--link AbstractObservableReader to AbstractLocalReader--><path d="M451.2833,821.2333 C458.0625,841.0854 465.4938,861.9813 472.9167,881.25 C480.8792,901.9208 490.4625,924.4042 498.9604,943.6542 " fill="none" id="AbstractObservableReader-AbstractLocalReader" style="stroke: #A80036; stroke-width: 2.0833333333333335;"/><polygon fill="none" points="437.4333,825.8,438.125,781.6604,465.1104,816.5958,437.4333,825.8" style="stroke: #A80036; stroke-width: 2.0833333333333335;"/><text fill="#000000" font-family="sans-serif" font-size="27.0833" lengthAdjust="spacingAndGlyphs" textLength="95.8333" x="475" y="873.9482">extends</text><!--link AbstractObservableReader to AbstractThreadedLocalReader--><!--link RemoteSePlugin to RemoteSeReader--><path d="M572.5021,296.875 C535.0063,296.875 496.9938,296.875 460.9438,296.875 " fill="none" id="RemoteSePlugin-RemoteSeReader" style="stroke: #A80036; stroke-width: 2.0833333333333335;"/><polygon fill="#A80036" points="433.4833,296.875,452.2333,305.2083,443.9,296.875,452.2333,288.5417,433.4833,296.875" style="stroke: #A80036; stroke-width: 2.0833333333333335;"/><line style="stroke: #A80036; stroke-width: 2.0833333333333335;" x1="443.9" x2="460.5667" y1="296.875" y2="296.875"/><polygon fill="#A80036" points="599.6792,296.875,587.1792,288.5417,574.6792,296.875,587.1792,305.2083,599.6792,296.875" style="stroke: #A80036; stroke-width: 2.0833333333333335;"/><text fill="#000000" font-family="sans-serif" font-size="27.0833" lengthAdjust="spacingAndGlyphs" textLength="89.5833" x="471.875" y="283.3232">readers</text><text fill="#000000" font-family="sans-serif" font-size="27.0833" lengthAdjust="spacingAndGlyphs" textLength="14.5833" x="569.1264" y="290.5877">1</text><text fill="#000000" font-family="sans-serif" font-size="27.0833" lengthAdjust="spacingAndGlyphs" textLength="10.4167" x="449.732" y="290.233">*</text><!--link AndroidNfcPlugin to AndroidNfcReader--><path d="M1700.7354,1428.125 C1737.7729,1428.125 1775.2313,1428.125 1810.775,1428.125 " fill="none" id="AndroidNfcPlugin-AndroidNfcReader" style="stroke: #A80036; stroke-width: 2.0833333333333335;"/><polygon fill="#A80036" points="1838.1833,1428.125,1819.4333,1419.7917,1827.7667,1428.125,1819.4333,1436.4583,1838.1833,1428.125" style="stroke: #A80036; stroke-width: 2.0833333333333335;"/><line style="stroke: #A80036; stroke-width: 2.0833333333333335;" x1="1827.7667" x2="1811.1" y1="1428.125" y2="1428.1248"/><polygon fill="#A80036" points="1673.3479,1428.125,1685.8479,1436.4583,1698.3479,1428.125,1685.8479,1419.7917,1673.3479,1428.125" style="stroke: #A80036; stroke-width: 2.0833333333333335;"/><text fill="#000000" font-family="sans-serif" font-size="27.0833" lengthAdjust="spacingAndGlyphs" textLength="89.5833" x="1710.9375" y="1414.5732">readers</text><text fill="#000000" font-family="sans-serif" font-size="27.0833" lengthAdjust="spacingAndGlyphs" textLength="14.5833" x="1689.7248" y="1421.8377">1</text><text fill="#000000" font-family="sans-serif" font-size="27.0833" lengthAdjust="spacingAndGlyphs" textLength="10.4167" x="1811.4066" y="1421.4526">*</text><!--link AndroidOmapiPlugin to AndroidOmapiReader--><path d="M637.8958,1428.125 C601.6229,1428.125 564.0542,1428.125 527.7542,1428.125 " fill="none" id="AndroidOmapiPlugin-AndroidOmapiReader" style="stroke: #A80036; stroke-width: 2.0833333333333335;"/><polygon fill="#A80036" points="500.4542,1428.125,519.2042,1436.4583,510.8708,1428.125,519.2042,1419.7917,500.4542,1428.125" style="stroke: #A80036; stroke-width: 2.0833333333333335;"/><line style="stroke: #A80036; stroke-width: 2.0833333333333335;" x1="510.8708" x2="527.5375" y1="1428.125" y2="1428.1248"/><polygon fill="#A80036" points="665.3396,1428.125,652.8396,1419.7917,640.3396,1428.125,652.8396,1436.4583,665.3396,1428.125" style="stroke: #A80036; stroke-width: 2.0833333333333335;"/><text fill="#000000" font-family="sans-serif" font-size="27.0833" lengthAdjust="spacingAndGlyphs" textLength="89.5833" x="538.0208" y="1414.5732">readers</text><text fill="#000000" font-family="sans-serif" font-size="27.0833" lengthAdjust="spacingAndGlyphs" textLength="14.5833" x="634.464" y="1421.6192">1</text><text fill="#000000" font-family="sans-serif" font-size="27.0833" lengthAdjust="spacingAndGlyphs" textLength="10.4167" x="516.6769" y="1421.6056">*</text><!--link PcscPlugin to PcscReader--><path d="M1660.0875,296.875 C1697.4625,296.875 1735.3563,296.875 1770.7167,296.875 " fill="none" id="PcscPlugin-PcscReader" style="stroke: #A80036; stroke-width: 2.0833333333333335;"/><polygon fill="#A80036" points="1797.8417,296.875,1779.0917,288.5417,1787.425,296.875,1779.0917,305.2083,1797.8417,296.875" style="stroke: #A80036; stroke-width: 2.0833333333333335;"/><line style="stroke: #A80036; stroke-width: 2.0833333333333335;" x1="1787.425" x2="1770.7573" y1="296.875" y2="296.875"/><polygon fill="#A80036" points="1632.4771,296.875,1644.9771,305.2083,1657.4771,296.875,1644.9771,288.5417,1632.4771,296.875" style="stroke: #A80036; stroke-width: 2.0833333333333335;"/><text fill="#000000" font-family="sans-serif" font-size="27.0833" lengthAdjust="spacingAndGlyphs" textLength="89.5833" x="1670.3125" y="283.3232">readers</text><text fill="#000000" font-family="sans-serif" font-size="27.0833" lengthAdjust="spacingAndGlyphs" textLength="14.5833" x="1648.8611" y="290.4313">1</text><text fill="#000000" font-family="sans-serif" font-size="27.0833" lengthAdjust="spacingAndGlyphs" textLength="10.4167" x="1771.1245" y="289.9083">*</text><!--link RemoteSePlugin to AbstractThreadedObservablePlugin--><path d="M867.1792,427.4521 C880.7604,495.8542 897.1271,578.2854 909.3167,639.6875 " fill="none" id="RemoteSePlugin-AbstractThreadedObservablePlugin" style="stroke: #A80036; stroke-width: 2.0833333333333335;"/><polygon fill="none" points="923.7229,637.3646,917.5354,681.0729,895.1167,643.0438,923.7229,637.3646" style="stroke: #A80036; stroke-width: 2.0833333333333335;"/><text fill="#000000" font-family="sans-serif" font-size="27.0833" lengthAdjust="spacingAndGlyphs" textLength="95.8333" x="887.5" y="523.9482">extends</text><!--link RemoteSeReader to AbstractObservableReader--><path d="M295.1146,399.2792 C323.5521,472.6833 361.7604,571.3083 388.9729,641.5521 " fill="none" id="RemoteSeReader-AbstractObservableReader" style="stroke: #A80036; stroke-width: 2.0833333333333335;"/><polygon fill="none" points="402.8583,637.0208,404.3125,681.1417,375.6604,647.5583,402.8583,637.0208" style="stroke: #A80036; stroke-width: 2.0833333333333335;"/><text fill="#000000" font-family="sans-serif" font-size="27.0833" lengthAdjust="spacingAndGlyphs" textLength="95.8333" x="347.9167" y="523.9482">extends</text><!--link PcscPlugin to AbstractThreadedObservablePlugin--><path d="M1270.4396,427.4521 C1186.9,500.8604 1084.975,590.4229 1013.9708,652.8167 " fill="none" id="PcscPlugin-AbstractThreadedObservablePlugin" style="stroke: #A80036; stroke-width: 2.0833333333333335;"/><polygon fill="none" points="1022.7417,664.5229,981.8146,681.0729,1003.4875,642.6146,1022.7417,664.5229" style="stroke: #A80036; stroke-width: 2.0833333333333335;"/><text fill="#000000" font-family="sans-serif" font-size="27.0833" lengthAdjust="spacingAndGlyphs" textLength="95.8333" x="1187.5" y="523.9482">extends</text><!--link PcscReader to AbstractThreadedLocalReader--><path d="M1827.0125,399.2792 C1738.1771,477.0125 1617.0188,583.025 1536.2813,653.6708 " fill="none" id="PcscReader-AbstractThreadedLocalReader" style="stroke: #A80036; stroke-width: 2.0833333333333335;"/><polygon fill="none" points="1545.8458,664.6792,1504.8854,681.1417,1526.6396,642.7292,1545.8458,664.6792" style="stroke: #A80036; stroke-width: 2.0833333333333335;"/><text fill="#000000" font-family="sans-serif" font-size="27.0833" lengthAdjust="spacingAndGlyphs" textLength="95.8333" x="1712.5" y="523.9482">extends</text><!--link AbstractStaticPlugin to AndroidOmapiPlugin--><path d="M888.8188,1086.3563 C883.0313,1161.0729 874.8708,1266.3917 869.175,1339.8833 " fill="none" id="AbstractStaticPlugin-AndroidOmapiPlugin" style="stroke: #A80036; stroke-width: 2.0833333333333335;"/><polygon fill="none" points="874.3167,1084.7625,892.075,1044.3479,903.3958,1087.0167,874.3167,1084.7625" style="stroke: #A80036; stroke-width: 2.0833333333333335;"/><text fill="#000000" font-family="sans-serif" font-size="27.0833" lengthAdjust="spacingAndGlyphs" textLength="95.8333" x="887.5" y="1140.6148">extends</text><!--link AbstractLocalReader to AndroidOmapiReader--><path d="M477.1042,1081.8333 C436.3708,1161.9417 376.3563,1279.9708 338.2542,1354.9063 " fill="none" id="AbstractLocalReader-AndroidOmapiReader" style="stroke: #A80036; stroke-width: 2.0833333333333335;"/><polygon fill="none" points="464.2813,1074.8792,496.1646,1044.3479,490.2792,1088.0979,464.2813,1074.8792" style="stroke: #A80036; stroke-width: 2.0833333333333335;"/><text fill="#000000" font-family="sans-serif" font-size="27.0833" lengthAdjust="spacingAndGlyphs" textLength="95.8333" x="464.5833" y="1140.6148">extends</text><!--link AbstractStaticPlugin to AndroidNfcPlugin--><path d="M988.1917,1070.9208 C1065.0021,1133.3667 1176.0521,1223.65 1266.9583,1297.5563 " fill="none" id="AbstractStaticPlugin-AndroidNfcPlugin" style="stroke: #A80036; stroke-width: 2.0833333333333335;"/><polygon fill="none" points="978.6375,1081.9479,955.5063,1044.3479,997.0375,1059.3167,978.6375,1081.9479" style="stroke: #A80036; stroke-width: 2.0833333333333335;"/><text fill="#000000" font-family="sans-serif" font-size="27.0833" lengthAdjust="spacingAndGlyphs" textLength="95.8333" x="1083.3333" y="1140.6148">extends</text><!--link AbstractSelectionLocalReader to AndroidNfcReader--><path d="M1514.4625,1060.8833 C1577.5375,1089.2354 1649.3333,1125.0417 1710.4167,1164.5833 C1796.9771,1220.6208 1885.4583,1298.8813 1944.9104,1355.1521 " fill="none" id="AbstractSelectionLocalReader-AndroidNfcReader" style="stroke: #A80036; stroke-width: 2.0833333333333335;"/><polygon fill="none" points="1507.7938,1073.8833,1475.4875,1043.7979,1519.5021,1047.1708,1507.7938,1073.8833" style="stroke: #A80036; stroke-width: 2.0833333333333335;"/><text fill="#000000" font-family="sans-serif" font-size="27.0833" lengthAdjust="spacingAndGlyphs" textLength="95.8333" x="1683.3333" y="1140.6148">extends</text><!--
@startuml
skinparam dpi 200


package org.eclipse.keyple.seproxy.plugin #FFFFFF {

abstract AbstractStaticPlugin
abstract AbstractThreadedObservablePlugin
abstract AbstractObservableReader
abstract AbstractLocalReader
abstract AbstractSelectionLocalReader
abstract AbstractThreadedLocalReader


AbstractThreadedObservablePlugin -right[hidden]-> AbstractObservableReader
AbstractObservableReader -down[hidden]->AbstractStaticPlugin


AbstractThreadedLocalReader -down[hidden]-> AbstractLocalReader
AbstractThreadedLocalReader - -|> AbstractSelectionLocalReader
AbstractLocalReader <|-right- AbstractSelectionLocalReader : extends
}


AbstractObservableReader <|- - AbstractLocalReader : extends
AbstractObservableReader -right[hidden]-> AbstractThreadedLocalReader


package plugin.remotese #FFCCFF {
+class "<b>final</b> RemoteSePlugin" as RemoteSePlugin << Singleton >> {
  -String name
  -RemoteSePlugin()
  +{static} RemoteSePlugin getInstance()
  +<b>final</b> String getName()
  +<b>final</b> List<RemoteSeReader> getReaders()
}
+class "<b>final</b> RemoteSeReader" as RemoteSeReader << Singleton >> {
  -String name
  #RemoteSeReader()
  +<b>final</b> String getName()
}
RemoteSePlugin "1" *-right-> "*" RemoteSeReader : readers
}

package plugin.androidnfc #FFCCFF {
+class "<b>final</b> AndroidNfcPlugin" as AndroidNfcPlugin << Singleton >> {
  -String name
  -AndroidNfcPlugin()
  +{static} AndroidNfcPlugin getInstance()
  +<b>final</b> String getName()
  +<b>final</b> List<AndroidNfcReader> getReaders()
}
+class "<b>final</b> AndroidNfcReader" as AndroidNfcReader << Singleton >> {
  #AndroidNfcReader()
}
AndroidNfcPlugin "1" *-right-> "*" AndroidNfcReader : readers
}

package org.eclipse.keyple.plugin.android.omapi #FFCCFF {
+class "<b>final</b> AndroidOmapiPlugin " as AndroidOmapiPlugin  << Singleton >> {
  -AndroidOmapiPlugin ()
  +{static} AndroidOmapiPlugin getInstance()
}
+class "<b>final</b> AndroidOmapiReader" as AndroidOmapiReader << Singleton >> {
  #AndroidNfcReader()
}
AndroidOmapiPlugin "1" *-right-> "*" AndroidOmapiReader : readers
}

package plugin.pcsc #FFCCFF {

+class "<b>final</b> PcscPlugin" as PcscPlugin << Singleton >> {
  -String name
  -PcscPlugin()
  +{static} PcscPlugin getInstance()
  +<b>final</b> String getName()
  +<b>final</b> List<PcscReader> getReaders()
}
+class "<b>final</b> PcscReader" as PcscReader << Singleton >> {
  -String name
  #PcscReader()
  +<b>final</b> String getName()
}
PcscPlugin "1" *-right-> "*" PcscReader : readers
}




RemoteSePlugin -down-|> AbstractThreadedObservablePlugin : extends
RemoteSeReader -down-|> AbstractObservableReader : extends

PcscPlugin -down-|> AbstractThreadedObservablePlugin : extends
PcscReader -down-|> AbstractThreadedLocalReader : extends

AndroidOmapiPlugin -up-|> AbstractStaticPlugin : extends
AndroidOmapiReader -up-|> AbstractLocalReader : extends

AndroidNfcPlugin -up-|> AbstractStaticPlugin : extends
AndroidNfcReader -up-|> AbstractSelectionLocalReader : extends






@enduml

PlantUML version 1.2018.08(Sun Jun 24 16:31:00 MUT 2018)
(GPL source distribution)
Java Runtime: Java(TM) SE Runtime Environment
JVM: Java HotSpot(TM) 64-Bit Server VM
Java Version: 1.8.0_162-b12
Operating System: Windows 10
OS Version: 10.0
Default Encoding: UTF-8
Language: en
Country: US
--></g></svg>