<?xml version="1.0" encoding="UTF-8" standalone="no"?><svg xmlns="http://www.w3.org/2000/svg" xmlns:xlink="http://www.w3.org/1999/xlink" contentScriptType="application/ecmascript" contentStyleType="text/css" height="845.8333px" preserveAspectRatio="none" style="width:2972px;height:845px;" version="1.1" viewBox="0 0 2972 845" width="2972.9167px" zoomAndPan="magnify"><defs><filter height="300%" id="fbx8rsz" width="300%" x="-1" y="-1"><feGaussianBlur result="blurOut" stdDeviation="4.166666666666667"/><feColorMatrix in="blurOut" result="blurOut2" type="matrix" values="0 0 0 0 0 0 0 0 0 0 0 0 0 0 0 0 0 0 .4 0"/><feOffset dx="8.333333333333334" dy="8.333333333333334" in="blurOut2" result="blurOut3"/><feBlend in="SourceGraphic" in2="blurOut3" mode="normal"/></filter></defs><g><!--cluster org.eclipse.keyple.seproxy--><polygon fill="#FFFFFF" filter="url(#fbx8rsz)" points="1041.6667,535.4167,1447.9167,535.4167,1462.5,584.6029,2406.25,584.6029,2406.25,831.25,1041.6667,831.25,1041.6667,535.4167" style="stroke: #000000; stroke-width: 4.166666666666667;"/><line style="stroke: #000000; stroke-width: 4.166666666666667;" x1="1041.6667" x2="1462.5" y1="584.6029" y2="584.6029"/><text fill="#000000" font-family="sans-serif" font-size="29.1667" font-weight="bold" lengthAdjust="spacingAndGlyphs" textLength="393.75" x="1050" y="569.8608">org.eclipse.keyple.seproxy</text><!--cluster org.eclipse.keyple.commands--><polygon fill="#FFFFFF" filter="url(#fbx8rsz)" points="45.8333,50,491.6667,50,506.25,99.1862,2958.3333,99.1862,2958.3333,431.25,45.8333,431.25,45.8333,50" style="stroke: #000000; stroke-width: 4.166666666666667;"/><line style="stroke: #000000; stroke-width: 4.166666666666667;" x1="45.8333" x2="506.25" y1="99.1862" y2="99.1862"/><text fill="#000000" font-family="sans-serif" font-size="29.1667" font-weight="bold" lengthAdjust="spacingAndGlyphs" textLength="433.3333" x="54.1667" y="84.4442">org.eclipse.keyple.commands</text><!--class ApduRequest--><rect fill="#FEFECE" filter="url(#fbx8rsz)" height="186.4746" style="stroke: #A80036; stroke-width: 3.125;" width="541.6667" x="1075" y="610.4167"/><ellipse cx="1258.8542" cy="643.75" fill="#ADD1B2" rx="22.9167" ry="22.9167" style="stroke: #A80036; stroke-width: 2.0833333333333335;"/><path d="M1264.6159,635.1563 Q1264.9414,634.7005 1265.332,634.4727 Q1265.7227,634.2448 1266.1784,634.2448 Q1266.9596,634.2448 1267.4479,634.7819 Q1267.9362,635.319 1267.9362,636.5885 L1267.9362,639.6159 Q1267.9362,640.8854 1267.4479,641.4388 Q1266.9596,641.9922 1266.1784,641.9922 Q1265.4622,641.9922 1265.0391,641.569 Q1264.6159,641.1784 1264.388,640.1042 Q1264.2904,639.3555 1263.8997,638.9648 Q1263.2161,638.1836 1261.9466,637.7279 Q1260.6771,637.2721 1259.375,637.2721 Q1257.7799,637.2721 1256.4616,637.9557 Q1255.1432,638.6393 1254.1178,640.2018 Q1253.0924,641.7643 1253.0924,643.9128 L1253.0924,646.1914 Q1253.0924,648.763 1254.9479,650.472 Q1256.8034,652.181 1260.1237,652.181 Q1262.0768,652.181 1263.444,651.6602 Q1264.2578,651.3346 1265.1367,650.4232 Q1265.6901,649.8698 1265.9993,649.707 Q1266.3086,649.5443 1266.7318,649.5443 Q1267.4154,649.5443 1267.9525,650.0814 Q1268.4896,650.6185 1268.4896,651.3346 Q1268.4896,652.0508 1267.7734,652.8971 Q1266.7318,654.1016 1265.0716,654.7852 Q1262.8255,655.7292 1260.1237,655.7292 Q1256.9661,655.7292 1254.4596,654.4271 Q1252.4089,653.3854 1250.9766,651.1556 Q1249.5443,648.9258 1249.5443,646.2565 L1249.5443,643.8477 Q1249.5443,641.0807 1250.8301,638.6882 Q1252.1159,636.2956 1254.3945,635.0098 Q1256.6732,633.724 1259.2448,633.724 Q1260.7747,633.724 1262.1257,634.0658 Q1263.4766,634.4076 1264.6159,635.1563 Z "/><text fill="#000000" font-family="sans-serif" font-size="25" lengthAdjust="spacingAndGlyphs" textLength="156.25" x="1301.5625" y="653.9795">ApduRequest</text><line style="stroke: #A80036; stroke-width: 3.125;" x1="1077.0833" x2="1614.5833" y1="677.0833" y2="677.0833"/><rect fill="none" height="12.5" style="stroke: #C82930; stroke-width: 2.0833333333333335;" width="12.5" x="1091.6667" y="696.7041"/><text fill="#000000" font-family="sans-serif" font-size="22.9167" lengthAdjust="spacingAndGlyphs" textLength="147.9167" x="1116.6667" y="709.2061">boolean case4</text><line style="stroke: #A80036; stroke-width: 3.125;" x1="1077.0833" x2="1614.5833" y1="722.5749" y2="722.5749"/><ellipse cx="1097.9167" cy="748.4456" fill="#84BE84" rx="6.25" ry="6.25" style="stroke: #038048; stroke-width: 2.0833333333333335;"/><text fill="#000000" font-family="sans-serif" font-size="22.9167" lengthAdjust="spacingAndGlyphs" textLength="487.5" x="1116.6667" y="754.6977">ApduRequest(ByteBuffer bytes, boolean case4)</text><ellipse cx="1097.9167" cy="777.2705" fill="#84BE84" rx="6.25" ry="6.25" style="stroke: #038048; stroke-width: 2.0833333333333335;"/><text fill="#000000" font-family="sans-serif" font-size="22.9167" lengthAdjust="spacingAndGlyphs" textLength="183.3333" x="1116.6667" y="783.5225">boolean isCase4()</text><!--class ApduResponse--><rect fill="#FEFECE" filter="url(#fbx8rsz)" height="186.4746" style="stroke: #A80036; stroke-width: 3.125;" width="610.4167" x="1761.4583" y="610.4167"/><ellipse cx="1968.2292" cy="643.75" fill="#ADD1B2" rx="22.9167" ry="22.9167" style="stroke: #A80036; stroke-width: 2.0833333333333335;"/><path d="M1973.9909,635.1563 Q1974.3164,634.7005 1974.707,634.4727 Q1975.0977,634.2448 1975.5534,634.2448 Q1976.3346,634.2448 1976.8229,634.7819 Q1977.3112,635.319 1977.3112,636.5885 L1977.3112,639.6159 Q1977.3112,640.8854 1976.8229,641.4388 Q1976.3346,641.9922 1975.5534,641.9922 Q1974.8372,641.9922 1974.4141,641.569 Q1973.9909,641.1784 1973.763,640.1042 Q1973.6654,639.3555 1973.2747,638.9648 Q1972.5911,638.1836 1971.3216,637.7279 Q1970.0521,637.2721 1968.75,637.2721 Q1967.1549,637.2721 1965.8366,637.9557 Q1964.5182,638.6393 1963.4928,640.2018 Q1962.4674,641.7643 1962.4674,643.9128 L1962.4674,646.1914 Q1962.4674,648.763 1964.3229,650.472 Q1966.1784,652.181 1969.4987,652.181 Q1971.4518,652.181 1972.819,651.6602 Q1973.6328,651.3346 1974.5117,650.4232 Q1975.0651,649.8698 1975.3743,649.707 Q1975.6836,649.5443 1976.1068,649.5443 Q1976.7904,649.5443 1977.3275,650.0814 Q1977.8646,650.6185 1977.8646,651.3346 Q1977.8646,652.0508 1977.1484,652.8971 Q1976.1068,654.1016 1974.4466,654.7852 Q1972.2005,655.7292 1969.4987,655.7292 Q1966.3411,655.7292 1963.8346,654.4271 Q1961.7839,653.3854 1960.3516,651.1556 Q1958.9193,648.9258 1958.9193,646.2565 L1958.9193,643.8477 Q1958.9193,641.0807 1960.2051,638.6882 Q1961.4909,636.2956 1963.7695,635.0098 Q1966.0482,633.724 1968.6198,633.724 Q1970.1497,633.724 1971.5007,634.0658 Q1972.8516,634.4076 1973.9909,635.1563 Z "/><text fill="#000000" font-family="sans-serif" font-size="25" lengthAdjust="spacingAndGlyphs" textLength="179.1667" x="2010.9375" y="653.9795">ApduResponse</text><line style="stroke: #A80036; stroke-width: 3.125;" x1="1763.5417" x2="2369.7917" y1="677.0833" y2="677.0833"/><rect fill="none" height="12.5" style="stroke: #C82930; stroke-width: 2.0833333333333335;" width="12.5" x="1778.125" y="696.7041"/><text fill="#000000" font-family="sans-serif" font-size="22.9167" lengthAdjust="spacingAndGlyphs" textLength="197.9167" x="1803.125" y="709.2061">boolean successful</text><line style="stroke: #A80036; stroke-width: 3.125;" x1="1763.5417" x2="2369.7917" y1="722.5749" y2="722.5749"/><ellipse cx="1784.375" cy="748.4456" fill="#84BE84" rx="6.25" ry="6.25" style="stroke: #038048; stroke-width: 2.0833333333333335;"/><text fill="#000000" font-family="sans-serif" font-size="22.9167" lengthAdjust="spacingAndGlyphs" textLength="556.25" x="1803.125" y="754.6977">ApduResponse(ByteBuffer bytes, boolean successful)</text><ellipse cx="1784.375" cy="777.2705" fill="#84BE84" rx="6.25" ry="6.25" style="stroke: #038048; stroke-width: 2.0833333333333335;"/><text fill="#000000" font-family="sans-serif" font-size="22.9167" lengthAdjust="spacingAndGlyphs" textLength="233.3333" x="1803.125" y="783.5225">boolean isSuccessful()</text><!--class AbstractApduCommandBuilder--><rect fill="#FEFECE" filter="url(#fbx8rsz)" height="272.9492" style="stroke: #A80036; stroke-width: 3.125;" width="885.4167" x="80.2083" y="125"/><ellipse cx="334.8958" cy="158.3333" fill="#A9DCDF" rx="22.9167" ry="22.9167" style="stroke: #A80036; stroke-width: 2.0833333333333335;"/><path d="M339.4531,162.0117 L330.8268,162.0117 L329.9479,164.1602 L330.8268,164.1602 Q332.0964,164.1602 332.6497,164.6484 Q333.2031,165.1367 333.2031,165.9505 Q333.2031,166.7318 332.6497,167.2201 Q332.0964,167.7083 330.8268,167.7083 L326.0417,167.7083 Q324.7721,167.7083 324.235,167.2201 Q323.6979,166.7318 323.6979,165.918 Q323.6979,165.1367 324.2676,164.6322 Q324.8372,164.1276 326.1393,164.1602 L331.7057,150.293 L329.3945,150.293 Q328.125,150.293 327.5716,149.8047 Q327.0182,149.3164 327.0182,148.5026 Q327.0182,147.7214 327.5716,147.2331 Q328.125,146.7448 329.3945,146.7448 L337.0443,146.7448 L344.1081,164.1602 Q345.3451,164.1602 345.7357,164.4531 Q346.5495,165.0065 346.5495,165.9505 Q346.5495,166.7318 346.0124,167.2201 Q345.4753,167.7083 344.2057,167.7083 L339.4206,167.7083 Q338.151,167.7083 337.5977,167.2201 Q337.0443,166.7318 337.0443,165.918 Q337.0443,165.1367 337.5977,164.6484 Q338.151,164.1602 339.4206,164.1602 L340.2995,164.1602 L339.4531,162.0117 Z M337.9557,158.4635 L335.1237,151.4323 L332.2591,158.4635 L337.9557,158.4635 Z "/><text fill="#000000" font-family="sans-serif" font-size="25" font-style="italic" lengthAdjust="spacingAndGlyphs" textLength="358.3333" x="377.6042" y="168.5628">AbstractApduCommandBuilder</text><line style="stroke: #A80036; stroke-width: 3.125;" x1="82.2917" x2="963.5417" y1="191.6667" y2="191.6667"/><rect fill="none" height="12.5" style="stroke: #C82930; stroke-width: 2.0833333333333335;" width="12.5" x="96.875" y="211.2874"/><text fill="#000000" font-family="sans-serif" font-size="22.9167" lengthAdjust="spacingAndGlyphs" textLength="372.9167" x="121.875" y="223.7895">CommandsTable commandReference</text><rect fill="none" height="12.5" style="stroke: #C82930; stroke-width: 2.0833333333333335;" width="12.5" x="96.875" y="240.1123"/><text fill="#000000" font-family="sans-serif" font-size="22.9167" lengthAdjust="spacingAndGlyphs" textLength="277.0833" x="121.875" y="252.6143">ApduRequest apduRequest</text><line style="stroke: #A80036; stroke-width: 3.125;" x1="82.2917" x2="963.5417" y1="265.9831" y2="265.9831"/><ellipse cx="103.125" cy="291.8538" fill="#84BE84" rx="6.25" ry="6.25" style="stroke: #038048; stroke-width: 2.0833333333333335;"/><text fill="#000000" font-family="sans-serif" font-size="22.9167" lengthAdjust="spacingAndGlyphs" textLength="829.1667" x="121.875" y="298.1059">AbstractApduCommandBuilder(CommandsTable reference, ApduRequest request)</text><ellipse cx="103.125" cy="320.6787" fill="#84BE84" rx="6.25" ry="6.25" style="stroke: #038048; stroke-width: 2.0833333333333335;"/><text fill="#000000" font-family="sans-serif" font-size="22.9167" lengthAdjust="spacingAndGlyphs" textLength="168.75" x="121.875" y="326.9307">String getName()</text><ellipse cx="103.125" cy="349.5036" fill="#84BE84" rx="6.25" ry="6.25" style="stroke: #038048; stroke-width: 2.0833333333333335;"/><text fill="#000000" font-family="sans-serif" font-size="22.9167" lengthAdjust="spacingAndGlyphs" textLength="329.1667" x="121.875" y="355.7556">ApduRequest getApduRequest()</text><ellipse cx="103.125" cy="378.3285" fill="#84BE84" rx="6.25" ry="6.25" style="stroke: #038048; stroke-width: 2.0833333333333335;"/><text fill="#000000" font-family="sans-serif" font-size="22.9167" lengthAdjust="spacingAndGlyphs" textLength="831.25" x="121.875" y="384.5805">Class&lt;? extends AbstractApduResponseParser&gt; getApduResponseParserClass()</text><!--class AbstractApduResponseParser--><rect fill="#FEFECE" filter="url(#fbx8rsz)" height="272.9492" style="stroke: #A80036; stroke-width: 3.125;" width="722.9167" x="2201.0417" y="125"/><ellipse cx="2380.7292" cy="158.3333" fill="#A9DCDF" rx="22.9167" ry="22.9167" style="stroke: #A80036; stroke-width: 2.0833333333333335;"/><path d="M2385.2865,162.0117 L2376.6602,162.0117 L2375.7813,164.1602 L2376.6602,164.1602 Q2377.9297,164.1602 2378.4831,164.6484 Q2379.0365,165.1367 2379.0365,165.9505 Q2379.0365,166.7318 2378.4831,167.2201 Q2377.9297,167.7083 2376.6602,167.7083 L2371.875,167.7083 Q2370.6055,167.7083 2370.0684,167.2201 Q2369.5313,166.7318 2369.5313,165.918 Q2369.5313,165.1367 2370.1009,164.6322 Q2370.6706,164.1276 2371.9727,164.1602 L2377.5391,150.293 L2375.2279,150.293 Q2373.9583,150.293 2373.4049,149.8047 Q2372.8516,149.3164 2372.8516,148.5026 Q2372.8516,147.7214 2373.4049,147.2331 Q2373.9583,146.7448 2375.2279,146.7448 L2382.8776,146.7448 L2389.9414,164.1602 Q2391.1784,164.1602 2391.569,164.4531 Q2392.3828,165.0065 2392.3828,165.9505 Q2392.3828,166.7318 2391.8457,167.2201 Q2391.3086,167.7083 2390.0391,167.7083 L2385.2539,167.7083 Q2383.9844,167.7083 2383.431,167.2201 Q2382.8776,166.7318 2382.8776,165.918 Q2382.8776,165.1367 2383.431,164.6484 Q2383.9844,164.1602 2385.2539,164.1602 L2386.1328,164.1602 L2385.2865,162.0117 Z M2383.7891,158.4635 L2380.957,151.4323 L2378.0924,158.4635 L2383.7891,158.4635 Z "/><text fill="#000000" font-family="sans-serif" font-size="25" font-style="italic" lengthAdjust="spacingAndGlyphs" textLength="345.8333" x="2423.4375" y="168.5628">AbstractApduResponseParser</text><line style="stroke: #A80036; stroke-width: 3.125;" x1="2203.125" x2="2921.875" y1="191.6667" y2="191.6667"/><rect fill="none" height="12.5" style="stroke: #C82930; stroke-width: 2.0833333333333335;" width="12.5" x="2217.7083" y="211.2874"/><text fill="#000000" font-family="sans-serif" font-size="22.9167" lengthAdjust="spacingAndGlyphs" textLength="314.5833" x="2242.7083" y="223.7895">ApduResponse apduResponse</text><line style="stroke: #A80036; stroke-width: 3.125;" x1="2203.125" x2="2921.875" y1="237.1582" y2="237.1582"/><ellipse cx="2223.9583" cy="263.029" fill="#84BE84" rx="6.25" ry="6.25" style="stroke: #038048; stroke-width: 2.0833333333333335;"/><text fill="#000000" font-family="sans-serif" font-size="22.9167" lengthAdjust="spacingAndGlyphs" textLength="668.75" x="2242.7083" y="269.281">AbstractApduResponseParser(ApduResponse responseToParse)</text><ellipse cx="2223.9583" cy="291.8538" fill="#84BE84" rx="6.25" ry="6.25" style="stroke: #038048; stroke-width: 2.0833333333333335;"/><text fill="#000000" font-family="sans-serif" font-size="22.9167" lengthAdjust="spacingAndGlyphs" textLength="366.6667" x="2242.7083" y="298.1059">ApduResponse getApduResponse()</text><ellipse cx="2223.9583" cy="320.6787" fill="#84BE84" rx="6.25" ry="6.25" style="stroke: #038048; stroke-width: 2.0833333333333335;"/><text fill="#000000" font-family="sans-serif" font-size="22.9167" lengthAdjust="spacingAndGlyphs" textLength="222.9167" x="2242.7083" y="326.9307">short getStatusCode()</text><ellipse cx="2223.9583" cy="349.5036" fill="#84BE84" rx="6.25" ry="6.25" style="stroke: #038048; stroke-width: 2.0833333333333335;"/><text fill="#000000" font-family="sans-serif" font-size="22.9167" lengthAdjust="spacingAndGlyphs" textLength="233.3333" x="2242.7083" y="355.7556">boolean isSuccessful()</text><ellipse cx="2223.9583" cy="378.3285" fill="#84BE84" rx="6.25" ry="6.25" style="stroke: #038048; stroke-width: 2.0833333333333335;"/><text fill="#000000" font-family="sans-serif" font-size="22.9167" lengthAdjust="spacingAndGlyphs" textLength="287.5" x="2242.7083" y="384.5805">String getStatusInformation()</text><!--class CommandsTable--><rect fill="#FEFECE" filter="url(#fbx8rsz)" height="215.2995" style="stroke: #A80036; stroke-width: 3.125;" width="831.25" x="1167.7083" y="154.1667"/><ellipse cx="1473.4375" cy="187.5" fill="#B4A7E5" rx="22.9167" ry="22.9167" style="stroke: #A80036; stroke-width: 2.0833333333333335;"/><path d="M1475.4232,180.5013 L1475.4232,194.3685 L1479.0039,194.3685 Q1480.2734,194.3685 1480.8268,194.8568 Q1481.3802,195.3451 1481.3802,196.1589 Q1481.3802,196.9401 1480.8268,197.4284 Q1480.2734,197.9167 1479.0039,197.9167 L1468.2943,197.9167 Q1467.0247,197.9167 1466.4714,197.4284 Q1465.918,196.9401 1465.918,196.1263 Q1465.918,195.3451 1466.4714,194.8568 Q1467.0247,194.3685 1468.2943,194.3685 L1471.875,194.3685 L1471.875,180.5013 L1468.2943,180.5013 Q1467.0247,180.5013 1466.4714,180.013 Q1465.918,179.5247 1465.918,178.7109 Q1465.918,177.9297 1466.4714,177.4414 Q1467.0247,176.9531 1468.2943,176.9531 L1479.0039,176.9531 Q1480.2734,176.9531 1480.8268,177.4414 Q1481.3802,177.9297 1481.3802,178.7109 Q1481.3802,179.5247 1480.8268,180.013 Q1480.2734,180.5013 1479.0039,180.5013 L1475.4232,180.5013 Z "/><text fill="#000000" font-family="sans-serif" font-size="25" font-style="italic" lengthAdjust="spacingAndGlyphs" textLength="202.0833" x="1516.1458" y="197.7295">CommandsTable</text><line style="stroke: #A80036; stroke-width: 3.125;" x1="1169.7917" x2="1996.875" y1="220.8333" y2="220.8333"/><line style="stroke: #A80036; stroke-width: 3.125;" x1="1169.7917" x2="1996.875" y1="237.5" y2="237.5"/><ellipse cx="1190.625" cy="263.3708" fill="#84BE84" rx="6.25" ry="6.25" style="stroke: #038048; stroke-width: 2.0833333333333335;"/><text fill="#000000" font-family="sans-serif" font-size="22.9167" lengthAdjust="spacingAndGlyphs" textLength="168.75" x="1209.375" y="269.6228">String getName()</text><ellipse cx="1190.625" cy="292.1956" fill="#84BE84" rx="6.25" ry="6.25" style="stroke: #038048; stroke-width: 2.0833333333333335;"/><text fill="#000000" font-family="sans-serif" font-size="22.9167" lengthAdjust="spacingAndGlyphs" textLength="247.9167" x="1209.375" y="298.4477">byte getInstructionByte()</text><ellipse cx="1190.625" cy="321.0205" fill="#84BE84" rx="6.25" ry="6.25" style="stroke: #038048; stroke-width: 2.0833333333333335;"/><text fill="#000000" font-family="sans-serif" font-size="22.9167" lengthAdjust="spacingAndGlyphs" textLength="772.9167" x="1209.375" y="327.2725">Class&lt;? extends AbstractApduCommandBuilder&gt; getCommandBuilderClass()</text><ellipse cx="1190.625" cy="349.8454" fill="#84BE84" rx="6.25" ry="6.25" style="stroke: #038048; stroke-width: 2.0833333333333335;"/><text fill="#000000" font-family="sans-serif" font-size="22.9167" lengthAdjust="spacingAndGlyphs" textLength="777.0833" x="1209.375" y="356.0974">Class&lt;? extends AbstractApduResponseParser&gt; getResponseParserClass()</text><path d="M993.1833,261.4583 C1041.8813,261.4583 1091.2625,261.4583 1139.6542,261.4583 " fill="none" style="stroke: #A80036; stroke-width: 2.0833333333333335;"/><polygon fill="#A80036" points="1167.2208,261.4583,1154.7208,253.125,1142.2208,261.4583,1154.7208,269.7917,1167.2208,261.4583" style="stroke: #A80036; stroke-width: 2.0833333333333335;"/><polygon fill="#A80036" points="965.7167,261.4583,984.4667,269.7917,976.1333,261.4583,984.4667,253.125,965.7167,261.4583" style="stroke: #A80036; stroke-width: 2.0833333333333335;"/><line style="stroke: #A80036; stroke-width: 2.0833333333333335;" x1="976.1333" x2="992.8" y1="261.4583" y2="261.4583"/><text fill="#000000" font-family="sans-serif" font-size="27.0833" lengthAdjust="spacingAndGlyphs" textLength="125" x="1004.1667" y="247.9065">references</text><text fill="#000000" font-family="sans-serif" font-size="27.0833" lengthAdjust="spacingAndGlyphs" textLength="10.4167" x="981.817" y="255.6534">*</text><text fill="#000000" font-family="sans-serif" font-size="27.0833" lengthAdjust="spacingAndGlyphs" textLength="14.5833" x="1136.0983" y="255.5891">1</text><path d="M2026.8438,261.4583 C2075.6729,261.4583 2125.125,261.4583 2173.2083,261.4583 " fill="none" style="stroke: #A80036; stroke-width: 2.0833333333333335;"/><polygon fill="#A80036" points="2200.5625,261.4583,2181.8125,253.125,2190.1458,261.4583,2181.8125,269.7917,2200.5625,261.4583" style="stroke: #A80036; stroke-width: 2.0833333333333335;"/><line style="stroke: #A80036; stroke-width: 2.0833333333333335;" x1="2190.1458" x2="2173.4792" y1="261.4583" y2="261.4583"/><polygon fill="#A80036" points="1999.2979,261.4583,2011.7979,269.7917,2024.2979,261.4583,2011.7979,253.125,1999.2979,261.4583" style="stroke: #A80036; stroke-width: 2.0833333333333335;"/><text fill="#000000" font-family="sans-serif" font-size="27.0833" lengthAdjust="spacingAndGlyphs" textLength="125" x="2037.5" y="247.9065">references</text><text fill="#000000" font-family="sans-serif" font-size="27.0833" lengthAdjust="spacingAndGlyphs" textLength="14.5833" x="2015.8314" y="255.5891">1</text><text fill="#000000" font-family="sans-serif" font-size="27.0833" lengthAdjust="spacingAndGlyphs" textLength="10.4167" x="2173.5095" y="255.5005">*</text><path d="M799.8688,411.1333 C914.5146,472.2292 1044.8146,541.6667 1149.3625,597.3813 " fill="none" style="stroke: #A80036; stroke-width: 2.0833333333333335;"/><polygon fill="#A80036" points="1173.3063,610.1417,1160.6787,593.9691,1164.1136,605.2426,1152.8401,608.6774,1173.3063,610.1417" style="stroke: #A80036; stroke-width: 2.0833333333333335;"/><line style="stroke: #A80036; stroke-width: 2.0833333333333335;" x1="1164.1136" x2="1149.4042" y1="605.2426" y2="597.4031"/><polygon fill="#FFFFFF" points="775.4104,398.0979,782.5224,411.331,797.4729,409.8558,790.3609,396.6227,775.4104,398.0979" style="stroke: #A80036; stroke-width: 2.0833333333333335;"/><text fill="#000000" font-family="sans-serif" font-size="27.0833" lengthAdjust="spacingAndGlyphs" textLength="158.3333" x="960.4167" y="494.7815">apduRequest</text><text fill="#000000" font-family="sans-serif" font-size="27.0833" lengthAdjust="spacingAndGlyphs" textLength="31.25" x="770.0679" y="443.0189">+1</text><text fill="#000000" font-family="sans-serif" font-size="27.0833" lengthAdjust="spacingAndGlyphs" textLength="14.5833" x="1131.1882" y="588.1081">1</text><path d="M2390.0208,416.0896 C2324.625,473.9333 2251.4792,538.625 2191.3125,591.8313 " fill="none" style="stroke: #A80036; stroke-width: 2.0833333333333335;"/><polygon fill="#A80036" points="2170.625,610.1417,2190.1899,603.9593,2178.4268,603.2396,2179.1465,591.4764,2170.625,610.1417" style="stroke: #A80036; stroke-width: 2.0833333333333335;"/><line style="stroke: #A80036; stroke-width: 2.0833333333333335;" x1="2178.4268" x2="2190.9063" y1="603.2396" y2="592.1979"/><polygon fill="#FFFFFF" points="2410.3542,398.0979,2395.4703,400.139,2391.6299,414.663,2406.5137,412.6219,2410.3542,398.0979" style="stroke: #A80036; stroke-width: 2.0833333333333335;"/><text fill="#000000" font-family="sans-serif" font-size="27.0833" lengthAdjust="spacingAndGlyphs" textLength="179.1667" x="2331.25" y="494.7815">apduResponse</text><text fill="#000000" font-family="sans-serif" font-size="27.0833" lengthAdjust="spacingAndGlyphs" textLength="31.25" x="2360.7542" y="443.0189">+1</text><text fill="#000000" font-family="sans-serif" font-size="27.0833" lengthAdjust="spacingAndGlyphs" textLength="14.5833" x="2170.8438" y="588.1081">1</text></g></svg>