<?xml version="1.0" encoding="UTF-8" standalone="no"?><svg xmlns="http://www.w3.org/2000/svg" xmlns:xlink="http://www.w3.org/1999/xlink" contentScriptType="application/ecmascript" contentStyleType="text/css" height="845.8333px" preserveAspectRatio="none" style="width:2972px;height:845px;" version="1.1" viewBox="0 0 2972 845" width="2972.9167px" zoomAndPan="magnify"><defs><filter height="300%" id="fbrb4zd" width="300%" x="-1" y="-1"><feGaussianBlur result="blurOut" stdDeviation="4.166666666666667"/><feColorMatrix in="blurOut" result="blurOut2" type="matrix" values="0 0 0 0 0 0 0 0 0 0 0 0 0 0 0 0 0 0 .4 0"/><feOffset dx="8.333333333333334" dy="8.333333333333334" in="blurOut2" result="blurOut3"/><feBlend in="SourceGraphic" in2="blurOut3" mode="normal"/></filter></defs><g><!--cluster org.eclipse.keyple.seproxy--><polygon fill="#FFFFFF" filter="url(#fbrb4zd)" points="1041.6667,535.4167,1447.9167,535.4167,1462.5,584.6029,2406.25,584.6029,2406.25,831.25,1041.6667,831.25,1041.6667,535.4167" style="stroke: #000000; stroke-width: 4.166666666666667;"/><line style="stroke: #000000; stroke-width: 4.166666666666667;" x1="1041.6667" x2="1462.5" y1="584.6029" y2="584.6029"/><text fill="#000000" font-family="sans-serif" font-size="29.1667" font-weight="bold" lengthAdjust="spacingAndGlyphs" textLength="393.75" x="1050" y="569.8608">org.eclipse.keyple.seproxy</text><!--cluster org.eclipse.keyple.commands--><polygon fill="#FFFFFF" filter="url(#fbrb4zd)" points="45.8333,50,491.6667,50,506.25,99.1862,2958.3333,99.1862,2958.3333,431.25,45.8333,431.25,45.8333,50" style="stroke: #000000; stroke-width: 4.166666666666667;"/><line style="stroke: #000000; stroke-width: 4.166666666666667;" x1="45.8333" x2="506.25" y1="99.1862" y2="99.1862"/><text fill="#000000" font-family="sans-serif" font-size="29.1667" font-weight="bold" lengthAdjust="spacingAndGlyphs" textLength="433.3333" x="54.1667" y="84.4442">org.eclipse.keyple.commands</text><!--class ApduRequest--><rect fill="#FEFECE" filter="url(#fbrb4zd)" height="186.4746" style="stroke: #A80036; stroke-width: 3.125;" width="541.6667" x="1075" y="610.4167"/><ellipse cx="1219.2708" cy="643.75" fill="#ADD1B2" rx="22.9167" ry="22.9167" style="stroke: #A80036; stroke-width: 2.0833333333333335;"/><path d="M1225.0326,635.1563 Q1225.3581,634.7005 1225.7487,634.4727 Q1226.1393,634.2448 1226.5951,634.2448 Q1227.3763,634.2448 1227.8646,634.7819 Q1228.3529,635.319 1228.3529,636.5885 L1228.3529,639.6159 Q1228.3529,640.8854 1227.8646,641.4388 Q1227.3763,641.9922 1226.5951,641.9922 Q1225.8789,641.9922 1225.4557,641.569 Q1225.0326,641.1784 1224.8047,640.1042 Q1224.707,639.3555 1224.3164,638.9648 Q1223.6328,638.1836 1222.3633,637.7279 Q1221.0938,637.2721 1219.7917,637.2721 Q1218.1966,637.2721 1216.8783,637.9557 Q1215.5599,638.6393 1214.5345,640.2018 Q1213.5091,641.7643 1213.5091,643.9128 L1213.5091,646.1914 Q1213.5091,648.763 1215.3646,650.472 Q1217.2201,652.181 1220.5404,652.181 Q1222.4935,652.181 1223.8607,651.6602 Q1224.6745,651.3346 1225.5534,650.4232 Q1226.1068,649.8698 1226.416,649.707 Q1226.7253,649.5443 1227.1484,649.5443 Q1227.832,649.5443 1228.3691,650.0814 Q1228.9063,650.6185 1228.9063,651.3346 Q1228.9063,652.0508 1228.1901,652.8971 Q1227.1484,654.1016 1225.4883,654.7852 Q1223.2422,655.7292 1220.5404,655.7292 Q1217.3828,655.7292 1214.8763,654.4271 Q1212.8255,653.3854 1211.3932,651.1556 Q1209.9609,648.9258 1209.9609,646.2565 L1209.9609,643.8477 Q1209.9609,641.0807 1211.2467,638.6882 Q1212.5326,636.2956 1214.8112,635.0098 Q1217.0898,633.724 1219.6615,633.724 Q1221.1914,633.724 1222.5423,634.0658 Q1223.8932,634.4076 1225.0326,635.1563 Z "/><ellipse cx="1272.3958" cy="642.7083" fill="#84BE84" rx="6.25" ry="6.25" style="stroke: #038048; stroke-width: 2.0833333333333335;"/><text fill="#000000" font-family="sans-serif" font-size="25" font-weight="bold" lengthAdjust="spacingAndGlyphs" textLength="50" x="1284.8958" y="653.9795">final</text><text fill="#000000" font-family="sans-serif" font-size="25" lengthAdjust="spacingAndGlyphs" textLength="156.25" x="1341.1458" y="653.9795">ApduRequest</text><line style="stroke: #A80036; stroke-width: 3.125;" x1="1077.0833" x2="1614.5833" y1="677.0833" y2="677.0833"/><rect fill="none" height="12.5" style="stroke: #C82930; stroke-width: 2.0833333333333335;" width="12.5" x="1091.6667" y="696.7041"/><text fill="#000000" font-family="sans-serif" font-size="22.9167" lengthAdjust="spacingAndGlyphs" textLength="147.9167" x="1116.6667" y="709.2061">boolean case4</text><line style="stroke: #A80036; stroke-width: 3.125;" x1="1077.0833" x2="1614.5833" y1="722.5749" y2="722.5749"/><ellipse cx="1097.9167" cy="748.4456" fill="#84BE84" rx="6.25" ry="6.25" style="stroke: #038048; stroke-width: 2.0833333333333335;"/><text fill="#000000" font-family="sans-serif" font-size="22.9167" lengthAdjust="spacingAndGlyphs" textLength="487.5" x="1116.6667" y="754.6977">ApduRequest(ByteBuffer bytes, boolean case4)</text><ellipse cx="1097.9167" cy="777.2705" fill="#84BE84" rx="6.25" ry="6.25" style="stroke: #038048; stroke-width: 2.0833333333333335;"/><text fill="#000000" font-family="sans-serif" font-size="22.9167" lengthAdjust="spacingAndGlyphs" textLength="183.3333" x="1116.6667" y="783.5225">boolean isCase4()</text><!--class ApduResponse--><rect fill="#FEFECE" filter="url(#fbrb4zd)" height="186.4746" style="stroke: #A80036; stroke-width: 3.125;" width="610.4167" x="1761.4583" y="610.4167"/><ellipse cx="1928.6458" cy="643.75" fill="#ADD1B2" rx="22.9167" ry="22.9167" style="stroke: #A80036; stroke-width: 2.0833333333333335;"/><path d="M1934.4076,635.1563 Q1934.7331,634.7005 1935.1237,634.4727 Q1935.5143,634.2448 1935.9701,634.2448 Q1936.7513,634.2448 1937.2396,634.7819 Q1937.7279,635.319 1937.7279,636.5885 L1937.7279,639.6159 Q1937.7279,640.8854 1937.2396,641.4388 Q1936.7513,641.9922 1935.9701,641.9922 Q1935.2539,641.9922 1934.8307,641.569 Q1934.4076,641.1784 1934.1797,640.1042 Q1934.082,639.3555 1933.6914,638.9648 Q1933.0078,638.1836 1931.7383,637.7279 Q1930.4688,637.2721 1929.1667,637.2721 Q1927.5716,637.2721 1926.2533,637.9557 Q1924.9349,638.6393 1923.9095,640.2018 Q1922.8841,641.7643 1922.8841,643.9128 L1922.8841,646.1914 Q1922.8841,648.763 1924.7396,650.472 Q1926.5951,652.181 1929.9154,652.181 Q1931.8685,652.181 1933.2357,651.6602 Q1934.0495,651.3346 1934.9284,650.4232 Q1935.4818,649.8698 1935.791,649.707 Q1936.1003,649.5443 1936.5234,649.5443 Q1937.207,649.5443 1937.7441,650.0814 Q1938.2813,650.6185 1938.2813,651.3346 Q1938.2813,652.0508 1937.5651,652.8971 Q1936.5234,654.1016 1934.8633,654.7852 Q1932.6172,655.7292 1929.9154,655.7292 Q1926.7578,655.7292 1924.2513,654.4271 Q1922.2005,653.3854 1920.7682,651.1556 Q1919.3359,648.9258 1919.3359,646.2565 L1919.3359,643.8477 Q1919.3359,641.0807 1920.6217,638.6882 Q1921.9076,636.2956 1924.1862,635.0098 Q1926.4648,633.724 1929.0365,633.724 Q1930.5664,633.724 1931.9173,634.0658 Q1933.2682,634.4076 1934.4076,635.1563 Z "/><ellipse cx="1981.7708" cy="642.7083" fill="#84BE84" rx="6.25" ry="6.25" style="stroke: #038048; stroke-width: 2.0833333333333335;"/><text fill="#000000" font-family="sans-serif" font-size="25" font-weight="bold" lengthAdjust="spacingAndGlyphs" textLength="50" x="1994.2708" y="653.9795">final</text><text fill="#000000" font-family="sans-serif" font-size="25" lengthAdjust="spacingAndGlyphs" textLength="179.1667" x="2050.5208" y="653.9795">ApduResponse</text><line style="stroke: #A80036; stroke-width: 3.125;" x1="1763.5417" x2="2369.7917" y1="677.0833" y2="677.0833"/><rect fill="none" height="12.5" style="stroke: #C82930; stroke-width: 2.0833333333333335;" width="12.5" x="1778.125" y="696.7041"/><text fill="#000000" font-family="sans-serif" font-size="22.9167" lengthAdjust="spacingAndGlyphs" textLength="197.9167" x="1803.125" y="709.2061">boolean successful</text><line style="stroke: #A80036; stroke-width: 3.125;" x1="1763.5417" x2="2369.7917" y1="722.5749" y2="722.5749"/><ellipse cx="1784.375" cy="748.4456" fill="#84BE84" rx="6.25" ry="6.25" style="stroke: #038048; stroke-width: 2.0833333333333335;"/><text fill="#000000" font-family="sans-serif" font-size="22.9167" lengthAdjust="spacingAndGlyphs" textLength="556.25" x="1803.125" y="754.6977">ApduResponse(ByteBuffer bytes, boolean successful)</text><ellipse cx="1784.375" cy="777.2705" fill="#84BE84" rx="6.25" ry="6.25" style="stroke: #038048; stroke-width: 2.0833333333333335;"/><text fill="#000000" font-family="sans-serif" font-size="22.9167" lengthAdjust="spacingAndGlyphs" textLength="233.3333" x="1803.125" y="783.5225">boolean isSuccessful()</text><!--class AbstractApduCommandBuilder--><rect fill="#FEFECE" filter="url(#fbrb4zd)" height="272.9492" style="stroke: #A80036; stroke-width: 3.125;" width="885.4167" x="80.2083" y="125"/><ellipse cx="334.8958" cy="158.3333" fill="#A9DCDF" rx="22.9167" ry="22.9167" style="stroke: #A80036; stroke-width: 2.0833333333333335;"/><path d="M339.4531,162.0117 L330.8268,162.0117 L329.9479,164.1602 L330.8268,164.1602 Q332.0964,164.1602 332.6497,164.6484 Q333.2031,165.1367 333.2031,165.9505 Q333.2031,166.7318 332.6497,167.2201 Q332.0964,167.7083 330.8268,167.7083 L326.0417,167.7083 Q324.7721,167.7083 324.235,167.2201 Q323.6979,166.7318 323.6979,165.918 Q323.6979,165.1367 324.2676,164.6322 Q324.8372,164.1276 326.1393,164.1602 L331.7057,150.293 L329.3945,150.293 Q328.125,150.293 327.5716,149.8047 Q327.0182,149.3164 327.0182,148.5026 Q327.0182,147.7214 327.5716,147.2331 Q328.125,146.7448 329.3945,146.7448 L337.0443,146.7448 L344.1081,164.1602 Q345.3451,164.1602 345.7357,164.4531 Q346.5495,165.0065 346.5495,165.9505 Q346.5495,166.7318 346.0124,167.2201 Q345.4753,167.7083 344.2057,167.7083 L339.4206,167.7083 Q338.151,167.7083 337.5977,167.2201 Q337.0443,166.7318 337.0443,165.918 Q337.0443,165.1367 337.5977,164.6484 Q338.151,164.1602 339.4206,164.1602 L340.2995,164.1602 L339.4531,162.0117 Z M337.9557,158.4635 L335.1237,151.4323 L332.2591,158.4635 L337.9557,158.4635 Z "/><text fill="#000000" font-family="sans-serif" font-size="25" font-style="italic" lengthAdjust="spacingAndGlyphs" textLength="358.3333" x="377.6042" y="168.5628">AbstractApduCommandBuilder</text><line style="stroke: #A80036; stroke-width: 3.125;" x1="82.2917" x2="963.5417" y1="191.6667" y2="191.6667"/><rect fill="none" height="12.5" style="stroke: #C82930; stroke-width: 2.0833333333333335;" width="12.5" x="96.875" y="211.2874"/><text fill="#000000" font-family="sans-serif" font-size="22.9167" lengthAdjust="spacingAndGlyphs" textLength="372.9167" x="121.875" y="223.7895">CommandsTable commandReference</text><rect fill="none" height="12.5" style="stroke: #C82930; stroke-width: 2.0833333333333335;" width="12.5" x="96.875" y="240.1123"/><text fill="#000000" font-family="sans-serif" font-size="22.9167" lengthAdjust="spacingAndGlyphs" textLength="277.0833" x="121.875" y="252.6143">ApduRequest apduRequest</text><line style="stroke: #A80036; stroke-width: 3.125;" x1="82.2917" x2="963.5417" y1="265.9831" y2="265.9831"/><ellipse cx="103.125" cy="291.8538" fill="#84BE84" rx="6.25" ry="6.25" style="stroke: #038048; stroke-width: 2.0833333333333335;"/><text fill="#000000" font-family="sans-serif" font-size="22.9167" lengthAdjust="spacingAndGlyphs" textLength="829.1667" x="121.875" y="298.1059">AbstractApduCommandBuilder(CommandsTable reference, ApduRequest request)</text><ellipse cx="103.125" cy="320.6787" fill="#84BE84" rx="6.25" ry="6.25" style="stroke: #038048; stroke-width: 2.0833333333333335;"/><text fill="#000000" font-family="sans-serif" font-size="22.9167" lengthAdjust="spacingAndGlyphs" textLength="168.75" x="121.875" y="326.9307">String getName()</text><ellipse cx="103.125" cy="349.5036" fill="#84BE84" rx="6.25" ry="6.25" style="stroke: #038048; stroke-width: 2.0833333333333335;"/><text fill="#000000" font-family="sans-serif" font-size="22.9167" lengthAdjust="spacingAndGlyphs" textLength="329.1667" x="121.875" y="355.7556">ApduRequest getApduRequest()</text><ellipse cx="103.125" cy="378.3285" fill="#84BE84" rx="6.25" ry="6.25" style="stroke: #038048; stroke-width: 2.0833333333333335;"/><text fill="#000000" font-family="sans-serif" font-size="22.9167" lengthAdjust="spacingAndGlyphs" textLength="831.25" x="121.875" y="384.5805">Class&lt;? extends AbstractApduResponseParser&gt; getApduResponseParserClass()</text><!--class AbstractApduResponseParser--><rect fill="#FEFECE" filter="url(#fbrb4zd)" height="272.9492" style="stroke: #A80036; stroke-width: 3.125;" width="722.9167" x="2201.0417" y="125"/><ellipse cx="2380.7292" cy="158.3333" fill="#A9DCDF" rx="22.9167" ry="22.9167" style="stroke: #A80036; stroke-width: 2.0833333333333335;"/><path d="M2385.2865,162.0117 L2376.6602,162.0117 L2375.7813,164.1602 L2376.6602,164.1602 Q2377.9297,164.1602 2378.4831,164.6484 Q2379.0365,165.1367 2379.0365,165.9505 Q2379.0365,166.7318 2378.4831,167.2201 Q2377.9297,167.7083 2376.6602,167.7083 L2371.875,167.7083 Q2370.6055,167.7083 2370.0684,167.2201 Q2369.5313,166.7318 2369.5313,165.918 Q2369.5313,165.1367 2370.1009,164.6322 Q2370.6706,164.1276 2371.9727,164.1602 L2377.5391,150.293 L2375.2279,150.293 Q2373.9583,150.293 2373.4049,149.8047 Q2372.8516,149.3164 2372.8516,148.5026 Q2372.8516,147.7214 2373.4049,147.2331 Q2373.9583,146.7448 2375.2279,146.7448 L2382.8776,146.7448 L2389.9414,164.1602 Q2391.1784,164.1602 2391.569,164.4531 Q2392.3828,165.0065 2392.3828,165.9505 Q2392.3828,166.7318 2391.8457,167.2201 Q2391.3086,167.7083 2390.0391,167.7083 L2385.2539,167.7083 Q2383.9844,167.7083 2383.431,167.2201 Q2382.8776,166.7318 2382.8776,165.918 Q2382.8776,165.1367 2383.431,164.6484 Q2383.9844,164.1602 2385.2539,164.1602 L2386.1328,164.1602 L2385.2865,162.0117 Z M2383.7891,158.4635 L2380.957,151.4323 L2378.0924,158.4635 L2383.7891,158.4635 Z "/><text fill="#000000" font-family="sans-serif" font-size="25" font-style="italic" lengthAdjust="spacingAndGlyphs" textLength="345.8333" x="2423.4375" y="168.5628">AbstractApduResponseParser</text><line style="stroke: #A80036; stroke-width: 3.125;" x1="2203.125" x2="2921.875" y1="191.6667" y2="191.6667"/><rect fill="none" height="12.5" style="stroke: #C82930; stroke-width: 2.0833333333333335;" width="12.5" x="2217.7083" y="211.2874"/><text fill="#000000" font-family="sans-serif" font-size="22.9167" lengthAdjust="spacingAndGlyphs" textLength="314.5833" x="2242.7083" y="223.7895">ApduResponse apduResponse</text><line style="stroke: #A80036; stroke-width: 3.125;" x1="2203.125" x2="2921.875" y1="237.1582" y2="237.1582"/><ellipse cx="2223.9583" cy="263.029" fill="#84BE84" rx="6.25" ry="6.25" style="stroke: #038048; stroke-width: 2.0833333333333335;"/><text fill="#000000" font-family="sans-serif" font-size="22.9167" lengthAdjust="spacingAndGlyphs" textLength="668.75" x="2242.7083" y="269.281">AbstractApduResponseParser(ApduResponse responseToParse)</text><ellipse cx="2223.9583" cy="291.8538" fill="#84BE84" rx="6.25" ry="6.25" style="stroke: #038048; stroke-width: 2.0833333333333335;"/><text fill="#000000" font-family="sans-serif" font-size="22.9167" lengthAdjust="spacingAndGlyphs" textLength="366.6667" x="2242.7083" y="298.1059">ApduResponse getApduResponse()</text><ellipse cx="2223.9583" cy="320.6787" fill="#84BE84" rx="6.25" ry="6.25" style="stroke: #038048; stroke-width: 2.0833333333333335;"/><text fill="#000000" font-family="sans-serif" font-size="22.9167" lengthAdjust="spacingAndGlyphs" textLength="222.9167" x="2242.7083" y="326.9307">short getStatusCode()</text><ellipse cx="2223.9583" cy="349.5036" fill="#84BE84" rx="6.25" ry="6.25" style="stroke: #038048; stroke-width: 2.0833333333333335;"/><text fill="#000000" font-family="sans-serif" font-size="22.9167" lengthAdjust="spacingAndGlyphs" textLength="233.3333" x="2242.7083" y="355.7556">boolean isSuccessful()</text><ellipse cx="2223.9583" cy="378.3285" fill="#84BE84" rx="6.25" ry="6.25" style="stroke: #038048; stroke-width: 2.0833333333333335;"/><text fill="#000000" font-family="sans-serif" font-size="22.9167" lengthAdjust="spacingAndGlyphs" textLength="287.5" x="2242.7083" y="384.5805">String getStatusInformation()</text><!--class CommandsTable--><rect fill="#FEFECE" filter="url(#fbrb4zd)" height="215.2995" style="stroke: #A80036; stroke-width: 3.125;" width="831.25" x="1167.7083" y="154.1667"/><ellipse cx="1473.4375" cy="187.5" fill="#B4A7E5" rx="22.9167" ry="22.9167" style="stroke: #A80036; stroke-width: 2.0833333333333335;"/><path d="M1475.4232,180.5013 L1475.4232,194.3685 L1479.0039,194.3685 Q1480.2734,194.3685 1480.8268,194.8568 Q1481.3802,195.3451 1481.3802,196.1589 Q1481.3802,196.9401 1480.8268,197.4284 Q1480.2734,197.9167 1479.0039,197.9167 L1468.2943,197.9167 Q1467.0247,197.9167 1466.4714,197.4284 Q1465.918,196.9401 1465.918,196.1263 Q1465.918,195.3451 1466.4714,194.8568 Q1467.0247,194.3685 1468.2943,194.3685 L1471.875,194.3685 L1471.875,180.5013 L1468.2943,180.5013 Q1467.0247,180.5013 1466.4714,180.013 Q1465.918,179.5247 1465.918,178.7109 Q1465.918,177.9297 1466.4714,177.4414 Q1467.0247,176.9531 1468.2943,176.9531 L1479.0039,176.9531 Q1480.2734,176.9531 1480.8268,177.4414 Q1481.3802,177.9297 1481.3802,178.7109 Q1481.3802,179.5247 1480.8268,180.013 Q1480.2734,180.5013 1479.0039,180.5013 L1475.4232,180.5013 Z "/><text fill="#000000" font-family="sans-serif" font-size="25" font-style="italic" lengthAdjust="spacingAndGlyphs" textLength="202.0833" x="1516.1458" y="197.7295">CommandsTable</text><line style="stroke: #A80036; stroke-width: 3.125;" x1="1169.7917" x2="1996.875" y1="220.8333" y2="220.8333"/><line style="stroke: #A80036; stroke-width: 3.125;" x1="1169.7917" x2="1996.875" y1="237.5" y2="237.5"/><ellipse cx="1190.625" cy="263.3708" fill="#84BE84" rx="6.25" ry="6.25" style="stroke: #038048; stroke-width: 2.0833333333333335;"/><text fill="#000000" font-family="sans-serif" font-size="22.9167" lengthAdjust="spacingAndGlyphs" textLength="168.75" x="1209.375" y="269.6228">String getName()</text><ellipse cx="1190.625" cy="292.1956" fill="#84BE84" rx="6.25" ry="6.25" style="stroke: #038048; stroke-width: 2.0833333333333335;"/><text fill="#000000" font-family="sans-serif" font-size="22.9167" lengthAdjust="spacingAndGlyphs" textLength="247.9167" x="1209.375" y="298.4477">byte getInstructionByte()</text><ellipse cx="1190.625" cy="321.0205" fill="#84BE84" rx="6.25" ry="6.25" style="stroke: #038048; stroke-width: 2.0833333333333335;"/><text fill="#000000" font-family="sans-serif" font-size="22.9167" lengthAdjust="spacingAndGlyphs" textLength="772.9167" x="1209.375" y="327.2725">Class&lt;? extends AbstractApduCommandBuilder&gt; getCommandBuilderClass()</text><ellipse cx="1190.625" cy="349.8454" fill="#84BE84" rx="6.25" ry="6.25" style="stroke: #038048; stroke-width: 2.0833333333333335;"/><text fill="#000000" font-family="sans-serif" font-size="22.9167" lengthAdjust="spacingAndGlyphs" textLength="777.0833" x="1209.375" y="356.0974">Class&lt;? extends AbstractApduResponseParser&gt; getResponseParserClass()</text><path d="M993.1833,261.4583 C1041.8813,261.4583 1091.2625,261.4583 1139.6542,261.4583 " fill="none" style="stroke: #A80036; stroke-width: 2.0833333333333335;"/><polygon fill="#A80036" points="1167.2208,261.4583,1154.7208,253.125,1142.2208,261.4583,1154.7208,269.7917,1167.2208,261.4583" style="stroke: #A80036; stroke-width: 2.0833333333333335;"/><polygon fill="#A80036" points="965.7167,261.4583,984.4667,269.7917,976.1333,261.4583,984.4667,253.125,965.7167,261.4583" style="stroke: #A80036; stroke-width: 2.0833333333333335;"/><line style="stroke: #A80036; stroke-width: 2.0833333333333335;" x1="976.1333" x2="992.8" y1="261.4583" y2="261.4583"/><text fill="#000000" font-family="sans-serif" font-size="27.0833" lengthAdjust="spacingAndGlyphs" textLength="125" x="1004.1667" y="247.9065">references</text><text fill="#000000" font-family="sans-serif" font-size="27.0833" lengthAdjust="spacingAndGlyphs" textLength="10.4167" x="981.817" y="255.6534">*</text><text fill="#000000" font-family="sans-serif" font-size="27.0833" lengthAdjust="spacingAndGlyphs" textLength="14.5833" x="1136.0983" y="255.5891">1</text><path d="M2026.8438,261.4583 C2075.6729,261.4583 2125.125,261.4583 2173.2083,261.4583 " fill="none" style="stroke: #A80036; stroke-width: 2.0833333333333335;"/><polygon fill="#A80036" points="2200.5625,261.4583,2181.8125,253.125,2190.1458,261.4583,2181.8125,269.7917,2200.5625,261.4583" style="stroke: #A80036; stroke-width: 2.0833333333333335;"/><line style="stroke: #A80036; stroke-width: 2.0833333333333335;" x1="2190.1458" x2="2173.4792" y1="261.4583" y2="261.4583"/><polygon fill="#A80036" points="1999.2979,261.4583,2011.7979,269.7917,2024.2979,261.4583,2011.7979,253.125,1999.2979,261.4583" style="stroke: #A80036; stroke-width: 2.0833333333333335;"/><text fill="#000000" font-family="sans-serif" font-size="27.0833" lengthAdjust="spacingAndGlyphs" textLength="125" x="2037.5" y="247.9065">references</text><text fill="#000000" font-family="sans-serif" font-size="27.0833" lengthAdjust="spacingAndGlyphs" textLength="14.5833" x="2015.8314" y="255.5891">1</text><text fill="#000000" font-family="sans-serif" font-size="27.0833" lengthAdjust="spacingAndGlyphs" textLength="10.4167" x="2173.5095" y="255.5005">*</text><path d="M799.8688,411.1333 C914.5146,472.2292 1044.8146,541.6667 1149.3625,597.3813 " fill="none" style="stroke: #A80036; stroke-width: 2.0833333333333335;"/><polygon fill="#A80036" points="1173.3063,610.1417,1160.6787,593.9691,1164.1136,605.2426,1152.8401,608.6774,1173.3063,610.1417" style="stroke: #A80036; stroke-width: 2.0833333333333335;"/><line style="stroke: #A80036; stroke-width: 2.0833333333333335;" x1="1164.1136" x2="1149.4042" y1="605.2426" y2="597.4031"/><polygon fill="#FFFFFF" points="775.4104,398.0979,782.5224,411.331,797.4729,409.8558,790.3609,396.6227,775.4104,398.0979" style="stroke: #A80036; stroke-width: 2.0833333333333335;"/><text fill="#000000" font-family="sans-serif" font-size="27.0833" lengthAdjust="spacingAndGlyphs" textLength="158.3333" x="960.4167" y="494.7815">apduRequest</text><text fill="#000000" font-family="sans-serif" font-size="27.0833" lengthAdjust="spacingAndGlyphs" textLength="31.25" x="770.0679" y="443.0189">+1</text><text fill="#000000" font-family="sans-serif" font-size="27.0833" lengthAdjust="spacingAndGlyphs" textLength="14.5833" x="1131.1882" y="588.1081">1</text><path d="M2390.0208,416.0896 C2324.625,473.9333 2251.4792,538.625 2191.3125,591.8313 " fill="none" style="stroke: #A80036; stroke-width: 2.0833333333333335;"/><polygon fill="#A80036" points="2170.625,610.1417,2190.1899,603.9593,2178.4268,603.2396,2179.1465,591.4764,2170.625,610.1417" style="stroke: #A80036; stroke-width: 2.0833333333333335;"/><line style="stroke: #A80036; stroke-width: 2.0833333333333335;" x1="2178.4268" x2="2190.9063" y1="603.2396" y2="592.1979"/><polygon fill="#FFFFFF" points="2410.3542,398.0979,2395.4703,400.139,2391.6299,414.663,2406.5137,412.6219,2410.3542,398.0979" style="stroke: #A80036; stroke-width: 2.0833333333333335;"/><text fill="#000000" font-family="sans-serif" font-size="27.0833" lengthAdjust="spacingAndGlyphs" textLength="179.1667" x="2331.25" y="494.7815">apduResponse</text><text fill="#000000" font-family="sans-serif" font-size="27.0833" lengthAdjust="spacingAndGlyphs" textLength="31.25" x="2360.7542" y="443.0189">+1</text><text fill="#000000" font-family="sans-serif" font-size="27.0833" lengthAdjust="spacingAndGlyphs" textLength="14.5833" x="2170.8438" y="588.1081">1</text></g></svg>