<?xml version="1.0" encoding="UTF-8" standalone="no"?><svg xmlns="http://www.w3.org/2000/svg" xmlns:xlink="http://www.w3.org/1999/xlink" contentScriptType="application/ecmascript" contentStyleType="text/css" height="2354.1667px" preserveAspectRatio="none" style="width:3027px;height:2354px;" version="1.1" viewBox="0 0 3027 2354" width="3027.0833px" zoomAndPan="magnify"><defs><filter height="300%" id="f5tfoot2w8p6k" width="300%" x="-1" y="-1"><feGaussianBlur result="blurOut" stdDeviation="4.166666666666667"/><feColorMatrix in="blurOut" result="blurOut2" type="matrix" values="0 0 0 0 0 0 0 0 0 0 0 0 0 0 0 0 0 0 .4 0"/><feOffset dx="8.333333333333334" dy="8.333333333333334" in="blurOut2" result="blurOut3"/><feBlend in="SourceGraphic" in2="blurOut3" mode="normal"/></filter></defs><g><!--cluster org.eclipse.keyple.seproxy--><polygon fill="#FFFFFF" filter="url(#f5tfoot2w8p6k)" points="45.8333,392.7083,452.0833,392.7083,466.6667,441.8945,2981.25,441.8945,2981.25,2329.1667,45.8333,2329.1667,45.8333,392.7083" style="stroke: #000000; stroke-width: 3.125;"/><line style="stroke: #000000; stroke-width: 3.125;" x1="45.8333" x2="466.6667" y1="441.8945" y2="441.8945"/><text fill="#000000" font-family="sans-serif" font-size="29.1667" font-weight="bold" lengthAdjust="spacingAndGlyphs" textLength="393.75" x="54.1667" y="427.1525">org.eclipse.keyple.seproxy</text><!--cluster event--><polygon fill="#FFFFFF" filter="url(#f5tfoot2w8p6k)" points="583.3333,484.375,681.25,484.375,695.8333,533.5612,2931.25,533.5612,2931.25,1758.3333,583.3333,1758.3333,583.3333,484.375" style="stroke: #000000; stroke-width: 3.125;"/><line style="stroke: #000000; stroke-width: 3.125;" x1="583.3333" x2="695.8333" y1="533.5612" y2="533.5612"/><text fill="#000000" font-family="sans-serif" font-size="29.1667" font-weight="bold" lengthAdjust="spacingAndGlyphs" textLength="85.4167" x="591.6667" y="518.8192">event</text><!--cluster external.terminalapplication--><polygon fill="#3399FF" filter="url(#f5tfoot2w8p6k)" points="620.8333,51.0417,1041.6667,51.0417,1056.25,100.2279,2531.25,100.2279,2531.25,288.5417,620.8333,288.5417,620.8333,51.0417" style="stroke: #000000; stroke-width: 3.125;"/><line style="stroke: #000000; stroke-width: 3.125;" x1="620.8333" x2="1056.25" y1="100.2279" y2="100.2279"/><text fill="#000000" font-family="sans-serif" font-size="29.1667" font-weight="bold" lengthAdjust="spacingAndGlyphs" textLength="408.3333" x="629.1667" y="85.4858">external.terminalapplication</text><!--class SeProxyService--><rect fill="#FEFECE" filter="url(#f5tfoot2w8p6k)" height="318.8314" id="SeProxyService" style="stroke: #A80036; stroke-width: 3.125;" width="470.8333" x="79.1667" y="543.75"/><ellipse cx="178.6458" cy="585.612" fill="#ADD1B2" rx="22.9167" ry="22.9167" style="stroke: #A80036; stroke-width: 2.0833333333333335;"/><path d="M184.4076,577.0182 Q184.7331,576.5625 185.1237,576.3346 Q185.5143,576.1068 185.9701,576.1068 Q186.7513,576.1068 187.2396,576.6439 Q187.7279,577.181 187.7279,578.4505 L187.7279,581.4779 Q187.7279,582.7474 187.2396,583.3008 Q186.7513,583.8542 185.9701,583.8542 Q185.2539,583.8542 184.8307,583.431 Q184.4076,583.0404 184.1797,581.9661 Q184.082,581.2174 183.6914,580.8268 Q183.0078,580.0456 181.7383,579.5898 Q180.4688,579.1341 179.1667,579.1341 Q177.5716,579.1341 176.2533,579.8177 Q174.9349,580.5013 173.9095,582.0638 Q172.8841,583.6263 172.8841,585.7747 L172.8841,588.0534 Q172.8841,590.625 174.7396,592.334 Q176.5951,594.043 179.9154,594.043 Q181.8685,594.043 183.2357,593.5221 Q184.0495,593.1966 184.9284,592.2852 Q185.4818,591.7318 185.791,591.569 Q186.1003,591.4063 186.5234,591.4063 Q187.207,591.4063 187.7441,591.9434 Q188.2813,592.4805 188.2813,593.1966 Q188.2813,593.9128 187.5651,594.7591 Q186.5234,595.9635 184.8633,596.6471 Q182.6172,597.5911 179.9154,597.5911 Q176.7578,597.5911 174.2513,596.2891 Q172.2005,595.2474 170.7682,593.0176 Q169.3359,590.7878 169.3359,588.1185 L169.3359,585.7096 Q169.3359,582.9427 170.6217,580.5501 Q171.9076,578.1576 174.1862,576.8717 Q176.4648,575.5859 179.0365,575.5859 Q180.5664,575.5859 181.9173,575.9277 Q183.2682,576.2695 184.4076,577.0182 Z "/><text fill="#000000" font-family="sans-serif" font-size="25" font-style="italic" lengthAdjust="spacingAndGlyphs" textLength="137.5" x="279.6875" y="580.1188">«Singleton»</text><ellipse cx="231.7708" cy="600.293" fill="#84BE84" rx="6.25" ry="6.25" style="stroke: #038048; stroke-width: 2.0833333333333335;"/><text fill="#000000" font-family="sans-serif" font-size="25" font-weight="bold" lengthAdjust="spacingAndGlyphs" textLength="50" x="244.2708" y="611.5641">final</text><text fill="#000000" font-family="sans-serif" font-size="25" lengthAdjust="spacingAndGlyphs" textLength="175" x="300.5208" y="611.5641">SeProxyService</text><line style="stroke: #A80036; stroke-width: 3.125;" x1="81.25" x2="547.9167" y1="627.474" y2="627.474"/><rect fill="none" height="12.5" style="stroke: #C82930; stroke-width: 2.0833333333333335;" width="12.5" x="95.8333" y="647.0947"/><text fill="#000000" font-family="sans-serif" font-size="22.9167" lengthAdjust="spacingAndGlyphs" textLength="104.1667" x="120.8333" y="659.5968">int version</text><line style="stroke: #A80036; stroke-width: 3.125;" x1="81.25" x2="547.9167" y1="672.9655" y2="672.9655"/><text fill="#000000" font-family="sans-serif" font-size="22.9167" lengthAdjust="spacingAndGlyphs" textLength="297.9167" x="120.8333" y="705.0883">List&lt;ReadersPlugin&gt; plugins()</text><rect fill="#F24D5C" height="12.5" style="stroke: #C82930; stroke-width: 2.0833333333333335;" width="12.5" x="95.8333" y="721.4111"/><text fill="#000000" font-family="sans-serif" font-size="22.9167" lengthAdjust="spacingAndGlyphs" textLength="179.1667" x="120.8333" y="733.9132">SeProxyService()</text><ellipse cx="102.0833" cy="756.486" fill="#84BE84" rx="6.25" ry="6.25" style="stroke: #038048; stroke-width: 2.0833333333333335;"/><text fill="#000000" font-family="sans-serif" font-size="22.9167" lengthAdjust="spacingAndGlyphs" text-decoration="underline" textLength="302.0833" x="120.8333" y="762.738">SeProxyService getInstance()</text><line style="stroke: #000000; stroke-width: 1.0;" x1="120.8333" x2="422.9167" y1="766.9047" y2="766.9047"/><ellipse cx="102.0833" cy="785.3109" fill="#84BE84" rx="6.25" ry="6.25" style="stroke: #038048; stroke-width: 2.0833333333333335;"/><text fill="#000000" font-family="sans-serif" font-size="22.9167" lengthAdjust="spacingAndGlyphs" textLength="416.6667" x="120.8333" y="791.5629">setPlugins(List&lt;ReadersPlugin&gt; plugins())</text><ellipse cx="102.0833" cy="814.1357" fill="#84BE84" rx="6.25" ry="6.25" style="stroke: #038048; stroke-width: 2.0833333333333335;"/><text fill="#000000" font-family="sans-serif" font-size="22.9167" lengthAdjust="spacingAndGlyphs" textLength="393.75" x="120.8333" y="820.3878">SortedSet&lt;ReadersPlugin&gt; getPlugins()</text><ellipse cx="102.0833" cy="842.9606" fill="#84BE84" rx="6.25" ry="6.25" style="stroke: #038048; stroke-width: 2.0833333333333335;"/><text fill="#000000" font-family="sans-serif" font-size="22.9167" lengthAdjust="spacingAndGlyphs" textLength="156.25" x="120.8333" y="849.2126">int getVersion()</text><!--class ReadersPlugin--><rect fill="#FEFECE" filter="url(#f5tfoot2w8p6k)" height="128.8249" id="ReadersPlugin" style="stroke: #A80036; stroke-width: 3.125;" width="556.25" x="1346.875" y="1920.8333"/><ellipse cx="1519.2708" cy="1954.1667" fill="#B4A7E5" rx="22.9167" ry="22.9167" style="stroke: #A80036; stroke-width: 2.0833333333333335;"/><path d="M1521.2565,1947.168 L1521.2565,1961.0352 L1524.8372,1961.0352 Q1526.1068,1961.0352 1526.6602,1961.5234 Q1527.2135,1962.0117 1527.2135,1962.8255 Q1527.2135,1963.6068 1526.6602,1964.0951 Q1526.1068,1964.5833 1524.8372,1964.5833 L1514.1276,1964.5833 Q1512.8581,1964.5833 1512.3047,1964.0951 Q1511.7513,1963.6068 1511.7513,1962.793 Q1511.7513,1962.0117 1512.3047,1961.5234 Q1512.8581,1961.0352 1514.1276,1961.0352 L1517.7083,1961.0352 L1517.7083,1947.168 L1514.1276,1947.168 Q1512.8581,1947.168 1512.3047,1946.6797 Q1511.7513,1946.1914 1511.7513,1945.3776 Q1511.7513,1944.5964 1512.3047,1944.1081 Q1512.8581,1943.6198 1514.1276,1943.6198 L1524.8372,1943.6198 Q1526.1068,1943.6198 1526.6602,1944.1081 Q1527.2135,1944.5964 1527.2135,1945.3776 Q1527.2135,1946.1914 1526.6602,1946.6797 Q1526.1068,1947.168 1524.8372,1947.168 L1521.2565,1947.168 Z "/><ellipse cx="1572.3958" cy="1953.125" fill="#84BE84" rx="6.25" ry="6.25" style="stroke: #038048; stroke-width: 2.0833333333333335;"/><text fill="#000000" font-family="sans-serif" font-size="25" font-style="italic" lengthAdjust="spacingAndGlyphs" textLength="170.8333" x="1584.8958" y="1964.3962">ReadersPlugin</text><line style="stroke: #A80036; stroke-width: 3.125;" x1="1348.9583" x2="1901.0417" y1="1987.5" y2="1987.5"/><line style="stroke: #A80036; stroke-width: 3.125;" x1="1348.9583" x2="1901.0417" y1="2004.1667" y2="2004.1667"/><ellipse cx="1369.7917" cy="2030.0374" fill="#84BE84" rx="6.25" ry="6.25" style="stroke: #038048; stroke-width: 2.0833333333333335;"/><text fill="#000000" font-family="sans-serif" font-size="22.9167" lengthAdjust="spacingAndGlyphs" textLength="502.0833" x="1388.5417" y="2036.2895">SortedSet&lt;? extends ProxyReader&gt; getReaders()</text><!--class ProxyReader--><rect fill="#FEFECE" filter="url(#f5tfoot2w8p6k)" height="186.4746" id="ProxyReader" style="stroke: #A80036; stroke-width: 3.125;" width="741.6667" x="2068.75" y="1891.6667"/><ellipse cx="2344.2708" cy="1925" fill="#B4A7E5" rx="22.9167" ry="22.9167" style="stroke: #A80036; stroke-width: 2.0833333333333335;"/><path d="M2346.2565,1918.0013 L2346.2565,1931.8685 L2349.8372,1931.8685 Q2351.1068,1931.8685 2351.6602,1932.3568 Q2352.2135,1932.8451 2352.2135,1933.6589 Q2352.2135,1934.4401 2351.6602,1934.9284 Q2351.1068,1935.4167 2349.8372,1935.4167 L2339.1276,1935.4167 Q2337.8581,1935.4167 2337.3047,1934.9284 Q2336.7513,1934.4401 2336.7513,1933.6263 Q2336.7513,1932.8451 2337.3047,1932.3568 Q2337.8581,1931.8685 2339.1276,1931.8685 L2342.7083,1931.8685 L2342.7083,1918.0013 L2339.1276,1918.0013 Q2337.8581,1918.0013 2337.3047,1917.513 Q2336.7513,1917.0247 2336.7513,1916.2109 Q2336.7513,1915.4297 2337.3047,1914.9414 Q2337.8581,1914.4531 2339.1276,1914.4531 L2349.8372,1914.4531 Q2351.1068,1914.4531 2351.6602,1914.9414 Q2352.2135,1915.4297 2352.2135,1916.2109 Q2352.2135,1917.0247 2351.6602,1917.513 Q2351.1068,1918.0013 2349.8372,1918.0013 L2346.2565,1918.0013 Z "/><ellipse cx="2397.3958" cy="1923.9583" fill="#84BE84" rx="6.25" ry="6.25" style="stroke: #038048; stroke-width: 2.0833333333333335;"/><text fill="#000000" font-family="sans-serif" font-size="25" font-style="italic" lengthAdjust="spacingAndGlyphs" textLength="150" x="2409.8958" y="1935.2295">ProxyReader</text><line style="stroke: #A80036; stroke-width: 3.125;" x1="2070.8333" x2="2808.3333" y1="1958.3333" y2="1958.3333"/><line style="stroke: #A80036; stroke-width: 3.125;" x1="2070.8333" x2="2808.3333" y1="1975" y2="1975"/><ellipse cx="2091.6667" cy="2000.8708" fill="#84BE84" rx="6.25" ry="6.25" style="stroke: #038048; stroke-width: 2.0833333333333335;"/><text fill="#000000" font-family="sans-serif" font-size="22.9167" lengthAdjust="spacingAndGlyphs" textLength="222.9167" x="2110.4167" y="2007.1228">boolean isSePresent()</text><ellipse cx="2091.6667" cy="2029.6956" fill="#84BE84" rx="6.25" ry="6.25" style="stroke: #038048; stroke-width: 2.0833333333333335;"/><text fill="#000000" font-family="sans-serif" font-size="22.9167" lengthAdjust="spacingAndGlyphs" textLength="643.75" x="2110.4167" y="2035.9477">void addSeProtocolSetting(SeProtocolSetting seProtocolSetting);</text><ellipse cx="2091.6667" cy="2058.5205" fill="#84BE84" rx="6.25" ry="6.25" style="stroke: #038048; stroke-width: 2.0833333333333335;"/><text fill="#000000" font-family="sans-serif" font-size="22.9167" lengthAdjust="spacingAndGlyphs" textLength="256.25" x="2110.4167" y="2064.7725">SeResponseSet transmit(</text><text fill="#000000" font-family="sans-serif" font-size="22.9167" font-weight="bold" lengthAdjust="spacingAndGlyphs" textLength="47.9167" x="2366.6667" y="2064.7725">final</text><text fill="#000000" font-family="sans-serif" font-size="22.9167" lengthAdjust="spacingAndGlyphs" textLength="377.0833" x="2420.8333" y="2064.7725">SeRequestSet seApplicationRequest)</text><path d="M2139.5833,2206.25 L2139.5833,2295.2148 L2739.5833,2295.2148 L2739.5833,2227.0833 L2718.75,2206.25 L2139.5833,2206.25 " fill="#FBFB77" filter="url(#f5tfoot2w8p6k)" style="stroke: #A80036; stroke-width: 2.0833333333333335;"/><path d="M2718.75,2206.25 L2718.75,2227.0833 L2739.5833,2227.0833 L2718.75,2206.25 " fill="#FBFB77" style="stroke: #A80036; stroke-width: 2.0833333333333335;"/><text fill="#000000" font-family="sans-serif" font-size="27.0833" lengthAdjust="spacingAndGlyphs" textLength="556.25" x="2152.0833" y="2244.7815">ReadersPlugin &amp; ProxyReader interfaces shall</text><text fill="#000000" font-family="sans-serif" font-size="27.0833" lengthAdjust="spacingAndGlyphs" textLength="504.1667" x="2152.0833" y="2278.8472">be implemented by every readers' plugins.</text><!--class ReaderEvent--><rect fill="#FEFECE" filter="url(#f5tfoot2w8p6k)" height="186.4746" id="ReaderEvent" style="stroke: #A80036; stroke-width: 3.125;" width="237.5" x="2610.4167" y="1053.125"/><ellipse cx="2641.6667" cy="1086.4583" fill="#EB937F" rx="22.9167" ry="22.9167" style="stroke: #A80036; stroke-width: 2.0833333333333335;"/><path d="M2639.2904,1088.1185 L2639.2904,1093.3268 L2648.3073,1093.3268 L2648.3073,1091.4063 Q2648.3073,1090.1367 2648.8118,1089.5833 Q2649.3164,1089.0299 2650.0977,1089.0299 Q2650.8789,1089.0299 2651.3672,1089.5833 Q2651.8555,1090.1367 2651.8555,1091.4063 L2651.8555,1096.875 L2635.1888,1096.875 Q2633.8867,1096.875 2633.3496,1096.3867 Q2632.8125,1095.8984 2632.8125,1095.0846 Q2632.8125,1094.3034 2633.3659,1093.8151 Q2633.9193,1093.3268 2635.1888,1093.3268 L2635.7422,1093.3268 L2635.7422,1079.4596 L2635.1888,1079.4596 Q2633.8867,1079.4596 2633.3496,1078.9714 Q2632.8125,1078.4831 2632.8125,1077.6693 Q2632.8125,1076.888 2633.3496,1076.3997 Q2633.8867,1075.9115 2635.1888,1075.9115 L2651.0742,1075.9115 L2651.0742,1081.3151 Q2651.0742,1082.5846 2650.6022,1083.1217 Q2650.1302,1083.6589 2649.3164,1083.6589 Q2648.5352,1083.6589 2648.0469,1083.1217 Q2647.5586,1082.5846 2647.5586,1081.3151 L2647.5586,1079.4596 L2639.2904,1079.4596 L2639.2904,1084.5703 L2642.3828,1084.5703 Q2642.3828,1083.2031 2642.6432,1082.8125 Q2643.1966,1081.9661 2644.1732,1081.9661 Q2644.9544,1081.9661 2645.4427,1082.5033 Q2645.931,1083.0404 2645.931,1084.3099 L2645.931,1088.4115 Q2645.931,1089.5508 2645.6706,1089.9414 Q2645.1172,1090.7552 2644.1732,1090.7552 Q2643.1966,1090.7552 2642.6432,1089.9089 Q2642.3828,1089.5182 2642.3828,1088.1185 L2639.2904,1088.1185 Z "/><ellipse cx="2681.25" cy="1085.4167" fill="#84BE84" rx="6.25" ry="6.25" style="stroke: #038048; stroke-width: 2.0833333333333335;"/><text fill="#000000" font-family="sans-serif" font-size="25" lengthAdjust="spacingAndGlyphs" textLength="147.9167" x="2693.75" y="1096.6878">ReaderEvent</text><line style="stroke: #A80036; stroke-width: 3.125;" x1="2612.5" x2="2845.8333" y1="1119.7917" y2="1119.7917"/><text fill="#000000" font-family="sans-serif" font-size="22.9167" lengthAdjust="spacingAndGlyphs" textLength="106.25" x="2622.9167" y="1151.9145">IO_ERROR</text><text fill="#000000" font-family="sans-serif" font-size="22.9167" lengthAdjust="spacingAndGlyphs" textLength="147.9167" x="2622.9167" y="1180.7393">SE_INSERTION</text><text fill="#000000" font-family="sans-serif" font-size="22.9167" lengthAdjust="spacingAndGlyphs" textLength="145.8333" x="2622.9167" y="1209.5642">SE_REMOVAL</text><line style="stroke: #A80036; stroke-width: 3.125;" x1="2612.5" x2="2845.8333" y1="1222.9329" y2="1222.9329"/><!--class ObservableReader--><rect fill="#FEFECE" filter="url(#f5tfoot2w8p6k)" height="186.4746" id="ObservableReader" style="stroke: #A80036; stroke-width: 3.125;" width="562.5" x="2158.3333" y="1459.375"/><ellipse cx="2308.8542" cy="1492.7083" fill="#B4A7E5" rx="22.9167" ry="22.9167" style="stroke: #A80036; stroke-width: 2.0833333333333335;"/><path d="M2310.8398,1485.7096 L2310.8398,1499.5768 L2314.4206,1499.5768 Q2315.6901,1499.5768 2316.2435,1500.0651 Q2316.7969,1500.5534 2316.7969,1501.3672 Q2316.7969,1502.1484 2316.2435,1502.6367 Q2315.6901,1503.125 2314.4206,1503.125 L2303.7109,1503.125 Q2302.4414,1503.125 2301.888,1502.6367 Q2301.3346,1502.1484 2301.3346,1501.3346 Q2301.3346,1500.5534 2301.888,1500.0651 Q2302.4414,1499.5768 2303.7109,1499.5768 L2307.2917,1499.5768 L2307.2917,1485.7096 L2303.7109,1485.7096 Q2302.4414,1485.7096 2301.888,1485.2214 Q2301.3346,1484.7331 2301.3346,1483.9193 Q2301.3346,1483.138 2301.888,1482.6497 Q2302.4414,1482.1615 2303.7109,1482.1615 L2314.4206,1482.1615 Q2315.6901,1482.1615 2316.2435,1482.6497 Q2316.7969,1483.138 2316.7969,1483.9193 Q2316.7969,1484.7331 2316.2435,1485.2214 Q2315.6901,1485.7096 2314.4206,1485.7096 L2310.8398,1485.7096 Z "/><ellipse cx="2361.9792" cy="1491.6667" fill="#84BE84" rx="6.25" ry="6.25" style="stroke: #038048; stroke-width: 2.0833333333333335;"/><text fill="#000000" font-family="sans-serif" font-size="25" font-style="italic" lengthAdjust="spacingAndGlyphs" textLength="220.8333" x="2374.4792" y="1502.9378">ObservableReader</text><line style="stroke: #A80036; stroke-width: 3.125;" x1="2160.4167" x2="2718.75" y1="1526.0417" y2="1526.0417"/><line style="stroke: #A80036; stroke-width: 3.125;" x1="2160.4167" x2="2718.75" y1="1542.7083" y2="1542.7083"/><ellipse cx="2181.25" cy="1568.5791" fill="#84BE84" rx="6.25" ry="6.25" style="stroke: #038048; stroke-width: 2.0833333333333335;"/><text fill="#000000" font-family="sans-serif" font-size="22.9167" lengthAdjust="spacingAndGlyphs" textLength="470.8333" x="2200" y="1574.8311">void addObserver(ReaderObserver observer);</text><ellipse cx="2181.25" cy="1597.404" fill="#84BE84" rx="6.25" ry="6.25" style="stroke: #038048; stroke-width: 2.0833333333333335;"/><text fill="#000000" font-family="sans-serif" font-size="22.9167" lengthAdjust="spacingAndGlyphs" textLength="508.3333" x="2200" y="1603.656">void removeObserver(ReaderObserver observer);</text><ellipse cx="2181.25" cy="1626.2288" fill="#84BE84" rx="6.25" ry="6.25" style="stroke: #038048; stroke-width: 2.0833333333333335;"/><text fill="#000000" font-family="sans-serif" font-size="22.9167" lengthAdjust="spacingAndGlyphs" textLength="427.0833" x="2200" y="1632.4809">void notifyObservers(ReaderEvent event);</text><!--class ReaderObserver--><rect fill="#FEFECE" filter="url(#f5tfoot2w8p6k)" height="128.8249" id="ReaderObserver" style="stroke: #A80036; stroke-width: 3.125;" width="331.25" x="1984.375" y="638.5417"/><ellipse cx="2038.125" cy="671.875" fill="#B4A7E5" rx="22.9167" ry="22.9167" style="stroke: #A80036; stroke-width: 2.0833333333333335;"/><path d="M2040.1107,664.8763 L2040.1107,678.7435 L2043.6914,678.7435 Q2044.9609,678.7435 2045.5143,679.2318 Q2046.0677,679.7201 2046.0677,680.5339 Q2046.0677,681.3151 2045.5143,681.8034 Q2044.9609,682.2917 2043.6914,682.2917 L2032.9818,682.2917 Q2031.7122,682.2917 2031.1589,681.8034 Q2030.6055,681.3151 2030.6055,680.5013 Q2030.6055,679.7201 2031.1589,679.2318 Q2031.7122,678.7435 2032.9818,678.7435 L2036.5625,678.7435 L2036.5625,664.8763 L2032.9818,664.8763 Q2031.7122,664.8763 2031.1589,664.388 Q2030.6055,663.8997 2030.6055,663.0859 Q2030.6055,662.3047 2031.1589,661.8164 Q2031.7122,661.3281 2032.9818,661.3281 L2043.6914,661.3281 Q2044.9609,661.3281 2045.5143,661.8164 Q2046.0677,662.3047 2046.0677,663.0859 Q2046.0677,663.8997 2045.5143,664.388 Q2044.9609,664.8763 2043.6914,664.8763 L2040.1107,664.8763 Z "/><ellipse cx="2082.7083" cy="670.8333" fill="#84BE84" rx="6.25" ry="6.25" style="stroke: #038048; stroke-width: 2.0833333333333335;"/><text fill="#000000" font-family="sans-serif" font-size="25" font-style="italic" lengthAdjust="spacingAndGlyphs" textLength="191.6667" x="2095.2083" y="682.1045">ReaderObserver</text><line style="stroke: #A80036; stroke-width: 3.125;" x1="1986.4583" x2="2313.5417" y1="705.2083" y2="705.2083"/><line style="stroke: #A80036; stroke-width: 3.125;" x1="1986.4583" x2="2313.5417" y1="721.875" y2="721.875"/><ellipse cx="2007.2917" cy="747.7458" fill="#84BE84" rx="6.25" ry="6.25" style="stroke: #038048; stroke-width: 2.0833333333333335;"/><text fill="#000000" font-family="sans-serif" font-size="22.9167" lengthAdjust="spacingAndGlyphs" textLength="277.0833" x="2026.0417" y="753.9978">update(ReaderEvent event)</text><ellipse cx="2533.3333" cy="1146.875" fill="#000000" rx="4.1667" ry="4.1667" style="stroke: none; stroke-width: 2.0833333333333335;"/><!--class AbstractPluginEvent--><rect fill="#FEFECE" filter="url(#f5tfoot2w8p6k)" height="100" id="AbstractPluginEvent" style="stroke: #A80036; stroke-width: 3.125;" width="320.8333" x="666.6667" y="1096.875"/><ellipse cx="697.9167" cy="1130.2083" fill="#A9DCDF" rx="22.9167" ry="22.9167" style="stroke: #A80036; stroke-width: 2.0833333333333335;"/><path d="M702.474,1133.8867 L693.8477,1133.8867 L692.9688,1136.0352 L693.8477,1136.0352 Q695.1172,1136.0352 695.6706,1136.5234 Q696.224,1137.0117 696.224,1137.8255 Q696.224,1138.6068 695.6706,1139.0951 Q695.1172,1139.5833 693.8477,1139.5833 L689.0625,1139.5833 Q687.793,1139.5833 687.2559,1139.0951 Q686.7188,1138.6068 686.7188,1137.793 Q686.7188,1137.0117 687.2884,1136.5072 Q687.8581,1136.0026 689.1602,1136.0352 L694.7266,1122.168 L692.4154,1122.168 Q691.1458,1122.168 690.5924,1121.6797 Q690.0391,1121.1914 690.0391,1120.3776 Q690.0391,1119.5964 690.5924,1119.1081 Q691.1458,1118.6198 692.4154,1118.6198 L700.0651,1118.6198 L707.1289,1136.0352 Q708.3659,1136.0352 708.7565,1136.3281 Q709.5703,1136.8815 709.5703,1137.8255 Q709.5703,1138.6068 709.0332,1139.0951 Q708.4961,1139.5833 707.2266,1139.5833 L702.4414,1139.5833 Q701.1719,1139.5833 700.6185,1139.0951 Q700.0651,1138.6068 700.0651,1137.793 Q700.0651,1137.0117 700.6185,1136.5234 Q701.1719,1136.0352 702.4414,1136.0352 L703.3203,1136.0352 L702.474,1133.8867 Z M700.9766,1130.3385 L698.1445,1123.3073 L695.2799,1130.3385 L700.9766,1130.3385 Z "/><ellipse cx="737.5" cy="1129.1667" fill="#84BE84" rx="6.25" ry="6.25" style="stroke: #038048; stroke-width: 2.0833333333333335;"/><text fill="#000000" font-family="sans-serif" font-size="25" font-style="italic" lengthAdjust="spacingAndGlyphs" textLength="231.25" x="750" y="1140.4378">AbstractPluginEvent</text><line style="stroke: #A80036; stroke-width: 3.125;" x1="668.75" x2="985.4167" y1="1163.5417" y2="1163.5417"/><line style="stroke: #A80036; stroke-width: 3.125;" x1="668.75" x2="985.4167" y1="1180.2083" y2="1180.2083"/><!--class ErrorPluginEvent--><rect fill="#FEFECE" filter="url(#f5tfoot2w8p6k)" height="186.4746" id="ErrorPluginEvent" style="stroke: #A80036; stroke-width: 3.125;" width="437.5" x="666.6667" y="609.375"/><ellipse cx="769.2708" cy="642.7083" fill="#ADD1B2" rx="22.9167" ry="22.9167" style="stroke: #A80036; stroke-width: 2.0833333333333335;"/><path d="M775.0326,634.1146 Q775.3581,633.6589 775.7487,633.431 Q776.1393,633.2031 776.5951,633.2031 Q777.3763,633.2031 777.8646,633.7402 Q778.3529,634.2773 778.3529,635.5469 L778.3529,638.5742 Q778.3529,639.8438 777.8646,640.3971 Q777.3763,640.9505 776.5951,640.9505 Q775.8789,640.9505 775.4557,640.5273 Q775.0326,640.1367 774.8047,639.0625 Q774.707,638.3138 774.3164,637.9232 Q773.6328,637.1419 772.3633,636.6862 Q771.0938,636.2305 769.7917,636.2305 Q768.1966,636.2305 766.8783,636.9141 Q765.5599,637.5977 764.5345,639.1602 Q763.5091,640.7227 763.5091,642.8711 L763.5091,645.1497 Q763.5091,647.7214 765.3646,649.4303 Q767.2201,651.1393 770.5404,651.1393 Q772.4935,651.1393 773.8607,650.6185 Q774.6745,650.293 775.5534,649.3815 Q776.1068,648.8281 776.416,648.6654 Q776.7253,648.5026 777.1484,648.5026 Q777.832,648.5026 778.3691,649.0397 Q778.9063,649.5768 778.9063,650.293 Q778.9063,651.0091 778.1901,651.8555 Q777.1484,653.0599 775.4883,653.7435 Q773.2422,654.6875 770.5404,654.6875 Q767.3828,654.6875 764.8763,653.3854 Q762.8255,652.3438 761.3932,650.1139 Q759.9609,647.8841 759.9609,645.2148 L759.9609,642.806 Q759.9609,640.0391 761.2467,637.6465 Q762.5326,635.2539 764.8112,633.9681 Q767.0898,632.6823 769.6615,632.6823 Q771.1914,632.6823 772.5423,633.0241 Q773.8932,633.3659 775.0326,634.1146 Z "/><ellipse cx="822.3958" cy="641.6667" fill="#84BE84" rx="6.25" ry="6.25" style="stroke: #038048; stroke-width: 2.0833333333333335;"/><text fill="#000000" font-family="sans-serif" font-size="25" lengthAdjust="spacingAndGlyphs" textLength="191.6667" x="834.8958" y="652.9378">ErrorPluginEvent</text><line style="stroke: #A80036; stroke-width: 3.125;" x1="668.75" x2="1102.0833" y1="676.0417" y2="676.0417"/><rect fill="none" height="12.5" style="stroke: #C82930; stroke-width: 2.0833333333333335;" width="12.5" x="683.3333" y="695.6624"/><text fill="#000000" font-family="sans-serif" font-size="22.9167" font-weight="bold" lengthAdjust="spacingAndGlyphs" textLength="47.9167" x="708.3333" y="708.1645">final</text><text fill="#000000" font-family="sans-serif" font-size="22.9167" lengthAdjust="spacingAndGlyphs" textLength="202.0833" x="762.5" y="708.1645">Exception exception</text><line style="stroke: #A80036; stroke-width: 3.125;" x1="668.75" x2="1102.0833" y1="721.5332" y2="721.5332"/><ellipse cx="689.5833" cy="747.404" fill="#84BE84" rx="6.25" ry="6.25" style="stroke: #038048; stroke-width: 2.0833333333333335;"/><text fill="#000000" font-family="sans-serif" font-size="22.9167" lengthAdjust="spacingAndGlyphs" textLength="383.3333" x="708.3333" y="753.656">ErrorPluginEvent(Exception exception)</text><ellipse cx="689.5833" cy="776.2288" fill="#84BE84" rx="6.25" ry="6.25" style="stroke: #038048; stroke-width: 2.0833333333333335;"/><text fill="#000000" font-family="sans-serif" font-size="22.9167" lengthAdjust="spacingAndGlyphs" textLength="250" x="708.3333" y="782.4809">Exception getException()</text><!--class ReaderPresencePluginEvent--><rect fill="#FEFECE" filter="url(#f5tfoot2w8p6k)" height="244.1243" id="ReaderPresencePluginEvent" style="stroke: #A80036; stroke-width: 3.125;" width="702.0833" x="667.7083" y="1431.25"/><ellipse cx="832.8125" cy="1464.5833" fill="#ADD1B2" rx="22.9167" ry="22.9167" style="stroke: #A80036; stroke-width: 2.0833333333333335;"/><path d="M838.5742,1455.9896 Q838.8997,1455.5339 839.2904,1455.306 Q839.681,1455.0781 840.1367,1455.0781 Q840.918,1455.0781 841.4063,1455.6152 Q841.8945,1456.1523 841.8945,1457.4219 L841.8945,1460.4492 Q841.8945,1461.7188 841.4063,1462.2721 Q840.918,1462.8255 840.1367,1462.8255 Q839.4206,1462.8255 838.9974,1462.4023 Q838.5742,1462.0117 838.3464,1460.9375 Q838.2487,1460.1888 837.8581,1459.7982 Q837.1745,1459.0169 835.9049,1458.5612 Q834.6354,1458.1055 833.3333,1458.1055 Q831.7383,1458.1055 830.4199,1458.7891 Q829.1016,1459.4727 828.0762,1461.0352 Q827.0508,1462.5977 827.0508,1464.7461 L827.0508,1467.0247 Q827.0508,1469.5964 828.9063,1471.3053 Q830.7617,1473.0143 834.082,1473.0143 Q836.0352,1473.0143 837.4023,1472.4935 Q838.2161,1472.168 839.0951,1471.2565 Q839.6484,1470.7031 839.9577,1470.5404 Q840.2669,1470.3776 840.6901,1470.3776 Q841.3737,1470.3776 841.9108,1470.9147 Q842.4479,1471.4518 842.4479,1472.168 Q842.4479,1472.8841 841.7318,1473.7305 Q840.6901,1474.9349 839.0299,1475.6185 Q836.7839,1476.5625 834.082,1476.5625 Q830.9245,1476.5625 828.418,1475.2604 Q826.3672,1474.2188 824.9349,1471.9889 Q823.5026,1469.7591 823.5026,1467.0898 L823.5026,1464.681 Q823.5026,1461.9141 824.7884,1459.5215 Q826.0742,1457.1289 828.3529,1455.8431 Q830.6315,1454.5573 833.2031,1454.5573 Q834.7331,1454.5573 836.084,1454.8991 Q837.4349,1455.2409 838.5742,1455.9896 Z "/><ellipse cx="885.9375" cy="1463.5417" fill="#84BE84" rx="6.25" ry="6.25" style="stroke: #038048; stroke-width: 2.0833333333333335;"/><text fill="#000000" font-family="sans-serif" font-size="25" lengthAdjust="spacingAndGlyphs" textLength="331.25" x="898.4375" y="1474.8128">ReaderPresencePluginEvent</text><line style="stroke: #A80036; stroke-width: 3.125;" x1="669.7917" x2="1367.7083" y1="1497.9167" y2="1497.9167"/><rect fill="none" height="12.5" style="stroke: #C82930; stroke-width: 2.0833333333333335;" width="12.5" x="684.375" y="1517.5374"/><text fill="#000000" font-family="sans-serif" font-size="22.9167" font-weight="bold" lengthAdjust="spacingAndGlyphs" textLength="47.9167" x="709.375" y="1530.0395">final</text><text fill="#000000" font-family="sans-serif" font-size="22.9167" lengthAdjust="spacingAndGlyphs" textLength="147.9167" x="763.5417" y="1530.0395">boolean added</text><rect fill="none" height="12.5" style="stroke: #C82930; stroke-width: 2.0833333333333335;" width="12.5" x="684.375" y="1546.3623"/><text fill="#000000" font-family="sans-serif" font-size="22.9167" font-weight="bold" lengthAdjust="spacingAndGlyphs" textLength="47.9167" x="709.375" y="1558.8643">final</text><text fill="#000000" font-family="sans-serif" font-size="22.9167" lengthAdjust="spacingAndGlyphs" textLength="204.1667" x="763.5417" y="1558.8643">ProxyReader reader</text><line style="stroke: #A80036; stroke-width: 3.125;" x1="669.7917" x2="1367.7083" y1="1572.2331" y2="1572.2331"/><ellipse cx="690.625" cy="1598.1038" fill="#84BE84" rx="6.25" ry="6.25" style="stroke: #038048; stroke-width: 2.0833333333333335;"/><text fill="#000000" font-family="sans-serif" font-size="22.9167" lengthAdjust="spacingAndGlyphs" textLength="647.9167" x="709.375" y="1604.3559">ReaderPresencePluginEvent(boolean added, String readerName)</text><ellipse cx="690.625" cy="1626.9287" fill="#84BE84" rx="6.25" ry="6.25" style="stroke: #038048; stroke-width: 2.0833333333333335;"/><text fill="#000000" font-family="sans-serif" font-size="22.9167" lengthAdjust="spacingAndGlyphs" textLength="185.4167" x="709.375" y="1633.1807">boolean isAdded()</text><ellipse cx="690.625" cy="1655.7536" fill="#84BE84" rx="6.25" ry="6.25" style="stroke: #038048; stroke-width: 2.0833333333333335;"/><text fill="#000000" font-family="sans-serif" font-size="22.9167" lengthAdjust="spacingAndGlyphs" textLength="241.6667" x="709.375" y="1662.0056">String getReaderName()</text><!--class PluginEvent--><rect fill="#FEFECE" filter="url(#f5tfoot2w8p6k)" height="244.1243" id="PluginEvent" style="stroke: #A80036; stroke-width: 3.125;" width="641.6667" x="1060.4167" y="1025"/><ellipse cx="1265.1042" cy="1058.3333" fill="#ADD1B2" rx="22.9167" ry="22.9167" style="stroke: #A80036; stroke-width: 2.0833333333333335;"/><path d="M1270.8659,1049.7396 Q1271.1914,1049.2839 1271.582,1049.056 Q1271.9727,1048.8281 1272.4284,1048.8281 Q1273.2096,1048.8281 1273.6979,1049.3652 Q1274.1862,1049.9023 1274.1862,1051.1719 L1274.1862,1054.1992 Q1274.1862,1055.4688 1273.6979,1056.0221 Q1273.2096,1056.5755 1272.4284,1056.5755 Q1271.7122,1056.5755 1271.2891,1056.1523 Q1270.8659,1055.7617 1270.638,1054.6875 Q1270.5404,1053.9388 1270.1497,1053.5482 Q1269.4661,1052.7669 1268.1966,1052.3112 Q1266.9271,1051.8555 1265.625,1051.8555 Q1264.0299,1051.8555 1262.7116,1052.5391 Q1261.3932,1053.2227 1260.3678,1054.7852 Q1259.3424,1056.3477 1259.3424,1058.4961 L1259.3424,1060.7747 Q1259.3424,1063.3464 1261.1979,1065.0553 Q1263.0534,1066.7643 1266.3737,1066.7643 Q1268.3268,1066.7643 1269.694,1066.2435 Q1270.5078,1065.918 1271.3867,1065.0065 Q1271.9401,1064.4531 1272.2493,1064.2904 Q1272.5586,1064.1276 1272.9818,1064.1276 Q1273.6654,1064.1276 1274.2025,1064.6647 Q1274.7396,1065.2018 1274.7396,1065.918 Q1274.7396,1066.6341 1274.0234,1067.4805 Q1272.9818,1068.6849 1271.3216,1069.3685 Q1269.0755,1070.3125 1266.3737,1070.3125 Q1263.2161,1070.3125 1260.7096,1069.0104 Q1258.6589,1067.9688 1257.2266,1065.7389 Q1255.7943,1063.5091 1255.7943,1060.8398 L1255.7943,1058.431 Q1255.7943,1055.6641 1257.0801,1053.2715 Q1258.3659,1050.8789 1260.6445,1049.5931 Q1262.9232,1048.3073 1265.4948,1048.3073 Q1267.0247,1048.3073 1268.3757,1048.6491 Q1269.7266,1048.9909 1270.8659,1049.7396 Z "/><ellipse cx="1318.2292" cy="1057.2917" fill="#84BE84" rx="6.25" ry="6.25" style="stroke: #038048; stroke-width: 2.0833333333333335;"/><text fill="#000000" font-family="sans-serif" font-size="25" font-weight="bold" lengthAdjust="spacingAndGlyphs" textLength="50" x="1330.7292" y="1068.5628">final</text><text fill="#000000" font-family="sans-serif" font-size="25" lengthAdjust="spacingAndGlyphs" textLength="135.4167" x="1386.9792" y="1068.5628">PluginEvent</text><line style="stroke: #A80036; stroke-width: 3.125;" x1="1062.5" x2="1700" y1="1091.6667" y2="1091.6667"/><rect fill="none" height="12.5" style="stroke: #C82930; stroke-width: 2.0833333333333335;" width="12.5" x="1077.0833" y="1111.2874"/><text fill="#000000" font-family="sans-serif" font-size="22.9167" font-weight="bold" lengthAdjust="spacingAndGlyphs" textLength="47.9167" x="1102.0833" y="1123.7895">final</text><text fill="#000000" font-family="sans-serif" font-size="22.9167" lengthAdjust="spacingAndGlyphs" textLength="183.3333" x="1156.25" y="1123.7895">boolean exception</text><rect fill="none" height="12.5" style="stroke: #C82930; stroke-width: 2.0833333333333335;" width="12.5" x="1077.0833" y="1140.1123"/><text fill="#000000" font-family="sans-serif" font-size="22.9167" font-weight="bold" lengthAdjust="spacingAndGlyphs" textLength="47.9167" x="1102.0833" y="1152.6143">final</text><text fill="#000000" font-family="sans-serif" font-size="22.9167" lengthAdjust="spacingAndGlyphs" textLength="179.1667" x="1156.25" y="1152.6143">String pluginName</text><line style="stroke: #A80036; stroke-width: 3.125;" x1="1062.5" x2="1700" y1="1165.9831" y2="1165.9831"/><ellipse cx="1083.3333" cy="1191.8538" fill="#84BE84" rx="6.25" ry="6.25" style="stroke: #038048; stroke-width: 2.0833333333333335;"/><text fill="#000000" font-family="sans-serif" font-size="22.9167" lengthAdjust="spacingAndGlyphs" textLength="587.5" x="1102.0833" y="1198.1059">PluginEvent(String pluginName, AbstractPluginEvent event)</text><ellipse cx="1083.3333" cy="1220.6787" fill="#84BE84" rx="6.25" ry="6.25" style="stroke: #038048; stroke-width: 2.0833333333333335;"/><text fill="#000000" font-family="sans-serif" font-size="22.9167" lengthAdjust="spacingAndGlyphs" textLength="216.6667" x="1102.0833" y="1226.9307">boolean isException()</text><ellipse cx="1083.3333" cy="1249.5036" fill="#84BE84" rx="6.25" ry="6.25" style="stroke: #038048; stroke-width: 2.0833333333333335;"/><text fill="#000000" font-family="sans-serif" font-size="22.9167" lengthAdjust="spacingAndGlyphs" textLength="227.0833" x="1102.0833" y="1255.7556">String getPluginName()</text><!--class ObservablePlugin--><rect fill="#FEFECE" filter="url(#f5tfoot2w8p6k)" height="186.4746" id="ObservablePlugin" style="stroke: #A80036; stroke-width: 3.125;" width="547.9167" x="1505.2083" y="1459.375"/><ellipse cx="1654.6875" cy="1492.7083" fill="#B4A7E5" rx="22.9167" ry="22.9167" style="stroke: #A80036; stroke-width: 2.0833333333333335;"/><path d="M1656.6732,1485.7096 L1656.6732,1499.5768 L1660.2539,1499.5768 Q1661.5234,1499.5768 1662.0768,1500.0651 Q1662.6302,1500.5534 1662.6302,1501.3672 Q1662.6302,1502.1484 1662.0768,1502.6367 Q1661.5234,1503.125 1660.2539,1503.125 L1649.5443,1503.125 Q1648.2747,1503.125 1647.7214,1502.6367 Q1647.168,1502.1484 1647.168,1501.3346 Q1647.168,1500.5534 1647.7214,1500.0651 Q1648.2747,1499.5768 1649.5443,1499.5768 L1653.125,1499.5768 L1653.125,1485.7096 L1649.5443,1485.7096 Q1648.2747,1485.7096 1647.7214,1485.2214 Q1647.168,1484.7331 1647.168,1483.9193 Q1647.168,1483.138 1647.7214,1482.6497 Q1648.2747,1482.1615 1649.5443,1482.1615 L1660.2539,1482.1615 Q1661.5234,1482.1615 1662.0768,1482.6497 Q1662.6302,1483.138 1662.6302,1483.9193 Q1662.6302,1484.7331 1662.0768,1485.2214 Q1661.5234,1485.7096 1660.2539,1485.7096 L1656.6732,1485.7096 Z "/><ellipse cx="1707.8125" cy="1491.6667" fill="#84BE84" rx="6.25" ry="6.25" style="stroke: #038048; stroke-width: 2.0833333333333335;"/><text fill="#000000" font-family="sans-serif" font-size="25" font-style="italic" lengthAdjust="spacingAndGlyphs" textLength="208.3333" x="1720.3125" y="1502.9378">ObservablePlugin</text><line style="stroke: #A80036; stroke-width: 3.125;" x1="1507.2917" x2="2051.0417" y1="1526.0417" y2="1526.0417"/><line style="stroke: #A80036; stroke-width: 3.125;" x1="1507.2917" x2="2051.0417" y1="1542.7083" y2="1542.7083"/><ellipse cx="1528.125" cy="1568.5791" fill="#84BE84" rx="6.25" ry="6.25" style="stroke: #038048; stroke-width: 2.0833333333333335;"/><text fill="#000000" font-family="sans-serif" font-size="22.9167" lengthAdjust="spacingAndGlyphs" textLength="456.25" x="1546.875" y="1574.8311">void addObserver(PluginObserver observer);</text><ellipse cx="1528.125" cy="1597.404" fill="#84BE84" rx="6.25" ry="6.25" style="stroke: #038048; stroke-width: 2.0833333333333335;"/><text fill="#000000" font-family="sans-serif" font-size="22.9167" lengthAdjust="spacingAndGlyphs" textLength="493.75" x="1546.875" y="1603.656">void removeObserver(PluginObserver observer);</text><ellipse cx="1528.125" cy="1626.2288" fill="#84BE84" rx="6.25" ry="6.25" style="stroke: #038048; stroke-width: 2.0833333333333335;"/><text fill="#000000" font-family="sans-serif" font-size="22.9167" lengthAdjust="spacingAndGlyphs" textLength="412.5" x="1546.875" y="1632.4809">void notifyObservers(PluginEvent event);</text><!--class PluginObserver--><rect fill="#FEFECE" filter="url(#f5tfoot2w8p6k)" height="128.8249" id="PluginObserver" style="stroke: #A80036; stroke-width: 3.125;" width="316.6667" x="1397.9167" y="638.5417"/><ellipse cx="1450.7292" cy="671.875" fill="#B4A7E5" rx="22.9167" ry="22.9167" style="stroke: #A80036; stroke-width: 2.0833333333333335;"/><path d="M1452.7148,664.8763 L1452.7148,678.7435 L1456.2956,678.7435 Q1457.5651,678.7435 1458.1185,679.2318 Q1458.6719,679.7201 1458.6719,680.5339 Q1458.6719,681.3151 1458.1185,681.8034 Q1457.5651,682.2917 1456.2956,682.2917 L1445.5859,682.2917 Q1444.3164,682.2917 1443.763,681.8034 Q1443.2096,681.3151 1443.2096,680.5013 Q1443.2096,679.7201 1443.763,679.2318 Q1444.3164,678.7435 1445.5859,678.7435 L1449.1667,678.7435 L1449.1667,664.8763 L1445.5859,664.8763 Q1444.3164,664.8763 1443.763,664.388 Q1443.2096,663.8997 1443.2096,663.0859 Q1443.2096,662.3047 1443.763,661.8164 Q1444.3164,661.3281 1445.5859,661.3281 L1456.2956,661.3281 Q1457.5651,661.3281 1458.1185,661.8164 Q1458.6719,662.3047 1458.6719,663.0859 Q1458.6719,663.8997 1458.1185,664.388 Q1457.5651,664.8763 1456.2956,664.8763 L1452.7148,664.8763 Z "/><ellipse cx="1495.1042" cy="670.8333" fill="#84BE84" rx="6.25" ry="6.25" style="stroke: #038048; stroke-width: 2.0833333333333335;"/><text fill="#000000" font-family="sans-serif" font-size="25" font-style="italic" lengthAdjust="spacingAndGlyphs" textLength="179.1667" x="1507.6042" y="682.1045">PluginObserver</text><line style="stroke: #A80036; stroke-width: 3.125;" x1="1400" x2="1712.5" y1="705.2083" y2="705.2083"/><line style="stroke: #A80036; stroke-width: 3.125;" x1="1400" x2="1712.5" y1="721.875" y2="721.875"/><ellipse cx="1420.8333" cy="747.7458" fill="#84BE84" rx="6.25" ry="6.25" style="stroke: #038048; stroke-width: 2.0833333333333335;"/><text fill="#000000" font-family="sans-serif" font-size="22.9167" lengthAdjust="spacingAndGlyphs" textLength="262.5" x="1439.5833" y="753.9978">update(PluginEvent event)</text><ellipse cx="1779.1667" cy="1146.875" fill="#000000" rx="4.1667" ry="4.1667" style="stroke: none; stroke-width: 2.0833333333333335;"/><path d="M1857.2917,1068.75 L1857.2917,1225.8464 L2455.2083,1225.8464 L2455.2083,1089.5833 L2434.375,1068.75 L1857.2917,1068.75 " fill="#FBFB77" filter="url(#f5tfoot2w8p6k)" style="stroke: #A80036; stroke-width: 2.0833333333333335;"/><path d="M2434.375,1068.75 L2434.375,1089.5833 L2455.2083,1089.5833 L2434.375,1068.75 " fill="#FBFB77" style="stroke: #A80036; stroke-width: 2.0833333333333335;"/><text fill="#000000" font-family="sans-serif" font-size="27.0833" lengthAdjust="spacingAndGlyphs" textLength="535.4167" x="1869.7917" y="1107.2815">- ObservablePlugin could be implemented by</text><text fill="#000000" font-family="sans-serif" font-size="27.0833" lengthAdjust="spacingAndGlyphs" textLength="495.8333" x="1869.7917" y="1141.3472">plugins managing hot-plug of SE readers.</text><text fill="#000000" font-family="sans-serif" font-size="27.0833" lengthAdjust="spacingAndGlyphs" textLength="554.1667" x="1869.7917" y="1175.413">- ObservableReader could  be implemented by</text><text fill="#000000" font-family="sans-serif" font-size="27.0833" lengthAdjust="spacingAndGlyphs" textLength="506.25" x="1869.7917" y="1209.4788">readers supporting SE insertion detection.</text><!--class SpecificTerminal--><rect fill="#FEFECE" filter="url(#f5tfoot2w8p6k)" height="100" id="SpecificTerminal" style="stroke: #A80036; stroke-width: 3.125;" width="258.3333" x="654.1667" y="140.625"/><ellipse cx="685.4167" cy="173.9583" fill="#ADD1B2" rx="22.9167" ry="22.9167" style="stroke: #A80036; stroke-width: 2.0833333333333335;"/><path d="M691.1784,165.3646 Q691.5039,164.9089 691.8945,164.681 Q692.2852,164.4531 692.7409,164.4531 Q693.5221,164.4531 694.0104,164.9902 Q694.4987,165.5273 694.4987,166.7969 L694.4987,169.8242 Q694.4987,171.0938 694.0104,171.6471 Q693.5221,172.2005 692.7409,172.2005 Q692.0247,172.2005 691.6016,171.7773 Q691.1784,171.3867 690.9505,170.3125 Q690.8529,169.5638 690.4622,169.1732 Q689.7786,168.3919 688.5091,167.9362 Q687.2396,167.4805 685.9375,167.4805 Q684.3424,167.4805 683.0241,168.1641 Q681.7057,168.8477 680.6803,170.4102 Q679.6549,171.9727 679.6549,174.1211 L679.6549,176.3997 Q679.6549,178.9714 681.5104,180.6803 Q683.3659,182.3893 686.6862,182.3893 Q688.6393,182.3893 690.0065,181.8685 Q690.8203,181.543 691.6992,180.6315 Q692.2526,180.0781 692.5618,179.9154 Q692.8711,179.7526 693.2943,179.7526 Q693.9779,179.7526 694.515,180.2897 Q695.0521,180.8268 695.0521,181.543 Q695.0521,182.2591 694.3359,183.1055 Q693.2943,184.3099 691.6341,184.9935 Q689.388,185.9375 686.6862,185.9375 Q683.5286,185.9375 681.0221,184.6354 Q678.9714,183.5938 677.5391,181.3639 Q676.1068,179.1341 676.1068,176.4648 L676.1068,174.056 Q676.1068,171.2891 677.3926,168.8965 Q678.6784,166.5039 680.957,165.2181 Q683.2357,163.9323 685.8073,163.9323 Q687.3372,163.9323 688.6882,164.2741 Q690.0391,164.6159 691.1784,165.3646 Z "/><text fill="#000000" font-family="sans-serif" font-size="25" lengthAdjust="spacingAndGlyphs" textLength="191.6667" x="714.5833" y="184.1878">SpecificTerminal</text><line style="stroke: #A80036; stroke-width: 3.125;" x1="656.25" x2="910.4167" y1="207.2917" y2="207.2917"/><line style="stroke: #A80036; stroke-width: 3.125;" x1="656.25" x2="910.4167" y1="223.9583" y2="223.9583"/><!--class SpecificPluginObserver--><rect fill="#FEFECE" filter="url(#f5tfoot2w8p6k)" height="128.8249" id="SpecificPluginObserver" style="stroke: #A80036; stroke-width: 3.125;" width="743.75" x="986.4583" y="126.0417"/><ellipse cx="1216.1458" cy="159.375" fill="#ADD1B2" rx="22.9167" ry="22.9167" style="stroke: #A80036; stroke-width: 2.0833333333333335;"/><path d="M1221.9076,150.7813 Q1222.2331,150.3255 1222.6237,150.0977 Q1223.0143,149.8698 1223.4701,149.8698 Q1224.2513,149.8698 1224.7396,150.4069 Q1225.2279,150.944 1225.2279,152.2135 L1225.2279,155.2409 Q1225.2279,156.5104 1224.7396,157.0638 Q1224.2513,157.6172 1223.4701,157.6172 Q1222.7539,157.6172 1222.3307,157.194 Q1221.9076,156.8034 1221.6797,155.7292 Q1221.582,154.9805 1221.1914,154.5898 Q1220.5078,153.8086 1219.2383,153.3529 Q1217.9688,152.8971 1216.6667,152.8971 Q1215.0716,152.8971 1213.7533,153.5807 Q1212.4349,154.2643 1211.4095,155.8268 Q1210.3841,157.3893 1210.3841,159.5378 L1210.3841,161.8164 Q1210.3841,164.388 1212.2396,166.097 Q1214.0951,167.806 1217.4154,167.806 Q1219.3685,167.806 1220.7357,167.2852 Q1221.5495,166.9596 1222.4284,166.0482 Q1222.9818,165.4948 1223.291,165.332 Q1223.6003,165.1693 1224.0234,165.1693 Q1224.707,165.1693 1225.2441,165.7064 Q1225.7813,166.2435 1225.7813,166.9596 Q1225.7813,167.6758 1225.0651,168.5221 Q1224.0234,169.7266 1222.3633,170.4102 Q1220.1172,171.3542 1217.4154,171.3542 Q1214.2578,171.3542 1211.7513,170.0521 Q1209.7005,169.0104 1208.2682,166.7806 Q1206.8359,164.5508 1206.8359,161.8815 L1206.8359,159.4727 Q1206.8359,156.7057 1208.1217,154.3132 Q1209.4076,151.9206 1211.6862,150.6348 Q1213.9648,149.349 1216.5365,149.349 Q1218.0664,149.349 1219.4173,149.6908 Q1220.7682,150.0326 1221.9076,150.7813 Z "/><text fill="#000000" font-family="sans-serif" font-size="25" lengthAdjust="spacingAndGlyphs" textLength="266.6667" x="1258.8542" y="169.6045">SpecificPluginObserver</text><line style="stroke: #A80036; stroke-width: 3.125;" x1="988.5417" x2="1728.125" y1="192.7083" y2="192.7083"/><line style="stroke: #A80036; stroke-width: 3.125;" x1="988.5417" x2="1728.125" y1="209.375" y2="209.375"/><ellipse cx="1009.375" cy="235.2458" fill="#84BE84" rx="6.25" ry="6.25" style="stroke: #038048; stroke-width: 2.0833333333333335;"/><text fill="#000000" font-family="sans-serif" font-size="22.9167" lengthAdjust="spacingAndGlyphs" textLength="689.5833" x="1028.125" y="241.4978">update(AbstractObservablePlugin plugin, AbstractPluginEvent event)</text><!--class SpecificReaderObserver--><rect fill="#FEFECE" filter="url(#f5tfoot2w8p6k)" height="128.8249" id="SpecificReaderObserver" style="stroke: #A80036; stroke-width: 3.125;" width="693.75" x="1803.125" y="126.0417"/><ellipse cx="2001.5625" cy="159.375" fill="#ADD1B2" rx="22.9167" ry="22.9167" style="stroke: #A80036; stroke-width: 2.0833333333333335;"/><path d="M2007.3242,150.7813 Q2007.6497,150.3255 2008.0404,150.0977 Q2008.431,149.8698 2008.8867,149.8698 Q2009.668,149.8698 2010.1563,150.4069 Q2010.6445,150.944 2010.6445,152.2135 L2010.6445,155.2409 Q2010.6445,156.5104 2010.1563,157.0638 Q2009.668,157.6172 2008.8867,157.6172 Q2008.1706,157.6172 2007.7474,157.194 Q2007.3242,156.8034 2007.0964,155.7292 Q2006.9987,154.9805 2006.6081,154.5898 Q2005.9245,153.8086 2004.6549,153.3529 Q2003.3854,152.8971 2002.0833,152.8971 Q2000.4883,152.8971 1999.1699,153.5807 Q1997.8516,154.2643 1996.8262,155.8268 Q1995.8008,157.3893 1995.8008,159.5378 L1995.8008,161.8164 Q1995.8008,164.388 1997.6563,166.097 Q1999.5117,167.806 2002.832,167.806 Q2004.7852,167.806 2006.1523,167.2852 Q2006.9661,166.9596 2007.8451,166.0482 Q2008.3984,165.4948 2008.7077,165.332 Q2009.0169,165.1693 2009.4401,165.1693 Q2010.1237,165.1693 2010.6608,165.7064 Q2011.1979,166.2435 2011.1979,166.9596 Q2011.1979,167.6758 2010.4818,168.5221 Q2009.4401,169.7266 2007.7799,170.4102 Q2005.5339,171.3542 2002.832,171.3542 Q1999.6745,171.3542 1997.168,170.0521 Q1995.1172,169.0104 1993.6849,166.7806 Q1992.2526,164.5508 1992.2526,161.8815 L1992.2526,159.4727 Q1992.2526,156.7057 1993.5384,154.3132 Q1994.8242,151.9206 1997.1029,150.6348 Q1999.3815,149.349 2001.9531,149.349 Q2003.4831,149.349 2004.834,149.6908 Q2006.1849,150.0326 2007.3242,150.7813 Z "/><text fill="#000000" font-family="sans-serif" font-size="25" lengthAdjust="spacingAndGlyphs" textLength="279.1667" x="2044.2708" y="169.6045">SpecificReaderObserver</text><line style="stroke: #A80036; stroke-width: 3.125;" x1="1805.2083" x2="2494.7917" y1="192.7083" y2="192.7083"/><line style="stroke: #A80036; stroke-width: 3.125;" x1="1805.2083" x2="2494.7917" y1="209.375" y2="209.375"/><ellipse cx="1826.0417" cy="235.2458" fill="#84BE84" rx="6.25" ry="6.25" style="stroke: #038048; stroke-width: 2.0833333333333335;"/><text fill="#000000" font-family="sans-serif" font-size="22.9167" lengthAdjust="spacingAndGlyphs" textLength="639.5833" x="1844.7917" y="241.4978">update(AbstractObservableReader reader, ReaderEvent event)</text><!--link ReaderObserver to apoint190--><path d="M2259.875,784.8958 C2334.3125,843.8688 2429.9792,930.1542 2491.6667,1025 C2518.5625,1066.3479 2530.2917,1127.0521 2532.8125,1141.5833 " fill="none" id="ReaderObserver-apoint190" style="stroke: #A80036; stroke-width: 2.0833333333333335;"/><polygon fill="#FFFFFF" points="2238.5,768.2479,2243.2296,782.5071,2258.211,783.6257,2253.4814,769.3665,2238.5,768.2479" style="stroke: #A80036; stroke-width: 2.0833333333333335;"/><polygon fill="#000000" points="2483.3333,947.9167,2489.5833,935.4167,2495.8333,947.9167,2483.3333,947.9167" style="stroke: #000000; stroke-width: 2.0833333333333335;"/><text fill="#000000" font-family="sans-serif" font-size="27.0833" lengthAdjust="spacingAndGlyphs" textLength="106.25" x="2439.5833" y="982.2815">observes</text><text fill="#000000" font-family="sans-serif" font-size="27.0833" lengthAdjust="spacingAndGlyphs" textLength="14.5833" x="2239.397" y="812.0563">1</text><!--link apoint190 to ObservableReader--><path d="M2532.7292,1151.525 C2527.3542,1174.6 2486.9375,1347.9771 2461.125,1458.6229 " fill="none" id="apoint190-ObservableReader" style="stroke: #A80036; stroke-width: 2.0833333333333335;"/><text fill="#000000" font-family="sans-serif" font-size="27.0833" lengthAdjust="spacingAndGlyphs" textLength="10.4167" x="2453.2094" y="1436.5163">*</text><!--link apoint190 to ReaderEvent--><path d="M2537.9167,1146.875 C2562.0833,1146.875 2586.2292,1146.875 2610.3958,1146.875 " fill="none" id="apoint190-ReaderEvent" style="stroke: #A80036; stroke-width: 2.0833333333333335; stroke-dasharray: 7.0,7.0;"/><!--link ErrorPluginEvent to AbstractPluginEvent--><path d="M873.1875,797.3604 C863.1208,873.2188 848.9354,980.1208 838.9646,1055.2563 " fill="none" id="ErrorPluginEvent-AbstractPluginEvent" style="stroke: #A80036; stroke-width: 2.0833333333333335;"/><polygon fill="none" points="853.3813,1057.4771,833.4438,1096.8646,824.4688,1053.6417,853.3813,1057.4771" style="stroke: #A80036; stroke-width: 2.0833333333333335;"/><text fill="#000000" font-family="sans-serif" font-size="27.0833" lengthAdjust="spacingAndGlyphs" textLength="95.8333" x="858.3333" y="955.1982">extends</text><!--link AbstractPluginEvent to ReaderPresencePluginEvent--><path d="M868.2313,1235.2813 C895.4271,1292.3313 931.4542,1367.9083 961.4417,1430.8188 " fill="none" id="AbstractPluginEvent-ReaderPresencePluginEvent" style="stroke: #A80036; stroke-width: 2.0833333333333335;"/><polygon fill="none" points="854.9688,1241.3458,850.2021,1197.4583,881.2958,1228.7958,854.9688,1241.3458" style="stroke: #A80036; stroke-width: 2.0833333333333335;"/><text fill="#000000" font-family="sans-serif" font-size="27.0833" lengthAdjust="spacingAndGlyphs" textLength="95.8333" x="931.25" y="1361.4482">extends</text><!--link PluginObserver to apoint205--><path d="M1612.2604,791.7958 C1651.3875,854.7542 1702.9667,942.9729 1739.5833,1025 C1759.5833,1069.8021 1774.8896,1127.9167 1778.4042,1141.7438 " fill="none" id="PluginObserver-apoint205" style="stroke: #A80036; stroke-width: 2.0833333333333335;"/><polygon fill="#FFFFFF" points="1597.4021,768.1333,1596.9914,783.1508,1610.6957,789.3059,1611.1064,774.2884,1597.4021,768.1333" style="stroke: #A80036; stroke-width: 2.0833333333333335;"/><polygon fill="#000000" points="1754.1667,947.9167,1760.4167,935.4167,1766.6667,947.9167,1754.1667,947.9167" style="stroke: #000000; stroke-width: 2.0833333333333335;"/><text fill="#000000" font-family="sans-serif" font-size="27.0833" lengthAdjust="spacingAndGlyphs" textLength="106.25" x="1710.4167" y="982.2815">observes</text><text fill="#000000" font-family="sans-serif" font-size="27.0833" lengthAdjust="spacingAndGlyphs" textLength="14.5833" x="1589.2734" y="811.9198">1</text><!--link apoint205 to ObservablePlugin--><path d="M1779.1667,1151.525 C1779.1667,1174.6 1779.1667,1347.9771 1779.1667,1458.6229 " fill="none" id="apoint205-ObservablePlugin" style="stroke: #A80036; stroke-width: 2.0833333333333335;"/><text fill="#000000" font-family="sans-serif" font-size="27.0833" lengthAdjust="spacingAndGlyphs" textLength="10.4167" x="1767.9525" y="1436.5163">*</text><!--link PluginEvent to apoint205--><path d="M1702.225,1146.875 C1726.4708,1146.875 1750.7146,1146.875 1774.9583,1146.875 " fill="none" id="PluginEvent-apoint205" style="stroke: #A80036; stroke-width: 2.0833333333333335; stroke-dasharray: 7.0,7.0;"/><!--link N2 to ObservablePlugin--><path d="M2084.4354,1225.5333 C2022.0396,1292.0667 1931.5229,1388.5833 1865.2563,1459.2438 " fill="none" id="N2-ObservablePlugin" style="stroke: #A80036; stroke-width: 2.0833333333333335; stroke-dasharray: 7.0,7.0;"/><!--link N2 to ObservableReader--><path d="M2210.2083,1225.5333 C2257.0833,1292.0667 2325.1042,1388.5833 2374.8958,1459.2438 " fill="none" id="N2-ObservableReader" style="stroke: #A80036; stroke-width: 2.0833333333333335; stroke-dasharray: 7.0,7.0;"/><!--link AbstractPluginEvent to PluginEvent--><path d="M1014.9,1146.875 C1020.7792,1146.875 1026.6563,1146.875 1032.5354,1146.875 " fill="none" id="AbstractPluginEvent-PluginEvent" style="stroke: #A80036; stroke-width: 2.0833333333333335;"/><polygon fill="#A80036" points="1060.0458,1146.875,1041.2958,1138.5417,1049.6292,1146.875,1041.2958,1155.2083,1060.0458,1146.875" style="stroke: #A80036; stroke-width: 2.0833333333333335;"/><line style="stroke: #A80036; stroke-width: 2.0833333333333335;" x1="1049.6292" x2="1032.9625" y1="1146.875" y2="1146.875"/><polygon fill="#A80036" points="987.8125,1146.875,1000.3125,1155.2083,1012.8125,1146.875,1000.3125,1138.5417,987.8125,1146.875" style="stroke: #A80036; stroke-width: 2.0833333333333335;"/><text fill="#000000" font-family="sans-serif" font-size="27.0833" lengthAdjust="spacingAndGlyphs" textLength="14.5833" x="1004.3521" y="1140.0519">1</text><text fill="#000000" font-family="sans-serif" font-size="27.0833" lengthAdjust="spacingAndGlyphs" textLength="14.5833" x="1029.551" y="1140.8579">1</text><!--link SeProxyService to PluginObserver--><!--link PluginObserver to ReaderObserver--><!--link SeProxyService to ReadersPlugin--><path d="M315.2229,890.45 C326.6083,1130.5354 384.0813,1545.5083 633.3333,1775 C732.1375,1865.9708 1065.8479,1922.5354 1319.1063,1953.3771 " fill="none" id="SeProxyService-ReadersPlugin" style="stroke: #A80036; stroke-width: 2.0833333333333335;"/><polygon fill="#A80036" points="1346.4542,1956.6458,1328.8257,1946.1462,1336.1111,1955.4096,1326.8477,1962.6951,1346.4542,1956.6458" style="stroke: #A80036; stroke-width: 2.0833333333333335;"/><line style="stroke: #A80036; stroke-width: 2.0833333333333335;" x1="1336.1111" x2="1319.5625" y1="1955.4096" y2="1953.4313"/><polygon fill="#A80036" points="314.0771,862.7771,306.2674,875.6107,315.1101,887.7557,322.9198,874.9221,314.0771,862.7771" style="stroke: #A80036; stroke-width: 2.0833333333333335;"/><text fill="#000000" font-family="sans-serif" font-size="27.0833" lengthAdjust="spacingAndGlyphs" textLength="85.4167" x="395.8333" y="1361.4482">plugins</text><text fill="#000000" font-family="sans-serif" font-size="27.0833" lengthAdjust="spacingAndGlyphs" textLength="14.5833" x="298.7749" y="907.1763">1</text><text fill="#000000" font-family="sans-serif" font-size="27.0833" lengthAdjust="spacingAndGlyphs" textLength="10.4167" x="1319.633" y="1948.8315">*</text><!--link ReadersPlugin to ProxyReader--><path d="M1931.2104,1985.4167 C1967.0021,1985.4167 2003.9083,1985.4167 2040.7208,1985.4167 " fill="none" id="ReadersPlugin-ProxyReader" style="stroke: #A80036; stroke-width: 2.0833333333333335;"/><polygon fill="#A80036" points="2068.1604,1985.4167,2049.4104,1977.0833,2057.7438,1985.4167,2049.4104,1993.75,2068.1604,1985.4167" style="stroke: #A80036; stroke-width: 2.0833333333333335;"/><line style="stroke: #A80036; stroke-width: 2.0833333333333335;" x1="2057.7438" x2="2041.0771" y1="1985.4167" y2="1985.4167"/><polygon fill="#A80036" points="1903.625,1985.4167,1916.125,1993.75,1928.625,1985.4167,1916.125,1977.0833,1903.625,1985.4167" style="stroke: #A80036; stroke-width: 2.0833333333333335;"/><text fill="#000000" font-family="sans-serif" font-size="27.0833" lengthAdjust="spacingAndGlyphs" textLength="89.5833" x="1941.1458" y="1971.8648">readers</text><text fill="#000000" font-family="sans-serif" font-size="27.0833" lengthAdjust="spacingAndGlyphs" textLength="14.5833" x="1920.1546" y="1979.2657">1</text><text fill="#000000" font-family="sans-serif" font-size="27.0833" lengthAdjust="spacingAndGlyphs" textLength="10.4167" x="2041.8546" y="1979.5321">*</text><!--link ObservablePlugin to ReadersPlugin--><path d="M1746.0938,1647.0521 C1721.3604,1715.7396 1687.5333,1809.6771 1661.9188,1880.8104 " fill="none" id="ObservablePlugin-ReadersPlugin" style="stroke: #A80036; stroke-width: 2.0833333333333335;"/><polygon fill="none" points="1675.3896,1886.4458,1647.5521,1920.7083,1647.9479,1876.5646,1675.3896,1886.4458" style="stroke: #A80036; stroke-width: 2.0833333333333335;"/><text fill="#000000" font-family="sans-serif" font-size="27.0833" lengthAdjust="spacingAndGlyphs" textLength="95.8333" x="1693.75" y="1821.8648">extends</text><!--link ObservableReader to ProxyReader--><path d="M2439.5833,1647.0521 C2439.5833,1706.025 2439.5833,1783.6104 2439.5833,1849.3958 " fill="none" id="ObservableReader-ProxyReader" style="stroke: #A80036; stroke-width: 2.0833333333333335;"/><polygon fill="none" points="2454.1667,1849.975,2439.5833,1891.6417,2425,1849.975,2454.1667,1849.975" style="stroke: #A80036; stroke-width: 2.0833333333333335;"/><text fill="#000000" font-family="sans-serif" font-size="27.0833" lengthAdjust="spacingAndGlyphs" textLength="95.8333" x="2441.6667" y="1821.8648">extends</text><!--link N1 to ReadersPlugin--><path d="M2306.5,2206.2427 C2174.4167,2163.8477 1970.4938,2098.3938 1820.1125,2050.125 " fill="none" id="N1-ReadersPlugin" style="stroke: #A80036; stroke-width: 2.0833333333333335; stroke-dasharray: 7.0,7.0;"/><!--link N1 to ProxyReader--><path d="M2461.1042,2205.8342 C2467.3125,2171.6325 2469.1458,2122.6104 2466.5833,2079.6813 " fill="none" id="N1-ProxyReader" style="stroke: #A80036; stroke-width: 2.0833333333333335; stroke-dasharray: 7.0,7.0;"/><!--link ProxyReader to N1--><!--link SpecificPluginObserver to PluginObserver--><path d="M1383,256.0625 C1416.5146,342.1438 1476.8229,497.0417 1516.7,599.4604 " fill="none" id="SpecificPluginObserver-PluginObserver" style="stroke: #A80036; stroke-width: 2.0833333333333335; stroke-dasharray: 7.0,7.0;"/><polygon fill="none" points="1530.3667,594.3688,1531.8938,638.4875,1503.1875,604.95,1530.3667,594.3688" style="stroke: #A80036; stroke-width: 2.0833333333333335;"/><text fill="#000000" font-family="sans-serif" font-size="27.0833" lengthAdjust="spacingAndGlyphs" textLength="139.5833" x="1422.9167" y="352.0732">implements</text><!--link SpecificReaderObserver to ReaderObserver--><path d="M2150,256.0625 C2150,341.3792 2150,494.2938 2150,596.7167 " fill="none" id="SpecificReaderObserver-ReaderObserver" style="stroke: #A80036; stroke-width: 2.0833333333333335; stroke-dasharray: 7.0,7.0;"/><polygon fill="none" points="2164.5833,596.8208,2150,638.4875,2135.4167,596.8208,2164.5833,596.8208" style="stroke: #A80036; stroke-width: 2.0833333333333335;"/><text fill="#000000" font-family="sans-serif" font-size="27.0833" lengthAdjust="spacingAndGlyphs" textLength="139.5833" x="2152.0833" y="352.0732">implements</text><!--link SpecificTerminal to SeProxyService--><path d="M738.3875,241.4583 C674.7979,310.4083 555.6438,439.625 459.8354,543.5229 " fill="none" id="SpecificTerminal-SeProxyService" style="stroke: #A80036; stroke-width: 2.0833333333333335;"/><text fill="#000000" font-family="sans-serif" font-size="27.0833" lengthAdjust="spacingAndGlyphs" textLength="58.3333" x="660.4167" y="352.0732">uses</text><polygon fill="#000000" points="680.2083,370.5241,686.4583,383.0241,692.7083,370.5241,680.2083,370.5241" style="stroke: #000000; stroke-width: 2.0833333333333335;"/><!--
@startuml
skinparam dpi 200


package org.eclipse.keyple.seproxy #FFFFFF {
+class "<b>final</b> SeProxyService" as SeProxyService << Singleton >> {
  -int version
  List<ReadersPlugin> plugins()
  -SeProxyService()
  +{static}SeProxyService getInstance()
  +setPlugins(List<ReadersPlugin> plugins())
  +SortedSet<ReadersPlugin> getPlugins()
  +int getVersion()
}
+interface ReadersPlugin {
  +SortedSet<? extends ProxyReader> getReaders()
}

+interface ProxyReader {
  +boolean isSePresent()
  +void addSeProtocolSetting(SeProtocolSetting seProtocolSetting);
  +SeResponseSet transmit(<b>final</b> SeRequestSet seApplicationRequest)
}

package event #FFFFFF {
together {
+enum ReaderEvent {
  IO_ERROR
  SE_INSERTION
  SE_REMOVAL
}

+interface ObservableReader {  
  +void addObserver(ReaderObserver observer);
  +void removeObserver(ReaderObserver observer);
  +void notifyObservers(ReaderEvent event);
}

+interface ReaderObserver {
  +update(ReaderEvent event)
}
ReaderObserver "1" o-down- "*" ObservableReader : observes <
(ObservableReader, ReaderObserver) . ReaderEvent


+abstract AbstractPluginEvent {
}
+class ErrorPluginEvent {
  -<b>final</b> Exception exception
  +ErrorPluginEvent(Exception exception)
  +Exception getException()
}
+class ReaderPresencePluginEvent {
  -<b>final</b> boolean added
  -<b>final</b> ProxyReader reader
  +ReaderPresencePluginEvent(boolean added, String readerName)
  +boolean isAdded()
  +String getReaderName()
}

+class "<b>final</b> PluginEvent" as PluginEvent {
  -<b>final</b> boolean exception
  -<b>final</b> String pluginName
  +PluginEvent(String pluginName, AbstractPluginEvent event)
  +boolean isException()
  +String getPluginName()
}

ErrorPluginEvent -down-|> AbstractPluginEvent : extends
ReaderPresencePluginEvent -up-|> AbstractPluginEvent : extends

+interface ObservablePlugin {  
  +void addObserver(PluginObserver observer);
  +void removeObserver(PluginObserver observer);
  +void notifyObservers(PluginEvent event);
}

+interface PluginObserver {
  +update(PluginEvent event)
}
PluginObserver "1" o-down- "*" ObservablePlugin : observes <
PluginEvent . (ObservablePlugin, PluginObserver)


note "- ObservablePlugin could be implemented by\nplugins managing hot-plug of SE readers.\n- ObservableReader could  be implemented by\nreaders supporting SE insertion detection."  as N2

}
N2 .. ObservablePlugin
N2 .. ObservableReader

AbstractPluginEvent "1" *-right-> "1" PluginEvent
}

SeProxyService -right[hidden]- -> PluginObserver
PluginObserver -right[hidden]- -> ReaderObserver

SeProxyService "1" *- -> "*" ReadersPlugin : plugins
ReadersPlugin "1" *-right-> "*" ProxyReader : readers


ObservablePlugin -down-|> ReadersPlugin : extends
ObservableReader - -|> ProxyReader : extends



note "ReadersPlugin & ProxyReader interfaces shall\nbe implemented by every readers' plugins."  as N1
N1 .. ReadersPlugin
N1 .. ProxyReader
}

package external.terminalapplication #3399FF {
  class SpecificTerminal
  
  class SpecificPluginObserver {
    +update(AbstractObservablePlugin plugin, AbstractPluginEvent event)
  }
  class SpecificReaderObserver {
    +update(AbstractObservableReader reader, ReaderEvent event)
  }
  
}


SpecificPluginObserver .down.|> PluginObserver : implements
SpecificReaderObserver .down.|> ReaderObserver : implements
SpecificTerminal -down- SeProxyService : uses >

ProxyReader -right[hidden]- -> N1

@enduml

PlantUML version 1.2018.08(Sun Jun 24 16:31:00 MUT 2018)
(GPL source distribution)
Java Runtime: Java(TM) SE Runtime Environment
JVM: Java HotSpot(TM) 64-Bit Server VM
Java Version: 1.8.0_162-b12
Operating System: Windows 10
OS Version: 10.0
Default Encoding: UTF-8
Language: en
Country: US
--></g></svg>