<?xml version="1.0" encoding="UTF-8" standalone="no"?><svg xmlns="http://www.w3.org/2000/svg" xmlns:xlink="http://www.w3.org/1999/xlink" contentScriptType="application/ecmascript" contentStyleType="text/css" height="1979.1667px" preserveAspectRatio="none" style="width:2497px;height:1979px;" version="1.1" viewBox="0 0 2497 1979" width="2497.9167px" zoomAndPan="magnify"><defs><filter height="300%" id="f1hwlom" width="300%" x="-1" y="-1"><feGaussianBlur result="blurOut" stdDeviation="4.166666666666667"/><feColorMatrix in="blurOut" result="blurOut2" type="matrix" values="0 0 0 0 0 0 0 0 0 0 0 0 0 0 0 0 0 0 .4 0"/><feOffset dx="8.333333333333334" dy="8.333333333333334" in="blurOut2" result="blurOut3"/><feBlend in="SourceGraphic" in2="blurOut3" mode="normal"/></filter></defs><g><!--cluster org.eclipse.keyple.seproxy--><polygon fill="#FFFFFF" filter="url(#f1hwlom)" points="235.4167,522.9167,641.6667,522.9167,656.25,572.1029,2112.5,572.1029,2112.5,1491.6667,235.4167,1491.6667,235.4167,522.9167" style="stroke: #000000; stroke-width: 4.166666666666667;"/><line style="stroke: #000000; stroke-width: 4.166666666666667;" x1="235.4167" x2="656.25" y1="572.1029" y2="572.1029"/><text fill="#000000" font-family="sans-serif" font-size="29.1667" font-weight="bold" lengthAdjust="spacingAndGlyphs" textLength="393.75" x="243.75" y="557.3608">org.eclipse.keyple.seproxy</text><!--cluster event--><polygon fill="#FFFFFF" filter="url(#f1hwlom)" points="302.0833,631.25,400,631.25,414.5833,680.4362,2045.8333,680.4362,2045.8333,987.5,302.0833,987.5,302.0833,631.25" style="stroke: #000000; stroke-width: 4.166666666666667;"/><line style="stroke: #000000; stroke-width: 4.166666666666667;" x1="302.0833" x2="414.5833" y1="680.4362" y2="680.4362"/><text fill="#000000" font-family="sans-serif" font-size="29.1667" font-weight="bold" lengthAdjust="spacingAndGlyphs" textLength="85.4167" x="310.4167" y="665.6942">event</text><!--cluster local--><polygon fill="#FFFFFF" filter="url(#f1hwlom)" points="320.8333,1125,402.0833,1125,416.6667,1174.1862,2045.8333,1174.1862,2045.8333,1425,320.8333,1425,320.8333,1125" style="stroke: #000000; stroke-width: 4.166666666666667;"/><line style="stroke: #000000; stroke-width: 4.166666666666667;" x1="320.8333" x2="416.6667" y1="1174.1862" y2="1174.1862"/><text fill="#000000" font-family="sans-serif" font-size="29.1667" font-weight="bold" lengthAdjust="spacingAndGlyphs" textLength="68.75" x="329.1667" y="1159.4442">local</text><!--cluster plugin.remotese--><polygon fill="#FFCCFF" filter="url(#f1hwlom)" points="277.0833,50,529.1667,50,543.75,99.1862,1347.9167,99.1862,1347.9167,418.75,277.0833,418.75,277.0833,50" style="stroke: #000000; stroke-width: 4.166666666666667;"/><line style="stroke: #000000; stroke-width: 4.166666666666667;" x1="277.0833" x2="543.75" y1="99.1862" y2="99.1862"/><text fill="#000000" font-family="sans-serif" font-size="29.1667" font-weight="bold" lengthAdjust="spacingAndGlyphs" textLength="239.5833" x="285.4167" y="84.4442">plugin.remotese</text><!--cluster plugin.androidnfc--><polygon fill="#FFCCFF" filter="url(#f1hwlom)" points="1397.9167,50,1668.75,50,1683.3333,99.1862,2483.3333,99.1862,2483.3333,418.75,1397.9167,418.75,1397.9167,50" style="stroke: #000000; stroke-width: 4.166666666666667;"/><line style="stroke: #000000; stroke-width: 4.166666666666667;" x1="1397.9167" x2="1683.3333" y1="99.1862" y2="99.1862"/><text fill="#000000" font-family="sans-serif" font-size="29.1667" font-weight="bold" lengthAdjust="spacingAndGlyphs" textLength="258.3333" x="1406.25" y="84.4442">plugin.androidnfc</text><!--cluster plugin.pcsc--><polygon fill="#FFCCFF" filter="url(#f1hwlom)" points="45.8333,1595.8333,227.0833,1595.8333,241.6667,1645.0195,997.9167,1645.0195,997.9167,1964.5833,45.8333,1964.5833,45.8333,1595.8333" style="stroke: #000000; stroke-width: 4.166666666666667;"/><line style="stroke: #000000; stroke-width: 4.166666666666667;" x1="45.8333" x2="241.6667" y1="1645.0195" y2="1645.0195"/><text fill="#000000" font-family="sans-serif" font-size="29.1667" font-weight="bold" lengthAdjust="spacingAndGlyphs" textLength="168.75" x="54.1667" y="1630.2775">plugin.pcsc</text><!--class AbstractThreadedObservablePlugin--><rect fill="#FEFECE" filter="url(#f1hwlom)" height="157.6497" style="stroke: #A80036; stroke-width: 3.125;" width="602.0833" x="555.2083" y="751.0417"/><ellipse cx="631.4583" cy="784.375" fill="#A9DCDF" rx="22.9167" ry="22.9167" style="stroke: #A80036; stroke-width: 2.0833333333333335;"/><path d="M636.0156,788.0534 L627.3893,788.0534 L626.5104,790.2018 L627.3893,790.2018 Q628.6589,790.2018 629.2122,790.6901 Q629.7656,791.1784 629.7656,791.9922 Q629.7656,792.7734 629.2122,793.2617 Q628.6589,793.75 627.3893,793.75 L622.6042,793.75 Q621.3346,793.75 620.7975,793.2617 Q620.2604,792.7734 620.2604,791.9596 Q620.2604,791.1784 620.8301,790.6738 Q621.3997,790.1693 622.7018,790.2018 L628.2682,776.3346 L625.957,776.3346 Q624.6875,776.3346 624.1341,775.8464 Q623.5807,775.3581 623.5807,774.5443 Q623.5807,773.763 624.1341,773.2747 Q624.6875,772.7865 625.957,772.7865 L633.6068,772.7865 L640.6706,790.2018 Q641.9076,790.2018 642.2982,790.4948 Q643.112,791.0482 643.112,791.9922 Q643.112,792.7734 642.5749,793.2617 Q642.0378,793.75 640.7682,793.75 L635.9831,793.75 Q634.7135,793.75 634.1602,793.2617 Q633.6068,792.7734 633.6068,791.9596 Q633.6068,791.1784 634.1602,790.6901 Q634.7135,790.2018 635.9831,790.2018 L636.862,790.2018 L636.0156,788.0534 Z M634.5182,784.5052 L631.6862,777.474 L628.8216,784.5052 L634.5182,784.5052 Z "/><ellipse cx="681.0417" cy="783.3333" fill="#84BE84" rx="6.25" ry="6.25" style="stroke: #038048; stroke-width: 2.0833333333333335;"/><text fill="#000000" font-family="sans-serif" font-size="25" font-style="italic" lengthAdjust="spacingAndGlyphs" textLength="412.5" x="693.5417" y="794.6045">AbstractThreadedObservablePlugin</text><line style="stroke: #A80036; stroke-width: 3.125;" x1="557.2917" x2="1155.2083" y1="817.7083" y2="817.7083"/><line style="stroke: #A80036; stroke-width: 3.125;" x1="557.2917" x2="1155.2083" y1="834.375" y2="834.375"/><ellipse cx="578.125" cy="860.2458" fill="#84BE84" rx="6.25" ry="6.25" style="stroke: #038048; stroke-width: 2.0833333333333335;"/><text fill="#000000" font-family="sans-serif" font-size="22.9167" font-weight="bold" lengthAdjust="spacingAndGlyphs" textLength="47.9167" x="596.875" y="866.4978">final</text><text fill="#000000" font-family="sans-serif" font-size="22.9167" lengthAdjust="spacingAndGlyphs" textLength="141.6667" x="651.0417" y="866.4978">addObserver(</text><text fill="#000000" font-family="sans-serif" font-size="22.9167" font-weight="bold" lengthAdjust="spacingAndGlyphs" textLength="47.9167" x="792.7083" y="866.4978">final</text><text fill="#000000" font-family="sans-serif" font-size="22.9167" lengthAdjust="spacingAndGlyphs" textLength="260.4167" x="846.875" y="866.4978">PluginObserver observer)</text><ellipse cx="578.125" cy="889.0706" fill="#84BE84" rx="6.25" ry="6.25" style="stroke: #038048; stroke-width: 2.0833333333333335;"/><text fill="#000000" font-family="sans-serif" font-size="22.9167" font-weight="bold" lengthAdjust="spacingAndGlyphs" textLength="47.9167" x="596.875" y="895.3227">final</text><text fill="#000000" font-family="sans-serif" font-size="22.9167" lengthAdjust="spacingAndGlyphs" textLength="179.1667" x="651.0417" y="895.3227">removeObserver(</text><text fill="#000000" font-family="sans-serif" font-size="22.9167" font-weight="bold" lengthAdjust="spacingAndGlyphs" textLength="47.9167" x="830.2083" y="895.3227">final</text><text fill="#000000" font-family="sans-serif" font-size="22.9167" lengthAdjust="spacingAndGlyphs" textLength="260.4167" x="884.375" y="895.3227">PluginObserver observer)</text><!--class AbstractObservableReader--><rect fill="#FEFECE" filter="url(#f1hwlom)" height="215.2995" style="stroke: #A80036; stroke-width: 3.125;" width="764.5833" x="1230.2083" y="722.9167"/><ellipse cx="1434.8958" cy="756.25" fill="#A9DCDF" rx="22.9167" ry="22.9167" style="stroke: #A80036; stroke-width: 2.0833333333333335;"/><path d="M1439.4531,759.9284 L1430.8268,759.9284 L1429.9479,762.0768 L1430.8268,762.0768 Q1432.0964,762.0768 1432.6497,762.5651 Q1433.2031,763.0534 1433.2031,763.8672 Q1433.2031,764.6484 1432.6497,765.1367 Q1432.0964,765.625 1430.8268,765.625 L1426.0417,765.625 Q1424.7721,765.625 1424.235,765.1367 Q1423.6979,764.6484 1423.6979,763.8346 Q1423.6979,763.0534 1424.2676,762.5488 Q1424.8372,762.0443 1426.1393,762.0768 L1431.7057,748.2096 L1429.3945,748.2096 Q1428.125,748.2096 1427.5716,747.7214 Q1427.0182,747.2331 1427.0182,746.4193 Q1427.0182,745.638 1427.5716,745.1497 Q1428.125,744.6615 1429.3945,744.6615 L1437.0443,744.6615 L1444.1081,762.0768 Q1445.3451,762.0768 1445.7357,762.3698 Q1446.5495,762.9232 1446.5495,763.8672 Q1446.5495,764.6484 1446.0124,765.1367 Q1445.4753,765.625 1444.2057,765.625 L1439.4206,765.625 Q1438.151,765.625 1437.5977,765.1367 Q1437.0443,764.6484 1437.0443,763.8346 Q1437.0443,763.0534 1437.5977,762.5651 Q1438.151,762.0768 1439.4206,762.0768 L1440.2995,762.0768 L1439.4531,759.9284 Z M1437.9557,756.3802 L1435.1237,749.349 L1432.2591,756.3802 L1437.9557,756.3802 Z "/><ellipse cx="1488.0208" cy="755.2083" fill="#84BE84" rx="6.25" ry="6.25" style="stroke: #038048; stroke-width: 2.0833333333333335;"/><text fill="#000000" font-family="sans-serif" font-size="25" font-style="italic" lengthAdjust="spacingAndGlyphs" textLength="314.5833" x="1500.5208" y="766.4795">AbstractObservableReader</text><line style="stroke: #A80036; stroke-width: 3.125;" x1="1232.2917" x2="1992.7083" y1="789.5833" y2="789.5833"/><line style="stroke: #A80036; stroke-width: 3.125;" x1="1232.2917" x2="1992.7083" y1="806.25" y2="806.25"/><ellipse cx="1253.125" cy="832.1208" fill="#84BE84" rx="6.25" ry="6.25" style="stroke: #038048; stroke-width: 2.0833333333333335;"/><text fill="#000000" font-family="sans-serif" font-size="22.9167" font-weight="bold" lengthAdjust="spacingAndGlyphs" textLength="47.9167" x="1271.875" y="838.3728">final</text><text fill="#000000" font-family="sans-serif" font-size="22.9167" lengthAdjust="spacingAndGlyphs" textLength="656.25" x="1326.0417" y="838.3728">void setSeProtocols(Map&lt;SeProtocol, String&gt; seProtocolSettings)</text><ellipse cx="1253.125" cy="860.9456" fill="#84BE84" rx="6.25" ry="6.25" style="stroke: #038048; stroke-width: 2.0833333333333335;"/><text fill="#000000" font-family="sans-serif" font-size="22.9167" lengthAdjust="spacingAndGlyphs" textLength="256.25" x="1271.875" y="867.1977">SeResponseSet transmit(</text><text fill="#000000" font-family="sans-serif" font-size="22.9167" font-weight="bold" lengthAdjust="spacingAndGlyphs" textLength="47.9167" x="1528.125" y="867.1977">final</text><text fill="#000000" font-family="sans-serif" font-size="22.9167" lengthAdjust="spacingAndGlyphs" textLength="389.5833" x="1582.2917" y="867.1977">SeRequestSet seApplicationRequests)</text><polygon fill="#FFFF44" points="1253.125,879.3538,1261.4583,887.6872,1253.125,896.0205,1244.7917,887.6872" style="stroke: #B38D22; stroke-width: 2.0833333333333335;"/><text fill="#000000" font-family="sans-serif" font-size="22.9167" font-style="italic" lengthAdjust="spacingAndGlyphs" textLength="679.1667" x="1271.875" y="896.0225">SeResponseSet processSeRequestSet(SeRequestSet requestSet)</text><ellipse cx="1253.125" cy="918.5954" fill="#84BE84" rx="6.25" ry="6.25" style="stroke: #038048; stroke-width: 2.0833333333333335;"/><text fill="#000000" font-family="sans-serif" font-size="22.9167" font-weight="bold" lengthAdjust="spacingAndGlyphs" textLength="47.9167" x="1271.875" y="924.8474">final</text><text fill="#000000" font-family="sans-serif" font-size="22.9167" lengthAdjust="spacingAndGlyphs" textLength="308.3333" x="1326.0417" y="924.8474">int compareTo(ProxyReader o)</text><ellipse cx="477.0833" cy="830.2083" fill="#000000" rx="4.1667" ry="4.1667" style="stroke: none; stroke-width: 2.0833333333333335;"/><ellipse cx="395.8333" cy="830.2083" fill="#000000" rx="4.1667" ry="4.1667" style="stroke: none; stroke-width: 2.0833333333333335;"/><!--class AbstractLocalReader--><rect fill="#FEFECE" filter="url(#f1hwlom)" height="157.6497" style="stroke: #A80036; stroke-width: 3.125;" width="795.8333" x="410.4167" y="1216.6667"/><ellipse cx="667.1875" cy="1250" fill="#A9DCDF" rx="22.9167" ry="22.9167" style="stroke: #A80036; stroke-width: 2.0833333333333335;"/><path d="M671.7448,1253.6784 L663.1185,1253.6784 L662.2396,1255.8268 L663.1185,1255.8268 Q664.388,1255.8268 664.9414,1256.3151 Q665.4948,1256.8034 665.4948,1257.6172 Q665.4948,1258.3984 664.9414,1258.8867 Q664.388,1259.375 663.1185,1259.375 L658.3333,1259.375 Q657.0638,1259.375 656.5267,1258.8867 Q655.9896,1258.3984 655.9896,1257.5846 Q655.9896,1256.8034 656.5592,1256.2988 Q657.1289,1255.7943 658.431,1255.8268 L663.9974,1241.9596 L661.6862,1241.9596 Q660.4167,1241.9596 659.8633,1241.4714 Q659.3099,1240.9831 659.3099,1240.1693 Q659.3099,1239.388 659.8633,1238.8997 Q660.4167,1238.4115 661.6862,1238.4115 L669.3359,1238.4115 L676.3997,1255.8268 Q677.6367,1255.8268 678.0273,1256.1198 Q678.8411,1256.6732 678.8411,1257.6172 Q678.8411,1258.3984 678.304,1258.8867 Q677.7669,1259.375 676.4974,1259.375 L671.7122,1259.375 Q670.4427,1259.375 669.8893,1258.8867 Q669.3359,1258.3984 669.3359,1257.5846 Q669.3359,1256.8034 669.8893,1256.3151 Q670.4427,1255.8268 671.7122,1255.8268 L672.5911,1255.8268 L671.7448,1253.6784 Z M670.2474,1250.1302 L667.4154,1243.099 L664.5508,1250.1302 L670.2474,1250.1302 Z "/><ellipse cx="720.3125" cy="1248.9583" fill="#84BE84" rx="6.25" ry="6.25" style="stroke: #038048; stroke-width: 2.0833333333333335;"/><text fill="#000000" font-family="sans-serif" font-size="25" font-style="italic" lengthAdjust="spacingAndGlyphs" textLength="241.6667" x="732.8125" y="1260.2295">AbstractLocalReader</text><line style="stroke: #A80036; stroke-width: 3.125;" x1="412.5" x2="1204.1667" y1="1283.3333" y2="1283.3333"/><line style="stroke: #A80036; stroke-width: 3.125;" x1="412.5" x2="1204.1667" y1="1300" y2="1300"/><ellipse cx="433.3333" cy="1325.8708" fill="#84BE84" rx="6.25" ry="6.25" style="stroke: #038048; stroke-width: 2.0833333333333335;"/><text fill="#000000" font-family="sans-serif" font-size="22.9167" font-weight="bold" lengthAdjust="spacingAndGlyphs" textLength="47.9167" x="452.0833" y="1332.1228">final</text><text fill="#000000" font-family="sans-serif" font-size="22.9167" lengthAdjust="spacingAndGlyphs" textLength="256.25" x="506.25" y="1332.1228">SeResponseSet transmit(</text><text fill="#000000" font-family="sans-serif" font-size="22.9167" font-weight="bold" lengthAdjust="spacingAndGlyphs" textLength="47.9167" x="762.5" y="1332.1228">final</text><text fill="#000000" font-family="sans-serif" font-size="22.9167" lengthAdjust="spacingAndGlyphs" textLength="377.0833" x="816.6667" y="1332.1228">SeRequestSet seApplicationRequest)</text><ellipse cx="433.3333" cy="1354.6956" fill="#84BE84" rx="6.25" ry="6.25" style="stroke: #038048; stroke-width: 2.0833333333333335;"/><text fill="#000000" font-family="sans-serif" font-size="22.9167" font-style="italic" lengthAdjust="spacingAndGlyphs" textLength="306.25" x="452.0833" y="1360.9477">ApduResponse transmitApdu(</text><text fill="#000000" font-family="sans-serif" font-size="22.9167" font-style="italic" font-weight="bold" lengthAdjust="spacingAndGlyphs" textLength="54.1667" x="758.3333" y="1360.9477">final</text><text fill="#000000" font-family="sans-serif" font-size="22.9167" font-style="italic" lengthAdjust="spacingAndGlyphs" textLength="287.5" x="818.75" y="1360.9477">ApduRequest apduRequest)</text><!--class AbstractThreadedLocalReader--><rect fill="#FEFECE" filter="url(#f1hwlom)" height="157.6497" style="stroke: #A80036; stroke-width: 3.125;" width="616.6667" x="1379.1667" y="1216.6667"/><ellipse cx="1491.1458" cy="1250" fill="#A9DCDF" rx="22.9167" ry="22.9167" style="stroke: #A80036; stroke-width: 2.0833333333333335;"/><path d="M1495.7031,1253.6784 L1487.0768,1253.6784 L1486.1979,1255.8268 L1487.0768,1255.8268 Q1488.3464,1255.8268 1488.8997,1256.3151 Q1489.4531,1256.8034 1489.4531,1257.6172 Q1489.4531,1258.3984 1488.8997,1258.8867 Q1488.3464,1259.375 1487.0768,1259.375 L1482.2917,1259.375 Q1481.0221,1259.375 1480.485,1258.8867 Q1479.9479,1258.3984 1479.9479,1257.5846 Q1479.9479,1256.8034 1480.5176,1256.2988 Q1481.0872,1255.7943 1482.3893,1255.8268 L1487.9557,1241.9596 L1485.6445,1241.9596 Q1484.375,1241.9596 1483.8216,1241.4714 Q1483.2682,1240.9831 1483.2682,1240.1693 Q1483.2682,1239.388 1483.8216,1238.8997 Q1484.375,1238.4115 1485.6445,1238.4115 L1493.2943,1238.4115 L1500.3581,1255.8268 Q1501.5951,1255.8268 1501.9857,1256.1198 Q1502.7995,1256.6732 1502.7995,1257.6172 Q1502.7995,1258.3984 1502.2624,1258.8867 Q1501.7253,1259.375 1500.4557,1259.375 L1495.6706,1259.375 Q1494.401,1259.375 1493.8477,1258.8867 Q1493.2943,1258.3984 1493.2943,1257.5846 Q1493.2943,1256.8034 1493.8477,1256.3151 Q1494.401,1255.8268 1495.6706,1255.8268 L1496.5495,1255.8268 L1495.7031,1253.6784 Z M1494.2057,1250.1302 L1491.3737,1243.099 L1488.5091,1250.1302 L1494.2057,1250.1302 Z "/><ellipse cx="1544.2708" cy="1248.9583" fill="#84BE84" rx="6.25" ry="6.25" style="stroke: #038048; stroke-width: 2.0833333333333335;"/><text fill="#000000" font-family="sans-serif" font-size="25" font-style="italic" lengthAdjust="spacingAndGlyphs" textLength="352.0833" x="1556.7708" y="1260.2295">AbstractThreadedLocalReader</text><line style="stroke: #A80036; stroke-width: 3.125;" x1="1381.25" x2="1993.75" y1="1283.3333" y2="1283.3333"/><line style="stroke: #A80036; stroke-width: 3.125;" x1="1381.25" x2="1993.75" y1="1300" y2="1300"/><ellipse cx="1402.0833" cy="1325.8708" fill="#84BE84" rx="6.25" ry="6.25" style="stroke: #038048; stroke-width: 2.0833333333333335;"/><text fill="#000000" font-family="sans-serif" font-size="22.9167" font-weight="bold" lengthAdjust="spacingAndGlyphs" textLength="47.9167" x="1420.8333" y="1332.1228">final</text><text fill="#000000" font-family="sans-serif" font-size="22.9167" lengthAdjust="spacingAndGlyphs" textLength="141.6667" x="1475" y="1332.1228">addObserver(</text><text fill="#000000" font-family="sans-serif" font-size="22.9167" font-weight="bold" lengthAdjust="spacingAndGlyphs" textLength="47.9167" x="1616.6667" y="1332.1228">final</text><text fill="#000000" font-family="sans-serif" font-size="22.9167" lengthAdjust="spacingAndGlyphs" textLength="275" x="1670.8333" y="1332.1228">ReaderObserver observer)</text><ellipse cx="1402.0833" cy="1354.6956" fill="#84BE84" rx="6.25" ry="6.25" style="stroke: #038048; stroke-width: 2.0833333333333335;"/><text fill="#000000" font-family="sans-serif" font-size="22.9167" font-weight="bold" lengthAdjust="spacingAndGlyphs" textLength="47.9167" x="1420.8333" y="1360.9477">final</text><text fill="#000000" font-family="sans-serif" font-size="22.9167" lengthAdjust="spacingAndGlyphs" textLength="179.1667" x="1475" y="1360.9477">removeObserver(</text><text fill="#000000" font-family="sans-serif" font-size="22.9167" font-weight="bold" lengthAdjust="spacingAndGlyphs" textLength="47.9167" x="1654.1667" y="1360.9477">final</text><text fill="#000000" font-family="sans-serif" font-size="22.9167" lengthAdjust="spacingAndGlyphs" textLength="275" x="1708.3333" y="1360.9477">ReaderObserver observer)</text><!--class RemoteSePlugin--><rect fill="#FEFECE" filter="url(#f1hwlom)" height="261.1816" style="stroke: #A80036; stroke-width: 3.125;" width="483.3333" x="310.4167" y="125"/><ellipse cx="405.7292" cy="166.862" fill="#ADD1B2" rx="22.9167" ry="22.9167" style="stroke: #A80036; stroke-width: 2.0833333333333335;"/><path d="M411.4909,158.2682 Q411.8164,157.8125 412.207,157.5846 Q412.5977,157.3568 413.0534,157.3568 Q413.8346,157.3568 414.3229,157.8939 Q414.8112,158.431 414.8112,159.7005 L414.8112,162.7279 Q414.8112,163.9974 414.3229,164.5508 Q413.8346,165.1042 413.0534,165.1042 Q412.3372,165.1042 411.9141,164.681 Q411.4909,164.2904 411.263,163.2161 Q411.1654,162.4674 410.7747,162.0768 Q410.0911,161.2956 408.8216,160.8398 Q407.5521,160.3841 406.25,160.3841 Q404.6549,160.3841 403.3366,161.0677 Q402.0182,161.7513 400.9928,163.3138 Q399.9674,164.8763 399.9674,167.0247 L399.9674,169.3034 Q399.9674,171.875 401.8229,173.584 Q403.6784,175.293 406.9987,175.293 Q408.9518,175.293 410.319,174.7721 Q411.1328,174.4466 412.0117,173.5352 Q412.5651,172.9818 412.8743,172.819 Q413.1836,172.6563 413.6068,172.6563 Q414.2904,172.6563 414.8275,173.1934 Q415.3646,173.7305 415.3646,174.4466 Q415.3646,175.1628 414.6484,176.0091 Q413.6068,177.2135 411.9466,177.8971 Q409.7005,178.8411 406.9987,178.8411 Q403.8411,178.8411 401.3346,177.5391 Q399.2839,176.4974 397.8516,174.2676 Q396.4193,172.0378 396.4193,169.3685 L396.4193,166.9596 Q396.4193,164.1927 397.7051,161.8001 Q398.9909,159.4076 401.2695,158.1217 Q403.5482,156.8359 406.1198,156.8359 Q407.6497,156.8359 409.0007,157.1777 Q410.3516,157.5195 411.4909,158.2682 Z "/><text fill="#000000" font-family="sans-serif" font-size="25" font-style="italic" lengthAdjust="spacingAndGlyphs" textLength="137.5" x="517.1875" y="161.3688">«Singleton»</text><ellipse cx="458.8542" cy="181.543" fill="#84BE84" rx="6.25" ry="6.25" style="stroke: #038048; stroke-width: 2.0833333333333335;"/><text fill="#000000" font-family="sans-serif" font-size="25" font-weight="bold" lengthAdjust="spacingAndGlyphs" textLength="50" x="471.3542" y="192.8141">final</text><text fill="#000000" font-family="sans-serif" font-size="25" lengthAdjust="spacingAndGlyphs" textLength="195.8333" x="527.6042" y="192.8141">RemoteSePlugin</text><line style="stroke: #A80036; stroke-width: 3.125;" x1="312.5" x2="791.6667" y1="208.724" y2="208.724"/><rect fill="none" height="12.5" style="stroke: #C82930; stroke-width: 2.0833333333333335;" width="12.5" x="327.0833" y="228.3447"/><text fill="#000000" font-family="sans-serif" font-size="22.9167" lengthAdjust="spacingAndGlyphs" textLength="118.75" x="352.0833" y="240.8468">String name</text><line style="stroke: #A80036; stroke-width: 3.125;" x1="312.5" x2="791.6667" y1="254.2155" y2="254.2155"/><rect fill="#F24D5C" height="12.5" style="stroke: #C82930; stroke-width: 2.0833333333333335;" width="12.5" x="327.0833" y="273.8363"/><text fill="#000000" font-family="sans-serif" font-size="22.9167" lengthAdjust="spacingAndGlyphs" textLength="177.0833" x="352.0833" y="286.3383">RemoteSePlugin()</text><ellipse cx="333.3333" cy="308.9111" fill="#84BE84" rx="6.25" ry="6.25" style="stroke: #038048; stroke-width: 2.0833333333333335;"/><text fill="#000000" font-family="sans-serif" font-size="22.9167" lengthAdjust="spacingAndGlyphs" text-decoration="underline" textLength="300" x="352.0833" y="315.1632">RemoteSePlugin getInstance()</text><line style="stroke: #000000; stroke-width: 1.0;" x1="352.0833" x2="652.0833" y1="319.3298" y2="319.3298"/><ellipse cx="333.3333" cy="337.736" fill="#84BE84" rx="6.25" ry="6.25" style="stroke: #038048; stroke-width: 2.0833333333333335;"/><text fill="#000000" font-family="sans-serif" font-size="22.9167" font-weight="bold" lengthAdjust="spacingAndGlyphs" textLength="47.9167" x="352.0833" y="343.988">final</text><text fill="#000000" font-family="sans-serif" font-size="22.9167" lengthAdjust="spacingAndGlyphs" textLength="168.75" x="406.25" y="343.988">String getName()</text><ellipse cx="333.3333" cy="366.5609" fill="#84BE84" rx="6.25" ry="6.25" style="stroke: #038048; stroke-width: 2.0833333333333335;"/><text fill="#000000" font-family="sans-serif" font-size="22.9167" font-weight="bold" lengthAdjust="spacingAndGlyphs" textLength="47.9167" x="352.0833" y="372.8129">final</text><text fill="#000000" font-family="sans-serif" font-size="22.9167" lengthAdjust="spacingAndGlyphs" textLength="375" x="406.25" y="372.8129">List&lt;RemoteSeReader&gt; getReaders()</text><!--class RemoteSeReader--><rect fill="#FEFECE" filter="url(#f1hwlom)" height="203.5319" style="stroke: #A80036; stroke-width: 3.125;" width="354.1667" x="960.4167" y="153.125"/><ellipse cx="991.6667" cy="194.987" fill="#ADD1B2" rx="22.9167" ry="22.9167" style="stroke: #A80036; stroke-width: 2.0833333333333335;"/><path d="M997.4284,186.3932 Q997.7539,185.9375 998.1445,185.7096 Q998.5352,185.4818 998.9909,185.4818 Q999.7721,185.4818 1000.2604,186.0189 Q1000.7487,186.556 1000.7487,187.8255 L1000.7487,190.8529 Q1000.7487,192.1224 1000.2604,192.6758 Q999.7721,193.2292 998.9909,193.2292 Q998.2747,193.2292 997.8516,192.806 Q997.4284,192.4154 997.2005,191.3411 Q997.1029,190.5924 996.7122,190.2018 Q996.0286,189.4206 994.7591,188.9648 Q993.4896,188.5091 992.1875,188.5091 Q990.5924,188.5091 989.2741,189.1927 Q987.9557,189.8763 986.9303,191.4388 Q985.9049,193.0013 985.9049,195.1497 L985.9049,197.4284 Q985.9049,200 987.7604,201.709 Q989.6159,203.418 992.9362,203.418 Q994.8893,203.418 996.2565,202.8971 Q997.0703,202.5716 997.9492,201.6602 Q998.5026,201.1068 998.8118,200.944 Q999.1211,200.7813 999.5443,200.7813 Q1000.2279,200.7813 1000.765,201.3184 Q1001.3021,201.8555 1001.3021,202.5716 Q1001.3021,203.2878 1000.5859,204.1341 Q999.5443,205.3385 997.8841,206.0221 Q995.638,206.9661 992.9362,206.9661 Q989.7786,206.9661 987.2721,205.6641 Q985.2214,204.6224 983.7891,202.3926 Q982.3568,200.1628 982.3568,197.4935 L982.3568,195.0846 Q982.3568,192.3177 983.6426,189.9251 Q984.9284,187.5326 987.207,186.2467 Q989.4857,184.9609 992.0573,184.9609 Q993.5872,184.9609 994.9382,185.3027 Q996.2891,185.6445 997.4284,186.3932 Z "/><text fill="#000000" font-family="sans-serif" font-size="25" font-style="italic" lengthAdjust="spacingAndGlyphs" textLength="137.5" x="1095.8333" y="189.4938">«Singleton»</text><ellipse cx="1031.25" cy="209.668" fill="#84BE84" rx="6.25" ry="6.25" style="stroke: #038048; stroke-width: 2.0833333333333335;"/><text fill="#000000" font-family="sans-serif" font-size="25" font-weight="bold" lengthAdjust="spacingAndGlyphs" textLength="50" x="1043.75" y="220.9391">final</text><text fill="#000000" font-family="sans-serif" font-size="25" lengthAdjust="spacingAndGlyphs" textLength="208.3333" x="1100" y="220.9391">RemoteSeReader</text><line style="stroke: #A80036; stroke-width: 3.125;" x1="962.5" x2="1312.5" y1="236.849" y2="236.849"/><rect fill="none" height="12.5" style="stroke: #C82930; stroke-width: 2.0833333333333335;" width="12.5" x="977.0833" y="256.4697"/><text fill="#000000" font-family="sans-serif" font-size="22.9167" lengthAdjust="spacingAndGlyphs" textLength="118.75" x="1002.0833" y="268.9718">String name</text><line style="stroke: #A80036; stroke-width: 3.125;" x1="962.5" x2="1312.5" y1="282.3405" y2="282.3405"/><polygon fill="#FFFF44" points="983.3333,297.7946,991.6667,306.1279,983.3333,314.4613,975,306.1279" style="stroke: #B38D22; stroke-width: 2.0833333333333335;"/><text fill="#000000" font-family="sans-serif" font-size="22.9167" lengthAdjust="spacingAndGlyphs" textLength="191.6667" x="1002.0833" y="314.4633">RemoteSeReader()</text><ellipse cx="983.3333" cy="337.0361" fill="#84BE84" rx="6.25" ry="6.25" style="stroke: #038048; stroke-width: 2.0833333333333335;"/><text fill="#000000" font-family="sans-serif" font-size="22.9167" font-weight="bold" lengthAdjust="spacingAndGlyphs" textLength="47.9167" x="1002.0833" y="343.2882">final</text><text fill="#000000" font-family="sans-serif" font-size="22.9167" lengthAdjust="spacingAndGlyphs" textLength="168.75" x="1056.25" y="343.2882">String getName()</text><!--class AndroidNfcPlugin--><rect fill="#FEFECE" filter="url(#f1hwlom)" height="261.1816" style="stroke: #A80036; stroke-width: 3.125;" width="495.8333" x="1431.25" y="125"/><ellipse cx="1531.7708" cy="166.862" fill="#ADD1B2" rx="22.9167" ry="22.9167" style="stroke: #A80036; stroke-width: 2.0833333333333335;"/><path d="M1537.5326,158.2682 Q1537.8581,157.8125 1538.2487,157.5846 Q1538.6393,157.3568 1539.0951,157.3568 Q1539.8763,157.3568 1540.3646,157.8939 Q1540.8529,158.431 1540.8529,159.7005 L1540.8529,162.7279 Q1540.8529,163.9974 1540.3646,164.5508 Q1539.8763,165.1042 1539.0951,165.1042 Q1538.3789,165.1042 1537.9557,164.681 Q1537.5326,164.2904 1537.3047,163.2161 Q1537.207,162.4674 1536.8164,162.0768 Q1536.1328,161.2956 1534.8633,160.8398 Q1533.5938,160.3841 1532.2917,160.3841 Q1530.6966,160.3841 1529.3783,161.0677 Q1528.0599,161.7513 1527.0345,163.3138 Q1526.0091,164.8763 1526.0091,167.0247 L1526.0091,169.3034 Q1526.0091,171.875 1527.8646,173.584 Q1529.7201,175.293 1533.0404,175.293 Q1534.9935,175.293 1536.3607,174.7721 Q1537.1745,174.4466 1538.0534,173.5352 Q1538.6068,172.9818 1538.916,172.819 Q1539.2253,172.6563 1539.6484,172.6563 Q1540.332,172.6563 1540.8691,173.1934 Q1541.4063,173.7305 1541.4063,174.4466 Q1541.4063,175.1628 1540.6901,176.0091 Q1539.6484,177.2135 1537.9883,177.8971 Q1535.7422,178.8411 1533.0404,178.8411 Q1529.8828,178.8411 1527.3763,177.5391 Q1525.3255,176.4974 1523.8932,174.2676 Q1522.4609,172.0378 1522.4609,169.3685 L1522.4609,166.9596 Q1522.4609,164.1927 1523.7467,161.8001 Q1525.0326,159.4076 1527.3112,158.1217 Q1529.5898,156.8359 1532.1615,156.8359 Q1533.6914,156.8359 1535.0423,157.1777 Q1536.3932,157.5195 1537.5326,158.2682 Z "/><text fill="#000000" font-family="sans-serif" font-size="25" font-style="italic" lengthAdjust="spacingAndGlyphs" textLength="137.5" x="1644.2708" y="161.3688">«Singleton»</text><ellipse cx="1584.8958" cy="181.543" fill="#84BE84" rx="6.25" ry="6.25" style="stroke: #038048; stroke-width: 2.0833333333333335;"/><text fill="#000000" font-family="sans-serif" font-size="25" font-weight="bold" lengthAdjust="spacingAndGlyphs" textLength="50" x="1597.3958" y="192.8141">final</text><text fill="#000000" font-family="sans-serif" font-size="25" lengthAdjust="spacingAndGlyphs" textLength="197.9167" x="1653.6458" y="192.8141">AndroidNfcPlugin</text><line style="stroke: #A80036; stroke-width: 3.125;" x1="1433.3333" x2="1925" y1="208.724" y2="208.724"/><rect fill="none" height="12.5" style="stroke: #C82930; stroke-width: 2.0833333333333335;" width="12.5" x="1447.9167" y="228.3447"/><text fill="#000000" font-family="sans-serif" font-size="22.9167" lengthAdjust="spacingAndGlyphs" textLength="118.75" x="1472.9167" y="240.8468">String name</text><line style="stroke: #A80036; stroke-width: 3.125;" x1="1433.3333" x2="1925" y1="254.2155" y2="254.2155"/><rect fill="#F24D5C" height="12.5" style="stroke: #C82930; stroke-width: 2.0833333333333335;" width="12.5" x="1447.9167" y="273.8363"/><text fill="#000000" font-family="sans-serif" font-size="22.9167" lengthAdjust="spacingAndGlyphs" textLength="189.5833" x="1472.9167" y="286.3383">AndroidNfcPlugin()</text><ellipse cx="1454.1667" cy="308.9111" fill="#84BE84" rx="6.25" ry="6.25" style="stroke: #038048; stroke-width: 2.0833333333333335;"/><text fill="#000000" font-family="sans-serif" font-size="22.9167" lengthAdjust="spacingAndGlyphs" text-decoration="underline" textLength="312.5" x="1472.9167" y="315.1632">AndroidNfcPlugin getInstance()</text><line style="stroke: #000000; stroke-width: 1.0;" x1="1472.9167" x2="1785.4167" y1="319.3298" y2="319.3298"/><ellipse cx="1454.1667" cy="337.736" fill="#84BE84" rx="6.25" ry="6.25" style="stroke: #038048; stroke-width: 2.0833333333333335;"/><text fill="#000000" font-family="sans-serif" font-size="22.9167" font-weight="bold" lengthAdjust="spacingAndGlyphs" textLength="47.9167" x="1472.9167" y="343.988">final</text><text fill="#000000" font-family="sans-serif" font-size="22.9167" lengthAdjust="spacingAndGlyphs" textLength="168.75" x="1527.0833" y="343.988">String getName()</text><ellipse cx="1454.1667" cy="366.5609" fill="#84BE84" rx="6.25" ry="6.25" style="stroke: #038048; stroke-width: 2.0833333333333335;"/><text fill="#000000" font-family="sans-serif" font-size="22.9167" font-weight="bold" lengthAdjust="spacingAndGlyphs" textLength="47.9167" x="1472.9167" y="372.8129">final</text><text fill="#000000" font-family="sans-serif" font-size="22.9167" lengthAdjust="spacingAndGlyphs" textLength="387.5" x="1527.0833" y="372.8129">List&lt;AndroidNfcReader&gt; getReaders()</text><!--class AndroidNfcReader--><rect fill="#FEFECE" filter="url(#f1hwlom)" height="203.5319" style="stroke: #A80036; stroke-width: 3.125;" width="356.25" x="2092.7083" y="153.125"/><ellipse cx="2123.9583" cy="194.987" fill="#ADD1B2" rx="22.9167" ry="22.9167" style="stroke: #A80036; stroke-width: 2.0833333333333335;"/><path d="M2129.7201,186.3932 Q2130.0456,185.9375 2130.4362,185.7096 Q2130.8268,185.4818 2131.2826,185.4818 Q2132.0638,185.4818 2132.5521,186.0189 Q2133.0404,186.556 2133.0404,187.8255 L2133.0404,190.8529 Q2133.0404,192.1224 2132.5521,192.6758 Q2132.0638,193.2292 2131.2826,193.2292 Q2130.5664,193.2292 2130.1432,192.806 Q2129.7201,192.4154 2129.4922,191.3411 Q2129.3945,190.5924 2129.0039,190.2018 Q2128.3203,189.4206 2127.0508,188.9648 Q2125.7813,188.5091 2124.4792,188.5091 Q2122.8841,188.5091 2121.5658,189.1927 Q2120.2474,189.8763 2119.222,191.4388 Q2118.1966,193.0013 2118.1966,195.1497 L2118.1966,197.4284 Q2118.1966,200 2120.0521,201.709 Q2121.9076,203.418 2125.2279,203.418 Q2127.181,203.418 2128.5482,202.8971 Q2129.362,202.5716 2130.2409,201.6602 Q2130.7943,201.1068 2131.1035,200.944 Q2131.4128,200.7813 2131.8359,200.7813 Q2132.5195,200.7813 2133.0566,201.3184 Q2133.5938,201.8555 2133.5938,202.5716 Q2133.5938,203.2878 2132.8776,204.1341 Q2131.8359,205.3385 2130.1758,206.0221 Q2127.9297,206.9661 2125.2279,206.9661 Q2122.0703,206.9661 2119.5638,205.6641 Q2117.513,204.6224 2116.0807,202.3926 Q2114.6484,200.1628 2114.6484,197.4935 L2114.6484,195.0846 Q2114.6484,192.3177 2115.9342,189.9251 Q2117.2201,187.5326 2119.4987,186.2467 Q2121.7773,184.9609 2124.349,184.9609 Q2125.8789,184.9609 2127.2298,185.3027 Q2128.5807,185.6445 2129.7201,186.3932 Z "/><text fill="#000000" font-family="sans-serif" font-size="25" font-style="italic" lengthAdjust="spacingAndGlyphs" textLength="137.5" x="2229.1667" y="189.4938">«Singleton»</text><ellipse cx="2163.5417" cy="209.668" fill="#84BE84" rx="6.25" ry="6.25" style="stroke: #038048; stroke-width: 2.0833333333333335;"/><text fill="#000000" font-family="sans-serif" font-size="25" font-weight="bold" lengthAdjust="spacingAndGlyphs" textLength="50" x="2176.0417" y="220.9391">final</text><text fill="#000000" font-family="sans-serif" font-size="25" lengthAdjust="spacingAndGlyphs" textLength="210.4167" x="2232.2917" y="220.9391">AndroidNfcReader</text><line style="stroke: #A80036; stroke-width: 3.125;" x1="2094.7917" x2="2446.875" y1="236.849" y2="236.849"/><rect fill="none" height="12.5" style="stroke: #C82930; stroke-width: 2.0833333333333335;" width="12.5" x="2109.375" y="256.4697"/><text fill="#000000" font-family="sans-serif" font-size="22.9167" lengthAdjust="spacingAndGlyphs" textLength="118.75" x="2134.375" y="268.9718">String name</text><line style="stroke: #A80036; stroke-width: 3.125;" x1="2094.7917" x2="2446.875" y1="282.3405" y2="282.3405"/><polygon fill="#FFFF44" points="2115.625,297.7946,2123.9583,306.1279,2115.625,314.4613,2107.2917,306.1279" style="stroke: #B38D22; stroke-width: 2.0833333333333335;"/><text fill="#000000" font-family="sans-serif" font-size="22.9167" lengthAdjust="spacingAndGlyphs" textLength="204.1667" x="2134.375" y="314.4633">AndroidNfcReader()</text><ellipse cx="2115.625" cy="337.0361" fill="#84BE84" rx="6.25" ry="6.25" style="stroke: #038048; stroke-width: 2.0833333333333335;"/><text fill="#000000" font-family="sans-serif" font-size="22.9167" font-weight="bold" lengthAdjust="spacingAndGlyphs" textLength="47.9167" x="2134.375" y="343.2882">final</text><text fill="#000000" font-family="sans-serif" font-size="22.9167" lengthAdjust="spacingAndGlyphs" textLength="168.75" x="2188.5417" y="343.2882">String getName()</text><!--class PcscPlugin--><rect fill="#FEFECE" filter="url(#f1hwlom)" height="261.1816" style="stroke: #A80036; stroke-width: 3.125;" width="431.25" x="80.2083" y="1670.8333"/><ellipse cx="182.8125" cy="1712.6953" fill="#ADD1B2" rx="22.9167" ry="22.9167" style="stroke: #A80036; stroke-width: 2.0833333333333335;"/><path d="M188.5742,1704.1016 Q188.8997,1703.6458 189.2904,1703.418 Q189.681,1703.1901 190.1367,1703.1901 Q190.918,1703.1901 191.4063,1703.7272 Q191.8945,1704.2643 191.8945,1705.5339 L191.8945,1708.5612 Q191.8945,1709.8307 191.4063,1710.3841 Q190.918,1710.9375 190.1367,1710.9375 Q189.4206,1710.9375 188.9974,1710.5143 Q188.5742,1710.1237 188.3464,1709.0495 Q188.2487,1708.3008 187.8581,1707.9102 Q187.1745,1707.1289 185.9049,1706.6732 Q184.6354,1706.2174 183.3333,1706.2174 Q181.7383,1706.2174 180.4199,1706.901 Q179.1016,1707.5846 178.0762,1709.1471 Q177.0508,1710.7096 177.0508,1712.8581 L177.0508,1715.1367 Q177.0508,1717.7083 178.9063,1719.4173 Q180.7617,1721.1263 184.082,1721.1263 Q186.0352,1721.1263 187.4023,1720.6055 Q188.2161,1720.2799 189.0951,1719.3685 Q189.6484,1718.8151 189.9577,1718.6523 Q190.2669,1718.4896 190.6901,1718.4896 Q191.3737,1718.4896 191.9108,1719.0267 Q192.4479,1719.5638 192.4479,1720.2799 Q192.4479,1720.9961 191.7318,1721.8424 Q190.6901,1723.0469 189.0299,1723.7305 Q186.7839,1724.6745 184.082,1724.6745 Q180.9245,1724.6745 178.418,1723.3724 Q176.3672,1722.3307 174.9349,1720.1009 Q173.5026,1717.8711 173.5026,1715.2018 L173.5026,1712.793 Q173.5026,1710.026 174.7884,1707.6335 Q176.0742,1705.2409 178.3529,1703.9551 Q180.6315,1702.6693 183.2031,1702.6693 Q184.7331,1702.6693 186.084,1703.0111 Q187.4349,1703.3529 188.5742,1704.1016 Z "/><text fill="#000000" font-family="sans-serif" font-size="25" font-style="italic" lengthAdjust="spacingAndGlyphs" textLength="137.5" x="260.9375" y="1707.2021">«Singleton»</text><ellipse cx="235.9375" cy="1727.3763" fill="#84BE84" rx="6.25" ry="6.25" style="stroke: #038048; stroke-width: 2.0833333333333335;"/><text fill="#000000" font-family="sans-serif" font-size="25" font-weight="bold" lengthAdjust="spacingAndGlyphs" textLength="50" x="248.4375" y="1738.6475">final</text><text fill="#000000" font-family="sans-serif" font-size="25" lengthAdjust="spacingAndGlyphs" textLength="129.1667" x="304.6875" y="1738.6475">PcscPlugin</text><line style="stroke: #A80036; stroke-width: 3.125;" x1="82.2917" x2="509.375" y1="1754.5573" y2="1754.5573"/><rect fill="none" height="12.5" style="stroke: #C82930; stroke-width: 2.0833333333333335;" width="12.5" x="96.875" y="1774.1781"/><text fill="#000000" font-family="sans-serif" font-size="22.9167" lengthAdjust="spacingAndGlyphs" textLength="118.75" x="121.875" y="1786.6801">String name</text><line style="stroke: #A80036; stroke-width: 3.125;" x1="82.2917" x2="509.375" y1="1800.0488" y2="1800.0488"/><rect fill="#F24D5C" height="12.5" style="stroke: #C82930; stroke-width: 2.0833333333333335;" width="12.5" x="96.875" y="1819.6696"/><text fill="#000000" font-family="sans-serif" font-size="22.9167" lengthAdjust="spacingAndGlyphs" textLength="125" x="121.875" y="1832.1716">PcscPlugin()</text><ellipse cx="103.125" cy="1854.7445" fill="#84BE84" rx="6.25" ry="6.25" style="stroke: #038048; stroke-width: 2.0833333333333335;"/><text fill="#000000" font-family="sans-serif" font-size="22.9167" lengthAdjust="spacingAndGlyphs" text-decoration="underline" textLength="247.9167" x="121.875" y="1860.9965">PcscPlugin getInstance()</text><line style="stroke: #000000; stroke-width: 1.0;" x1="121.875" x2="369.7917" y1="1865.1632" y2="1865.1632"/><ellipse cx="103.125" cy="1883.5693" fill="#84BE84" rx="6.25" ry="6.25" style="stroke: #038048; stroke-width: 2.0833333333333335;"/><text fill="#000000" font-family="sans-serif" font-size="22.9167" font-weight="bold" lengthAdjust="spacingAndGlyphs" textLength="47.9167" x="121.875" y="1889.8214">final</text><text fill="#000000" font-family="sans-serif" font-size="22.9167" lengthAdjust="spacingAndGlyphs" textLength="168.75" x="176.0417" y="1889.8214">String getName()</text><ellipse cx="103.125" cy="1912.3942" fill="#84BE84" rx="6.25" ry="6.25" style="stroke: #038048; stroke-width: 2.0833333333333335;"/><text fill="#000000" font-family="sans-serif" font-size="22.9167" font-weight="bold" lengthAdjust="spacingAndGlyphs" textLength="47.9167" x="121.875" y="1918.6462">final</text><text fill="#000000" font-family="sans-serif" font-size="22.9167" lengthAdjust="spacingAndGlyphs" textLength="322.9167" x="176.0417" y="1918.6462">List&lt;PcscReader&gt; getReaders()</text><!--class PcscReader--><rect fill="#FEFECE" filter="url(#f1hwlom)" height="203.5319" style="stroke: #A80036; stroke-width: 3.125;" width="287.5" x="677.0833" y="1698.9583"/><ellipse cx="708.3333" cy="1740.8203" fill="#ADD1B2" rx="22.9167" ry="22.9167" style="stroke: #A80036; stroke-width: 2.0833333333333335;"/><path d="M714.0951,1732.2266 Q714.4206,1731.7708 714.8112,1731.543 Q715.2018,1731.3151 715.6576,1731.3151 Q716.4388,1731.3151 716.9271,1731.8522 Q717.4154,1732.3893 717.4154,1733.6589 L717.4154,1736.6862 Q717.4154,1737.9557 716.9271,1738.5091 Q716.4388,1739.0625 715.6576,1739.0625 Q714.9414,1739.0625 714.5182,1738.6393 Q714.0951,1738.2487 713.8672,1737.1745 Q713.7695,1736.4258 713.3789,1736.0352 Q712.6953,1735.2539 711.4258,1734.7982 Q710.1563,1734.3424 708.8542,1734.3424 Q707.2591,1734.3424 705.9408,1735.026 Q704.6224,1735.7096 703.597,1737.2721 Q702.5716,1738.8346 702.5716,1740.9831 L702.5716,1743.2617 Q702.5716,1745.8333 704.4271,1747.5423 Q706.2826,1749.2513 709.6029,1749.2513 Q711.556,1749.2513 712.9232,1748.7305 Q713.737,1748.4049 714.6159,1747.4935 Q715.1693,1746.9401 715.4785,1746.7773 Q715.7878,1746.6146 716.2109,1746.6146 Q716.8945,1746.6146 717.4316,1747.1517 Q717.9688,1747.6888 717.9688,1748.4049 Q717.9688,1749.1211 717.2526,1749.9674 Q716.2109,1751.1719 714.5508,1751.8555 Q712.3047,1752.7995 709.6029,1752.7995 Q706.4453,1752.7995 703.9388,1751.4974 Q701.888,1750.4557 700.4557,1748.2259 Q699.0234,1745.9961 699.0234,1743.3268 L699.0234,1740.918 Q699.0234,1738.151 700.3092,1735.7585 Q701.5951,1733.3659 703.8737,1732.0801 Q706.1523,1730.7943 708.724,1730.7943 Q710.2539,1730.7943 711.6048,1731.1361 Q712.9557,1731.4779 714.0951,1732.2266 Z "/><text fill="#000000" font-family="sans-serif" font-size="25" font-style="italic" lengthAdjust="spacingAndGlyphs" textLength="137.5" x="779.1667" y="1735.3271">«Singleton»</text><ellipse cx="747.9167" cy="1755.5013" fill="#84BE84" rx="6.25" ry="6.25" style="stroke: #038048; stroke-width: 2.0833333333333335;"/><text fill="#000000" font-family="sans-serif" font-size="25" font-weight="bold" lengthAdjust="spacingAndGlyphs" textLength="50" x="760.4167" y="1766.7725">final</text><text fill="#000000" font-family="sans-serif" font-size="25" lengthAdjust="spacingAndGlyphs" textLength="141.6667" x="816.6667" y="1766.7725">PcscReader</text><line style="stroke: #A80036; stroke-width: 3.125;" x1="679.1667" x2="962.5" y1="1782.6823" y2="1782.6823"/><rect fill="none" height="12.5" style="stroke: #C82930; stroke-width: 2.0833333333333335;" width="12.5" x="693.75" y="1802.3031"/><text fill="#000000" font-family="sans-serif" font-size="22.9167" lengthAdjust="spacingAndGlyphs" textLength="118.75" x="718.75" y="1814.8051">String name</text><line style="stroke: #A80036; stroke-width: 3.125;" x1="679.1667" x2="962.5" y1="1828.1738" y2="1828.1738"/><polygon fill="#FFFF44" points="700,1843.6279,708.3333,1851.9613,700,1860.2946,691.6667,1851.9613" style="stroke: #B38D22; stroke-width: 2.0833333333333335;"/><text fill="#000000" font-family="sans-serif" font-size="22.9167" lengthAdjust="spacingAndGlyphs" textLength="139.5833" x="718.75" y="1860.2966">PcscReader()</text><ellipse cx="700" cy="1882.8695" fill="#84BE84" rx="6.25" ry="6.25" style="stroke: #038048; stroke-width: 2.0833333333333335;"/><text fill="#000000" font-family="sans-serif" font-size="22.9167" font-weight="bold" lengthAdjust="spacingAndGlyphs" textLength="47.9167" x="718.75" y="1889.1215">final</text><text fill="#000000" font-family="sans-serif" font-size="22.9167" lengthAdjust="spacingAndGlyphs" textLength="168.75" x="772.9167" y="1889.1215">String getName()</text><path d="M1248.7917,1295.8333 C1292.6896,1295.8333 1336.575,1295.8333 1378.6979,1295.8333 " fill="none" style="stroke: #A80036; stroke-width: 2.0833333333333335;"/><polygon fill="none" points="1248.4271,1310.4167,1206.7604,1295.8333,1248.425,1281.25,1248.4271,1310.4167" style="stroke: #A80036; stroke-width: 2.0833333333333335;"/><text fill="#000000" font-family="sans-serif" font-size="27.0833" lengthAdjust="spacingAndGlyphs" textLength="95.8333" x="1244.7917" y="1282.2815">extends</text><path d="M1392.4083,958.5875 C1248.5438,1041.1417 1065.2833,1146.3021 942.7646,1216.6083 " fill="none" style="stroke: #A80036; stroke-width: 2.0833333333333335;"/><polygon fill="none" points="1385.6188,945.6708,1429.0167,937.5813,1400.1354,970.9688,1385.6188,945.6708" style="stroke: #A80036; stroke-width: 2.0833333333333335;"/><text fill="#000000" font-family="sans-serif" font-size="27.0833" lengthAdjust="spacingAndGlyphs" textLength="95.8333" x="1235.4167" y="1067.6982">extends</text><path d="M821.8333,255.2083 C858.9229,255.2083 896.5063,255.2083 932.1833,255.2083 " fill="none" style="stroke: #A80036; stroke-width: 2.0833333333333335;"/><polygon fill="#A80036" points="959.6958,255.2083,940.9458,246.875,949.2792,255.2083,940.9458,263.5417,959.6958,255.2083" style="stroke: #A80036; stroke-width: 2.0833333333333335;"/><line style="stroke: #A80036; stroke-width: 2.0833333333333335;" x1="949.2792" x2="932.6125" y1="255.2083" y2="255.2083"/><polygon fill="#A80036" points="794.4208,255.2083,806.9208,263.5417,819.4208,255.2083,806.9208,246.875,794.4208,255.2083" style="stroke: #A80036; stroke-width: 2.0833333333333335;"/><text fill="#000000" font-family="sans-serif" font-size="27.0833" lengthAdjust="spacingAndGlyphs" textLength="89.5833" x="832.2917" y="241.6565">readers</text><text fill="#000000" font-family="sans-serif" font-size="27.0833" lengthAdjust="spacingAndGlyphs" textLength="14.5833" x="810.4127" y="248.9211">1</text><text fill="#000000" font-family="sans-serif" font-size="27.0833" lengthAdjust="spacingAndGlyphs" textLength="10.4167" x="933.5515" y="248.6163">*</text><path d="M1954.9021,255.2083 C1991.9396,255.2083 2029.3979,255.2083 2064.9417,255.2083 " fill="none" style="stroke: #A80036; stroke-width: 2.0833333333333335;"/><polygon fill="#A80036" points="2092.35,255.2083,2073.6,246.875,2081.9333,255.2083,2073.6,263.5417,2092.35,255.2083" style="stroke: #A80036; stroke-width: 2.0833333333333335;"/><line style="stroke: #A80036; stroke-width: 2.0833333333333335;" x1="2081.9333" x2="2065.2667" y1="255.2083" y2="255.2083"/><polygon fill="#A80036" points="1927.5146,255.2083,1940.0146,263.5417,1952.5146,255.2083,1940.0146,246.875,1927.5146,255.2083" style="stroke: #A80036; stroke-width: 2.0833333333333335;"/><text fill="#000000" font-family="sans-serif" font-size="27.0833" lengthAdjust="spacingAndGlyphs" textLength="89.5833" x="1965.1042" y="241.6565">readers</text><text fill="#000000" font-family="sans-serif" font-size="27.0833" lengthAdjust="spacingAndGlyphs" textLength="14.5833" x="1943.8915" y="248.9211">1</text><text fill="#000000" font-family="sans-serif" font-size="27.0833" lengthAdjust="spacingAndGlyphs" textLength="10.4167" x="2065.5733" y="248.5663">*</text><path d="M539.2542,1801.0417 C576.6292,1801.0417 614.5229,1801.0417 649.8833,1801.0417 " fill="none" style="stroke: #A80036; stroke-width: 2.0833333333333335;"/><polygon fill="#A80036" points="677.0083,1801.0417,658.2583,1792.7083,666.5917,1801.0417,658.2583,1809.375,677.0083,1801.0417" style="stroke: #A80036; stroke-width: 2.0833333333333335;"/><line style="stroke: #A80036; stroke-width: 2.0833333333333335;" x1="666.5917" x2="649.924" y1="1801.0417" y2="1801.0415"/><polygon fill="#A80036" points="511.6438,1801.0417,524.1438,1809.375,536.6438,1801.0417,524.1438,1792.7083,511.6438,1801.0417" style="stroke: #A80036; stroke-width: 2.0833333333333335;"/><text fill="#000000" font-family="sans-serif" font-size="27.0833" lengthAdjust="spacingAndGlyphs" textLength="89.5833" x="549.4792" y="1787.4898">readers</text><text fill="#000000" font-family="sans-serif" font-size="27.0833" lengthAdjust="spacingAndGlyphs" textLength="14.5833" x="528.0278" y="1794.598">1</text><text fill="#000000" font-family="sans-serif" font-size="27.0833" lengthAdjust="spacingAndGlyphs" textLength="10.4167" x="650.2911" y="1794.075">*</text><path d="M620.7229,386.1104 C673.1208,484.4438 744.6563,618.6958 795.1,713.3646 " fill="none" style="stroke: #A80036; stroke-width: 2.0833333333333335;"/><polygon fill="none" points="808.2542,707.0375,814.9771,750.6688,782.5125,720.7542,808.2542,707.0375" style="stroke: #A80036; stroke-width: 2.0833333333333335;"/><text fill="#000000" font-family="sans-serif" font-size="27.0833" lengthAdjust="spacingAndGlyphs" textLength="95.8333" x="670.8333" y="482.2815">extends</text><path d="M1209.225,357.675 C1239.625,399.1479 1275.9375,447.3125 1310.4167,489.5833 C1365.9146,557.6229 1430.3542,630.5958 1485.4292,691.3042 " fill="none" style="stroke: #A80036; stroke-width: 2.0833333333333335;"/><polygon fill="none" points="1496.8042,682.1375,1514.1083,722.75,1475.2542,701.7917,1496.8042,682.1375" style="stroke: #A80036; stroke-width: 2.0833333333333335;"/><text fill="#000000" font-family="sans-serif" font-size="27.0833" lengthAdjust="spacingAndGlyphs" textLength="95.8333" x="1312.5" y="482.2815">extends</text><path d="M1567.7688,385.8063 C1525.4229,426.1167 1473.9667,466.1625 1418.75,489.5833 C1326.4375,528.7396 1285.3979,465.5625 1193.75,506.25 C1090.575,552.0563 999.6771,643.4375 938.2875,717.1667 " fill="none" style="stroke: #A80036; stroke-width: 2.0833333333333335;"/><polygon fill="none" points="948.875,727.2708,911.4083,750.6167,926.1396,709.0021,948.875,727.2708" style="stroke: #A80036; stroke-width: 2.0833333333333335;"/><text fill="#000000" font-family="sans-serif" font-size="27.0833" lengthAdjust="spacingAndGlyphs" textLength="95.8333" x="1485.4167" y="482.2815">extends</text><path d="M2271.5833,357.3396 C2266.875,524.0063 2231.0208,856.3938 2029.1667,1020.8333 C1910.45,1117.5479 1492.775,1056.4688 1343.75,1091.6667 C1233.2688,1117.7604 1114.7521,1160.8188 1017.3813,1200.4979 " fill="none" style="stroke: #A80036; stroke-width: 2.0833333333333335;"/><polygon fill="none" points="1022.4896,1214.1667,978.4146,1216.6542,1011.3188,1187.2229,1022.4896,1214.1667" style="stroke: #A80036; stroke-width: 2.0833333333333335;"/><text fill="#000000" font-family="sans-serif" font-size="27.0833" lengthAdjust="spacingAndGlyphs" textLength="95.8333" x="2260.4167" y="841.6565">extends</text><path d="M700.4396,930.9833 C644.1979,963.2875 579.1521,996.9646 516.6667,1020.8333 C383.6292,1071.65 293.0417,980.3917 204.1667,1091.6667 C72.4154,1256.6229 156.8221,1515.5917 227.9,1670.1729 " fill="none" style="stroke: #A80036; stroke-width: 2.0833333333333335;"/><polygon fill="none" points="693.6083,918.0833,736.9167,909.5271,708.3979,943.2229,693.6083,918.0833" style="stroke: #A80036; stroke-width: 2.0833333333333335;"/><text fill="#000000" font-family="sans-serif" font-size="27.0833" lengthAdjust="spacingAndGlyphs" textLength="95.8333" x="206.25" y="1307.2815">extends</text><path d="M1517.8083,1396.0208 C1356.5479,1489.2479 1116.7104,1627.9042 964.6146,1715.8354 " fill="none" style="stroke: #A80036; stroke-width: 2.0833333333333335;"/><polygon fill="none" points="1510.6104,1383.3354,1553.9833,1375.1063,1525.2104,1408.5854,1510.6104,1383.3354" style="stroke: #A80036; stroke-width: 2.0833333333333335;"/><text fill="#000000" font-family="sans-serif" font-size="27.0833" lengthAdjust="spacingAndGlyphs" textLength="95.8333" x="1281.25" y="1555.1982">extends</text></g></svg>