<?xml version="1.0" encoding="UTF-8" standalone="no"?><svg xmlns="http://www.w3.org/2000/svg" xmlns:xlink="http://www.w3.org/1999/xlink" contentScriptType="application/ecmascript" contentStyleType="text/css" height="856.25px" preserveAspectRatio="none" style="width:3004px;height:856px;" version="1.1" viewBox="0 0 3004 856" width="3004.1667px" zoomAndPan="magnify"><defs><filter height="300%" id="f1ipxpp772u9nn" width="300%" x="-1" y="-1"><feGaussianBlur result="blurOut" stdDeviation="4.166666666666667"/><feColorMatrix in="blurOut" result="blurOut2" type="matrix" values="0 0 0 0 0 0 0 0 0 0 0 0 0 0 0 0 0 0 .4 0"/><feOffset dx="8.333333333333334" dy="8.333333333333334" in="blurOut2" result="blurOut3"/><feBlend in="SourceGraphic" in2="blurOut3" mode="normal"/></filter></defs><g><!--cluster org.eclipse.keyple.seproxy--><polygon fill="#FFFFFF" filter="url(#f1ipxpp772u9nn)" points="1085.4167,535.4167,1491.6667,535.4167,1506.25,584.6029,2379.1667,584.6029,2379.1667,831.25,1085.4167,831.25,1085.4167,535.4167" style="stroke: #000000; stroke-width: 3.125;"/><line style="stroke: #000000; stroke-width: 3.125;" x1="1085.4167" x2="1506.25" y1="584.6029" y2="584.6029"/><text fill="#000000" font-family="sans-serif" font-size="29.1667" font-weight="bold" lengthAdjust="spacingAndGlyphs" textLength="393.75" x="1093.75" y="569.8608">org.eclipse.keyple.seproxy</text><!--cluster org.eclipse.keyple.commands--><polygon fill="#FFFFFF" filter="url(#f1ipxpp772u9nn)" points="45.8333,50,491.6667,50,506.25,99.1862,2958.3333,99.1862,2958.3333,431.25,45.8333,431.25,45.8333,50" style="stroke: #000000; stroke-width: 3.125;"/><line style="stroke: #000000; stroke-width: 3.125;" x1="45.8333" x2="506.25" y1="99.1862" y2="99.1862"/><text fill="#000000" font-family="sans-serif" font-size="29.1667" font-weight="bold" lengthAdjust="spacingAndGlyphs" textLength="433.3333" x="54.1667" y="84.4442">org.eclipse.keyple.commands</text><!--class ApduRequest--><rect fill="#FEFECE" filter="url(#f1ipxpp772u9nn)" height="186.4746" id="ApduRequest" style="stroke: #A80036; stroke-width: 3.125;" width="541.6667" x="1118.75" y="610.4167"/><ellipse cx="1263.0208" cy="643.75" fill="#ADD1B2" rx="22.9167" ry="22.9167" style="stroke: #A80036; stroke-width: 2.0833333333333335;"/><path d="M1268.7826,635.1563 Q1269.1081,634.7005 1269.4987,634.4727 Q1269.8893,634.2448 1270.3451,634.2448 Q1271.1263,634.2448 1271.6146,634.7819 Q1272.1029,635.319 1272.1029,636.5885 L1272.1029,639.6159 Q1272.1029,640.8854 1271.6146,641.4388 Q1271.1263,641.9922 1270.3451,641.9922 Q1269.6289,641.9922 1269.2057,641.569 Q1268.7826,641.1784 1268.5547,640.1042 Q1268.457,639.3555 1268.0664,638.9648 Q1267.3828,638.1836 1266.1133,637.7279 Q1264.8438,637.2721 1263.5417,637.2721 Q1261.9466,637.2721 1260.6283,637.9557 Q1259.3099,638.6393 1258.2845,640.2018 Q1257.2591,641.7643 1257.2591,643.9128 L1257.2591,646.1914 Q1257.2591,648.763 1259.1146,650.472 Q1260.9701,652.181 1264.2904,652.181 Q1266.2435,652.181 1267.6107,651.6602 Q1268.4245,651.3346 1269.3034,650.4232 Q1269.8568,649.8698 1270.166,649.707 Q1270.4753,649.5443 1270.8984,649.5443 Q1271.582,649.5443 1272.1191,650.0814 Q1272.6563,650.6185 1272.6563,651.3346 Q1272.6563,652.0508 1271.9401,652.8971 Q1270.8984,654.1016 1269.2383,654.7852 Q1266.9922,655.7292 1264.2904,655.7292 Q1261.1328,655.7292 1258.6263,654.4271 Q1256.5755,653.3854 1255.1432,651.1556 Q1253.7109,648.9258 1253.7109,646.2565 L1253.7109,643.8477 Q1253.7109,641.0807 1254.9967,638.6882 Q1256.2826,636.2956 1258.5612,635.0098 Q1260.8398,633.724 1263.4115,633.724 Q1264.9414,633.724 1266.2923,634.0658 Q1267.6432,634.4076 1268.7826,635.1563 Z "/><ellipse cx="1316.1458" cy="642.7083" fill="#84BE84" rx="6.25" ry="6.25" style="stroke: #038048; stroke-width: 2.0833333333333335;"/><text fill="#000000" font-family="sans-serif" font-size="25" font-weight="bold" lengthAdjust="spacingAndGlyphs" textLength="50" x="1328.6458" y="653.9795">final</text><text fill="#000000" font-family="sans-serif" font-size="25" lengthAdjust="spacingAndGlyphs" textLength="156.25" x="1384.8958" y="653.9795">ApduRequest</text><line style="stroke: #A80036; stroke-width: 3.125;" x1="1120.8333" x2="1658.3333" y1="677.0833" y2="677.0833"/><rect fill="none" height="12.5" style="stroke: #C82930; stroke-width: 2.0833333333333335;" width="12.5" x="1135.4167" y="696.7041"/><text fill="#000000" font-family="sans-serif" font-size="22.9167" lengthAdjust="spacingAndGlyphs" textLength="147.9167" x="1160.4167" y="709.2061">boolean case4</text><line style="stroke: #A80036; stroke-width: 3.125;" x1="1120.8333" x2="1658.3333" y1="722.5749" y2="722.5749"/><ellipse cx="1141.6667" cy="748.4456" fill="#84BE84" rx="6.25" ry="6.25" style="stroke: #038048; stroke-width: 2.0833333333333335;"/><text fill="#000000" font-family="sans-serif" font-size="22.9167" lengthAdjust="spacingAndGlyphs" textLength="487.5" x="1160.4167" y="754.6977">ApduRequest(ByteBuffer bytes, boolean case4)</text><ellipse cx="1141.6667" cy="777.2705" fill="#84BE84" rx="6.25" ry="6.25" style="stroke: #038048; stroke-width: 2.0833333333333335;"/><text fill="#000000" font-family="sans-serif" font-size="22.9167" lengthAdjust="spacingAndGlyphs" textLength="183.3333" x="1160.4167" y="783.5225">boolean isCase4()</text><!--class ApduResponse--><rect fill="#FEFECE" filter="url(#f1ipxpp772u9nn)" height="186.4746" id="ApduResponse" style="stroke: #A80036; stroke-width: 3.125;" width="610.4167" x="1734.375" y="610.4167"/><ellipse cx="1901.5625" cy="643.75" fill="#ADD1B2" rx="22.9167" ry="22.9167" style="stroke: #A80036; stroke-width: 2.0833333333333335;"/><path d="M1907.3242,635.1563 Q1907.6497,634.7005 1908.0404,634.4727 Q1908.431,634.2448 1908.8867,634.2448 Q1909.668,634.2448 1910.1563,634.7819 Q1910.6445,635.319 1910.6445,636.5885 L1910.6445,639.6159 Q1910.6445,640.8854 1910.1563,641.4388 Q1909.668,641.9922 1908.8867,641.9922 Q1908.1706,641.9922 1907.7474,641.569 Q1907.3242,641.1784 1907.0964,640.1042 Q1906.9987,639.3555 1906.6081,638.9648 Q1905.9245,638.1836 1904.6549,637.7279 Q1903.3854,637.2721 1902.0833,637.2721 Q1900.4883,637.2721 1899.1699,637.9557 Q1897.8516,638.6393 1896.8262,640.2018 Q1895.8008,641.7643 1895.8008,643.9128 L1895.8008,646.1914 Q1895.8008,648.763 1897.6563,650.472 Q1899.5117,652.181 1902.832,652.181 Q1904.7852,652.181 1906.1523,651.6602 Q1906.9661,651.3346 1907.8451,650.4232 Q1908.3984,649.8698 1908.7077,649.707 Q1909.0169,649.5443 1909.4401,649.5443 Q1910.1237,649.5443 1910.6608,650.0814 Q1911.1979,650.6185 1911.1979,651.3346 Q1911.1979,652.0508 1910.4818,652.8971 Q1909.4401,654.1016 1907.7799,654.7852 Q1905.5339,655.7292 1902.832,655.7292 Q1899.6745,655.7292 1897.168,654.4271 Q1895.1172,653.3854 1893.6849,651.1556 Q1892.2526,648.9258 1892.2526,646.2565 L1892.2526,643.8477 Q1892.2526,641.0807 1893.5384,638.6882 Q1894.8242,636.2956 1897.1029,635.0098 Q1899.3815,633.724 1901.9531,633.724 Q1903.4831,633.724 1904.834,634.0658 Q1906.1849,634.4076 1907.3242,635.1563 Z "/><ellipse cx="1954.6875" cy="642.7083" fill="#84BE84" rx="6.25" ry="6.25" style="stroke: #038048; stroke-width: 2.0833333333333335;"/><text fill="#000000" font-family="sans-serif" font-size="25" font-weight="bold" lengthAdjust="spacingAndGlyphs" textLength="50" x="1967.1875" y="653.9795">final</text><text fill="#000000" font-family="sans-serif" font-size="25" lengthAdjust="spacingAndGlyphs" textLength="179.1667" x="2023.4375" y="653.9795">ApduResponse</text><line style="stroke: #A80036; stroke-width: 3.125;" x1="1736.4583" x2="2342.7083" y1="677.0833" y2="677.0833"/><rect fill="none" height="12.5" style="stroke: #C82930; stroke-width: 2.0833333333333335;" width="12.5" x="1751.0417" y="696.7041"/><text fill="#000000" font-family="sans-serif" font-size="22.9167" lengthAdjust="spacingAndGlyphs" textLength="197.9167" x="1776.0417" y="709.2061">boolean successful</text><line style="stroke: #A80036; stroke-width: 3.125;" x1="1736.4583" x2="2342.7083" y1="722.5749" y2="722.5749"/><ellipse cx="1757.2917" cy="748.4456" fill="#84BE84" rx="6.25" ry="6.25" style="stroke: #038048; stroke-width: 2.0833333333333335;"/><text fill="#000000" font-family="sans-serif" font-size="22.9167" lengthAdjust="spacingAndGlyphs" textLength="556.25" x="1776.0417" y="754.6977">ApduResponse(ByteBuffer bytes, boolean successful)</text><ellipse cx="1757.2917" cy="777.2705" fill="#84BE84" rx="6.25" ry="6.25" style="stroke: #038048; stroke-width: 2.0833333333333335;"/><text fill="#000000" font-family="sans-serif" font-size="22.9167" lengthAdjust="spacingAndGlyphs" textLength="233.3333" x="1776.0417" y="783.5225">boolean isSuccessful()</text><!--class AbstractApduCommandBuilder--><rect fill="#FEFECE" filter="url(#f1ipxpp772u9nn)" height="272.9492" id="AbstractApduCommandBuilder" style="stroke: #A80036; stroke-width: 3.125;" width="885.4167" x="80.2083" y="125"/><ellipse cx="334.8958" cy="158.3333" fill="#A9DCDF" rx="22.9167" ry="22.9167" style="stroke: #A80036; stroke-width: 2.0833333333333335;"/><path d="M339.4531,162.0117 L330.8268,162.0117 L329.9479,164.1602 L330.8268,164.1602 Q332.0964,164.1602 332.6497,164.6484 Q333.2031,165.1367 333.2031,165.9505 Q333.2031,166.7318 332.6497,167.2201 Q332.0964,167.7083 330.8268,167.7083 L326.0417,167.7083 Q324.7721,167.7083 324.235,167.2201 Q323.6979,166.7318 323.6979,165.918 Q323.6979,165.1367 324.2676,164.6322 Q324.8372,164.1276 326.1393,164.1602 L331.7057,150.293 L329.3945,150.293 Q328.125,150.293 327.5716,149.8047 Q327.0182,149.3164 327.0182,148.5026 Q327.0182,147.7214 327.5716,147.2331 Q328.125,146.7448 329.3945,146.7448 L337.0443,146.7448 L344.1081,164.1602 Q345.3451,164.1602 345.7357,164.4531 Q346.5495,165.0065 346.5495,165.9505 Q346.5495,166.7318 346.0124,167.2201 Q345.4753,167.7083 344.2057,167.7083 L339.4206,167.7083 Q338.151,167.7083 337.5977,167.2201 Q337.0443,166.7318 337.0443,165.918 Q337.0443,165.1367 337.5977,164.6484 Q338.151,164.1602 339.4206,164.1602 L340.2995,164.1602 L339.4531,162.0117 Z M337.9557,158.4635 L335.1237,151.4323 L332.2591,158.4635 L337.9557,158.4635 Z "/><text fill="#000000" font-family="sans-serif" font-size="25" font-style="italic" lengthAdjust="spacingAndGlyphs" textLength="358.3333" x="377.6042" y="168.5628">AbstractApduCommandBuilder</text><line style="stroke: #A80036; stroke-width: 3.125;" x1="82.2917" x2="963.5417" y1="191.6667" y2="191.6667"/><rect fill="none" height="12.5" style="stroke: #C82930; stroke-width: 2.0833333333333335;" width="12.5" x="96.875" y="211.2874"/><text fill="#000000" font-family="sans-serif" font-size="22.9167" lengthAdjust="spacingAndGlyphs" textLength="372.9167" x="121.875" y="223.7895">CommandsTable commandReference</text><rect fill="none" height="12.5" style="stroke: #C82930; stroke-width: 2.0833333333333335;" width="12.5" x="96.875" y="240.1123"/><text fill="#000000" font-family="sans-serif" font-size="22.9167" lengthAdjust="spacingAndGlyphs" textLength="277.0833" x="121.875" y="252.6143">ApduRequest apduRequest</text><line style="stroke: #A80036; stroke-width: 3.125;" x1="82.2917" x2="963.5417" y1="265.9831" y2="265.9831"/><ellipse cx="103.125" cy="291.8538" fill="#84BE84" rx="6.25" ry="6.25" style="stroke: #038048; stroke-width: 2.0833333333333335;"/><text fill="#000000" font-family="sans-serif" font-size="22.9167" lengthAdjust="spacingAndGlyphs" textLength="829.1667" x="121.875" y="298.1059">AbstractApduCommandBuilder(CommandsTable reference, ApduRequest request)</text><ellipse cx="103.125" cy="320.6787" fill="#84BE84" rx="6.25" ry="6.25" style="stroke: #038048; stroke-width: 2.0833333333333335;"/><text fill="#000000" font-family="sans-serif" font-size="22.9167" lengthAdjust="spacingAndGlyphs" textLength="168.75" x="121.875" y="326.9307">String getName()</text><ellipse cx="103.125" cy="349.5036" fill="#84BE84" rx="6.25" ry="6.25" style="stroke: #038048; stroke-width: 2.0833333333333335;"/><text fill="#000000" font-family="sans-serif" font-size="22.9167" lengthAdjust="spacingAndGlyphs" textLength="329.1667" x="121.875" y="355.7556">ApduRequest getApduRequest()</text><ellipse cx="103.125" cy="378.3285" fill="#84BE84" rx="6.25" ry="6.25" style="stroke: #038048; stroke-width: 2.0833333333333335;"/><text fill="#000000" font-family="sans-serif" font-size="22.9167" lengthAdjust="spacingAndGlyphs" textLength="831.25" x="121.875" y="384.5805">Class&lt;? extends AbstractApduResponseParser&gt; getApduResponseParserClass()</text><!--class AbstractApduResponseParser--><rect fill="#FEFECE" filter="url(#f1ipxpp772u9nn)" height="272.9492" id="AbstractApduResponseParser" style="stroke: #A80036; stroke-width: 3.125;" width="722.9167" x="2201.0417" y="125"/><ellipse cx="2380.7292" cy="158.3333" fill="#A9DCDF" rx="22.9167" ry="22.9167" style="stroke: #A80036; stroke-width: 2.0833333333333335;"/><path d="M2385.2865,162.0117 L2376.6602,162.0117 L2375.7813,164.1602 L2376.6602,164.1602 Q2377.9297,164.1602 2378.4831,164.6484 Q2379.0365,165.1367 2379.0365,165.9505 Q2379.0365,166.7318 2378.4831,167.2201 Q2377.9297,167.7083 2376.6602,167.7083 L2371.875,167.7083 Q2370.6055,167.7083 2370.0684,167.2201 Q2369.5313,166.7318 2369.5313,165.918 Q2369.5313,165.1367 2370.1009,164.6322 Q2370.6706,164.1276 2371.9727,164.1602 L2377.5391,150.293 L2375.2279,150.293 Q2373.9583,150.293 2373.4049,149.8047 Q2372.8516,149.3164 2372.8516,148.5026 Q2372.8516,147.7214 2373.4049,147.2331 Q2373.9583,146.7448 2375.2279,146.7448 L2382.8776,146.7448 L2389.9414,164.1602 Q2391.1784,164.1602 2391.569,164.4531 Q2392.3828,165.0065 2392.3828,165.9505 Q2392.3828,166.7318 2391.8457,167.2201 Q2391.3086,167.7083 2390.0391,167.7083 L2385.2539,167.7083 Q2383.9844,167.7083 2383.431,167.2201 Q2382.8776,166.7318 2382.8776,165.918 Q2382.8776,165.1367 2383.431,164.6484 Q2383.9844,164.1602 2385.2539,164.1602 L2386.1328,164.1602 L2385.2865,162.0117 Z M2383.7891,158.4635 L2380.957,151.4323 L2378.0924,158.4635 L2383.7891,158.4635 Z "/><text fill="#000000" font-family="sans-serif" font-size="25" font-style="italic" lengthAdjust="spacingAndGlyphs" textLength="345.8333" x="2423.4375" y="168.5628">AbstractApduResponseParser</text><line style="stroke: #A80036; stroke-width: 3.125;" x1="2203.125" x2="2921.875" y1="191.6667" y2="191.6667"/><rect fill="none" height="12.5" style="stroke: #C82930; stroke-width: 2.0833333333333335;" width="12.5" x="2217.7083" y="211.2874"/><text fill="#000000" font-family="sans-serif" font-size="22.9167" lengthAdjust="spacingAndGlyphs" textLength="314.5833" x="2242.7083" y="223.7895">ApduResponse apduResponse</text><line style="stroke: #A80036; stroke-width: 3.125;" x1="2203.125" x2="2921.875" y1="237.1582" y2="237.1582"/><ellipse cx="2223.9583" cy="263.029" fill="#84BE84" rx="6.25" ry="6.25" style="stroke: #038048; stroke-width: 2.0833333333333335;"/><text fill="#000000" font-family="sans-serif" font-size="22.9167" lengthAdjust="spacingAndGlyphs" textLength="668.75" x="2242.7083" y="269.281">AbstractApduResponseParser(ApduResponse responseToParse)</text><ellipse cx="2223.9583" cy="291.8538" fill="#84BE84" rx="6.25" ry="6.25" style="stroke: #038048; stroke-width: 2.0833333333333335;"/><text fill="#000000" font-family="sans-serif" font-size="22.9167" lengthAdjust="spacingAndGlyphs" textLength="366.6667" x="2242.7083" y="298.1059">ApduResponse getApduResponse()</text><ellipse cx="2223.9583" cy="320.6787" fill="#84BE84" rx="6.25" ry="6.25" style="stroke: #038048; stroke-width: 2.0833333333333335;"/><text fill="#000000" font-family="sans-serif" font-size="22.9167" lengthAdjust="spacingAndGlyphs" textLength="222.9167" x="2242.7083" y="326.9307">short getStatusCode()</text><ellipse cx="2223.9583" cy="349.5036" fill="#84BE84" rx="6.25" ry="6.25" style="stroke: #038048; stroke-width: 2.0833333333333335;"/><text fill="#000000" font-family="sans-serif" font-size="22.9167" lengthAdjust="spacingAndGlyphs" textLength="233.3333" x="2242.7083" y="355.7556">boolean isSuccessful()</text><ellipse cx="2223.9583" cy="378.3285" fill="#84BE84" rx="6.25" ry="6.25" style="stroke: #038048; stroke-width: 2.0833333333333335;"/><text fill="#000000" font-family="sans-serif" font-size="22.9167" lengthAdjust="spacingAndGlyphs" textLength="287.5" x="2242.7083" y="384.5805">String getStatusInformation()</text><!--class CommandsTable--><rect fill="#FEFECE" filter="url(#f1ipxpp772u9nn)" height="215.2995" id="CommandsTable" style="stroke: #A80036; stroke-width: 3.125;" width="831.25" x="1167.7083" y="154.1667"/><ellipse cx="1473.4375" cy="187.5" fill="#B4A7E5" rx="22.9167" ry="22.9167" style="stroke: #A80036; stroke-width: 2.0833333333333335;"/><path d="M1475.4232,180.5013 L1475.4232,194.3685 L1479.0039,194.3685 Q1480.2734,194.3685 1480.8268,194.8568 Q1481.3802,195.3451 1481.3802,196.1589 Q1481.3802,196.9401 1480.8268,197.4284 Q1480.2734,197.9167 1479.0039,197.9167 L1468.2943,197.9167 Q1467.0247,197.9167 1466.4714,197.4284 Q1465.918,196.9401 1465.918,196.1263 Q1465.918,195.3451 1466.4714,194.8568 Q1467.0247,194.3685 1468.2943,194.3685 L1471.875,194.3685 L1471.875,180.5013 L1468.2943,180.5013 Q1467.0247,180.5013 1466.4714,180.013 Q1465.918,179.5247 1465.918,178.7109 Q1465.918,177.9297 1466.4714,177.4414 Q1467.0247,176.9531 1468.2943,176.9531 L1479.0039,176.9531 Q1480.2734,176.9531 1480.8268,177.4414 Q1481.3802,177.9297 1481.3802,178.7109 Q1481.3802,179.5247 1480.8268,180.013 Q1480.2734,180.5013 1479.0039,180.5013 L1475.4232,180.5013 Z "/><text fill="#000000" font-family="sans-serif" font-size="25" font-style="italic" lengthAdjust="spacingAndGlyphs" textLength="202.0833" x="1516.1458" y="197.7295">CommandsTable</text><line style="stroke: #A80036; stroke-width: 3.125;" x1="1169.7917" x2="1996.875" y1="220.8333" y2="220.8333"/><line style="stroke: #A80036; stroke-width: 3.125;" x1="1169.7917" x2="1996.875" y1="237.5" y2="237.5"/><ellipse cx="1190.625" cy="263.3708" fill="#84BE84" rx="6.25" ry="6.25" style="stroke: #038048; stroke-width: 2.0833333333333335;"/><text fill="#000000" font-family="sans-serif" font-size="22.9167" lengthAdjust="spacingAndGlyphs" textLength="168.75" x="1209.375" y="269.6228">String getName()</text><ellipse cx="1190.625" cy="292.1956" fill="#84BE84" rx="6.25" ry="6.25" style="stroke: #038048; stroke-width: 2.0833333333333335;"/><text fill="#000000" font-family="sans-serif" font-size="22.9167" lengthAdjust="spacingAndGlyphs" textLength="247.9167" x="1209.375" y="298.4477">byte getInstructionByte()</text><ellipse cx="1190.625" cy="321.0205" fill="#84BE84" rx="6.25" ry="6.25" style="stroke: #038048; stroke-width: 2.0833333333333335;"/><text fill="#000000" font-family="sans-serif" font-size="22.9167" lengthAdjust="spacingAndGlyphs" textLength="772.9167" x="1209.375" y="327.2725">Class&lt;? extends AbstractApduCommandBuilder&gt; getCommandBuilderClass()</text><ellipse cx="1190.625" cy="349.8454" fill="#84BE84" rx="6.25" ry="6.25" style="stroke: #038048; stroke-width: 2.0833333333333335;"/><text fill="#000000" font-family="sans-serif" font-size="22.9167" lengthAdjust="spacingAndGlyphs" textLength="777.0833" x="1209.375" y="356.0974">Class&lt;? extends AbstractApduResponseParser&gt; getResponseParserClass()</text><!--link ApduRequest to ApduResponse--><!--link AbstractApduCommandBuilder to CommandsTable--><path d="M993.1833,261.4583 C1041.8813,261.4583 1091.2625,261.4583 1139.6542,261.4583 " fill="none" id="AbstractApduCommandBuilder-CommandsTable" style="stroke: #A80036; stroke-width: 2.0833333333333335;"/><polygon fill="#A80036" points="1167.2208,261.4583,1154.7208,253.125,1142.2208,261.4583,1154.7208,269.7917,1167.2208,261.4583" style="stroke: #A80036; stroke-width: 2.0833333333333335;"/><polygon fill="#A80036" points="965.7167,261.4583,984.4667,269.7917,976.1333,261.4583,984.4667,253.125,965.7167,261.4583" style="stroke: #A80036; stroke-width: 2.0833333333333335;"/><line style="stroke: #A80036; stroke-width: 2.0833333333333335;" x1="976.1333" x2="992.8" y1="261.4583" y2="261.4583"/><text fill="#000000" font-family="sans-serif" font-size="27.0833" lengthAdjust="spacingAndGlyphs" textLength="125" x="1004.1667" y="247.9065">references</text><text fill="#000000" font-family="sans-serif" font-size="27.0833" lengthAdjust="spacingAndGlyphs" textLength="10.4167" x="981.817" y="255.6534">*</text><text fill="#000000" font-family="sans-serif" font-size="27.0833" lengthAdjust="spacingAndGlyphs" textLength="14.5833" x="1136.0983" y="255.5891">1</text><!--link CommandsTable to AbstractApduResponseParser--><path d="M2026.8438,261.4583 C2075.6729,261.4583 2125.125,261.4583 2173.2083,261.4583 " fill="none" id="CommandsTable-AbstractApduResponseParser" style="stroke: #A80036; stroke-width: 2.0833333333333335;"/><polygon fill="#A80036" points="2200.5625,261.4583,2181.8125,253.125,2190.1458,261.4583,2181.8125,269.7917,2200.5625,261.4583" style="stroke: #A80036; stroke-width: 2.0833333333333335;"/><line style="stroke: #A80036; stroke-width: 2.0833333333333335;" x1="2190.1458" x2="2173.4792" y1="261.4583" y2="261.4583"/><polygon fill="#A80036" points="1999.2979,261.4583,2011.7979,269.7917,2024.2979,261.4583,2011.7979,253.125,1999.2979,261.4583" style="stroke: #A80036; stroke-width: 2.0833333333333335;"/><text fill="#000000" font-family="sans-serif" font-size="27.0833" lengthAdjust="spacingAndGlyphs" textLength="125" x="2037.5" y="247.9065">references</text><text fill="#000000" font-family="sans-serif" font-size="27.0833" lengthAdjust="spacingAndGlyphs" textLength="14.5833" x="2015.8314" y="255.5891">1</text><text fill="#000000" font-family="sans-serif" font-size="27.0833" lengthAdjust="spacingAndGlyphs" textLength="10.4167" x="2173.5095" y="255.5005">*</text><!--link AbstractApduCommandBuilder to ApduRequest--><path d="M813.7792,410.7208 C934.9521,472.0354 1072.8479,541.8125 1183.3104,597.7063 " fill="none" id="AbstractApduCommandBuilder-ApduRequest" style="stroke: #A80036; stroke-width: 2.0833333333333335;"/><polygon fill="#A80036" points="1207.8833,610.1417,1194.916,594.2402,1198.5889,605.4384,1187.3908,609.1113,1207.8833,610.1417" style="stroke: #A80036; stroke-width: 2.0833333333333335;"/><line style="stroke: #A80036; stroke-width: 2.0833333333333335;" x1="1198.5889" x2="1183.7177" y1="605.4384" y2="597.9125"/><polygon fill="#FFFFFF" points="788.8354,398.0979,796.2261,411.1774,811.142,409.3858,803.7513,396.3063,788.8354,398.0979" style="stroke: #A80036; stroke-width: 2.0833333333333335;"/><text fill="#000000" font-family="sans-serif" font-size="27.0833" lengthAdjust="spacingAndGlyphs" textLength="158.3333" x="983.3333" y="494.7815">apduRequest</text><text fill="#000000" font-family="sans-serif" font-size="27.0833" lengthAdjust="spacingAndGlyphs" textLength="31.25" x="784.9613" y="443.0189">+1</text><text fill="#000000" font-family="sans-serif" font-size="27.0833" lengthAdjust="spacingAndGlyphs" textLength="14.5833" x="1164.3607" y="588.1081">1</text><!--link AbstractApduResponseParser to ApduResponse--><path d="M2380.6042,416.0896 C2311.3333,474.1854 2233.8125,539.1896 2170.2083,592.5271 " fill="none" id="AbstractApduResponseParser-ApduResponse" style="stroke: #A80036; stroke-width: 2.0833333333333335;"/><polygon fill="#A80036" points="2149.2083,610.1417,2168.9283,604.4734,2157.1881,603.4461,2158.2154,591.7058,2149.2083,610.1417" style="stroke: #A80036; stroke-width: 2.0833333333333335;"/><line style="stroke: #A80036; stroke-width: 2.0833333333333335;" x1="2157.1881" x2="2169.9688" y1="603.4461" y2="592.7375"/><polygon fill="#FFFFFF" points="2402.0625,398.0979,2387.1304,399.7488,2382.9111,414.1673,2397.8433,412.5164,2402.0625,398.0979" style="stroke: #A80036; stroke-width: 2.0833333333333335;"/><text fill="#000000" font-family="sans-serif" font-size="27.0833" lengthAdjust="spacingAndGlyphs" textLength="179.1667" x="2318.75" y="494.7815">apduResponse</text><text fill="#000000" font-family="sans-serif" font-size="27.0833" lengthAdjust="spacingAndGlyphs" textLength="31.25" x="2351.5557" y="443.0189">+1</text><text fill="#000000" font-family="sans-serif" font-size="27.0833" lengthAdjust="spacingAndGlyphs" textLength="14.5833" x="2150.2948" y="588.1081">1</text><!--
@startuml
skinparam dpi 200

package org.eclipse.keyple.seproxy #FFFFFF {
+class "<b>final</b> ApduRequest" as ApduRequest {
  -boolean case4
  +ApduRequest(ByteBuffer bytes, boolean case4)
  +boolean isCase4()
}

+class "<b>final</b> ApduResponse" as ApduResponse {
  -boolean successful
  +ApduResponse(ByteBuffer bytes, boolean successful)
  +boolean isSuccessful()
}

ApduRequest -right[hidden]- ApduResponse
}
package org.eclipse.keyple.commands #FFFFFF {

abstract AbstractApduCommandBuilder {
  -CommandsTable commandReference
  -ApduRequest apduRequest
  +AbstractApduCommandBuilder(CommandsTable reference, ApduRequest request)
  +String getName()
  +ApduRequest getApduRequest()
  +Class<? extends AbstractApduResponseParser> getApduResponseParserClass()
}

abstract AbstractApduResponseParser {
  -ApduResponse apduResponse
  +AbstractApduResponseParser(ApduResponse responseToParse)
  +ApduResponse getApduResponse()
  +short getStatusCode()
  +boolean isSuccessful()
  +String getStatusInformation()
}

interface CommandsTable {
  +String getName()
  +byte getInstructionByte()
  +Class<? extends AbstractApduCommandBuilder> getCommandBuilderClass()
  +Class<? extends AbstractApduResponseParser> getResponseParserClass()
}

CommandsTable "1" *-left-> "*" AbstractApduCommandBuilder : references
CommandsTable "1" *-right-> "*" AbstractApduResponseParser : references
}

AbstractApduCommandBuilder "+1" o-down-> "1" ApduRequest : apduRequest
AbstractApduResponseParser "+1" o-down-> "1" ApduResponse : apduResponse
@enduml

PlantUML version 1.2018.08(Sun Jun 24 16:31:00 MUT 2018)
(GPL source distribution)
Java Runtime: Java(TM) SE Runtime Environment
JVM: Java HotSpot(TM) 64-Bit Server VM
Java Version: 1.8.0_162-b12
Operating System: Windows 10
OS Version: 10.0
Default Encoding: UTF-8
Language: en
Country: US
--></g></svg>