<?xml version="1.0" encoding="UTF-8" standalone="no"?><svg xmlns="http://www.w3.org/2000/svg" xmlns:xlink="http://www.w3.org/1999/xlink" contentScriptType="application/ecmascript" contentStyleType="text/css" height="2404.1667px" preserveAspectRatio="none" style="width:2702px;height:2404px;" version="1.1" viewBox="0 0 2702 2404" width="2702.0833px" zoomAndPan="magnify"><defs><filter height="300%" id="fr8y1p2" width="300%" x="-1" y="-1"><feGaussianBlur result="blurOut" stdDeviation="4.166666666666667"/><feColorMatrix in="blurOut" result="blurOut2" type="matrix" values="0 0 0 0 0 0 0 0 0 0 0 0 0 0 0 0 0 0 .4 0"/><feOffset dx="8.333333333333334" dy="8.333333333333334" in="blurOut2" result="blurOut3"/><feBlend in="SourceGraphic" in2="blurOut3" mode="normal"/></filter></defs><g><!--cluster org.eclipse.keyple.seproxy--><polygon fill="#FFFFFF" filter="url(#fr8y1p2)" points="45.8333,391.6667,452.0833,391.6667,466.6667,440.8529,2687.5,440.8529,2687.5,2389.5833,45.8333,2389.5833,45.8333,391.6667" style="stroke: #000000; stroke-width: 4.166666666666667;"/><line style="stroke: #000000; stroke-width: 4.166666666666667;" x1="45.8333" x2="466.6667" y1="440.8529" y2="440.8529"/><text fill="#000000" font-family="sans-serif" font-size="29.1667" font-weight="bold" lengthAdjust="spacingAndGlyphs" textLength="393.75" x="54.1667" y="426.1108">org.eclipse.keyple.seproxy</text><!--cluster event--><polygon fill="#FFFFFF" filter="url(#fr8y1p2)" points="275,883.3333,372.9167,883.3333,387.5,932.5195,2637.5,932.5195,2637.5,2035.4167,275,2035.4167,275,883.3333" style="stroke: #000000; stroke-width: 4.166666666666667;"/><line style="stroke: #000000; stroke-width: 4.166666666666667;" x1="275" x2="387.5" y1="932.5195" y2="932.5195"/><text fill="#000000" font-family="sans-serif" font-size="29.1667" font-weight="bold" lengthAdjust="spacingAndGlyphs" textLength="85.4167" x="283.3333" y="917.7775">event</text><!--cluster ##968--><!--cluster external.terminalapplication--><polygon fill="#3399FF" filter="url(#fr8y1p2)" points="622.9167,50,1043.75,50,1058.3333,99.1862,2533.3333,99.1862,2533.3333,287.5,622.9167,287.5,622.9167,50" style="stroke: #000000; stroke-width: 4.166666666666667;"/><line style="stroke: #000000; stroke-width: 4.166666666666667;" x1="622.9167" x2="1058.3333" y1="99.1862" y2="99.1862"/><text fill="#000000" font-family="sans-serif" font-size="29.1667" font-weight="bold" lengthAdjust="spacingAndGlyphs" textLength="408.3333" x="631.25" y="84.4442">external.terminalapplication</text><!--class SeProxyService--><rect fill="#FEFECE" filter="url(#fr8y1p2)" height="318.8314" style="stroke: #A80036; stroke-width: 3.125;" width="470.8333" x="550" y="466.6667"/><ellipse cx="649.4792" cy="508.5286" fill="#ADD1B2" rx="22.9167" ry="22.9167" style="stroke: #A80036; stroke-width: 2.0833333333333335;"/><path d="M655.2409,499.9349 Q655.5664,499.4792 655.957,499.2513 Q656.3477,499.0234 656.8034,499.0234 Q657.5846,499.0234 658.0729,499.5605 Q658.5612,500.0977 658.5612,501.3672 L658.5612,504.3945 Q658.5612,505.6641 658.0729,506.2174 Q657.5846,506.7708 656.8034,506.7708 Q656.0872,506.7708 655.6641,506.3477 Q655.2409,505.957 655.013,504.8828 Q654.9154,504.1341 654.5247,503.7435 Q653.8411,502.9622 652.5716,502.5065 Q651.3021,502.0508 650,502.0508 Q648.4049,502.0508 647.0866,502.7344 Q645.7682,503.418 644.7428,504.9805 Q643.7174,506.543 643.7174,508.6914 L643.7174,510.9701 Q643.7174,513.5417 645.5729,515.2507 Q647.4284,516.9596 650.7487,516.9596 Q652.7018,516.9596 654.069,516.4388 Q654.8828,516.1133 655.7617,515.2018 Q656.3151,514.6484 656.6243,514.4857 Q656.9336,514.3229 657.3568,514.3229 Q658.0404,514.3229 658.5775,514.86 Q659.1146,515.3971 659.1146,516.1133 Q659.1146,516.8294 658.3984,517.6758 Q657.3568,518.8802 655.6966,519.5638 Q653.4505,520.5078 650.7487,520.5078 Q647.5911,520.5078 645.0846,519.2057 Q643.0339,518.1641 641.6016,515.9342 Q640.1693,513.7044 640.1693,511.0352 L640.1693,508.6263 Q640.1693,505.8594 641.4551,503.4668 Q642.7409,501.0742 645.0195,499.7884 Q647.2982,498.5026 649.8698,498.5026 Q651.3997,498.5026 652.7507,498.8444 Q654.1016,499.1862 655.2409,499.9349 Z "/><text fill="#000000" font-family="sans-serif" font-size="25" font-style="italic" lengthAdjust="spacingAndGlyphs" textLength="137.5" x="750.5208" y="503.0355">«Singleton»</text><ellipse cx="702.6042" cy="523.2096" fill="#84BE84" rx="6.25" ry="6.25" style="stroke: #038048; stroke-width: 2.0833333333333335;"/><text fill="#000000" font-family="sans-serif" font-size="25" font-weight="bold" lengthAdjust="spacingAndGlyphs" textLength="50" x="715.1042" y="534.4808">final</text><text fill="#000000" font-family="sans-serif" font-size="25" lengthAdjust="spacingAndGlyphs" textLength="175" x="771.3542" y="534.4808">SeProxyService</text><line style="stroke: #A80036; stroke-width: 3.125;" x1="552.0833" x2="1018.75" y1="550.3906" y2="550.3906"/><rect fill="none" height="12.5" style="stroke: #C82930; stroke-width: 2.0833333333333335;" width="12.5" x="566.6667" y="570.0114"/><text fill="#000000" font-family="sans-serif" font-size="22.9167" lengthAdjust="spacingAndGlyphs" textLength="104.1667" x="591.6667" y="582.5134">int version</text><line style="stroke: #A80036; stroke-width: 3.125;" x1="552.0833" x2="1018.75" y1="595.8822" y2="595.8822"/><text fill="#000000" font-family="sans-serif" font-size="22.9167" lengthAdjust="spacingAndGlyphs" textLength="297.9167" x="591.6667" y="628.005">List&lt;ReadersPlugin&gt; plugins()</text><rect fill="#F24D5C" height="12.5" style="stroke: #C82930; stroke-width: 2.0833333333333335;" width="12.5" x="566.6667" y="644.3278"/><text fill="#000000" font-family="sans-serif" font-size="22.9167" lengthAdjust="spacingAndGlyphs" textLength="179.1667" x="591.6667" y="656.8298">SeProxyService()</text><ellipse cx="572.9167" cy="679.4027" fill="#84BE84" rx="6.25" ry="6.25" style="stroke: #038048; stroke-width: 2.0833333333333335;"/><text fill="#000000" font-family="sans-serif" font-size="22.9167" lengthAdjust="spacingAndGlyphs" text-decoration="underline" textLength="302.0833" x="591.6667" y="685.6547">SeProxyService getInstance()</text><line style="stroke: #000000; stroke-width: 1.0;" x1="591.6667" x2="893.75" y1="689.8214" y2="689.8214"/><ellipse cx="572.9167" cy="708.2275" fill="#84BE84" rx="6.25" ry="6.25" style="stroke: #038048; stroke-width: 2.0833333333333335;"/><text fill="#000000" font-family="sans-serif" font-size="22.9167" lengthAdjust="spacingAndGlyphs" textLength="416.6667" x="591.6667" y="714.4796">setPlugins(List&lt;ReadersPlugin&gt; plugins())</text><ellipse cx="572.9167" cy="737.0524" fill="#84BE84" rx="6.25" ry="6.25" style="stroke: #038048; stroke-width: 2.0833333333333335;"/><text fill="#000000" font-family="sans-serif" font-size="22.9167" lengthAdjust="spacingAndGlyphs" textLength="393.75" x="591.6667" y="743.3044">SortedSet&lt;ReadersPlugin&gt; getPlugins()</text><ellipse cx="572.9167" cy="765.8773" fill="#84BE84" rx="6.25" ry="6.25" style="stroke: #038048; stroke-width: 2.0833333333333335;"/><text fill="#000000" font-family="sans-serif" font-size="22.9167" lengthAdjust="spacingAndGlyphs" textLength="156.25" x="591.6667" y="772.1293">int getVersion()</text><!--class ReadersPlugin--><rect fill="#FEFECE" filter="url(#fr8y1p2)" height="128.8249" style="stroke: #A80036; stroke-width: 3.125;" width="556.25" x="1069.7917" y="2197.9167"/><ellipse cx="1242.1875" cy="2231.25" fill="#B4A7E5" rx="22.9167" ry="22.9167" style="stroke: #A80036; stroke-width: 2.0833333333333335;"/><path d="M1244.1732,2224.2513 L1244.1732,2238.1185 L1247.7539,2238.1185 Q1249.0234,2238.1185 1249.5768,2238.6068 Q1250.1302,2239.0951 1250.1302,2239.9089 Q1250.1302,2240.6901 1249.5768,2241.1784 Q1249.0234,2241.6667 1247.7539,2241.6667 L1237.0443,2241.6667 Q1235.7747,2241.6667 1235.2214,2241.1784 Q1234.668,2240.6901 1234.668,2239.8763 Q1234.668,2239.0951 1235.2214,2238.6068 Q1235.7747,2238.1185 1237.0443,2238.1185 L1240.625,2238.1185 L1240.625,2224.2513 L1237.0443,2224.2513 Q1235.7747,2224.2513 1235.2214,2223.763 Q1234.668,2223.2747 1234.668,2222.4609 Q1234.668,2221.6797 1235.2214,2221.1914 Q1235.7747,2220.7031 1237.0443,2220.7031 L1247.7539,2220.7031 Q1249.0234,2220.7031 1249.5768,2221.1914 Q1250.1302,2221.6797 1250.1302,2222.4609 Q1250.1302,2223.2747 1249.5768,2223.763 Q1249.0234,2224.2513 1247.7539,2224.2513 L1244.1732,2224.2513 Z "/><ellipse cx="1295.3125" cy="2230.2083" fill="#84BE84" rx="6.25" ry="6.25" style="stroke: #038048; stroke-width: 2.0833333333333335;"/><text fill="#000000" font-family="sans-serif" font-size="25" font-style="italic" lengthAdjust="spacingAndGlyphs" textLength="170.8333" x="1307.8125" y="2241.4795">ReadersPlugin</text><line style="stroke: #A80036; stroke-width: 3.125;" x1="1071.875" x2="1623.9583" y1="2264.5833" y2="2264.5833"/><line style="stroke: #A80036; stroke-width: 3.125;" x1="1071.875" x2="1623.9583" y1="2281.25" y2="2281.25"/><ellipse cx="1092.7083" cy="2307.1208" fill="#84BE84" rx="6.25" ry="6.25" style="stroke: #038048; stroke-width: 2.0833333333333335;"/><text fill="#000000" font-family="sans-serif" font-size="22.9167" lengthAdjust="spacingAndGlyphs" textLength="502.0833" x="1111.4583" y="2313.3728">SortedSet&lt;? extends ProxyReader&gt; getReaders()</text><!--class ProxyReader--><rect fill="#FEFECE" filter="url(#fr8y1p2)" height="186.4746" style="stroke: #A80036; stroke-width: 3.125;" width="741.6667" x="1791.6667" y="2168.75"/><ellipse cx="2067.1875" cy="2202.0833" fill="#B4A7E5" rx="22.9167" ry="22.9167" style="stroke: #A80036; stroke-width: 2.0833333333333335;"/><path d="M2069.1732,2195.0846 L2069.1732,2208.9518 L2072.7539,2208.9518 Q2074.0234,2208.9518 2074.5768,2209.4401 Q2075.1302,2209.9284 2075.1302,2210.7422 Q2075.1302,2211.5234 2074.5768,2212.0117 Q2074.0234,2212.5 2072.7539,2212.5 L2062.0443,2212.5 Q2060.7747,2212.5 2060.2214,2212.0117 Q2059.668,2211.5234 2059.668,2210.7096 Q2059.668,2209.9284 2060.2214,2209.4401 Q2060.7747,2208.9518 2062.0443,2208.9518 L2065.625,2208.9518 L2065.625,2195.0846 L2062.0443,2195.0846 Q2060.7747,2195.0846 2060.2214,2194.5964 Q2059.668,2194.1081 2059.668,2193.2943 Q2059.668,2192.513 2060.2214,2192.0247 Q2060.7747,2191.5365 2062.0443,2191.5365 L2072.7539,2191.5365 Q2074.0234,2191.5365 2074.5768,2192.0247 Q2075.1302,2192.513 2075.1302,2193.2943 Q2075.1302,2194.1081 2074.5768,2194.5964 Q2074.0234,2195.0846 2072.7539,2195.0846 L2069.1732,2195.0846 Z "/><ellipse cx="2120.3125" cy="2201.0417" fill="#84BE84" rx="6.25" ry="6.25" style="stroke: #038048; stroke-width: 2.0833333333333335;"/><text fill="#000000" font-family="sans-serif" font-size="25" font-style="italic" lengthAdjust="spacingAndGlyphs" textLength="150" x="2132.8125" y="2212.3128">ProxyReader</text><line style="stroke: #A80036; stroke-width: 3.125;" x1="1793.75" x2="2531.25" y1="2235.4167" y2="2235.4167"/><line style="stroke: #A80036; stroke-width: 3.125;" x1="1793.75" x2="2531.25" y1="2252.0833" y2="2252.0833"/><ellipse cx="1814.5833" cy="2277.9541" fill="#84BE84" rx="6.25" ry="6.25" style="stroke: #038048; stroke-width: 2.0833333333333335;"/><text fill="#000000" font-family="sans-serif" font-size="22.9167" lengthAdjust="spacingAndGlyphs" textLength="222.9167" x="1833.3333" y="2284.2061">boolean isSePresent()</text><ellipse cx="1814.5833" cy="2306.779" fill="#84BE84" rx="6.25" ry="6.25" style="stroke: #038048; stroke-width: 2.0833333333333335;"/><text fill="#000000" font-family="sans-serif" font-size="22.9167" lengthAdjust="spacingAndGlyphs" textLength="608.3333" x="1833.3333" y="2313.031">setSeProtocols(Map&lt;SeProtocol, String&gt; seProtocolSettings)</text><ellipse cx="1814.5833" cy="2335.6038" fill="#84BE84" rx="6.25" ry="6.25" style="stroke: #038048; stroke-width: 2.0833333333333335;"/><text fill="#000000" font-family="sans-serif" font-size="22.9167" lengthAdjust="spacingAndGlyphs" textLength="256.25" x="1833.3333" y="2341.8559">SeResponseSet transmit(</text><text fill="#000000" font-family="sans-serif" font-size="22.9167" font-weight="bold" lengthAdjust="spacingAndGlyphs" textLength="47.9167" x="2089.5833" y="2341.8559">final</text><text fill="#000000" font-family="sans-serif" font-size="22.9167" lengthAdjust="spacingAndGlyphs" textLength="377.0833" x="2143.75" y="2341.8559">SeRequestSet seApplicationRequest)</text><polygon fill="#FBFB77" filter="url(#fr8y1p2)" points="325,2217.7083,325,2306.6732,925,2306.6732,925,2238.5417,904.1667,2217.7083,325,2217.7083" style="stroke: #A80036; stroke-width: 2.0833333333333335;"/><line style="stroke: #A80036; stroke-width: 2.0833333333333335;" x1="904.1667" x2="904.1667" y1="2217.7083" y2="2238.5417"/><line style="stroke: #A80036; stroke-width: 2.0833333333333335;" x1="925" x2="904.1667" y1="2238.5417" y2="2238.5417"/><text fill="#000000" font-family="sans-serif" font-size="27.0833" lengthAdjust="spacingAndGlyphs" textLength="556.25" x="337.5" y="2256.2398">ReadersPlugin &amp; ProxyReader interfaces shall</text><text fill="#000000" font-family="sans-serif" font-size="27.0833" lengthAdjust="spacingAndGlyphs" textLength="504.1667" x="337.5" y="2290.3056">be implemented by every readers' plugins.</text><!--class ReaderEvent--><rect fill="#FEFECE" filter="url(#fr8y1p2)" height="186.4746" style="stroke: #A80036; stroke-width: 3.125;" width="237.5" x="2314.5833" y="1358.3333"/><ellipse cx="2345.8333" cy="1391.6667" fill="#EB937F" rx="22.9167" ry="22.9167" style="stroke: #A80036; stroke-width: 2.0833333333333335;"/><path d="M2343.457,1393.3268 L2343.457,1398.5352 L2352.474,1398.5352 L2352.474,1396.6146 Q2352.474,1395.3451 2352.9785,1394.7917 Q2353.4831,1394.2383 2354.2643,1394.2383 Q2355.0456,1394.2383 2355.5339,1394.7917 Q2356.0221,1395.3451 2356.0221,1396.6146 L2356.0221,1402.0833 L2339.3555,1402.0833 Q2338.0534,1402.0833 2337.5163,1401.5951 Q2336.9792,1401.1068 2336.9792,1400.293 Q2336.9792,1399.5117 2337.5326,1399.0234 Q2338.0859,1398.5352 2339.3555,1398.5352 L2339.9089,1398.5352 L2339.9089,1384.668 L2339.3555,1384.668 Q2338.0534,1384.668 2337.5163,1384.1797 Q2336.9792,1383.6914 2336.9792,1382.8776 Q2336.9792,1382.0964 2337.5163,1381.6081 Q2338.0534,1381.1198 2339.3555,1381.1198 L2355.2409,1381.1198 L2355.2409,1386.5234 Q2355.2409,1387.793 2354.7689,1388.3301 Q2354.2969,1388.8672 2353.4831,1388.8672 Q2352.7018,1388.8672 2352.2135,1388.3301 Q2351.7253,1387.793 2351.7253,1386.5234 L2351.7253,1384.668 L2343.457,1384.668 L2343.457,1389.7786 L2346.5495,1389.7786 Q2346.5495,1388.4115 2346.8099,1388.0208 Q2347.3633,1387.1745 2348.3398,1387.1745 Q2349.1211,1387.1745 2349.6094,1387.7116 Q2350.0977,1388.2487 2350.0977,1389.5182 L2350.0977,1393.6198 Q2350.0977,1394.7591 2349.8372,1395.1497 Q2349.2839,1395.9635 2348.3398,1395.9635 Q2347.3633,1395.9635 2346.8099,1395.1172 Q2346.5495,1394.7266 2346.5495,1393.3268 L2343.457,1393.3268 Z "/><ellipse cx="2385.4167" cy="1390.625" fill="#84BE84" rx="6.25" ry="6.25" style="stroke: #038048; stroke-width: 2.0833333333333335;"/><text fill="#000000" font-family="sans-serif" font-size="25" lengthAdjust="spacingAndGlyphs" textLength="147.9167" x="2397.9167" y="1401.8962">ReaderEvent</text><line style="stroke: #A80036; stroke-width: 3.125;" x1="2316.6667" x2="2550" y1="1425" y2="1425"/><text fill="#000000" font-family="sans-serif" font-size="22.9167" lengthAdjust="spacingAndGlyphs" textLength="106.25" x="2327.0833" y="1457.1228">IO_ERROR</text><text fill="#000000" font-family="sans-serif" font-size="22.9167" lengthAdjust="spacingAndGlyphs" textLength="147.9167" x="2327.0833" y="1485.9477">SE_INSERTION</text><text fill="#000000" font-family="sans-serif" font-size="22.9167" lengthAdjust="spacingAndGlyphs" textLength="145.8333" x="2327.0833" y="1514.7725">SE_REMOVAL</text><line style="stroke: #A80036; stroke-width: 3.125;" x1="2316.6667" x2="2550" y1="1528.1413" y2="1528.1413"/><!--class AbstractObservableReader--><rect fill="#FEFECE" filter="url(#fr8y1p2)" height="215.2995" style="stroke: #A80036; stroke-width: 3.125;" width="764.5833" x="1780.2083" y="1722.9167"/><ellipse cx="1984.8958" cy="1756.25" fill="#A9DCDF" rx="22.9167" ry="22.9167" style="stroke: #A80036; stroke-width: 2.0833333333333335;"/><path d="M1989.4531,1759.9284 L1980.8268,1759.9284 L1979.9479,1762.0768 L1980.8268,1762.0768 Q1982.0964,1762.0768 1982.6497,1762.5651 Q1983.2031,1763.0534 1983.2031,1763.8672 Q1983.2031,1764.6484 1982.6497,1765.1367 Q1982.0964,1765.625 1980.8268,1765.625 L1976.0417,1765.625 Q1974.7721,1765.625 1974.235,1765.1367 Q1973.6979,1764.6484 1973.6979,1763.8346 Q1973.6979,1763.0534 1974.2676,1762.5488 Q1974.8372,1762.0443 1976.1393,1762.0768 L1981.7057,1748.2096 L1979.3945,1748.2096 Q1978.125,1748.2096 1977.5716,1747.7214 Q1977.0182,1747.2331 1977.0182,1746.4193 Q1977.0182,1745.638 1977.5716,1745.1497 Q1978.125,1744.6615 1979.3945,1744.6615 L1987.0443,1744.6615 L1994.1081,1762.0768 Q1995.3451,1762.0768 1995.7357,1762.3698 Q1996.5495,1762.9232 1996.5495,1763.8672 Q1996.5495,1764.6484 1996.0124,1765.1367 Q1995.4753,1765.625 1994.2057,1765.625 L1989.4206,1765.625 Q1988.151,1765.625 1987.5977,1765.1367 Q1987.0443,1764.6484 1987.0443,1763.8346 Q1987.0443,1763.0534 1987.5977,1762.5651 Q1988.151,1762.0768 1989.4206,1762.0768 L1990.2995,1762.0768 L1989.4531,1759.9284 Z M1987.9557,1756.3802 L1985.1237,1749.349 L1982.2591,1756.3802 L1987.9557,1756.3802 Z "/><ellipse cx="2038.0208" cy="1755.2083" fill="#84BE84" rx="6.25" ry="6.25" style="stroke: #038048; stroke-width: 2.0833333333333335;"/><text fill="#000000" font-family="sans-serif" font-size="25" font-style="italic" lengthAdjust="spacingAndGlyphs" textLength="314.5833" x="2050.5208" y="1766.4795">AbstractObservableReader</text><line style="stroke: #A80036; stroke-width: 3.125;" x1="1782.2917" x2="2542.7083" y1="1789.5833" y2="1789.5833"/><line style="stroke: #A80036; stroke-width: 3.125;" x1="1782.2917" x2="2542.7083" y1="1806.25" y2="1806.25"/><ellipse cx="1803.125" cy="1832.1208" fill="#84BE84" rx="6.25" ry="6.25" style="stroke: #038048; stroke-width: 2.0833333333333335;"/><text fill="#000000" font-family="sans-serif" font-size="22.9167" font-weight="bold" lengthAdjust="spacingAndGlyphs" textLength="47.9167" x="1821.875" y="1838.3728">final</text><text fill="#000000" font-family="sans-serif" font-size="22.9167" lengthAdjust="spacingAndGlyphs" textLength="656.25" x="1876.0417" y="1838.3728">void setSeProtocols(Map&lt;SeProtocol, String&gt; seProtocolSettings)</text><ellipse cx="1803.125" cy="1860.9456" fill="#84BE84" rx="6.25" ry="6.25" style="stroke: #038048; stroke-width: 2.0833333333333335;"/><text fill="#000000" font-family="sans-serif" font-size="22.9167" lengthAdjust="spacingAndGlyphs" textLength="256.25" x="1821.875" y="1867.1977">SeResponseSet transmit(</text><text fill="#000000" font-family="sans-serif" font-size="22.9167" font-weight="bold" lengthAdjust="spacingAndGlyphs" textLength="47.9167" x="2078.125" y="1867.1977">final</text><text fill="#000000" font-family="sans-serif" font-size="22.9167" lengthAdjust="spacingAndGlyphs" textLength="389.5833" x="2132.2917" y="1867.1977">SeRequestSet seApplicationRequests)</text><polygon fill="#FFFF44" points="1803.125,1879.3538,1811.4583,1887.6872,1803.125,1896.0205,1794.7917,1887.6872" style="stroke: #B38D22; stroke-width: 2.0833333333333335;"/><text fill="#000000" font-family="sans-serif" font-size="22.9167" font-style="italic" lengthAdjust="spacingAndGlyphs" textLength="679.1667" x="1821.875" y="1896.0225">SeResponseSet processSeRequestSet(SeRequestSet requestSet)</text><ellipse cx="1803.125" cy="1918.5954" fill="#84BE84" rx="6.25" ry="6.25" style="stroke: #038048; stroke-width: 2.0833333333333335;"/><text fill="#000000" font-family="sans-serif" font-size="22.9167" font-weight="bold" lengthAdjust="spacingAndGlyphs" textLength="47.9167" x="1821.875" y="1924.8474">final</text><text fill="#000000" font-family="sans-serif" font-size="22.9167" lengthAdjust="spacingAndGlyphs" textLength="308.3333" x="1876.0417" y="1924.8474">int compareTo(ProxyReader o)</text><!--class ReaderObserver--><rect fill="#FEFECE" filter="url(#fr8y1p2)" height="128.8249" style="stroke: #A80036; stroke-width: 3.125;" width="739.5833" x="1813.5417" y="1037.5"/><ellipse cx="2067.1875" cy="1070.8333" fill="#B4A7E5" rx="22.9167" ry="22.9167" style="stroke: #A80036; stroke-width: 2.0833333333333335;"/><path d="M2069.1732,1063.8346 L2069.1732,1077.7018 L2072.7539,1077.7018 Q2074.0234,1077.7018 2074.5768,1078.1901 Q2075.1302,1078.6784 2075.1302,1079.4922 Q2075.1302,1080.2734 2074.5768,1080.7617 Q2074.0234,1081.25 2072.7539,1081.25 L2062.0443,1081.25 Q2060.7747,1081.25 2060.2214,1080.7617 Q2059.668,1080.2734 2059.668,1079.4596 Q2059.668,1078.6784 2060.2214,1078.1901 Q2060.7747,1077.7018 2062.0443,1077.7018 L2065.625,1077.7018 L2065.625,1063.8346 L2062.0443,1063.8346 Q2060.7747,1063.8346 2060.2214,1063.3464 Q2059.668,1062.8581 2059.668,1062.0443 Q2059.668,1061.263 2060.2214,1060.7747 Q2060.7747,1060.2865 2062.0443,1060.2865 L2072.7539,1060.2865 Q2074.0234,1060.2865 2074.5768,1060.7747 Q2075.1302,1061.263 2075.1302,1062.0443 Q2075.1302,1062.8581 2074.5768,1063.3464 Q2074.0234,1063.8346 2072.7539,1063.8346 L2069.1732,1063.8346 Z "/><ellipse cx="2120.3125" cy="1069.7917" fill="#84BE84" rx="6.25" ry="6.25" style="stroke: #038048; stroke-width: 2.0833333333333335;"/><text fill="#000000" font-family="sans-serif" font-size="25" font-style="italic" lengthAdjust="spacingAndGlyphs" textLength="191.6667" x="2132.8125" y="1081.0628">ReaderObserver</text><line style="stroke: #A80036; stroke-width: 3.125;" x1="1815.625" x2="2551.0417" y1="1104.1667" y2="1104.1667"/><line style="stroke: #A80036; stroke-width: 3.125;" x1="1815.625" x2="2551.0417" y1="1120.8333" y2="1120.8333"/><ellipse cx="1836.4583" cy="1146.7041" fill="#84BE84" rx="6.25" ry="6.25" style="stroke: #038048; stroke-width: 2.0833333333333335;"/><text fill="#000000" font-family="sans-serif" font-size="22.9167" lengthAdjust="spacingAndGlyphs" textLength="685.4167" x="1855.2083" y="1152.9561">update(AbstractObservableReader observable, ReaderEvent event)</text><ellipse cx="2164.5833" cy="1452.0833" fill="#000000" rx="4.1667" ry="4.1667" style="stroke: none; stroke-width: 2.0833333333333335;"/><!--class AbstractPluginEvent--><rect fill="#FEFECE" filter="url(#fr8y1p2)" height="100" style="stroke: #A80036; stroke-width: 3.125;" width="320.8333" x="558.3333" y="1402.0833"/><ellipse cx="589.5833" cy="1435.4167" fill="#A9DCDF" rx="22.9167" ry="22.9167" style="stroke: #A80036; stroke-width: 2.0833333333333335;"/><path d="M594.1406,1439.0951 L585.5143,1439.0951 L584.6354,1441.2435 L585.5143,1441.2435 Q586.7839,1441.2435 587.3372,1441.7318 Q587.8906,1442.2201 587.8906,1443.0339 Q587.8906,1443.8151 587.3372,1444.3034 Q586.7839,1444.7917 585.5143,1444.7917 L580.7292,1444.7917 Q579.4596,1444.7917 578.9225,1444.3034 Q578.3854,1443.8151 578.3854,1443.0013 Q578.3854,1442.2201 578.9551,1441.7155 Q579.5247,1441.2109 580.8268,1441.2435 L586.3932,1427.3763 L584.082,1427.3763 Q582.8125,1427.3763 582.2591,1426.888 Q581.7057,1426.3997 581.7057,1425.5859 Q581.7057,1424.8047 582.2591,1424.3164 Q582.8125,1423.8281 584.082,1423.8281 L591.7318,1423.8281 L598.7956,1441.2435 Q600.0326,1441.2435 600.4232,1441.5365 Q601.237,1442.0898 601.237,1443.0339 Q601.237,1443.8151 600.6999,1444.3034 Q600.1628,1444.7917 598.8932,1444.7917 L594.1081,1444.7917 Q592.8385,1444.7917 592.2852,1444.3034 Q591.7318,1443.8151 591.7318,1443.0013 Q591.7318,1442.2201 592.2852,1441.7318 Q592.8385,1441.2435 594.1081,1441.2435 L594.987,1441.2435 L594.1406,1439.0951 Z M592.6432,1435.5469 L589.8112,1428.5156 L586.9466,1435.5469 L592.6432,1435.5469 Z "/><ellipse cx="629.1667" cy="1434.375" fill="#84BE84" rx="6.25" ry="6.25" style="stroke: #038048; stroke-width: 2.0833333333333335;"/><text fill="#000000" font-family="sans-serif" font-size="25" font-style="italic" lengthAdjust="spacingAndGlyphs" textLength="231.25" x="641.6667" y="1445.6462">AbstractPluginEvent</text><line style="stroke: #A80036; stroke-width: 3.125;" x1="560.4167" x2="877.0833" y1="1468.75" y2="1468.75"/><line style="stroke: #A80036; stroke-width: 3.125;" x1="560.4167" x2="877.0833" y1="1485.4167" y2="1485.4167"/><!--class ErrorPluginEvent--><rect fill="#FEFECE" filter="url(#fr8y1p2)" height="186.4746" style="stroke: #A80036; stroke-width: 3.125;" width="437.5" x="358.3333" y="1008.3333"/><ellipse cx="460.9375" cy="1041.6667" fill="#ADD1B2" rx="22.9167" ry="22.9167" style="stroke: #A80036; stroke-width: 2.0833333333333335;"/><path d="M466.6992,1033.0729 Q467.0247,1032.6172 467.4154,1032.3893 Q467.806,1032.1615 468.2617,1032.1615 Q469.043,1032.1615 469.5313,1032.6986 Q470.0195,1033.2357 470.0195,1034.5052 L470.0195,1037.5326 Q470.0195,1038.8021 469.5313,1039.3555 Q469.043,1039.9089 468.2617,1039.9089 Q467.5456,1039.9089 467.1224,1039.4857 Q466.6992,1039.0951 466.4714,1038.0208 Q466.3737,1037.2721 465.9831,1036.8815 Q465.2995,1036.1003 464.0299,1035.6445 Q462.7604,1035.1888 461.4583,1035.1888 Q459.8633,1035.1888 458.5449,1035.8724 Q457.2266,1036.556 456.2012,1038.1185 Q455.1758,1039.681 455.1758,1041.8294 L455.1758,1044.1081 Q455.1758,1046.6797 457.0313,1048.3887 Q458.8867,1050.0977 462.207,1050.0977 Q464.1602,1050.0977 465.5273,1049.5768 Q466.3411,1049.2513 467.2201,1048.3398 Q467.7734,1047.7865 468.0827,1047.6237 Q468.3919,1047.4609 468.8151,1047.4609 Q469.4987,1047.4609 470.0358,1047.998 Q470.5729,1048.5352 470.5729,1049.2513 Q470.5729,1049.9674 469.8568,1050.8138 Q468.8151,1052.0182 467.1549,1052.7018 Q464.9089,1053.6458 462.207,1053.6458 Q459.0495,1053.6458 456.543,1052.3438 Q454.4922,1051.3021 453.0599,1049.0723 Q451.6276,1046.8424 451.6276,1044.1732 L451.6276,1041.7643 Q451.6276,1038.9974 452.9134,1036.6048 Q454.1992,1034.2122 456.4779,1032.9264 Q458.7565,1031.6406 461.3281,1031.6406 Q462.8581,1031.6406 464.209,1031.9824 Q465.5599,1032.3242 466.6992,1033.0729 Z "/><ellipse cx="514.0625" cy="1040.625" fill="#84BE84" rx="6.25" ry="6.25" style="stroke: #038048; stroke-width: 2.0833333333333335;"/><text fill="#000000" font-family="sans-serif" font-size="25" lengthAdjust="spacingAndGlyphs" textLength="191.6667" x="526.5625" y="1051.8962">ErrorPluginEvent</text><line style="stroke: #A80036; stroke-width: 3.125;" x1="360.4167" x2="793.75" y1="1075" y2="1075"/><rect fill="none" height="12.5" style="stroke: #C82930; stroke-width: 2.0833333333333335;" width="12.5" x="375" y="1094.6208"/><text fill="#000000" font-family="sans-serif" font-size="22.9167" font-weight="bold" lengthAdjust="spacingAndGlyphs" textLength="47.9167" x="400" y="1107.1228">final</text><text fill="#000000" font-family="sans-serif" font-size="22.9167" lengthAdjust="spacingAndGlyphs" textLength="202.0833" x="454.1667" y="1107.1228">Exception exception</text><line style="stroke: #A80036; stroke-width: 3.125;" x1="360.4167" x2="793.75" y1="1120.4915" y2="1120.4915"/><ellipse cx="381.25" cy="1146.3623" fill="#84BE84" rx="6.25" ry="6.25" style="stroke: #038048; stroke-width: 2.0833333333333335;"/><text fill="#000000" font-family="sans-serif" font-size="22.9167" lengthAdjust="spacingAndGlyphs" textLength="383.3333" x="400" y="1152.6143">ErrorPluginEvent(Exception exception)</text><ellipse cx="381.25" cy="1175.1872" fill="#84BE84" rx="6.25" ry="6.25" style="stroke: #038048; stroke-width: 2.0833333333333335;"/><text fill="#000000" font-family="sans-serif" font-size="22.9167" lengthAdjust="spacingAndGlyphs" textLength="250" x="400" y="1181.4392">Exception getException()</text><!--class ReaderPresencePluginEvent--><rect fill="#FEFECE" filter="url(#fr8y1p2)" height="244.1243" style="stroke: #A80036; stroke-width: 3.125;" width="718.75" x="359.375" y="1708.3333"/><ellipse cx="532.8125" cy="1741.6667" fill="#ADD1B2" rx="22.9167" ry="22.9167" style="stroke: #A80036; stroke-width: 2.0833333333333335;"/><path d="M538.5742,1733.0729 Q538.8997,1732.6172 539.2904,1732.3893 Q539.681,1732.1615 540.1367,1732.1615 Q540.918,1732.1615 541.4063,1732.6986 Q541.8945,1733.2357 541.8945,1734.5052 L541.8945,1737.5326 Q541.8945,1738.8021 541.4063,1739.3555 Q540.918,1739.9089 540.1367,1739.9089 Q539.4206,1739.9089 538.9974,1739.4857 Q538.5742,1739.0951 538.3464,1738.0208 Q538.2487,1737.2721 537.8581,1736.8815 Q537.1745,1736.1003 535.9049,1735.6445 Q534.6354,1735.1888 533.3333,1735.1888 Q531.7383,1735.1888 530.4199,1735.8724 Q529.1016,1736.556 528.0762,1738.1185 Q527.0508,1739.681 527.0508,1741.8294 L527.0508,1744.1081 Q527.0508,1746.6797 528.9063,1748.3887 Q530.7617,1750.0977 534.082,1750.0977 Q536.0352,1750.0977 537.4023,1749.5768 Q538.2161,1749.2513 539.0951,1748.3398 Q539.6484,1747.7865 539.9577,1747.6237 Q540.2669,1747.4609 540.6901,1747.4609 Q541.3737,1747.4609 541.9108,1747.998 Q542.4479,1748.5352 542.4479,1749.2513 Q542.4479,1749.9674 541.7318,1750.8138 Q540.6901,1752.0182 539.0299,1752.7018 Q536.7839,1753.6458 534.082,1753.6458 Q530.9245,1753.6458 528.418,1752.3438 Q526.3672,1751.3021 524.9349,1749.0723 Q523.5026,1746.8424 523.5026,1744.1732 L523.5026,1741.7643 Q523.5026,1738.9974 524.7884,1736.6048 Q526.0742,1734.2122 528.3529,1732.9264 Q530.6315,1731.6406 533.2031,1731.6406 Q534.7331,1731.6406 536.084,1731.9824 Q537.4349,1732.3242 538.5742,1733.0729 Z "/><ellipse cx="585.9375" cy="1740.625" fill="#84BE84" rx="6.25" ry="6.25" style="stroke: #038048; stroke-width: 2.0833333333333335;"/><text fill="#000000" font-family="sans-serif" font-size="25" lengthAdjust="spacingAndGlyphs" textLength="331.25" x="598.4375" y="1751.8962">ReaderPresencePluginEvent</text><line style="stroke: #A80036; stroke-width: 3.125;" x1="361.4583" x2="1076.0417" y1="1775" y2="1775"/><rect fill="none" height="12.5" style="stroke: #C82930; stroke-width: 2.0833333333333335;" width="12.5" x="376.0417" y="1794.6208"/><text fill="#000000" font-family="sans-serif" font-size="22.9167" font-weight="bold" lengthAdjust="spacingAndGlyphs" textLength="47.9167" x="401.0417" y="1807.1228">final</text><text fill="#000000" font-family="sans-serif" font-size="22.9167" lengthAdjust="spacingAndGlyphs" textLength="147.9167" x="455.2083" y="1807.1228">boolean added</text><rect fill="none" height="12.5" style="stroke: #C82930; stroke-width: 2.0833333333333335;" width="12.5" x="376.0417" y="1823.4456"/><text fill="#000000" font-family="sans-serif" font-size="22.9167" font-weight="bold" lengthAdjust="spacingAndGlyphs" textLength="47.9167" x="401.0417" y="1835.9477">final</text><text fill="#000000" font-family="sans-serif" font-size="22.9167" lengthAdjust="spacingAndGlyphs" textLength="204.1667" x="455.2083" y="1835.9477">ProxyReader reader</text><line style="stroke: #A80036; stroke-width: 3.125;" x1="361.4583" x2="1076.0417" y1="1849.3164" y2="1849.3164"/><ellipse cx="382.2917" cy="1875.1872" fill="#84BE84" rx="6.25" ry="6.25" style="stroke: #038048; stroke-width: 2.0833333333333335;"/><text fill="#000000" font-family="sans-serif" font-size="22.9167" lengthAdjust="spacingAndGlyphs" textLength="664.5833" x="401.0417" y="1881.4392">ReaderPresencePluginEvent(boolean added, ProxyReader reader)</text><ellipse cx="382.2917" cy="1904.012" fill="#84BE84" rx="6.25" ry="6.25" style="stroke: #038048; stroke-width: 2.0833333333333335;"/><text fill="#000000" font-family="sans-serif" font-size="22.9167" lengthAdjust="spacingAndGlyphs" textLength="185.4167" x="401.0417" y="1910.2641">boolean isAdded()</text><ellipse cx="382.2917" cy="1932.8369" fill="#84BE84" rx="6.25" ry="6.25" style="stroke: #038048; stroke-width: 2.0833333333333335;"/><text fill="#000000" font-family="sans-serif" font-size="22.9167" lengthAdjust="spacingAndGlyphs" textLength="258.3333" x="401.0417" y="1939.0889">ProxyReader getReader()</text><!--class AbstractObservablePlugin--><rect fill="#FEFECE" filter="url(#fr8y1p2)" height="157.6497" style="stroke: #A80036; stroke-width: 3.125;" width="556.25" x="1151.0417" y="1751.0417"/><ellipse cx="1257.8125" cy="1784.375" fill="#A9DCDF" rx="22.9167" ry="22.9167" style="stroke: #A80036; stroke-width: 2.0833333333333335;"/><path d="M1262.3698,1788.0534 L1253.7435,1788.0534 L1252.8646,1790.2018 L1253.7435,1790.2018 Q1255.013,1790.2018 1255.5664,1790.6901 Q1256.1198,1791.1784 1256.1198,1791.9922 Q1256.1198,1792.7734 1255.5664,1793.2617 Q1255.013,1793.75 1253.7435,1793.75 L1248.9583,1793.75 Q1247.6888,1793.75 1247.1517,1793.2617 Q1246.6146,1792.7734 1246.6146,1791.9596 Q1246.6146,1791.1784 1247.1842,1790.6738 Q1247.7539,1790.1693 1249.056,1790.2018 L1254.6224,1776.3346 L1252.3112,1776.3346 Q1251.0417,1776.3346 1250.4883,1775.8464 Q1249.9349,1775.3581 1249.9349,1774.5443 Q1249.9349,1773.763 1250.4883,1773.2747 Q1251.0417,1772.7865 1252.3112,1772.7865 L1259.9609,1772.7865 L1267.0247,1790.2018 Q1268.2617,1790.2018 1268.6523,1790.4948 Q1269.4661,1791.0482 1269.4661,1791.9922 Q1269.4661,1792.7734 1268.929,1793.2617 Q1268.3919,1793.75 1267.1224,1793.75 L1262.3372,1793.75 Q1261.0677,1793.75 1260.5143,1793.2617 Q1259.9609,1792.7734 1259.9609,1791.9596 Q1259.9609,1791.1784 1260.5143,1790.6901 Q1261.0677,1790.2018 1262.3372,1790.2018 L1263.2161,1790.2018 L1262.3698,1788.0534 Z M1260.8724,1784.5052 L1258.0404,1777.474 L1255.1758,1784.5052 L1260.8724,1784.5052 Z "/><ellipse cx="1310.9375" cy="1783.3333" fill="#84BE84" rx="6.25" ry="6.25" style="stroke: #038048; stroke-width: 2.0833333333333335;"/><text fill="#000000" font-family="sans-serif" font-size="25" font-style="italic" lengthAdjust="spacingAndGlyphs" textLength="302.0833" x="1323.4375" y="1794.6045">AbstractObservablePlugin</text><line style="stroke: #A80036; stroke-width: 3.125;" x1="1153.125" x2="1705.2083" y1="1817.7083" y2="1817.7083"/><line style="stroke: #A80036; stroke-width: 3.125;" x1="1153.125" x2="1705.2083" y1="1834.375" y2="1834.375"/><ellipse cx="1173.9583" cy="1860.2458" fill="#84BE84" rx="6.25" ry="6.25" style="stroke: #038048; stroke-width: 2.0833333333333335;"/><text fill="#000000" font-family="sans-serif" font-size="22.9167" lengthAdjust="spacingAndGlyphs" textLength="502.0833" x="1192.7083" y="1866.4978">SortedSet&lt;? extends ProxyReader&gt; getReaders()</text><ellipse cx="1173.9583" cy="1889.0706" fill="#84BE84" rx="6.25" ry="6.25" style="stroke: #038048; stroke-width: 2.0833333333333335;"/><text fill="#000000" font-family="sans-serif" font-size="22.9167" font-weight="bold" lengthAdjust="spacingAndGlyphs" textLength="47.9167" x="1192.7083" y="1895.3227">final</text><text fill="#000000" font-family="sans-serif" font-size="22.9167" lengthAdjust="spacingAndGlyphs" textLength="320.8333" x="1246.875" y="1895.3227">int compareTo(ReadersPlugin o)</text><!--class PluginObserver--><rect fill="#FEFECE" filter="url(#fr8y1p2)" height="128.8249" style="stroke: #A80036; stroke-width: 3.125;" width="797.9167" x="869.7917" y="1037.5"/><ellipse cx="1158.8542" cy="1070.8333" fill="#B4A7E5" rx="22.9167" ry="22.9167" style="stroke: #A80036; stroke-width: 2.0833333333333335;"/><path d="M1160.8398,1063.8346 L1160.8398,1077.7018 L1164.4206,1077.7018 Q1165.6901,1077.7018 1166.2435,1078.1901 Q1166.7969,1078.6784 1166.7969,1079.4922 Q1166.7969,1080.2734 1166.2435,1080.7617 Q1165.6901,1081.25 1164.4206,1081.25 L1153.7109,1081.25 Q1152.4414,1081.25 1151.888,1080.7617 Q1151.3346,1080.2734 1151.3346,1079.4596 Q1151.3346,1078.6784 1151.888,1078.1901 Q1152.4414,1077.7018 1153.7109,1077.7018 L1157.2917,1077.7018 L1157.2917,1063.8346 L1153.7109,1063.8346 Q1152.4414,1063.8346 1151.888,1063.3464 Q1151.3346,1062.8581 1151.3346,1062.0443 Q1151.3346,1061.263 1151.888,1060.7747 Q1152.4414,1060.2865 1153.7109,1060.2865 L1164.4206,1060.2865 Q1165.6901,1060.2865 1166.2435,1060.7747 Q1166.7969,1061.263 1166.7969,1062.0443 Q1166.7969,1062.8581 1166.2435,1063.3464 Q1165.6901,1063.8346 1164.4206,1063.8346 L1160.8398,1063.8346 Z "/><ellipse cx="1211.9792" cy="1069.7917" fill="#84BE84" rx="6.25" ry="6.25" style="stroke: #038048; stroke-width: 2.0833333333333335;"/><text fill="#000000" font-family="sans-serif" font-size="25" font-style="italic" lengthAdjust="spacingAndGlyphs" textLength="179.1667" x="1224.4792" y="1081.0628">PluginObserver</text><line style="stroke: #A80036; stroke-width: 3.125;" x1="871.875" x2="1665.625" y1="1104.1667" y2="1104.1667"/><line style="stroke: #A80036; stroke-width: 3.125;" x1="871.875" x2="1665.625" y1="1120.8333" y2="1120.8333"/><ellipse cx="892.7083" cy="1146.7041" fill="#84BE84" rx="6.25" ry="6.25" style="stroke: #038048; stroke-width: 2.0833333333333335;"/><text fill="#000000" font-family="sans-serif" font-size="22.9167" lengthAdjust="spacingAndGlyphs" textLength="743.75" x="911.4583" y="1152.9561">update(AbstractObservablePlugin observable, AbstractPluginEvent event)</text><ellipse cx="1268.75" cy="1452.0833" fill="#000000" rx="4.1667" ry="4.1667" style="stroke: none; stroke-width: 2.0833333333333335;"/><polygon fill="#FBFB77" filter="url(#fr8y1p2)" points="1388.5417,1373.9583,1388.5417,1531.0547,2044.7917,1531.0547,2044.7917,1394.7917,2023.9583,1373.9583,1388.5417,1373.9583" style="stroke: #A80036; stroke-width: 2.0833333333333335;"/><line style="stroke: #A80036; stroke-width: 2.0833333333333335;" x1="2023.9583" x2="2023.9583" y1="1373.9583" y2="1394.7917"/><line style="stroke: #A80036; stroke-width: 2.0833333333333335;" x1="2044.7917" x2="2023.9583" y1="1394.7917" y2="1394.7917"/><text fill="#000000" font-family="sans-serif" font-size="27.0833" lengthAdjust="spacingAndGlyphs" textLength="593.75" x="1401.0417" y="1412.4898">- AbstractObservablePlugin could be extended by</text><text fill="#000000" font-family="sans-serif" font-size="27.0833" lengthAdjust="spacingAndGlyphs" textLength="495.8333" x="1401.0417" y="1446.5556">plugins managing hot-plug of SE readers.</text><text fill="#000000" font-family="sans-serif" font-size="27.0833" lengthAdjust="spacingAndGlyphs" textLength="612.5" x="1401.0417" y="1480.6213">- AbstractObservableReader could  be extended by</text><text fill="#000000" font-family="sans-serif" font-size="27.0833" lengthAdjust="spacingAndGlyphs" textLength="502.0833" x="1401.0417" y="1514.6871">plugins supporting SE insertion detection.</text><!--class SpecificTerminal--><rect fill="#FEFECE" filter="url(#fr8y1p2)" height="100" style="stroke: #A80036; stroke-width: 3.125;" width="258.3333" x="656.25" y="139.5833"/><ellipse cx="687.5" cy="172.9167" fill="#ADD1B2" rx="22.9167" ry="22.9167" style="stroke: #A80036; stroke-width: 2.0833333333333335;"/><path d="M693.2617,164.3229 Q693.5872,163.8672 693.9779,163.6393 Q694.3685,163.4115 694.8242,163.4115 Q695.6055,163.4115 696.0938,163.9486 Q696.582,164.4857 696.582,165.7552 L696.582,168.7826 Q696.582,170.0521 696.0938,170.6055 Q695.6055,171.1589 694.8242,171.1589 Q694.1081,171.1589 693.6849,170.7357 Q693.2617,170.3451 693.0339,169.2708 Q692.9362,168.5221 692.5456,168.1315 Q691.862,167.3503 690.5924,166.8945 Q689.3229,166.4388 688.0208,166.4388 Q686.4258,166.4388 685.1074,167.1224 Q683.7891,167.806 682.7637,169.3685 Q681.7383,170.931 681.7383,173.0794 L681.7383,175.3581 Q681.7383,177.9297 683.5938,179.6387 Q685.4492,181.3477 688.7695,181.3477 Q690.7227,181.3477 692.0898,180.8268 Q692.9036,180.5013 693.7826,179.5898 Q694.3359,179.0365 694.6452,178.8737 Q694.9544,178.7109 695.3776,178.7109 Q696.0612,178.7109 696.5983,179.248 Q697.1354,179.7852 697.1354,180.5013 Q697.1354,181.2174 696.4193,182.0638 Q695.3776,183.2682 693.7174,183.9518 Q691.4714,184.8958 688.7695,184.8958 Q685.612,184.8958 683.1055,183.5938 Q681.0547,182.5521 679.6224,180.3223 Q678.1901,178.0924 678.1901,175.4232 L678.1901,173.0143 Q678.1901,170.2474 679.4759,167.8548 Q680.7617,165.4622 683.0404,164.1764 Q685.319,162.8906 687.8906,162.8906 Q689.4206,162.8906 690.7715,163.2324 Q692.1224,163.5742 693.2617,164.3229 Z "/><text fill="#000000" font-family="sans-serif" font-size="25" lengthAdjust="spacingAndGlyphs" textLength="191.6667" x="716.6667" y="183.1462">SpecificTerminal</text><line style="stroke: #A80036; stroke-width: 3.125;" x1="658.3333" x2="912.5" y1="206.25" y2="206.25"/><line style="stroke: #A80036; stroke-width: 3.125;" x1="658.3333" x2="912.5" y1="222.9167" y2="222.9167"/><!--class SpecificPluginObserver--><rect fill="#FEFECE" filter="url(#fr8y1p2)" height="128.8249" style="stroke: #A80036; stroke-width: 3.125;" width="743.75" x="988.5417" y="125"/><ellipse cx="1218.2292" cy="158.3333" fill="#ADD1B2" rx="22.9167" ry="22.9167" style="stroke: #A80036; stroke-width: 2.0833333333333335;"/><path d="M1223.9909,149.7396 Q1224.3164,149.2839 1224.707,149.056 Q1225.0977,148.8281 1225.5534,148.8281 Q1226.3346,148.8281 1226.8229,149.3652 Q1227.3112,149.9023 1227.3112,151.1719 L1227.3112,154.1992 Q1227.3112,155.4688 1226.8229,156.0221 Q1226.3346,156.5755 1225.5534,156.5755 Q1224.8372,156.5755 1224.4141,156.1523 Q1223.9909,155.7617 1223.763,154.6875 Q1223.6654,153.9388 1223.2747,153.5482 Q1222.5911,152.7669 1221.3216,152.3112 Q1220.0521,151.8555 1218.75,151.8555 Q1217.1549,151.8555 1215.8366,152.5391 Q1214.5182,153.2227 1213.4928,154.7852 Q1212.4674,156.3477 1212.4674,158.4961 L1212.4674,160.7747 Q1212.4674,163.3464 1214.3229,165.0553 Q1216.1784,166.7643 1219.4987,166.7643 Q1221.4518,166.7643 1222.819,166.2435 Q1223.6328,165.918 1224.5117,165.0065 Q1225.0651,164.4531 1225.3743,164.2904 Q1225.6836,164.1276 1226.1068,164.1276 Q1226.7904,164.1276 1227.3275,164.6647 Q1227.8646,165.2018 1227.8646,165.918 Q1227.8646,166.6341 1227.1484,167.4805 Q1226.1068,168.6849 1224.4466,169.3685 Q1222.2005,170.3125 1219.4987,170.3125 Q1216.3411,170.3125 1213.8346,169.0104 Q1211.7839,167.9688 1210.3516,165.7389 Q1208.9193,163.5091 1208.9193,160.8398 L1208.9193,158.431 Q1208.9193,155.6641 1210.2051,153.2715 Q1211.4909,150.8789 1213.7695,149.5931 Q1216.0482,148.3073 1218.6198,148.3073 Q1220.1497,148.3073 1221.5007,148.6491 Q1222.8516,148.9909 1223.9909,149.7396 Z "/><text fill="#000000" font-family="sans-serif" font-size="25" lengthAdjust="spacingAndGlyphs" textLength="266.6667" x="1260.9375" y="168.5628">SpecificPluginObserver</text><line style="stroke: #A80036; stroke-width: 3.125;" x1="990.625" x2="1730.2083" y1="191.6667" y2="191.6667"/><line style="stroke: #A80036; stroke-width: 3.125;" x1="990.625" x2="1730.2083" y1="208.3333" y2="208.3333"/><ellipse cx="1011.4583" cy="234.2041" fill="#84BE84" rx="6.25" ry="6.25" style="stroke: #038048; stroke-width: 2.0833333333333335;"/><text fill="#000000" font-family="sans-serif" font-size="22.9167" lengthAdjust="spacingAndGlyphs" textLength="689.5833" x="1030.2083" y="240.4561">update(AbstractObservablePlugin plugin, AbstractPluginEvent event)</text><!--class SpecificReaderObserver--><rect fill="#FEFECE" filter="url(#fr8y1p2)" height="128.8249" style="stroke: #A80036; stroke-width: 3.125;" width="693.75" x="1805.2083" y="125"/><ellipse cx="2003.6458" cy="158.3333" fill="#ADD1B2" rx="22.9167" ry="22.9167" style="stroke: #A80036; stroke-width: 2.0833333333333335;"/><path d="M2009.4076,149.7396 Q2009.7331,149.2839 2010.1237,149.056 Q2010.5143,148.8281 2010.9701,148.8281 Q2011.7513,148.8281 2012.2396,149.3652 Q2012.7279,149.9023 2012.7279,151.1719 L2012.7279,154.1992 Q2012.7279,155.4688 2012.2396,156.0221 Q2011.7513,156.5755 2010.9701,156.5755 Q2010.2539,156.5755 2009.8307,156.1523 Q2009.4076,155.7617 2009.1797,154.6875 Q2009.082,153.9388 2008.6914,153.5482 Q2008.0078,152.7669 2006.7383,152.3112 Q2005.4688,151.8555 2004.1667,151.8555 Q2002.5716,151.8555 2001.2533,152.5391 Q1999.9349,153.2227 1998.9095,154.7852 Q1997.8841,156.3477 1997.8841,158.4961 L1997.8841,160.7747 Q1997.8841,163.3464 1999.7396,165.0553 Q2001.5951,166.7643 2004.9154,166.7643 Q2006.8685,166.7643 2008.2357,166.2435 Q2009.0495,165.918 2009.9284,165.0065 Q2010.4818,164.4531 2010.791,164.2904 Q2011.1003,164.1276 2011.5234,164.1276 Q2012.207,164.1276 2012.7441,164.6647 Q2013.2813,165.2018 2013.2813,165.918 Q2013.2813,166.6341 2012.5651,167.4805 Q2011.5234,168.6849 2009.8633,169.3685 Q2007.6172,170.3125 2004.9154,170.3125 Q2001.7578,170.3125 1999.2513,169.0104 Q1997.2005,167.9688 1995.7682,165.7389 Q1994.3359,163.5091 1994.3359,160.8398 L1994.3359,158.431 Q1994.3359,155.6641 1995.6217,153.2715 Q1996.9076,150.8789 1999.1862,149.5931 Q2001.4648,148.3073 2004.0365,148.3073 Q2005.5664,148.3073 2006.9173,148.6491 Q2008.2682,148.9909 2009.4076,149.7396 Z "/><text fill="#000000" font-family="sans-serif" font-size="25" lengthAdjust="spacingAndGlyphs" textLength="279.1667" x="2046.3542" y="168.5628">SpecificReaderObserver</text><line style="stroke: #A80036; stroke-width: 3.125;" x1="1807.2917" x2="2496.875" y1="191.6667" y2="191.6667"/><line style="stroke: #A80036; stroke-width: 3.125;" x1="1807.2917" x2="2496.875" y1="208.3333" y2="208.3333"/><ellipse cx="1828.125" cy="234.2041" fill="#84BE84" rx="6.25" ry="6.25" style="stroke: #038048; stroke-width: 2.0833333333333335;"/><text fill="#000000" font-family="sans-serif" font-size="22.9167" lengthAdjust="spacingAndGlyphs" textLength="639.5833" x="1846.875" y="240.4561">update(AbstractObservableReader reader, ReaderEvent event)</text><path d="M2178.4583,1194.2188 C2173.2708,1289.6792 2165.7083,1429.2688 2164.6875,1447.9146 " fill="none" style="stroke: #A80036; stroke-width: 2.0833333333333335;"/><polygon fill="#FFFFFF" points="2179.9375,1166.7938,2170.9394,1178.8241,2178.5836,1191.7571,2187.5817,1179.7267,2179.9375,1166.7938" style="stroke: #A80036; stroke-width: 2.0833333333333335;"/><polygon fill="#000000" points="2218.75,1281.25,2225,1268.75,2231.25,1281.25,2218.75,1281.25" style="stroke: #000000; stroke-width: 2.0833333333333335;"/><text fill="#000000" font-family="sans-serif" font-size="27.0833" lengthAdjust="spacingAndGlyphs" textLength="106.25" x="2175" y="1315.6148">observes</text><text fill="#000000" font-family="sans-serif" font-size="27.0833" lengthAdjust="spacingAndGlyphs" textLength="14.5833" x="2163.2501" y="1211.0354">1</text><path d="M2164.5625,1456.5542 C2164.4583,1476.7083 2163.6667,1620.1521 2163.0833,1722.775 " fill="none" style="stroke: #A80036; stroke-width: 2.0833333333333335;"/><text fill="#000000" font-family="sans-serif" font-size="27.0833" lengthAdjust="spacingAndGlyphs" textLength="10.4167" x="2152.0163" y="1700.1061">*</text><path d="M2168.7917,1452.0833 C2217.3542,1452.0833 2265.9167,1452.0833 2314.5,1452.0833 " fill="none" style="stroke: #A80036; stroke-width: 2.0833333333333335; stroke-dasharray: 7.0,7.0;"/><path d="M614.675,1195.9354 C635.8083,1247.525 662.0479,1311.5792 682.8917,1362.4646 " fill="none" style="stroke: #A80036; stroke-width: 2.0833333333333335;"/><polygon fill="none" points="696.6021,1357.4604,698.9021,1401.5458,669.6125,1368.5167,696.6021,1357.4604" style="stroke: #A80036; stroke-width: 2.0833333333333335;"/><text fill="#000000" font-family="sans-serif" font-size="27.0833" lengthAdjust="spacingAndGlyphs" textLength="95.8333" x="656.25" y="1288.5315">extends</text><path d="M718.75,1544.1271 C718.75,1593.2458 718.75,1654.7208 718.75,1707.9 " fill="none" style="stroke: #A80036; stroke-width: 2.0833333333333335;"/><polygon fill="none" points="704.1667,1543.9563,718.75,1502.2896,733.3333,1543.9563,704.1667,1543.9563" style="stroke: #A80036; stroke-width: 2.0833333333333335;"/><text fill="#000000" font-family="sans-serif" font-size="27.0833" lengthAdjust="spacingAndGlyphs" textLength="95.8333" x="720.8333" y="1638.5315">extends</text><path d="M1268.75,1194.2188 C1268.75,1289.6792 1268.75,1429.2688 1268.75,1447.9146 " fill="none" style="stroke: #A80036; stroke-width: 2.0833333333333335;"/><polygon fill="#FFFFFF" points="1268.75,1166.7938,1260.4167,1179.2938,1268.75,1191.7938,1277.0833,1179.2938,1268.75,1166.7938" style="stroke: #A80036; stroke-width: 2.0833333333333335;"/><polygon fill="#000000" points="1314.5833,1281.25,1320.8333,1268.75,1327.0833,1281.25,1314.5833,1281.25" style="stroke: #000000; stroke-width: 2.0833333333333335;"/><text fill="#000000" font-family="sans-serif" font-size="27.0833" lengthAdjust="spacingAndGlyphs" textLength="106.25" x="1270.8333" y="1315.6148">observes</text><text fill="#000000" font-family="sans-serif" font-size="27.0833" lengthAdjust="spacingAndGlyphs" textLength="14.5833" x="1252.7311" y="1211.0354">1</text><path d="M1269.775,1456.5542 C1279.2479,1478.6375 1352.2104,1648.7292 1396.0688,1750.9667 " fill="none" style="stroke: #A80036; stroke-width: 2.0833333333333335;"/><text fill="#000000" font-family="sans-serif" font-size="27.0833" lengthAdjust="spacingAndGlyphs" textLength="10.4167" x="1378.5894" y="1728.1956">*</text><path d="M879.3458,1452.0833 C1007.625,1452.0833 1135.9063,1452.0833 1264.1875,1452.0833 " fill="none" style="stroke: #A80036; stroke-width: 2.0833333333333335; stroke-dasharray: 7.0,7.0;"/><path d="M1657.7938,1530.7458 C1608.3438,1595.0646 1538.0188,1686.5375 1488.4542,1751.0083 " fill="none" style="stroke: #A80036; stroke-width: 2.0833333333333335; stroke-dasharray: 7.0,7.0;"/><path d="M1807.425,1530.2938 C1873.3667,1585.6042 1963.4542,1661.1688 2036.3875,1722.3438 " fill="none" style="stroke: #A80036; stroke-width: 2.0833333333333335; stroke-dasharray: 7.0,7.0;"/><path d="M524.0458,708.2146 C349.6146,779.7167 152.0833,903.9646 152.0833,1100 C152.0833,1100 152.0833,1100 152.0833,1832.2917 C152.0833,2222.2848 580.8521,2088.5 962.5,2168.75 C996.2896,2175.8542 1031.65,2183.6979 1066.6646,2191.7188 " fill="none" style="stroke: #A80036; stroke-width: 2.0833333333333335;"/><polygon fill="#A80036" points="1093.3396,2197.875,1076.9446,2185.5376,1083.1899,2195.5319,1073.1956,2201.7772,1093.3396,2197.875" style="stroke: #A80036; stroke-width: 2.0833333333333335;"/><line style="stroke: #A80036; stroke-width: 2.0833333333333335;" x1="1083.1899" x2="1066.951" y1="2195.5319" y2="2191.7844"/><polygon fill="#A80036" points="549.5875,698.0458,534.8917,694.9269,526.3605,707.2927,541.0563,710.4116,549.5875,698.0458" style="stroke: #A80036; stroke-width: 2.0833333333333335;"/><text fill="#000000" font-family="sans-serif" font-size="27.0833" lengthAdjust="spacingAndGlyphs" textLength="85.4167" x="154.1667" y="1463.5315">plugins</text><text fill="#000000" font-family="sans-serif" font-size="27.0833" lengthAdjust="spacingAndGlyphs" textLength="14.5833" x="518.6695" y="696.5672">1</text><text fill="#000000" font-family="sans-serif" font-size="27.0833" lengthAdjust="spacingAndGlyphs" textLength="10.4167" x="1043.1433" y="2180.291">*</text><path d="M1654.1271,2262.5 C1689.9188,2262.5 1726.825,2262.5 1763.6375,2262.5 " fill="none" style="stroke: #A80036; stroke-width: 2.0833333333333335;"/><polygon fill="#A80036" points="1791.0771,2262.5,1772.3271,2254.1667,1780.6604,2262.5,1772.3271,2270.8333,1791.0771,2262.5" style="stroke: #A80036; stroke-width: 2.0833333333333335;"/><line style="stroke: #A80036; stroke-width: 2.0833333333333335;" x1="1780.6604" x2="1763.9938" y1="2262.5" y2="2262.4998"/><polygon fill="#A80036" points="1626.5417,2262.5,1639.0417,2270.8333,1651.5417,2262.5,1639.0417,2254.1667,1626.5417,2262.5" style="stroke: #A80036; stroke-width: 2.0833333333333335;"/><text fill="#000000" font-family="sans-serif" font-size="27.0833" lengthAdjust="spacingAndGlyphs" textLength="89.5833" x="1664.0625" y="2248.9482">readers</text><text fill="#000000" font-family="sans-serif" font-size="27.0833" lengthAdjust="spacingAndGlyphs" textLength="14.5833" x="1643.0712" y="2256.349">1</text><text fill="#000000" font-family="sans-serif" font-size="27.0833" lengthAdjust="spacingAndGlyphs" textLength="10.4167" x="1764.7713" y="2256.6154">*</text><path d="M1414.4521,1909.8208 C1401.3792,1978.7104 1382.1604,2079.9792 1367.7354,2155.9875 " fill="none" style="stroke: #A80036; stroke-width: 2.0833333333333335; stroke-dasharray: 7.0,7.0;"/><polygon fill="none" points="1381.975,2159.1688,1359.8792,2197.3854,1353.3208,2153.7313,1381.975,2159.1688" style="stroke: #A80036; stroke-width: 2.0833333333333335;"/><text fill="#000000" font-family="sans-serif" font-size="27.0833" lengthAdjust="spacingAndGlyphs" textLength="139.5833" x="1385.4167" y="2098.9482">implements</text><path d="M2162.5,1937.5708 C2162.5,1994.55 2162.5,2065.5354 2162.5,2126.4229 " fill="none" style="stroke: #A80036; stroke-width: 2.0833333333333335; stroke-dasharray: 7.0,7.0;"/><polygon fill="none" points="2177.0833,2126.9625,2162.5,2168.6292,2147.9167,2126.9625,2177.0833,2126.9625" style="stroke: #A80036; stroke-width: 2.0833333333333335;"/><text fill="#000000" font-family="sans-serif" font-size="27.0833" lengthAdjust="spacingAndGlyphs" textLength="139.5833" x="2164.5833" y="2098.9482">implements</text><path d="M925.0396,2262.5 C973.2188,2262.5 1021.3979,2262.5 1069.5771,2262.5 " fill="none" style="stroke: #A80036; stroke-width: 2.0833333333333335; stroke-dasharray: 7.0,7.0;"/><path d="M738.5271,2217.5163 C824.5604,2185.9458 946.5354,2146.5104 1057.6396,2129.8604 C1312.8146,2091.6229 1382.1479,2097.975 1638.1938,2129.8604 C1705.7458,2138.2729 1777.0854,2152.5583 1844.6521,2168.7167 " fill="none" style="stroke: #A80036; stroke-width: 2.0833333333333335; stroke-dasharray: 7.0,7.0;"/><path d="M1354.0438,254.8125 C1338.4979,408.8542 1298.5063,805.1354 1279.3229,995.2292 " fill="none" style="stroke: #A80036; stroke-width: 2.0833333333333335; stroke-dasharray: 7.0,7.0;"/><polygon fill="none" points="1293.775,997.275,1275.0813,1037.2667,1264.7542,994.3458,1293.775,997.275" style="stroke: #A80036; stroke-width: 2.0833333333333335;"/><text fill="#000000" font-family="sans-serif" font-size="27.0833" lengthAdjust="spacingAndGlyphs" textLength="139.5833" x="1343.75" y="637.4898">implements</text><path d="M2154.25,254.8125 C2159.5625,408.8542 2173.1875,805.1354 2179.7292,995.2292 " fill="none" style="stroke: #A80036; stroke-width: 2.0833333333333335; stroke-dasharray: 7.0,7.0;"/><polygon fill="none" points="2194.3125,995.1229,2181.1667,1037.2667,2165.1667,996.1271,2194.3125,995.1229" style="stroke: #A80036; stroke-width: 2.0833333333333335;"/><text fill="#000000" font-family="sans-serif" font-size="27.0833" lengthAdjust="spacingAndGlyphs" textLength="139.5833" x="2172.9167" y="637.4898">implements</text><path d="M785.4167,240.4167 C785.4167,294.9583 785.4167,386.1354 785.4167,465.9104 " fill="none" style="stroke: #A80036; stroke-width: 2.0833333333333335;"/><text fill="#000000" font-family="sans-serif" font-size="27.0833" lengthAdjust="spacingAndGlyphs" textLength="58.3333" x="787.5" y="351.0315">uses</text><polygon fill="#000000" points="807.2917,369.4824,813.5417,381.9824,819.7917,369.4824,807.2917,369.4824" style="stroke: #000000; stroke-width: 2.0833333333333335;"/></g></svg>