<?xml version="1.0" encoding="UTF-8" standalone="no"?><svg xmlns="http://www.w3.org/2000/svg" xmlns:xlink="http://www.w3.org/1999/xlink" contentScriptType="application/ecmascript" contentStyleType="text/css" height="2529.1667px" preserveAspectRatio="none" style="width:3368px;height:2529px;" version="1.1" viewBox="0 0 3368 2529" width="3368.75px" zoomAndPan="magnify"><defs><filter height="300%" id="fp2ifop" width="300%" x="-1" y="-1"><feGaussianBlur result="blurOut" stdDeviation="4.166666666666667"/><feColorMatrix in="blurOut" result="blurOut2" type="matrix" values="0 0 0 0 0 0 0 0 0 0 0 0 0 0 0 0 0 0 .4 0"/><feOffset dx="8.333333333333334" dy="8.333333333333334" in="blurOut2" result="blurOut3"/><feBlend in="SourceGraphic" in2="blurOut3" mode="normal"/></filter></defs><g><!--cluster org.eclipse.keyple.seproxy--><polygon fill="#FFFFFF" filter="url(#fp2ifop)" points="45.8333,433.3333,452.0833,433.3333,466.6667,482.5195,3354.1667,482.5195,3354.1667,2514.5833,45.8333,2514.5833,45.8333,433.3333" style="stroke: #000000; stroke-width: 4.166666666666667;"/><line style="stroke: #000000; stroke-width: 4.166666666666667;" x1="45.8333" x2="466.6667" y1="482.5195" y2="482.5195"/><text fill="#000000" font-family="sans-serif" font-size="29.1667" font-weight="bold" lengthAdjust="spacingAndGlyphs" textLength="393.75" x="54.1667" y="467.7775">org.eclipse.keyple.seproxy</text><!--cluster event--><polygon fill="#FFFFFF" filter="url(#fp2ifop)" points="275,966.6667,372.9167,966.6667,387.5,1015.8529,3304.1667,1015.8529,3304.1667,2160.4167,275,2160.4167,275,966.6667" style="stroke: #000000; stroke-width: 4.166666666666667;"/><line style="stroke: #000000; stroke-width: 4.166666666666667;" x1="275" x2="387.5" y1="1015.8529" y2="1015.8529"/><text fill="#000000" font-family="sans-serif" font-size="29.1667" font-weight="bold" lengthAdjust="spacingAndGlyphs" textLength="85.4167" x="283.3333" y="1001.1108">event</text><!--cluster ##236--><!--cluster external.terminalapplication--><polygon fill="#3399FF" filter="url(#fp2ifop)" points="1272.9167,50,1693.75,50,1708.3333,99.1862,3183.3333,99.1862,3183.3333,329.1667,1272.9167,329.1667,1272.9167,50" style="stroke: #000000; stroke-width: 4.166666666666667;"/><line style="stroke: #000000; stroke-width: 4.166666666666667;" x1="1272.9167" x2="1708.3333" y1="99.1862" y2="99.1862"/><text fill="#000000" font-family="sans-serif" font-size="29.1667" font-weight="bold" lengthAdjust="spacingAndGlyphs" textLength="408.3333" x="1281.25" y="84.4442">external.terminalapplication</text><!--class SeProxyService--><rect fill="#FEFECE" filter="url(#fp2ifop)" height="318.8314" style="stroke: #A80036; stroke-width: 3.125;" width="470.8333" x="1200" y="550"/><ellipse cx="1299.4792" cy="591.862" fill="#ADD1B2" rx="22.9167" ry="22.9167" style="stroke: #A80036; stroke-width: 2.0833333333333335;"/><path d="M1305.2409,583.2682 Q1305.5664,582.8125 1305.957,582.5846 Q1306.3477,582.3568 1306.8034,582.3568 Q1307.5846,582.3568 1308.0729,582.8939 Q1308.5612,583.431 1308.5612,584.7005 L1308.5612,587.7279 Q1308.5612,588.9974 1308.0729,589.5508 Q1307.5846,590.1042 1306.8034,590.1042 Q1306.0872,590.1042 1305.6641,589.681 Q1305.2409,589.2904 1305.013,588.2161 Q1304.9154,587.4674 1304.5247,587.0768 Q1303.8411,586.2956 1302.5716,585.8398 Q1301.3021,585.3841 1300,585.3841 Q1298.4049,585.3841 1297.0866,586.0677 Q1295.7682,586.7513 1294.7428,588.3138 Q1293.7174,589.8763 1293.7174,592.0247 L1293.7174,594.3034 Q1293.7174,596.875 1295.5729,598.584 Q1297.4284,600.293 1300.7487,600.293 Q1302.7018,600.293 1304.069,599.7721 Q1304.8828,599.4466 1305.7617,598.5352 Q1306.3151,597.9818 1306.6243,597.819 Q1306.9336,597.6563 1307.3568,597.6563 Q1308.0404,597.6563 1308.5775,598.1934 Q1309.1146,598.7305 1309.1146,599.4466 Q1309.1146,600.1628 1308.3984,601.0091 Q1307.3568,602.2135 1305.6966,602.8971 Q1303.4505,603.8411 1300.7487,603.8411 Q1297.5911,603.8411 1295.0846,602.5391 Q1293.0339,601.4974 1291.6016,599.2676 Q1290.1693,597.0378 1290.1693,594.3685 L1290.1693,591.9596 Q1290.1693,589.1927 1291.4551,586.8001 Q1292.7409,584.4076 1295.0195,583.1217 Q1297.2982,581.8359 1299.8698,581.8359 Q1301.3997,581.8359 1302.7507,582.1777 Q1304.1016,582.5195 1305.2409,583.2682 Z "/><text fill="#000000" font-family="sans-serif" font-size="25" font-style="italic" lengthAdjust="spacingAndGlyphs" textLength="137.5" x="1400.5208" y="586.3688">«Singleton»</text><ellipse cx="1352.6042" cy="606.543" fill="#84BE84" rx="6.25" ry="6.25" style="stroke: #038048; stroke-width: 2.0833333333333335;"/><text fill="#000000" font-family="sans-serif" font-size="25" font-weight="bold" lengthAdjust="spacingAndGlyphs" textLength="50" x="1365.1042" y="617.8141">final</text><text fill="#000000" font-family="sans-serif" font-size="25" lengthAdjust="spacingAndGlyphs" textLength="175" x="1421.3542" y="617.8141">SeProxyService</text><line style="stroke: #A80036; stroke-width: 3.125;" x1="1202.0833" x2="1668.75" y1="633.724" y2="633.724"/><rect fill="none" height="12.5" style="stroke: #C82930; stroke-width: 2.0833333333333335;" width="12.5" x="1216.6667" y="653.3447"/><text fill="#000000" font-family="sans-serif" font-size="22.9167" lengthAdjust="spacingAndGlyphs" textLength="104.1667" x="1241.6667" y="665.8468">int version</text><line style="stroke: #A80036; stroke-width: 3.125;" x1="1202.0833" x2="1668.75" y1="679.2155" y2="679.2155"/><text fill="#000000" font-family="sans-serif" font-size="22.9167" lengthAdjust="spacingAndGlyphs" textLength="297.9167" x="1241.6667" y="711.3383">List&lt;ReadersPlugin&gt; plugins()</text><rect fill="#F24D5C" height="12.5" style="stroke: #C82930; stroke-width: 2.0833333333333335;" width="12.5" x="1216.6667" y="727.6611"/><text fill="#000000" font-family="sans-serif" font-size="22.9167" lengthAdjust="spacingAndGlyphs" textLength="179.1667" x="1241.6667" y="740.1632">SeProxyService()</text><ellipse cx="1222.9167" cy="762.736" fill="#84BE84" rx="6.25" ry="6.25" style="stroke: #038048; stroke-width: 2.0833333333333335;"/><text fill="#000000" font-family="sans-serif" font-size="22.9167" lengthAdjust="spacingAndGlyphs" text-decoration="underline" textLength="302.0833" x="1241.6667" y="768.988">SeProxyService getInstance()</text><line style="stroke: #000000; stroke-width: 1.0;" x1="1241.6667" x2="1543.75" y1="773.1547" y2="773.1547"/><ellipse cx="1222.9167" cy="791.5609" fill="#84BE84" rx="6.25" ry="6.25" style="stroke: #038048; stroke-width: 2.0833333333333335;"/><text fill="#000000" font-family="sans-serif" font-size="22.9167" lengthAdjust="spacingAndGlyphs" textLength="416.6667" x="1241.6667" y="797.8129">setPlugins(List&lt;ReadersPlugin&gt; plugins())</text><ellipse cx="1222.9167" cy="820.3857" fill="#84BE84" rx="6.25" ry="6.25" style="stroke: #038048; stroke-width: 2.0833333333333335;"/><text fill="#000000" font-family="sans-serif" font-size="22.9167" lengthAdjust="spacingAndGlyphs" textLength="393.75" x="1241.6667" y="826.6378">SortedSet&lt;ReadersPlugin&gt; getPlugins()</text><ellipse cx="1222.9167" cy="849.2106" fill="#84BE84" rx="6.25" ry="6.25" style="stroke: #038048; stroke-width: 2.0833333333333335;"/><text fill="#000000" font-family="sans-serif" font-size="22.9167" lengthAdjust="spacingAndGlyphs" textLength="156.25" x="1241.6667" y="855.4626">int getVersion()</text><!--class ReadersPlugin--><rect fill="#FEFECE" filter="url(#fp2ifop)" height="128.8249" style="stroke: #A80036; stroke-width: 3.125;" width="556.25" x="1744.7917" y="2322.9167"/><ellipse cx="1917.1875" cy="2356.25" fill="#B4A7E5" rx="22.9167" ry="22.9167" style="stroke: #A80036; stroke-width: 2.0833333333333335;"/><path d="M1919.1732,2349.2513 L1919.1732,2363.1185 L1922.7539,2363.1185 Q1924.0234,2363.1185 1924.5768,2363.6068 Q1925.1302,2364.0951 1925.1302,2364.9089 Q1925.1302,2365.6901 1924.5768,2366.1784 Q1924.0234,2366.6667 1922.7539,2366.6667 L1912.0443,2366.6667 Q1910.7747,2366.6667 1910.2214,2366.1784 Q1909.668,2365.6901 1909.668,2364.8763 Q1909.668,2364.0951 1910.2214,2363.6068 Q1910.7747,2363.1185 1912.0443,2363.1185 L1915.625,2363.1185 L1915.625,2349.2513 L1912.0443,2349.2513 Q1910.7747,2349.2513 1910.2214,2348.763 Q1909.668,2348.2747 1909.668,2347.4609 Q1909.668,2346.6797 1910.2214,2346.1914 Q1910.7747,2345.7031 1912.0443,2345.7031 L1922.7539,2345.7031 Q1924.0234,2345.7031 1924.5768,2346.1914 Q1925.1302,2346.6797 1925.1302,2347.4609 Q1925.1302,2348.2747 1924.5768,2348.763 Q1924.0234,2349.2513 1922.7539,2349.2513 L1919.1732,2349.2513 Z "/><ellipse cx="1970.3125" cy="2355.2083" fill="#84BE84" rx="6.25" ry="6.25" style="stroke: #038048; stroke-width: 2.0833333333333335;"/><text fill="#000000" font-family="sans-serif" font-size="25" font-style="italic" lengthAdjust="spacingAndGlyphs" textLength="170.8333" x="1982.8125" y="2366.4795">ReadersPlugin</text><line style="stroke: #A80036; stroke-width: 3.125;" x1="1746.875" x2="2298.9583" y1="2389.5833" y2="2389.5833"/><line style="stroke: #A80036; stroke-width: 3.125;" x1="1746.875" x2="2298.9583" y1="2406.25" y2="2406.25"/><ellipse cx="1767.7083" cy="2432.1208" fill="#84BE84" rx="6.25" ry="6.25" style="stroke: #038048; stroke-width: 2.0833333333333335;"/><text fill="#000000" font-family="sans-serif" font-size="22.9167" lengthAdjust="spacingAndGlyphs" textLength="502.0833" x="1786.4583" y="2438.3728">SortedSet&lt;? extends ProxyReader&gt; getReaders()</text><!--class ProxyReader--><rect fill="#FEFECE" filter="url(#fp2ifop)" height="186.4746" style="stroke: #A80036; stroke-width: 3.125;" width="741.6667" x="2466.6667" y="2293.75"/><ellipse cx="2742.1875" cy="2327.0833" fill="#B4A7E5" rx="22.9167" ry="22.9167" style="stroke: #A80036; stroke-width: 2.0833333333333335;"/><path d="M2744.1732,2320.0846 L2744.1732,2333.9518 L2747.7539,2333.9518 Q2749.0234,2333.9518 2749.5768,2334.4401 Q2750.1302,2334.9284 2750.1302,2335.7422 Q2750.1302,2336.5234 2749.5768,2337.0117 Q2749.0234,2337.5 2747.7539,2337.5 L2737.0443,2337.5 Q2735.7747,2337.5 2735.2214,2337.0117 Q2734.668,2336.5234 2734.668,2335.7096 Q2734.668,2334.9284 2735.2214,2334.4401 Q2735.7747,2333.9518 2737.0443,2333.9518 L2740.625,2333.9518 L2740.625,2320.0846 L2737.0443,2320.0846 Q2735.7747,2320.0846 2735.2214,2319.5964 Q2734.668,2319.1081 2734.668,2318.2943 Q2734.668,2317.513 2735.2214,2317.0247 Q2735.7747,2316.5365 2737.0443,2316.5365 L2747.7539,2316.5365 Q2749.0234,2316.5365 2749.5768,2317.0247 Q2750.1302,2317.513 2750.1302,2318.2943 Q2750.1302,2319.1081 2749.5768,2319.5964 Q2749.0234,2320.0846 2747.7539,2320.0846 L2744.1732,2320.0846 Z "/><ellipse cx="2795.3125" cy="2326.0417" fill="#84BE84" rx="6.25" ry="6.25" style="stroke: #038048; stroke-width: 2.0833333333333335;"/><text fill="#000000" font-family="sans-serif" font-size="25" font-style="italic" lengthAdjust="spacingAndGlyphs" textLength="150" x="2807.8125" y="2337.3128">ProxyReader</text><line style="stroke: #A80036; stroke-width: 3.125;" x1="2468.75" x2="3206.25" y1="2360.4167" y2="2360.4167"/><line style="stroke: #A80036; stroke-width: 3.125;" x1="2468.75" x2="3206.25" y1="2377.0833" y2="2377.0833"/><ellipse cx="2489.5833" cy="2402.9541" fill="#84BE84" rx="6.25" ry="6.25" style="stroke: #038048; stroke-width: 2.0833333333333335;"/><text fill="#000000" font-family="sans-serif" font-size="22.9167" lengthAdjust="spacingAndGlyphs" textLength="222.9167" x="2508.3333" y="2409.2061">boolean isSePresent()</text><ellipse cx="2489.5833" cy="2431.779" fill="#84BE84" rx="6.25" ry="6.25" style="stroke: #038048; stroke-width: 2.0833333333333335;"/><text fill="#000000" font-family="sans-serif" font-size="22.9167" lengthAdjust="spacingAndGlyphs" textLength="608.3333" x="2508.3333" y="2438.031">setSeProtocols(Map&lt;SeProtocol, String&gt; seProtocolSettings)</text><ellipse cx="2489.5833" cy="2460.6038" fill="#84BE84" rx="6.25" ry="6.25" style="stroke: #038048; stroke-width: 2.0833333333333335;"/><text fill="#000000" font-family="sans-serif" font-size="22.9167" lengthAdjust="spacingAndGlyphs" textLength="256.25" x="2508.3333" y="2466.8559">SeResponseSet transmit(</text><text fill="#000000" font-family="sans-serif" font-size="22.9167" font-weight="bold" lengthAdjust="spacingAndGlyphs" textLength="47.9167" x="2764.5833" y="2466.8559">final</text><text fill="#000000" font-family="sans-serif" font-size="22.9167" lengthAdjust="spacingAndGlyphs" textLength="377.0833" x="2818.75" y="2466.8559">SeRequestSet seApplicationRequest)</text><polygon fill="#FBFB77" filter="url(#fp2ifop)" points="1000,2342.7083,1000,2431.6732,1600,2431.6732,1600,2363.5417,1579.1667,2342.7083,1000,2342.7083" style="stroke: #A80036; stroke-width: 2.0833333333333335;"/><line style="stroke: #A80036; stroke-width: 2.0833333333333335;" x1="1579.1667" x2="1579.1667" y1="2342.7083" y2="2363.5417"/><line style="stroke: #A80036; stroke-width: 2.0833333333333335;" x1="1600" x2="1579.1667" y1="2363.5417" y2="2363.5417"/><text fill="#000000" font-family="sans-serif" font-size="27.0833" lengthAdjust="spacingAndGlyphs" textLength="556.25" x="1012.5" y="2381.2398">ReadersPlugin &amp; ProxyReader interfaces shall</text><text fill="#000000" font-family="sans-serif" font-size="27.0833" lengthAdjust="spacingAndGlyphs" textLength="504.1667" x="1012.5" y="2415.3056">be implemented by every readers' plugins.</text><!--class ReaderEvent--><rect fill="#FEFECE" filter="url(#fp2ifop)" height="186.4746" style="stroke: #A80036; stroke-width: 3.125;" width="237.5" x="2983.3333" y="1483.3333"/><ellipse cx="3014.5833" cy="1516.6667" fill="#EB937F" rx="22.9167" ry="22.9167" style="stroke: #A80036; stroke-width: 2.0833333333333335;"/><path d="M3012.207,1518.3268 L3012.207,1523.5352 L3021.224,1523.5352 L3021.224,1521.6146 Q3021.224,1520.3451 3021.7285,1519.7917 Q3022.2331,1519.2383 3023.0143,1519.2383 Q3023.7956,1519.2383 3024.2839,1519.7917 Q3024.7721,1520.3451 3024.7721,1521.6146 L3024.7721,1527.0833 L3008.1055,1527.0833 Q3006.8034,1527.0833 3006.2663,1526.5951 Q3005.7292,1526.1068 3005.7292,1525.293 Q3005.7292,1524.5117 3006.2826,1524.0234 Q3006.8359,1523.5352 3008.1055,1523.5352 L3008.6589,1523.5352 L3008.6589,1509.668 L3008.1055,1509.668 Q3006.8034,1509.668 3006.2663,1509.1797 Q3005.7292,1508.6914 3005.7292,1507.8776 Q3005.7292,1507.0964 3006.2663,1506.6081 Q3006.8034,1506.1198 3008.1055,1506.1198 L3023.9909,1506.1198 L3023.9909,1511.5234 Q3023.9909,1512.793 3023.5189,1513.3301 Q3023.0469,1513.8672 3022.2331,1513.8672 Q3021.4518,1513.8672 3020.9635,1513.3301 Q3020.4753,1512.793 3020.4753,1511.5234 L3020.4753,1509.668 L3012.207,1509.668 L3012.207,1514.7786 L3015.2995,1514.7786 Q3015.2995,1513.4115 3015.5599,1513.0208 Q3016.1133,1512.1745 3017.0898,1512.1745 Q3017.8711,1512.1745 3018.3594,1512.7116 Q3018.8477,1513.2487 3018.8477,1514.5182 L3018.8477,1518.6198 Q3018.8477,1519.7591 3018.5872,1520.1497 Q3018.0339,1520.9635 3017.0898,1520.9635 Q3016.1133,1520.9635 3015.5599,1520.1172 Q3015.2995,1519.7266 3015.2995,1518.3268 L3012.207,1518.3268 Z "/><ellipse cx="3054.1667" cy="1515.625" fill="#84BE84" rx="6.25" ry="6.25" style="stroke: #038048; stroke-width: 2.0833333333333335;"/><text fill="#000000" font-family="sans-serif" font-size="25" lengthAdjust="spacingAndGlyphs" textLength="147.9167" x="3066.6667" y="1526.8962">ReaderEvent</text><line style="stroke: #A80036; stroke-width: 3.125;" x1="2985.4167" x2="3218.75" y1="1550" y2="1550"/><text fill="#000000" font-family="sans-serif" font-size="22.9167" lengthAdjust="spacingAndGlyphs" textLength="106.25" x="2995.8333" y="1582.1228">IO_ERROR</text><text fill="#000000" font-family="sans-serif" font-size="22.9167" lengthAdjust="spacingAndGlyphs" textLength="147.9167" x="2995.8333" y="1610.9477">SE_INSERTION</text><text fill="#000000" font-family="sans-serif" font-size="22.9167" lengthAdjust="spacingAndGlyphs" textLength="145.8333" x="2995.8333" y="1639.7725">SE_REMOVAL</text><line style="stroke: #A80036; stroke-width: 3.125;" x1="2985.4167" x2="3218.75" y1="1653.1413" y2="1653.1413"/><!--class AbstractObservableReader--><rect fill="#FEFECE" filter="url(#fp2ifop)" height="215.2995" style="stroke: #A80036; stroke-width: 3.125;" width="764.5833" x="2455.2083" y="1847.9167"/><ellipse cx="2659.8958" cy="1881.25" fill="#A9DCDF" rx="22.9167" ry="22.9167" style="stroke: #A80036; stroke-width: 2.0833333333333335;"/><path d="M2664.4531,1884.9284 L2655.8268,1884.9284 L2654.9479,1887.0768 L2655.8268,1887.0768 Q2657.0964,1887.0768 2657.6497,1887.5651 Q2658.2031,1888.0534 2658.2031,1888.8672 Q2658.2031,1889.6484 2657.6497,1890.1367 Q2657.0964,1890.625 2655.8268,1890.625 L2651.0417,1890.625 Q2649.7721,1890.625 2649.235,1890.1367 Q2648.6979,1889.6484 2648.6979,1888.8346 Q2648.6979,1888.0534 2649.2676,1887.5488 Q2649.8372,1887.0443 2651.1393,1887.0768 L2656.7057,1873.2096 L2654.3945,1873.2096 Q2653.125,1873.2096 2652.5716,1872.7214 Q2652.0182,1872.2331 2652.0182,1871.4193 Q2652.0182,1870.638 2652.5716,1870.1497 Q2653.125,1869.6615 2654.3945,1869.6615 L2662.0443,1869.6615 L2669.1081,1887.0768 Q2670.3451,1887.0768 2670.7357,1887.3698 Q2671.5495,1887.9232 2671.5495,1888.8672 Q2671.5495,1889.6484 2671.0124,1890.1367 Q2670.4753,1890.625 2669.2057,1890.625 L2664.4206,1890.625 Q2663.151,1890.625 2662.5977,1890.1367 Q2662.0443,1889.6484 2662.0443,1888.8346 Q2662.0443,1888.0534 2662.5977,1887.5651 Q2663.151,1887.0768 2664.4206,1887.0768 L2665.2995,1887.0768 L2664.4531,1884.9284 Z M2662.9557,1881.3802 L2660.1237,1874.349 L2657.2591,1881.3802 L2662.9557,1881.3802 Z "/><ellipse cx="2713.0208" cy="1880.2083" fill="#84BE84" rx="6.25" ry="6.25" style="stroke: #038048; stroke-width: 2.0833333333333335;"/><text fill="#000000" font-family="sans-serif" font-size="25" font-style="italic" lengthAdjust="spacingAndGlyphs" textLength="314.5833" x="2725.5208" y="1891.4795">AbstractObservableReader</text><line style="stroke: #A80036; stroke-width: 3.125;" x1="2457.2917" x2="3217.7083" y1="1914.5833" y2="1914.5833"/><line style="stroke: #A80036; stroke-width: 3.125;" x1="2457.2917" x2="3217.7083" y1="1931.25" y2="1931.25"/><ellipse cx="2478.125" cy="1957.1208" fill="#84BE84" rx="6.25" ry="6.25" style="stroke: #038048; stroke-width: 2.0833333333333335;"/><text fill="#000000" font-family="sans-serif" font-size="22.9167" font-weight="bold" lengthAdjust="spacingAndGlyphs" textLength="47.9167" x="2496.875" y="1963.3728">final</text><text fill="#000000" font-family="sans-serif" font-size="22.9167" lengthAdjust="spacingAndGlyphs" textLength="656.25" x="2551.0417" y="1963.3728">void setSeProtocols(Map&lt;SeProtocol, String&gt; seProtocolSettings)</text><ellipse cx="2478.125" cy="1985.9456" fill="#84BE84" rx="6.25" ry="6.25" style="stroke: #038048; stroke-width: 2.0833333333333335;"/><text fill="#000000" font-family="sans-serif" font-size="22.9167" lengthAdjust="spacingAndGlyphs" textLength="256.25" x="2496.875" y="1992.1977">SeResponseSet transmit(</text><text fill="#000000" font-family="sans-serif" font-size="22.9167" font-weight="bold" lengthAdjust="spacingAndGlyphs" textLength="47.9167" x="2753.125" y="1992.1977">final</text><text fill="#000000" font-family="sans-serif" font-size="22.9167" lengthAdjust="spacingAndGlyphs" textLength="389.5833" x="2807.2917" y="1992.1977">SeRequestSet seApplicationRequests)</text><polygon fill="#FFFF44" points="2478.125,2004.3538,2486.4583,2012.6872,2478.125,2021.0205,2469.7917,2012.6872" style="stroke: #B38D22; stroke-width: 2.0833333333333335;"/><text fill="#000000" font-family="sans-serif" font-size="22.9167" font-style="italic" lengthAdjust="spacingAndGlyphs" textLength="679.1667" x="2496.875" y="2021.0225">SeResponseSet processSeRequestSet(SeRequestSet requestSet)</text><ellipse cx="2478.125" cy="2043.5954" fill="#84BE84" rx="6.25" ry="6.25" style="stroke: #038048; stroke-width: 2.0833333333333335;"/><text fill="#000000" font-family="sans-serif" font-size="22.9167" font-weight="bold" lengthAdjust="spacingAndGlyphs" textLength="47.9167" x="2496.875" y="2049.8474">final</text><text fill="#000000" font-family="sans-serif" font-size="22.9167" lengthAdjust="spacingAndGlyphs" textLength="308.3333" x="2551.0417" y="2049.8474">int compareTo(ProxyReader o)</text><!--class ReaderObserver--><rect fill="#FEFECE" filter="url(#fp2ifop)" height="128.8249" style="stroke: #A80036; stroke-width: 3.125;" width="739.5833" x="2463.5417" y="1162.5"/><ellipse cx="2717.1875" cy="1195.8333" fill="#B4A7E5" rx="22.9167" ry="22.9167" style="stroke: #A80036; stroke-width: 2.0833333333333335;"/><path d="M2719.1732,1188.8346 L2719.1732,1202.7018 L2722.7539,1202.7018 Q2724.0234,1202.7018 2724.5768,1203.1901 Q2725.1302,1203.6784 2725.1302,1204.4922 Q2725.1302,1205.2734 2724.5768,1205.7617 Q2724.0234,1206.25 2722.7539,1206.25 L2712.0443,1206.25 Q2710.7747,1206.25 2710.2214,1205.7617 Q2709.668,1205.2734 2709.668,1204.4596 Q2709.668,1203.6784 2710.2214,1203.1901 Q2710.7747,1202.7018 2712.0443,1202.7018 L2715.625,1202.7018 L2715.625,1188.8346 L2712.0443,1188.8346 Q2710.7747,1188.8346 2710.2214,1188.3464 Q2709.668,1187.8581 2709.668,1187.0443 Q2709.668,1186.263 2710.2214,1185.7747 Q2710.7747,1185.2865 2712.0443,1185.2865 L2722.7539,1185.2865 Q2724.0234,1185.2865 2724.5768,1185.7747 Q2725.1302,1186.263 2725.1302,1187.0443 Q2725.1302,1187.8581 2724.5768,1188.3464 Q2724.0234,1188.8346 2722.7539,1188.8346 L2719.1732,1188.8346 Z "/><ellipse cx="2770.3125" cy="1194.7917" fill="#84BE84" rx="6.25" ry="6.25" style="stroke: #038048; stroke-width: 2.0833333333333335;"/><text fill="#000000" font-family="sans-serif" font-size="25" font-style="italic" lengthAdjust="spacingAndGlyphs" textLength="191.6667" x="2782.8125" y="1206.0628">ReaderObserver</text><line style="stroke: #A80036; stroke-width: 3.125;" x1="2465.625" x2="3201.0417" y1="1229.1667" y2="1229.1667"/><line style="stroke: #A80036; stroke-width: 3.125;" x1="2465.625" x2="3201.0417" y1="1245.8333" y2="1245.8333"/><ellipse cx="2486.4583" cy="1271.7041" fill="#84BE84" rx="6.25" ry="6.25" style="stroke: #038048; stroke-width: 2.0833333333333335;"/><text fill="#000000" font-family="sans-serif" font-size="22.9167" lengthAdjust="spacingAndGlyphs" textLength="685.4167" x="2505.2083" y="1277.9561">update(AbstractObservableReader observable, ReaderEvent event)</text><ellipse cx="2833.3333" cy="1577.0833" fill="#000000" rx="4.1667" ry="4.1667" style="stroke: none; stroke-width: 2.0833333333333335;"/><!--class AbstractPluginEvent--><rect fill="#FEFECE" filter="url(#fp2ifop)" height="100" style="stroke: #A80036; stroke-width: 3.125;" width="320.8333" x="1233.3333" y="1527.0833"/><ellipse cx="1264.5833" cy="1560.4167" fill="#A9DCDF" rx="22.9167" ry="22.9167" style="stroke: #A80036; stroke-width: 2.0833333333333335;"/><path d="M1269.1406,1564.0951 L1260.5143,1564.0951 L1259.6354,1566.2435 L1260.5143,1566.2435 Q1261.7839,1566.2435 1262.3372,1566.7318 Q1262.8906,1567.2201 1262.8906,1568.0339 Q1262.8906,1568.8151 1262.3372,1569.3034 Q1261.7839,1569.7917 1260.5143,1569.7917 L1255.7292,1569.7917 Q1254.4596,1569.7917 1253.9225,1569.3034 Q1253.3854,1568.8151 1253.3854,1568.0013 Q1253.3854,1567.2201 1253.9551,1566.7155 Q1254.5247,1566.2109 1255.8268,1566.2435 L1261.3932,1552.3763 L1259.082,1552.3763 Q1257.8125,1552.3763 1257.2591,1551.888 Q1256.7057,1551.3997 1256.7057,1550.5859 Q1256.7057,1549.8047 1257.2591,1549.3164 Q1257.8125,1548.8281 1259.082,1548.8281 L1266.7318,1548.8281 L1273.7956,1566.2435 Q1275.0326,1566.2435 1275.4232,1566.5365 Q1276.237,1567.0898 1276.237,1568.0339 Q1276.237,1568.8151 1275.6999,1569.3034 Q1275.1628,1569.7917 1273.8932,1569.7917 L1269.1081,1569.7917 Q1267.8385,1569.7917 1267.2852,1569.3034 Q1266.7318,1568.8151 1266.7318,1568.0013 Q1266.7318,1567.2201 1267.2852,1566.7318 Q1267.8385,1566.2435 1269.1081,1566.2435 L1269.987,1566.2435 L1269.1406,1564.0951 Z M1267.6432,1560.5469 L1264.8112,1553.5156 L1261.9466,1560.5469 L1267.6432,1560.5469 Z "/><ellipse cx="1304.1667" cy="1559.375" fill="#84BE84" rx="6.25" ry="6.25" style="stroke: #038048; stroke-width: 2.0833333333333335;"/><text fill="#000000" font-family="sans-serif" font-size="25" font-style="italic" lengthAdjust="spacingAndGlyphs" textLength="231.25" x="1316.6667" y="1570.6462">AbstractPluginEvent</text><line style="stroke: #A80036; stroke-width: 3.125;" x1="1235.4167" x2="1552.0833" y1="1593.75" y2="1593.75"/><line style="stroke: #A80036; stroke-width: 3.125;" x1="1235.4167" x2="1552.0833" y1="1610.4167" y2="1610.4167"/><!--class ErrorPluginEvent--><rect fill="#FEFECE" filter="url(#fp2ifop)" height="186.4746" style="stroke: #A80036; stroke-width: 3.125;" width="437.5" x="1008.3333" y="1133.3333"/><ellipse cx="1110.9375" cy="1166.6667" fill="#ADD1B2" rx="22.9167" ry="22.9167" style="stroke: #A80036; stroke-width: 2.0833333333333335;"/><path d="M1116.6992,1158.0729 Q1117.0247,1157.6172 1117.4154,1157.3893 Q1117.806,1157.1615 1118.2617,1157.1615 Q1119.043,1157.1615 1119.5313,1157.6986 Q1120.0195,1158.2357 1120.0195,1159.5052 L1120.0195,1162.5326 Q1120.0195,1163.8021 1119.5313,1164.3555 Q1119.043,1164.9089 1118.2617,1164.9089 Q1117.5456,1164.9089 1117.1224,1164.4857 Q1116.6992,1164.0951 1116.4714,1163.0208 Q1116.3737,1162.2721 1115.9831,1161.8815 Q1115.2995,1161.1003 1114.0299,1160.6445 Q1112.7604,1160.1888 1111.4583,1160.1888 Q1109.8633,1160.1888 1108.5449,1160.8724 Q1107.2266,1161.556 1106.2012,1163.1185 Q1105.1758,1164.681 1105.1758,1166.8294 L1105.1758,1169.1081 Q1105.1758,1171.6797 1107.0313,1173.3887 Q1108.8867,1175.0977 1112.207,1175.0977 Q1114.1602,1175.0977 1115.5273,1174.5768 Q1116.3411,1174.2513 1117.2201,1173.3398 Q1117.7734,1172.7865 1118.0827,1172.6237 Q1118.3919,1172.4609 1118.8151,1172.4609 Q1119.4987,1172.4609 1120.0358,1172.998 Q1120.5729,1173.5352 1120.5729,1174.2513 Q1120.5729,1174.9674 1119.8568,1175.8138 Q1118.8151,1177.0182 1117.1549,1177.7018 Q1114.9089,1178.6458 1112.207,1178.6458 Q1109.0495,1178.6458 1106.543,1177.3438 Q1104.4922,1176.3021 1103.0599,1174.0723 Q1101.6276,1171.8424 1101.6276,1169.1732 L1101.6276,1166.7643 Q1101.6276,1163.9974 1102.9134,1161.6048 Q1104.1992,1159.2122 1106.4779,1157.9264 Q1108.7565,1156.6406 1111.3281,1156.6406 Q1112.8581,1156.6406 1114.209,1156.9824 Q1115.5599,1157.3242 1116.6992,1158.0729 Z "/><ellipse cx="1164.0625" cy="1165.625" fill="#84BE84" rx="6.25" ry="6.25" style="stroke: #038048; stroke-width: 2.0833333333333335;"/><text fill="#000000" font-family="sans-serif" font-size="25" lengthAdjust="spacingAndGlyphs" textLength="191.6667" x="1176.5625" y="1176.8962">ErrorPluginEvent</text><line style="stroke: #A80036; stroke-width: 3.125;" x1="1010.4167" x2="1443.75" y1="1200" y2="1200"/><rect fill="none" height="12.5" style="stroke: #C82930; stroke-width: 2.0833333333333335;" width="12.5" x="1025" y="1219.6208"/><text fill="#000000" font-family="sans-serif" font-size="22.9167" font-weight="bold" lengthAdjust="spacingAndGlyphs" textLength="47.9167" x="1050" y="1232.1228">final</text><text fill="#000000" font-family="sans-serif" font-size="22.9167" lengthAdjust="spacingAndGlyphs" textLength="202.0833" x="1104.1667" y="1232.1228">Exception exception</text><line style="stroke: #A80036; stroke-width: 3.125;" x1="1010.4167" x2="1443.75" y1="1245.4915" y2="1245.4915"/><ellipse cx="1031.25" cy="1271.3623" fill="#84BE84" rx="6.25" ry="6.25" style="stroke: #038048; stroke-width: 2.0833333333333335;"/><text fill="#000000" font-family="sans-serif" font-size="22.9167" lengthAdjust="spacingAndGlyphs" textLength="383.3333" x="1050" y="1277.6143">ErrorPluginEvent(Exception exception)</text><ellipse cx="1031.25" cy="1300.1872" fill="#84BE84" rx="6.25" ry="6.25" style="stroke: #038048; stroke-width: 2.0833333333333335;"/><text fill="#000000" font-family="sans-serif" font-size="22.9167" lengthAdjust="spacingAndGlyphs" textLength="250" x="1050" y="1306.4392">Exception getException()</text><!--class ReaderPresencePluginEvent--><rect fill="#FEFECE" filter="url(#fp2ifop)" height="244.1243" style="stroke: #A80036; stroke-width: 3.125;" width="718.75" x="1034.375" y="1833.3333"/><ellipse cx="1207.8125" cy="1866.6667" fill="#ADD1B2" rx="22.9167" ry="22.9167" style="stroke: #A80036; stroke-width: 2.0833333333333335;"/><path d="M1213.5742,1858.0729 Q1213.8997,1857.6172 1214.2904,1857.3893 Q1214.681,1857.1615 1215.1367,1857.1615 Q1215.918,1857.1615 1216.4063,1857.6986 Q1216.8945,1858.2357 1216.8945,1859.5052 L1216.8945,1862.5326 Q1216.8945,1863.8021 1216.4063,1864.3555 Q1215.918,1864.9089 1215.1367,1864.9089 Q1214.4206,1864.9089 1213.9974,1864.4857 Q1213.5742,1864.0951 1213.3464,1863.0208 Q1213.2487,1862.2721 1212.8581,1861.8815 Q1212.1745,1861.1003 1210.9049,1860.6445 Q1209.6354,1860.1888 1208.3333,1860.1888 Q1206.7383,1860.1888 1205.4199,1860.8724 Q1204.1016,1861.556 1203.0762,1863.1185 Q1202.0508,1864.681 1202.0508,1866.8294 L1202.0508,1869.1081 Q1202.0508,1871.6797 1203.9063,1873.3887 Q1205.7617,1875.0977 1209.082,1875.0977 Q1211.0352,1875.0977 1212.4023,1874.5768 Q1213.2161,1874.2513 1214.0951,1873.3398 Q1214.6484,1872.7865 1214.9577,1872.6237 Q1215.2669,1872.4609 1215.6901,1872.4609 Q1216.3737,1872.4609 1216.9108,1872.998 Q1217.4479,1873.5352 1217.4479,1874.2513 Q1217.4479,1874.9674 1216.7318,1875.8138 Q1215.6901,1877.0182 1214.0299,1877.7018 Q1211.7839,1878.6458 1209.082,1878.6458 Q1205.9245,1878.6458 1203.418,1877.3438 Q1201.3672,1876.3021 1199.9349,1874.0723 Q1198.5026,1871.8424 1198.5026,1869.1732 L1198.5026,1866.7643 Q1198.5026,1863.9974 1199.7884,1861.6048 Q1201.0742,1859.2122 1203.3529,1857.9264 Q1205.6315,1856.6406 1208.2031,1856.6406 Q1209.7331,1856.6406 1211.084,1856.9824 Q1212.4349,1857.3242 1213.5742,1858.0729 Z "/><ellipse cx="1260.9375" cy="1865.625" fill="#84BE84" rx="6.25" ry="6.25" style="stroke: #038048; stroke-width: 2.0833333333333335;"/><text fill="#000000" font-family="sans-serif" font-size="25" lengthAdjust="spacingAndGlyphs" textLength="331.25" x="1273.4375" y="1876.8962">ReaderPresencePluginEvent</text><line style="stroke: #A80036; stroke-width: 3.125;" x1="1036.4583" x2="1751.0417" y1="1900" y2="1900"/><rect fill="none" height="12.5" style="stroke: #C82930; stroke-width: 2.0833333333333335;" width="12.5" x="1051.0417" y="1919.6208"/><text fill="#000000" font-family="sans-serif" font-size="22.9167" font-weight="bold" lengthAdjust="spacingAndGlyphs" textLength="47.9167" x="1076.0417" y="1932.1228">final</text><text fill="#000000" font-family="sans-serif" font-size="22.9167" lengthAdjust="spacingAndGlyphs" textLength="147.9167" x="1130.2083" y="1932.1228">boolean added</text><rect fill="none" height="12.5" style="stroke: #C82930; stroke-width: 2.0833333333333335;" width="12.5" x="1051.0417" y="1948.4456"/><text fill="#000000" font-family="sans-serif" font-size="22.9167" font-weight="bold" lengthAdjust="spacingAndGlyphs" textLength="47.9167" x="1076.0417" y="1960.9477">final</text><text fill="#000000" font-family="sans-serif" font-size="22.9167" lengthAdjust="spacingAndGlyphs" textLength="204.1667" x="1130.2083" y="1960.9477">ProxyReader reader</text><line style="stroke: #A80036; stroke-width: 3.125;" x1="1036.4583" x2="1751.0417" y1="1974.3164" y2="1974.3164"/><ellipse cx="1057.2917" cy="2000.1872" fill="#84BE84" rx="6.25" ry="6.25" style="stroke: #038048; stroke-width: 2.0833333333333335;"/><text fill="#000000" font-family="sans-serif" font-size="22.9167" lengthAdjust="spacingAndGlyphs" textLength="664.5833" x="1076.0417" y="2006.4392">ReaderPresencePluginEvent(boolean added, ProxyReader reader)</text><ellipse cx="1057.2917" cy="2029.012" fill="#84BE84" rx="6.25" ry="6.25" style="stroke: #038048; stroke-width: 2.0833333333333335;"/><text fill="#000000" font-family="sans-serif" font-size="22.9167" lengthAdjust="spacingAndGlyphs" textLength="185.4167" x="1076.0417" y="2035.2641">boolean isAdded()</text><ellipse cx="1057.2917" cy="2057.8369" fill="#84BE84" rx="6.25" ry="6.25" style="stroke: #038048; stroke-width: 2.0833333333333335;"/><text fill="#000000" font-family="sans-serif" font-size="22.9167" lengthAdjust="spacingAndGlyphs" textLength="258.3333" x="1076.0417" y="2064.0889">ProxyReader getReader()</text><!--class AbstractObservablePlugin--><rect fill="#FEFECE" filter="url(#fp2ifop)" height="157.6497" style="stroke: #A80036; stroke-width: 3.125;" width="556.25" x="1826.0417" y="1876.0417"/><ellipse cx="1944.2708" cy="1909.375" fill="#A9DCDF" rx="22.9167" ry="22.9167" style="stroke: #A80036; stroke-width: 2.0833333333333335;"/><path d="M1948.8281,1913.0534 L1940.2018,1913.0534 L1939.3229,1915.2018 L1940.2018,1915.2018 Q1941.4714,1915.2018 1942.0247,1915.6901 Q1942.5781,1916.1784 1942.5781,1916.9922 Q1942.5781,1917.7734 1942.0247,1918.2617 Q1941.4714,1918.75 1940.2018,1918.75 L1935.4167,1918.75 Q1934.1471,1918.75 1933.61,1918.2617 Q1933.0729,1917.7734 1933.0729,1916.9596 Q1933.0729,1916.1784 1933.6426,1915.6738 Q1934.2122,1915.1693 1935.5143,1915.2018 L1941.0807,1901.3346 L1938.7695,1901.3346 Q1937.5,1901.3346 1936.9466,1900.8464 Q1936.3932,1900.3581 1936.3932,1899.5443 Q1936.3932,1898.763 1936.9466,1898.2747 Q1937.5,1897.7865 1938.7695,1897.7865 L1946.4193,1897.7865 L1953.4831,1915.2018 Q1954.7201,1915.2018 1955.1107,1915.4948 Q1955.9245,1916.0482 1955.9245,1916.9922 Q1955.9245,1917.7734 1955.3874,1918.2617 Q1954.8503,1918.75 1953.5807,1918.75 L1948.7956,1918.75 Q1947.526,1918.75 1946.9727,1918.2617 Q1946.4193,1917.7734 1946.4193,1916.9596 Q1946.4193,1916.1784 1946.9727,1915.6901 Q1947.526,1915.2018 1948.7956,1915.2018 L1949.6745,1915.2018 L1948.8281,1913.0534 Z M1947.3307,1909.5052 L1944.4987,1902.474 L1941.6341,1909.5052 L1947.3307,1909.5052 Z "/><text fill="#000000" font-family="sans-serif" font-size="25" font-style="italic" lengthAdjust="spacingAndGlyphs" textLength="302.0833" x="1986.9792" y="1919.6045">AbstractObservablePlugin</text><line style="stroke: #A80036; stroke-width: 3.125;" x1="1828.125" x2="2380.2083" y1="1942.7083" y2="1942.7083"/><line style="stroke: #A80036; stroke-width: 3.125;" x1="1828.125" x2="2380.2083" y1="1959.375" y2="1959.375"/><ellipse cx="1848.9583" cy="1985.2458" fill="#84BE84" rx="6.25" ry="6.25" style="stroke: #038048; stroke-width: 2.0833333333333335;"/><text fill="#000000" font-family="sans-serif" font-size="22.9167" lengthAdjust="spacingAndGlyphs" textLength="502.0833" x="1867.7083" y="1991.4978">SortedSet&lt;? extends ProxyReader&gt; getReaders()</text><ellipse cx="1848.9583" cy="2014.0706" fill="#84BE84" rx="6.25" ry="6.25" style="stroke: #038048; stroke-width: 2.0833333333333335;"/><text fill="#000000" font-family="sans-serif" font-size="22.9167" font-weight="bold" lengthAdjust="spacingAndGlyphs" textLength="47.9167" x="1867.7083" y="2020.3227">final</text><text fill="#000000" font-family="sans-serif" font-size="22.9167" lengthAdjust="spacingAndGlyphs" textLength="320.8333" x="1921.875" y="2020.3227">int compareTo(ReadersPlugin o)</text><!--class PluginObserver--><rect fill="#FEFECE" filter="url(#fp2ifop)" height="128.8249" style="stroke: #A80036; stroke-width: 3.125;" width="797.9167" x="1519.7917" y="1162.5"/><ellipse cx="1808.8542" cy="1195.8333" fill="#B4A7E5" rx="22.9167" ry="22.9167" style="stroke: #A80036; stroke-width: 2.0833333333333335;"/><path d="M1810.8398,1188.8346 L1810.8398,1202.7018 L1814.4206,1202.7018 Q1815.6901,1202.7018 1816.2435,1203.1901 Q1816.7969,1203.6784 1816.7969,1204.4922 Q1816.7969,1205.2734 1816.2435,1205.7617 Q1815.6901,1206.25 1814.4206,1206.25 L1803.7109,1206.25 Q1802.4414,1206.25 1801.888,1205.7617 Q1801.3346,1205.2734 1801.3346,1204.4596 Q1801.3346,1203.6784 1801.888,1203.1901 Q1802.4414,1202.7018 1803.7109,1202.7018 L1807.2917,1202.7018 L1807.2917,1188.8346 L1803.7109,1188.8346 Q1802.4414,1188.8346 1801.888,1188.3464 Q1801.3346,1187.8581 1801.3346,1187.0443 Q1801.3346,1186.263 1801.888,1185.7747 Q1802.4414,1185.2865 1803.7109,1185.2865 L1814.4206,1185.2865 Q1815.6901,1185.2865 1816.2435,1185.7747 Q1816.7969,1186.263 1816.7969,1187.0443 Q1816.7969,1187.8581 1816.2435,1188.3464 Q1815.6901,1188.8346 1814.4206,1188.8346 L1810.8398,1188.8346 Z "/><ellipse cx="1861.9792" cy="1194.7917" fill="#84BE84" rx="6.25" ry="6.25" style="stroke: #038048; stroke-width: 2.0833333333333335;"/><text fill="#000000" font-family="sans-serif" font-size="25" font-style="italic" lengthAdjust="spacingAndGlyphs" textLength="179.1667" x="1874.4792" y="1206.0628">PluginObserver</text><line style="stroke: #A80036; stroke-width: 3.125;" x1="1521.875" x2="2315.625" y1="1229.1667" y2="1229.1667"/><line style="stroke: #A80036; stroke-width: 3.125;" x1="1521.875" x2="2315.625" y1="1245.8333" y2="1245.8333"/><ellipse cx="1542.7083" cy="1271.7041" fill="#84BE84" rx="6.25" ry="6.25" style="stroke: #038048; stroke-width: 2.0833333333333335;"/><text fill="#000000" font-family="sans-serif" font-size="22.9167" lengthAdjust="spacingAndGlyphs" textLength="743.75" x="1561.4583" y="1277.9561">update(AbstractObservablePlugin observable, AbstractPluginEvent event)</text><!--class AbstractThreadedObservablePlugin--><rect fill="#FEFECE" filter="url(#fp2ifop)" height="157.6497" style="stroke: #A80036; stroke-width: 3.125;" width="602.0833" x="359.375" y="1876.0417"/><ellipse cx="445.9375" cy="1909.375" fill="#A9DCDF" rx="22.9167" ry="22.9167" style="stroke: #A80036; stroke-width: 2.0833333333333335;"/><path d="M450.4948,1913.0534 L441.8685,1913.0534 L440.9896,1915.2018 L441.8685,1915.2018 Q443.138,1915.2018 443.6914,1915.6901 Q444.2448,1916.1784 444.2448,1916.9922 Q444.2448,1917.7734 443.6914,1918.2617 Q443.138,1918.75 441.8685,1918.75 L437.0833,1918.75 Q435.8138,1918.75 435.2767,1918.2617 Q434.7396,1917.7734 434.7396,1916.9596 Q434.7396,1916.1784 435.3092,1915.6738 Q435.8789,1915.1693 437.181,1915.2018 L442.7474,1901.3346 L440.4362,1901.3346 Q439.1667,1901.3346 438.6133,1900.8464 Q438.0599,1900.3581 438.0599,1899.5443 Q438.0599,1898.763 438.6133,1898.2747 Q439.1667,1897.7865 440.4362,1897.7865 L448.0859,1897.7865 L455.1497,1915.2018 Q456.3867,1915.2018 456.7773,1915.4948 Q457.5911,1916.0482 457.5911,1916.9922 Q457.5911,1917.7734 457.054,1918.2617 Q456.5169,1918.75 455.2474,1918.75 L450.4622,1918.75 Q449.1927,1918.75 448.6393,1918.2617 Q448.0859,1917.7734 448.0859,1916.9596 Q448.0859,1916.1784 448.6393,1915.6901 Q449.1927,1915.2018 450.4622,1915.2018 L451.3411,1915.2018 L450.4948,1913.0534 Z M448.9974,1909.5052 L446.1654,1902.474 L443.3008,1909.5052 L448.9974,1909.5052 Z "/><text fill="#000000" font-family="sans-serif" font-size="25" font-style="italic" lengthAdjust="spacingAndGlyphs" textLength="412.5" x="487.3958" y="1919.6045">AbstractThreadedObservablePlugin</text><line style="stroke: #A80036; stroke-width: 3.125;" x1="361.4583" x2="959.375" y1="1942.7083" y2="1942.7083"/><line style="stroke: #A80036; stroke-width: 3.125;" x1="361.4583" x2="959.375" y1="1959.375" y2="1959.375"/><ellipse cx="382.2917" cy="1985.2458" fill="#84BE84" rx="6.25" ry="6.25" style="stroke: #038048; stroke-width: 2.0833333333333335;"/><text fill="#000000" font-family="sans-serif" font-size="22.9167" font-weight="bold" lengthAdjust="spacingAndGlyphs" textLength="47.9167" x="401.0417" y="1991.4978">final</text><text fill="#000000" font-family="sans-serif" font-size="22.9167" lengthAdjust="spacingAndGlyphs" textLength="141.6667" x="455.2083" y="1991.4978">addObserver(</text><text fill="#000000" font-family="sans-serif" font-size="22.9167" font-weight="bold" lengthAdjust="spacingAndGlyphs" textLength="47.9167" x="596.875" y="1991.4978">final</text><text fill="#000000" font-family="sans-serif" font-size="22.9167" lengthAdjust="spacingAndGlyphs" textLength="260.4167" x="651.0417" y="1991.4978">PluginObserver observer)</text><ellipse cx="382.2917" cy="2014.0706" fill="#84BE84" rx="6.25" ry="6.25" style="stroke: #038048; stroke-width: 2.0833333333333335;"/><text fill="#000000" font-family="sans-serif" font-size="22.9167" font-weight="bold" lengthAdjust="spacingAndGlyphs" textLength="47.9167" x="401.0417" y="2020.3227">final</text><text fill="#000000" font-family="sans-serif" font-size="22.9167" lengthAdjust="spacingAndGlyphs" textLength="179.1667" x="455.2083" y="2020.3227">removeObserver(</text><text fill="#000000" font-family="sans-serif" font-size="22.9167" font-weight="bold" lengthAdjust="spacingAndGlyphs" textLength="47.9167" x="634.375" y="2020.3227">final</text><text fill="#000000" font-family="sans-serif" font-size="22.9167" lengthAdjust="spacingAndGlyphs" textLength="260.4167" x="688.5417" y="2020.3227">PluginObserver observer)</text><ellipse cx="1918.75" cy="1577.0833" fill="#000000" rx="4.1667" ry="4.1667" style="stroke: none; stroke-width: 2.0833333333333335;"/><polygon fill="#FBFB77" filter="url(#fp2ifop)" points="2046.875,1498.9583,2046.875,1656.0547,2703.125,1656.0547,2703.125,1519.7917,2682.2917,1498.9583,2046.875,1498.9583" style="stroke: #A80036; stroke-width: 2.0833333333333335;"/><line style="stroke: #A80036; stroke-width: 2.0833333333333335;" x1="2682.2917" x2="2682.2917" y1="1498.9583" y2="1519.7917"/><line style="stroke: #A80036; stroke-width: 2.0833333333333335;" x1="2703.125" x2="2682.2917" y1="1519.7917" y2="1519.7917"/><text fill="#000000" font-family="sans-serif" font-size="27.0833" lengthAdjust="spacingAndGlyphs" textLength="593.75" x="2059.375" y="1537.4898">- AbstractObservablePlugin could be extended by</text><text fill="#000000" font-family="sans-serif" font-size="27.0833" lengthAdjust="spacingAndGlyphs" textLength="495.8333" x="2059.375" y="1571.5556">plugins managing hot-plug of SE readers.</text><text fill="#000000" font-family="sans-serif" font-size="27.0833" lengthAdjust="spacingAndGlyphs" textLength="612.5" x="2059.375" y="1605.6213">- AbstractObservableReader could  be extended by</text><text fill="#000000" font-family="sans-serif" font-size="27.0833" lengthAdjust="spacingAndGlyphs" textLength="502.0833" x="2059.375" y="1639.6871">plugins supporting SE insertion detection.</text><!--class SpecificTerminal--><rect fill="#FEFECE" filter="url(#fp2ifop)" height="100" style="stroke: #A80036; stroke-width: 3.125;" width="258.3333" x="1306.25" y="181.25"/><ellipse cx="1337.5" cy="214.5833" fill="#ADD1B2" rx="22.9167" ry="22.9167" style="stroke: #A80036; stroke-width: 2.0833333333333335;"/><path d="M1343.2617,205.9896 Q1343.5872,205.5339 1343.9779,205.306 Q1344.3685,205.0781 1344.8242,205.0781 Q1345.6055,205.0781 1346.0938,205.6152 Q1346.582,206.1523 1346.582,207.4219 L1346.582,210.4492 Q1346.582,211.7188 1346.0938,212.2721 Q1345.6055,212.8255 1344.8242,212.8255 Q1344.1081,212.8255 1343.6849,212.4023 Q1343.2617,212.0117 1343.0339,210.9375 Q1342.9362,210.1888 1342.5456,209.7982 Q1341.862,209.0169 1340.5924,208.5612 Q1339.3229,208.1055 1338.0208,208.1055 Q1336.4258,208.1055 1335.1074,208.7891 Q1333.7891,209.4727 1332.7637,211.0352 Q1331.7383,212.5977 1331.7383,214.7461 L1331.7383,217.0247 Q1331.7383,219.5964 1333.5938,221.3053 Q1335.4492,223.0143 1338.7695,223.0143 Q1340.7227,223.0143 1342.0898,222.4935 Q1342.9036,222.168 1343.7826,221.2565 Q1344.3359,220.7031 1344.6452,220.5404 Q1344.9544,220.3776 1345.3776,220.3776 Q1346.0612,220.3776 1346.5983,220.9147 Q1347.1354,221.4518 1347.1354,222.168 Q1347.1354,222.8841 1346.4193,223.7305 Q1345.3776,224.9349 1343.7174,225.6185 Q1341.4714,226.5625 1338.7695,226.5625 Q1335.612,226.5625 1333.1055,225.2604 Q1331.0547,224.2188 1329.6224,221.9889 Q1328.1901,219.7591 1328.1901,217.0898 L1328.1901,214.681 Q1328.1901,211.9141 1329.4759,209.5215 Q1330.7617,207.1289 1333.0404,205.8431 Q1335.319,204.5573 1337.8906,204.5573 Q1339.4206,204.5573 1340.7715,204.8991 Q1342.1224,205.2409 1343.2617,205.9896 Z "/><text fill="#000000" font-family="sans-serif" font-size="25" lengthAdjust="spacingAndGlyphs" textLength="191.6667" x="1366.6667" y="224.8128">SpecificTerminal</text><line style="stroke: #A80036; stroke-width: 3.125;" x1="1308.3333" x2="1562.5" y1="247.9167" y2="247.9167"/><line style="stroke: #A80036; stroke-width: 3.125;" x1="1308.3333" x2="1562.5" y1="264.5833" y2="264.5833"/><!--class SpecificPluginObserver--><rect fill="#FEFECE" filter="url(#fp2ifop)" height="128.8249" style="stroke: #A80036; stroke-width: 3.125;" width="743.75" x="1638.5417" y="166.6667"/><ellipse cx="1868.2292" cy="200" fill="#ADD1B2" rx="22.9167" ry="22.9167" style="stroke: #A80036; stroke-width: 2.0833333333333335;"/><path d="M1873.9909,191.4063 Q1874.3164,190.9505 1874.707,190.7227 Q1875.0977,190.4948 1875.5534,190.4948 Q1876.3346,190.4948 1876.8229,191.0319 Q1877.3112,191.569 1877.3112,192.8385 L1877.3112,195.8659 Q1877.3112,197.1354 1876.8229,197.6888 Q1876.3346,198.2422 1875.5534,198.2422 Q1874.8372,198.2422 1874.4141,197.819 Q1873.9909,197.4284 1873.763,196.3542 Q1873.6654,195.6055 1873.2747,195.2148 Q1872.5911,194.4336 1871.3216,193.9779 Q1870.0521,193.5221 1868.75,193.5221 Q1867.1549,193.5221 1865.8366,194.2057 Q1864.5182,194.8893 1863.4928,196.4518 Q1862.4674,198.0143 1862.4674,200.1628 L1862.4674,202.4414 Q1862.4674,205.013 1864.3229,206.722 Q1866.1784,208.431 1869.4987,208.431 Q1871.4518,208.431 1872.819,207.9102 Q1873.6328,207.5846 1874.5117,206.6732 Q1875.0651,206.1198 1875.3743,205.957 Q1875.6836,205.7943 1876.1068,205.7943 Q1876.7904,205.7943 1877.3275,206.3314 Q1877.8646,206.8685 1877.8646,207.5846 Q1877.8646,208.3008 1877.1484,209.1471 Q1876.1068,210.3516 1874.4466,211.0352 Q1872.2005,211.9792 1869.4987,211.9792 Q1866.3411,211.9792 1863.8346,210.6771 Q1861.7839,209.6354 1860.3516,207.4056 Q1858.9193,205.1758 1858.9193,202.5065 L1858.9193,200.0977 Q1858.9193,197.3307 1860.2051,194.9382 Q1861.4909,192.5456 1863.7695,191.2598 Q1866.0482,189.974 1868.6198,189.974 Q1870.1497,189.974 1871.5007,190.3158 Q1872.8516,190.6576 1873.9909,191.4063 Z "/><text fill="#000000" font-family="sans-serif" font-size="25" lengthAdjust="spacingAndGlyphs" textLength="266.6667" x="1910.9375" y="210.2295">SpecificPluginObserver</text><line style="stroke: #A80036; stroke-width: 3.125;" x1="1640.625" x2="2380.2083" y1="233.3333" y2="233.3333"/><line style="stroke: #A80036; stroke-width: 3.125;" x1="1640.625" x2="2380.2083" y1="250" y2="250"/><ellipse cx="1661.4583" cy="275.8708" fill="#84BE84" rx="6.25" ry="6.25" style="stroke: #038048; stroke-width: 2.0833333333333335;"/><text fill="#000000" font-family="sans-serif" font-size="22.9167" lengthAdjust="spacingAndGlyphs" textLength="689.5833" x="1680.2083" y="282.1228">update(AbstractObservablePlugin plugin, AbstractPluginEvent event)</text><!--class SpecificReaderObserver--><rect fill="#FEFECE" filter="url(#fp2ifop)" height="128.8249" style="stroke: #A80036; stroke-width: 3.125;" width="693.75" x="2455.2083" y="166.6667"/><ellipse cx="2653.6458" cy="200" fill="#ADD1B2" rx="22.9167" ry="22.9167" style="stroke: #A80036; stroke-width: 2.0833333333333335;"/><path d="M2659.4076,191.4063 Q2659.7331,190.9505 2660.1237,190.7227 Q2660.5143,190.4948 2660.9701,190.4948 Q2661.7513,190.4948 2662.2396,191.0319 Q2662.7279,191.569 2662.7279,192.8385 L2662.7279,195.8659 Q2662.7279,197.1354 2662.2396,197.6888 Q2661.7513,198.2422 2660.9701,198.2422 Q2660.2539,198.2422 2659.8307,197.819 Q2659.4076,197.4284 2659.1797,196.3542 Q2659.082,195.6055 2658.6914,195.2148 Q2658.0078,194.4336 2656.7383,193.9779 Q2655.4688,193.5221 2654.1667,193.5221 Q2652.5716,193.5221 2651.2533,194.2057 Q2649.9349,194.8893 2648.9095,196.4518 Q2647.8841,198.0143 2647.8841,200.1628 L2647.8841,202.4414 Q2647.8841,205.013 2649.7396,206.722 Q2651.5951,208.431 2654.9154,208.431 Q2656.8685,208.431 2658.2357,207.9102 Q2659.0495,207.5846 2659.9284,206.6732 Q2660.4818,206.1198 2660.791,205.957 Q2661.1003,205.7943 2661.5234,205.7943 Q2662.207,205.7943 2662.7441,206.3314 Q2663.2813,206.8685 2663.2813,207.5846 Q2663.2813,208.3008 2662.5651,209.1471 Q2661.5234,210.3516 2659.8633,211.0352 Q2657.6172,211.9792 2654.9154,211.9792 Q2651.7578,211.9792 2649.2513,210.6771 Q2647.2005,209.6354 2645.7682,207.4056 Q2644.3359,205.1758 2644.3359,202.5065 L2644.3359,200.0977 Q2644.3359,197.3307 2645.6217,194.9382 Q2646.9076,192.5456 2649.1862,191.2598 Q2651.4648,189.974 2654.0365,189.974 Q2655.5664,189.974 2656.9173,190.3158 Q2658.2682,190.6576 2659.4076,191.4063 Z "/><text fill="#000000" font-family="sans-serif" font-size="25" lengthAdjust="spacingAndGlyphs" textLength="279.1667" x="2696.3542" y="210.2295">SpecificReaderObserver</text><line style="stroke: #A80036; stroke-width: 3.125;" x1="2457.2917" x2="3146.875" y1="233.3333" y2="233.3333"/><line style="stroke: #A80036; stroke-width: 3.125;" x1="2457.2917" x2="3146.875" y1="250" y2="250"/><ellipse cx="2478.125" cy="275.8708" fill="#84BE84" rx="6.25" ry="6.25" style="stroke: #038048; stroke-width: 2.0833333333333335;"/><text fill="#000000" font-family="sans-serif" font-size="22.9167" lengthAdjust="spacingAndGlyphs" textLength="639.5833" x="2496.875" y="282.1228">update(AbstractObservableReader reader, ReaderEvent event)</text><path d="M2833.3333,1319.2188 C2833.3333,1414.6792 2833.3333,1554.2688 2833.3333,1572.9146 " fill="none" style="stroke: #A80036; stroke-width: 2.0833333333333335;"/><polygon fill="#FFFFFF" points="2833.3333,1291.7938,2825,1304.2938,2833.3333,1316.7938,2841.6667,1304.2938,2833.3333,1291.7938" style="stroke: #A80036; stroke-width: 2.0833333333333335;"/><polygon fill="#000000" points="2879.1667,1406.25,2885.4167,1393.75,2891.6667,1406.25,2879.1667,1406.25" style="stroke: #000000; stroke-width: 2.0833333333333335;"/><text fill="#000000" font-family="sans-serif" font-size="27.0833" lengthAdjust="spacingAndGlyphs" textLength="106.25" x="2835.4167" y="1440.6148">observes</text><text fill="#000000" font-family="sans-serif" font-size="27.0833" lengthAdjust="spacingAndGlyphs" textLength="14.5833" x="2817.3145" y="1336.0354">1</text><path d="M2833.3542,1581.5542 C2833.5833,1601.7083 2835.1875,1745.1521 2836.3333,1847.775 " fill="none" style="stroke: #A80036; stroke-width: 2.0833333333333335;"/><text fill="#000000" font-family="sans-serif" font-size="27.0833" lengthAdjust="spacingAndGlyphs" textLength="10.4167" x="2825.0202" y="1825.1061">*</text><path d="M2837.5417,1577.0833 C2886.1042,1577.0833 2934.6667,1577.0833 2983.25,1577.0833 " fill="none" style="stroke: #A80036; stroke-width: 2.0833333333333335; stroke-dasharray: 7.0,7.0;"/><path d="M1271.3083,1320.9354 C1296.4208,1373.0417 1327.6583,1437.8625 1352.2979,1488.9854 " fill="none" style="stroke: #A80036; stroke-width: 2.0833333333333335;"/><polygon fill="none" points="1365.4458,1482.6792,1370.3979,1526.5458,1339.1729,1495.3417,1365.4458,1482.6792" style="stroke: #A80036; stroke-width: 2.0833333333333335;"/><text fill="#000000" font-family="sans-serif" font-size="27.0833" lengthAdjust="spacingAndGlyphs" textLength="95.8333" x="1316.6667" y="1413.5315">extends</text><path d="M1393.75,1669.1271 C1393.75,1718.2458 1393.75,1779.7208 1393.75,1832.9 " fill="none" style="stroke: #A80036; stroke-width: 2.0833333333333335;"/><polygon fill="none" points="1379.1667,1668.9563,1393.75,1627.2896,1408.3333,1668.9563,1379.1667,1668.9563" style="stroke: #A80036; stroke-width: 2.0833333333333335;"/><text fill="#000000" font-family="sans-serif" font-size="27.0833" lengthAdjust="spacingAndGlyphs" textLength="95.8333" x="1395.8333" y="1763.5315">extends</text><path d="M859.1042,1875.8604 C904.2083,1859.9875 952.2813,1844.7167 997.9167,1833.3333 C1145.9,1796.4188 1530.4917,1715.9854 1679.1667,1750 C1770.5917,1770.9167 1865.2292,1814.1563 1941.925,1855.5729 " fill="none" style="stroke: #A80036; stroke-width: 2.0833333333333335;"/><polygon fill="none" points="1949.2771,1842.9729,1978.6021,1875.9708,1935.1,1868.4625,1949.2771,1842.9729" style="stroke: #A80036; stroke-width: 2.0833333333333335;"/><text fill="#000000" font-family="sans-serif" font-size="27.0833" lengthAdjust="spacingAndGlyphs" textLength="95.8333" x="1581.25" y="1763.5315">extends</text><path d="M1918.75,1319.2188 C1918.75,1414.6792 1918.75,1554.2688 1918.75,1572.9146 " fill="none" style="stroke: #A80036; stroke-width: 2.0833333333333335;"/><polygon fill="#FFFFFF" points="1918.75,1291.7938,1910.4167,1304.2938,1918.75,1316.7938,1927.0833,1304.2938,1918.75,1291.7938" style="stroke: #A80036; stroke-width: 2.0833333333333335;"/><polygon fill="#000000" points="1964.5833,1406.25,1970.8333,1393.75,1977.0833,1406.25,1964.5833,1406.25" style="stroke: #000000; stroke-width: 2.0833333333333335;"/><text fill="#000000" font-family="sans-serif" font-size="27.0833" lengthAdjust="spacingAndGlyphs" textLength="106.25" x="1920.8333" y="1440.6148">observes</text><text fill="#000000" font-family="sans-serif" font-size="27.0833" lengthAdjust="spacingAndGlyphs" textLength="14.5833" x="1902.7311" y="1336.0354">1</text><path d="M1919.9333,1581.5542 C1930.8833,1603.6375 2015.2188,1773.7292 2065.9104,1875.9667 " fill="none" style="stroke: #A80036; stroke-width: 2.0833333333333335;"/><text fill="#000000" font-family="sans-serif" font-size="27.0833" lengthAdjust="spacingAndGlyphs" textLength="10.4167" x="2047.48" y="1853.1956">*</text><path d="M1554.7354,1577.0833 C1674.6521,1577.0833 1794.5688,1577.0833 1914.4833,1577.0833 " fill="none" style="stroke: #A80036; stroke-width: 2.0833333333333335; stroke-dasharray: 7.0,7.0;"/><path d="M2319.5417,1655.7458 C2272.9583,1720.0646 2206.7083,1811.5375 2160.0208,1876.0083 " fill="none" style="stroke: #A80036; stroke-width: 2.0833333333333335; stroke-dasharray: 7.0,7.0;"/><path d="M2469.1458,1655.2938 C2537.5625,1710.6042 2631.0208,1786.1688 2706.6667,1847.3438 " fill="none" style="stroke: #A80036; stroke-width: 2.0833333333333335; stroke-dasharray: 7.0,7.0;"/><path d="M1172.4854,744.0292 C888.7771,783.2875 459.4979,855.8875 325,950 C206.7071,1032.7729 152.0833,1080.6229 152.0833,1225 C152.0833,1225 152.0833,1225 152.0833,1957.2917 C152.0833,2081.5833 215.711,2117.8854 325,2177.0833 C582.4708,2316.5479 1348.4729,2246.7875 1637.5,2293.75 C1676.2979,2300.0542 1716.9792,2308.1125 1756.7729,2316.825 " fill="none" style="stroke: #A80036; stroke-width: 2.0833333333333335;"/><polygon fill="#A80036" points="1783.4521,2322.7917,1766.9729,2310.5669,1773.2865,2320.5182,1763.3353,2326.8318,1783.4521,2322.7917" style="stroke: #A80036; stroke-width: 2.0833333333333335;"/><line style="stroke: #A80036; stroke-width: 2.0833333333333335;" x1="1773.2865" x2="1757.0208" y1="2320.5182" y2="2316.8813"/><polygon fill="#A80036" points="1199.4729,740.3354,1185.9576,733.7756,1174.7042,743.7282,1188.2195,750.288,1199.4729,740.3354" style="stroke: #A80036; stroke-width: 2.0833333333333335;"/><text fill="#000000" font-family="sans-serif" font-size="27.0833" lengthAdjust="spacingAndGlyphs" textLength="85.4167" x="154.1667" y="1588.5315">plugins</text><text fill="#000000" font-family="sans-serif" font-size="27.0833" lengthAdjust="spacingAndGlyphs" textLength="14.5833" x="1168.5472" y="736.0991">1</text><text fill="#000000" font-family="sans-serif" font-size="27.0833" lengthAdjust="spacingAndGlyphs" textLength="10.4167" x="1719.5132" y="2299.8899">*</text><path d="M2329.125,2387.5 C2364.9167,2387.5 2401.8333,2387.5 2438.6458,2387.5 " fill="none" style="stroke: #A80036; stroke-width: 2.0833333333333335;"/><polygon fill="#A80036" points="2466.0833,2387.5,2447.3333,2379.1667,2455.6667,2387.5,2447.3333,2395.8333,2466.0833,2387.5" style="stroke: #A80036; stroke-width: 2.0833333333333335;"/><line style="stroke: #A80036; stroke-width: 2.0833333333333335;" x1="2455.6667" x2="2439" y1="2387.5" y2="2387.4998"/><polygon fill="#A80036" points="2301.5417,2387.5,2314.0417,2395.8333,2326.5417,2387.5,2314.0417,2379.1667,2301.5417,2387.5" style="stroke: #A80036; stroke-width: 2.0833333333333335;"/><text fill="#000000" font-family="sans-serif" font-size="27.0833" lengthAdjust="spacingAndGlyphs" textLength="89.5833" x="2339.0625" y="2373.9482">readers</text><text fill="#000000" font-family="sans-serif" font-size="27.0833" lengthAdjust="spacingAndGlyphs" textLength="14.5833" x="2318.0712" y="2381.349">1</text><text fill="#000000" font-family="sans-serif" font-size="27.0833" lengthAdjust="spacingAndGlyphs" textLength="10.4167" x="2439.7778" y="2381.6154">*</text><path d="M2089.4521,2034.8208 C2076.3792,2103.7104 2057.1604,2204.9792 2042.7354,2280.9875 " fill="none" style="stroke: #A80036; stroke-width: 2.0833333333333335; stroke-dasharray: 7.0,7.0;"/><polygon fill="none" points="2056.975,2284.1688,2034.8792,2322.3854,2028.3208,2278.7313,2056.975,2284.1688" style="stroke: #A80036; stroke-width: 2.0833333333333335;"/><text fill="#000000" font-family="sans-serif" font-size="27.0833" lengthAdjust="spacingAndGlyphs" textLength="139.5833" x="2060.4167" y="2223.9482">implements</text><path d="M2837.5,2062.5708 C2837.5,2119.55 2837.5,2190.5354 2837.5,2251.4229 " fill="none" style="stroke: #A80036; stroke-width: 2.0833333333333335; stroke-dasharray: 7.0,7.0;"/><polygon fill="none" points="2852.0833,2251.9625,2837.5,2293.6292,2822.9167,2251.9625,2852.0833,2251.9625" style="stroke: #A80036; stroke-width: 2.0833333333333335;"/><text fill="#000000" font-family="sans-serif" font-size="27.0833" lengthAdjust="spacingAndGlyphs" textLength="139.5833" x="2839.5833" y="2223.9482">implements</text><path d="M1600.0396,2387.5 C1648.2188,2387.5 1696.3979,2387.5 1744.5771,2387.5 " fill="none" style="stroke: #A80036; stroke-width: 2.0833333333333335; stroke-dasharray: 7.0,7.0;"/><path d="M1413.5271,2342.5163 C1499.5604,2310.9458 1621.5354,2271.5104 1732.6396,2254.8604 C1987.8146,2216.6229 2057.1479,2222.975 2313.1875,2254.8604 C2380.75,2263.2729 2452.0833,2277.5583 2519.6458,2293.7167 " fill="none" style="stroke: #A80036; stroke-width: 2.0833333333333335; stroke-dasharray: 7.0,7.0;"/><path d="M2004.6125,296.125 C1989.2479,462.3333 1947.3917,915.1604 1928.3771,1120.8521 " fill="none" style="stroke: #A80036; stroke-width: 2.0833333333333335; stroke-dasharray: 7.0,7.0;"/><polygon fill="none" points="1942.8854,1122.3417,1924.5292,1162.4896,1913.8417,1119.6563,1942.8854,1122.3417" style="stroke: #A80036; stroke-width: 2.0833333333333335;"/><text fill="#000000" font-family="sans-serif" font-size="27.0833" lengthAdjust="spacingAndGlyphs" textLength="139.5833" x="1993.75" y="720.8232">implements</text><path d="M2804.0625,296.125 C2809.2917,462.1667 2823.5417,914.2104 2830.0208,1120.2042 " fill="none" style="stroke: #A80036; stroke-width: 2.0833333333333335; stroke-dasharray: 7.0,7.0;"/><polygon fill="none" points="2844.625,1120.3833,2831.3542,1162.4896,2815.4792,1121.3021,2844.625,1120.3833" style="stroke: #A80036; stroke-width: 2.0833333333333335;"/><text fill="#000000" font-family="sans-serif" font-size="27.0833" lengthAdjust="spacingAndGlyphs" textLength="139.5833" x="2822.9167" y="720.8232">implements</text><path d="M1435.4167,281.3958 C1435.4167,343.875 1435.4167,456.0833 1435.4167,549.6354 " fill="none" style="stroke: #A80036; stroke-width: 2.0833333333333335;"/><text fill="#000000" font-family="sans-serif" font-size="27.0833" lengthAdjust="spacingAndGlyphs" textLength="58.3333" x="1437.5" y="392.6982">uses</text><polygon fill="#000000" points="1457.2917,411.1491,1463.5417,423.6491,1469.7917,411.1491,1457.2917,411.1491" style="stroke: #000000; stroke-width: 2.0833333333333335;"/></g></svg>