<?xml version="1.0" encoding="UTF-8" standalone="no"?><svg xmlns="http://www.w3.org/2000/svg" xmlns:xlink="http://www.w3.org/1999/xlink" contentScriptType="application/ecmascript" contentStyleType="text/css" height="1627.0833px" preserveAspectRatio="none" style="width:1954px;height:1627px;" version="1.1" viewBox="0 0 1954 1627" width="1954.1667px" zoomAndPan="magnify"><defs><filter height="300%" id="fpdqrgd" width="300%" x="-1" y="-1"><feGaussianBlur result="blurOut" stdDeviation="4.166666666666667"/><feColorMatrix in="blurOut" result="blurOut2" type="matrix" values="0 0 0 0 0 0 0 0 0 0 0 0 0 0 0 0 0 0 .4 0"/><feOffset dx="8.333333333333334" dy="8.333333333333334" in="blurOut2" result="blurOut3"/><feBlend in="SourceGraphic" in2="blurOut3" mode="normal"/></filter></defs><g><!--cluster external.terminalapplication--><polygon fill="#3399FF" filter="url(#fpdqrgd)" points="137.5,50,558.3333,50,572.9167,99.1862,579.1667,99.1862,579.1667,258.3333,137.5,258.3333,137.5,50" style="stroke: #000000; stroke-width: 4.166666666666667;"/><line style="stroke: #000000; stroke-width: 4.166666666666667;" x1="137.5" x2="572.9167" y1="99.1862" y2="99.1862"/><text fill="#000000" font-family="sans-serif" font-size="29.1667" font-weight="bold" lengthAdjust="spacingAndGlyphs" textLength="408.3333" x="145.8333" y="84.4442">external.terminalapplication</text><!--cluster org.eclipse.keyple.seproxy--><polygon fill="#FFFFFF" filter="url(#fpdqrgd)" points="45.8333,362.5,452.0833,362.5,466.6667,411.6862,1577.0833,411.6862,1577.0833,1612.5,45.8333,1612.5,45.8333,362.5" style="stroke: #000000; stroke-width: 4.166666666666667;"/><line style="stroke: #000000; stroke-width: 4.166666666666667;" x1="45.8333" x2="466.6667" y1="411.6862" y2="411.6862"/><text fill="#000000" font-family="sans-serif" font-size="29.1667" font-weight="bold" lengthAdjust="spacingAndGlyphs" textLength="393.75" x="54.1667" y="396.9442">org.eclipse.keyple.seproxy</text><!--cluster util--><polygon fill="#FFFFFF" filter="url(#fpdqrgd)" points="622.9167,1239.5833,681.25,1239.5833,695.8333,1288.7695,1272.9167,1288.7695,1272.9167,1562.5,622.9167,1562.5,622.9167,1239.5833" style="stroke: #000000; stroke-width: 4.166666666666667;"/><line style="stroke: #000000; stroke-width: 4.166666666666667;" x1="622.9167" x2="695.8333" y1="1288.7695" y2="1288.7695"/><text fill="#000000" font-family="sans-serif" font-size="29.1667" font-weight="bold" lengthAdjust="spacingAndGlyphs" textLength="45.8333" x="631.25" y="1274.0275">util</text><!--cluster java.util--><polygon fill="#FFFFFF" filter="url(#fpdqrgd)" points="1627.0833,1282.2917,1754.1667,1282.2917,1768.75,1331.4779,1939.5833,1331.4779,1939.5833,1519.7917,1627.0833,1519.7917,1627.0833,1282.2917" style="stroke: #000000; stroke-width: 4.166666666666667;"/><line style="stroke: #000000; stroke-width: 4.166666666666667;" x1="1627.0833" x2="1768.75" y1="1331.4779" y2="1331.4779"/><text fill="#000000" font-family="sans-serif" font-size="29.1667" font-weight="bold" lengthAdjust="spacingAndGlyphs" textLength="114.5833" x="1635.4167" y="1316.7358">java.util</text><!--class SpecificTerminal--><rect fill="#FEFECE" filter="url(#fpdqrgd)" height="100" style="stroke: #A80036; stroke-width: 3.125;" width="258.3333" x="229.1667" y="125"/><ellipse cx="260.4167" cy="158.3333" fill="#ADD1B2" rx="22.9167" ry="22.9167" style="stroke: #A80036; stroke-width: 2.0833333333333335;"/><path d="M266.1784,149.7396 Q266.5039,149.2839 266.8945,149.056 Q267.2852,148.8281 267.7409,148.8281 Q268.5221,148.8281 269.0104,149.3652 Q269.4987,149.9023 269.4987,151.1719 L269.4987,154.1992 Q269.4987,155.4688 269.0104,156.0221 Q268.5221,156.5755 267.7409,156.5755 Q267.0247,156.5755 266.6016,156.1523 Q266.1784,155.7617 265.9505,154.6875 Q265.8529,153.9388 265.4622,153.5482 Q264.7786,152.7669 263.5091,152.3112 Q262.2396,151.8555 260.9375,151.8555 Q259.3424,151.8555 258.0241,152.5391 Q256.7057,153.2227 255.6803,154.7852 Q254.6549,156.3477 254.6549,158.4961 L254.6549,160.7747 Q254.6549,163.3464 256.5104,165.0553 Q258.3659,166.7643 261.6862,166.7643 Q263.6393,166.7643 265.0065,166.2435 Q265.8203,165.918 266.6992,165.0065 Q267.2526,164.4531 267.5618,164.2904 Q267.8711,164.1276 268.2943,164.1276 Q268.9779,164.1276 269.515,164.6647 Q270.0521,165.2018 270.0521,165.918 Q270.0521,166.6341 269.3359,167.4805 Q268.2943,168.6849 266.6341,169.3685 Q264.388,170.3125 261.6862,170.3125 Q258.5286,170.3125 256.0221,169.0104 Q253.9714,167.9688 252.5391,165.7389 Q251.1068,163.5091 251.1068,160.8398 L251.1068,158.431 Q251.1068,155.6641 252.3926,153.2715 Q253.6784,150.8789 255.957,149.5931 Q258.2357,148.3073 260.8073,148.3073 Q262.3372,148.3073 263.6882,148.6491 Q265.0391,148.9909 266.1784,149.7396 Z "/><text fill="#000000" font-family="sans-serif" font-size="25" lengthAdjust="spacingAndGlyphs" textLength="191.6667" x="289.5833" y="168.5628">SpecificTerminal</text><line style="stroke: #A80036; stroke-width: 3.125;" x1="231.25" x2="485.4167" y1="191.6667" y2="191.6667"/><line style="stroke: #A80036; stroke-width: 3.125;" x1="231.25" x2="485.4167" y1="208.3333" y2="208.3333"/><!--class SeProxyService--><rect fill="#FEFECE" filter="url(#fpdqrgd)" height="318.8314" style="stroke: #A80036; stroke-width: 3.125;" width="470.8333" x="122.9167" y="437.5"/><ellipse cx="222.3958" cy="479.362" fill="#ADD1B2" rx="22.9167" ry="22.9167" style="stroke: #A80036; stroke-width: 2.0833333333333335;"/><path d="M228.1576,470.7682 Q228.4831,470.3125 228.8737,470.0846 Q229.2643,469.8568 229.7201,469.8568 Q230.5013,469.8568 230.9896,470.3939 Q231.4779,470.931 231.4779,472.2005 L231.4779,475.2279 Q231.4779,476.4974 230.9896,477.0508 Q230.5013,477.6042 229.7201,477.6042 Q229.0039,477.6042 228.5807,477.181 Q228.1576,476.7904 227.9297,475.7161 Q227.832,474.9674 227.4414,474.5768 Q226.7578,473.7956 225.4883,473.3398 Q224.2188,472.8841 222.9167,472.8841 Q221.3216,472.8841 220.0033,473.5677 Q218.6849,474.2513 217.6595,475.8138 Q216.6341,477.3763 216.6341,479.5247 L216.6341,481.8034 Q216.6341,484.375 218.4896,486.084 Q220.3451,487.793 223.6654,487.793 Q225.6185,487.793 226.9857,487.2721 Q227.7995,486.9466 228.6784,486.0352 Q229.2318,485.4818 229.541,485.319 Q229.8503,485.1563 230.2734,485.1563 Q230.957,485.1563 231.4941,485.6934 Q232.0313,486.2305 232.0313,486.9466 Q232.0313,487.6628 231.3151,488.5091 Q230.2734,489.7135 228.6133,490.3971 Q226.3672,491.3411 223.6654,491.3411 Q220.5078,491.3411 218.0013,490.0391 Q215.9505,488.9974 214.5182,486.7676 Q213.0859,484.5378 213.0859,481.8685 L213.0859,479.4596 Q213.0859,476.6927 214.3717,474.3001 Q215.6576,471.9076 217.9362,470.6217 Q220.2148,469.3359 222.7865,469.3359 Q224.3164,469.3359 225.6673,469.6777 Q227.0182,470.0195 228.1576,470.7682 Z "/><text fill="#000000" font-family="sans-serif" font-size="25" font-style="italic" lengthAdjust="spacingAndGlyphs" textLength="137.5" x="323.4375" y="473.8688">«Singleton»</text><ellipse cx="275.5208" cy="494.043" fill="#84BE84" rx="6.25" ry="6.25" style="stroke: #038048; stroke-width: 2.0833333333333335;"/><text fill="#000000" font-family="sans-serif" font-size="25" font-weight="bold" lengthAdjust="spacingAndGlyphs" textLength="50" x="288.0208" y="505.3141">final</text><text fill="#000000" font-family="sans-serif" font-size="25" lengthAdjust="spacingAndGlyphs" textLength="175" x="344.2708" y="505.3141">SeProxyService</text><line style="stroke: #A80036; stroke-width: 3.125;" x1="125" x2="591.6667" y1="521.224" y2="521.224"/><rect fill="none" height="12.5" style="stroke: #C82930; stroke-width: 2.0833333333333335;" width="12.5" x="139.5833" y="540.8447"/><text fill="#000000" font-family="sans-serif" font-size="22.9167" lengthAdjust="spacingAndGlyphs" textLength="104.1667" x="164.5833" y="553.3468">int version</text><line style="stroke: #A80036; stroke-width: 3.125;" x1="125" x2="591.6667" y1="566.7155" y2="566.7155"/><text fill="#000000" font-family="sans-serif" font-size="22.9167" lengthAdjust="spacingAndGlyphs" textLength="297.9167" x="164.5833" y="598.8383">List&lt;ReadersPlugin&gt; plugins()</text><rect fill="#F24D5C" height="12.5" style="stroke: #C82930; stroke-width: 2.0833333333333335;" width="12.5" x="139.5833" y="615.1611"/><text fill="#000000" font-family="sans-serif" font-size="22.9167" lengthAdjust="spacingAndGlyphs" textLength="179.1667" x="164.5833" y="627.6632">SeProxyService()</text><ellipse cx="145.8333" cy="650.236" fill="#84BE84" rx="6.25" ry="6.25" style="stroke: #038048; stroke-width: 2.0833333333333335;"/><text fill="#000000" font-family="sans-serif" font-size="22.9167" lengthAdjust="spacingAndGlyphs" text-decoration="underline" textLength="302.0833" x="164.5833" y="656.488">SeProxyService getInstance()</text><line style="stroke: #000000; stroke-width: 1.0;" x1="164.5833" x2="466.6667" y1="660.6547" y2="660.6547"/><ellipse cx="145.8333" cy="679.0609" fill="#84BE84" rx="6.25" ry="6.25" style="stroke: #038048; stroke-width: 2.0833333333333335;"/><text fill="#000000" font-family="sans-serif" font-size="22.9167" lengthAdjust="spacingAndGlyphs" textLength="416.6667" x="164.5833" y="685.3129">setPlugins(List&lt;ReadersPlugin&gt; plugins())</text><ellipse cx="145.8333" cy="707.8857" fill="#84BE84" rx="6.25" ry="6.25" style="stroke: #038048; stroke-width: 2.0833333333333335;"/><text fill="#000000" font-family="sans-serif" font-size="22.9167" lengthAdjust="spacingAndGlyphs" textLength="393.75" x="164.5833" y="714.1378">SortedSet&lt;ReadersPlugin&gt; getPlugins()</text><ellipse cx="145.8333" cy="736.7106" fill="#84BE84" rx="6.25" ry="6.25" style="stroke: #038048; stroke-width: 2.0833333333333335;"/><text fill="#000000" font-family="sans-serif" font-size="22.9167" lengthAdjust="spacingAndGlyphs" textLength="156.25" x="164.5833" y="742.9626">int getVersion()</text><!--class ReadersPlugin--><rect fill="#FEFECE" filter="url(#fpdqrgd)" height="128.8249" style="stroke: #A80036; stroke-width: 3.125;" width="556.25" x="80.2083" y="947.9167"/><ellipse cx="252.6042" cy="981.25" fill="#B4A7E5" rx="22.9167" ry="22.9167" style="stroke: #A80036; stroke-width: 2.0833333333333335;"/><path d="M254.5898,974.2513 L254.5898,988.1185 L258.1706,988.1185 Q259.4401,988.1185 259.9935,988.6068 Q260.5469,989.0951 260.5469,989.9089 Q260.5469,990.6901 259.9935,991.1784 Q259.4401,991.6667 258.1706,991.6667 L247.4609,991.6667 Q246.1914,991.6667 245.638,991.1784 Q245.0846,990.6901 245.0846,989.8763 Q245.0846,989.0951 245.638,988.6068 Q246.1914,988.1185 247.4609,988.1185 L251.0417,988.1185 L251.0417,974.2513 L247.4609,974.2513 Q246.1914,974.2513 245.638,973.763 Q245.0846,973.2747 245.0846,972.4609 Q245.0846,971.6797 245.638,971.1914 Q246.1914,970.7031 247.4609,970.7031 L258.1706,970.7031 Q259.4401,970.7031 259.9935,971.1914 Q260.5469,971.6797 260.5469,972.4609 Q260.5469,973.2747 259.9935,973.763 Q259.4401,974.2513 258.1706,974.2513 L254.5898,974.2513 Z "/><ellipse cx="305.7292" cy="980.2083" fill="#84BE84" rx="6.25" ry="6.25" style="stroke: #038048; stroke-width: 2.0833333333333335;"/><text fill="#000000" font-family="sans-serif" font-size="25" font-style="italic" lengthAdjust="spacingAndGlyphs" textLength="170.8333" x="318.2292" y="991.4795">ReadersPlugin</text><line style="stroke: #A80036; stroke-width: 3.125;" x1="82.2917" x2="634.375" y1="1014.5833" y2="1014.5833"/><line style="stroke: #A80036; stroke-width: 3.125;" x1="82.2917" x2="634.375" y1="1031.25" y2="1031.25"/><ellipse cx="103.125" cy="1057.1208" fill="#84BE84" rx="6.25" ry="6.25" style="stroke: #038048; stroke-width: 2.0833333333333335;"/><text fill="#000000" font-family="sans-serif" font-size="22.9167" lengthAdjust="spacingAndGlyphs" textLength="502.0833" x="121.875" y="1063.3728">SortedSet&lt;? extends ProxyReader&gt; getReaders()</text><!--class ProxyReader--><rect fill="#FEFECE" filter="url(#fpdqrgd)" height="186.4746" style="stroke: #A80036; stroke-width: 3.125;" width="741.6667" x="802.0833" y="918.75"/><ellipse cx="1077.6042" cy="952.0833" fill="#B4A7E5" rx="22.9167" ry="22.9167" style="stroke: #A80036; stroke-width: 2.0833333333333335;"/><path d="M1079.5898,945.0846 L1079.5898,958.9518 L1083.1706,958.9518 Q1084.4401,958.9518 1084.9935,959.4401 Q1085.5469,959.9284 1085.5469,960.7422 Q1085.5469,961.5234 1084.9935,962.0117 Q1084.4401,962.5 1083.1706,962.5 L1072.4609,962.5 Q1071.1914,962.5 1070.638,962.0117 Q1070.0846,961.5234 1070.0846,960.7096 Q1070.0846,959.9284 1070.638,959.4401 Q1071.1914,958.9518 1072.4609,958.9518 L1076.0417,958.9518 L1076.0417,945.0846 L1072.4609,945.0846 Q1071.1914,945.0846 1070.638,944.5964 Q1070.0846,944.1081 1070.0846,943.2943 Q1070.0846,942.513 1070.638,942.0247 Q1071.1914,941.5365 1072.4609,941.5365 L1083.1706,941.5365 Q1084.4401,941.5365 1084.9935,942.0247 Q1085.5469,942.513 1085.5469,943.2943 Q1085.5469,944.1081 1084.9935,944.5964 Q1084.4401,945.0846 1083.1706,945.0846 L1079.5898,945.0846 Z "/><ellipse cx="1130.7292" cy="951.0417" fill="#84BE84" rx="6.25" ry="6.25" style="stroke: #038048; stroke-width: 2.0833333333333335;"/><text fill="#000000" font-family="sans-serif" font-size="25" font-style="italic" lengthAdjust="spacingAndGlyphs" textLength="150" x="1143.2292" y="962.3128">ProxyReader</text><line style="stroke: #A80036; stroke-width: 3.125;" x1="804.1667" x2="1541.6667" y1="985.4167" y2="985.4167"/><line style="stroke: #A80036; stroke-width: 3.125;" x1="804.1667" x2="1541.6667" y1="1002.0833" y2="1002.0833"/><ellipse cx="825" cy="1027.9541" fill="#84BE84" rx="6.25" ry="6.25" style="stroke: #038048; stroke-width: 2.0833333333333335;"/><text fill="#000000" font-family="sans-serif" font-size="22.9167" lengthAdjust="spacingAndGlyphs" textLength="222.9167" x="843.75" y="1034.2061">boolean isSePresent()</text><ellipse cx="825" cy="1056.779" fill="#84BE84" rx="6.25" ry="6.25" style="stroke: #038048; stroke-width: 2.0833333333333335;"/><text fill="#000000" font-family="sans-serif" font-size="22.9167" lengthAdjust="spacingAndGlyphs" textLength="608.3333" x="843.75" y="1063.031">setSeProtocols(Map&lt;SeProtocol, String&gt; seProtocolSettings)</text><ellipse cx="825" cy="1085.6038" fill="#84BE84" rx="6.25" ry="6.25" style="stroke: #038048; stroke-width: 2.0833333333333335;"/><text fill="#000000" font-family="sans-serif" font-size="22.9167" lengthAdjust="spacingAndGlyphs" textLength="256.25" x="843.75" y="1091.8559">SeResponseSet transmit(</text><text fill="#000000" font-family="sans-serif" font-size="22.9167" font-weight="bold" lengthAdjust="spacingAndGlyphs" textLength="47.9167" x="1100" y="1091.8559">final</text><text fill="#000000" font-family="sans-serif" font-size="22.9167" lengthAdjust="spacingAndGlyphs" textLength="377.0833" x="1154.1667" y="1091.8559">SeRequestSet seApplicationRequest)</text><polygon fill="#FBFB77" filter="url(#fpdqrgd)" points="163.5417,1343.75,163.5417,1500.8464,553.125,1500.8464,553.125,1364.5833,532.2917,1343.75,163.5417,1343.75" style="stroke: #A80036; stroke-width: 2.0833333333333335;"/><polygon fill="#FBFB77" points="163.5417,1343.75,163.5417,1500.8464,553.125,1500.8464,553.125,1364.5833,532.2917,1343.75,366.6667,1343.75,358.3333,1077.8979,350,1343.75,163.5417,1343.75" style="stroke: #A80036; stroke-width: 2.0833333333333335;"/><line style="stroke: #A80036; stroke-width: 2.0833333333333335;" x1="532.2917" x2="532.2917" y1="1343.75" y2="1364.5833"/><line style="stroke: #A80036; stroke-width: 2.0833333333333335;" x1="553.125" x2="532.2917" y1="1364.5833" y2="1364.5833"/><text fill="#000000" font-family="sans-serif" font-size="27.0833" lengthAdjust="spacingAndGlyphs" textLength="329.1667" x="184.375" y="1382.2815">- Must be extended only by</text><text fill="#000000" font-family="sans-serif" font-size="27.0833" font-weight="bold" lengthAdjust="spacingAndGlyphs" textLength="120.8333" x="176.0417" y="1416.3472">singleton</text><text fill="#000000" font-family="sans-serif" font-size="27.0833" lengthAdjust="spacingAndGlyphs" textLength="93.75" x="305.2083" y="1416.3472">classes</text><text fill="#000000" font-family="sans-serif" font-size="27.0833" lengthAdjust="spacingAndGlyphs" textLength="337.5" x="184.375" y="1450.413">- ProxyReader elements are</text><text fill="#000000" font-family="sans-serif" font-size="27.0833" lengthAdjust="spacingAndGlyphs" textLength="87.5" x="176.0417" y="1484.4788">unique.</text><polygon fill="#FBFB77" filter="url(#fpdqrgd)" points="906.25,518.75,906.25,675.8464,1439.5833,675.8464,1439.5833,539.5833,1418.75,518.75,906.25,518.75" style="stroke: #A80036; stroke-width: 2.0833333333333335;"/><polygon fill="#FBFB77" points="906.25,518.75,906.25,675.8464,1164.5833,675.8464,1172.9167,918.5729,1181.25,675.8464,1439.5833,675.8464,1439.5833,539.5833,1418.75,518.75,906.25,518.75" style="stroke: #A80036; stroke-width: 2.0833333333333335;"/><line style="stroke: #A80036; stroke-width: 2.0833333333333335;" x1="1418.75" x2="1418.75" y1="518.75" y2="539.5833"/><line style="stroke: #A80036; stroke-width: 2.0833333333333335;" x1="1439.5833" x2="1418.75" y1="539.5833" y2="539.5833"/><text fill="#000000" font-family="sans-serif" font-size="27.0833" lengthAdjust="spacingAndGlyphs" textLength="489.5833" x="918.75" y="557.2815">For implementation classes, the visibility</text><text fill="#000000" font-family="sans-serif" font-size="27.0833" lengthAdjust="spacingAndGlyphs" textLength="466.6667" x="918.75" y="591.3472">of the constructor should be defined as</text><text fill="#000000" font-family="sans-serif" font-size="27.0833" font-weight="bold" lengthAdjust="spacingAndGlyphs" textLength="139.5833" x="918.75" y="625.413">proctected</text><text fill="#000000" font-family="sans-serif" font-size="27.0833" lengthAdjust="spacingAndGlyphs" textLength="262.5" x="1066.6667" y="625.413">to restrict calls by the</text><text fill="#000000" font-family="sans-serif" font-size="27.0833" lengthAdjust="spacingAndGlyphs" textLength="360.4167" x="918.75" y="659.4788">corresponding ReadersPlugin.</text><!--class NameableConfigurable--><rect fill="#FEFECE" filter="url(#fpdqrgd)" height="215.2995" style="stroke: #A80036; stroke-width: 3.125;" width="581.25" x="657.2917" y="1314.5833"/><ellipse cx="802.6042" cy="1347.9167" fill="#B4A7E5" rx="22.9167" ry="22.9167" style="stroke: #A80036; stroke-width: 2.0833333333333335;"/><path d="M804.5898,1340.918 L804.5898,1354.7852 L808.1706,1354.7852 Q809.4401,1354.7852 809.9935,1355.2734 Q810.5469,1355.7617 810.5469,1356.5755 Q810.5469,1357.3568 809.9935,1357.8451 Q809.4401,1358.3333 808.1706,1358.3333 L797.4609,1358.3333 Q796.1914,1358.3333 795.638,1357.8451 Q795.0846,1357.3568 795.0846,1356.543 Q795.0846,1355.7617 795.638,1355.2734 Q796.1914,1354.7852 797.4609,1354.7852 L801.0417,1354.7852 L801.0417,1340.918 L797.4609,1340.918 Q796.1914,1340.918 795.638,1340.4297 Q795.0846,1339.9414 795.0846,1339.1276 Q795.0846,1338.3464 795.638,1337.8581 Q796.1914,1337.3698 797.4609,1337.3698 L808.1706,1337.3698 Q809.4401,1337.3698 809.9935,1337.8581 Q810.5469,1338.3464 810.5469,1339.1276 Q810.5469,1339.9414 809.9935,1340.4297 Q809.4401,1340.918 808.1706,1340.918 L804.5898,1340.918 Z "/><text fill="#000000" font-family="sans-serif" font-size="25" font-style="italic" lengthAdjust="spacingAndGlyphs" textLength="272.9167" x="845.3125" y="1358.1462">NameableConfigurable</text><line style="stroke: #A80036; stroke-width: 3.125;" x1="659.375" x2="1236.4583" y1="1381.25" y2="1381.25"/><line style="stroke: #A80036; stroke-width: 3.125;" x1="659.375" x2="1236.4583" y1="1397.9167" y2="1397.9167"/><ellipse cx="680.2083" cy="1423.7874" fill="#84BE84" rx="6.25" ry="6.25" style="stroke: #038048; stroke-width: 2.0833333333333335;"/><text fill="#000000" font-family="sans-serif" font-size="22.9167" lengthAdjust="spacingAndGlyphs" textLength="168.75" x="698.9583" y="1430.0395">String getName()</text><ellipse cx="680.2083" cy="1452.6123" fill="#84BE84" rx="6.25" ry="6.25" style="stroke: #038048; stroke-width: 2.0833333333333335;"/><text fill="#000000" font-family="sans-serif" font-size="22.9167" lengthAdjust="spacingAndGlyphs" textLength="364.5833" x="698.9583" y="1458.8643">Map&lt;String, String&gt; getParameters()</text><ellipse cx="680.2083" cy="1481.4372" fill="#84BE84" rx="6.25" ry="6.25" style="stroke: #038048; stroke-width: 2.0833333333333335;"/><text fill="#000000" font-family="sans-serif" font-size="22.9167" lengthAdjust="spacingAndGlyphs" textLength="429.1667" x="698.9583" y="1487.6892">void setParameter(String key, String value)</text><ellipse cx="680.2083" cy="1510.262" fill="#84BE84" rx="6.25" ry="6.25" style="stroke: #038048; stroke-width: 2.0833333333333335;"/><text fill="#000000" font-family="sans-serif" font-size="22.9167" lengthAdjust="spacingAndGlyphs" textLength="527.0833" x="698.9583" y="1516.5141">void setParameters(Map&lt;String, String&gt; parameters)</text><!--class Comparable--><rect fill="#FEFECE" filter="url(#fpdqrgd)" height="128.8249" style="stroke: #A80036; stroke-width: 3.125;" width="243.75" x="1661.4583" y="1357.2917"/><ellipse cx="1696.4583" cy="1390.625" fill="#B4A7E5" rx="22.9167" ry="22.9167" style="stroke: #A80036; stroke-width: 2.0833333333333335;"/><path d="M1698.444,1383.6263 L1698.444,1397.4935 L1702.0247,1397.4935 Q1703.2943,1397.4935 1703.8477,1397.9818 Q1704.401,1398.4701 1704.401,1399.2839 Q1704.401,1400.0651 1703.8477,1400.5534 Q1703.2943,1401.0417 1702.0247,1401.0417 L1691.3151,1401.0417 Q1690.0456,1401.0417 1689.4922,1400.5534 Q1688.9388,1400.0651 1688.9388,1399.2513 Q1688.9388,1398.4701 1689.4922,1397.9818 Q1690.0456,1397.4935 1691.3151,1397.4935 L1694.8958,1397.4935 L1694.8958,1383.6263 L1691.3151,1383.6263 Q1690.0456,1383.6263 1689.4922,1383.138 Q1688.9388,1382.6497 1688.9388,1381.8359 Q1688.9388,1381.0547 1689.4922,1380.5664 Q1690.0456,1380.0781 1691.3151,1380.0781 L1702.0247,1380.0781 Q1703.2943,1380.0781 1703.8477,1380.5664 Q1704.401,1381.0547 1704.401,1381.8359 Q1704.401,1382.6497 1703.8477,1383.138 Q1703.2943,1383.6263 1702.0247,1383.6263 L1698.444,1383.6263 Z "/><text fill="#000000" font-family="sans-serif" font-size="25" font-style="italic" lengthAdjust="spacingAndGlyphs" textLength="145.8333" x="1726.4583" y="1400.8545">Comparable</text><rect fill="#FFFFFF" height="35.612" style="stroke: #000000; stroke-width: 2.0833333333333335; stroke-dasharray: 2.0,2.0;" width="18.75" x="1892.7083" y="1351.0417"/><text fill="#000000" font-family="sans-serif" font-size="25" font-style="italic" lengthAdjust="spacingAndGlyphs" textLength="14.5833" x="1894.7917" y="1379.0771">T</text><line style="stroke: #A80036; stroke-width: 3.125;" x1="1663.5417" x2="1903.125" y1="1423.9583" y2="1423.9583"/><line style="stroke: #A80036; stroke-width: 3.125;" x1="1663.5417" x2="1903.125" y1="1440.625" y2="1440.625"/><ellipse cx="1684.375" cy="1466.4958" fill="#84BE84" rx="6.25" ry="6.25" style="stroke: #038048; stroke-width: 2.0833333333333335;"/><text fill="#000000" font-family="sans-serif" font-size="22.9167" lengthAdjust="spacingAndGlyphs" textLength="189.5833" x="1703.125" y="1472.7478">int compareTo(T o)</text><path d="M358.3333,225.8167 C358.3333,275.0458 358.3333,353.9375 358.3333,426.1604 " fill="none" style="stroke: #A80036; stroke-width: 2.0833333333333335;"/><polygon fill="#A80036" points="358.3333,436.7625,366.6667,418.0125,358.3333,426.3458,350,418.0125,358.3333,436.7625" style="stroke: #A80036; stroke-width: 2.0833333333333335;"/><text fill="#000000" font-family="sans-serif" font-size="27.0833" lengthAdjust="spacingAndGlyphs" textLength="58.3333" x="360.4167" y="321.8648">uses</text><polygon fill="#000000" points="380.2083,340.3158,386.4583,352.8158,392.7083,340.3158,380.2083,340.3158" style="stroke: #000000; stroke-width: 2.0833333333333335;"/><path d="M358.3333,783.9583 C358.3333,831.2667 358.3333,880.0521 358.3333,920.1708 " fill="none" style="stroke: #A80036; stroke-width: 2.0833333333333335;"/><polygon fill="#A80036" points="358.3333,947.7063,366.6667,928.9563,358.3333,937.2896,350,928.9563,358.3333,947.7063" style="stroke: #A80036; stroke-width: 2.0833333333333335;"/><line style="stroke: #A80036; stroke-width: 2.0833333333333335;" x1="358.3333" x2="358.3333" y1="937.2896" y2="920.6229"/><polygon fill="#A80036" points="358.3333,756.275,350,768.775,358.3333,781.275,366.6667,768.775,358.3333,756.275" style="stroke: #A80036; stroke-width: 2.0833333333333335;"/><text fill="#000000" font-family="sans-serif" font-size="27.0833" lengthAdjust="spacingAndGlyphs" textLength="85.4167" x="360.4167" y="848.9482">plugins</text><text fill="#000000" font-family="sans-serif" font-size="27.0833" lengthAdjust="spacingAndGlyphs" textLength="14.5833" x="343.055" y="801.2022">1</text><text fill="#000000" font-family="sans-serif" font-size="27.0833" lengthAdjust="spacingAndGlyphs" textLength="10.4167" x="346.8424" y="925.7973">*</text><path d="M664.5438,1012.5 C700.3354,1012.5 737.2417,1012.5 774.0542,1012.5 " fill="none" style="stroke: #A80036; stroke-width: 2.0833333333333335;"/><polygon fill="#A80036" points="801.4938,1012.5,782.7438,1004.1667,791.0771,1012.5,782.7438,1020.8333,801.4938,1012.5" style="stroke: #A80036; stroke-width: 2.0833333333333335;"/><line style="stroke: #A80036; stroke-width: 2.0833333333333335;" x1="791.0771" x2="774.4104" y1="1012.5" y2="1012.5"/><polygon fill="#A80036" points="636.9583,1012.5,649.4583,1020.8333,661.9583,1012.5,649.4583,1004.1667,636.9583,1012.5" style="stroke: #A80036; stroke-width: 2.0833333333333335;"/><text fill="#000000" font-family="sans-serif" font-size="27.0833" lengthAdjust="spacingAndGlyphs" textLength="89.5833" x="674.4792" y="998.9482">readers</text><text fill="#000000" font-family="sans-serif" font-size="27.0833" lengthAdjust="spacingAndGlyphs" textLength="14.5833" x="653.4879" y="1006.349">1</text><text fill="#000000" font-family="sans-serif" font-size="27.0833" lengthAdjust="spacingAndGlyphs" textLength="10.4167" x="775.188" y="1006.6154">*</text><path d="M759.8063,1290.5083 C656.2125,1219.3104 532.3021,1134.15 449.8083,1077.4521 " fill="none" style="stroke: #A80036; stroke-width: 2.0833333333333335;"/><polygon fill="none" points="768.7063,1278.9292,794.7854,1314.5479,752.1854,1302.9646,768.7063,1278.9292" style="stroke: #A80036; stroke-width: 2.0833333333333335;"/><text fill="#000000" font-family="sans-serif" font-size="27.0833" lengthAdjust="spacingAndGlyphs" textLength="95.8333" x="639.5833" y="1198.9482">extends</text><path d="M1121.8604,1106.5313 C1093.9146,1156.8583 1058.6729,1220.3271 1027.2313,1276.9521 " fill="none" style="stroke: #A80036; stroke-width: 2.0833333333333335;"/><polygon fill="none" points="1039.6979,1284.5417,1006.7208,1313.8896,1014.1979,1270.3833,1039.6979,1284.5417" style="stroke: #A80036; stroke-width: 2.0833333333333335;"/><text fill="#000000" font-family="sans-serif" font-size="27.0833" lengthAdjust="spacingAndGlyphs" textLength="95.8333" x="1087.5" y="1198.9482">extends</text><path d="M622.9438,1077.1521 C670.6542,1087.5292 720.0396,1097.6833 766.6667,1106.25 C958.95,1141.5771 1013.9354,1115.6375 1202.0833,1168.75 C1350.9771,1210.7813 1511.8458,1282.4792 1626.5167,1338.5167 " fill="none" style="stroke: #A80036; stroke-width: 2.0833333333333335;"/><polygon fill="none" points="1633.4354,1325.6708,1664.3,1357.2333,1620.4896,1351.8063,1633.4354,1325.6708" style="stroke: #A80036; stroke-width: 2.0833333333333335;"/><text fill="#000000" font-family="sans-serif" font-size="27.0833" lengthAdjust="spacingAndGlyphs" textLength="95.8333" x="1318.75" y="1198.9482">extends</text><path d="M1715.3271,1323.3792 C1675.075,1271.9375 1620.3188,1210.7646 1560.4167,1168.75 C1526.6292,1145.0521 1488.6771,1124.2646 1450.0896,1106.2646 " fill="none" style="stroke: #A80036; stroke-width: 2.0833333333333335;"/><polygon fill="none" points="1727.3021,1315.0375,1740.7625,1357.0813,1704.0229,1332.6083,1727.3021,1315.0375" style="stroke: #A80036; stroke-width: 2.0833333333333335;"/><text fill="#000000" font-family="sans-serif" font-size="27.0833" lengthAdjust="spacingAndGlyphs" textLength="95.8333" x="1604.1667" y="1198.9482">extends</text></g></svg>