<?xml version="1.0" encoding="UTF-8" standalone="no"?><svg xmlns="http://www.w3.org/2000/svg" xmlns:xlink="http://www.w3.org/1999/xlink" contentScriptType="application/ecmascript" contentStyleType="text/css" height="866px" preserveAspectRatio="none" style="width:591px;height:866px;" version="1.1" viewBox="0 0 591 866" width="591px" zoomAndPan="magnify"><defs><filter height="300%" id="f1xjqisi0vl0iz" width="300%" x="-1" y="-1"><feGaussianBlur result="blurOut" stdDeviation="2.0"/><feColorMatrix in="blurOut" result="blurOut2" type="matrix" values="0 0 0 0 0 0 0 0 0 0 0 0 0 0 0 0 0 0 .4 0"/><feOffset dx="4.0" dy="4.0" in="blurOut2" result="blurOut3"/><feBlend in="SourceGraphic" in2="blurOut3" mode="normal"/></filter></defs><g><ellipse cx="247.25" cy="20" fill="#000000" filter="url(#f1xjqisi0vl0iz)" rx="10" ry="10" style="stroke: none; stroke-width: 1.0;"/><rect fill="#FEFECE" filter="url(#f1xjqisi0vl0iz)" height="35.0938" rx="12.5" ry="12.5" style="stroke: #A80036; stroke-width: 1.5;" width="76" x="209.25" y="50"/><text fill="#000000" font-family="sans-serif" font-size="12" font-weight="bold" lengthAdjust="spacingAndGlyphs" textLength="56" x="219.25" y="72.457">Select PO</text><path d="M166.25,105.0938 L161.25,130.1875 L166.25,155.2813 M328.25,105.0938 L333.25,130.1875 L328.25,155.2813 " fill="#FEFECE" filter="url(#f1xjqisi0vl0iz)" style="stroke: #A80036; stroke-width: 1.5;"/><text fill="#000000" font-family="sans-serif" font-size="12" lengthAdjust="spacingAndGlyphs" textLength="67" x="171.25" y="127.5508">PO selected</text><text fill="#000000" font-family="sans-serif" font-size="12" lengthAdjust="spacingAndGlyphs" textLength="149" x="171.25" y="142.6445">Messages: PO [1] - CSM [0]</text><rect fill="#FEFECE" filter="url(#f1xjqisi0vl0iz)" height="50.1875" rx="12.5" ry="12.5" style="stroke: #A80036; stroke-width: 1.5;" width="144" x="175.25" y="164.1445"/><text fill="#000000" font-family="sans-serif" font-size="12" font-weight="bold" lengthAdjust="spacingAndGlyphs" textLength="124" x="185.25" y="186.6016">Process Identification</text><text fill="#000000" font-family="sans-serif" font-size="12" lengthAdjust="spacingAndGlyphs" textLength="42" x="185.25" y="201.6953">(step 1)</text><path d="M166.25,234.332 L161.25,259.4258 L166.25,284.5195 M328.25,234.332 L333.25,259.4258 L328.25,284.5195 " fill="#FEFECE" filter="url(#f1xjqisi0vl0iz)" style="stroke: #A80036; stroke-width: 1.5;"/><text fill="#000000" font-family="sans-serif" font-size="12" lengthAdjust="spacingAndGlyphs" textLength="140" x="171.25" y="256.7891">Session status: initialized</text><text fill="#000000" font-family="sans-serif" font-size="12" lengthAdjust="spacingAndGlyphs" textLength="149" x="171.25" y="271.8828">Messages: PO [1] - CSM [1]</text><polygon fill="#FEFECE" filter="url(#f1xjqisi0vl0iz)" points="188.75,293.3828,305.75,293.3828,317.75,307.2188,305.75,321.0547,188.75,321.0547,176.75,307.2188,188.75,293.3828" style="stroke: #A80036; stroke-width: 1.5;"/><text fill="#000000" font-family="sans-serif" font-size="11" lengthAdjust="spacingAndGlyphs" textLength="117" x="188.75" y="304.8018">additional PO commands</text><text fill="#000000" font-family="sans-serif" font-size="11" lengthAdjust="spacingAndGlyphs" textLength="93" x="188.75" y="318.6377">inside the session?</text><text fill="#000000" font-family="sans-serif" font-size="11" lengthAdjust="spacingAndGlyphs" textLength="12" x="164.75" y="304.8018">no</text><text fill="#000000" font-family="sans-serif" font-size="11" lengthAdjust="spacingAndGlyphs" textLength="18" x="317.75" y="304.8018">yes</text><rect fill="#FEFECE" filter="url(#f1xjqisi0vl0iz)" height="50.1875" rx="12.5" ry="12.5" style="stroke: #A80036; stroke-width: 1.5;" width="175" x="10" y="331.0547"/><text fill="#000000" font-family="sans-serif" font-size="12" font-weight="bold" lengthAdjust="spacingAndGlyphs" textLength="155" x="20" y="353.5117">Process Opening &amp; Closing</text><text fill="#000000" font-family="sans-serif" font-size="12" lengthAdjust="spacingAndGlyphs" textLength="42" x="20" y="368.6055">(step 2)</text><path d="M29.5,401.2422 L24.5,433.8828 L29.5,466.5234 M165.5,401.2422 L170.5,433.8828 L165.5,466.5234 " fill="#FEFECE" filter="url(#f1xjqisi0vl0iz)" style="stroke: #A80036; stroke-width: 1.5;"/><text fill="#000000" font-family="sans-serif" font-size="12" lengthAdjust="spacingAndGlyphs" textLength="126" x="34.5" y="423.6992">Session status: closed</text><text fill="#000000" font-family="sans-serif" font-size="12" lengthAdjust="spacingAndGlyphs" textLength="58" x="34.5" y="438.793">Messages</text><text fill="#000000" font-family="sans-serif" font-size="12" lengthAdjust="spacingAndGlyphs" textLength="85" x="34.5" y="453.8867">PO [3] - CSM [3]</text><rect fill="#FEFECE" filter="url(#f1xjqisi0vl0iz)" height="50.1875" rx="12.5" ry="12.5" style="stroke: #A80036; stroke-width: 1.5;" width="118" x="338" y="331.0547"/><text fill="#000000" font-family="sans-serif" font-size="12" font-weight="bold" lengthAdjust="spacingAndGlyphs" textLength="98" x="348" y="353.5117">Process Opening</text><text fill="#000000" font-family="sans-serif" font-size="12" lengthAdjust="spacingAndGlyphs" textLength="42" x="348" y="368.6055">(step 2)</text><path d="M333.5,401.2422 L328.5,433.8828 L333.5,466.5234 M460.5,401.2422 L465.5,433.8828 L460.5,466.5234 " fill="#FEFECE" filter="url(#f1xjqisi0vl0iz)" style="stroke: #A80036; stroke-width: 1.5;"/><text fill="#000000" font-family="sans-serif" font-size="12" lengthAdjust="spacingAndGlyphs" textLength="117" x="338.5" y="423.6992">Session status: open</text><text fill="#000000" font-family="sans-serif" font-size="12" lengthAdjust="spacingAndGlyphs" textLength="58" x="338.5" y="438.793">Messages</text><text fill="#000000" font-family="sans-serif" font-size="12" lengthAdjust="spacingAndGlyphs" textLength="85" x="344.5" y="453.8867">PO [2] - CSM [2]</text><polygon fill="#FEFECE" filter="url(#f1xjqisi0vl0iz)" points="327,475.3867,467,475.3867,479,489.2227,467,503.0586,327,503.0586,315,489.2227,327,475.3867" style="stroke: #A80036; stroke-width: 1.5;"/><text fill="#000000" font-family="sans-serif" font-size="11" lengthAdjust="spacingAndGlyphs" textLength="107" x="327" y="486.8057">anticipated responses</text><text fill="#000000" font-family="sans-serif" font-size="11" lengthAdjust="spacingAndGlyphs" textLength="140" x="327" y="500.6416">for additional PO commands?</text><text fill="#000000" font-family="sans-serif" font-size="11" lengthAdjust="spacingAndGlyphs" textLength="18" x="297" y="486.8057">yes</text><text fill="#000000" font-family="sans-serif" font-size="11" lengthAdjust="spacingAndGlyphs" textLength="12" x="479" y="486.8057">no</text><rect fill="#FEFECE" filter="url(#f1xjqisi0vl0iz)" height="50.1875" rx="12.5" ry="12.5" style="stroke: #A80036; stroke-width: 1.5;" width="113" x="244.5" y="513.0586"/><text fill="#000000" font-family="sans-serif" font-size="12" font-weight="bold" lengthAdjust="spacingAndGlyphs" textLength="93" x="254.5" y="535.5156">Process Closing</text><text fill="#000000" font-family="sans-serif" font-size="12" lengthAdjust="spacingAndGlyphs" textLength="42" x="254.5" y="550.6094">(step 3)</text><path d="M220,583.2461 L215,608.3398 L220,633.4336 M382,583.2461 L387,608.3398 L382,633.4336 " fill="#FEFECE" filter="url(#f1xjqisi0vl0iz)" style="stroke: #A80036; stroke-width: 1.5;"/><text fill="#000000" font-family="sans-serif" font-size="12" lengthAdjust="spacingAndGlyphs" textLength="126" x="225" y="605.7031">Session status: closed</text><text fill="#000000" font-family="sans-serif" font-size="12" lengthAdjust="spacingAndGlyphs" textLength="149" x="225" y="620.7969">Messages: PO [3] - CSM [4]</text><rect fill="#FEFECE" filter="url(#f1xjqisi0vl0iz)" height="50.1875" rx="12.5" ry="12.5" style="stroke: #A80036; stroke-width: 1.5;" width="119" x="433.5" y="513.0586"/><text fill="#000000" font-family="sans-serif" font-size="12" font-weight="bold" lengthAdjust="spacingAndGlyphs" textLength="99" x="443.5" y="535.5156">Process Proceed</text><text fill="#000000" font-family="sans-serif" font-size="12" lengthAdjust="spacingAndGlyphs" textLength="42" x="443.5" y="550.6094">(step 3)</text><path d="M412,583.2461 L407,608.3398 L412,633.4336 M574,583.2461 L579,608.3398 L574,633.4336 " fill="#FEFECE" filter="url(#f1xjqisi0vl0iz)" style="stroke: #A80036; stroke-width: 1.5;"/><text fill="#000000" font-family="sans-serif" font-size="12" lengthAdjust="spacingAndGlyphs" textLength="117" x="417" y="605.7031">Session status: open</text><text fill="#000000" font-family="sans-serif" font-size="12" lengthAdjust="spacingAndGlyphs" textLength="149" x="417" y="620.7969">Messages: PO [3] - CSM [4]</text><rect fill="#FEFECE" filter="url(#f1xjqisi0vl0iz)" height="50.1875" rx="12.5" ry="12.5" style="stroke: #A80036; stroke-width: 1.5;" width="113" x="436.5" y="642.2969"/><text fill="#000000" font-family="sans-serif" font-size="12" font-weight="bold" lengthAdjust="spacingAndGlyphs" textLength="93" x="446.5" y="664.7539">Process Closing</text><text fill="#000000" font-family="sans-serif" font-size="12" lengthAdjust="spacingAndGlyphs" textLength="42" x="446.5" y="679.8477">(step 4)</text><path d="M412,712.4844 L407,737.5781 L412,762.6719 M574,712.4844 L579,737.5781 L574,762.6719 " fill="#FEFECE" filter="url(#f1xjqisi0vl0iz)" style="stroke: #A80036; stroke-width: 1.5;"/><text fill="#000000" font-family="sans-serif" font-size="12" lengthAdjust="spacingAndGlyphs" textLength="126" x="417" y="734.9414">Session status: closed</text><text fill="#000000" font-family="sans-serif" font-size="12" lengthAdjust="spacingAndGlyphs" textLength="149" x="417" y="750.0352">Messages: PO [4] - CSM [5]</text><polygon fill="#FEFECE" filter="url(#f1xjqisi0vl0iz)" points="397,761.5352,409,773.5352,397,785.5352,385,773.5352,397,761.5352" style="stroke: #A80036; stroke-width: 1.5;"/><polygon fill="#FEFECE" filter="url(#f1xjqisi0vl0iz)" points="247.25,791.5352,259.25,803.5352,247.25,815.5352,235.25,803.5352,247.25,791.5352" style="stroke: #A80036; stroke-width: 1.5;"/><ellipse cx="247.25" cy="845.5352" fill="none" filter="url(#f1xjqisi0vl0iz)" rx="10" ry="10" style="stroke: #000000; stroke-width: 1.0;"/><ellipse cx="247.75" cy="846.0352" fill="#000000" filter="url(#f1xjqisi0vl0iz)" rx="6" ry="6" style="stroke: none; stroke-width: 1.0;"/><line style="stroke: #A80036; stroke-width: 1.5;" x1="247.25" x2="247.25" y1="30" y2="50"/><polygon fill="#A80036" points="243.25,40,247.25,50,251.25,40,247.25,44" style="stroke: #A80036; stroke-width: 1.0;"/><line style="stroke: #A80036; stroke-width: 1.5;" x1="247.25" x2="247.25" y1="85.0938" y2="105.0938"/><polygon fill="#A80036" points="243.25,95.0938,247.25,105.0938,251.25,95.0938,247.25,99.0938" style="stroke: #A80036; stroke-width: 1.0;"/><line style="stroke: #A80036; stroke-width: 1.5;" x1="247.25" x2="247.25" y1="149.1445" y2="164.1445"/><polygon fill="#A80036" points="243.25,154.1445,247.25,164.1445,251.25,154.1445,247.25,158.1445" style="stroke: #A80036; stroke-width: 1.0;"/><line style="stroke: #A80036; stroke-width: 1.5;" x1="247.25" x2="247.25" y1="214.332" y2="234.332"/><polygon fill="#A80036" points="243.25,224.332,247.25,234.332,251.25,224.332,247.25,228.332" style="stroke: #A80036; stroke-width: 1.0;"/><line style="stroke: #A80036; stroke-width: 1.5;" x1="97.5" x2="97.5" y1="381.2422" y2="401.2422"/><polygon fill="#A80036" points="93.5,391.2422,97.5,401.2422,101.5,391.2422,97.5,395.2422" style="stroke: #A80036; stroke-width: 1.0;"/><line style="stroke: #A80036; stroke-width: 1.5;" x1="397" x2="397" y1="381.2422" y2="401.2422"/><polygon fill="#A80036" points="393,391.2422,397,401.2422,401,391.2422,397,395.2422" style="stroke: #A80036; stroke-width: 1.0;"/><line style="stroke: #A80036; stroke-width: 1.5;" x1="301" x2="301" y1="563.2461" y2="583.2461"/><polygon fill="#A80036" points="297,573.2461,301,583.2461,305,573.2461,301,577.2461" style="stroke: #A80036; stroke-width: 1.0;"/><line style="stroke: #A80036; stroke-width: 1.5;" x1="493" x2="493" y1="563.2461" y2="583.2461"/><polygon fill="#A80036" points="489,573.2461,493,583.2461,497,573.2461,493,577.2461" style="stroke: #A80036; stroke-width: 1.0;"/><line style="stroke: #A80036; stroke-width: 1.5;" x1="493" x2="493" y1="627.2969" y2="642.2969"/><polygon fill="#A80036" points="489,632.2969,493,642.2969,497,632.2969,493,636.2969" style="stroke: #A80036; stroke-width: 1.0;"/><line style="stroke: #A80036; stroke-width: 1.5;" x1="493" x2="493" y1="692.4844" y2="712.4844"/><polygon fill="#A80036" points="489,702.4844,493,712.4844,497,702.4844,493,706.4844" style="stroke: #A80036; stroke-width: 1.0;"/><line style="stroke: #A80036; stroke-width: 1.5;" x1="315" x2="301" y1="489.2227" y2="489.2227"/><line style="stroke: #A80036; stroke-width: 1.5;" x1="301" x2="301" y1="489.2227" y2="513.0586"/><polygon fill="#A80036" points="297,503.0586,301,513.0586,305,503.0586,301,507.0586" style="stroke: #A80036; stroke-width: 1.0;"/><line style="stroke: #A80036; stroke-width: 1.5;" x1="479" x2="493" y1="489.2227" y2="489.2227"/><line style="stroke: #A80036; stroke-width: 1.5;" x1="493" x2="493" y1="489.2227" y2="513.0586"/><polygon fill="#A80036" points="489,503.0586,493,513.0586,497,503.0586,493,507.0586" style="stroke: #A80036; stroke-width: 1.0;"/><line style="stroke: #A80036; stroke-width: 1.5;" x1="301" x2="301" y1="627.2969" y2="773.5352"/><line style="stroke: #A80036; stroke-width: 1.5;" x1="301" x2="385" y1="773.5352" y2="773.5352"/><polygon fill="#A80036" points="375,769.5352,385,773.5352,375,777.5352,379,773.5352" style="stroke: #A80036; stroke-width: 1.0;"/><line style="stroke: #A80036; stroke-width: 1.5;" x1="493" x2="493" y1="756.5352" y2="773.5352"/><line style="stroke: #A80036; stroke-width: 1.5;" x1="493" x2="409" y1="773.5352" y2="773.5352"/><polygon fill="#A80036" points="419,769.5352,409,773.5352,419,777.5352,415,773.5352" style="stroke: #A80036; stroke-width: 1.0;"/><line style="stroke: #A80036; stroke-width: 1.5;" x1="397" x2="397" y1="460.3867" y2="475.3867"/><polygon fill="#A80036" points="393,465.3867,397,475.3867,401,465.3867,397,469.3867" style="stroke: #A80036; stroke-width: 1.0;"/><line style="stroke: #A80036; stroke-width: 1.5;" x1="176.75" x2="97.5" y1="307.2188" y2="307.2188"/><line style="stroke: #A80036; stroke-width: 1.5;" x1="97.5" x2="97.5" y1="307.2188" y2="331.0547"/><polygon fill="#A80036" points="93.5,321.0547,97.5,331.0547,101.5,321.0547,97.5,325.0547" style="stroke: #A80036; stroke-width: 1.0;"/><line style="stroke: #A80036; stroke-width: 1.5;" x1="317.75" x2="397" y1="307.2188" y2="307.2188"/><line style="stroke: #A80036; stroke-width: 1.5;" x1="397" x2="397" y1="307.2188" y2="331.0547"/><polygon fill="#A80036" points="393,321.0547,397,331.0547,401,321.0547,397,325.0547" style="stroke: #A80036; stroke-width: 1.0;"/><line style="stroke: #A80036; stroke-width: 1.5;" x1="97.5" x2="97.5" y1="460.3867" y2="803.5352"/><line style="stroke: #A80036; stroke-width: 1.5;" x1="97.5" x2="235.25" y1="803.5352" y2="803.5352"/><polygon fill="#A80036" points="225.25,799.5352,235.25,803.5352,225.25,807.5352,229.25,803.5352" style="stroke: #A80036; stroke-width: 1.0;"/><line style="stroke: #A80036; stroke-width: 1.5;" x1="397" x2="397" y1="785.5352" y2="803.5352"/><line style="stroke: #A80036; stroke-width: 1.5;" x1="397" x2="259.25" y1="803.5352" y2="803.5352"/><polygon fill="#A80036" points="269.25,799.5352,259.25,803.5352,269.25,807.5352,265.25,803.5352" style="stroke: #A80036; stroke-width: 1.0;"/><line style="stroke: #A80036; stroke-width: 1.5;" x1="247.25" x2="247.25" y1="278.3828" y2="293.3828"/><polygon fill="#A80036" points="243.25,283.3828,247.25,293.3828,251.25,283.3828,247.25,287.3828" style="stroke: #A80036; stroke-width: 1.0;"/><line style="stroke: #A80036; stroke-width: 1.5;" x1="247.25" x2="247.25" y1="815.5352" y2="835.5352"/><polygon fill="#A80036" points="243.25,825.5352,247.25,835.5352,251.25,825.5352,247.25,829.5352" style="stroke: #A80036; stroke-width: 1.0;"/><!--
@startuml
start
:**Select PO**;
:PO selected\nMessages: PO [1] - CSM [0] }
:**Process Identification**
(step 1);
:Session status: initialized\nMessages: PO [1] - CSM [1] }
if (additional PO commands\ninside the session?) then (no)
  :**Process Opening & Closing**
  (step 2);
  :Session status: closed\nMessages\nPO [3] - CSM [3] }
else (yes)
  :**Process Opening**
  (step 2);
  :Session status: open\nMessages\n  PO [2] - CSM [2] }
    if (anticipated responses\nfor additional PO commands?) then (yes)
    :**Process Closing**
	(step 3);
    :Session status: closed\nMessages: PO [3] - CSM [4] }
    else (no)
      :**Process Proceed**
	  (step 3);
      :Session status: open\nMessages: PO [3] - CSM [4] }
	  :**Process Closing**
	  (step 4);
      :Session status: closed\nMessages: PO [4] - CSM [5] }
	endif
endif
stop
@enduml

PlantUML version 1.2018.01(Sun Jan 28 19:08:22 CET 2018)
(APACHE source distribution)
Java Runtime: Java(TM) SE Runtime Environment
JVM: Java HotSpot(TM) 64-Bit Server VM
Java Version: 10.0.1+10
Operating System: Windows 10
OS Version: 10.0
Default Encoding: Cp1252
Language: fr
Country: FR
--></g></svg>