<?xml version="1.0" encoding="UTF-8" standalone="no"?>
<!DOCTYPE svg PUBLIC "-//W3C//DTD SVG 1.1//EN" "http://www.w3.org/Graphics/SVG/1.1/DTD/svg11.dtd">
<!-- Généré par Microsoft Visio, SVG Export 20180322-CNA-SDK-Architecture-Plugins.svg Plugin2 -->
<svg xmlns="http://www.w3.org/2000/svg" xmlns:xlink="http://www.w3.org/1999/xlink" xmlns:ev="http://www.w3.org/2001/xml-events"
		width="11.4657in" height="6.77713in" viewBox="0 0 825.531 487.954" xml:space="preserve" color-interpolation-filters="sRGB"
		class="st24">
	<style type="text/css">
	<![CDATA[
		.st1 {fill:none;stroke:none;stroke-linecap:round;stroke-linejoin:round;stroke-width:0.75}
		.st2 {fill:#000000;font-family:Calibri;font-size:0.833336em}
		.st3 {fill:#ffff99;stroke:#000000;stroke-linecap:round;stroke-linejoin:round;stroke-width:0.24}
		.st4 {fill:#000000;font-family:Calibri;font-size:1.00001em;font-weight:bold}
		.st5 {fill:#eaeff5;stroke:#000000;stroke-linecap:round;stroke-linejoin:round;stroke-width:0.24}
		.st6 {marker-start:url(#mrkr5-38);stroke:#000000;stroke-linecap:round;stroke-linejoin:round;stroke-width:0.24}
		.st7 {fill:#000000;fill-opacity:1;stroke:#000000;stroke-opacity:1;stroke-width:0.08695652173913}
		.st8 {marker-end:url(#mrkr5-46);marker-start:url(#mrkr5-38);stroke:#000000;stroke-linecap:round;stroke-linejoin:round;stroke-width:0.24}
		.st9 {stroke:#000000;stroke-linecap:round;stroke-linejoin:round;stroke-width:0.24}
		.st10 {marker-end:url(#mrkr5-46);stroke:#000000;stroke-linecap:round;stroke-linejoin:round;stroke-width:0.24}
		.st11 {fill:#33cc33;stroke:none;stroke-linecap:round;stroke-linejoin:round;stroke-width:0.24}
		.st12 {fill:#0000ff;stroke:none;stroke-linecap:round;stroke-linejoin:round;stroke-width:0.24}
		.st13 {fill:#ff0000;stroke:none;stroke-linecap:round;stroke-linejoin:round;stroke-width:0.24}
		.st14 {fill:none;stroke:#ff0000;stroke-linecap:round;stroke-linejoin:round;stroke-width:2.25}
		.st15 {fill:#000000;font-family:Calibri;font-size:1.00001em}
		.st16 {fill:none;stroke:#0066ff;stroke-linecap:round;stroke-linejoin:round;stroke-width:2.25}
		.st17 {fill:none;stroke:#33cc33;stroke-linecap:round;stroke-linejoin:round;stroke-width:2.25}
		.st18 {fill:none;stroke:none;stroke-linecap:round;stroke-linejoin:round;stroke-width:2.25}
		.st19 {stroke:#000000;stroke-dasharray:1.68,1.2;stroke-linecap:round;stroke-linejoin:round;stroke-width:0.24}
		.st20 {fill:#000000;font-family:Calibri;font-size:0.916672em;font-weight:bold}
		.st21 {fill:#000000;font-family:Calibri;font-size:0.833336em;font-style:italic}
		.st22 {fill:#000000;font-family:Calibri;font-size:0.916672em}
		.st23 {fill:#000000;font-family:Calibri;font-size:0.833336em;font-weight:bold}
		.st24 {fill:none;fill-rule:evenodd;font-size:12px;overflow:visible;stroke-linecap:square;stroke-miterlimit:3}
	]]>
	</style>

	<defs id="Markers">
		<g id="lend5">
			<path d="M 2 1 L 0 0 L 1.98117 -0.993387 C 1.67173 -0.364515 1.67301 0.372641 1.98465 1.00043 " style="stroke:none"/>
		</g>
		<marker id="mrkr5-38" class="st7" refX="18.625" orient="auto" markerUnits="strokeWidth" overflow="visible">
			<use xlink:href="#lend5" transform="scale(11.5) "/>
		</marker>
		<marker id="mrkr5-46" class="st7" refX="-20.125" orient="auto" markerUnits="strokeWidth" overflow="visible">
			<use xlink:href="#lend5" transform="scale(-11.5,-11.5) "/>
		</marker>
	</defs>
	<g>
		<title>Plugin</title>
		<g id="group157-1" transform="translate(19.125,-19.125)">
			<title>Feuille.157</title>
			<g id="group44-2" transform="translate(3.19744E-14,-113.386)">
				<title>Feuille.44</title>
				<g id="shape43-3" transform="translate(56.6929,-28.3465)">
					<title>Feuille.43</title>
					<desc>C++</desc>
					<rect x="0" y="473.78" width="28.3465" height="14.1732" class="st1"/>
					<text x="9.05" y="483.87" class="st2">C++</text>				</g>
				<g id="shape42-6">
					<title>Case.42</title>
					<rect x="0" y="446.143" width="85.0394" height="41.811" rx="8.50394" ry="8.50394" class="st3"/>
				</g>
			</g>
			<g id="shape133-8" transform="translate(3.00245E-06,-141.732)">
				<title>Feuille.133</title>
				<desc>Windows</desc>
				<rect x="0" y="473.78" width="85.0394" height="14.1732" class="st1"/>
				<text x="4" y="484.47" class="st4">Windows</text>			</g>
			<g id="shape134-11" transform="translate(5.9601E-06,-127.559)">
				<title>Feuille.134</title>
				<desc>UICC &#38; eSE</desc>
				<rect x="0" y="473.78" width="85.0394" height="14.1732" class="st1"/>
				<text x="4" y="484.47" class="st4">UICC &#38; eSE</text>			</g>
			<g id="shape135-14" transform="translate(5.9601E-06,-113.386)">
				<title>Feuille.135</title>
				<desc>access</desc>
				<rect x="0" y="473.78" width="85.0394" height="14.1732" class="st1"/>
				<text x="4" y="484.47" class="st4">access</text>			</g>
			<g id="shape92-17" transform="translate(634.961,-164.409)">
				<title>Case.92</title>
				<desc>HSM JavaEE lib (wrapper)</desc>
				<rect x="0" y="425.591" width="153.071" height="62.3622" rx="8.50394" ry="8.50394" class="st3"/>
				<text x="4" y="440.39" class="st4">HSM JavaEE lib (wrapper)</text>			</g>
			<g id="shape1-20" transform="translate(538.583,-245.197)">
				<title>Case.32</title>
				<rect x="0" y="445.434" width="85.0394" height="42.5197" rx="8.50394" ry="8.50394" class="st3"/>
			</g>
			<g id="shape2-22" transform="translate(538.583,-107.008)">
				<title>Case.33</title>
				<rect x="0" y="445.434" width="85.0394" height="42.5197" rx="8.50394" ry="8.50394" class="st3"/>
			</g>
			<g id="shape3-24" transform="translate(212.598,-246.614)">
				<title>Case.3</title>
				<rect x="0" y="445.434" width="85.0394" height="42.5197" rx="8.50394" ry="8.50394" class="st3"/>
			</g>
			<g id="shape4-26" transform="translate(212.598,-107.717)">
				<title>Case.4</title>
				<rect x="0" y="445.434" width="85.0394" height="42.5197" rx="8.50394" ry="8.50394" class="st3"/>
			</g>
			<g id="shape5-28" transform="translate(311.811,-408.189)">
				<title>Case</title>
				<desc>SE Proxy API</desc>
				<rect x="0" y="445.434" width="141.732" height="42.5197" rx="8.50394" ry="8.50394" class="st5"/>
				<text x="39.81" y="470.29" class="st4">SE Proxy API</text>			</g>
			<g id="shape6-31" transform="translate(14.1732,-252.283)">
				<title>Case.5</title>
				<rect x="0" y="445.434" width="85.0394" height="42.5197" rx="8.50394" ry="8.50394" class="st3"/>
			</g>
			<g id="shape8-33" transform="translate(870.631,79.7647) rotate(90)">
				<title>Feuille.8</title>
				<path d="M4.47 487.95 L4.83 487.95 L56.69 487.95" class="st6"/>
			</g>
			<g id="shape9-39" transform="translate(544.647,235.67) rotate(90)">
				<title>Feuille.9</title>
				<path d="M4.47 487.95 L4.83 487.95 L91.55 487.95" class="st8"/>
			</g>
			<g id="shape10-47" transform="translate(42.5197,-254.409)">
				<title>Feuille.10</title>
				<desc>Java &#38; C++</desc>
				<rect x="0" y="473.78" width="56.6929" height="14.1732" class="st1"/>
				<text x="8.77" y="483.87" class="st2">Java &#38; C++</text>			</g>
			<g id="shape13-50" transform="translate(842.284,236.379) rotate(90)">
				<title>Feuille.13</title>
				<path d="M4.47 487.95 L4.83 487.95 L90.84 487.95" class="st8"/>
			</g>
			<g id="shape16-57" transform="translate(311.811,-99.2126)">
				<title>Case.16</title>
				<rect x="0" y="431.261" width="85.0394" height="56.6929" rx="8.50394" ry="8.50394" class="st3"/>
			</g>
			<g id="shape17-59" transform="translate(941.497,235.67) rotate(90)">
				<title>Feuille.17</title>
				<path d="M4.47 487.95 L4.83 487.95 L91.55 487.95" class="st8"/>
			</g>
			<g id="shape19-66" transform="translate(411.024,-99.2126)">
				<title>Case.15</title>
				<rect x="0" y="431.261" width="85.0394" height="56.6929" rx="8.50394" ry="8.50394" class="st3"/>
			</g>
			<g id="shape21-68" transform="translate(760.603,-54.0646) rotate(53.4711)">
				<title>Feuille.21</title>
				<path d="M4.47 487.95 L4.83 487.95 L114.23 487.95" class="st8"/>
			</g>
			<g id="shape22-75" transform="translate(206.929,-252.283)">
				<title>Case.18</title>
				<rect x="0" y="445.434" width="85.0394" height="42.5197" rx="8.50394" ry="8.50394" class="st3"/>
			</g>
			<g id="shape23-77" transform="translate(206.929,-113.386)">
				<title>Case.19</title>
				<rect x="0" y="445.434" width="85.0394" height="42.5197" rx="8.50394" ry="8.50394" class="st3"/>
			</g>
			<g id="shape24-79" transform="translate(737.402,235.67) rotate(90)">
				<title>Feuille.24</title>
				<path d="M4.47 487.95 L4.83 487.95 L91.55 487.95" class="st8"/>
			</g>
			<g id="shape25-86" transform="translate(56.1648,-350.787) rotate(-0.0620084)">
				<title>Feuille.25</title>
				<path d="M0 487.95 L654.8 487.95" class="st9"/>
			</g>
			<g id="shape26-89" transform="translate(544.647,137.166) rotate(90)">
				<title>Feuille.26</title>
				<path d="M0 487.95 L51.15 487.95" class="st10"/>
			</g>
			<g id="shape27-94" transform="translate(737.402,136.458) rotate(90)">
				<title>Feuille.27</title>
				<path d="M0 487.95 L51.86 487.95" class="st10"/>
			</g>
			<g id="shape28-99" transform="translate(842.284,137.166) rotate(90)">
				<title>Feuille.28</title>
				<path d="M0 487.95 L51.86 487.95" class="st10"/>
			</g>
			<g id="shape29-104" transform="translate(941.884,140.182) rotate(90.4058)">
				<title>Feuille.29</title>
				<path d="M0 487.95 L51.6 487.95" class="st10"/>
			</g>
			<g id="shape30-109" transform="translate(532.913,-251.575)">
				<title>Case.26</title>
				<rect x="0" y="445.434" width="85.0394" height="42.5197" rx="8.50394" ry="8.50394" class="st3"/>
			</g>
			<g id="shape31-111" transform="translate(532.913,-113.386)">
				<title>Case.27</title>
				<desc>Web Service...</desc>
				<rect x="0" y="445.434" width="85.0394" height="42.5197" rx="8.50394" ry="8.50394" class="st3"/>
				<text x="6.84" y="470.29" class="st4">Web Service...</text>			</g>
			<g id="shape32-114" transform="translate(1063.39,236.379) rotate(90)">
				<title>Feuille.32</title>
				<path d="M4.47 487.95 L4.83 487.95 L90.84 487.95" class="st8"/>
			</g>
			<g id="shape33-121" transform="translate(1063.39,137.166) rotate(90)">
				<title>Feuille.33</title>
				<path d="M0 487.95 L51.86 487.95" class="st10"/>
			</g>
			<g id="shape34-126" transform="translate(668.976,-252.283)">
				<title>Case.34</title>
				<rect x="0" y="445.434" width="85.0394" height="42.5197" rx="8.50394" ry="8.50394" class="st3"/>
			</g>
			<g id="shape35-128" transform="translate(634.961,-99.9213)">
				<title>Case.35</title>
				<rect x="0" y="446.143" width="73.7008" height="41.811" rx="8.50394" ry="8.50394" class="st3"/>
			</g>
			<g id="shape36-130" transform="translate(1159.76,312.206) rotate(90)">
				<title>Feuille.36</title>
				<path d="M4.47 487.95 L4.83 487.95 L29.19 487.95" class="st8"/>
			</g>
			<g id="shape37-137" transform="translate(714.331,-99.9213)">
				<title>Case.38</title>
				<rect x="0" y="446.143" width="73.7008" height="41.811" rx="8.50394" ry="8.50394" class="st3"/>
			</g>
			<g id="shape38-139" transform="translate(1239.13,312.206) rotate(90)">
				<title>Feuille.38</title>
				<path d="M4.47 487.95 L4.83 487.95 L29.19 487.95" class="st8"/>
			</g>
			<g id="shape39-146" transform="translate(697.323,-255.118)">
				<title>Feuille.39</title>
				<desc>Java or C++</desc>
				<rect x="0" y="473.78" width="59.5276" height="14.1732" class="st1"/>
				<text x="9.67" y="486.78" class="st2">Java or C++</text>			</g>
			<g id="shape12-149" transform="translate(1199.45,136.458) rotate(90)">
				<title>Feuille.12</title>
				<path d="M0 487.95 L51.86 487.95" class="st10"/>
			</g>
			<g id="shape41-154" transform="translate(832.49,524.729) rotate(126.327)">
				<title>Feuille.41</title>
				<path d="M4.47 487.95 L4.83 487.95 L114.8 487.95" class="st8"/>
			</g>
			<g id="group45-161" transform="translate(14.1732,-99.2126)">
				<title>Feuille.45</title>
				<g id="shape7-162">
					<title>Case.6</title>
					<rect x="0" y="445.434" width="85.0394" height="42.5197" rx="8.50394" ry="8.50394" class="st3"/>
				</g>
				<g id="shape40-164" transform="translate(56.6929,-28.3465)">
					<title>Feuille.40</title>
					<desc>Java</desc>
					<rect x="0" y="473.78" width="28.3465" height="14.1732" class="st1"/>
					<text x="7.06" y="483.87" class="st2">Java</text>				</g>
			</g>
			<g id="group46-167" transform="translate(311.811,-254.409)">
				<title>Feuille.46</title>
				<g id="shape11-168" transform="translate(4.79616E-14,2.83465)">
					<title>Case.11</title>
					<rect x="0" y="445.434" width="85.0394" height="42.5197" rx="8.50394" ry="8.50394" class="st3"/>
				</g>
				<g id="shape14-170" transform="translate(56.6929,2.83465)">
					<title>Feuille.14</title>
					<desc>Java</desc>
					<rect x="0" y="473.78" width="28.3465" height="14.1732" class="st1"/>
					<text x="7.06" y="483.87" class="st2">Java</text>				</g>
			</g>
			<g id="group47-173" transform="translate(411.024,-255.118)">
				<title>Feuille.47</title>
				<g id="shape15-174" transform="translate(1.59872E-14,2.83465)">
					<title>Case.9</title>
					<desc>PC/SC plugin</desc>
					<rect x="0" y="445.434" width="85.0394" height="42.5197" rx="8.50394" ry="8.50394" class="st3"/>
					<text x="10.75" y="470.29" class="st4">PC/SC plugin</text>				</g>
				<g id="shape18-177" transform="translate(56.6929,2.83465)">
					<title>Feuille.18</title>
					<desc>C++</desc>
					<rect x="0" y="473.78" width="28.3465" height="14.1732" class="st1"/>
					<text x="9.05" y="483.87" class="st2">C++</text>				</g>
			</g>
			<g id="shape48-180" transform="translate(113.386,-252.283)">
				<title>Case.48</title>
				<rect x="0" y="445.434" width="85.0394" height="42.5197" rx="8.50394" ry="8.50394" class="st3"/>
			</g>
			<g id="shape49-182" transform="translate(643.859,235.67) rotate(90)">
				<title>Feuille.49</title>
				<path d="M4.47 487.95 L4.83 487.95 L91.55 487.95" class="st8"/>
			</g>
			<g id="shape50-189" transform="translate(141.732,-254.409)">
				<title>Feuille.50</title>
				<desc>Java</desc>
				<rect x="0" y="473.78" width="56.6929" height="14.1732" class="st1"/>
				<text x="35.41" y="483.87" class="st2">Java</text>			</g>
			<g id="shape55-192" transform="translate(113.386,-99.2126)">
				<title>Case.6</title>
				<rect x="0" y="431.261" width="85.0394" height="56.6929" rx="8.50394" ry="8.50394" class="st3"/>
			</g>
			<g id="shape51-194" transform="translate(643.859,136.458) rotate(90)">
				<title>Feuille.51</title>
				<path d="M0 487.95 L51.86 487.95" class="st10"/>
			</g>
			<g id="shape52-199" transform="translate(569.764,-252.283)">
				<title>Feuille.52</title>
				<desc>Java &#38; C++</desc>
				<rect x="0" y="473.78" width="53.8583" height="14.1732" class="st1"/>
				<text x="5.94" y="483.87" class="st2">Java &#38; C++</text>			</g>
			<g id="shape57-202" transform="translate(545.669,-56.6929)">
				<title>Cercle.57</title>
				<path d="M0 480.87 A7.08661 7.08661 0 0 1 14.17 480.87 A7.08661 7.08661 0 1 1 0 480.87 Z" class="st11"/>
			</g>
			<g id="shape58-204" transform="translate(568.346,-56.6929)">
				<title>Cercle.58</title>
				<path d="M0 480.87 A7.08661 7.08661 0 0 1 14.17 480.87 A7.08661 7.08661 0 1 1 0 480.87 Z" class="st12"/>
			</g>
			<g id="shape59-206" transform="translate(664.724,-56.6929)">
				<title>Cercle.59</title>
				<path d="M0 480.87 A7.08661 7.08661 0 0 1 14.17 480.87 A7.08661 7.08661 0 1 1 0 480.87 Z" class="st13"/>
			</g>
			<g id="shape60-208" transform="translate(591.024,-56.6929)">
				<title>Cercle.60</title>
				<path d="M0 480.87 A7.08661 7.08661 0 0 1 14.17 480.87 A7.08661 7.08661 0 1 1 0 480.87 Z" class="st13"/>
			</g>
			<g id="shape61-210" transform="translate(460.63,-56.6929)">
				<title>Cercle.61</title>
				<path d="M0 480.87 A7.08661 7.08661 0 0 1 14.17 480.87 A7.08661 7.08661 0 1 1 0 480.87 Z" class="st13"/>
			</g>
			<g id="shape62-212" transform="translate(361.417,-56.6929)">
				<title>Cercle.62</title>
				<path d="M0 480.87 A7.08661 7.08661 0 0 1 14.17 480.87 A7.08661 7.08661 0 1 1 0 480.87 Z" class="st13"/>
			</g>
			<g id="shape63-214" transform="translate(432.283,-56.6929)">
				<title>Cercle.63</title>
				<path d="M0 480.87 A7.08661 7.08661 0 0 1 14.17 480.87 A7.08661 7.08661 0 1 1 0 480.87 Z" class="st12"/>
			</g>
			<g id="shape64-216" transform="translate(333.071,-56.6929)">
				<title>Cercle.64</title>
				<path d="M0 480.87 A7.08661 7.08661 0 0 1 14.17 480.87 A7.08661 7.08661 0 1 1 0 480.87 Z" class="st12"/>
			</g>
			<g id="shape65-218" transform="translate(242.362,-56.6929)">
				<title>Cercle.65</title>
				<path d="M0 480.87 A7.08661 7.08661 0 0 1 14.17 480.87 A7.08661 7.08661 0 1 1 0 480.87 Z" class="st12"/>
			</g>
			<g id="shape66-220" transform="translate(162.992,-56.6929)">
				<title>Cercle.66</title>
				<path d="M0 480.87 A7.08661 7.08661 0 0 1 14.17 480.87 A7.08661 7.08661 0 1 1 0 480.87 Z" class="st12"/>
			</g>
			<g id="shape67-222" transform="translate(134.646,-56.6929)">
				<title>Cercle.67</title>
				<path d="M0 480.87 A7.08661 7.08661 0 0 1 14.17 480.87 A7.08661 7.08661 0 1 1 0 480.87 Z" class="st11"/>
			</g>
			<g id="shape68-224" transform="translate(49.6063,-56.6929)">
				<title>Cercle.68</title>
				<path d="M0 480.87 A7.08661 7.08661 0 0 1 14.17 480.87 A7.08661 7.08661 0 1 1 0 480.87 Z" class="st11"/>
			</g>
			<g id="shape69-226" transform="translate(304.724,0)">
				<title>Feuille.69</title>
				<desc>Ticketing Server</desc>
				<rect x="0" y="466.694" width="113.386" height="21.2598" class="st14"/>
				<text x="17.8" y="480.92" class="st15">Ticketing Server</text>			</g>
			<g id="shape70-229" transform="translate(177.165,0)">
				<title>Feuille.70</title>
				<desc>Ticketing Terminal</desc>
				<rect x="0" y="466.694" width="113.386" height="21.2598" class="st16"/>
				<text x="11.85" y="480.92" class="st15">Ticketing Terminal</text>			</g>
			<g id="shape71-232" transform="translate(49.6063,0)">
				<title>Feuille.71</title>
				<desc>Traveler’s device</desc>
				<rect x="0" y="466.694" width="113.386" height="21.2598" class="st17"/>
				<text x="15.71" y="480.92" class="st15">Traveler’s device</text>			</g>
			<g id="shape53-235">
				<title>Feuille.53</title>
				<desc>Usages:</desc>
				<rect x="0" y="466.694" width="49.6063" height="21.2598" class="st18"/>
				<text x="5.97" y="480.92" class="st15">Usages:</text>			</g>
			<g id="shape54-238" transform="translate(544.647,391.576) rotate(90)">
				<title>Feuille.54</title>
				<path d="M0 487.95 L22.68 487.95" class="st19"/>
			</g>
			<g id="shape72-241" transform="translate(629.686,391.576) rotate(90)">
				<title>Feuille.72</title>
				<path d="M0 487.95 L22.68 487.95" class="st19"/>
			</g>
			<g id="shape73-244" transform="translate(658.032,391.576) rotate(90)">
				<title>Feuille.73</title>
				<path d="M0 487.95 L22.68 487.95" class="st19"/>
			</g>
			<g id="shape74-247" transform="translate(737.402,383.072) rotate(90)">
				<title>Feuille.74</title>
				<path d="M0 487.95 L31.18 487.95" class="st19"/>
			</g>
			<g id="shape75-250" transform="translate(828.111,391.576) rotate(90)">
				<title>Feuille.75</title>
				<path d="M0 487.95 L22.68 487.95" class="st19"/>
			</g>
			<g id="shape76-253" transform="translate(856.458,391.576) rotate(90)">
				<title>Feuille.76</title>
				<path d="M0 487.95 L22.68 487.95" class="st19"/>
			</g>
			<g id="shape77-256" transform="translate(927.324,391.576) rotate(90)">
				<title>Feuille.77</title>
				<path d="M0 487.95 L22.68 487.95" class="st19"/>
			</g>
			<g id="shape78-259" transform="translate(955.67,391.576) rotate(90)">
				<title>Feuille.78</title>
				<path d="M0 487.95 L22.68 487.95" class="st19"/>
			</g>
			<g id="shape79-262" transform="translate(1063.39,383.78) rotate(90)">
				<title>Feuille.79</title>
				<path d="M0 487.95 L30.47 487.95" class="st19"/>
			</g>
			<g id="shape80-265" transform="translate(1086.06,383.78) rotate(90)">
				<title>Feuille.80</title>
				<path d="M0 487.95 L30.47 487.95" class="st19"/>
			</g>
			<g id="shape81-268" transform="translate(1040.71,383.78) rotate(90)">
				<title>Feuille.81</title>
				<path d="M0 487.95 L30.47 487.95" class="st19"/>
			</g>
			<g id="shape83-271" transform="translate(1159.76,390.867) rotate(90)">
				<title>Feuille.83</title>
				<path d="M0 487.95 L22.68 487.95" class="st19"/>
			</g>
			<g id="shape56-274" transform="translate(744.094,-56.6929)">
				<title>Cercle</title>
				<path d="M0 480.87 A7.08661 7.08661 0 0 1 14.17 480.87 A7.08661 7.08661 0 1 1 0 480.87 Z" class="st13"/>
			</g>
			<g id="shape82-276" transform="translate(1239.13,390.867) rotate(90)">
				<title>Feuille.82</title>
				<path d="M0 487.95 L22.68 487.95" class="st19"/>
			</g>
			<g id="shape96-279" transform="translate(762.52,-164.409)">
				<title>Feuille.96</title>
				<desc>Java</desc>
				<rect x="0" y="476.615" width="25.5118" height="11.3386" class="st1"/>
				<text x="4.23" y="485.28" class="st2">Java</text>			</g>
			<g id="shape87-282" transform="translate(1199.45,235.67) rotate(90)">
				<title>Feuille.87</title>
				<path d="M4.47 487.95 L4.83 487.95 L20.68 487.95" class="st8"/>
			</g>
			<g id="group93-289" transform="translate(640.63,-175.748)">
				<title>Feuille.93</title>
				<g id="shape88-290">
					<title>Case.88</title>
					<desc>HSM-S20 lib</desc>
					<rect x="0" y="459.607" width="68.0315" height="28.3465" rx="8.50394" ry="8.50394" class="st3"/>
					<text x="6.38" y="473.51" class="st20">HSM-S20 lib</text>				</g>
				<g id="shape91-293">
					<title>Feuille.91</title>
					<desc>Win/Linux C</desc>
					<rect x="0" y="473.78" width="68.0315" height="14.1732" class="st1"/>
					<text x="14.79" y="483.87" class="st2">Win/Linux C</text>				</g>
			</g>
			<g id="group84-296" transform="translate(714.331,-175.748)">
				<title>Feuille.84</title>
				<g id="shape89-297">
					<title>Case.89</title>
					<desc>HSM-PCI lib</desc>
					<rect x="0" y="459.607" width="68.0315" height="28.3465" rx="8.50394" ry="8.50394" class="st3"/>
					<text x="7.25" y="473.51" class="st20">HSM-PCI lib</text>				</g>
				<g id="shape90-300">
					<title>Feuille.90</title>
					<desc>Win/Linux C</desc>
					<rect x="0" y="473.78" width="68.0315" height="14.1732" class="st1"/>
					<text x="14.79" y="483.87" class="st2">Win/Linux C</text>				</g>
			</g>
			<g id="shape95-303" transform="translate(677.48,-150.236)">
				<title>Feuille.95</title>
				<desc>Load Sharing</desc>
				<rect x="0" y="473.78" width="68.0315" height="14.1732" class="st1"/>
				<text x="7.67" y="483.87" class="st21">Load Sharing</text>			</g>
			<g id="shape97-306" transform="translate(1076.76,537.138) rotate(128.157)">
				<title>Feuille.97</title>
				<path d="M4.47 487.95 L4.83 487.95 L27.61 487.95" class="st8"/>
			</g>
			<g id="shape98-313" transform="translate(1172.06,14.6928) rotate(63.0723)">
				<title>Feuille.98</title>
				<path d="M4.47 487.95 L4.83 487.95 L23.78 487.95" class="st8"/>
			</g>
			<g id="shape106-320" transform="translate(14.1732,-282.047)">
				<title>Feuille.106</title>
				<desc>OpenMobile</desc>
				<rect x="0" y="473.78" width="85.0394" height="14.1732" class="st1"/>
				<text x="4" y="484.47" class="st4">OpenMobile</text>			</g>
			<g id="shape107-323" transform="translate(14.1732,-267.874)">
				<title>Feuille.107</title>
				<desc>Transport API</desc>
				<rect x="0" y="473.78" width="85.0394" height="14.1732" class="st1"/>
				<text x="4" y="484.47" class="st4">Transport API</text>			</g>
			<g id="shape108-326" transform="translate(14.1732,-253.701)">
				<title>Feuille.108</title>
				<desc>plugin</desc>
				<rect x="0" y="473.78" width="85.0394" height="14.1732" class="st1"/>
				<text x="4" y="484.47" class="st4">plugin</text>			</g>
			<g id="shape110-329" transform="translate(206.929,-280.63)">
				<title>Feuille.110</title>
				<desc>Local</desc>
				<rect x="0" y="473.78" width="85.0394" height="14.1732" class="st1"/>
				<text x="29.81" y="484.47" class="st4">Local</text>			</g>
			<g id="shape111-332" transform="translate(206.929,-266.457)">
				<title>Feuille.111</title>
				<desc>proprietary</desc>
				<rect x="0" y="473.78" width="85.0394" height="14.1732" class="st1"/>
				<text x="14.08" y="484.47" class="st4">proprietary</text>			</g>
			<g id="shape112-335" transform="translate(206.929,-252.283)">
				<title>Feuille.112</title>
				<desc>plugin</desc>
				<rect x="0" y="473.78" width="85.0394" height="14.1732" class="st1"/>
				<text x="27.07" y="484.47" class="st4">plugin</text>			</g>
			<g id="shape113-338" transform="translate(113.386,-273.543)">
				<title>Feuille.113</title>
				<desc>NFC Reader</desc>
				<rect x="0" y="473.78" width="85.0394" height="14.1732" class="st1"/>
				<text x="4" y="484.47" class="st4">NFC Reader</text>			</g>
			<g id="shape114-341" transform="translate(113.386,-259.37)">
				<title>Feuille.114</title>
				<desc>plugin</desc>
				<rect x="0" y="473.78" width="85.0394" height="14.1732" class="st1"/>
				<text x="4" y="484.47" class="st4">plugin</text>			</g>
			<g id="shape115-344" transform="translate(311.811,-273.543)">
				<title>Feuille.115</title>
				<desc>SmartCardIO</desc>
				<rect x="0" y="473.78" width="85.0394" height="14.1732" class="st1"/>
				<text x="10.48" y="484.47" class="st4">SmartCardIO</text>			</g>
			<g id="shape116-347" transform="translate(311.811,-259.37)">
				<title>Feuille.116</title>
				<desc>plugin</desc>
				<rect x="0" y="473.78" width="85.0394" height="14.1732" class="st1"/>
				<text x="27.07" y="484.47" class="st4">plugin</text>			</g>
			<g id="shape117-350" transform="translate(532.913,-273.543)">
				<title>Feuille.117</title>
				<desc>Remote SE</desc>
				<rect x="0" y="473.78" width="85.0394" height="14.1732" class="st1"/>
				<text x="4" y="484.47" class="st4">Remote SE</text>			</g>
			<g id="shape118-353" transform="translate(532.913,-259.37)">
				<title>Feuille.118</title>
				<desc>plugin</desc>
				<rect x="0" y="473.78" width="85.0394" height="14.1732" class="st1"/>
				<text x="4" y="484.47" class="st4">plugin</text>			</g>
			<g id="shape119-356" transform="translate(668.976,-273.543)">
				<title>Feuille.119</title>
				<desc>Calypso HSM</desc>
				<rect x="0" y="473.78" width="85.0394" height="14.1732" class="st1"/>
				<text x="4" y="484.47" class="st4">Calypso HSM</text>			</g>
			<g id="shape120-359" transform="translate(668.976,-259.37)">
				<title>Feuille.120</title>
				<desc>plugin</desc>
				<rect x="0" y="473.78" width="85.0394" height="14.1732" class="st1"/>
				<text x="4" y="484.47" class="st4">plugin</text>			</g>
			<g id="shape121-362" transform="translate(113.386,-127.559)">
				<title>Feuille.121</title>
				<desc>Android</desc>
				<rect x="0" y="473.78" width="85.0394" height="14.1732" class="st1"/>
				<text x="22.39" y="484.47" class="st4">Android</text>			</g>
			<g id="shape122-365" transform="translate(113.386,-113.386)">
				<title>Feuille.122</title>
				<desc>External SE</desc>
				<rect x="0" y="473.78" width="85.0394" height="14.1732" class="st1"/>
				<text x="14.83" y="484.47" class="st4">External SE</text>			</g>
			<g id="shape125-368" transform="translate(206.929,-134.646)">
				<title>Feuille.125</title>
				<desc>Proprietary</desc>
				<rect x="0" y="473.78" width="85.0394" height="14.1732" class="st1"/>
				<text x="14.1" y="484.47" class="st4">Proprietary </text>			</g>
			<g id="shape126-371" transform="translate(206.929,-120.472)">
				<title>Feuille.126</title>
				<desc>Reader Driver</desc>
				<rect x="0" y="473.78" width="85.0394" height="14.1732" class="st1"/>
				<text x="8.05" y="484.47" class="st4">Reader Driver</text>			</g>
			<g id="shape127-374" transform="translate(14.1732,-127.559)">
				<title>Feuille.127</title>
				<desc>Android</desc>
				<rect x="0" y="473.78" width="85.0394" height="14.1732" class="st1"/>
				<text x="4" y="484.47" class="st4">Android</text>			</g>
			<g id="shape128-377" transform="translate(14.1732,-113.386)">
				<title>Feuille.128</title>
				<desc>UICC &#38; eSE</desc>
				<rect x="0" y="473.78" width="85.0394" height="14.1732" class="st1"/>
				<text x="4" y="484.47" class="st4">UICC &#38; eSE</text>			</g>
			<g id="shape129-380" transform="translate(14.1732,-99.2126)">
				<title>Feuille.129</title>
				<desc>access</desc>
				<rect x="0" y="473.78" width="85.0394" height="14.1732" class="st1"/>
				<text x="4" y="484.47" class="st4">access</text>			</g>
			<g id="shape136-383" transform="translate(311.811,-134.646)">
				<title>Feuille.136</title>
				<desc>Windows</desc>
				<rect x="0" y="473.78" width="85.0394" height="14.1732" class="st1"/>
				<text x="19.08" y="484.47" class="st4">Windows</text>			</g>
			<g id="shape137-386" transform="translate(311.811,-120.472)">
				<title>Feuille.137</title>
				<desc>PC/SC</desc>
				<rect x="0" y="473.78" width="85.0394" height="14.1732" class="st1"/>
				<text x="27.56" y="484.47" class="st4">PC/SC</text>			</g>
			<g id="shape138-389" transform="translate(311.811,-106.299)">
				<title>Feuille.138</title>
				<desc>WinSCard API</desc>
				<rect x="0" y="473.78" width="85.0394" height="14.1732" class="st1"/>
				<text x="8.28" y="484.47" class="st4">WinSCard API</text>			</g>
			<g id="shape139-392" transform="translate(411.024,-134.646)">
				<title>Feuille.139</title>
				<desc>Unix</desc>
				<rect x="0" y="473.78" width="85.0394" height="14.1732" class="st1"/>
				<text x="31.15" y="484.47" class="st4">Unix</text>			</g>
			<g id="shape140-395" transform="translate(411.024,-120.472)">
				<title>Feuille.140</title>
				<desc>PC/SC</desc>
				<rect x="0" y="473.78" width="85.0394" height="14.1732" class="st1"/>
				<text x="27.56" y="484.47" class="st4">PC/SC</text>			</g>
			<g id="shape141-398" transform="translate(411.024,-106.299)">
				<title>Feuille.141</title>
				<desc>lite API</desc>
				<rect x="0" y="473.78" width="85.0394" height="14.1732" class="st1"/>
				<text x="24.69" y="484.47" class="st4">lite API</text>			</g>
			<g id="shape142-401" transform="translate(715.748,-127.559)">
				<title>Feuille.142</title>
				<desc>HSM PCI-S3</desc>
				<rect x="0" y="473.78" width="70.8661" height="14.1732" class="st1"/>
				<text x="6.53" y="484.47" class="st4">HSM PCI-S3</text>			</g>
			<g id="shape143-404" transform="translate(715.748,-113.386)">
				<title>Feuille.143</title>
				<desc>(100 to 5000)</desc>
				<rect x="0" y="473.78" width="70.8661" height="14.1732" class="st1"/>
				<text x="5.35" y="484.17" class="st22">(100 to 5000)</text>			</g>
			<g id="shape144-407" transform="translate(715.748,-99.2126)">
				<title>Feuille.144</title>
				<desc>PCI interface</desc>
				<rect x="0" y="473.78" width="70.8661" height="14.1732" class="st1"/>
				<text x="6.43" y="484.17" class="st20">PCI interface</text>			</g>
			<g id="shape151-410" transform="translate(636.378,-127.559)">
				<title>Feuille.151</title>
				<desc>SAM-S20</desc>
				<rect x="0" y="473.78" width="70.8661" height="14.1732" class="st1"/>
				<text x="12.96" y="484.47" class="st4">SAM-S20</text>			</g>
			<g id="shape152-413" transform="translate(636.378,-113.386)">
				<title>Feuille.152</title>
				<desc>(20)</desc>
				<rect x="0" y="473.78" width="70.8661" height="14.1732" class="st1"/>
				<text x="26.52" y="484.17" class="st22">(20)</text>			</g>
			<g id="shape153-416" transform="translate(636.378,-99.2126)">
				<title>Feuille.153</title>
				<desc>7816-3 Reader</desc>
				<rect x="0" y="473.78" width="70.8661" height="14.1732" class="st1"/>
				<text x="5.32" y="483.87" class="st23">7816-3 Reader</text>			</g>
			<g id="shape20-419" transform="translate(28.3465,-52.4409)">
				<title>Crochet</title>
				<path d="M0 476.62 L-21.26 516.58" class="st9"/>
				<path d="M4.25 465.28 L0 465.28 L0 487.95 L4.25 487.95" class="st9"/>
			</g>
		</g>
	</g>
</svg>
