<?xml version="1.0" encoding="UTF-8" standalone="no"?>
<!DOCTYPE svg PUBLIC "-//W3C//DTD SVG 1.1//EN" "http://www.w3.org/Graphics/SVG/1.1/DTD/svg11.dtd">
<!-- Généré par Microsoft Visio, SVG Export 20180322-CNA-SDK-Architecture-GlobalArch.svg Global Arch -->
<svg xmlns="http://www.w3.org/2000/svg" xmlns:xlink="http://www.w3.org/1999/xlink" xmlns:ev="http://www.w3.org/2001/xml-events"
		width="9.27026in" height="5.71987in" viewBox="0 0 667.459 411.831" xml:space="preserve" color-interpolation-filters="sRGB"
		class="st14">
	<style type="text/css">
	<![CDATA[
		.st1 {fill:#eaeff5;stroke:#000000;stroke-linecap:round;stroke-linejoin:round;stroke-width:0.24}
		.st2 {fill:#000000;font-family:Calibri;font-size:1.00001em;font-weight:bold}
		.st3 {fill:#ffff99;stroke:#000000;stroke-linecap:round;stroke-linejoin:round;stroke-width:0.24}
		.st4 {fill:#f2dcda;stroke:#000000;stroke-linecap:round;stroke-linejoin:round;stroke-width:0.24}
		.st5 {marker-end:url(#mrkr5-27);marker-start:url(#mrkr5-25);stroke:#000000;stroke-linecap:round;stroke-linejoin:round;stroke-width:0.24}
		.st6 {fill:#000000;fill-opacity:1;stroke:#000000;stroke-opacity:1;stroke-width:0.08695652173913}
		.st7 {fill:none;stroke:#ff0000;stroke-dasharray:1.68,1.2;stroke-linecap:round;stroke-linejoin:round;stroke-width:0.24}
		.st8 {fill:none;stroke:none;stroke-linecap:round;stroke-linejoin:round;stroke-width:0.75}
		.st9 {fill:#ff0000;font-family:Calibri;font-size:1.00001em;font-weight:bold}
		.st10 {fill:#ffffff;stroke:#000000;stroke-linecap:round;stroke-linejoin:round;stroke-width:0.24}
		.st11 {fill:#000000;font-family:Calibri;font-size:0.833336em}
		.st12 {fill:#eaeff5;stroke:none;stroke-linecap:round;stroke-linejoin:round;stroke-width:0.24}
		.st13 {stroke:#000000;stroke-linecap:round;stroke-linejoin:round;stroke-width:0.24}
		.st14 {fill:none;fill-rule:evenodd;font-size:12px;overflow:visible;stroke-linecap:square;stroke-miterlimit:3}
	]]>
	</style>

	<defs id="Markers">
		<g id="lend5">
			<path d="M 2 1 L 0 0 L 1.98117 -0.993387 C 1.67173 -0.364515 1.67301 0.372641 1.98465 1.00043 " style="stroke:none"/>
		</g>
		<marker id="mrkr5-25" class="st6" refX="18.625" orient="auto" markerUnits="strokeWidth" overflow="visible">
			<use xlink:href="#lend5" transform="scale(11.5) "/>
		</marker>
		<marker id="mrkr5-27" class="st6" refX="-20.125" orient="auto" markerUnits="strokeWidth" overflow="visible">
			<use xlink:href="#lend5" transform="scale(-11.5,-11.5) "/>
		</marker>
	</defs>
	<g>
		<title>Global Arch</title>
		<g id="group63-1" transform="translate(18.375,-18.12)">
			<title>Feuille.63</title>
			<g id="shape32-2" transform="translate(134.646,-191.339)">
				<title>Case.32</title>
				<rect x="0" y="355.138" width="184.252" height="56.6929" rx="8.50394" ry="8.50394" class="st1"/>
			</g>
			<g id="shape31-4" transform="translate(7.08664,-191.339)">
				<title>Case.31</title>
				<desc>Calypso processing APIs</desc>
				<rect x="0" y="298.445" width="155.905" height="113.386" rx="8.50394" ry="8.50394" class="st1"/>
				<text x="4" y="313.24" class="st2">Calypso processing APIs</text>			</g>
			<g id="shape2-7" transform="translate(208.346,-127.559)">
				<title>Case</title>
				<desc>SE Proxy API</desc>
				<rect x="0" y="383.484" width="141.732" height="28.3465" rx="8.50394" ry="8.50394" class="st1"/>
				<text x="39.81" y="401.26" class="st2">SE Proxy API</text>			</g>
			<g id="shape4-10" transform="translate(208.346,-63.7795)">
				<title>Case.4</title>
				<desc>SE Reader Plugin</desc>
				<rect x="0" y="376.397" width="141.732" height="35.4331" rx="8.50394" ry="8.50394" class="st3"/>
				<text x="29.23" y="397.71" class="st2">SE Reader Plugin</text>			</g>
			<g id="shape5-13" transform="translate(208.346,-1.7053E-13)">
				<title>Case.5</title>
				<desc>SE Reader Driver</desc>
				<rect x="0" y="376.397" width="141.732" height="35.4331" rx="8.50394" ry="8.50394" class="st3"/>
				<text x="29.28" y="397.71" class="st2">SE Reader Driver</text>			</g>
			<g id="shape6-16" transform="translate(176.457,-340.157)">
				<title>Case.7</title>
				<desc>Ticketing Application</desc>
				<rect x="0" y="376.397" width="205.512" height="35.4331" rx="8.50394" ry="8.50394" class="st4"/>
				<text x="50.43" y="397.71" class="st2">Ticketing Application</text>			</g>
			<g id="shape7-19" transform="translate(298.354,-167.961) rotate(19.3978)">
				<title>Feuille.7</title>
				<path d="M4.47 411.83 L4.83 411.83 L101.86 411.83" class="st5"/>
			</g>
			<g id="shape8-28" transform="translate(691.043,284.271) rotate(90)">
				<title>Feuille.8</title>
				<path d="M4.47 411.83 L4.83 411.83 L23.52 411.83" class="st5"/>
			</g>
			<g id="shape9-35" transform="translate(691.043,348.051) rotate(90)">
				<title>Feuille.9</title>
				<path d="M4.47 411.83 L4.83 411.83 L23.52 411.83" class="st5"/>
			</g>
			<g id="shape10-42" transform="translate(440.036,-331.141) rotate(12.0115)">
				<title>Feuille.10</title>
				<path d="M4.47 411.83 L4.83 411.83 L165.43 411.83" class="st5"/>
			</g>
			<g id="shape11-49" transform="translate(0,-49.6063)">
				<title>Case.12</title>
				<path d="M0 411.83 L559.84 411.83 L559.84 142.54 L0 142.54 L0 411.83 Z" class="st7"/>
			</g>
			<g id="shape12-51" transform="translate(-6.31495E-13,-318.898)">
				<title>Feuille.12</title>
				<desc>Keyple SDK</desc>
				<rect x="0" y="397.657" width="85.0394" height="14.1732" class="st8"/>
				<text x="14.41" y="408.34" class="st9">Keyple SDK</text>			</g>
			<g id="shape13-54" transform="translate(21.2598,-198.425)">
				<title>Case.3</title>
				<desc>PO Commands Set</desc>
				<rect x="0" y="383.484" width="127.559" height="28.3465" rx="8.50394" ry="8.50394" class="st10"/>
				<text x="17.92" y="401.26" class="st2">PO Commands Set</text>			</g>
			<g id="shape14-57" transform="translate(177.165,-198.425)">
				<title>Case.1</title>
				<desc>CSM Commands Set</desc>
				<rect x="0" y="383.484" width="127.559" height="28.3465" rx="8.50394" ry="8.50394" class="st10"/>
				<text x="13.92" y="401.26" class="st2">CSM Commands Set</text>			</g>
			<g id="shape15-60" transform="translate(21.2598,-240.945)">
				<title>Case.15</title>
				<desc>Secure Transaction</desc>
				<rect x="0" y="383.484" width="127.559" height="28.3465" rx="8.50394" ry="8.50394" class="st10"/>
				<text x="16.53" y="401.26" class="st2">Secure Transaction</text>			</g>
			<g id="shape16-63" transform="translate(177.165,-256.535)">
				<title>Case.16</title>
				<desc>‘hoplink’ Operation</desc>
				<rect x="0" y="369.311" width="127.559" height="42.5197" rx="8.50394" ry="8.50394" class="st1"/>
				<text x="15.23" y="394.17" class="st2">‘hoplink’ Operation</text>			</g>
			<g id="group29-66" transform="translate(574.016,-85.0393)">
				<title>Feuille.29</title>
				<g id="shape24-67" transform="translate(0,-14.1732)">
					<title>Feuille.24</title>
					<desc>Reader</desc>
					<rect x="0" y="397.657" width="56.6929" height="14.1732" class="st8"/>
					<text x="4" y="407.74" class="st11">Reader</text>				</g>
				<g id="shape25-70" transform="translate(3.72506E-06,0)">
					<title>Feuille.25</title>
					<desc>Integration</desc>
					<rect x="0" y="397.657" width="56.6929" height="14.1732" class="st8"/>
					<text x="4" y="407.74" class="st11">Integration</text>				</g>
			</g>
			<g id="group30-73" transform="translate(574.016,-233.858)">
				<title>Feuille.30</title>
				<g id="shape18-74" transform="translate(2.08603E-05,-28.3465)">
					<title>Feuille.18</title>
					<desc>Security &#38;</desc>
					<rect x="0" y="397.657" width="56.6929" height="14.1732" class="st8"/>
					<text x="4" y="407.74" class="st11">Security &#38;</text>				</g>
				<g id="shape20-77" transform="translate(2.45854E-05,-14.1732)">
					<title>Feuille.20</title>
					<desc>commands</desc>
					<rect x="0" y="397.657" width="56.6929" height="14.1732" class="st8"/>
					<text x="4" y="407.74" class="st11">commands</text>				</g>
				<g id="shape21-80">
					<title>Feuille.21</title>
					<desc>integration</desc>
					<rect x="0" y="397.657" width="56.6929" height="14.1732" class="st8"/>
					<text x="4" y="407.74" class="st11">integration</text>				</g>
			</g>
			<g id="shape35-83" transform="translate(333.071,-191.339)">
				<title>Case.35</title>
				<rect x="0" y="298.445" width="63.7795" height="113.386" rx="8.50394" ry="8.50394" class="st1"/>
			</g>
			<g id="shape36-85" transform="translate(411.024,-191.339)">
				<title>Case.36</title>
				<rect x="0" y="298.445" width="63.7795" height="113.386" rx="8.50394" ry="8.50394" class="st1"/>
			</g>
			<g id="shape37-87" transform="translate(488.976,-191.339)">
				<title>Case.37</title>
				<rect x="0" y="298.445" width="63.7795" height="113.386" rx="8.50394" ry="8.50394" class="st1"/>
			</g>
			<g id="shape40-89" transform="translate(153.071,-191.339)">
				<title>Case.24</title>
				<rect x="0" y="355.138" width="17.0079" height="56.6929" class="st12"/>
			</g>
			<g id="shape41-91" transform="translate(635.737,615.978) rotate(163.804)">
				<title>Feuille.41</title>
				<path d="M4.47 411.83 L4.83 411.83 L173.02 411.83" class="st5"/>
			</g>
			<g id="shape42-98" transform="translate(577.166,609.825) rotate(160.974)">
				<title>Feuille.42</title>
				<path d="M4.47 411.83 L4.83 411.83 L103.86 411.83" class="st5"/>
			</g>
			<g id="shape43-105" transform="translate(573.767,575.463) rotate(149.534)">
				<title>Feuille.43</title>
				<path d="M4.47 411.83 L4.83 411.83 L65.05 411.83" class="st5"/>
			</g>
			<g id="shape44-112" transform="translate(474.41,-317.66) rotate(19.0256)">
				<title>Feuille.44</title>
				<path d="M4.47 411.83 L4.83 411.83 L103.86 411.83" class="st5"/>
			</g>
			<g id="shape45-119" transform="translate(467.611,-300.152) rotate(25.4633)">
				<title>Feuille.45</title>
				<path d="M4.47 411.83 L4.83 411.83 L77.59 411.83" class="st5"/>
			</g>
			<g id="shape46-126" transform="translate(608.316,305.483) rotate(124.592)">
				<title>Feuille.46</title>
				<path d="M4.47 411.83 L4.83 411.83 L45.1 411.83" class="st5"/>
			</g>
			<g id="shape48-133" transform="translate(329.247,472.304) rotate(166.608)">
				<title>Feuille.48</title>
				<path d="M4.47 411.83 L4.83 411.83 L148.15 411.83" class="st5"/>
			</g>
			<g id="shape54-140" transform="translate(488.976,-266.79)">
				<title>Feuille.54</title>
				<desc>ticketing</desc>
				<rect x="0" y="397.657" width="63.7795" height="14.1732" class="st8"/>
				<text x="10.31" y="408.34" class="st2">ticketing</text>			</g>
			<g id="shape55-143" transform="translate(488.976,-252.617)">
				<title>Feuille.55</title>
				<desc>contactless</desc>
				<rect x="0" y="397.657" width="63.7795" height="14.1732" class="st8"/>
				<text x="4.02" y="408.34" class="st2">contactless</text>			</g>
			<g id="shape56-146" transform="translate(333.071,-255.118)">
				<title>Feuille.56</title>
				<desc>‘Mifare’</desc>
				<rect x="0" y="397.657" width="63.7795" height="14.1732" class="st8"/>
				<text x="12.06" y="408.34" class="st2">‘Mifare’</text>			</g>
			<g id="shape57-149" transform="translate(333.071,-240.945)">
				<title>Feuille.57</title>
				<desc>solutions</desc>
				<rect x="0" y="397.657" width="63.7795" height="14.1732" class="st8"/>
				<text x="9.18" y="408.34" class="st2">solutions</text>			</g>
			<g id="shape58-152" transform="translate(411.024,-255.118)">
				<title>Feuille.58</title>
				<desc>‘Felica’</desc>
				<rect x="0" y="397.657" width="63.7795" height="14.1732" class="st8"/>
				<text x="14.6" y="408.34" class="st2">‘Felica’</text>			</g>
			<g id="shape59-155" transform="translate(411.024,-240.945)">
				<title>Feuille.59</title>
				<desc>solutions</desc>
				<rect x="0" y="397.657" width="63.7795" height="14.1732" class="st8"/>
				<text x="9.18" y="408.34" class="st2">solutions</text>			</g>
			<g id="shape60-158" transform="translate(489.289,-238.444)">
				<title>Feuille.60</title>
				<desc>memory</desc>
				<rect x="0" y="397.657" width="63.7795" height="14.1732" class="st8"/>
				<text x="10.91" y="408.34" class="st2">memory</text>			</g>
			<g id="shape61-161" transform="translate(488.976,-224.27)">
				<title>Feuille.61</title>
				<desc>cards</desc>
				<rect x="0" y="397.657" width="63.7795" height="14.1732" class="st8"/>
				<text x="18.67" y="408.34" class="st2">cards</text>			</g>
			<g id="shape1-164" transform="translate(571.181,-28.3464)">
				<title>Accolade inversée</title>
				<path d="M-3.19 270.1 A3.18905 3.18905 0 0 1 0 273.29 L0 337.78 A3.18905 3.18905 -180 0 0 3.19 340.96 A3.18905 3.18905
							 -180 0 0 0 344.15 L0 408.64 A3.18905 3.18905 0 0 1 -3.19 411.83" class="st13"/>
			</g>
			<g id="shape17-167" transform="translate(571.181,-184.252)">
				<title>Accolade inversée.17</title>
				<path d="M-3.19 270.1 A3.18905 3.18905 0 0 1 0 273.29 L0 337.78 A3.18905 3.18905 -180 0 0 3.19 340.96 A3.18905 3.18905
							 -180 0 0 0 344.15 L0 408.64 A3.18905 3.18905 0 0 1 -3.19 411.83" class="st13"/>
			</g>
		</g>
	</g>
</svg>
