<?xml version="1.0" encoding="UTF-8" standalone="no"?><svg xmlns="http://www.w3.org/2000/svg" xmlns:xlink="http://www.w3.org/1999/xlink" contentScriptType="application/ecmascript" contentStyleType="text/css" height="2675px" preserveAspectRatio="none" style="width:3216px;height:2675px;" version="1.1" viewBox="0 0 3216 2675" width="3216.6667px" zoomAndPan="magnify"><defs><filter height="300%" id="fcg6yyx" width="300%" x="-1" y="-1"><feGaussianBlur result="blurOut" stdDeviation="4.166666666666667"/><feColorMatrix in="blurOut" result="blurOut2" type="matrix" values="0 0 0 0 0 0 0 0 0 0 0 0 0 0 0 0 0 0 .4 0"/><feOffset dx="8.333333333333334" dy="8.333333333333334" in="blurOut2" result="blurOut3"/><feBlend in="SourceGraphic" in2="blurOut3" mode="normal"/></filter></defs><g><!--cluster org.eclipse.keyple.calypso.commands--><polygon fill="#FFFFFF" filter="url(#fcg6yyx)" points="45.8333,50,610.4167,50,625,99.1862,2029.1667,99.1862,2029.1667,1775,45.8333,1775,45.8333,50" style="stroke: #000000; stroke-width: 4.166666666666667;"/><line style="stroke: #000000; stroke-width: 4.166666666666667;" x1="45.8333" x2="625" y1="99.1862" y2="99.1862"/><text fill="#000000" font-family="sans-serif" font-size="29.1667" font-weight="bold" lengthAdjust="spacingAndGlyphs" textLength="552.0833" x="54.1667" y="84.4442">org.eclipse.keyple.calypso.commands</text><!--cluster org.eclipse.keyple.calypso.commands.po--><polygon fill="#FFFFFF" filter="url(#fcg6yyx)" points="95.8333,906.25,706.25,906.25,720.8333,955.4362,1600,955.4362,1600,1725,95.8333,1725,95.8333,906.25" style="stroke: #000000; stroke-width: 4.166666666666667;"/><line style="stroke: #000000; stroke-width: 4.166666666666667;" x1="95.8333" x2="720.8333" y1="955.4362" y2="955.4362"/><text fill="#000000" font-family="sans-serif" font-size="29.1667" font-weight="bold" lengthAdjust="spacingAndGlyphs" textLength="597.9167" x="104.1667" y="940.6942">org.eclipse.keyple.calypso.commands.po</text><!--cluster org.eclipse.keyple.calypso.commands.csm--><polygon fill="#FFFFFF" filter="url(#fcg6yyx)" points="412.5,141.6667,1043.75,141.6667,1058.3333,190.8529,1979.1667,190.8529,1979.1667,837.5,412.5,837.5,412.5,141.6667" style="stroke: #000000; stroke-width: 4.166666666666667;"/><line style="stroke: #000000; stroke-width: 4.166666666666667;" x1="412.5" x2="1058.3333" y1="190.8529" y2="190.8529"/><text fill="#000000" font-family="sans-serif" font-size="29.1667" font-weight="bold" lengthAdjust="spacingAndGlyphs" textLength="618.75" x="420.8333" y="176.1108">org.eclipse.keyple.calypso.commands.csm</text><!--cluster org.eclipse.keyple.seproxy--><polygon fill="#FFFFFF" filter="url(#fcg6yyx)" points="1285.4167,2364.5833,1691.6667,2364.5833,1706.25,2413.7695,2650,2413.7695,2650,2660.4167,1285.4167,2660.4167,1285.4167,2364.5833" style="stroke: #000000; stroke-width: 4.166666666666667;"/><line style="stroke: #000000; stroke-width: 4.166666666666667;" x1="1285.4167" x2="1706.25" y1="2413.7695" y2="2413.7695"/><text fill="#000000" font-family="sans-serif" font-size="29.1667" font-weight="bold" lengthAdjust="spacingAndGlyphs" textLength="393.75" x="1293.75" y="2399.0275">org.eclipse.keyple.seproxy</text><!--cluster org.eclipse.keyple.commands--><polygon fill="#FFFFFF" filter="url(#fcg6yyx)" points="289.5833,1879.1667,735.4167,1879.1667,750,1928.3529,3202.0833,1928.3529,3202.0833,2260.4167,289.5833,2260.4167,289.5833,1879.1667" style="stroke: #000000; stroke-width: 4.166666666666667;"/><line style="stroke: #000000; stroke-width: 4.166666666666667;" x1="289.5833" x2="750" y1="1928.3529" y2="1928.3529"/><text fill="#000000" font-family="sans-serif" font-size="29.1667" font-weight="bold" lengthAdjust="spacingAndGlyphs" textLength="433.3333" x="297.9167" y="1913.6108">org.eclipse.keyple.commands</text><!--class SendableInSession--><rect fill="#FEFECE" filter="url(#fcg6yyx)" height="100" style="stroke: #A80036; stroke-width: 3.125;" width="293.75" x="80.2083" y="603.125"/><ellipse cx="111.4583" cy="636.4583" fill="#B4A7E5" rx="22.9167" ry="22.9167" style="stroke: #A80036; stroke-width: 2.0833333333333335;"/><path d="M113.444,629.4596 L113.444,643.3268 L117.0247,643.3268 Q118.2943,643.3268 118.8477,643.8151 Q119.401,644.3034 119.401,645.1172 Q119.401,645.8984 118.8477,646.3867 Q118.2943,646.875 117.0247,646.875 L106.3151,646.875 Q105.0456,646.875 104.4922,646.3867 Q103.9388,645.8984 103.9388,645.0846 Q103.9388,644.3034 104.4922,643.8151 Q105.0456,643.3268 106.3151,643.3268 L109.8958,643.3268 L109.8958,629.4596 L106.3151,629.4596 Q105.0456,629.4596 104.4922,628.9714 Q103.9388,628.4831 103.9388,627.6693 Q103.9388,626.888 104.4922,626.3997 Q105.0456,625.9115 106.3151,625.9115 L117.0247,625.9115 Q118.2943,625.9115 118.8477,626.3997 Q119.401,626.888 119.401,627.6693 Q119.401,628.4831 118.8477,628.9714 Q118.2943,629.4596 117.0247,629.4596 L113.444,629.4596 Z "/><text fill="#000000" font-family="sans-serif" font-size="25" font-style="italic" lengthAdjust="spacingAndGlyphs" textLength="227.0833" x="140.625" y="646.6878">SendableInSession</text><line style="stroke: #A80036; stroke-width: 3.125;" x1="82.2917" x2="371.875" y1="669.7917" y2="669.7917"/><line style="stroke: #A80036; stroke-width: 3.125;" x1="82.2917" x2="371.875" y1="686.4583" y2="686.4583"/><!--class AbstractPoCommandBuilder--><rect fill="#FEFECE" filter="url(#fcg6yyx)" height="157.6497" style="stroke: #A80036; stroke-width: 3.125;" width="906.25" x="130.2083" y="1432.2917"/><ellipse cx="409.8958" cy="1465.625" fill="#A9DCDF" rx="22.9167" ry="22.9167" style="stroke: #A80036; stroke-width: 2.0833333333333335;"/><path d="M414.4531,1469.3034 L405.8268,1469.3034 L404.9479,1471.4518 L405.8268,1471.4518 Q407.0964,1471.4518 407.6497,1471.9401 Q408.2031,1472.4284 408.2031,1473.2422 Q408.2031,1474.0234 407.6497,1474.5117 Q407.0964,1475 405.8268,1475 L401.0417,1475 Q399.7721,1475 399.235,1474.5117 Q398.6979,1474.0234 398.6979,1473.2096 Q398.6979,1472.4284 399.2676,1471.9238 Q399.8372,1471.4193 401.1393,1471.4518 L406.7057,1457.5846 L404.3945,1457.5846 Q403.125,1457.5846 402.5716,1457.0964 Q402.0182,1456.6081 402.0182,1455.7943 Q402.0182,1455.013 402.5716,1454.5247 Q403.125,1454.0365 404.3945,1454.0365 L412.0443,1454.0365 L419.1081,1471.4518 Q420.3451,1471.4518 420.7357,1471.7448 Q421.5495,1472.2982 421.5495,1473.2422 Q421.5495,1474.0234 421.0124,1474.5117 Q420.4753,1475 419.2057,1475 L414.4206,1475 Q413.151,1475 412.5977,1474.5117 Q412.0443,1474.0234 412.0443,1473.2096 Q412.0443,1472.4284 412.5977,1471.9401 Q413.151,1471.4518 414.4206,1471.4518 L415.2995,1471.4518 L414.4531,1469.3034 Z M412.9557,1465.7552 L410.1237,1458.724 L407.2591,1465.7552 L412.9557,1465.7552 Z "/><text fill="#000000" font-family="sans-serif" font-size="25" font-style="italic" lengthAdjust="spacingAndGlyphs" textLength="329.1667" x="452.6042" y="1475.8545">AbstractPoCommandBuilder</text><line style="stroke: #A80036; stroke-width: 3.125;" x1="132.2917" x2="1034.375" y1="1498.9583" y2="1498.9583"/><polygon fill="none" points="153.125,1514.4124,161.4583,1522.7458,153.125,1531.0791,144.7917,1522.7458" style="stroke: #B38D22; stroke-width: 2.0833333333333335;"/><text fill="#000000" font-family="sans-serif" font-size="22.9167" lengthAdjust="spacingAndGlyphs" textLength="512.5" x="171.875" y="1531.0811">CsmRevision defaultRevision = PoRevision.REV3_1</text><line style="stroke: #A80036; stroke-width: 3.125;" x1="132.2917" x2="1034.375" y1="1544.4499" y2="1544.4499"/><ellipse cx="153.125" cy="1570.3206" fill="#84BE84" rx="6.25" ry="6.25" style="stroke: #038048; stroke-width: 2.0833333333333335;"/><text fill="#000000" font-family="sans-serif" font-size="22.9167" lengthAdjust="spacingAndGlyphs" textLength="852.0833" x="171.875" y="1576.5727">AbstractPoCommandBuilder(CalypsoPoCommands reference, ApduRequest request)</text><!--class CalypsoPoCommands--><rect fill="#FEFECE" filter="url(#fcg6yyx)" height="359.4238" style="stroke: #A80036; stroke-width: 3.125;" width="329.1667" x="1237.5" y="1331.25"/><ellipse cx="1268.75" cy="1364.5833" fill="#EB937F" rx="22.9167" ry="22.9167" style="stroke: #A80036; stroke-width: 2.0833333333333335;"/><path d="M1266.3737,1366.2435 L1266.3737,1371.4518 L1275.3906,1371.4518 L1275.3906,1369.5313 Q1275.3906,1368.2617 1275.8952,1367.7083 Q1276.3997,1367.1549 1277.181,1367.1549 Q1277.9622,1367.1549 1278.4505,1367.7083 Q1278.9388,1368.2617 1278.9388,1369.5313 L1278.9388,1375 L1262.2721,1375 Q1260.9701,1375 1260.4329,1374.5117 Q1259.8958,1374.0234 1259.8958,1373.2096 Q1259.8958,1372.4284 1260.4492,1371.9401 Q1261.0026,1371.4518 1262.2721,1371.4518 L1262.8255,1371.4518 L1262.8255,1357.5846 L1262.2721,1357.5846 Q1260.9701,1357.5846 1260.4329,1357.0964 Q1259.8958,1356.6081 1259.8958,1355.7943 Q1259.8958,1355.013 1260.4329,1354.5247 Q1260.9701,1354.0365 1262.2721,1354.0365 L1278.1576,1354.0365 L1278.1576,1359.4401 Q1278.1576,1360.7096 1277.6855,1361.2467 Q1277.2135,1361.7839 1276.3997,1361.7839 Q1275.6185,1361.7839 1275.1302,1361.2467 Q1274.6419,1360.7096 1274.6419,1359.4401 L1274.6419,1357.5846 L1266.3737,1357.5846 L1266.3737,1362.6953 L1269.4661,1362.6953 Q1269.4661,1361.3281 1269.7266,1360.9375 Q1270.2799,1360.0911 1271.2565,1360.0911 Q1272.0378,1360.0911 1272.526,1360.6283 Q1273.0143,1361.1654 1273.0143,1362.4349 L1273.0143,1366.5365 Q1273.0143,1367.6758 1272.7539,1368.0664 Q1272.2005,1368.8802 1271.2565,1368.8802 Q1270.2799,1368.8802 1269.7266,1368.0339 Q1269.4661,1367.6432 1269.4661,1366.2435 L1266.3737,1366.2435 Z "/><text fill="#000000" font-family="sans-serif" font-size="25" lengthAdjust="spacingAndGlyphs" textLength="262.5" x="1297.9167" y="1374.8128">CalypsoPoCommands</text><line style="stroke: #A80036; stroke-width: 3.125;" x1="1239.5833" x2="1564.5833" y1="1397.9167" y2="1397.9167"/><text fill="#000000" font-family="sans-serif" font-size="22.9167" lengthAdjust="spacingAndGlyphs" textLength="200" x="1250" y="1430.0395">PO_GET_DATA_FCI</text><text fill="#000000" font-family="sans-serif" font-size="22.9167" lengthAdjust="spacingAndGlyphs" textLength="239.5833" x="1250" y="1458.8643">PO_OPEN_SESSION_24</text><text fill="#000000" font-family="sans-serif" font-size="22.9167" lengthAdjust="spacingAndGlyphs" textLength="239.5833" x="1250" y="1487.6892">PO_OPEN_SESSION_31</text><text fill="#000000" font-family="sans-serif" font-size="22.9167" lengthAdjust="spacingAndGlyphs" textLength="239.5833" x="1250" y="1516.5141">PO_OPEN_SESSION_32</text><text fill="#000000" font-family="sans-serif" font-size="22.9167" lengthAdjust="spacingAndGlyphs" textLength="216.6667" x="1250" y="1545.3389">PO_CLOSE_SESSION</text><text fill="#000000" font-family="sans-serif" font-size="22.9167" lengthAdjust="spacingAndGlyphs" textLength="214.5833" x="1250" y="1574.1638">PO_READ_RECORDS</text><text fill="#000000" font-family="sans-serif" font-size="22.9167" lengthAdjust="spacingAndGlyphs" textLength="225" x="1250" y="1602.9887">PO_UPDATE_RECORD</text><text fill="#000000" font-family="sans-serif" font-size="22.9167" lengthAdjust="spacingAndGlyphs" textLength="225" x="1250" y="1631.8136">PO_APPEND_RECORD</text><text fill="#000000" font-family="sans-serif" font-size="22.9167" lengthAdjust="spacingAndGlyphs" textLength="222.9167" x="1250" y="1660.6384">PO_GET_CHALLENGE</text><line style="stroke: #A80036; stroke-width: 3.125;" x1="1239.5833" x2="1564.5833" y1="1674.0072" y2="1674.0072"/><!--class PoRevision--><rect fill="#FEFECE" filter="url(#fcg6yyx)" height="186.4746" style="stroke: #A80036; stroke-width: 3.125;" width="197.9167" x="307.2917" y="981.25"/><ellipse cx="338.5417" cy="1014.5833" fill="#EB937F" rx="22.9167" ry="22.9167" style="stroke: #A80036; stroke-width: 2.0833333333333335;"/><path d="M336.1654,1016.2435 L336.1654,1021.4518 L345.1823,1021.4518 L345.1823,1019.5313 Q345.1823,1018.2617 345.6868,1017.7083 Q346.1914,1017.1549 346.9727,1017.1549 Q347.7539,1017.1549 348.2422,1017.7083 Q348.7305,1018.2617 348.7305,1019.5313 L348.7305,1025 L332.0638,1025 Q330.7617,1025 330.2246,1024.5117 Q329.6875,1024.0234 329.6875,1023.2096 Q329.6875,1022.4284 330.2409,1021.9401 Q330.7943,1021.4518 332.0638,1021.4518 L332.6172,1021.4518 L332.6172,1007.5846 L332.0638,1007.5846 Q330.7617,1007.5846 330.2246,1007.0964 Q329.6875,1006.6081 329.6875,1005.7943 Q329.6875,1005.013 330.2246,1004.5247 Q330.7617,1004.0365 332.0638,1004.0365 L347.9492,1004.0365 L347.9492,1009.4401 Q347.9492,1010.7096 347.4772,1011.2467 Q347.0052,1011.7839 346.1914,1011.7839 Q345.4102,1011.7839 344.9219,1011.2467 Q344.4336,1010.7096 344.4336,1009.4401 L344.4336,1007.5846 L336.1654,1007.5846 L336.1654,1012.6953 L339.2578,1012.6953 Q339.2578,1011.3281 339.5182,1010.9375 Q340.0716,1010.0911 341.0482,1010.0911 Q341.8294,1010.0911 342.3177,1010.6283 Q342.806,1011.1654 342.806,1012.4349 L342.806,1016.5365 Q342.806,1017.6758 342.5456,1018.0664 Q341.9922,1018.8802 341.0482,1018.8802 Q340.0716,1018.8802 339.5182,1018.0339 Q339.2578,1017.6432 339.2578,1016.2435 L336.1654,1016.2435 Z "/><text fill="#000000" font-family="sans-serif" font-size="25" lengthAdjust="spacingAndGlyphs" textLength="131.25" x="367.7083" y="1024.8128">PoRevision</text><line style="stroke: #A80036; stroke-width: 3.125;" x1="309.375" x2="503.125" y1="1047.9167" y2="1047.9167"/><text fill="#000000" font-family="sans-serif" font-size="22.9167" lengthAdjust="spacingAndGlyphs" textLength="81.25" x="319.7917" y="1080.0395">REV2_4</text><text fill="#000000" font-family="sans-serif" font-size="22.9167" lengthAdjust="spacingAndGlyphs" textLength="81.25" x="319.7917" y="1108.8643">REV3_1</text><text fill="#000000" font-family="sans-serif" font-size="22.9167" lengthAdjust="spacingAndGlyphs" textLength="81.25" x="319.7917" y="1137.6892">REV3_2</text><line style="stroke: #A80036; stroke-width: 3.125;" x1="309.375" x2="503.125" y1="1151.0579" y2="1151.0579"/><!--class AbstractCsmCommandBuilder--><rect fill="#FEFECE" filter="url(#fcg6yyx)" height="157.6497" style="stroke: #A80036; stroke-width: 3.125;" width="931.25" x="446.875" y="573.9583"/><ellipse cx="727.6042" cy="607.2917" fill="#A9DCDF" rx="22.9167" ry="22.9167" style="stroke: #A80036; stroke-width: 2.0833333333333335;"/><path d="M732.1615,610.9701 L723.5352,610.9701 L722.6563,613.1185 L723.5352,613.1185 Q724.8047,613.1185 725.3581,613.6068 Q725.9115,614.0951 725.9115,614.9089 Q725.9115,615.6901 725.3581,616.1784 Q724.8047,616.6667 723.5352,616.6667 L718.75,616.6667 Q717.4805,616.6667 716.9434,616.1784 Q716.4063,615.6901 716.4063,614.8763 Q716.4063,614.0951 716.9759,613.5905 Q717.5456,613.0859 718.8477,613.1185 L724.4141,599.2513 L722.1029,599.2513 Q720.8333,599.2513 720.2799,598.763 Q719.7266,598.2747 719.7266,597.4609 Q719.7266,596.6797 720.2799,596.1914 Q720.8333,595.7031 722.1029,595.7031 L729.7526,595.7031 L736.8164,613.1185 Q738.0534,613.1185 738.444,613.4115 Q739.2578,613.9648 739.2578,614.9089 Q739.2578,615.6901 738.7207,616.1784 Q738.1836,616.6667 736.9141,616.6667 L732.1289,616.6667 Q730.8594,616.6667 730.306,616.1784 Q729.7526,615.6901 729.7526,614.8763 Q729.7526,614.0951 730.306,613.6068 Q730.8594,613.1185 732.1289,613.1185 L733.0078,613.1185 L732.1615,610.9701 Z M730.6641,607.4219 L727.832,600.3906 L724.9674,607.4219 L730.6641,607.4219 Z "/><text fill="#000000" font-family="sans-serif" font-size="25" font-style="italic" lengthAdjust="spacingAndGlyphs" textLength="352.0833" x="770.3125" y="617.5212">AbstractCsmCommandBuilder</text><line style="stroke: #A80036; stroke-width: 3.125;" x1="448.9583" x2="1376.0417" y1="640.625" y2="640.625"/><polygon fill="none" points="469.7917,656.0791,478.125,664.4124,469.7917,672.7458,461.4583,664.4124" style="stroke: #B38D22; stroke-width: 2.0833333333333335;"/><text fill="#000000" font-family="sans-serif" font-size="22.9167" lengthAdjust="spacingAndGlyphs" textLength="477.0833" x="488.5417" y="672.7478">CsmRevision defaultRevision = CsmRevision.C1</text><line style="stroke: #A80036; stroke-width: 3.125;" x1="448.9583" x2="1376.0417" y1="686.1165" y2="686.1165"/><ellipse cx="469.7917" cy="711.9873" fill="#84BE84" rx="6.25" ry="6.25" style="stroke: #038048; stroke-width: 2.0833333333333335;"/><text fill="#000000" font-family="sans-serif" font-size="22.9167" lengthAdjust="spacingAndGlyphs" textLength="877.0833" x="488.5417" y="718.2393">AbstractCsmCommandBuilder(CalypsoSmCommands reference, ApduRequest request)</text><!--class CalypsoSmCommands--><rect fill="#FEFECE" filter="url(#fcg6yyx)" height="301.7741" style="stroke: #A80036; stroke-width: 3.125;" width="364.5833" x="1580.2083" y="502.0833"/><ellipse cx="1623.6458" cy="535.4167" fill="#EB937F" rx="22.9167" ry="22.9167" style="stroke: #A80036; stroke-width: 2.0833333333333335;"/><path d="M1621.2695,537.0768 L1621.2695,542.2852 L1630.2865,542.2852 L1630.2865,540.3646 Q1630.2865,539.0951 1630.791,538.5417 Q1631.2956,537.9883 1632.0768,537.9883 Q1632.8581,537.9883 1633.3464,538.5417 Q1633.8346,539.0951 1633.8346,540.3646 L1633.8346,545.8333 L1617.168,545.8333 Q1615.8659,545.8333 1615.3288,545.3451 Q1614.7917,544.8568 1614.7917,544.043 Q1614.7917,543.2617 1615.3451,542.7734 Q1615.8984,542.2852 1617.168,542.2852 L1617.7214,542.2852 L1617.7214,528.418 L1617.168,528.418 Q1615.8659,528.418 1615.3288,527.9297 Q1614.7917,527.4414 1614.7917,526.6276 Q1614.7917,525.8464 1615.3288,525.3581 Q1615.8659,524.8698 1617.168,524.8698 L1633.0534,524.8698 L1633.0534,530.2734 Q1633.0534,531.543 1632.5814,532.0801 Q1632.1094,532.6172 1631.2956,532.6172 Q1630.5143,532.6172 1630.026,532.0801 Q1629.5378,531.543 1629.5378,530.2734 L1629.5378,528.418 L1621.2695,528.418 L1621.2695,533.5286 L1624.362,533.5286 Q1624.362,532.1615 1624.6224,531.7708 Q1625.1758,530.9245 1626.1523,530.9245 Q1626.9336,530.9245 1627.4219,531.4616 Q1627.9102,531.9987 1627.9102,533.2682 L1627.9102,537.3698 Q1627.9102,538.5091 1627.6497,538.8997 Q1627.0964,539.7135 1626.1523,539.7135 Q1625.1758,539.7135 1624.6224,538.8672 Q1624.362,538.4766 1624.362,537.0768 L1621.2695,537.0768 Z "/><text fill="#000000" font-family="sans-serif" font-size="25" lengthAdjust="spacingAndGlyphs" textLength="270.8333" x="1655.5208" y="545.6462">CalypsoSmCommands</text><line style="stroke: #A80036; stroke-width: 3.125;" x1="1582.2917" x2="1942.7083" y1="568.75" y2="568.75"/><text fill="#000000" font-family="sans-serif" font-size="22.9167" lengthAdjust="spacingAndGlyphs" textLength="275" x="1592.7083" y="600.8728">CSM_SELECT_DIVERSIFIER</text><text fill="#000000" font-family="sans-serif" font-size="22.9167" lengthAdjust="spacingAndGlyphs" textLength="239.5833" x="1592.7083" y="629.6977">CSM_GET_CHALLENGE</text><text fill="#000000" font-family="sans-serif" font-size="22.9167" lengthAdjust="spacingAndGlyphs" textLength="181.25" x="1592.7083" y="658.5225">CSM_DIGEST_INIT</text><text fill="#000000" font-family="sans-serif" font-size="22.9167" lengthAdjust="spacingAndGlyphs" textLength="229.1667" x="1592.7083" y="687.3474">CSM_DIGEST_UPDATE</text><text fill="#000000" font-family="sans-serif" font-size="22.9167" lengthAdjust="spacingAndGlyphs" textLength="339.5833" x="1592.7083" y="716.1723">CSM_DIGEST_UPDATE_MULTIPLE</text><text fill="#000000" font-family="sans-serif" font-size="22.9167" lengthAdjust="spacingAndGlyphs" textLength="216.6667" x="1592.7083" y="744.9972">CSM_DIGEST_CLOSE</text><text fill="#000000" font-family="sans-serif" font-size="22.9167" lengthAdjust="spacingAndGlyphs" textLength="304.1667" x="1592.7083" y="773.822">CSM_DIGEST_AUTHENTICATE</text><line style="stroke: #A80036; stroke-width: 3.125;" x1="1582.2917" x2="1942.7083" y1="787.1908" y2="787.1908"/><!--class CsmRevision--><rect fill="#FEFECE" filter="url(#fcg6yyx)" height="157.6497" style="stroke: #A80036; stroke-width: 3.125;" width="222.9167" x="623.9583" y="216.6667"/><ellipse cx="655.2083" cy="250" fill="#EB937F" rx="22.9167" ry="22.9167" style="stroke: #A80036; stroke-width: 2.0833333333333335;"/><path d="M652.832,251.6602 L652.832,256.8685 L661.849,256.8685 L661.849,254.9479 Q661.849,253.6784 662.3535,253.125 Q662.8581,252.5716 663.6393,252.5716 Q664.4206,252.5716 664.9089,253.125 Q665.3971,253.6784 665.3971,254.9479 L665.3971,260.4167 L648.7305,260.4167 Q647.4284,260.4167 646.8913,259.9284 Q646.3542,259.4401 646.3542,258.6263 Q646.3542,257.8451 646.9076,257.3568 Q647.4609,256.8685 648.7305,256.8685 L649.2839,256.8685 L649.2839,243.0013 L648.7305,243.0013 Q647.4284,243.0013 646.8913,242.513 Q646.3542,242.0247 646.3542,241.2109 Q646.3542,240.4297 646.8913,239.9414 Q647.4284,239.4531 648.7305,239.4531 L664.6159,239.4531 L664.6159,244.8568 Q664.6159,246.1263 664.1439,246.6634 Q663.6719,247.2005 662.8581,247.2005 Q662.0768,247.2005 661.5885,246.6634 Q661.1003,246.1263 661.1003,244.8568 L661.1003,243.0013 L652.832,243.0013 L652.832,248.112 L655.9245,248.112 Q655.9245,246.7448 656.1849,246.3542 Q656.7383,245.5078 657.7148,245.5078 Q658.4961,245.5078 658.9844,246.0449 Q659.4727,246.582 659.4727,247.8516 L659.4727,251.9531 Q659.4727,253.0924 659.2122,253.4831 Q658.6589,254.2969 657.7148,254.2969 Q656.7383,254.2969 656.1849,253.4505 Q655.9245,253.0599 655.9245,251.6602 L652.832,251.6602 Z "/><text fill="#000000" font-family="sans-serif" font-size="25" lengthAdjust="spacingAndGlyphs" textLength="156.25" x="684.375" y="260.2295">CsmRevision</text><line style="stroke: #A80036; stroke-width: 3.125;" x1="626.0417" x2="844.7917" y1="283.3333" y2="283.3333"/><text fill="#000000" font-family="sans-serif" font-size="22.9167" lengthAdjust="spacingAndGlyphs" textLength="27.0833" x="636.4583" y="315.4561">C1</text><text fill="#000000" font-family="sans-serif" font-size="22.9167" lengthAdjust="spacingAndGlyphs" textLength="41.6667" x="636.4583" y="344.281">S1D</text><line style="stroke: #A80036; stroke-width: 3.125;" x1="626.0417" x2="844.7917" y1="357.6497" y2="357.6497"/><!--class ApduRequest--><rect fill="#FEFECE" filter="url(#fcg6yyx)" height="186.4746" style="stroke: #A80036; stroke-width: 3.125;" width="541.6667" x="1318.75" y="2439.5833"/><ellipse cx="1502.6042" cy="2472.9167" fill="#ADD1B2" rx="22.9167" ry="22.9167" style="stroke: #A80036; stroke-width: 2.0833333333333335;"/><path d="M1508.3659,2464.3229 Q1508.6914,2463.8672 1509.082,2463.6393 Q1509.4727,2463.4115 1509.9284,2463.4115 Q1510.7096,2463.4115 1511.1979,2463.9486 Q1511.6862,2464.4857 1511.6862,2465.7552 L1511.6862,2468.7826 Q1511.6862,2470.0521 1511.1979,2470.6055 Q1510.7096,2471.1589 1509.9284,2471.1589 Q1509.2122,2471.1589 1508.7891,2470.7357 Q1508.3659,2470.3451 1508.138,2469.2708 Q1508.0404,2468.5221 1507.6497,2468.1315 Q1506.9661,2467.3503 1505.6966,2466.8945 Q1504.4271,2466.4388 1503.125,2466.4388 Q1501.5299,2466.4388 1500.2116,2467.1224 Q1498.8932,2467.806 1497.8678,2469.3685 Q1496.8424,2470.931 1496.8424,2473.0794 L1496.8424,2475.3581 Q1496.8424,2477.9297 1498.6979,2479.6387 Q1500.5534,2481.3477 1503.8737,2481.3477 Q1505.8268,2481.3477 1507.194,2480.8268 Q1508.0078,2480.5013 1508.8867,2479.5898 Q1509.4401,2479.0365 1509.7493,2478.8737 Q1510.0586,2478.7109 1510.4818,2478.7109 Q1511.1654,2478.7109 1511.7025,2479.248 Q1512.2396,2479.7852 1512.2396,2480.5013 Q1512.2396,2481.2174 1511.5234,2482.0638 Q1510.4818,2483.2682 1508.8216,2483.9518 Q1506.5755,2484.8958 1503.8737,2484.8958 Q1500.7161,2484.8958 1498.2096,2483.5938 Q1496.1589,2482.5521 1494.7266,2480.3223 Q1493.2943,2478.0924 1493.2943,2475.4232 L1493.2943,2473.0143 Q1493.2943,2470.2474 1494.5801,2467.8548 Q1495.8659,2465.4622 1498.1445,2464.1764 Q1500.4232,2462.8906 1502.9948,2462.8906 Q1504.5247,2462.8906 1505.8757,2463.2324 Q1507.2266,2463.5742 1508.3659,2464.3229 Z "/><text fill="#000000" font-family="sans-serif" font-size="25" lengthAdjust="spacingAndGlyphs" textLength="156.25" x="1545.3125" y="2483.1462">ApduRequest</text><line style="stroke: #A80036; stroke-width: 3.125;" x1="1320.8333" x2="1858.3333" y1="2506.25" y2="2506.25"/><rect fill="none" height="12.5" style="stroke: #C82930; stroke-width: 2.0833333333333335;" width="12.5" x="1335.4167" y="2525.8708"/><text fill="#000000" font-family="sans-serif" font-size="22.9167" lengthAdjust="spacingAndGlyphs" textLength="147.9167" x="1360.4167" y="2538.3728">boolean case4</text><line style="stroke: #A80036; stroke-width: 3.125;" x1="1320.8333" x2="1858.3333" y1="2551.7415" y2="2551.7415"/><ellipse cx="1341.6667" cy="2577.6123" fill="#84BE84" rx="6.25" ry="6.25" style="stroke: #038048; stroke-width: 2.0833333333333335;"/><text fill="#000000" font-family="sans-serif" font-size="22.9167" lengthAdjust="spacingAndGlyphs" textLength="487.5" x="1360.4167" y="2583.8643">ApduRequest(ByteBuffer bytes, boolean case4)</text><ellipse cx="1341.6667" cy="2606.4372" fill="#84BE84" rx="6.25" ry="6.25" style="stroke: #038048; stroke-width: 2.0833333333333335;"/><text fill="#000000" font-family="sans-serif" font-size="22.9167" lengthAdjust="spacingAndGlyphs" textLength="183.3333" x="1360.4167" y="2612.6892">boolean isCase4()</text><!--class ApduResponse--><rect fill="#FEFECE" filter="url(#fcg6yyx)" height="186.4746" style="stroke: #A80036; stroke-width: 3.125;" width="610.4167" x="2005.2083" y="2439.5833"/><ellipse cx="2211.9792" cy="2472.9167" fill="#ADD1B2" rx="22.9167" ry="22.9167" style="stroke: #A80036; stroke-width: 2.0833333333333335;"/><path d="M2217.7409,2464.3229 Q2218.0664,2463.8672 2218.457,2463.6393 Q2218.8477,2463.4115 2219.3034,2463.4115 Q2220.0846,2463.4115 2220.5729,2463.9486 Q2221.0612,2464.4857 2221.0612,2465.7552 L2221.0612,2468.7826 Q2221.0612,2470.0521 2220.5729,2470.6055 Q2220.0846,2471.1589 2219.3034,2471.1589 Q2218.5872,2471.1589 2218.1641,2470.7357 Q2217.7409,2470.3451 2217.513,2469.2708 Q2217.4154,2468.5221 2217.0247,2468.1315 Q2216.3411,2467.3503 2215.0716,2466.8945 Q2213.8021,2466.4388 2212.5,2466.4388 Q2210.9049,2466.4388 2209.5866,2467.1224 Q2208.2682,2467.806 2207.2428,2469.3685 Q2206.2174,2470.931 2206.2174,2473.0794 L2206.2174,2475.3581 Q2206.2174,2477.9297 2208.0729,2479.6387 Q2209.9284,2481.3477 2213.2487,2481.3477 Q2215.2018,2481.3477 2216.569,2480.8268 Q2217.3828,2480.5013 2218.2617,2479.5898 Q2218.8151,2479.0365 2219.1243,2478.8737 Q2219.4336,2478.7109 2219.8568,2478.7109 Q2220.5404,2478.7109 2221.0775,2479.248 Q2221.6146,2479.7852 2221.6146,2480.5013 Q2221.6146,2481.2174 2220.8984,2482.0638 Q2219.8568,2483.2682 2218.1966,2483.9518 Q2215.9505,2484.8958 2213.2487,2484.8958 Q2210.0911,2484.8958 2207.5846,2483.5938 Q2205.5339,2482.5521 2204.1016,2480.3223 Q2202.6693,2478.0924 2202.6693,2475.4232 L2202.6693,2473.0143 Q2202.6693,2470.2474 2203.9551,2467.8548 Q2205.2409,2465.4622 2207.5195,2464.1764 Q2209.7982,2462.8906 2212.3698,2462.8906 Q2213.8997,2462.8906 2215.2507,2463.2324 Q2216.6016,2463.5742 2217.7409,2464.3229 Z "/><text fill="#000000" font-family="sans-serif" font-size="25" lengthAdjust="spacingAndGlyphs" textLength="179.1667" x="2254.6875" y="2483.1462">ApduResponse</text><line style="stroke: #A80036; stroke-width: 3.125;" x1="2007.2917" x2="2613.5417" y1="2506.25" y2="2506.25"/><rect fill="none" height="12.5" style="stroke: #C82930; stroke-width: 2.0833333333333335;" width="12.5" x="2021.875" y="2525.8708"/><text fill="#000000" font-family="sans-serif" font-size="22.9167" lengthAdjust="spacingAndGlyphs" textLength="197.9167" x="2046.875" y="2538.3728">boolean successful</text><line style="stroke: #A80036; stroke-width: 3.125;" x1="2007.2917" x2="2613.5417" y1="2551.7415" y2="2551.7415"/><ellipse cx="2028.125" cy="2577.6123" fill="#84BE84" rx="6.25" ry="6.25" style="stroke: #038048; stroke-width: 2.0833333333333335;"/><text fill="#000000" font-family="sans-serif" font-size="22.9167" lengthAdjust="spacingAndGlyphs" textLength="556.25" x="2046.875" y="2583.8643">ApduResponse(ByteBuffer bytes, boolean successful)</text><ellipse cx="2028.125" cy="2606.4372" fill="#84BE84" rx="6.25" ry="6.25" style="stroke: #038048; stroke-width: 2.0833333333333335;"/><text fill="#000000" font-family="sans-serif" font-size="22.9167" lengthAdjust="spacingAndGlyphs" textLength="233.3333" x="2046.875" y="2612.6892">boolean isSuccessful()</text><!--class AbstractApduCommandBuilder--><rect fill="#FEFECE" filter="url(#fcg6yyx)" height="272.9492" style="stroke: #A80036; stroke-width: 3.125;" width="885.4167" x="323.9583" y="1954.1667"/><ellipse cx="578.6458" cy="1987.5" fill="#A9DCDF" rx="22.9167" ry="22.9167" style="stroke: #A80036; stroke-width: 2.0833333333333335;"/><path d="M583.2031,1991.1784 L574.5768,1991.1784 L573.6979,1993.3268 L574.5768,1993.3268 Q575.8464,1993.3268 576.3997,1993.8151 Q576.9531,1994.3034 576.9531,1995.1172 Q576.9531,1995.8984 576.3997,1996.3867 Q575.8464,1996.875 574.5768,1996.875 L569.7917,1996.875 Q568.5221,1996.875 567.985,1996.3867 Q567.4479,1995.8984 567.4479,1995.0846 Q567.4479,1994.3034 568.0176,1993.7988 Q568.5872,1993.2943 569.8893,1993.3268 L575.4557,1979.4596 L573.1445,1979.4596 Q571.875,1979.4596 571.3216,1978.9714 Q570.7682,1978.4831 570.7682,1977.6693 Q570.7682,1976.888 571.3216,1976.3997 Q571.875,1975.9115 573.1445,1975.9115 L580.7943,1975.9115 L587.8581,1993.3268 Q589.0951,1993.3268 589.4857,1993.6198 Q590.2995,1994.1732 590.2995,1995.1172 Q590.2995,1995.8984 589.7624,1996.3867 Q589.2253,1996.875 587.9557,1996.875 L583.1706,1996.875 Q581.901,1996.875 581.3477,1996.3867 Q580.7943,1995.8984 580.7943,1995.0846 Q580.7943,1994.3034 581.3477,1993.8151 Q581.901,1993.3268 583.1706,1993.3268 L584.0495,1993.3268 L583.2031,1991.1784 Z M581.7057,1987.6302 L578.8737,1980.599 L576.0091,1987.6302 L581.7057,1987.6302 Z "/><text fill="#000000" font-family="sans-serif" font-size="25" font-style="italic" lengthAdjust="spacingAndGlyphs" textLength="358.3333" x="621.3542" y="1997.7295">AbstractApduCommandBuilder</text><line style="stroke: #A80036; stroke-width: 3.125;" x1="326.0417" x2="1207.2917" y1="2020.8333" y2="2020.8333"/><rect fill="none" height="12.5" style="stroke: #C82930; stroke-width: 2.0833333333333335;" width="12.5" x="340.625" y="2040.4541"/><text fill="#000000" font-family="sans-serif" font-size="22.9167" lengthAdjust="spacingAndGlyphs" textLength="372.9167" x="365.625" y="2052.9561">CommandsTable commandReference</text><rect fill="none" height="12.5" style="stroke: #C82930; stroke-width: 2.0833333333333335;" width="12.5" x="340.625" y="2069.279"/><text fill="#000000" font-family="sans-serif" font-size="22.9167" lengthAdjust="spacingAndGlyphs" textLength="277.0833" x="365.625" y="2081.781">ApduRequest apduRequest</text><line style="stroke: #A80036; stroke-width: 3.125;" x1="326.0417" x2="1207.2917" y1="2095.1497" y2="2095.1497"/><ellipse cx="346.875" cy="2121.0205" fill="#84BE84" rx="6.25" ry="6.25" style="stroke: #038048; stroke-width: 2.0833333333333335;"/><text fill="#000000" font-family="sans-serif" font-size="22.9167" lengthAdjust="spacingAndGlyphs" textLength="829.1667" x="365.625" y="2127.2725">AbstractApduCommandBuilder(CommandsTable reference, ApduRequest request)</text><ellipse cx="346.875" cy="2149.8454" fill="#84BE84" rx="6.25" ry="6.25" style="stroke: #038048; stroke-width: 2.0833333333333335;"/><text fill="#000000" font-family="sans-serif" font-size="22.9167" lengthAdjust="spacingAndGlyphs" textLength="168.75" x="365.625" y="2156.0974">String getName()</text><ellipse cx="346.875" cy="2178.6702" fill="#84BE84" rx="6.25" ry="6.25" style="stroke: #038048; stroke-width: 2.0833333333333335;"/><text fill="#000000" font-family="sans-serif" font-size="22.9167" lengthAdjust="spacingAndGlyphs" textLength="329.1667" x="365.625" y="2184.9223">ApduRequest getApduRequest()</text><ellipse cx="346.875" cy="2207.4951" fill="#84BE84" rx="6.25" ry="6.25" style="stroke: #038048; stroke-width: 2.0833333333333335;"/><text fill="#000000" font-family="sans-serif" font-size="22.9167" lengthAdjust="spacingAndGlyphs" textLength="831.25" x="365.625" y="2213.7472">Class&lt;? extends AbstractApduResponseParser&gt; getApduResponseParserClass()</text><!--class AbstractApduResponseParser--><rect fill="#FEFECE" filter="url(#fcg6yyx)" height="272.9492" style="stroke: #A80036; stroke-width: 3.125;" width="722.9167" x="2444.7917" y="1954.1667"/><ellipse cx="2624.4792" cy="1987.5" fill="#A9DCDF" rx="22.9167" ry="22.9167" style="stroke: #A80036; stroke-width: 2.0833333333333335;"/><path d="M2629.0365,1991.1784 L2620.4102,1991.1784 L2619.5313,1993.3268 L2620.4102,1993.3268 Q2621.6797,1993.3268 2622.2331,1993.8151 Q2622.7865,1994.3034 2622.7865,1995.1172 Q2622.7865,1995.8984 2622.2331,1996.3867 Q2621.6797,1996.875 2620.4102,1996.875 L2615.625,1996.875 Q2614.3555,1996.875 2613.8184,1996.3867 Q2613.2813,1995.8984 2613.2813,1995.0846 Q2613.2813,1994.3034 2613.8509,1993.7988 Q2614.4206,1993.2943 2615.7227,1993.3268 L2621.2891,1979.4596 L2618.9779,1979.4596 Q2617.7083,1979.4596 2617.1549,1978.9714 Q2616.6016,1978.4831 2616.6016,1977.6693 Q2616.6016,1976.888 2617.1549,1976.3997 Q2617.7083,1975.9115 2618.9779,1975.9115 L2626.6276,1975.9115 L2633.6914,1993.3268 Q2634.9284,1993.3268 2635.319,1993.6198 Q2636.1328,1994.1732 2636.1328,1995.1172 Q2636.1328,1995.8984 2635.5957,1996.3867 Q2635.0586,1996.875 2633.7891,1996.875 L2629.0039,1996.875 Q2627.7344,1996.875 2627.181,1996.3867 Q2626.6276,1995.8984 2626.6276,1995.0846 Q2626.6276,1994.3034 2627.181,1993.8151 Q2627.7344,1993.3268 2629.0039,1993.3268 L2629.8828,1993.3268 L2629.0365,1991.1784 Z M2627.5391,1987.6302 L2624.707,1980.599 L2621.8424,1987.6302 L2627.5391,1987.6302 Z "/><text fill="#000000" font-family="sans-serif" font-size="25" font-style="italic" lengthAdjust="spacingAndGlyphs" textLength="345.8333" x="2667.1875" y="1997.7295">AbstractApduResponseParser</text><line style="stroke: #A80036; stroke-width: 3.125;" x1="2446.875" x2="3165.625" y1="2020.8333" y2="2020.8333"/><rect fill="none" height="12.5" style="stroke: #C82930; stroke-width: 2.0833333333333335;" width="12.5" x="2461.4583" y="2040.4541"/><text fill="#000000" font-family="sans-serif" font-size="22.9167" lengthAdjust="spacingAndGlyphs" textLength="314.5833" x="2486.4583" y="2052.9561">ApduResponse apduResponse</text><line style="stroke: #A80036; stroke-width: 3.125;" x1="2446.875" x2="3165.625" y1="2066.3249" y2="2066.3249"/><ellipse cx="2467.7083" cy="2092.1956" fill="#84BE84" rx="6.25" ry="6.25" style="stroke: #038048; stroke-width: 2.0833333333333335;"/><text fill="#000000" font-family="sans-serif" font-size="22.9167" lengthAdjust="spacingAndGlyphs" textLength="668.75" x="2486.4583" y="2098.4477">AbstractApduResponseParser(ApduResponse responseToParse)</text><ellipse cx="2467.7083" cy="2121.0205" fill="#84BE84" rx="6.25" ry="6.25" style="stroke: #038048; stroke-width: 2.0833333333333335;"/><text fill="#000000" font-family="sans-serif" font-size="22.9167" lengthAdjust="spacingAndGlyphs" textLength="366.6667" x="2486.4583" y="2127.2725">ApduResponse getApduResponse()</text><ellipse cx="2467.7083" cy="2149.8454" fill="#84BE84" rx="6.25" ry="6.25" style="stroke: #038048; stroke-width: 2.0833333333333335;"/><text fill="#000000" font-family="sans-serif" font-size="22.9167" lengthAdjust="spacingAndGlyphs" textLength="222.9167" x="2486.4583" y="2156.0974">short getStatusCode()</text><ellipse cx="2467.7083" cy="2178.6702" fill="#84BE84" rx="6.25" ry="6.25" style="stroke: #038048; stroke-width: 2.0833333333333335;"/><text fill="#000000" font-family="sans-serif" font-size="22.9167" lengthAdjust="spacingAndGlyphs" textLength="233.3333" x="2486.4583" y="2184.9223">boolean isSuccessful()</text><ellipse cx="2467.7083" cy="2207.4951" fill="#84BE84" rx="6.25" ry="6.25" style="stroke: #038048; stroke-width: 2.0833333333333335;"/><text fill="#000000" font-family="sans-serif" font-size="22.9167" lengthAdjust="spacingAndGlyphs" textLength="287.5" x="2486.4583" y="2213.7472">String getStatusInformation()</text><!--class CommandsTable--><rect fill="#FEFECE" filter="url(#fcg6yyx)" height="215.2995" style="stroke: #A80036; stroke-width: 3.125;" width="831.25" x="1411.4583" y="1983.3333"/><ellipse cx="1717.1875" cy="2016.6667" fill="#B4A7E5" rx="22.9167" ry="22.9167" style="stroke: #A80036; stroke-width: 2.0833333333333335;"/><path d="M1719.1732,2009.668 L1719.1732,2023.5352 L1722.7539,2023.5352 Q1724.0234,2023.5352 1724.5768,2024.0234 Q1725.1302,2024.5117 1725.1302,2025.3255 Q1725.1302,2026.1068 1724.5768,2026.5951 Q1724.0234,2027.0833 1722.7539,2027.0833 L1712.0443,2027.0833 Q1710.7747,2027.0833 1710.2214,2026.5951 Q1709.668,2026.1068 1709.668,2025.293 Q1709.668,2024.5117 1710.2214,2024.0234 Q1710.7747,2023.5352 1712.0443,2023.5352 L1715.625,2023.5352 L1715.625,2009.668 L1712.0443,2009.668 Q1710.7747,2009.668 1710.2214,2009.1797 Q1709.668,2008.6914 1709.668,2007.8776 Q1709.668,2007.0964 1710.2214,2006.6081 Q1710.7747,2006.1198 1712.0443,2006.1198 L1722.7539,2006.1198 Q1724.0234,2006.1198 1724.5768,2006.6081 Q1725.1302,2007.0964 1725.1302,2007.8776 Q1725.1302,2008.6914 1724.5768,2009.1797 Q1724.0234,2009.668 1722.7539,2009.668 L1719.1732,2009.668 Z "/><text fill="#000000" font-family="sans-serif" font-size="25" font-style="italic" lengthAdjust="spacingAndGlyphs" textLength="202.0833" x="1759.8958" y="2026.8962">CommandsTable</text><line style="stroke: #A80036; stroke-width: 3.125;" x1="1413.5417" x2="2240.625" y1="2050" y2="2050"/><line style="stroke: #A80036; stroke-width: 3.125;" x1="1413.5417" x2="2240.625" y1="2066.6667" y2="2066.6667"/><ellipse cx="1434.375" cy="2092.5374" fill="#84BE84" rx="6.25" ry="6.25" style="stroke: #038048; stroke-width: 2.0833333333333335;"/><text fill="#000000" font-family="sans-serif" font-size="22.9167" lengthAdjust="spacingAndGlyphs" textLength="168.75" x="1453.125" y="2098.7895">String getName()</text><ellipse cx="1434.375" cy="2121.3623" fill="#84BE84" rx="6.25" ry="6.25" style="stroke: #038048; stroke-width: 2.0833333333333335;"/><text fill="#000000" font-family="sans-serif" font-size="22.9167" lengthAdjust="spacingAndGlyphs" textLength="247.9167" x="1453.125" y="2127.6143">byte getInstructionByte()</text><ellipse cx="1434.375" cy="2150.1872" fill="#84BE84" rx="6.25" ry="6.25" style="stroke: #038048; stroke-width: 2.0833333333333335;"/><text fill="#000000" font-family="sans-serif" font-size="22.9167" lengthAdjust="spacingAndGlyphs" textLength="772.9167" x="1453.125" y="2156.4392">Class&lt;? extends AbstractApduCommandBuilder&gt; getCommandBuilderClass()</text><ellipse cx="1434.375" cy="2179.012" fill="#84BE84" rx="6.25" ry="6.25" style="stroke: #038048; stroke-width: 2.0833333333333335;"/><text fill="#000000" font-family="sans-serif" font-size="22.9167" lengthAdjust="spacingAndGlyphs" textLength="777.0833" x="1453.125" y="2185.2641">Class&lt;? extends AbstractApduResponseParser&gt; getResponseParserClass()</text><path d="M1064.5771,1511.4583 C1115.7646,1511.4583 1165.4042,1511.4583 1210.1583,1511.4583 " fill="none" style="stroke: #A80036; stroke-width: 2.0833333333333335;"/><polygon fill="#A80036" points="1237.3625,1511.4583,1224.8625,1503.125,1212.3625,1511.4583,1224.8625,1519.7917,1237.3625,1511.4583" style="stroke: #A80036; stroke-width: 2.0833333333333335;"/><polygon fill="#A80036" points="1037.0063,1511.4583,1055.7563,1519.7917,1047.4229,1511.4583,1055.7563,1503.125,1037.0063,1511.4583" style="stroke: #A80036; stroke-width: 2.0833333333333335;"/><line style="stroke: #A80036; stroke-width: 2.0833333333333335;" x1="1047.4229" x2="1064.0896" y1="1511.4583" y2="1511.4583"/><text fill="#000000" font-family="sans-serif" font-size="27.0833" lengthAdjust="spacingAndGlyphs" textLength="125" x="1074.4792" y="1497.9065">references</text><text fill="#000000" font-family="sans-serif" font-size="27.0833" lengthAdjust="spacingAndGlyphs" textLength="10.4167" x="1053.4973" y="1505.6663">*</text><text fill="#000000" font-family="sans-serif" font-size="27.0833" lengthAdjust="spacingAndGlyphs" textLength="14.5833" x="1206.3842" y="1504.7335">1</text><path d="M1405.9521,653.125 C1456.8917,653.125 1506.4833,653.125 1551.6979,653.125 " fill="none" style="stroke: #A80036; stroke-width: 2.0833333333333335;"/><polygon fill="#A80036" points="1579.2563,653.125,1566.7563,644.7917,1554.2563,653.125,1566.7563,661.4583,1579.2563,653.125" style="stroke: #A80036; stroke-width: 2.0833333333333335;"/><polygon fill="#A80036" points="1378.5313,653.125,1397.2813,661.4583,1388.9479,653.125,1397.2813,644.7917,1378.5313,653.125" style="stroke: #A80036; stroke-width: 2.0833333333333335;"/><line style="stroke: #A80036; stroke-width: 2.0833333333333335;" x1="1388.9479" x2="1405.6146" y1="653.125" y2="653.125"/><text fill="#000000" font-family="sans-serif" font-size="27.0833" lengthAdjust="spacingAndGlyphs" textLength="125" x="1416.6667" y="639.5732">references</text><text fill="#000000" font-family="sans-serif" font-size="27.0833" lengthAdjust="spacingAndGlyphs" textLength="10.4167" x="1395.4664" y="647.333">*</text><text fill="#000000" font-family="sans-serif" font-size="27.0833" lengthAdjust="spacingAndGlyphs" textLength="14.5833" x="1548.8942" y="646.5694">1</text><path d="M443.8042,1168.7604 C475.8875,1247.0792 521.5167,1358.4708 551.75,1432.2771 " fill="none" style="stroke: #A80036; stroke-width: 2.0833333333333335;"/><text fill="#000000" font-family="sans-serif" font-size="27.0833" lengthAdjust="spacingAndGlyphs" textLength="31.25" x="415.638" y="1212.5276">+1</text><text fill="#000000" font-family="sans-serif" font-size="27.0833" lengthAdjust="spacingAndGlyphs" textLength="41.6667" x="500.419" y="1409.5172">1..*</text><path d="M779.5563,375.6875 C790.5813,395.6875 802.1938,417.2708 812.5,437.5 C835.175,482 858.9479,532.5833 877.625,573.3542 " fill="none" style="stroke: #A80036; stroke-width: 2.0833333333333335;"/><text fill="#000000" font-family="sans-serif" font-size="27.0833" lengthAdjust="spacingAndGlyphs" textLength="31.25" x="752.8508" y="419.2982">+1</text><text fill="#000000" font-family="sans-serif" font-size="27.0833" lengthAdjust="spacingAndGlyphs" textLength="41.6667" x="826.0353" y="551.0838">1..*</text><path d="M1236.9333,2090.625 C1285.6313,2090.625 1335.0125,2090.625 1383.4042,2090.625 " fill="none" style="stroke: #A80036; stroke-width: 2.0833333333333335;"/><polygon fill="#A80036" points="1410.9708,2090.625,1398.4708,2082.2917,1385.9708,2090.625,1398.4708,2098.9583,1410.9708,2090.625" style="stroke: #A80036; stroke-width: 2.0833333333333335;"/><polygon fill="#A80036" points="1209.4667,2090.625,1228.2167,2098.9583,1219.8833,2090.625,1228.2167,2082.2917,1209.4667,2090.625" style="stroke: #A80036; stroke-width: 2.0833333333333335;"/><line style="stroke: #A80036; stroke-width: 2.0833333333333335;" x1="1219.8833" x2="1236.55" y1="2090.625" y2="2090.625"/><text fill="#000000" font-family="sans-serif" font-size="27.0833" lengthAdjust="spacingAndGlyphs" textLength="125" x="1247.9167" y="2077.0732">references</text><text fill="#000000" font-family="sans-serif" font-size="27.0833" lengthAdjust="spacingAndGlyphs" textLength="10.4167" x="1225.567" y="2084.8201">*</text><text fill="#000000" font-family="sans-serif" font-size="27.0833" lengthAdjust="spacingAndGlyphs" textLength="14.5833" x="1379.8483" y="2084.7558">1</text><path d="M2270.5833,2090.625 C2319.4167,2090.625 2368.875,2090.625 2416.9583,2090.625 " fill="none" style="stroke: #A80036; stroke-width: 2.0833333333333335;"/><polygon fill="#A80036" points="2444.3125,2090.625,2425.5625,2082.2917,2433.8958,2090.625,2425.5625,2098.9583,2444.3125,2090.625" style="stroke: #A80036; stroke-width: 2.0833333333333335;"/><line style="stroke: #A80036; stroke-width: 2.0833333333333335;" x1="2433.8958" x2="2417.2292" y1="2090.625" y2="2090.625"/><polygon fill="#A80036" points="2243.0417,2090.625,2255.5417,2098.9583,2268.0417,2090.625,2255.5417,2082.2917,2243.0417,2090.625" style="stroke: #A80036; stroke-width: 2.0833333333333335;"/><text fill="#000000" font-family="sans-serif" font-size="27.0833" lengthAdjust="spacingAndGlyphs" textLength="125" x="2281.25" y="2077.0732">references</text><text fill="#000000" font-family="sans-serif" font-size="27.0833" lengthAdjust="spacingAndGlyphs" textLength="14.5833" x="2259.5749" y="2084.7558">1</text><text fill="#000000" font-family="sans-serif" font-size="27.0833" lengthAdjust="spacingAndGlyphs" textLength="10.4167" x="2417.2595" y="2084.6671">*</text><path d="M1043.6188,2240.3 C1158.2646,2301.3958 1288.5646,2370.8333 1393.1125,2426.5479 " fill="none" style="stroke: #A80036; stroke-width: 2.0833333333333335;"/><polygon fill="#A80036" points="1417.0563,2439.3083,1404.4287,2423.1358,1407.8636,2434.4092,1396.5901,2437.8441,1417.0563,2439.3083" style="stroke: #A80036; stroke-width: 2.0833333333333335;"/><line style="stroke: #A80036; stroke-width: 2.0833333333333335;" x1="1407.8636" x2="1393.1542" y1="2434.4092" y2="2426.5698"/><polygon fill="#FFFFFF" points="1019.1604,2227.2646,1026.2724,2240.4977,1041.2229,2239.0224,1034.1109,2225.7894,1019.1604,2227.2646" style="stroke: #A80036; stroke-width: 2.0833333333333335;"/><text fill="#000000" font-family="sans-serif" font-size="27.0833" lengthAdjust="spacingAndGlyphs" textLength="158.3333" x="1206.25" y="2323.9482">apduRequest</text><text fill="#000000" font-family="sans-serif" font-size="27.0833" lengthAdjust="spacingAndGlyphs" textLength="31.25" x="1013.8179" y="2272.1856">+1</text><text fill="#000000" font-family="sans-serif" font-size="27.0833" lengthAdjust="spacingAndGlyphs" textLength="14.5833" x="1374.9382" y="2417.2747">1</text><path d="M2633.7708,2245.2563 C2568.375,2303.1 2495.2292,2367.7917 2435.0625,2420.9979 " fill="none" style="stroke: #A80036; stroke-width: 2.0833333333333335;"/><polygon fill="#A80036" points="2414.375,2439.3083,2433.9399,2433.126,2422.1768,2432.4062,2422.8965,2420.6431,2414.375,2439.3083" style="stroke: #A80036; stroke-width: 2.0833333333333335;"/><line style="stroke: #A80036; stroke-width: 2.0833333333333335;" x1="2422.1768" x2="2434.6563" y1="2432.4062" y2="2421.3646"/><polygon fill="#FFFFFF" points="2654.1042,2227.2646,2639.2203,2229.3057,2635.3799,2243.8296,2650.2637,2241.7885,2654.1042,2227.2646" style="stroke: #A80036; stroke-width: 2.0833333333333335;"/><text fill="#000000" font-family="sans-serif" font-size="27.0833" lengthAdjust="spacingAndGlyphs" textLength="179.1667" x="2575" y="2323.9482">apduResponse</text><text fill="#000000" font-family="sans-serif" font-size="27.0833" lengthAdjust="spacingAndGlyphs" textLength="31.25" x="2604.5042" y="2272.1856">+1</text><text fill="#000000" font-family="sans-serif" font-size="27.0833" lengthAdjust="spacingAndGlyphs" textLength="14.5833" x="2414.5938" y="2417.2747">1</text><path d="M1534.2271,1692.3229 C1595.2938,1774.9458 1666.7458,1871.6146 1723.7854,1948.7854 " fill="none" style="stroke: #A80036; stroke-width: 2.0833333333333335;"/><polygon fill="none" points="1735.85,1940.5729,1748.8875,1982.7479,1712.3938,1957.9083,1735.85,1940.5729" style="stroke: #A80036; stroke-width: 2.0833333333333335;"/><text fill="#000000" font-family="sans-serif" font-size="27.0833" lengthAdjust="spacingAndGlyphs" textLength="139.5833" x="1643.75" y="1838.5315">implements</text><path d="M1776.725,804.2458 C1787.2438,920.4604 1800.9708,1085.9667 1808.3333,1231.25 C1820.9479,1480.1792 1825.0833,1770.1896 1826.4333,1941.075 " fill="none" style="stroke: #A80036; stroke-width: 2.0833333333333335;"/><polygon fill="none" points="1841.0167,1941.1188,1826.7271,1982.8875,1811.8521,1941.3229,1841.0167,1941.1188" style="stroke: #A80036; stroke-width: 2.0833333333333335;"/><text fill="#000000" font-family="sans-serif" font-size="27.0833" lengthAdjust="spacingAndGlyphs" textLength="139.5833" x="1812.5" y="1261.4482">implements</text><path d="M608.0583,1591.0896 C634.3188,1673.45 676.6938,1806.3563 711.0417,1914.0792 " fill="none" style="stroke: #A80036; stroke-width: 2.0833333333333335;"/><polygon fill="none" points="724.9979,1909.8458,723.7604,1953.9729,697.2083,1918.7063,724.9979,1909.8458" style="stroke: #A80036; stroke-width: 2.0833333333333335;"/><text fill="#000000" font-family="sans-serif" font-size="27.0833" lengthAdjust="spacingAndGlyphs" textLength="95.8333" x="689.5833" y="1838.5315">extends</text><path d="M1127.025,732.4271 C1248.0625,773.5542 1402.8521,822.125 1543.75,854.1667 C1569.2875,859.975 1643.2583,851.0479 1660.4167,870.8333 C1695.9063,911.7542 1697.5854,1806.4313 1660.4167,1845.8333 C1638.6188,1868.9417 1406.0875,1855.9688 1375,1862.5 C1288.3792,1880.6958 1197.6354,1909.0104 1113.4542,1939.5188 " fill="none" style="stroke: #A80036; stroke-width: 2.0833333333333335;"/><polygon fill="none" points="1118.1333,1953.3375,1073.9958,1954.1479,1107.9958,1925.9896,1118.1333,1953.3375" style="stroke: #A80036; stroke-width: 2.0833333333333335;"/><text fill="#000000" font-family="sans-serif" font-size="27.0833" lengthAdjust="spacingAndGlyphs" textLength="95.8333" x="1689.5833" y="1261.4482">extends</text></g></svg>