<?xml version="1.0" encoding="UTF-8" standalone="no"?><svg xmlns="http://www.w3.org/2000/svg" xmlns:xlink="http://www.w3.org/1999/xlink" contentScriptType="application/ecmascript" contentStyleType="text/css" height="1947.9167px" preserveAspectRatio="none" style="width:3822px;height:1947px;" version="1.1" viewBox="0 0 3822 1947" width="3822.9167px" zoomAndPan="magnify"><defs><filter height="300%" id="fwegdpj" width="300%" x="-1" y="-1"><feGaussianBlur result="blurOut" stdDeviation="4.166666666666667"/><feColorMatrix in="blurOut" result="blurOut2" type="matrix" values="0 0 0 0 0 0 0 0 0 0 0 0 0 0 0 0 0 0 .4 0"/><feOffset dx="8.333333333333334" dy="8.333333333333334" in="blurOut2" result="blurOut3"/><feBlend in="SourceGraphic" in2="blurOut3" mode="normal"/></filter></defs><g><!--cluster org.eclipse.keyple.commands--><polygon fill="#FFFFFF" filter="url(#fwegdpj)" points="1025,1510.4167,1470.8333,1510.4167,1485.4167,1559.6029,3808.3333,1559.6029,3808.3333,1933.3333,1025,1933.3333,1025,1510.4167" style="stroke: #000000; stroke-width: 4.166666666666667;"/><line style="stroke: #000000; stroke-width: 4.166666666666667;" x1="1025" x2="1485.4167" y1="1559.6029" y2="1559.6029"/><text fill="#000000" font-family="sans-serif" font-size="29.1667" font-weight="bold" lengthAdjust="spacingAndGlyphs" textLength="433.3333" x="1033.3333" y="1544.8608">org.eclipse.keyple.commands</text><!--cluster org.eclipse.keyple.calypso.commands--><polygon fill="#FFFFFF" filter="url(#fwegdpj)" points="45.8333,50,610.4167,50,625,99.1862,3391.6667,99.1862,3391.6667,1406.25,45.8333,1406.25,45.8333,50" style="stroke: #000000; stroke-width: 4.166666666666667;"/><line style="stroke: #000000; stroke-width: 4.166666666666667;" x1="45.8333" x2="625" y1="99.1862" y2="99.1862"/><text fill="#000000" font-family="sans-serif" font-size="29.1667" font-weight="bold" lengthAdjust="spacingAndGlyphs" textLength="552.0833" x="54.1667" y="84.4442">org.eclipse.keyple.calypso.commands</text><!--cluster org.eclipse.keyple.calypso.commands.po--><polygon fill="#FFFFFF" filter="url(#fwegdpj)" points="408.3333,141.6667,1018.75,141.6667,1033.3333,190.8529,3341.6667,190.8529,3341.6667,1356.25,408.3333,1356.25,408.3333,141.6667" style="stroke: #000000; stroke-width: 4.166666666666667;"/><line style="stroke: #000000; stroke-width: 4.166666666666667;" x1="408.3333" x2="1033.3333" y1="190.8529" y2="190.8529"/><text fill="#000000" font-family="sans-serif" font-size="29.1667" font-weight="bold" lengthAdjust="spacingAndGlyphs" textLength="597.9167" x="416.6667" y="176.1108">org.eclipse.keyple.calypso.commands.po</text><!--cluster org.eclipse.keyple.calypso.commands.po.builder--><polygon fill="#FFFFFF" filter="url(#fwegdpj)" points="458.3333,752.0833,1181.25,752.0833,1195.8333,801.2695,1687.5,801.2695,1687.5,1002.0833,458.3333,1002.0833,458.3333,752.0833" style="stroke: #000000; stroke-width: 4.166666666666667;"/><line style="stroke: #000000; stroke-width: 4.166666666666667;" x1="458.3333" x2="1195.8333" y1="801.2695" y2="801.2695"/><text fill="#000000" font-family="sans-serif" font-size="29.1667" font-weight="bold" lengthAdjust="spacingAndGlyphs" textLength="710.4167" x="466.6667" y="786.5275">org.eclipse.keyple.calypso.commands.po.builder</text><!--cluster org.eclipse.keyple.calypso.commands.po.parser--><polygon fill="#FFFFFF" filter="url(#fwegdpj)" points="1737.5,752.0833,2452.0833,752.0833,2466.6667,801.2695,3291.6667,801.2695,3291.6667,1002.0833,1737.5,1002.0833,1737.5,752.0833" style="stroke: #000000; stroke-width: 4.166666666666667;"/><line style="stroke: #000000; stroke-width: 4.166666666666667;" x1="1737.5" x2="2466.6667" y1="801.2695" y2="801.2695"/><text fill="#000000" font-family="sans-serif" font-size="29.1667" font-weight="bold" lengthAdjust="spacingAndGlyphs" textLength="702.0833" x="1745.8333" y="786.5275">org.eclipse.keyple.calypso.commands.po.parser</text><!--class AbstractApduCommandBuilder--><rect fill="#FEFECE" filter="url(#fwegdpj)" height="272.9492" style="stroke: #A80036; stroke-width: 3.125;" width="885.4167" x="1059.375" y="1627.0833"/><ellipse cx="1314.0625" cy="1660.4167" fill="#A9DCDF" rx="22.9167" ry="22.9167" style="stroke: #A80036; stroke-width: 2.0833333333333335;"/><path d="M1318.6198,1664.0951 L1309.9935,1664.0951 L1309.1146,1666.2435 L1309.9935,1666.2435 Q1311.263,1666.2435 1311.8164,1666.7318 Q1312.3698,1667.2201 1312.3698,1668.0339 Q1312.3698,1668.8151 1311.8164,1669.3034 Q1311.263,1669.7917 1309.9935,1669.7917 L1305.2083,1669.7917 Q1303.9388,1669.7917 1303.4017,1669.3034 Q1302.8646,1668.8151 1302.8646,1668.0013 Q1302.8646,1667.2201 1303.4342,1666.7155 Q1304.0039,1666.2109 1305.306,1666.2435 L1310.8724,1652.3763 L1308.5612,1652.3763 Q1307.2917,1652.3763 1306.7383,1651.888 Q1306.1849,1651.3997 1306.1849,1650.5859 Q1306.1849,1649.8047 1306.7383,1649.3164 Q1307.2917,1648.8281 1308.5612,1648.8281 L1316.2109,1648.8281 L1323.2747,1666.2435 Q1324.5117,1666.2435 1324.9023,1666.5365 Q1325.7161,1667.0898 1325.7161,1668.0339 Q1325.7161,1668.8151 1325.179,1669.3034 Q1324.6419,1669.7917 1323.3724,1669.7917 L1318.5872,1669.7917 Q1317.3177,1669.7917 1316.7643,1669.3034 Q1316.2109,1668.8151 1316.2109,1668.0013 Q1316.2109,1667.2201 1316.7643,1666.7318 Q1317.3177,1666.2435 1318.5872,1666.2435 L1319.4661,1666.2435 L1318.6198,1664.0951 Z M1317.1224,1660.5469 L1314.2904,1653.5156 L1311.4258,1660.5469 L1317.1224,1660.5469 Z "/><text fill="#000000" font-family="sans-serif" font-size="25" font-style="italic" lengthAdjust="spacingAndGlyphs" textLength="358.3333" x="1356.7708" y="1670.6462">AbstractApduCommandBuilder</text><line style="stroke: #A80036; stroke-width: 3.125;" x1="1061.4583" x2="1942.7083" y1="1693.75" y2="1693.75"/><rect fill="none" height="12.5" style="stroke: #C82930; stroke-width: 2.0833333333333335;" width="12.5" x="1076.0417" y="1713.3708"/><text fill="#000000" font-family="sans-serif" font-size="22.9167" lengthAdjust="spacingAndGlyphs" textLength="372.9167" x="1101.0417" y="1725.8728">CommandsTable commandReference</text><rect fill="none" height="12.5" style="stroke: #C82930; stroke-width: 2.0833333333333335;" width="12.5" x="1076.0417" y="1742.1956"/><text fill="#000000" font-family="sans-serif" font-size="22.9167" lengthAdjust="spacingAndGlyphs" textLength="277.0833" x="1101.0417" y="1754.6977">ApduRequest apduRequest</text><line style="stroke: #A80036; stroke-width: 3.125;" x1="1061.4583" x2="1942.7083" y1="1768.0664" y2="1768.0664"/><ellipse cx="1082.2917" cy="1793.9372" fill="#84BE84" rx="6.25" ry="6.25" style="stroke: #038048; stroke-width: 2.0833333333333335;"/><text fill="#000000" font-family="sans-serif" font-size="22.9167" lengthAdjust="spacingAndGlyphs" textLength="829.1667" x="1101.0417" y="1800.1892">AbstractApduCommandBuilder(CommandsTable reference, ApduRequest request)</text><ellipse cx="1082.2917" cy="1822.762" fill="#84BE84" rx="6.25" ry="6.25" style="stroke: #038048; stroke-width: 2.0833333333333335;"/><text fill="#000000" font-family="sans-serif" font-size="22.9167" lengthAdjust="spacingAndGlyphs" textLength="168.75" x="1101.0417" y="1829.0141">String getName()</text><ellipse cx="1082.2917" cy="1851.5869" fill="#84BE84" rx="6.25" ry="6.25" style="stroke: #038048; stroke-width: 2.0833333333333335;"/><text fill="#000000" font-family="sans-serif" font-size="22.9167" lengthAdjust="spacingAndGlyphs" textLength="329.1667" x="1101.0417" y="1857.8389">ApduRequest getApduRequest()</text><ellipse cx="1082.2917" cy="1880.4118" fill="#84BE84" rx="6.25" ry="6.25" style="stroke: #038048; stroke-width: 2.0833333333333335;"/><text fill="#000000" font-family="sans-serif" font-size="22.9167" lengthAdjust="spacingAndGlyphs" textLength="831.25" x="1101.0417" y="1886.6638">Class&lt;? extends AbstractApduResponseParser&gt; getApduResponseParserClass()</text><!--class AbstractApduResponseParser--><rect fill="#FEFECE" filter="url(#fwegdpj)" height="272.9492" style="stroke: #A80036; stroke-width: 3.125;" width="722.9167" x="2017.7083" y="1627.0833"/><ellipse cx="2197.3958" cy="1660.4167" fill="#A9DCDF" rx="22.9167" ry="22.9167" style="stroke: #A80036; stroke-width: 2.0833333333333335;"/><path d="M2201.9531,1664.0951 L2193.3268,1664.0951 L2192.4479,1666.2435 L2193.3268,1666.2435 Q2194.5964,1666.2435 2195.1497,1666.7318 Q2195.7031,1667.2201 2195.7031,1668.0339 Q2195.7031,1668.8151 2195.1497,1669.3034 Q2194.5964,1669.7917 2193.3268,1669.7917 L2188.5417,1669.7917 Q2187.2721,1669.7917 2186.735,1669.3034 Q2186.1979,1668.8151 2186.1979,1668.0013 Q2186.1979,1667.2201 2186.7676,1666.7155 Q2187.3372,1666.2109 2188.6393,1666.2435 L2194.2057,1652.3763 L2191.8945,1652.3763 Q2190.625,1652.3763 2190.0716,1651.888 Q2189.5182,1651.3997 2189.5182,1650.5859 Q2189.5182,1649.8047 2190.0716,1649.3164 Q2190.625,1648.8281 2191.8945,1648.8281 L2199.5443,1648.8281 L2206.6081,1666.2435 Q2207.8451,1666.2435 2208.2357,1666.5365 Q2209.0495,1667.0898 2209.0495,1668.0339 Q2209.0495,1668.8151 2208.5124,1669.3034 Q2207.9753,1669.7917 2206.7057,1669.7917 L2201.9206,1669.7917 Q2200.651,1669.7917 2200.0977,1669.3034 Q2199.5443,1668.8151 2199.5443,1668.0013 Q2199.5443,1667.2201 2200.0977,1666.7318 Q2200.651,1666.2435 2201.9206,1666.2435 L2202.7995,1666.2435 L2201.9531,1664.0951 Z M2200.4557,1660.5469 L2197.6237,1653.5156 L2194.7591,1660.5469 L2200.4557,1660.5469 Z "/><text fill="#000000" font-family="sans-serif" font-size="25" font-style="italic" lengthAdjust="spacingAndGlyphs" textLength="345.8333" x="2240.1042" y="1670.6462">AbstractApduResponseParser</text><line style="stroke: #A80036; stroke-width: 3.125;" x1="2019.7917" x2="2738.5417" y1="1693.75" y2="1693.75"/><rect fill="none" height="12.5" style="stroke: #C82930; stroke-width: 2.0833333333333335;" width="12.5" x="2034.375" y="1713.3708"/><text fill="#000000" font-family="sans-serif" font-size="22.9167" lengthAdjust="spacingAndGlyphs" textLength="314.5833" x="2059.375" y="1725.8728">ApduResponse apduResponse</text><line style="stroke: #A80036; stroke-width: 3.125;" x1="2019.7917" x2="2738.5417" y1="1739.2415" y2="1739.2415"/><ellipse cx="2040.625" cy="1765.1123" fill="#84BE84" rx="6.25" ry="6.25" style="stroke: #038048; stroke-width: 2.0833333333333335;"/><text fill="#000000" font-family="sans-serif" font-size="22.9167" lengthAdjust="spacingAndGlyphs" textLength="668.75" x="2059.375" y="1771.3643">AbstractApduResponseParser(ApduResponse responseToParse)</text><ellipse cx="2040.625" cy="1793.9372" fill="#84BE84" rx="6.25" ry="6.25" style="stroke: #038048; stroke-width: 2.0833333333333335;"/><text fill="#000000" font-family="sans-serif" font-size="22.9167" lengthAdjust="spacingAndGlyphs" textLength="366.6667" x="2059.375" y="1800.1892">ApduResponse getApduResponse()</text><ellipse cx="2040.625" cy="1822.762" fill="#84BE84" rx="6.25" ry="6.25" style="stroke: #038048; stroke-width: 2.0833333333333335;"/><text fill="#000000" font-family="sans-serif" font-size="22.9167" lengthAdjust="spacingAndGlyphs" textLength="222.9167" x="2059.375" y="1829.0141">short getStatusCode()</text><ellipse cx="2040.625" cy="1851.5869" fill="#84BE84" rx="6.25" ry="6.25" style="stroke: #038048; stroke-width: 2.0833333333333335;"/><text fill="#000000" font-family="sans-serif" font-size="22.9167" lengthAdjust="spacingAndGlyphs" textLength="233.3333" x="2059.375" y="1857.8389">boolean isSuccessful()</text><ellipse cx="2040.625" cy="1880.4118" fill="#84BE84" rx="6.25" ry="6.25" style="stroke: #038048; stroke-width: 2.0833333333333335;"/><text fill="#000000" font-family="sans-serif" font-size="22.9167" lengthAdjust="spacingAndGlyphs" textLength="287.5" x="2059.375" y="1886.6638">String getStatusInformation()</text><!--class CommandsTable--><rect fill="#FEFECE" filter="url(#fwegdpj)" height="215.2995" style="stroke: #A80036; stroke-width: 3.125;" width="831.25" x="2942.7083" y="1656.25"/><ellipse cx="3248.4375" cy="1689.5833" fill="#B4A7E5" rx="22.9167" ry="22.9167" style="stroke: #A80036; stroke-width: 2.0833333333333335;"/><path d="M3250.4232,1682.5846 L3250.4232,1696.4518 L3254.0039,1696.4518 Q3255.2734,1696.4518 3255.8268,1696.9401 Q3256.3802,1697.4284 3256.3802,1698.2422 Q3256.3802,1699.0234 3255.8268,1699.5117 Q3255.2734,1700 3254.0039,1700 L3243.2943,1700 Q3242.0247,1700 3241.4714,1699.5117 Q3240.918,1699.0234 3240.918,1698.2096 Q3240.918,1697.4284 3241.4714,1696.9401 Q3242.0247,1696.4518 3243.2943,1696.4518 L3246.875,1696.4518 L3246.875,1682.5846 L3243.2943,1682.5846 Q3242.0247,1682.5846 3241.4714,1682.0964 Q3240.918,1681.6081 3240.918,1680.7943 Q3240.918,1680.013 3241.4714,1679.5247 Q3242.0247,1679.0365 3243.2943,1679.0365 L3254.0039,1679.0365 Q3255.2734,1679.0365 3255.8268,1679.5247 Q3256.3802,1680.013 3256.3802,1680.7943 Q3256.3802,1681.6081 3255.8268,1682.0964 Q3255.2734,1682.5846 3254.0039,1682.5846 L3250.4232,1682.5846 Z "/><text fill="#000000" font-family="sans-serif" font-size="25" font-style="italic" lengthAdjust="spacingAndGlyphs" textLength="202.0833" x="3291.1458" y="1699.8128">CommandsTable</text><line style="stroke: #A80036; stroke-width: 3.125;" x1="2944.7917" x2="3771.875" y1="1722.9167" y2="1722.9167"/><line style="stroke: #A80036; stroke-width: 3.125;" x1="2944.7917" x2="3771.875" y1="1739.5833" y2="1739.5833"/><ellipse cx="2965.625" cy="1765.4541" fill="#84BE84" rx="6.25" ry="6.25" style="stroke: #038048; stroke-width: 2.0833333333333335;"/><text fill="#000000" font-family="sans-serif" font-size="22.9167" lengthAdjust="spacingAndGlyphs" textLength="168.75" x="2984.375" y="1771.7061">String getName()</text><ellipse cx="2965.625" cy="1794.279" fill="#84BE84" rx="6.25" ry="6.25" style="stroke: #038048; stroke-width: 2.0833333333333335;"/><text fill="#000000" font-family="sans-serif" font-size="22.9167" lengthAdjust="spacingAndGlyphs" textLength="247.9167" x="2984.375" y="1800.531">byte getInstructionByte()</text><ellipse cx="2965.625" cy="1823.1038" fill="#84BE84" rx="6.25" ry="6.25" style="stroke: #038048; stroke-width: 2.0833333333333335;"/><text fill="#000000" font-family="sans-serif" font-size="22.9167" lengthAdjust="spacingAndGlyphs" textLength="772.9167" x="2984.375" y="1829.3559">Class&lt;? extends AbstractApduCommandBuilder&gt; getCommandBuilderClass()</text><ellipse cx="2965.625" cy="1851.9287" fill="#84BE84" rx="6.25" ry="6.25" style="stroke: #038048; stroke-width: 2.0833333333333335;"/><text fill="#000000" font-family="sans-serif" font-size="22.9167" lengthAdjust="spacingAndGlyphs" textLength="777.0833" x="2984.375" y="1858.1807">Class&lt;? extends AbstractApduResponseParser&gt; getResponseParserClass()</text><!--class SendableInSession--><rect fill="#FEFECE" filter="url(#fwegdpj)" height="100" style="stroke: #A80036; stroke-width: 3.125;" width="293.75" x="80.2083" y="388.5417"/><ellipse cx="111.4583" cy="421.875" fill="#B4A7E5" rx="22.9167" ry="22.9167" style="stroke: #A80036; stroke-width: 2.0833333333333335;"/><path d="M113.444,414.8763 L113.444,428.7435 L117.0247,428.7435 Q118.2943,428.7435 118.8477,429.2318 Q119.401,429.7201 119.401,430.5339 Q119.401,431.3151 118.8477,431.8034 Q118.2943,432.2917 117.0247,432.2917 L106.3151,432.2917 Q105.0456,432.2917 104.4922,431.8034 Q103.9388,431.3151 103.9388,430.5013 Q103.9388,429.7201 104.4922,429.2318 Q105.0456,428.7435 106.3151,428.7435 L109.8958,428.7435 L109.8958,414.8763 L106.3151,414.8763 Q105.0456,414.8763 104.4922,414.388 Q103.9388,413.8997 103.9388,413.0859 Q103.9388,412.3047 104.4922,411.8164 Q105.0456,411.3281 106.3151,411.3281 L117.0247,411.3281 Q118.2943,411.3281 118.8477,411.8164 Q119.401,412.3047 119.401,413.0859 Q119.401,413.8997 118.8477,414.388 Q118.2943,414.8763 117.0247,414.8763 L113.444,414.8763 Z "/><text fill="#000000" font-family="sans-serif" font-size="25" font-style="italic" lengthAdjust="spacingAndGlyphs" textLength="227.0833" x="140.625" y="432.1045">SendableInSession</text><line style="stroke: #A80036; stroke-width: 3.125;" x1="82.2917" x2="371.875" y1="455.2083" y2="455.2083"/><line style="stroke: #A80036; stroke-width: 3.125;" x1="82.2917" x2="371.875" y1="471.875" y2="471.875"/><!--class AbstractPoCommandBuilder--><rect fill="#FEFECE" filter="url(#fwegdpj)" height="157.6497" style="stroke: #A80036; stroke-width: 3.125;" width="906.25" x="853.125" y="1150"/><ellipse cx="1132.8125" cy="1183.3333" fill="#A9DCDF" rx="22.9167" ry="22.9167" style="stroke: #A80036; stroke-width: 2.0833333333333335;"/><path d="M1137.3698,1187.0117 L1128.7435,1187.0117 L1127.8646,1189.1602 L1128.7435,1189.1602 Q1130.013,1189.1602 1130.5664,1189.6484 Q1131.1198,1190.1367 1131.1198,1190.9505 Q1131.1198,1191.7318 1130.5664,1192.2201 Q1130.013,1192.7083 1128.7435,1192.7083 L1123.9583,1192.7083 Q1122.6888,1192.7083 1122.1517,1192.2201 Q1121.6146,1191.7318 1121.6146,1190.918 Q1121.6146,1190.1367 1122.1842,1189.6322 Q1122.7539,1189.1276 1124.056,1189.1602 L1129.6224,1175.293 L1127.3112,1175.293 Q1126.0417,1175.293 1125.4883,1174.8047 Q1124.9349,1174.3164 1124.9349,1173.5026 Q1124.9349,1172.7214 1125.4883,1172.2331 Q1126.0417,1171.7448 1127.3112,1171.7448 L1134.9609,1171.7448 L1142.0247,1189.1602 Q1143.2617,1189.1602 1143.6523,1189.4531 Q1144.4661,1190.0065 1144.4661,1190.9505 Q1144.4661,1191.7318 1143.929,1192.2201 Q1143.3919,1192.7083 1142.1224,1192.7083 L1137.3372,1192.7083 Q1136.0677,1192.7083 1135.5143,1192.2201 Q1134.9609,1191.7318 1134.9609,1190.918 Q1134.9609,1190.1367 1135.5143,1189.6484 Q1136.0677,1189.1602 1137.3372,1189.1602 L1138.2161,1189.1602 L1137.3698,1187.0117 Z M1135.8724,1183.4635 L1133.0404,1176.4323 L1130.1758,1183.4635 L1135.8724,1183.4635 Z "/><text fill="#000000" font-family="sans-serif" font-size="25" font-style="italic" lengthAdjust="spacingAndGlyphs" textLength="329.1667" x="1175.5208" y="1193.5628">AbstractPoCommandBuilder</text><line style="stroke: #A80036; stroke-width: 3.125;" x1="855.2083" x2="1757.2917" y1="1216.6667" y2="1216.6667"/><polygon fill="none" points="876.0417,1232.1208,884.375,1240.4541,876.0417,1248.7874,867.7083,1240.4541" style="stroke: #B38D22; stroke-width: 2.0833333333333335;"/><text fill="#000000" font-family="sans-serif" font-size="22.9167" lengthAdjust="spacingAndGlyphs" textLength="512.5" x="894.7917" y="1248.7895">CsmRevision defaultRevision = PoRevision.REV3_1</text><line style="stroke: #A80036; stroke-width: 3.125;" x1="855.2083" x2="1757.2917" y1="1262.1582" y2="1262.1582"/><ellipse cx="876.0417" cy="1288.029" fill="#84BE84" rx="6.25" ry="6.25" style="stroke: #038048; stroke-width: 2.0833333333333335;"/><text fill="#000000" font-family="sans-serif" font-size="22.9167" lengthAdjust="spacingAndGlyphs" textLength="852.0833" x="894.7917" y="1294.281">AbstractPoCommandBuilder(CalypsoPoCommands reference, ApduRequest request)</text><!--class PoRevision--><rect fill="#FEFECE" filter="url(#fwegdpj)" height="186.4746" style="stroke: #A80036; stroke-width: 3.125;" width="197.9167" x="509.375" y="1135.4167"/><ellipse cx="540.625" cy="1168.75" fill="#EB937F" rx="22.9167" ry="22.9167" style="stroke: #A80036; stroke-width: 2.0833333333333335;"/><path d="M538.2487,1170.4102 L538.2487,1175.6185 L547.2656,1175.6185 L547.2656,1173.6979 Q547.2656,1172.4284 547.7702,1171.875 Q548.2747,1171.3216 549.056,1171.3216 Q549.8372,1171.3216 550.3255,1171.875 Q550.8138,1172.4284 550.8138,1173.6979 L550.8138,1179.1667 L534.1471,1179.1667 Q532.8451,1179.1667 532.3079,1178.6784 Q531.7708,1178.1901 531.7708,1177.3763 Q531.7708,1176.5951 532.3242,1176.1068 Q532.8776,1175.6185 534.1471,1175.6185 L534.7005,1175.6185 L534.7005,1161.7513 L534.1471,1161.7513 Q532.8451,1161.7513 532.3079,1161.263 Q531.7708,1160.7747 531.7708,1159.9609 Q531.7708,1159.1797 532.3079,1158.6914 Q532.8451,1158.2031 534.1471,1158.2031 L550.0326,1158.2031 L550.0326,1163.6068 Q550.0326,1164.8763 549.5605,1165.4134 Q549.0885,1165.9505 548.2747,1165.9505 Q547.4935,1165.9505 547.0052,1165.4134 Q546.5169,1164.8763 546.5169,1163.6068 L546.5169,1161.7513 L538.2487,1161.7513 L538.2487,1166.862 L541.3411,1166.862 Q541.3411,1165.4948 541.6016,1165.1042 Q542.1549,1164.2578 543.1315,1164.2578 Q543.9128,1164.2578 544.401,1164.7949 Q544.8893,1165.332 544.8893,1166.6016 L544.8893,1170.7031 Q544.8893,1171.8424 544.6289,1172.2331 Q544.0755,1173.0469 543.1315,1173.0469 Q542.1549,1173.0469 541.6016,1172.2005 Q541.3411,1171.8099 541.3411,1170.4102 L538.2487,1170.4102 Z "/><text fill="#000000" font-family="sans-serif" font-size="25" lengthAdjust="spacingAndGlyphs" textLength="131.25" x="569.7917" y="1178.9795">PoRevision</text><line style="stroke: #A80036; stroke-width: 3.125;" x1="511.4583" x2="705.2083" y1="1202.0833" y2="1202.0833"/><text fill="#000000" font-family="sans-serif" font-size="22.9167" lengthAdjust="spacingAndGlyphs" textLength="81.25" x="521.875" y="1234.2061">REV2_4</text><text fill="#000000" font-family="sans-serif" font-size="22.9167" lengthAdjust="spacingAndGlyphs" textLength="81.25" x="521.875" y="1263.031">REV3_1</text><text fill="#000000" font-family="sans-serif" font-size="22.9167" lengthAdjust="spacingAndGlyphs" textLength="81.25" x="521.875" y="1291.8559">REV3_2</text><line style="stroke: #A80036; stroke-width: 3.125;" x1="511.4583" x2="705.2083" y1="1305.2246" y2="1305.2246"/><!--class CalypsoPoCommands--><rect fill="#FEFECE" filter="url(#fwegdpj)" height="359.4238" style="stroke: #A80036; stroke-width: 3.125;" width="329.1667" x="1952.0833" y="258.3333"/><ellipse cx="1983.3333" cy="291.6667" fill="#EB937F" rx="22.9167" ry="22.9167" style="stroke: #A80036; stroke-width: 2.0833333333333335;"/><path d="M1980.957,293.3268 L1980.957,298.5352 L1989.974,298.5352 L1989.974,296.6146 Q1989.974,295.3451 1990.4785,294.7917 Q1990.9831,294.2383 1991.7643,294.2383 Q1992.5456,294.2383 1993.0339,294.7917 Q1993.5221,295.3451 1993.5221,296.6146 L1993.5221,302.0833 L1976.8555,302.0833 Q1975.5534,302.0833 1975.0163,301.5951 Q1974.4792,301.1068 1974.4792,300.293 Q1974.4792,299.5117 1975.0326,299.0234 Q1975.5859,298.5352 1976.8555,298.5352 L1977.4089,298.5352 L1977.4089,284.668 L1976.8555,284.668 Q1975.5534,284.668 1975.0163,284.1797 Q1974.4792,283.6914 1974.4792,282.8776 Q1974.4792,282.0964 1975.0163,281.6081 Q1975.5534,281.1198 1976.8555,281.1198 L1992.7409,281.1198 L1992.7409,286.5234 Q1992.7409,287.793 1992.2689,288.3301 Q1991.7969,288.8672 1990.9831,288.8672 Q1990.2018,288.8672 1989.7135,288.3301 Q1989.2253,287.793 1989.2253,286.5234 L1989.2253,284.668 L1980.957,284.668 L1980.957,289.7786 L1984.0495,289.7786 Q1984.0495,288.4115 1984.3099,288.0208 Q1984.8633,287.1745 1985.8398,287.1745 Q1986.6211,287.1745 1987.1094,287.7116 Q1987.5977,288.2487 1987.5977,289.5182 L1987.5977,293.6198 Q1987.5977,294.7591 1987.3372,295.1497 Q1986.7839,295.9635 1985.8398,295.9635 Q1984.8633,295.9635 1984.3099,295.1172 Q1984.0495,294.7266 1984.0495,293.3268 L1980.957,293.3268 Z "/><text fill="#000000" font-family="sans-serif" font-size="25" lengthAdjust="spacingAndGlyphs" textLength="262.5" x="2012.5" y="301.8962">CalypsoPoCommands</text><line style="stroke: #A80036; stroke-width: 3.125;" x1="1954.1667" x2="2279.1667" y1="325" y2="325"/><text fill="#000000" font-family="sans-serif" font-size="22.9167" lengthAdjust="spacingAndGlyphs" textLength="200" x="1964.5833" y="357.1228">PO_GET_DATA_FCI</text><text fill="#000000" font-family="sans-serif" font-size="22.9167" lengthAdjust="spacingAndGlyphs" textLength="239.5833" x="1964.5833" y="385.9477">PO_OPEN_SESSION_24</text><text fill="#000000" font-family="sans-serif" font-size="22.9167" lengthAdjust="spacingAndGlyphs" textLength="239.5833" x="1964.5833" y="414.7725">PO_OPEN_SESSION_31</text><text fill="#000000" font-family="sans-serif" font-size="22.9167" lengthAdjust="spacingAndGlyphs" textLength="239.5833" x="1964.5833" y="443.5974">PO_OPEN_SESSION_32</text><text fill="#000000" font-family="sans-serif" font-size="22.9167" lengthAdjust="spacingAndGlyphs" textLength="216.6667" x="1964.5833" y="472.4223">PO_CLOSE_SESSION</text><text fill="#000000" font-family="sans-serif" font-size="22.9167" lengthAdjust="spacingAndGlyphs" textLength="214.5833" x="1964.5833" y="501.2472">PO_READ_RECORDS</text><text fill="#000000" font-family="sans-serif" font-size="22.9167" lengthAdjust="spacingAndGlyphs" textLength="225" x="1964.5833" y="530.072">PO_UPDATE_RECORD</text><text fill="#000000" font-family="sans-serif" font-size="22.9167" lengthAdjust="spacingAndGlyphs" textLength="225" x="1964.5833" y="558.8969">PO_APPEND_RECORD</text><text fill="#000000" font-family="sans-serif" font-size="22.9167" lengthAdjust="spacingAndGlyphs" textLength="222.9167" x="1964.5833" y="587.7218">PO_GET_CHALLENGE</text><line style="stroke: #A80036; stroke-width: 3.125;" x1="1954.1667" x2="2279.1667" y1="601.0905" y2="601.0905"/><!--class OpenSessionCmdBuild--><rect fill="#FEFECE" filter="url(#fwegdpj)" height="100" style="stroke: #A80036; stroke-width: 3.125;" width="339.5833" x="1313.5417" y="868.75"/><ellipse cx="1344.7917" cy="902.0833" fill="#ADD1B2" rx="22.9167" ry="22.9167" style="stroke: #A80036; stroke-width: 2.0833333333333335;"/><path d="M1350.5534,893.4896 Q1350.8789,893.0339 1351.2695,892.806 Q1351.6602,892.5781 1352.1159,892.5781 Q1352.8971,892.5781 1353.3854,893.1152 Q1353.8737,893.6523 1353.8737,894.9219 L1353.8737,897.9492 Q1353.8737,899.2188 1353.3854,899.7721 Q1352.8971,900.3255 1352.1159,900.3255 Q1351.3997,900.3255 1350.9766,899.9023 Q1350.5534,899.5117 1350.3255,898.4375 Q1350.2279,897.6888 1349.8372,897.2982 Q1349.1536,896.5169 1347.8841,896.0612 Q1346.6146,895.6055 1345.3125,895.6055 Q1343.7174,895.6055 1342.3991,896.2891 Q1341.0807,896.9727 1340.0553,898.5352 Q1339.0299,900.0977 1339.0299,902.2461 L1339.0299,904.5247 Q1339.0299,907.0964 1340.8854,908.8053 Q1342.7409,910.5143 1346.0612,910.5143 Q1348.0143,910.5143 1349.3815,909.9935 Q1350.1953,909.668 1351.0742,908.7565 Q1351.6276,908.2031 1351.9368,908.0404 Q1352.2461,907.8776 1352.6693,907.8776 Q1353.3529,907.8776 1353.89,908.4147 Q1354.4271,908.9518 1354.4271,909.668 Q1354.4271,910.3841 1353.7109,911.2305 Q1352.6693,912.4349 1351.0091,913.1185 Q1348.763,914.0625 1346.0612,914.0625 Q1342.9036,914.0625 1340.3971,912.7604 Q1338.3464,911.7188 1336.9141,909.4889 Q1335.4818,907.2591 1335.4818,904.5898 L1335.4818,902.181 Q1335.4818,899.4141 1336.7676,897.0215 Q1338.0534,894.6289 1340.332,893.3431 Q1342.6107,892.0573 1345.1823,892.0573 Q1346.7122,892.0573 1348.0632,892.3991 Q1349.4141,892.7409 1350.5534,893.4896 Z "/><text fill="#000000" font-family="sans-serif" font-size="25" lengthAdjust="spacingAndGlyphs" textLength="272.9167" x="1373.9583" y="912.3128">OpenSessionCmdBuild</text><line style="stroke: #A80036; stroke-width: 3.125;" x1="1315.625" x2="1651.0417" y1="935.4167" y2="935.4167"/><line style="stroke: #A80036; stroke-width: 3.125;" x1="1315.625" x2="1651.0417" y1="952.0833" y2="952.0833"/><!--class ReadRecordCmdBuild--><rect fill="#FEFECE" filter="url(#fwegdpj)" height="100" style="stroke: #A80036; stroke-width: 3.125;" width="327.0833" x="492.7083" y="868.75"/><ellipse cx="523.9583" cy="902.0833" fill="#ADD1B2" rx="22.9167" ry="22.9167" style="stroke: #A80036; stroke-width: 2.0833333333333335;"/><path d="M529.7201,893.4896 Q530.0456,893.0339 530.4362,892.806 Q530.8268,892.5781 531.2826,892.5781 Q532.0638,892.5781 532.5521,893.1152 Q533.0404,893.6523 533.0404,894.9219 L533.0404,897.9492 Q533.0404,899.2188 532.5521,899.7721 Q532.0638,900.3255 531.2826,900.3255 Q530.5664,900.3255 530.1432,899.9023 Q529.7201,899.5117 529.4922,898.4375 Q529.3945,897.6888 529.0039,897.2982 Q528.3203,896.5169 527.0508,896.0612 Q525.7813,895.6055 524.4792,895.6055 Q522.8841,895.6055 521.5658,896.2891 Q520.2474,896.9727 519.222,898.5352 Q518.1966,900.0977 518.1966,902.2461 L518.1966,904.5247 Q518.1966,907.0964 520.0521,908.8053 Q521.9076,910.5143 525.2279,910.5143 Q527.181,910.5143 528.5482,909.9935 Q529.362,909.668 530.2409,908.7565 Q530.7943,908.2031 531.1035,908.0404 Q531.4128,907.8776 531.8359,907.8776 Q532.5195,907.8776 533.0566,908.4147 Q533.5938,908.9518 533.5938,909.668 Q533.5938,910.3841 532.8776,911.2305 Q531.8359,912.4349 530.1758,913.1185 Q527.9297,914.0625 525.2279,914.0625 Q522.0703,914.0625 519.5638,912.7604 Q517.513,911.7188 516.0807,909.4889 Q514.6484,907.2591 514.6484,904.5898 L514.6484,902.181 Q514.6484,899.4141 515.9342,897.0215 Q517.2201,894.6289 519.4987,893.3431 Q521.7773,892.0573 524.349,892.0573 Q525.8789,892.0573 527.2298,892.3991 Q528.5807,892.7409 529.7201,893.4896 Z "/><text fill="#000000" font-family="sans-serif" font-size="25" lengthAdjust="spacingAndGlyphs" textLength="260.4167" x="553.125" y="912.3128">ReadRecordCmdBuild</text><line style="stroke: #A80036; stroke-width: 3.125;" x1="494.7917" x2="817.7083" y1="935.4167" y2="935.4167"/><line style="stroke: #A80036; stroke-width: 3.125;" x1="494.7917" x2="817.7083" y1="952.0833" y2="952.0833"/><!--class CloseSessionCmdBuild--><rect fill="#FEFECE" filter="url(#fwegdpj)" height="100" style="stroke: #A80036; stroke-width: 3.125;" width="345.8333" x="893.75" y="868.75"/><ellipse cx="925" cy="902.0833" fill="#ADD1B2" rx="22.9167" ry="22.9167" style="stroke: #A80036; stroke-width: 2.0833333333333335;"/><path d="M930.7617,893.4896 Q931.0872,893.0339 931.4779,892.806 Q931.8685,892.5781 932.3242,892.5781 Q933.1055,892.5781 933.5938,893.1152 Q934.082,893.6523 934.082,894.9219 L934.082,897.9492 Q934.082,899.2188 933.5938,899.7721 Q933.1055,900.3255 932.3242,900.3255 Q931.6081,900.3255 931.1849,899.9023 Q930.7617,899.5117 930.5339,898.4375 Q930.4362,897.6888 930.0456,897.2982 Q929.362,896.5169 928.0924,896.0612 Q926.8229,895.6055 925.5208,895.6055 Q923.9258,895.6055 922.6074,896.2891 Q921.2891,896.9727 920.2637,898.5352 Q919.2383,900.0977 919.2383,902.2461 L919.2383,904.5247 Q919.2383,907.0964 921.0938,908.8053 Q922.9492,910.5143 926.2695,910.5143 Q928.2227,910.5143 929.5898,909.9935 Q930.4036,909.668 931.2826,908.7565 Q931.8359,908.2031 932.1452,908.0404 Q932.4544,907.8776 932.8776,907.8776 Q933.5612,907.8776 934.0983,908.4147 Q934.6354,908.9518 934.6354,909.668 Q934.6354,910.3841 933.9193,911.2305 Q932.8776,912.4349 931.2174,913.1185 Q928.9714,914.0625 926.2695,914.0625 Q923.112,914.0625 920.6055,912.7604 Q918.5547,911.7188 917.1224,909.4889 Q915.6901,907.2591 915.6901,904.5898 L915.6901,902.181 Q915.6901,899.4141 916.9759,897.0215 Q918.2617,894.6289 920.5404,893.3431 Q922.819,892.0573 925.3906,892.0573 Q926.9206,892.0573 928.2715,892.3991 Q929.6224,892.7409 930.7617,893.4896 Z "/><text fill="#000000" font-family="sans-serif" font-size="25" lengthAdjust="spacingAndGlyphs" textLength="279.1667" x="954.1667" y="912.3128">CloseSessionCmdBuild</text><line style="stroke: #A80036; stroke-width: 3.125;" x1="895.8333" x2="1237.5" y1="935.4167" y2="935.4167"/><line style="stroke: #A80036; stroke-width: 3.125;" x1="895.8333" x2="1237.5" y1="952.0833" y2="952.0833"/><!--class PoFciRespPars--><rect fill="#FEFECE" filter="url(#fwegdpj)" height="100" style="stroke: #A80036; stroke-width: 3.125;" width="247.9167" x="2594.7917" y="868.75"/><ellipse cx="2626.0417" cy="902.0833" fill="#ADD1B2" rx="22.9167" ry="22.9167" style="stroke: #A80036; stroke-width: 2.0833333333333335;"/><path d="M2631.8034,893.4896 Q2632.1289,893.0339 2632.5195,892.806 Q2632.9102,892.5781 2633.3659,892.5781 Q2634.1471,892.5781 2634.6354,893.1152 Q2635.1237,893.6523 2635.1237,894.9219 L2635.1237,897.9492 Q2635.1237,899.2188 2634.6354,899.7721 Q2634.1471,900.3255 2633.3659,900.3255 Q2632.6497,900.3255 2632.2266,899.9023 Q2631.8034,899.5117 2631.5755,898.4375 Q2631.4779,897.6888 2631.0872,897.2982 Q2630.4036,896.5169 2629.1341,896.0612 Q2627.8646,895.6055 2626.5625,895.6055 Q2624.9674,895.6055 2623.6491,896.2891 Q2622.3307,896.9727 2621.3053,898.5352 Q2620.2799,900.0977 2620.2799,902.2461 L2620.2799,904.5247 Q2620.2799,907.0964 2622.1354,908.8053 Q2623.9909,910.5143 2627.3112,910.5143 Q2629.2643,910.5143 2630.6315,909.9935 Q2631.4453,909.668 2632.3242,908.7565 Q2632.8776,908.2031 2633.1868,908.0404 Q2633.4961,907.8776 2633.9193,907.8776 Q2634.6029,907.8776 2635.14,908.4147 Q2635.6771,908.9518 2635.6771,909.668 Q2635.6771,910.3841 2634.9609,911.2305 Q2633.9193,912.4349 2632.2591,913.1185 Q2630.013,914.0625 2627.3112,914.0625 Q2624.1536,914.0625 2621.6471,912.7604 Q2619.5964,911.7188 2618.1641,909.4889 Q2616.7318,907.2591 2616.7318,904.5898 L2616.7318,902.181 Q2616.7318,899.4141 2618.0176,897.0215 Q2619.3034,894.6289 2621.582,893.3431 Q2623.8607,892.0573 2626.4323,892.0573 Q2627.9622,892.0573 2629.3132,892.3991 Q2630.6641,892.7409 2631.8034,893.4896 Z "/><text fill="#000000" font-family="sans-serif" font-size="25" lengthAdjust="spacingAndGlyphs" textLength="181.25" x="2655.2083" y="912.3128">PoFciRespPars</text><line style="stroke: #A80036; stroke-width: 3.125;" x1="2596.875" x2="2840.625" y1="935.4167" y2="935.4167"/><line style="stroke: #A80036; stroke-width: 3.125;" x1="2596.875" x2="2840.625" y1="952.0833" y2="952.0833"/><!--class OpenSessionRespPars--><rect fill="#FEFECE" filter="url(#fwegdpj)" height="100" style="stroke: #A80036; stroke-width: 3.125;" width="341.6667" x="2916.6667" y="868.75"/><ellipse cx="2947.9167" cy="902.0833" fill="#ADD1B2" rx="22.9167" ry="22.9167" style="stroke: #A80036; stroke-width: 2.0833333333333335;"/><path d="M2953.6784,893.4896 Q2954.0039,893.0339 2954.3945,892.806 Q2954.7852,892.5781 2955.2409,892.5781 Q2956.0221,892.5781 2956.5104,893.1152 Q2956.9987,893.6523 2956.9987,894.9219 L2956.9987,897.9492 Q2956.9987,899.2188 2956.5104,899.7721 Q2956.0221,900.3255 2955.2409,900.3255 Q2954.5247,900.3255 2954.1016,899.9023 Q2953.6784,899.5117 2953.4505,898.4375 Q2953.3529,897.6888 2952.9622,897.2982 Q2952.2786,896.5169 2951.0091,896.0612 Q2949.7396,895.6055 2948.4375,895.6055 Q2946.8424,895.6055 2945.5241,896.2891 Q2944.2057,896.9727 2943.1803,898.5352 Q2942.1549,900.0977 2942.1549,902.2461 L2942.1549,904.5247 Q2942.1549,907.0964 2944.0104,908.8053 Q2945.8659,910.5143 2949.1862,910.5143 Q2951.1393,910.5143 2952.5065,909.9935 Q2953.3203,909.668 2954.1992,908.7565 Q2954.7526,908.2031 2955.0618,908.0404 Q2955.3711,907.8776 2955.7943,907.8776 Q2956.4779,907.8776 2957.015,908.4147 Q2957.5521,908.9518 2957.5521,909.668 Q2957.5521,910.3841 2956.8359,911.2305 Q2955.7943,912.4349 2954.1341,913.1185 Q2951.888,914.0625 2949.1862,914.0625 Q2946.0286,914.0625 2943.5221,912.7604 Q2941.4714,911.7188 2940.0391,909.4889 Q2938.6068,907.2591 2938.6068,904.5898 L2938.6068,902.181 Q2938.6068,899.4141 2939.8926,897.0215 Q2941.1784,894.6289 2943.457,893.3431 Q2945.7357,892.0573 2948.3073,892.0573 Q2949.8372,892.0573 2951.1882,892.3991 Q2952.5391,892.7409 2953.6784,893.4896 Z "/><text fill="#000000" font-family="sans-serif" font-size="25" lengthAdjust="spacingAndGlyphs" textLength="275" x="2977.0833" y="912.3128">OpenSessionRespPars</text><line style="stroke: #A80036; stroke-width: 3.125;" x1="2918.75" x2="3256.25" y1="935.4167" y2="935.4167"/><line style="stroke: #A80036; stroke-width: 3.125;" x1="2918.75" x2="3256.25" y1="952.0833" y2="952.0833"/><!--class ReadRecordRespPars--><rect fill="#FEFECE" filter="url(#fwegdpj)" height="100" style="stroke: #A80036; stroke-width: 3.125;" width="329.1667" x="1770.8333" y="868.75"/><ellipse cx="1802.0833" cy="902.0833" fill="#ADD1B2" rx="22.9167" ry="22.9167" style="stroke: #A80036; stroke-width: 2.0833333333333335;"/><path d="M1807.8451,893.4896 Q1808.1706,893.0339 1808.5612,892.806 Q1808.9518,892.5781 1809.4076,892.5781 Q1810.1888,892.5781 1810.6771,893.1152 Q1811.1654,893.6523 1811.1654,894.9219 L1811.1654,897.9492 Q1811.1654,899.2188 1810.6771,899.7721 Q1810.1888,900.3255 1809.4076,900.3255 Q1808.6914,900.3255 1808.2682,899.9023 Q1807.8451,899.5117 1807.6172,898.4375 Q1807.5195,897.6888 1807.1289,897.2982 Q1806.4453,896.5169 1805.1758,896.0612 Q1803.9063,895.6055 1802.6042,895.6055 Q1801.0091,895.6055 1799.6908,896.2891 Q1798.3724,896.9727 1797.347,898.5352 Q1796.3216,900.0977 1796.3216,902.2461 L1796.3216,904.5247 Q1796.3216,907.0964 1798.1771,908.8053 Q1800.0326,910.5143 1803.3529,910.5143 Q1805.306,910.5143 1806.6732,909.9935 Q1807.487,909.668 1808.3659,908.7565 Q1808.9193,908.2031 1809.2285,908.0404 Q1809.5378,907.8776 1809.9609,907.8776 Q1810.6445,907.8776 1811.1816,908.4147 Q1811.7188,908.9518 1811.7188,909.668 Q1811.7188,910.3841 1811.0026,911.2305 Q1809.9609,912.4349 1808.3008,913.1185 Q1806.0547,914.0625 1803.3529,914.0625 Q1800.1953,914.0625 1797.6888,912.7604 Q1795.638,911.7188 1794.2057,909.4889 Q1792.7734,907.2591 1792.7734,904.5898 L1792.7734,902.181 Q1792.7734,899.4141 1794.0592,897.0215 Q1795.3451,894.6289 1797.6237,893.3431 Q1799.9023,892.0573 1802.474,892.0573 Q1804.0039,892.0573 1805.3548,892.3991 Q1806.7057,892.7409 1807.8451,893.4896 Z "/><text fill="#000000" font-family="sans-serif" font-size="25" lengthAdjust="spacingAndGlyphs" textLength="262.5" x="1831.25" y="912.3128">ReadRecordRespPars</text><line style="stroke: #A80036; stroke-width: 3.125;" x1="1772.9167" x2="2097.9167" y1="935.4167" y2="935.4167"/><line style="stroke: #A80036; stroke-width: 3.125;" x1="1772.9167" x2="2097.9167" y1="952.0833" y2="952.0833"/><!--class CloseSessionRespPars--><rect fill="#FEFECE" filter="url(#fwegdpj)" height="100" style="stroke: #A80036; stroke-width: 3.125;" width="347.9167" x="2173.9583" y="868.75"/><ellipse cx="2205.2083" cy="902.0833" fill="#ADD1B2" rx="22.9167" ry="22.9167" style="stroke: #A80036; stroke-width: 2.0833333333333335;"/><path d="M2210.9701,893.4896 Q2211.2956,893.0339 2211.6862,892.806 Q2212.0768,892.5781 2212.5326,892.5781 Q2213.3138,892.5781 2213.8021,893.1152 Q2214.2904,893.6523 2214.2904,894.9219 L2214.2904,897.9492 Q2214.2904,899.2188 2213.8021,899.7721 Q2213.3138,900.3255 2212.5326,900.3255 Q2211.8164,900.3255 2211.3932,899.9023 Q2210.9701,899.5117 2210.7422,898.4375 Q2210.6445,897.6888 2210.2539,897.2982 Q2209.5703,896.5169 2208.3008,896.0612 Q2207.0313,895.6055 2205.7292,895.6055 Q2204.1341,895.6055 2202.8158,896.2891 Q2201.4974,896.9727 2200.472,898.5352 Q2199.4466,900.0977 2199.4466,902.2461 L2199.4466,904.5247 Q2199.4466,907.0964 2201.3021,908.8053 Q2203.1576,910.5143 2206.4779,910.5143 Q2208.431,910.5143 2209.7982,909.9935 Q2210.612,909.668 2211.4909,908.7565 Q2212.0443,908.2031 2212.3535,908.0404 Q2212.6628,907.8776 2213.0859,907.8776 Q2213.7695,907.8776 2214.3066,908.4147 Q2214.8438,908.9518 2214.8438,909.668 Q2214.8438,910.3841 2214.1276,911.2305 Q2213.0859,912.4349 2211.4258,913.1185 Q2209.1797,914.0625 2206.4779,914.0625 Q2203.3203,914.0625 2200.8138,912.7604 Q2198.763,911.7188 2197.3307,909.4889 Q2195.8984,907.2591 2195.8984,904.5898 L2195.8984,902.181 Q2195.8984,899.4141 2197.1842,897.0215 Q2198.4701,894.6289 2200.7487,893.3431 Q2203.0273,892.0573 2205.599,892.0573 Q2207.1289,892.0573 2208.4798,892.3991 Q2209.8307,892.7409 2210.9701,893.4896 Z "/><text fill="#000000" font-family="sans-serif" font-size="25" lengthAdjust="spacingAndGlyphs" textLength="281.25" x="2234.375" y="912.3128">CloseSessionRespPars</text><line style="stroke: #A80036; stroke-width: 3.125;" x1="2176.0417" x2="2519.7917" y1="935.4167" y2="935.4167"/><line style="stroke: #A80036; stroke-width: 3.125;" x1="2176.0417" x2="2519.7917" y1="952.0833" y2="952.0833"/><path d="M1725.2333,1613.0708 C1802.8688,1568.9646 1892.7458,1526.5833 1981.25,1504.1667 C2324.125,1417.3208 2431.1458,1430.4813 2777.0833,1504.1667 C2905.4167,1531.5042 3039.7708,1589.2896 3146.9375,1643.3938 " fill="none" style="stroke: #A80036; stroke-width: 2.0833333333333335;"/><polygon fill="#A80036" points="3171.4583,1655.9542,3164.1205,1642.845,3149.1975,1644.5764,3156.5353,1657.6856,3171.4583,1655.9542" style="stroke: #A80036; stroke-width: 2.0833333333333335;"/><polygon fill="#A80036" points="1701.5458,1626.7938,1721.9472,1624.6047,1710.559,1621.5717,1713.592,1610.1836,1701.5458,1626.7938" style="stroke: #A80036; stroke-width: 2.0833333333333335;"/><line style="stroke: #A80036; stroke-width: 2.0833333333333335;" x1="1710.559" x2="1724.9813" y1="1621.5717" y2="1613.2167"/><text fill="#000000" font-family="sans-serif" font-size="27.0833" lengthAdjust="spacingAndGlyphs" textLength="125" x="2481.25" y="1469.7815">references</text><text fill="#000000" font-family="sans-serif" font-size="27.0833" lengthAdjust="spacingAndGlyphs" textLength="10.4167" x="1712.3757" y="1604.8338">*</text><text fill="#000000" font-family="sans-serif" font-size="27.0833" lengthAdjust="spacingAndGlyphs" textLength="14.5833" x="3129.5703" y="1633.2636">1</text><path d="M2915.3958,1763.5417 C2866.2708,1763.5417 2816.4792,1763.5417 2768.0833,1763.5417 " fill="none" style="stroke: #A80036; stroke-width: 2.0833333333333335;"/><polygon fill="#A80036" points="2741,1763.5417,2759.75,1771.875,2751.4167,1763.5417,2759.75,1755.2083,2741,1763.5417" style="stroke: #A80036; stroke-width: 2.0833333333333335;"/><line style="stroke: #A80036; stroke-width: 2.0833333333333335;" x1="2751.4167" x2="2768.0833" y1="1763.5417" y2="1763.5416"/><polygon fill="#A80036" points="2942.625,1763.5417,2930.125,1755.2083,2917.625,1763.5417,2930.125,1771.875,2942.625,1763.5417" style="stroke: #A80036; stroke-width: 2.0833333333333335;"/><text fill="#000000" font-family="sans-serif" font-size="27.0833" lengthAdjust="spacingAndGlyphs" textLength="125" x="2779.1667" y="1749.9898">references</text><text fill="#000000" font-family="sans-serif" font-size="27.0833" lengthAdjust="spacingAndGlyphs" textLength="14.5833" x="2911.5182" y="1757.6724">1</text><text fill="#000000" font-family="sans-serif" font-size="27.0833" lengthAdjust="spacingAndGlyphs" textLength="10.4167" x="2757.6316" y="1757.5838">*</text><path d="M707.8417,1229.1667 C756.15,1229.1667 804.4583,1229.1667 852.7688,1229.1667 " fill="none" style="stroke: #A80036; stroke-width: 2.0833333333333335;"/><text fill="#000000" font-family="sans-serif" font-size="27.0833" lengthAdjust="spacingAndGlyphs" textLength="31.25" x="724.0323" y="1221.728">+1</text><text fill="#000000" font-family="sans-serif" font-size="27.0833" lengthAdjust="spacingAndGlyphs" textLength="41.6667" x="794.0564" y="1223.3746">1..*</text><path d="M1455.2729,969.3604 C1432.9688,1007.9333 1400.8563,1063.4688 1372.1479,1113.1167 " fill="none" style="stroke: #A80036; stroke-width: 2.0833333333333335;"/><polygon fill="none" points="1384.5604,1120.7875,1351.0771,1149.5583,1359.3104,1106.1875,1384.5604,1120.7875" style="stroke: #A80036; stroke-width: 2.0833333333333335;"/><text fill="#000000" font-family="sans-serif" font-size="27.0833" lengthAdjust="spacingAndGlyphs" textLength="95.8333" x="1418.75" y="1065.6148">extends</text><path d="M753.7021,969.0688 C786.2396,985.0354 822.7417,1002.7938 856.25,1018.75 C935.1979,1056.3458 1022.3354,1096.9021 1098.7354,1132.1542 " fill="none" style="stroke: #A80036; stroke-width: 2.0833333333333335;"/><polygon fill="none" points="1105.2854,1119.1146,1137.0292,1149.7938,1093.0833,1145.6063,1105.2854,1119.1146" style="stroke: #A80036; stroke-width: 2.0833333333333335;"/><text fill="#000000" font-family="sans-serif" font-size="27.0833" lengthAdjust="spacingAndGlyphs" textLength="95.8333" x="970.8333" y="1065.6148">extends</text><path d="M1104.6292,969.3604 C1135.3979,1008.6896 1179.9604,1065.6542 1219.3729,1116.0313 " fill="none" style="stroke: #A80036; stroke-width: 2.0833333333333335;"/><polygon fill="none" points="1231.4125,1107.7542,1245.6,1149.5583,1208.4417,1125.725,1231.4125,1107.7542" style="stroke: #A80036; stroke-width: 2.0833333333333335;"/><text fill="#000000" font-family="sans-serif" font-size="27.0833" lengthAdjust="spacingAndGlyphs" textLength="95.8333" x="1183.3333" y="1065.6148">extends</text><path d="M1929.5313,628.9833 C1854.1313,682.8292 1818.6938,683.7021 1737.5,735.4167 C1679.8854,772.1125 1617.3917,816.6104 1568.7917,852.3313 " fill="none" style="stroke: #A80036; stroke-width: 2.0833333333333335;"/><polygon fill="#A80036" points="1546.8208,868.5771,1566.8516,864.1301,1555.1966,862.384,1556.9427,850.729,1546.8208,868.5771" style="stroke: #A80036; stroke-width: 2.0833333333333335;"/><line style="stroke: #A80036; stroke-width: 2.0833333333333335;" x1="1555.1966" x2="1568.5969" y1="862.384" y2="852.475"/><polygon fill="#A80036" points="1951.9292,612.3063,1936.9264,613.0878,1931.8775,627.2372,1946.8803,626.4556,1951.9292,612.3063" style="stroke: #A80036; stroke-width: 2.0833333333333335;"/><text fill="#000000" font-family="sans-serif" font-size="27.0833" lengthAdjust="spacingAndGlyphs" textLength="125" x="1841.6667" y="711.4482">references</text><text fill="#000000" font-family="sans-serif" font-size="27.0833" lengthAdjust="spacingAndGlyphs" textLength="14.5833" x="1920.9493" y="622.1434">1</text><text fill="#000000" font-family="sans-serif" font-size="27.0833" lengthAdjust="spacingAndGlyphs" textLength="14.5833" x="1546.6377" y="846.3248">1</text><path d="M1926.7854,624.9792 C1748.5125,688.4708 1341.8958,661.3146 1181.25,681.25 C1035.9271,699.2833 988.0646,671.6292 856.25,735.4167 C801.1875,762.0625 750.2771,808.6625 713.6,847.9375 " fill="none" style="stroke: #A80036; stroke-width: 2.0833333333333335;"/><polygon fill="#A80036" points="695.2646,868.2458,714.015,859.9135,702.2452,860.5142,701.6445,848.7444,695.2646,868.2458" style="stroke: #A80036; stroke-width: 2.0833333333333335;"/><line style="stroke: #A80036; stroke-width: 2.0833333333333335;" x1="702.2452" x2="713.4146" y1="860.5142" y2="848.1438"/><polygon fill="#A80036" points="1951.875,614.7021,1937.1489,611.7297,1928.7412,624.1798,1943.4673,627.1522,1951.875,614.7021" style="stroke: #A80036; stroke-width: 2.0833333333333335;"/><text fill="#000000" font-family="sans-serif" font-size="27.0833" lengthAdjust="spacingAndGlyphs" textLength="125" x="1183.3333" y="711.4482">references</text><text fill="#000000" font-family="sans-serif" font-size="27.0833" lengthAdjust="spacingAndGlyphs" textLength="14.5833" x="1920.89" y="661.278">1</text><text fill="#000000" font-family="sans-serif" font-size="27.0833" lengthAdjust="spacingAndGlyphs" textLength="14.5833" x="688.8102" y="845.9086">1</text><path d="M1926.3646,625.8125 C1768.0917,687.3729 1405.5854,674.5813 1277.0833,735.4167 C1219.9354,762.4708 1166.1208,809.3708 1127.2208,848.6833 " fill="none" style="stroke: #A80036; stroke-width: 2.0833333333333335;"/><polygon fill="#A80036" points="1108.2979,868.4063,1127.2918,860.6448,1115.5092,860.8893,1115.2647,849.1068,1108.2979,868.4063" style="stroke: #A80036; stroke-width: 2.0833333333333335;"/><line style="stroke: #A80036; stroke-width: 2.0833333333333335;" x1="1115.5092" x2="1127.049" y1="860.8893" y2="848.8625"/><polygon fill="#A80036" points="1951.7,614.3521,1936.8767,611.9099,1928.9211,624.6537,1943.7444,627.0958,1951.7,614.3521" style="stroke: #A80036; stroke-width: 2.0833333333333335;"/><text fill="#000000" font-family="sans-serif" font-size="27.0833" lengthAdjust="spacingAndGlyphs" textLength="125" x="1583.3333" y="711.4482">references</text><text fill="#000000" font-family="sans-serif" font-size="27.0833" lengthAdjust="spacingAndGlyphs" textLength="14.5833" x="1935.4398" y="662.4051">1</text><text fill="#000000" font-family="sans-serif" font-size="27.0833" lengthAdjust="spacingAndGlyphs" textLength="14.5833" x="1102.5141" y="846.1102">1</text><path d="M2304.9167,551.1313 C2386.3333,602.6687 2480.5625,667.5583 2558.3333,735.4167 C2596.875,769.0479 2635.0417,811.6792 2664.4583,847.1458 " fill="none" style="stroke: #A80036; stroke-width: 2.0833333333333335;"/><polygon fill="#A80036" points="2681.5833,868.1583,2676.2092,848.3562,2675.0073,860.0798,2663.2836,858.8779,2681.5833,868.1583" style="stroke: #A80036; stroke-width: 2.0833333333333335;"/><line style="stroke: #A80036; stroke-width: 2.0833333333333335;" x1="2675.0073" x2="2664.4792" y1="860.0798" y2="847.1615"/><polygon fill="#A80036" points="2281.7708,536.6146,2287.939,550.3131,2302.9561,549.888,2296.7879,536.1895,2281.7708,536.6146" style="stroke: #A80036; stroke-width: 2.0833333333333335;"/><text fill="#000000" font-family="sans-serif" font-size="27.0833" lengthAdjust="spacingAndGlyphs" textLength="125" x="2537.5" y="711.4482">references</text><text fill="#000000" font-family="sans-serif" font-size="27.0833" lengthAdjust="spacingAndGlyphs" textLength="14.5833" x="2297.6636" y="538.9802">1</text><text fill="#000000" font-family="sans-serif" font-size="27.0833" lengthAdjust="spacingAndGlyphs" textLength="14.5833" x="2655.6076" y="845.7987">1</text><path d="M2307.875,494.1958 C2467.4167,543.5604 2697.25,625.7583 2879.1667,735.4167 C2931.375,766.8854 2983.1042,811.8063 3021.9792,849.0542 " fill="none" style="stroke: #A80036; stroke-width: 2.0833333333333335;"/><polygon fill="#A80036" points="3041.6042,868.2708,3034.026,849.2031,3034.157,860.9875,3022.3727,861.1185,3041.6042,868.2708" style="stroke: #A80036; stroke-width: 2.0833333333333335;"/><line style="stroke: #A80036; stroke-width: 2.0833333333333335;" x1="3034.157" x2="3022.25" y1="860.9875" y2="849.324"/><polygon fill="#A80036" points="2281.8958,486.2563,2291.4142,497.8793,2305.804,493.5636,2296.2857,481.9405,2281.8958,486.2563" style="stroke: #A80036; stroke-width: 2.0833333333333335;"/><text fill="#000000" font-family="sans-serif" font-size="27.0833" lengthAdjust="spacingAndGlyphs" textLength="125" x="2841.6667" y="711.4482">references</text><text fill="#000000" font-family="sans-serif" font-size="27.0833" lengthAdjust="spacingAndGlyphs" textLength="14.5833" x="2297.8001" y="483.9795">1</text><text fill="#000000" font-family="sans-serif" font-size="27.0833" lengthAdjust="spacingAndGlyphs" textLength="14.5833" x="3013.3915" y="845.94">1</text><path d="M2039.0083,644.5875 C2012.2938,714.7542 1984.0417,788.9542 1963.8042,842.1104 " fill="none" style="stroke: #A80036; stroke-width: 2.0833333333333335;"/><polygon fill="#A80036" points="1954,867.8583,1968.4599,853.3009,1957.7067,858.1235,1952.8841,847.3702,1954,867.8583" style="stroke: #A80036; stroke-width: 2.0833333333333335;"/><line style="stroke: #A80036; stroke-width: 2.0833333333333335;" x1="1957.7067" x2="1963.6375" y1="858.1235" y2="842.5479"/><polygon fill="#A80036" points="2048.6604,619.2396,2036.4245,627.9561,2039.7644,642.6033,2052.0003,633.8868,2048.6604,619.2396" style="stroke: #A80036; stroke-width: 2.0833333333333335;"/><text fill="#000000" font-family="sans-serif" font-size="27.0833" lengthAdjust="spacingAndGlyphs" textLength="125" x="2022.9167" y="711.4482">references</text><text fill="#000000" font-family="sans-serif" font-size="27.0833" lengthAdjust="spacingAndGlyphs" textLength="14.5833" x="2028.3121" y="662.5312">1</text><text fill="#000000" font-family="sans-serif" font-size="27.0833" lengthAdjust="spacingAndGlyphs" textLength="14.5833" x="1942.169" y="846.2617">1</text><path d="M2215.4792,644.0563 C2249.7917,714.675 2286.125,789.4458 2312.0208,842.7833 " fill="none" style="stroke: #A80036; stroke-width: 2.0833333333333335;"/><polygon fill="#A80036" points="2324.2083,867.8583,2323.5065,847.3519,2319.6546,858.4897,2308.5167,854.6379,2324.2083,867.8583" style="stroke: #A80036; stroke-width: 2.0833333333333335;"/><line style="stroke: #A80036; stroke-width: 2.0833333333333335;" x1="2319.6546" x2="2312.375" y1="858.4897" y2="843.4979"/><polygon fill="#A80036" points="2203.4375,619.2396,2201.4086,634.1251,2214.3687,641.7231,2216.3976,626.8376,2203.4375,619.2396" style="stroke: #A80036; stroke-width: 2.0833333333333335;"/><text fill="#000000" font-family="sans-serif" font-size="27.0833" lengthAdjust="spacingAndGlyphs" textLength="125" x="2250" y="711.4482">references</text><text fill="#000000" font-family="sans-serif" font-size="27.0833" lengthAdjust="spacingAndGlyphs" textLength="14.5833" x="2194.9393" y="662.5312">1</text><text fill="#000000" font-family="sans-serif" font-size="27.0833" lengthAdjust="spacingAndGlyphs" textLength="14.5833" x="2302.0688" y="846.2617">1</text><path d="M230.1917,530.8104 C236.3708,589.5458 252.5958,664.9667 293.75,718.75 C347.3458,788.7917 433.1229,837.2167 507.7833,868.6292 " fill="none" style="stroke: #A80036; stroke-width: 2.0833333333333335; stroke-dasharray: 7.0,7.0;"/><polygon fill="none" points="215.6215,531.5146,227.1438,488.9,244.7104,529.3979,215.6215,531.5146" style="stroke: #A80036; stroke-width: 2.0833333333333335;"/><text fill="#000000" font-family="sans-serif" font-size="27.0833" lengthAdjust="spacingAndGlyphs" textLength="139.5833" x="295.8333" y="711.4482">implements</text><path d="M2281.7292,458.2875 C2573.8333,493.2083 3163.2292,581.3458 3291.6667,735.4167 C3499.2917,984.4667 3445.8542,1396.6458 3397.2708,1615.0833 " fill="none" style="stroke: #A80036; stroke-width: 2.0833333333333335;"/><polygon fill="none" points="3411.375,1618.8188,3387.7083,1656.0813,3382.9792,1612.1896,3411.375,1618.8188" style="stroke: #A80036; stroke-width: 2.0833333333333335;"/><text fill="#000000" font-family="sans-serif" font-size="27.0833" lengthAdjust="spacingAndGlyphs" textLength="139.5833" x="3431.25" y="1065.6148">implements</text><path d="M1334.725,1308.3458 C1361.6438,1381.2271 1402.9875,1493.1625 1437.8458,1587.5417 " fill="none" style="stroke: #A80036; stroke-width: 2.0833333333333335;"/><polygon fill="none" points="1451.5708,1582.6104,1452.3271,1626.7479,1424.2104,1592.7146,1451.5708,1582.6104" style="stroke: #A80036; stroke-width: 2.0833333333333335;"/><text fill="#000000" font-family="sans-serif" font-size="27.0833" lengthAdjust="spacingAndGlyphs" textLength="95.8333" x="1395.8333" y="1469.7815">extends</text><path d="M2718.625,968.75 C2716.625,1068.2938 2702.7917,1302.7 2620.8333,1477.0833 C2601.5208,1518.1625 2574.6875,1558.0542 2545.8958,1594.3313 " fill="none" style="stroke: #A80036; stroke-width: 2.0833333333333335;"/><polygon fill="none" points="2556.9167,1603.8771,2519.0417,1626.5625,2534.5,1585.2125,2556.9167,1603.8771" style="stroke: #A80036; stroke-width: 2.0833333333333335;"/><text fill="#000000" font-family="sans-serif" font-size="27.0833" lengthAdjust="spacingAndGlyphs" textLength="95.8333" x="2708.3333" y="1240.6148">extends</text><path d="M3070.1875,969.2354 C3034.6458,1063.8875 2946.3542,1276.9708 2822.9167,1422.9167 C2767.1042,1488.9 2696.3333,1549.9958 2627.7917,1601.6021 " fill="none" style="stroke: #A80036; stroke-width: 2.0833333333333335;"/><polygon fill="none" points="2635.5417,1614.0063,2593.3125,1626.9229,2618.2708,1590.5021,2635.5417,1614.0063" style="stroke: #A80036; stroke-width: 2.0833333333333335;"/><text fill="#000000" font-family="sans-serif" font-size="27.0833" lengthAdjust="spacingAndGlyphs" textLength="95.8333" x="2997.9167" y="1240.6148">extends</text><path d="M1960.8688,969.0479 C2023.0875,1086.9146 2185.3333,1394.2625 2288.5,1589.7063 " fill="none" style="stroke: #A80036; stroke-width: 2.0833333333333335;"/><polygon fill="none" points="2301.4375,1582.9604,2307.9792,1626.6167,2275.6458,1596.5771,2301.4375,1582.9604" style="stroke: #A80036; stroke-width: 2.0833333333333335;"/><text fill="#000000" font-family="sans-serif" font-size="27.0833" lengthAdjust="spacingAndGlyphs" textLength="95.8333" x="2197.9167" y="1240.6148">extends</text><path d="M2349.7083,969.0479 C2354.0625,1085.9333 2365.3333,1389.1583 2372.6042,1584.8021 " fill="none" style="stroke: #A80036; stroke-width: 2.0833333333333335;"/><polygon fill="none" points="2387.1875,1584.4354,2374.1458,1626.6167,2358.0417,1585.5208,2387.1875,1584.4354" style="stroke: #A80036; stroke-width: 2.0833333333333335;"/><text fill="#000000" font-family="sans-serif" font-size="27.0833" lengthAdjust="spacingAndGlyphs" textLength="95.8333" x="2368.75" y="1240.6148">extends</text></g></svg>