<?xml version="1.0" encoding="UTF-8" standalone="no"?><svg xmlns="http://www.w3.org/2000/svg" xmlns:xlink="http://www.w3.org/1999/xlink" contentScriptType="application/ecmascript" contentStyleType="text/css" height="1977.0833px" preserveAspectRatio="none" style="width:4129px;height:1977px;" version="1.1" viewBox="0 0 4129 1977" width="4129.1667px" zoomAndPan="magnify"><defs><filter height="300%" id="f3mhluj" width="300%" x="-1" y="-1"><feGaussianBlur result="blurOut" stdDeviation="4.166666666666667"/><feColorMatrix in="blurOut" result="blurOut2" type="matrix" values="0 0 0 0 0 0 0 0 0 0 0 0 0 0 0 0 0 0 .4 0"/><feOffset dx="8.333333333333334" dy="8.333333333333334" in="blurOut2" result="blurOut3"/><feBlend in="SourceGraphic" in2="blurOut3" mode="normal"/></filter></defs><g><!--cluster org.eclipse.keyple.commands--><polygon fill="#FFFFFF" filter="url(#f3mhluj)" points="1258.3333,1506.25,1704.1667,1506.25,1718.75,1555.4362,4114.5833,1555.4362,4114.5833,1962.5,1258.3333,1962.5,1258.3333,1506.25" style="stroke: #000000; stroke-width: 4.166666666666667;"/><line style="stroke: #000000; stroke-width: 4.166666666666667;" x1="1258.3333" x2="1718.75" y1="1555.4362" y2="1555.4362"/><text fill="#000000" font-family="sans-serif" font-size="29.1667" font-weight="bold" lengthAdjust="spacingAndGlyphs" textLength="433.3333" x="1266.6667" y="1540.6942">org.eclipse.keyple.commands</text><!--cluster org.eclipse.keyple.calypso.commands--><polygon fill="#FFFFFF" filter="url(#f3mhluj)" points="62.5,66.6667,627.0833,66.6667,641.6667,115.8529,3704.1667,115.8529,3704.1667,1368.75,62.5,1368.75,62.5,66.6667" style="stroke: #000000; stroke-width: 4.166666666666667;"/><line style="stroke: #000000; stroke-width: 4.166666666666667;" x1="62.5" x2="641.6667" y1="115.8529" y2="115.8529"/><text fill="#000000" font-family="sans-serif" font-size="29.1667" font-weight="bold" lengthAdjust="spacingAndGlyphs" textLength="552.0833" x="70.8333" y="101.1108">org.eclipse.keyple.calypso.commands</text><!--cluster org.eclipse.keyple.calypso.commands.csm--><polygon fill="#FFFFFF" filter="url(#f3mhluj)" points="441.6667,175,1072.9167,175,1087.5,224.1862,3620.8333,224.1862,3620.8333,1302.0833,441.6667,1302.0833,441.6667,175" style="stroke: #000000; stroke-width: 4.166666666666667;"/><line style="stroke: #000000; stroke-width: 4.166666666666667;" x1="441.6667" x2="1087.5" y1="224.1862" y2="224.1862"/><text fill="#000000" font-family="sans-serif" font-size="29.1667" font-weight="bold" lengthAdjust="spacingAndGlyphs" textLength="618.75" x="450" y="209.4442">org.eclipse.keyple.calypso.commands.csm</text><!--cluster org.eclipse.keyple.calypso.commands.csm.builder--><polygon fill="#FFFFFF" filter="url(#f3mhluj)" points="491.6667,727.0833,1235.4167,727.0833,1250,776.2695,2254.1667,776.2695,2254.1667,977.0833,491.6667,977.0833,491.6667,727.0833" style="stroke: #000000; stroke-width: 4.166666666666667;"/><line style="stroke: #000000; stroke-width: 4.166666666666667;" x1="491.6667" x2="1250" y1="776.2695" y2="776.2695"/><text fill="#000000" font-family="sans-serif" font-size="29.1667" font-weight="bold" lengthAdjust="spacingAndGlyphs" textLength="731.25" x="500" y="761.5275">org.eclipse.keyple.calypso.commands.csm.builder</text><!--cluster org.eclipse.keyple.calypso.commands.csm.parser--><polygon fill="#FFFFFF" filter="url(#f3mhluj)" points="2304.1667,727.0833,3039.5833,727.0833,3054.1667,776.2695,3570.8333,776.2695,3570.8333,977.0833,2304.1667,977.0833,2304.1667,727.0833" style="stroke: #000000; stroke-width: 4.166666666666667;"/><line style="stroke: #000000; stroke-width: 4.166666666666667;" x1="2304.1667" x2="3054.1667" y1="776.2695" y2="776.2695"/><text fill="#000000" font-family="sans-serif" font-size="29.1667" font-weight="bold" lengthAdjust="spacingAndGlyphs" textLength="722.9167" x="2312.5" y="761.5275">org.eclipse.keyple.calypso.commands.csm.parser</text><!--class AbstractApduCommandBuilder--><rect fill="#FEFECE" filter="url(#f3mhluj)" height="272.9492" style="stroke: #A80036; stroke-width: 3.125;" width="885.4167" x="1309.375" y="1639.5833"/><ellipse cx="1564.0625" cy="1672.9167" fill="#A9DCDF" rx="22.9167" ry="22.9167" style="stroke: #A80036; stroke-width: 2.0833333333333335;"/><path d="M1568.6198,1676.5951 L1559.9935,1676.5951 L1559.1146,1678.7435 L1559.9935,1678.7435 Q1561.263,1678.7435 1561.8164,1679.2318 Q1562.3698,1679.7201 1562.3698,1680.5339 Q1562.3698,1681.3151 1561.8164,1681.8034 Q1561.263,1682.2917 1559.9935,1682.2917 L1555.2083,1682.2917 Q1553.9388,1682.2917 1553.4017,1681.8034 Q1552.8646,1681.3151 1552.8646,1680.5013 Q1552.8646,1679.7201 1553.4342,1679.2155 Q1554.0039,1678.7109 1555.306,1678.7435 L1560.8724,1664.8763 L1558.5612,1664.8763 Q1557.2917,1664.8763 1556.7383,1664.388 Q1556.1849,1663.8997 1556.1849,1663.0859 Q1556.1849,1662.3047 1556.7383,1661.8164 Q1557.2917,1661.3281 1558.5612,1661.3281 L1566.2109,1661.3281 L1573.2747,1678.7435 Q1574.5117,1678.7435 1574.9023,1679.0365 Q1575.7161,1679.5898 1575.7161,1680.5339 Q1575.7161,1681.3151 1575.179,1681.8034 Q1574.6419,1682.2917 1573.3724,1682.2917 L1568.5872,1682.2917 Q1567.3177,1682.2917 1566.7643,1681.8034 Q1566.2109,1681.3151 1566.2109,1680.5013 Q1566.2109,1679.7201 1566.7643,1679.2318 Q1567.3177,1678.7435 1568.5872,1678.7435 L1569.4661,1678.7435 L1568.6198,1676.5951 Z M1567.1224,1673.0469 L1564.2904,1666.0156 L1561.4258,1673.0469 L1567.1224,1673.0469 Z "/><text fill="#000000" font-family="sans-serif" font-size="25" font-style="italic" lengthAdjust="spacingAndGlyphs" textLength="358.3333" x="1606.7708" y="1683.1462">AbstractApduCommandBuilder</text><line style="stroke: #A80036; stroke-width: 3.125;" x1="1311.4583" x2="2192.7083" y1="1706.25" y2="1706.25"/><rect fill="none" height="12.5" style="stroke: #C82930; stroke-width: 2.0833333333333335;" width="12.5" x="1326.0417" y="1725.8708"/><text fill="#000000" font-family="sans-serif" font-size="22.9167" lengthAdjust="spacingAndGlyphs" textLength="372.9167" x="1351.0417" y="1738.3728">CommandsTable commandReference</text><rect fill="none" height="12.5" style="stroke: #C82930; stroke-width: 2.0833333333333335;" width="12.5" x="1326.0417" y="1754.6956"/><text fill="#000000" font-family="sans-serif" font-size="22.9167" lengthAdjust="spacingAndGlyphs" textLength="277.0833" x="1351.0417" y="1767.1977">ApduRequest apduRequest</text><line style="stroke: #A80036; stroke-width: 3.125;" x1="1311.4583" x2="2192.7083" y1="1780.5664" y2="1780.5664"/><ellipse cx="1332.2917" cy="1806.4372" fill="#84BE84" rx="6.25" ry="6.25" style="stroke: #038048; stroke-width: 2.0833333333333335;"/><text fill="#000000" font-family="sans-serif" font-size="22.9167" lengthAdjust="spacingAndGlyphs" textLength="829.1667" x="1351.0417" y="1812.6892">AbstractApduCommandBuilder(CommandsTable reference, ApduRequest request)</text><ellipse cx="1332.2917" cy="1835.262" fill="#84BE84" rx="6.25" ry="6.25" style="stroke: #038048; stroke-width: 2.0833333333333335;"/><text fill="#000000" font-family="sans-serif" font-size="22.9167" lengthAdjust="spacingAndGlyphs" textLength="168.75" x="1351.0417" y="1841.5141">String getName()</text><ellipse cx="1332.2917" cy="1864.0869" fill="#84BE84" rx="6.25" ry="6.25" style="stroke: #038048; stroke-width: 2.0833333333333335;"/><text fill="#000000" font-family="sans-serif" font-size="22.9167" lengthAdjust="spacingAndGlyphs" textLength="329.1667" x="1351.0417" y="1870.3389">ApduRequest getApduRequest()</text><ellipse cx="1332.2917" cy="1892.9118" fill="#84BE84" rx="6.25" ry="6.25" style="stroke: #038048; stroke-width: 2.0833333333333335;"/><text fill="#000000" font-family="sans-serif" font-size="22.9167" lengthAdjust="spacingAndGlyphs" textLength="831.25" x="1351.0417" y="1899.1638">Class&lt;? extends AbstractApduResponseParser&gt; getApduResponseParserClass()</text><!--class AbstractApduResponseParser--><rect fill="#FEFECE" filter="url(#f3mhluj)" height="272.9492" style="stroke: #A80036; stroke-width: 3.125;" width="722.9167" x="2267.7083" y="1639.5833"/><ellipse cx="2447.3958" cy="1672.9167" fill="#A9DCDF" rx="22.9167" ry="22.9167" style="stroke: #A80036; stroke-width: 2.0833333333333335;"/><path d="M2451.9531,1676.5951 L2443.3268,1676.5951 L2442.4479,1678.7435 L2443.3268,1678.7435 Q2444.5964,1678.7435 2445.1497,1679.2318 Q2445.7031,1679.7201 2445.7031,1680.5339 Q2445.7031,1681.3151 2445.1497,1681.8034 Q2444.5964,1682.2917 2443.3268,1682.2917 L2438.5417,1682.2917 Q2437.2721,1682.2917 2436.735,1681.8034 Q2436.1979,1681.3151 2436.1979,1680.5013 Q2436.1979,1679.7201 2436.7676,1679.2155 Q2437.3372,1678.7109 2438.6393,1678.7435 L2444.2057,1664.8763 L2441.8945,1664.8763 Q2440.625,1664.8763 2440.0716,1664.388 Q2439.5182,1663.8997 2439.5182,1663.0859 Q2439.5182,1662.3047 2440.0716,1661.8164 Q2440.625,1661.3281 2441.8945,1661.3281 L2449.5443,1661.3281 L2456.6081,1678.7435 Q2457.8451,1678.7435 2458.2357,1679.0365 Q2459.0495,1679.5898 2459.0495,1680.5339 Q2459.0495,1681.3151 2458.5124,1681.8034 Q2457.9753,1682.2917 2456.7057,1682.2917 L2451.9206,1682.2917 Q2450.651,1682.2917 2450.0977,1681.8034 Q2449.5443,1681.3151 2449.5443,1680.5013 Q2449.5443,1679.7201 2450.0977,1679.2318 Q2450.651,1678.7435 2451.9206,1678.7435 L2452.7995,1678.7435 L2451.9531,1676.5951 Z M2450.4557,1673.0469 L2447.6237,1666.0156 L2444.7591,1673.0469 L2450.4557,1673.0469 Z "/><text fill="#000000" font-family="sans-serif" font-size="25" font-style="italic" lengthAdjust="spacingAndGlyphs" textLength="345.8333" x="2490.1042" y="1683.1462">AbstractApduResponseParser</text><line style="stroke: #A80036; stroke-width: 3.125;" x1="2269.7917" x2="2988.5417" y1="1706.25" y2="1706.25"/><rect fill="none" height="12.5" style="stroke: #C82930; stroke-width: 2.0833333333333335;" width="12.5" x="2284.375" y="1725.8708"/><text fill="#000000" font-family="sans-serif" font-size="22.9167" lengthAdjust="spacingAndGlyphs" textLength="314.5833" x="2309.375" y="1738.3728">ApduResponse apduResponse</text><line style="stroke: #A80036; stroke-width: 3.125;" x1="2269.7917" x2="2988.5417" y1="1751.7415" y2="1751.7415"/><ellipse cx="2290.625" cy="1777.6123" fill="#84BE84" rx="6.25" ry="6.25" style="stroke: #038048; stroke-width: 2.0833333333333335;"/><text fill="#000000" font-family="sans-serif" font-size="22.9167" lengthAdjust="spacingAndGlyphs" textLength="668.75" x="2309.375" y="1783.8643">AbstractApduResponseParser(ApduResponse responseToParse)</text><ellipse cx="2290.625" cy="1806.4372" fill="#84BE84" rx="6.25" ry="6.25" style="stroke: #038048; stroke-width: 2.0833333333333335;"/><text fill="#000000" font-family="sans-serif" font-size="22.9167" lengthAdjust="spacingAndGlyphs" textLength="366.6667" x="2309.375" y="1812.6892">ApduResponse getApduResponse()</text><ellipse cx="2290.625" cy="1835.262" fill="#84BE84" rx="6.25" ry="6.25" style="stroke: #038048; stroke-width: 2.0833333333333335;"/><text fill="#000000" font-family="sans-serif" font-size="22.9167" lengthAdjust="spacingAndGlyphs" textLength="222.9167" x="2309.375" y="1841.5141">short getStatusCode()</text><ellipse cx="2290.625" cy="1864.0869" fill="#84BE84" rx="6.25" ry="6.25" style="stroke: #038048; stroke-width: 2.0833333333333335;"/><text fill="#000000" font-family="sans-serif" font-size="22.9167" lengthAdjust="spacingAndGlyphs" textLength="233.3333" x="2309.375" y="1870.3389">boolean isSuccessful()</text><ellipse cx="2290.625" cy="1892.9118" fill="#84BE84" rx="6.25" ry="6.25" style="stroke: #038048; stroke-width: 2.0833333333333335;"/><text fill="#000000" font-family="sans-serif" font-size="22.9167" lengthAdjust="spacingAndGlyphs" textLength="287.5" x="2309.375" y="1899.1638">String getStatusInformation()</text><!--class CommandsTable--><rect fill="#FEFECE" filter="url(#f3mhluj)" height="215.2995" style="stroke: #A80036; stroke-width: 3.125;" width="831.25" x="3192.7083" y="1668.75"/><ellipse cx="3498.4375" cy="1702.0833" fill="#B4A7E5" rx="22.9167" ry="22.9167" style="stroke: #A80036; stroke-width: 2.0833333333333335;"/><path d="M3500.4232,1695.0846 L3500.4232,1708.9518 L3504.0039,1708.9518 Q3505.2734,1708.9518 3505.8268,1709.4401 Q3506.3802,1709.9284 3506.3802,1710.7422 Q3506.3802,1711.5234 3505.8268,1712.0117 Q3505.2734,1712.5 3504.0039,1712.5 L3493.2943,1712.5 Q3492.0247,1712.5 3491.4714,1712.0117 Q3490.918,1711.5234 3490.918,1710.7096 Q3490.918,1709.9284 3491.4714,1709.4401 Q3492.0247,1708.9518 3493.2943,1708.9518 L3496.875,1708.9518 L3496.875,1695.0846 L3493.2943,1695.0846 Q3492.0247,1695.0846 3491.4714,1694.5964 Q3490.918,1694.1081 3490.918,1693.2943 Q3490.918,1692.513 3491.4714,1692.0247 Q3492.0247,1691.5365 3493.2943,1691.5365 L3504.0039,1691.5365 Q3505.2734,1691.5365 3505.8268,1692.0247 Q3506.3802,1692.513 3506.3802,1693.2943 Q3506.3802,1694.1081 3505.8268,1694.5964 Q3505.2734,1695.0846 3504.0039,1695.0846 L3500.4232,1695.0846 Z "/><text fill="#000000" font-family="sans-serif" font-size="25" font-style="italic" lengthAdjust="spacingAndGlyphs" textLength="202.0833" x="3541.1458" y="1712.3128">CommandsTable</text><line style="stroke: #A80036; stroke-width: 3.125;" x1="3194.7917" x2="4021.875" y1="1735.4167" y2="1735.4167"/><line style="stroke: #A80036; stroke-width: 3.125;" x1="3194.7917" x2="4021.875" y1="1752.0833" y2="1752.0833"/><ellipse cx="3215.625" cy="1777.9541" fill="#84BE84" rx="6.25" ry="6.25" style="stroke: #038048; stroke-width: 2.0833333333333335;"/><text fill="#000000" font-family="sans-serif" font-size="22.9167" lengthAdjust="spacingAndGlyphs" textLength="168.75" x="3234.375" y="1784.2061">String getName()</text><ellipse cx="3215.625" cy="1806.779" fill="#84BE84" rx="6.25" ry="6.25" style="stroke: #038048; stroke-width: 2.0833333333333335;"/><text fill="#000000" font-family="sans-serif" font-size="22.9167" lengthAdjust="spacingAndGlyphs" textLength="247.9167" x="3234.375" y="1813.031">byte getInstructionByte()</text><ellipse cx="3215.625" cy="1835.6038" fill="#84BE84" rx="6.25" ry="6.25" style="stroke: #038048; stroke-width: 2.0833333333333335;"/><text fill="#000000" font-family="sans-serif" font-size="22.9167" lengthAdjust="spacingAndGlyphs" textLength="772.9167" x="3234.375" y="1841.8559">Class&lt;? extends AbstractApduCommandBuilder&gt; getCommandBuilderClass()</text><ellipse cx="3215.625" cy="1864.4287" fill="#84BE84" rx="6.25" ry="6.25" style="stroke: #038048; stroke-width: 2.0833333333333335;"/><text fill="#000000" font-family="sans-serif" font-size="22.9167" lengthAdjust="spacingAndGlyphs" textLength="777.0833" x="3234.375" y="1870.6807">Class&lt;? extends AbstractApduResponseParser&gt; getResponseParserClass()</text><!--class SendableInSession--><rect fill="#FEFECE" filter="url(#f3mhluj)" height="100" style="stroke: #A80036; stroke-width: 3.125;" width="293.75" x="113.5417" y="392.7083"/><ellipse cx="144.7917" cy="426.0417" fill="#B4A7E5" rx="22.9167" ry="22.9167" style="stroke: #A80036; stroke-width: 2.0833333333333335;"/><path d="M146.7773,419.043 L146.7773,432.9102 L150.3581,432.9102 Q151.6276,432.9102 152.181,433.3984 Q152.7344,433.8867 152.7344,434.7005 Q152.7344,435.4818 152.181,435.9701 Q151.6276,436.4583 150.3581,436.4583 L139.6484,436.4583 Q138.3789,436.4583 137.8255,435.9701 Q137.2721,435.4818 137.2721,434.668 Q137.2721,433.8867 137.8255,433.3984 Q138.3789,432.9102 139.6484,432.9102 L143.2292,432.9102 L143.2292,419.043 L139.6484,419.043 Q138.3789,419.043 137.8255,418.5547 Q137.2721,418.0664 137.2721,417.2526 Q137.2721,416.4714 137.8255,415.9831 Q138.3789,415.4948 139.6484,415.4948 L150.3581,415.4948 Q151.6276,415.4948 152.181,415.9831 Q152.7344,416.4714 152.7344,417.2526 Q152.7344,418.0664 152.181,418.5547 Q151.6276,419.043 150.3581,419.043 L146.7773,419.043 Z "/><text fill="#000000" font-family="sans-serif" font-size="25" font-style="italic" lengthAdjust="spacingAndGlyphs" textLength="227.0833" x="173.9583" y="436.2712">SendableInSession</text><line style="stroke: #A80036; stroke-width: 3.125;" x1="115.625" x2="405.2083" y1="459.375" y2="459.375"/><line style="stroke: #A80036; stroke-width: 3.125;" x1="115.625" x2="405.2083" y1="476.0417" y2="476.0417"/><!--class AbstractCsmCommandBuilder--><rect fill="#FEFECE" filter="url(#f3mhluj)" height="157.6497" style="stroke: #A80036; stroke-width: 3.125;" width="931.25" x="1157.2917" y="1110.4167"/><ellipse cx="1438.0208" cy="1143.75" fill="#A9DCDF" rx="22.9167" ry="22.9167" style="stroke: #A80036; stroke-width: 2.0833333333333335;"/><path d="M1442.5781,1147.4284 L1433.9518,1147.4284 L1433.0729,1149.5768 L1433.9518,1149.5768 Q1435.2214,1149.5768 1435.7747,1150.0651 Q1436.3281,1150.5534 1436.3281,1151.3672 Q1436.3281,1152.1484 1435.7747,1152.6367 Q1435.2214,1153.125 1433.9518,1153.125 L1429.1667,1153.125 Q1427.8971,1153.125 1427.36,1152.6367 Q1426.8229,1152.1484 1426.8229,1151.3346 Q1426.8229,1150.5534 1427.3926,1150.0488 Q1427.9622,1149.5443 1429.2643,1149.5768 L1434.8307,1135.7096 L1432.5195,1135.7096 Q1431.25,1135.7096 1430.6966,1135.2214 Q1430.1432,1134.7331 1430.1432,1133.9193 Q1430.1432,1133.138 1430.6966,1132.6497 Q1431.25,1132.1615 1432.5195,1132.1615 L1440.1693,1132.1615 L1447.2331,1149.5768 Q1448.4701,1149.5768 1448.8607,1149.8698 Q1449.6745,1150.4232 1449.6745,1151.3672 Q1449.6745,1152.1484 1449.1374,1152.6367 Q1448.6003,1153.125 1447.3307,1153.125 L1442.5456,1153.125 Q1441.276,1153.125 1440.7227,1152.6367 Q1440.1693,1152.1484 1440.1693,1151.3346 Q1440.1693,1150.5534 1440.7227,1150.0651 Q1441.276,1149.5768 1442.5456,1149.5768 L1443.4245,1149.5768 L1442.5781,1147.4284 Z M1441.0807,1143.8802 L1438.2487,1136.849 L1435.3841,1143.8802 L1441.0807,1143.8802 Z "/><text fill="#000000" font-family="sans-serif" font-size="25" font-style="italic" lengthAdjust="spacingAndGlyphs" textLength="352.0833" x="1480.7292" y="1153.9795">AbstractCsmCommandBuilder</text><line style="stroke: #A80036; stroke-width: 3.125;" x1="1159.375" x2="2086.4583" y1="1177.0833" y2="1177.0833"/><polygon fill="none" points="1180.2083,1192.5374,1188.5417,1200.8708,1180.2083,1209.2041,1171.875,1200.8708" style="stroke: #B38D22; stroke-width: 2.0833333333333335;"/><text fill="#000000" font-family="sans-serif" font-size="22.9167" lengthAdjust="spacingAndGlyphs" textLength="477.0833" x="1198.9583" y="1209.2061">CsmRevision defaultRevision = CsmRevision.C1</text><line style="stroke: #A80036; stroke-width: 3.125;" x1="1159.375" x2="2086.4583" y1="1222.5749" y2="1222.5749"/><ellipse cx="1180.2083" cy="1248.4456" fill="#84BE84" rx="6.25" ry="6.25" style="stroke: #038048; stroke-width: 2.0833333333333335;"/><text fill="#000000" font-family="sans-serif" font-size="22.9167" lengthAdjust="spacingAndGlyphs" textLength="877.0833" x="1198.9583" y="1254.6977">AbstractCsmCommandBuilder(CalypsoSmCommands reference, ApduRequest request)</text><!--class CsmRevision--><rect fill="#FEFECE" filter="url(#f3mhluj)" height="157.6497" style="stroke: #A80036; stroke-width: 3.125;" width="222.9167" x="788.5417" y="1110.4167"/><ellipse cx="819.7917" cy="1143.75" fill="#EB937F" rx="22.9167" ry="22.9167" style="stroke: #A80036; stroke-width: 2.0833333333333335;"/><path d="M817.4154,1145.4102 L817.4154,1150.6185 L826.4323,1150.6185 L826.4323,1148.6979 Q826.4323,1147.4284 826.9368,1146.875 Q827.4414,1146.3216 828.2227,1146.3216 Q829.0039,1146.3216 829.4922,1146.875 Q829.9805,1147.4284 829.9805,1148.6979 L829.9805,1154.1667 L813.3138,1154.1667 Q812.0117,1154.1667 811.4746,1153.6784 Q810.9375,1153.1901 810.9375,1152.3763 Q810.9375,1151.5951 811.4909,1151.1068 Q812.0443,1150.6185 813.3138,1150.6185 L813.8672,1150.6185 L813.8672,1136.7513 L813.3138,1136.7513 Q812.0117,1136.7513 811.4746,1136.263 Q810.9375,1135.7747 810.9375,1134.9609 Q810.9375,1134.1797 811.4746,1133.6914 Q812.0117,1133.2031 813.3138,1133.2031 L829.1992,1133.2031 L829.1992,1138.6068 Q829.1992,1139.8763 828.7272,1140.4134 Q828.2552,1140.9505 827.4414,1140.9505 Q826.6602,1140.9505 826.1719,1140.4134 Q825.6836,1139.8763 825.6836,1138.6068 L825.6836,1136.7513 L817.4154,1136.7513 L817.4154,1141.862 L820.5078,1141.862 Q820.5078,1140.4948 820.7682,1140.1042 Q821.3216,1139.2578 822.2982,1139.2578 Q823.0794,1139.2578 823.5677,1139.7949 Q824.056,1140.332 824.056,1141.6016 L824.056,1145.7031 Q824.056,1146.8424 823.7956,1147.2331 Q823.2422,1148.0469 822.2982,1148.0469 Q821.3216,1148.0469 820.7682,1147.2005 Q820.5078,1146.8099 820.5078,1145.4102 L817.4154,1145.4102 Z "/><text fill="#000000" font-family="sans-serif" font-size="25" lengthAdjust="spacingAndGlyphs" textLength="156.25" x="848.9583" y="1153.9795">CsmRevision</text><line style="stroke: #A80036; stroke-width: 3.125;" x1="790.625" x2="1009.375" y1="1177.0833" y2="1177.0833"/><text fill="#000000" font-family="sans-serif" font-size="22.9167" lengthAdjust="spacingAndGlyphs" textLength="27.0833" x="801.0417" y="1209.2061">C1</text><text fill="#000000" font-family="sans-serif" font-size="22.9167" lengthAdjust="spacingAndGlyphs" textLength="41.6667" x="801.0417" y="1238.031">S1D</text><line style="stroke: #A80036; stroke-width: 3.125;" x1="790.625" x2="1009.375" y1="1251.3997" y2="1251.3997"/><!--class CalypsoSmCommands--><rect fill="#FEFECE" filter="url(#f3mhluj)" height="301.7741" style="stroke: #A80036; stroke-width: 3.125;" width="364.5833" x="2153.125" y="291.6667"/><ellipse cx="2196.5625" cy="325" fill="#EB937F" rx="22.9167" ry="22.9167" style="stroke: #A80036; stroke-width: 2.0833333333333335;"/><path d="M2194.1862,326.6602 L2194.1862,331.8685 L2203.2031,331.8685 L2203.2031,329.9479 Q2203.2031,328.6784 2203.7077,328.125 Q2204.2122,327.5716 2204.9935,327.5716 Q2205.7747,327.5716 2206.263,328.125 Q2206.7513,328.6784 2206.7513,329.9479 L2206.7513,335.4167 L2190.0846,335.4167 Q2188.7826,335.4167 2188.2454,334.9284 Q2187.7083,334.4401 2187.7083,333.6263 Q2187.7083,332.8451 2188.2617,332.3568 Q2188.8151,331.8685 2190.0846,331.8685 L2190.638,331.8685 L2190.638,318.0013 L2190.0846,318.0013 Q2188.7826,318.0013 2188.2454,317.513 Q2187.7083,317.0247 2187.7083,316.2109 Q2187.7083,315.4297 2188.2454,314.9414 Q2188.7826,314.4531 2190.0846,314.4531 L2205.9701,314.4531 L2205.9701,319.8568 Q2205.9701,321.1263 2205.498,321.6634 Q2205.026,322.2005 2204.2122,322.2005 Q2203.431,322.2005 2202.9427,321.6634 Q2202.4544,321.1263 2202.4544,319.8568 L2202.4544,318.0013 L2194.1862,318.0013 L2194.1862,323.112 L2197.2786,323.112 Q2197.2786,321.7448 2197.5391,321.3542 Q2198.0924,320.5078 2199.069,320.5078 Q2199.8503,320.5078 2200.3385,321.0449 Q2200.8268,321.582 2200.8268,322.8516 L2200.8268,326.9531 Q2200.8268,328.0924 2200.5664,328.4831 Q2200.013,329.2969 2199.069,329.2969 Q2198.0924,329.2969 2197.5391,328.4505 Q2197.2786,328.0599 2197.2786,326.6602 L2194.1862,326.6602 Z "/><text fill="#000000" font-family="sans-serif" font-size="25" lengthAdjust="spacingAndGlyphs" textLength="270.8333" x="2228.4375" y="335.2295">CalypsoSmCommands</text><line style="stroke: #A80036; stroke-width: 3.125;" x1="2155.2083" x2="2515.625" y1="358.3333" y2="358.3333"/><text fill="#000000" font-family="sans-serif" font-size="22.9167" lengthAdjust="spacingAndGlyphs" textLength="275" x="2165.625" y="390.4561">CSM_SELECT_DIVERSIFIER</text><text fill="#000000" font-family="sans-serif" font-size="22.9167" lengthAdjust="spacingAndGlyphs" textLength="239.5833" x="2165.625" y="419.281">CSM_GET_CHALLENGE</text><text fill="#000000" font-family="sans-serif" font-size="22.9167" lengthAdjust="spacingAndGlyphs" textLength="181.25" x="2165.625" y="448.1059">CSM_DIGEST_INIT</text><text fill="#000000" font-family="sans-serif" font-size="22.9167" lengthAdjust="spacingAndGlyphs" textLength="229.1667" x="2165.625" y="476.9307">CSM_DIGEST_UPDATE</text><text fill="#000000" font-family="sans-serif" font-size="22.9167" lengthAdjust="spacingAndGlyphs" textLength="339.5833" x="2165.625" y="505.7556">CSM_DIGEST_UPDATE_MULTIPLE</text><text fill="#000000" font-family="sans-serif" font-size="22.9167" lengthAdjust="spacingAndGlyphs" textLength="216.6667" x="2165.625" y="534.5805">CSM_DIGEST_CLOSE</text><text fill="#000000" font-family="sans-serif" font-size="22.9167" lengthAdjust="spacingAndGlyphs" textLength="304.1667" x="2165.625" y="563.4054">CSM_DIGEST_AUTHENTICATE</text><line style="stroke: #A80036; stroke-width: 3.125;" x1="2155.2083" x2="2515.625" y1="576.7741" y2="576.7741"/><!--class SelectDiversifierCmdBuild--><rect fill="#FEFECE" filter="url(#f3mhluj)" height="100" style="stroke: #A80036; stroke-width: 3.125;" width="366.6667" x="1439.5833" y="843.75"/><ellipse cx="1470.8333" cy="877.0833" fill="#ADD1B2" rx="22.9167" ry="22.9167" style="stroke: #A80036; stroke-width: 2.0833333333333335;"/><path d="M1476.5951,868.4896 Q1476.9206,868.0339 1477.3112,867.806 Q1477.7018,867.5781 1478.1576,867.5781 Q1478.9388,867.5781 1479.4271,868.1152 Q1479.9154,868.6523 1479.9154,869.9219 L1479.9154,872.9492 Q1479.9154,874.2188 1479.4271,874.7721 Q1478.9388,875.3255 1478.1576,875.3255 Q1477.4414,875.3255 1477.0182,874.9023 Q1476.5951,874.5117 1476.3672,873.4375 Q1476.2695,872.6888 1475.8789,872.2982 Q1475.1953,871.5169 1473.9258,871.0612 Q1472.6563,870.6055 1471.3542,870.6055 Q1469.7591,870.6055 1468.4408,871.2891 Q1467.1224,871.9727 1466.097,873.5352 Q1465.0716,875.0977 1465.0716,877.2461 L1465.0716,879.5247 Q1465.0716,882.0964 1466.9271,883.8053 Q1468.7826,885.5143 1472.1029,885.5143 Q1474.056,885.5143 1475.4232,884.9935 Q1476.237,884.668 1477.1159,883.7565 Q1477.6693,883.2031 1477.9785,883.0404 Q1478.2878,882.8776 1478.7109,882.8776 Q1479.3945,882.8776 1479.9316,883.4147 Q1480.4688,883.9518 1480.4688,884.668 Q1480.4688,885.3841 1479.7526,886.2305 Q1478.7109,887.4349 1477.0508,888.1185 Q1474.8047,889.0625 1472.1029,889.0625 Q1468.9453,889.0625 1466.4388,887.7604 Q1464.388,886.7188 1462.9557,884.4889 Q1461.5234,882.2591 1461.5234,879.5898 L1461.5234,877.181 Q1461.5234,874.4141 1462.8092,872.0215 Q1464.0951,869.6289 1466.3737,868.3431 Q1468.6523,867.0573 1471.224,867.0573 Q1472.7539,867.0573 1474.1048,867.3991 Q1475.4557,867.7409 1476.5951,868.4896 Z "/><text fill="#000000" font-family="sans-serif" font-size="25" lengthAdjust="spacingAndGlyphs" textLength="300" x="1500" y="887.3128">SelectDiversifierCmdBuild</text><line style="stroke: #A80036; stroke-width: 3.125;" x1="1441.6667" x2="1804.1667" y1="910.4167" y2="910.4167"/><line style="stroke: #A80036; stroke-width: 3.125;" x1="1441.6667" x2="1804.1667" y1="927.0833" y2="927.0833"/><!--class GetChallengeCmdBuild--><rect fill="#FEFECE" filter="url(#f3mhluj)" height="100" style="stroke: #A80036; stroke-width: 3.125;" width="339.5833" x="1880.2083" y="843.75"/><ellipse cx="1911.4583" cy="877.0833" fill="#ADD1B2" rx="22.9167" ry="22.9167" style="stroke: #A80036; stroke-width: 2.0833333333333335;"/><path d="M1917.2201,868.4896 Q1917.5456,868.0339 1917.9362,867.806 Q1918.3268,867.5781 1918.7826,867.5781 Q1919.5638,867.5781 1920.0521,868.1152 Q1920.5404,868.6523 1920.5404,869.9219 L1920.5404,872.9492 Q1920.5404,874.2188 1920.0521,874.7721 Q1919.5638,875.3255 1918.7826,875.3255 Q1918.0664,875.3255 1917.6432,874.9023 Q1917.2201,874.5117 1916.9922,873.4375 Q1916.8945,872.6888 1916.5039,872.2982 Q1915.8203,871.5169 1914.5508,871.0612 Q1913.2813,870.6055 1911.9792,870.6055 Q1910.3841,870.6055 1909.0658,871.2891 Q1907.7474,871.9727 1906.722,873.5352 Q1905.6966,875.0977 1905.6966,877.2461 L1905.6966,879.5247 Q1905.6966,882.0964 1907.5521,883.8053 Q1909.4076,885.5143 1912.7279,885.5143 Q1914.681,885.5143 1916.0482,884.9935 Q1916.862,884.668 1917.7409,883.7565 Q1918.2943,883.2031 1918.6035,883.0404 Q1918.9128,882.8776 1919.3359,882.8776 Q1920.0195,882.8776 1920.5566,883.4147 Q1921.0938,883.9518 1921.0938,884.668 Q1921.0938,885.3841 1920.3776,886.2305 Q1919.3359,887.4349 1917.6758,888.1185 Q1915.4297,889.0625 1912.7279,889.0625 Q1909.5703,889.0625 1907.0638,887.7604 Q1905.013,886.7188 1903.5807,884.4889 Q1902.1484,882.2591 1902.1484,879.5898 L1902.1484,877.181 Q1902.1484,874.4141 1903.4342,872.0215 Q1904.7201,869.6289 1906.9987,868.3431 Q1909.2773,867.0573 1911.849,867.0573 Q1913.3789,867.0573 1914.7298,867.3991 Q1916.0807,867.7409 1917.2201,868.4896 Z "/><text fill="#000000" font-family="sans-serif" font-size="25" lengthAdjust="spacingAndGlyphs" textLength="272.9167" x="1940.625" y="887.3128">GetChallengeCmdBuild</text><line style="stroke: #A80036; stroke-width: 3.125;" x1="1882.2917" x2="2217.7083" y1="910.4167" y2="910.4167"/><line style="stroke: #A80036; stroke-width: 3.125;" x1="1882.2917" x2="2217.7083" y1="927.0833" y2="927.0833"/><!--class DigestUpdateCmdBuild--><rect fill="#FEFECE" filter="url(#f3mhluj)" height="100" style="stroke: #A80036; stroke-width: 3.125;" width="339.5833" x="1026.0417" y="843.75"/><ellipse cx="1057.2917" cy="877.0833" fill="#ADD1B2" rx="22.9167" ry="22.9167" style="stroke: #A80036; stroke-width: 2.0833333333333335;"/><path d="M1063.0534,868.4896 Q1063.3789,868.0339 1063.7695,867.806 Q1064.1602,867.5781 1064.6159,867.5781 Q1065.3971,867.5781 1065.8854,868.1152 Q1066.3737,868.6523 1066.3737,869.9219 L1066.3737,872.9492 Q1066.3737,874.2188 1065.8854,874.7721 Q1065.3971,875.3255 1064.6159,875.3255 Q1063.8997,875.3255 1063.4766,874.9023 Q1063.0534,874.5117 1062.8255,873.4375 Q1062.7279,872.6888 1062.3372,872.2982 Q1061.6536,871.5169 1060.3841,871.0612 Q1059.1146,870.6055 1057.8125,870.6055 Q1056.2174,870.6055 1054.8991,871.2891 Q1053.5807,871.9727 1052.5553,873.5352 Q1051.5299,875.0977 1051.5299,877.2461 L1051.5299,879.5247 Q1051.5299,882.0964 1053.3854,883.8053 Q1055.2409,885.5143 1058.5612,885.5143 Q1060.5143,885.5143 1061.8815,884.9935 Q1062.6953,884.668 1063.5742,883.7565 Q1064.1276,883.2031 1064.4368,883.0404 Q1064.7461,882.8776 1065.1693,882.8776 Q1065.8529,882.8776 1066.39,883.4147 Q1066.9271,883.9518 1066.9271,884.668 Q1066.9271,885.3841 1066.2109,886.2305 Q1065.1693,887.4349 1063.5091,888.1185 Q1061.263,889.0625 1058.5612,889.0625 Q1055.4036,889.0625 1052.8971,887.7604 Q1050.8464,886.7188 1049.4141,884.4889 Q1047.9818,882.2591 1047.9818,879.5898 L1047.9818,877.181 Q1047.9818,874.4141 1049.2676,872.0215 Q1050.5534,869.6289 1052.832,868.3431 Q1055.1107,867.0573 1057.6823,867.0573 Q1059.2122,867.0573 1060.5632,867.3991 Q1061.9141,867.7409 1063.0534,868.4896 Z "/><text fill="#000000" font-family="sans-serif" font-size="25" lengthAdjust="spacingAndGlyphs" textLength="272.9167" x="1086.4583" y="887.3128">DigestUpdateCmdBuild</text><line style="stroke: #A80036; stroke-width: 3.125;" x1="1028.125" x2="1363.5417" y1="910.4167" y2="910.4167"/><line style="stroke: #A80036; stroke-width: 3.125;" x1="1028.125" x2="1363.5417" y1="927.0833" y2="927.0833"/><!--class DigestUpdateMultipleCmdBuild--><rect fill="#FEFECE" filter="url(#f3mhluj)" height="100" style="stroke: #A80036; stroke-width: 3.125;" width="427.0833" x="526.0417" y="843.75"/><ellipse cx="557.2917" cy="877.0833" fill="#ADD1B2" rx="22.9167" ry="22.9167" style="stroke: #A80036; stroke-width: 2.0833333333333335;"/><path d="M563.0534,868.4896 Q563.3789,868.0339 563.7695,867.806 Q564.1602,867.5781 564.6159,867.5781 Q565.3971,867.5781 565.8854,868.1152 Q566.3737,868.6523 566.3737,869.9219 L566.3737,872.9492 Q566.3737,874.2188 565.8854,874.7721 Q565.3971,875.3255 564.6159,875.3255 Q563.8997,875.3255 563.4766,874.9023 Q563.0534,874.5117 562.8255,873.4375 Q562.7279,872.6888 562.3372,872.2982 Q561.6536,871.5169 560.3841,871.0612 Q559.1146,870.6055 557.8125,870.6055 Q556.2174,870.6055 554.8991,871.2891 Q553.5807,871.9727 552.5553,873.5352 Q551.5299,875.0977 551.5299,877.2461 L551.5299,879.5247 Q551.5299,882.0964 553.3854,883.8053 Q555.2409,885.5143 558.5612,885.5143 Q560.5143,885.5143 561.8815,884.9935 Q562.6953,884.668 563.5742,883.7565 Q564.1276,883.2031 564.4368,883.0404 Q564.7461,882.8776 565.1693,882.8776 Q565.8529,882.8776 566.39,883.4147 Q566.9271,883.9518 566.9271,884.668 Q566.9271,885.3841 566.2109,886.2305 Q565.1693,887.4349 563.5091,888.1185 Q561.263,889.0625 558.5612,889.0625 Q555.4036,889.0625 552.8971,887.7604 Q550.8464,886.7188 549.4141,884.4889 Q547.9818,882.2591 547.9818,879.5898 L547.9818,877.181 Q547.9818,874.4141 549.2676,872.0215 Q550.5534,869.6289 552.832,868.3431 Q555.1107,867.0573 557.6823,867.0573 Q559.2122,867.0573 560.5632,867.3991 Q561.9141,867.7409 563.0534,868.4896 Z "/><text fill="#000000" font-family="sans-serif" font-size="25" lengthAdjust="spacingAndGlyphs" textLength="360.4167" x="586.4583" y="887.3128">DigestUpdateMultipleCmdBuild</text><line style="stroke: #A80036; stroke-width: 3.125;" x1="528.125" x2="951.0417" y1="910.4167" y2="910.4167"/><line style="stroke: #A80036; stroke-width: 3.125;" x1="528.125" x2="951.0417" y1="927.0833" y2="927.0833"/><!--class SelectDiversifierRespPars--><rect fill="#FEFECE" filter="url(#f3mhluj)" height="100" style="stroke: #A80036; stroke-width: 3.125;" width="368.75" x="2753.125" y="843.75"/><ellipse cx="2784.375" cy="877.0833" fill="#ADD1B2" rx="22.9167" ry="22.9167" style="stroke: #A80036; stroke-width: 2.0833333333333335;"/><path d="M2790.1367,868.4896 Q2790.4622,868.0339 2790.8529,867.806 Q2791.2435,867.5781 2791.6992,867.5781 Q2792.4805,867.5781 2792.9688,868.1152 Q2793.457,868.6523 2793.457,869.9219 L2793.457,872.9492 Q2793.457,874.2188 2792.9688,874.7721 Q2792.4805,875.3255 2791.6992,875.3255 Q2790.9831,875.3255 2790.5599,874.9023 Q2790.1367,874.5117 2789.9089,873.4375 Q2789.8112,872.6888 2789.4206,872.2982 Q2788.737,871.5169 2787.4674,871.0612 Q2786.1979,870.6055 2784.8958,870.6055 Q2783.3008,870.6055 2781.9824,871.2891 Q2780.6641,871.9727 2779.6387,873.5352 Q2778.6133,875.0977 2778.6133,877.2461 L2778.6133,879.5247 Q2778.6133,882.0964 2780.4688,883.8053 Q2782.3242,885.5143 2785.6445,885.5143 Q2787.5977,885.5143 2788.9648,884.9935 Q2789.7786,884.668 2790.6576,883.7565 Q2791.2109,883.2031 2791.5202,883.0404 Q2791.8294,882.8776 2792.2526,882.8776 Q2792.9362,882.8776 2793.4733,883.4147 Q2794.0104,883.9518 2794.0104,884.668 Q2794.0104,885.3841 2793.2943,886.2305 Q2792.2526,887.4349 2790.5924,888.1185 Q2788.3464,889.0625 2785.6445,889.0625 Q2782.487,889.0625 2779.9805,887.7604 Q2777.9297,886.7188 2776.4974,884.4889 Q2775.0651,882.2591 2775.0651,879.5898 L2775.0651,877.181 Q2775.0651,874.4141 2776.3509,872.0215 Q2777.6367,869.6289 2779.9154,868.3431 Q2782.194,867.0573 2784.7656,867.0573 Q2786.2956,867.0573 2787.6465,867.3991 Q2788.9974,867.7409 2790.1367,868.4896 Z "/><text fill="#000000" font-family="sans-serif" font-size="25" lengthAdjust="spacingAndGlyphs" textLength="302.0833" x="2813.5417" y="887.3128">SelectDiversifierRespPars</text><line style="stroke: #A80036; stroke-width: 3.125;" x1="2755.2083" x2="3119.7917" y1="910.4167" y2="910.4167"/><line style="stroke: #A80036; stroke-width: 3.125;" x1="2755.2083" x2="3119.7917" y1="927.0833" y2="927.0833"/><!--class GetChallengeRespPars--><rect fill="#FEFECE" filter="url(#f3mhluj)" height="100" style="stroke: #A80036; stroke-width: 3.125;" width="341.6667" x="3195.8333" y="843.75"/><ellipse cx="3227.0833" cy="877.0833" fill="#ADD1B2" rx="22.9167" ry="22.9167" style="stroke: #A80036; stroke-width: 2.0833333333333335;"/><path d="M3232.8451,868.4896 Q3233.1706,868.0339 3233.5612,867.806 Q3233.9518,867.5781 3234.4076,867.5781 Q3235.1888,867.5781 3235.6771,868.1152 Q3236.1654,868.6523 3236.1654,869.9219 L3236.1654,872.9492 Q3236.1654,874.2188 3235.6771,874.7721 Q3235.1888,875.3255 3234.4076,875.3255 Q3233.6914,875.3255 3233.2682,874.9023 Q3232.8451,874.5117 3232.6172,873.4375 Q3232.5195,872.6888 3232.1289,872.2982 Q3231.4453,871.5169 3230.1758,871.0612 Q3228.9063,870.6055 3227.6042,870.6055 Q3226.0091,870.6055 3224.6908,871.2891 Q3223.3724,871.9727 3222.347,873.5352 Q3221.3216,875.0977 3221.3216,877.2461 L3221.3216,879.5247 Q3221.3216,882.0964 3223.1771,883.8053 Q3225.0326,885.5143 3228.3529,885.5143 Q3230.306,885.5143 3231.6732,884.9935 Q3232.487,884.668 3233.3659,883.7565 Q3233.9193,883.2031 3234.2285,883.0404 Q3234.5378,882.8776 3234.9609,882.8776 Q3235.6445,882.8776 3236.1816,883.4147 Q3236.7188,883.9518 3236.7188,884.668 Q3236.7188,885.3841 3236.0026,886.2305 Q3234.9609,887.4349 3233.3008,888.1185 Q3231.0547,889.0625 3228.3529,889.0625 Q3225.1953,889.0625 3222.6888,887.7604 Q3220.638,886.7188 3219.2057,884.4889 Q3217.7734,882.2591 3217.7734,879.5898 L3217.7734,877.181 Q3217.7734,874.4141 3219.0592,872.0215 Q3220.3451,869.6289 3222.6237,868.3431 Q3224.9023,867.0573 3227.474,867.0573 Q3229.0039,867.0573 3230.3548,867.3991 Q3231.7057,867.7409 3232.8451,868.4896 Z "/><text fill="#000000" font-family="sans-serif" font-size="25" lengthAdjust="spacingAndGlyphs" textLength="275" x="3256.25" y="887.3128">GetChallengeRespPars</text><line style="stroke: #A80036; stroke-width: 3.125;" x1="3197.9167" x2="3535.4167" y1="910.4167" y2="910.4167"/><line style="stroke: #A80036; stroke-width: 3.125;" x1="3197.9167" x2="3535.4167" y1="927.0833" y2="927.0833"/><!--class DigestUpdateRespPars--><rect fill="#FEFECE" filter="url(#f3mhluj)" height="100" style="stroke: #A80036; stroke-width: 3.125;" width="341.6667" x="2337.5" y="843.75"/><ellipse cx="2368.75" cy="877.0833" fill="#ADD1B2" rx="22.9167" ry="22.9167" style="stroke: #A80036; stroke-width: 2.0833333333333335;"/><path d="M2374.5117,868.4896 Q2374.8372,868.0339 2375.2279,867.806 Q2375.6185,867.5781 2376.0742,867.5781 Q2376.8555,867.5781 2377.3438,868.1152 Q2377.832,868.6523 2377.832,869.9219 L2377.832,872.9492 Q2377.832,874.2188 2377.3438,874.7721 Q2376.8555,875.3255 2376.0742,875.3255 Q2375.3581,875.3255 2374.9349,874.9023 Q2374.5117,874.5117 2374.2839,873.4375 Q2374.1862,872.6888 2373.7956,872.2982 Q2373.112,871.5169 2371.8424,871.0612 Q2370.5729,870.6055 2369.2708,870.6055 Q2367.6758,870.6055 2366.3574,871.2891 Q2365.0391,871.9727 2364.0137,873.5352 Q2362.9883,875.0977 2362.9883,877.2461 L2362.9883,879.5247 Q2362.9883,882.0964 2364.8438,883.8053 Q2366.6992,885.5143 2370.0195,885.5143 Q2371.9727,885.5143 2373.3398,884.9935 Q2374.1536,884.668 2375.0326,883.7565 Q2375.5859,883.2031 2375.8952,883.0404 Q2376.2044,882.8776 2376.6276,882.8776 Q2377.3112,882.8776 2377.8483,883.4147 Q2378.3854,883.9518 2378.3854,884.668 Q2378.3854,885.3841 2377.6693,886.2305 Q2376.6276,887.4349 2374.9674,888.1185 Q2372.7214,889.0625 2370.0195,889.0625 Q2366.862,889.0625 2364.3555,887.7604 Q2362.3047,886.7188 2360.8724,884.4889 Q2359.4401,882.2591 2359.4401,879.5898 L2359.4401,877.181 Q2359.4401,874.4141 2360.7259,872.0215 Q2362.0117,869.6289 2364.2904,868.3431 Q2366.569,867.0573 2369.1406,867.0573 Q2370.6706,867.0573 2372.0215,867.3991 Q2373.3724,867.7409 2374.5117,868.4896 Z "/><text fill="#000000" font-family="sans-serif" font-size="25" lengthAdjust="spacingAndGlyphs" textLength="275" x="2397.9167" y="887.3128">DigestUpdateRespPars</text><line style="stroke: #A80036; stroke-width: 3.125;" x1="2339.5833" x2="2677.0833" y1="910.4167" y2="910.4167"/><line style="stroke: #A80036; stroke-width: 3.125;" x1="2339.5833" x2="2677.0833" y1="927.0833" y2="927.0833"/><path d="M1949.5417,1624.0708 C2031.9625,1569.7625 2131.625,1515.1833 2231.25,1487.5 C2572.0417,1392.8125 2682.7292,1406.7292 3027.0833,1487.5 C3166.3125,1520.1563 3310.375,1591.3688 3420.25,1654.8729 " fill="none" style="stroke: #A80036; stroke-width: 2.0833333333333335;"/><polygon fill="#A80036" points="3443.875,1668.7104,3437.3019,1655.2016,3422.3041,1656.0734,3428.8772,1669.5822,3443.875,1668.7104" style="stroke: #A80036; stroke-width: 2.0833333333333335;"/><polygon fill="#A80036" points="1926.7667,1639.3583,1946.979,1635.8274,1935.4155,1633.5528,1937.6901,1621.9892,1926.7667,1639.3583" style="stroke: #A80036; stroke-width: 2.0833333333333335;"/><line style="stroke: #A80036; stroke-width: 2.0833333333333335;" x1="1935.4155" x2="1949.2542" y1="1633.5528" y2="1624.2646"/><text fill="#000000" font-family="sans-serif" font-size="27.0833" lengthAdjust="spacingAndGlyphs" textLength="125" x="2647.9167" y="1448.9482">references</text><text fill="#000000" font-family="sans-serif" font-size="27.0833" lengthAdjust="spacingAndGlyphs" textLength="10.4167" x="1934.8863" y="1617.4054">*</text><text fill="#000000" font-family="sans-serif" font-size="27.0833" lengthAdjust="spacingAndGlyphs" textLength="14.5833" x="3405.1393" y="1646.0558">1</text><path d="M3165.3958,1776.0417 C3116.2708,1776.0417 3066.4792,1776.0417 3018.0833,1776.0417 " fill="none" style="stroke: #A80036; stroke-width: 2.0833333333333335;"/><polygon fill="#A80036" points="2991,1776.0417,3009.75,1784.375,3001.4167,1776.0417,3009.75,1767.7083,2991,1776.0417" style="stroke: #A80036; stroke-width: 2.0833333333333335;"/><line style="stroke: #A80036; stroke-width: 2.0833333333333335;" x1="3001.4167" x2="3018.0833" y1="1776.0417" y2="1776.0417"/><polygon fill="#A80036" points="3192.625,1776.0417,3180.125,1767.7083,3167.625,1776.0417,3180.125,1784.375,3192.625,1776.0417" style="stroke: #A80036; stroke-width: 2.0833333333333335;"/><text fill="#000000" font-family="sans-serif" font-size="27.0833" lengthAdjust="spacingAndGlyphs" textLength="125" x="3029.1667" y="1762.4898">references</text><text fill="#000000" font-family="sans-serif" font-size="27.0833" lengthAdjust="spacingAndGlyphs" textLength="14.5833" x="3161.5182" y="1770.1724">1</text><text fill="#000000" font-family="sans-serif" font-size="27.0833" lengthAdjust="spacingAndGlyphs" textLength="10.4167" x="3007.6316" y="1770.0838">*</text><path d="M1011.5438,1189.5833 C1060.1042,1189.5833 1108.6625,1189.5833 1157.2229,1189.5833 " fill="none" style="stroke: #A80036; stroke-width: 2.0833333333333335;"/><text fill="#000000" font-family="sans-serif" font-size="27.0833" lengthAdjust="spacingAndGlyphs" textLength="31.25" x="1027.8372" y="1182.3201">+1</text><text fill="#000000" font-family="sans-serif" font-size="27.0833" lengthAdjust="spacingAndGlyphs" textLength="41.6667" x="1099.5921" y="1183.8412">1..*</text><path d="M1622.9167,943.9958 C1622.9167,977.8521 1622.9167,1024.7083 1622.9167,1068.2813 " fill="none" style="stroke: #A80036; stroke-width: 2.0833333333333335;"/><polygon fill="none" points="1637.5,1068.4917,1622.9167,1110.1583,1608.3333,1068.4917,1637.5,1068.4917" style="stroke: #A80036; stroke-width: 2.0833333333333335;"/><text fill="#000000" font-family="sans-serif" font-size="27.0833" lengthAdjust="spacingAndGlyphs" textLength="95.8333" x="1625" y="1040.6148">extends</text><path d="M1979.475,943.9958 C1922.9292,982.6146 1841.6188,1038.1417 1770.9208,1086.425 " fill="none" style="stroke: #A80036; stroke-width: 2.0833333333333335;"/><polygon fill="none" points="1778.8,1098.7021,1736.1667,1110.1583,1762.3521,1074.6167,1778.8,1098.7021" style="stroke: #A80036; stroke-width: 2.0833333333333335;"/><text fill="#000000" font-family="sans-serif" font-size="27.0833" lengthAdjust="spacingAndGlyphs" textLength="95.8333" x="1877.0833" y="1040.6148">extends</text><path d="M1266.3583,943.9958 C1322.9042,982.6146 1404.2146,1038.1417 1474.9125,1086.425 " fill="none" style="stroke: #A80036; stroke-width: 2.0833333333333335;"/><polygon fill="none" points="1483.4813,1074.6167,1509.6667,1110.1583,1467.0333,1098.7021,1483.4813,1074.6167" style="stroke: #A80036; stroke-width: 2.0833333333333335;"/><text fill="#000000" font-family="sans-serif" font-size="27.0833" lengthAdjust="spacingAndGlyphs" textLength="95.8333" x="1412.5" y="1040.6148">extends</text><path d="M856.5333,943.7729 C898.2646,960.3104 945.7833,978.4979 989.5833,993.75 C1094.3146,1030.2188 1210.025,1066.7104 1313.5771,1098.0292 " fill="none" style="stroke: #A80036; stroke-width: 2.0833333333333335;"/><polygon fill="none" points="1318.4146,1084.2542,1354.1188,1110.2167,1310.0167,1112.1875,1318.4146,1084.2542" style="stroke: #A80036; stroke-width: 2.0833333333333335;"/><text fill="#000000" font-family="sans-serif" font-size="27.0833" lengthAdjust="spacingAndGlyphs" textLength="95.8333" x="1147.9167" y="1040.6148">extends</text><path d="M2128.9375,601.4167 C2012.5146,661.4313 1959.5313,642.7208 1843.75,710.4167 C1789.0583,742.3938 1733.9646,787.5854 1692.4875,824.8417 " fill="none" style="stroke: #A80036; stroke-width: 2.0833333333333335;"/><polygon fill="#A80036" points="1672.1125,843.4896,1691.5702,836.9778,1679.7967,836.4567,1680.3177,824.6832,1672.1125,843.4896" style="stroke: #A80036; stroke-width: 2.0833333333333335;"/><line style="stroke: #A80036; stroke-width: 2.0833333333333335;" x1="1679.7967" x2="1692.0917" y1="836.4567" y2="825.2052"/><polygon fill="#A80036" points="2153.1042,588.3146,2138.1431,586.9503,2131.1295,600.2358,2146.0906,601.6001,2153.1042,588.3146" style="stroke: #A80036; stroke-width: 2.0833333333333335;"/><text fill="#000000" font-family="sans-serif" font-size="27.0833" lengthAdjust="spacingAndGlyphs" textLength="125" x="1975" y="686.4482">references</text><text fill="#000000" font-family="sans-serif" font-size="27.0833" lengthAdjust="spacingAndGlyphs" textLength="14.5833" x="2121.6342" y="594.6261">1</text><text fill="#000000" font-family="sans-serif" font-size="27.0833" lengthAdjust="spacingAndGlyphs" textLength="14.5833" x="1668.2671" y="821.2149">1</text><path d="M2225.1875,617.375 C2180.2292,687.7625 2130.7292,765.2583 2095.8542,819.8708 " fill="none" style="stroke: #A80036; stroke-width: 2.0833333333333335;"/><polygon fill="#A80036" points="2080.9271,843.2458,2098.0417,831.9278,2086.5332,834.4664,2083.9946,822.958,2080.9271,843.2458" style="stroke: #A80036; stroke-width: 2.0833333333333335;"/><line style="stroke: #A80036; stroke-width: 2.0833333333333335;" x1="2086.5332" x2="2095.5083" y1="834.4664" y2="820.4198"/><polygon fill="#A80036" points="2239.9792,594.2167,2226.2275,600.2654,2226.5219,615.2857,2240.2735,609.2369,2239.9792,594.2167" style="stroke: #A80036; stroke-width: 2.0833333333333335;"/><text fill="#000000" font-family="sans-serif" font-size="27.0833" lengthAdjust="spacingAndGlyphs" textLength="125" x="2195.8333" y="686.4482">references</text><text fill="#000000" font-family="sans-serif" font-size="27.0833" lengthAdjust="spacingAndGlyphs" textLength="14.5833" x="2215.6045" y="638.4103">1</text><text fill="#000000" font-family="sans-serif" font-size="27.0833" lengthAdjust="spacingAndGlyphs" textLength="14.5833" x="2072.4003" y="820.9086">1</text><path d="M2127.5208,600.0792 C1829.7563,717.1042 1695.5167,571.725 1402.0833,710.4167 C1345.825,737.0083 1293.3125,783.6083 1255.3542,822.8979 " fill="none" style="stroke: #A80036; stroke-width: 2.0833333333333335;"/><polygon fill="#A80036" points="1236.3604,843.2146,1255.2526,835.2088,1243.4741,835.6053,1243.0776,823.8268,1236.3604,843.2146" style="stroke: #A80036; stroke-width: 2.0833333333333335;"/><line style="stroke: #A80036; stroke-width: 2.0833333333333335;" x1="1243.4741" x2="1254.8562" y1="835.6053" y2="823.4302"/><polygon fill="#A80036" points="2153.0208,589.575,2138.2908,586.6219,2129.8994,599.083,2144.6295,602.0361,2153.0208,589.575" style="stroke: #A80036; stroke-width: 2.0833333333333335;"/><text fill="#000000" font-family="sans-serif" font-size="27.0833" lengthAdjust="spacingAndGlyphs" textLength="125" x="1554.1667" y="686.4482">references</text><text fill="#000000" font-family="sans-serif" font-size="27.0833" lengthAdjust="spacingAndGlyphs" textLength="14.5833" x="2122.1362" y="631.7882">1</text><text fill="#000000" font-family="sans-serif" font-size="27.0833" lengthAdjust="spacingAndGlyphs" textLength="14.5833" x="1230.2937" y="820.8694">1</text><path d="M2126.9167,598.8875 C1929.2146,658.2646 1486.6625,634.8104 1310.4167,656.25 C1301.4438,657.3417 997.9167,706.9188 989.5833,710.4167 C923.8625,737.9917 858.9792,785.8083 811.7875,825.4063 " fill="none" style="stroke: #A80036; stroke-width: 2.0833333333333335;"/><polygon fill="#A80036" points="790.7646,843.4875,810.4142,837.58,798.6623,836.6954,799.5469,824.9436,790.7646,843.4875" style="stroke: #A80036; stroke-width: 2.0833333333333335;"/><line style="stroke: #A80036; stroke-width: 2.0833333333333335;" x1="798.6623" x2="811.2979" y1="836.6954" y2="825.8271"/><polygon fill="#A80036" points="2152.5625,590.1625,2138.0451,586.2974,2128.8937,598.2114,2143.4111,602.0766,2152.5625,590.1625" style="stroke: #A80036; stroke-width: 2.0833333333333335;"/><text fill="#000000" font-family="sans-serif" font-size="27.0833" lengthAdjust="spacingAndGlyphs" textLength="125" x="1312.5" y="686.4482">references</text><text fill="#000000" font-family="sans-serif" font-size="27.0833" lengthAdjust="spacingAndGlyphs" textLength="14.5833" x="2131.1658" y="638.343">1</text><text fill="#000000" font-family="sans-serif" font-size="27.0833" lengthAdjust="spacingAndGlyphs" textLength="14.5833" x="787.428" y="821.2122">1</text><path d="M2540.2083,603.9438 C2611.5625,651.2792 2641.1458,658.3042 2714.5833,710.4167 C2765.1667,746.3063 2819.1875,790.0854 2861.375,825.6271 " fill="none" style="stroke: #A80036; stroke-width: 2.0833333333333335;"/><polygon fill="#A80036" points="2882.2917,843.375,2873.3756,824.895,2874.345,836.6402,2862.5999,837.6096,2882.2917,843.375" style="stroke: #A80036; stroke-width: 2.0833333333333335;"/><line style="stroke: #A80036; stroke-width: 2.0833333333333335;" x1="2874.345" x2="2861.6458" y1="836.6402" y2="825.8479"/><polygon fill="#A80036" points="2517.7708,588.6667,2523.4151,602.5892,2538.4376,602.7339,2532.7933,588.8114,2517.7708,588.6667" style="stroke: #A80036; stroke-width: 2.0833333333333335;"/><text fill="#000000" font-family="sans-serif" font-size="27.0833" lengthAdjust="spacingAndGlyphs" textLength="125" x="2691.6667" y="686.4482">references</text><text fill="#000000" font-family="sans-serif" font-size="27.0833" lengthAdjust="spacingAndGlyphs" textLength="14.5833" x="2534.6612" y="595.0096">1</text><text fill="#000000" font-family="sans-serif" font-size="27.0833" lengthAdjust="spacingAndGlyphs" textLength="14.5833" x="2851.6927" y="821.0709">1</text><path d="M2543.5625,601.4958 C2793.3958,703.7 2908.8125,590.1646 3158.3333,710.4167 C3214.9792,737.7104 3268.25,784.6042 3306.75,823.8542 " fill="none" style="stroke: #A80036; stroke-width: 2.0833333333333335;"/><polygon fill="#A80036" points="3325.4792,843.5396,3318.6037,824.2074,3318.3035,835.9886,3306.5222,835.6884,3325.4792,843.5396" style="stroke: #A80036; stroke-width: 2.0833333333333335;"/><line style="stroke: #A80036; stroke-width: 2.0833333333333335;" x1="3318.3035" x2="3306.8125" y1="835.9886" y2="823.9167"/><polygon fill="#A80036" points="2518.1458,590.5521,2526.3296,603.1505,2541.1065,600.4418,2532.9228,587.8434,2518.1458,590.5521" style="stroke: #A80036; stroke-width: 2.0833333333333335;"/><text fill="#000000" font-family="sans-serif" font-size="27.0833" lengthAdjust="spacingAndGlyphs" textLength="125" x="3116.6667" y="686.4482">references</text><text fill="#000000" font-family="sans-serif" font-size="27.0833" lengthAdjust="spacingAndGlyphs" textLength="14.5833" x="2534.4757" y="632.8493">1</text><text fill="#000000" font-family="sans-serif" font-size="27.0833" lengthAdjust="spacingAndGlyphs" textLength="14.5833" x="3298.473" y="821.2777">1</text><path d="M2403.2083,619.9854 C2429.8542,688.8438 2458.9792,764.1229 2479.8125,817.9396 " fill="none" style="stroke: #A80036; stroke-width: 2.0833333333333335;"/><polygon fill="#A80036" points="2489.6042,843.2458,2490.6121,822.7521,2485.8463,833.5306,2475.0678,828.7648,2489.6042,843.2458" style="stroke: #A80036; stroke-width: 2.0833333333333335;"/><line style="stroke: #A80036; stroke-width: 2.0833333333333335;" x1="2485.8463" x2="2479.8229" y1="833.5306" y2="817.9875"/><polygon fill="#A80036" points="2393.2292,594.2167,2389.9665,608.8812,2402.2482,617.5331,2405.5108,602.8686,2393.2292,594.2167" style="stroke: #A80036; stroke-width: 2.0833333333333335;"/><text fill="#000000" font-family="sans-serif" font-size="27.0833" lengthAdjust="spacingAndGlyphs" textLength="125" x="2429.1667" y="686.4482">references</text><text fill="#000000" font-family="sans-serif" font-size="27.0833" lengthAdjust="spacingAndGlyphs" textLength="14.5833" x="2383.4611" y="638.4103">1</text><text fill="#000000" font-family="sans-serif" font-size="27.0833" lengthAdjust="spacingAndGlyphs" textLength="14.5833" x="2468.353" y="820.9086">1</text><path d="M345.9125,520.1229 C423.775,586.7604 534.4438,676.0938 587.5,693.75 C672.3542,721.9875 906.575,677.1458 989.5833,710.4167 C1058.6083,738.0833 1120.0979,799.3354 1157.6042,842.9688 " fill="none" style="stroke: #A80036; stroke-width: 2.0833333333333335; stroke-dasharray: 7.0,7.0;"/><polygon fill="none" points="336.2771,531.0708,314.3042,492.7812,355.3583,509.0104,336.2771,531.0708" style="stroke: #A80036; stroke-width: 2.0833333333333335;"/><text fill="#000000" font-family="sans-serif" font-size="27.0833" lengthAdjust="spacingAndGlyphs" textLength="139.5833" x="589.5833" y="686.4482">implements</text><path d="M277.2083,534.0063 C290.7208,585.6208 314.2604,649.0042 354.1667,693.75 C416.2458,763.3604 508.6125,811.9708 587.3604,843.5938 " fill="none" style="stroke: #A80036; stroke-width: 2.0833333333333335; stroke-dasharray: 7.0,7.0;"/><polygon fill="none" points="262.9646,537.1354,267.9167,493.2688,291.4,530.65,262.9646,537.1354" style="stroke: #A80036; stroke-width: 2.0833333333333335;"/><text fill="#000000" font-family="sans-serif" font-size="27.0833" lengthAdjust="spacingAndGlyphs" textLength="139.5833" x="356.25" y="686.4482">implements</text><path d="M2518,590.875 C2520.3333,591.8708 2522.6667,592.8292 2525,593.75 C2742.5625,679.4833 3417.2292,534.0917 3570.8333,710.4167 C3793.6667,966.2167 3716.1458,1402.2188 3654.4792,1628.3208 " fill="none" style="stroke: #A80036; stroke-width: 2.0833333333333335;"/><polygon fill="none" points="3668.4375,1632.5563,3643.0417,1668.6604,3640.375,1624.5958,3668.4375,1632.5563" style="stroke: #A80036; stroke-width: 2.0833333333333335;"/><text fill="#000000" font-family="sans-serif" font-size="27.0833" lengthAdjust="spacingAndGlyphs" textLength="139.5833" x="3712.5" y="1040.6148">implements</text><path d="M1640.0688,1268.9896 C1658.5875,1352.4729 1688.7021,1488.2313 1713.0438,1597.9688 " fill="none" style="stroke: #A80036; stroke-width: 2.0833333333333335;"/><polygon fill="none" points="1727.4375,1595.5125,1722.2229,1639.3479,1698.9625,1601.8292,1727.4375,1595.5125" style="stroke: #A80036; stroke-width: 2.0833333333333335;"/><text fill="#000000" font-family="sans-serif" font-size="27.0833" lengthAdjust="spacingAndGlyphs" textLength="95.8333" x="1683.3333" y="1448.9482">extends</text><path d="M2928.625,944.1604 C2909.7708,1042.5958 2861.5833,1272.5604 2791.6667,1456.25 C2773.1458,1504.8938 2749.2917,1555.8271 2725.5833,1602.3083 " fill="none" style="stroke: #A80036; stroke-width: 2.0833333333333335;"/><polygon fill="none" points="2738.4792,1609.1292,2706.2708,1639.325,2712.6042,1595.6375,2738.4792,1609.1292" style="stroke: #A80036; stroke-width: 2.0833333333333335;"/><text fill="#000000" font-family="sans-serif" font-size="27.0833" lengthAdjust="spacingAndGlyphs" textLength="95.8333" x="2895.8333" y="1201.0315">extends</text><path d="M3337,944.0333 C3279.1042,1036.6271 3144.9167,1244.1813 3010.4167,1402.0833 C2949.0833,1474.0896 2875.8958,1547.9313 2810.1042,1610.6417 " fill="none" style="stroke: #A80036; stroke-width: 2.0833333333333335;"/><polygon fill="none" points="2819.7917,1621.55,2779.4792,1639.5479,2799.7708,1600.3396,2819.7917,1621.55" style="stroke: #A80036; stroke-width: 2.0833333333333335;"/><text fill="#000000" font-family="sans-serif" font-size="27.0833" lengthAdjust="spacingAndGlyphs" textLength="95.8333" x="3231.25" y="1201.0315">extends</text><path d="M2524.2708,943.8896 C2530.5,964.2188 2537.2083,988.2792 2541.6667,1010.4167 C2581.7292,1209.4896 2605.0833,1441.7229 2617.4375,1597.3292 " fill="none" style="stroke: #A80036; stroke-width: 2.0833333333333335;"/><polygon fill="none" points="2632,1596.4375,2620.625,1639.0958,2602.9167,1598.6646,2632,1596.4375" style="stroke: #A80036; stroke-width: 2.0833333333333335;"/><text fill="#000000" font-family="sans-serif" font-size="27.0833" lengthAdjust="spacingAndGlyphs" textLength="95.8333" x="2602.0833" y="1201.0315">extends</text></g></svg>